<?xml version="1.0" encoding="UTF-8"?>
<svg width="300px" height="300px" viewBox="0 0 300 300" version="1.1" xmlns="http://www.w3.org/2000/svg" xmlns:xlink="http://www.w3.org/1999/xlink">
    <!-- Generator: Sketch 49 (51002) - http://www.bohemiancoding.com/sketch -->
    <title>白羊座</title>
    <desc>Created with Sketch.</desc>
    <defs></defs>
    <g id="白羊座" stroke="none" stroke-width="1" fill="none" fill-rule="evenodd">
        <g id="白羊座-copy" transform="translate(26.000000, 10.000000)">
            <path d="M100.581872,180.883383 C67.5895001,202.532614 52.6100873,216.066757 55.6436331,221.485811 C58.677179,226.904866 69.3999805,225.469965 87.8120378,217.181109 C84.1560567,227.296502 82.7905976,235.463918 83.7156606,241.683357 C84.6407236,247.902797 90.2627939,257.272107 100.581872,269.791288 L113.430996,269.791288 C122.238257,249.83366 133.458941,240.46435 147.093047,241.683357 C160.727154,242.902365 168.258489,256.908445 169.68705,283.701599 L182.934613,283.701599 C190.954477,267.233625 195.07365,254.547258 195.292133,245.642499 C195.510616,236.73774 192.063765,222.022108 184.951581,201.495602 C201.124325,213.874584 210.366365,217.875193 212.677701,213.497429 C214.425219,210.187558 201.933755,183.143352 189.191673,176.460202 C184.782332,174.147528 178.634297,172.383851 170.747569,171.16917 L100.581872,180.883383 Z" id="Path-100" stroke="#372400" stroke-width="3.3000002" fill="#FFE1D6" stroke-linecap="round" stroke-linejoin="round"></path>
            <path d="M95.5914871,218.610744 C88.5445003,216.527249 82.8901348,217.933135 78.6283905,222.828402 C74.3666463,227.72367 75.1224729,232.778129 80.8958704,237.991779 C73.8793019,243.51693 73.1234753,247.875668 78.6283905,251.067993 C84.1333058,254.260319 92.7577842,252.79047 104.501826,246.658448 C113.340873,252.473088 119.65405,255.380408 123.441356,255.380408 C127.228662,255.380408 129.620989,252.473088 130.618336,246.658448 C133.573887,251.036009 136.531168,253.475011 139.490177,253.975455 C142.449186,254.475899 146.495293,253.221348 151.628499,250.211803 C155.723244,254.17968 158.586614,256.367648 160.218611,256.775706 C161.850608,257.183765 164.004713,256.250348 166.680926,253.975455 C171.750079,257.33665 176.455694,258.672537 180.797769,257.983117 C185.139843,257.293697 188.335589,254.703259 190.385004,250.211803 C200.563112,249.732117 206.037855,246.72951 206.809231,241.203981 C207.580607,235.678452 203.235763,230.587363 193.774699,225.930713 C194.651189,220.725416 193.521291,217.243679 190.385004,215.485501 C187.248717,213.727324 183.410697,214.120734 178.870943,216.665729 C173.067856,209.987837 167.766396,206.495267 162.966564,206.188019 C158.166731,205.880771 152.943948,208.699662 147.298213,214.644691 C144.950968,210.739661 142.164847,208.787146 138.93985,208.787146 C135.714853,208.787146 132.060554,210.739661 127.976951,214.644691 C123.282853,212.119291 119.461754,211.02111 116.513657,211.350145 C113.565559,211.679181 111.350621,213.451043 109.868843,216.665729 C107.352681,214.975299 104.835443,214.301619 102.317129,214.644691 C99.7988144,214.987763 97.5569339,216.309781 95.5914871,218.610744 Z" id="Path-102" fill="#FFFFFF"></path>
            <path d="M194.210279,249.369687 C191.357767,248.658845 189.022881,248.658845 187.205621,249.369687 C186.297749,249.724812 184.976173,252.874128 182.167272,254.623468 C180.294672,255.789695 177.941539,256.777952 175.107875,257.588238 C179.999197,257.310671 183.186841,256.779801 184.670807,255.995628 C186.154773,255.211456 189.334597,253.002808 194.210279,249.369687 Z" id="Path-112" fill="#E4E4E4"></path>
            <path d="M105.331997,246.393151 C106.282218,244.582876 103.391769,244.362985 96.6606505,245.733476 C89.9295321,247.103968 84.3173289,249.055045 79.824041,251.586708 L88.944994,253.084029 L99.7041674,248.995813 L105.331997,246.393151 Z" id="Path-114" fill="#E4E4E4"></path>
            <path d="M184.842301,213.816075 C181.367389,215.095831 179.739175,215.882136 179.957658,216.17499 C180.285382,216.614272 186.961161,217.138597 189.488934,220.386241 C191.174116,222.551336 191.563667,224.821531 190.657587,227.196823 C194.67706,228.58603 197.96487,231.177839 200.521016,234.972248 C203.077162,238.766658 204.133707,242.623723 203.69065,246.543442 C206.020402,243.90191 207.255798,241.800388 207.396839,240.238876 C207.537879,238.677365 206.702053,236.355093 204.889361,233.272062 L195.642547,226.723674 L193.910135,224.254844 L193.910135,217.969807 L184.842301,213.816075 Z" id="Path-115" fill="#D8D8D8"></path>
            <path d="M130.071229,245.809002 C127.70473,248.286027 125.287018,249.972503 122.818095,250.86843 C120.349171,251.764357 115.113696,250.818295 107.111669,248.030243 L124.316188,255.980439 L128.607739,252.533095 L130.071229,245.809002 Z" id="Path-113" fill="#E4E4E4"></path>
            <path d="M95.5914871,218.610744 C88.5445003,216.527249 82.8901348,217.933135 78.6283905,222.828402 C74.3666463,227.72367 75.1224729,232.778129 80.8958704,237.991779 C73.8793019,243.51693 73.1234753,247.875668 78.6283905,251.067993 C84.1333058,254.260319 92.7577842,252.79047 104.501826,246.658448 C113.340873,252.473088 119.65405,255.380408 123.441356,255.380408 C127.228662,255.380408 129.620989,252.473088 130.618336,246.658448 C133.573887,251.036009 136.531168,253.475011 139.490177,253.975455 C142.449186,254.475899 146.495293,253.221348 151.628499,250.211803 C155.723244,254.17968 158.586614,256.367648 160.218611,256.775706 C161.850608,257.183765 164.004713,256.250348 166.680926,253.975455 C171.750079,257.33665 176.455694,258.672537 180.797769,257.983117 C185.139843,257.293697 188.335589,254.703259 190.385004,250.211803 C200.563112,249.732117 206.037855,246.72951 206.809231,241.203981 C207.580607,235.678452 203.235763,230.587363 193.774699,225.930713 C194.651189,220.725416 193.521291,217.243679 190.385004,215.485501 C187.248717,213.727324 183.410697,214.120734 178.870943,216.665729 C173.067856,209.987837 167.766396,206.495267 162.966564,206.188019 C158.166731,205.880771 152.943948,208.699662 147.298213,214.644691 C144.950968,210.739661 142.164847,208.787146 138.93985,208.787146 C135.714853,208.787146 132.060554,210.739661 127.976951,214.644691 C123.282853,212.119291 119.461754,211.02111 116.513657,211.350145 C113.565559,211.679181 111.350621,213.451043 109.868843,216.665729 C107.352681,214.975299 104.835443,214.301619 102.317129,214.644691 C99.7988144,214.987763 97.5569339,216.309781 95.5914871,218.610744 Z" id="Path-102" stroke="#372400" stroke-width="3.3000002" stroke-linecap="round" stroke-linejoin="round"></path>
            <path d="M71.7588504,20.6716469 C71.7588504,20.6716469 75.8566049,14.6772946 87.8323306,9.5433214 C90.5288267,8.38733814 95.8866534,7.50299763 103.905811,6.89029987 C112.240876,2.43298429 119.998218,0.204326492 127.177838,0.204326492 C134.357458,0.204326492 140.975278,3.3173248 147.031299,9.5433214 C154.797858,7.97225693 160.661004,7.63498053 164.620737,8.53149221 C168.58047,9.42800389 172.874182,12.0648649 177.501873,16.4420752 C185.301576,16.6348046 191.676651,18.0446618 196.627097,20.6716469 C201.577544,23.298632 205.480099,28.158764 208.334763,35.2520427 C219.288355,37.2080663 226.621494,41.632163 230.334179,48.5243328 C234.046864,55.4165027 234.046864,63.6095958 230.334179,73.1036122 C238.183752,80.0705993 242.108539,86.8918424 242.108539,93.5673414 C242.108539,100.24284 239.604174,106.117196 234.595444,111.190407 C237.818432,117.598359 238.62478,122.83587 237.014488,126.902938 C235.404196,130.970007 231.603786,134.629172 225.613258,137.880432 C223.799276,147.370857 219.103292,155.411323 211.525305,162.00183 C203.947318,168.592336 189.555932,173.485089 168.351147,176.680087 C165.089872,181.211993 161.284054,184.150816 156.933695,185.496557 C152.583335,186.842299 145.107794,187.393253 134.507071,187.149421 C132.482189,188.457826 130.039111,189.112029 127.177838,189.112029 C124.316565,189.112029 122.195846,188.457826 120.815682,187.149421 C111.242032,190.841329 104.029365,192.589061 99.1776805,192.392618 C94.3259959,192.196174 88.3546959,189.897488 81.2637804,185.496557 C72.1602217,185.496557 66.0411113,184.695414 62.9064492,183.093126 C59.7717871,181.490839 57.0535177,178.673219 54.751641,174.640268 C45.9203457,171.949905 40.0686159,169.20411 37.1964517,166.402883 C34.3242874,163.601655 32.4796617,158.84118 31.6625743,152.121457 C21.3609101,146.305459 15.5281073,140.575052 14.1641657,134.930236 C12.8002242,129.285421 14.2383714,123.713028 18.4786072,118.213058 C15.6023129,108.7771 14.840128,100.561861 16.1920524,93.5673414 C17.5439768,86.5728214 21.8536115,81.8323972 29.1209564,79.3460686 C26.2350484,57.8339994 28.3104026,42.6035908 35.347019,33.654843 C45.9019437,20.2317212 71.7588504,20.6716469 71.7588504,20.6716469 Z" id="Path-103" stroke="#372400" stroke-width="3.3000002" fill="#FFFFFF"></path>
            <g id="Group" transform="translate(217.549669, 103.407666) scale(-1, 1) rotate(8.000000) translate(-217.549669, -103.407666) translate(208.940397, 89.718931)">
                <g id="Group-3">
                    <path d="M14.1575188,8.16410906 C9.30696755,1.82109409 5.75495899,0.306123486 3.50149314,3.61919727 C0.121294381,8.58880793 3.50149314,24.5917149 8.82950599,26.224587 C12.3815146,27.3131684 14.9164515,25.0350076 16.4343169,19.3901046 L14.1575188,8.16410906 Z" id="Path-127" fill="#FFE1D6"></path>
                    <path d="M15.4745514,7.16471643 C15.6262325,7.36306817 15.7307897,7.59309844 15.7803593,7.83750639 C16.5570436,15.9925462 16.9518769,20.1588463 16.9648592,20.3364069 C17.5971539,28.9843904 16.3195548,22.4084456 15.9252453,23.236393 C14.0317744,27.2121893 11.0518905,28.0650633 7.20394124,26.8857852 C3.96145103,25.8920617 2.21456176,21.1319888 0.906409527,15.3322297 C-0.350303937,9.76052694 0.211993861,5.51522534 2.13085064,2.69409801 C3.69638867,0.392424339 5.99159231,-0.318458644 8.50725666,0.754499788 C10.606757,1.6499597 12.8908023,3.78597484 15.4745514,7.16471643 Z M7.20394124,3.78673997 C6.16759703,3.3447278 3.95281364,3.29689931 2.96526286,5.20326756 C0.459475356,10.0404403 4.30455282,24.5796258 8.34266201,25.8171821 C10.7342724,26.5501371 14.9116457,24.905201 16.2069561,20.3364069 L13.7666201,7.83750639 C11.5998964,5.0508133 8.6071058,4.38520505 7.20394124,3.78673997 Z" id="Path-127" fill="#372400" fill-rule="nonzero"></path>
                    <path d="M5.790306,14.2333867 C4.76426554,10.8185051 4.76426554,8.66437107 5.790306,7.77098464 C6.81634645,6.87759821 8.85274434,7.25861476 11.8994997,8.91403429 C10.5475619,8.91971408 9.32984858,9.39425771 8.24635975,10.3376652 C7.16287093,11.2810726 6.34418634,12.5796465 5.790306,14.2333867 Z" id="Path-128" fill="#E5AA94"></path>
                </g>
            </g>
            <path d="M44.9114851,109.1307 C52.2974141,143.898239 59.44847,164.490238 66.3646529,170.906697 C76.7389271,180.531386 118.638084,187.000759 142.603676,181.63491 C166.569268,176.269061 191.862553,163.066598 201.915049,142.580445 C208.616714,128.923009 206.286631,107.514446 194.924801,78.3547562 C166.355563,58.4157958 138.804675,51.1679537 112.272135,56.6112301 C85.7395956,62.0545065 63.2860456,79.5609964 44.9114851,109.1307 Z" id="Path-99" stroke="#372400" stroke-width="3.3000002" fill="#FFE1D6" stroke-linecap="round" stroke-linejoin="round"></path>
            <path d="M131.156316,80.1362017 C124.395805,87.0856565 116.097727,90.8353236 106.262081,91.385203 C96.4264358,91.9350824 86.5542588,89.2012561 76.6455502,83.183724 C83.0850573,89.2010236 85.0748808,95.3222422 82.6150206,101.54738 C78.9252304,110.885086 61.3656331,123.801163 59.9885548,129.925029 C58.6114764,136.048896 61.9317237,152.020416 61.9317237,156.070641 C61.9317237,158.770791 60.8239006,161.712139 58.6082543,164.894687 C55.0369361,160.940875 52.7210382,157.421979 51.6605603,154.338 C49.8950167,149.203618 50.4479864,142.655621 48.4832215,134.863089 C44.7482458,120.049654 41.8891518,105.334857 39.9059397,90.7186989 C59.4779853,47.5871848 89.1655283,26.6987874 128.968568,28.0535068 C168.771609,29.4082261 193.850511,50.002317 204.205275,89.8357796 C208.325354,107.087826 210.107819,118.453427 209.55267,123.932583 C208.719946,132.151317 208.549044,133.061946 207.752402,134.863089 C206.955759,136.664232 203.434386,128.431809 201.514943,124.808526 C199.5955,121.185244 195.315216,118.971607 193.870193,112.054215 C192.906845,107.44262 193.388519,102.860546 195.315216,98.3079927 C189.26285,98.3997781 184.935882,97.9081352 182.334312,96.833064 C179.732743,95.7579929 174.516479,92.3059963 166.685522,86.4770742 C160.746174,88.1003616 154.923727,88.5982237 149.218182,87.9706606 C143.512638,87.3430974 137.492016,84.7316111 131.156316,80.1362017 Z" id="Path-106" fill="#FFFFFF"></path>
            <path d="M197.685931,96.5456351 C195.511457,99.3779563 194.156144,101.784067 193.619995,103.763967 C193.083845,105.743867 193.083845,108.342667 193.619995,111.560368 L208.492264,135.155667 C206.941358,124.659962 204.395628,117.550292 200.855073,113.826655 C197.314518,110.103018 196.258137,104.342678 197.685931,96.5456351 Z" id="Path-126" fill="#D8D8D8"></path>
            <path d="M150.448002,117.294037 C159.079524,109.328594 165.246006,105.029593 168.947448,104.397033 C172.648889,103.764474 177.142504,105.605266 182.428292,109.919409 C181.429774,110.688242 180.555887,111.106997 179.80663,111.175673 C179.057373,111.24435 178.151883,110.927816 177.090158,110.22607 C175.592818,108.189584 172.878581,107.222021 168.947448,107.32338 C165.016314,107.42474 159.484935,110.748292 152.353311,117.294037 C151.931929,117.662446 151.497859,117.846651 151.051099,117.846651 C150.604339,117.846651 150.403307,117.662446 150.448002,117.294037 Z" id="Path-107" fill="#372400"></path>
            <path d="M165.604935,93.2828396 C167.230406,93.6427114 169.384065,94.3597687 172.065912,95.4340114 C173.362845,96.8303394 173.362845,97.4998366 172.065912,97.442503 C170.120513,97.3565026 168.469561,95.7862007 165.604935,95.0095228 C162.740308,94.232845 160.283571,94.3687484 159.143957,93.939011 C158.004343,93.5092736 163.166727,92.7430319 165.604935,93.2828396 Z" id="Path-108" fill="#372400"></path>
            <path d="M108.763018,125.307912 C108.763018,125.815788 108.614597,126.194764 108.317754,126.44484 C108.020912,126.694916 107.565834,126.569878 106.952521,126.069726 C99.7697967,122.556963 93.4681726,120.958933 88.0476493,121.275637 C82.6271259,121.59234 77.3162626,123.732628 72.1150594,127.6965 C71.5652006,127.894086 71.1019788,127.703839 70.7253942,127.125756 C70.3488096,126.547674 70.6421574,125.844336 71.6054376,125.015742 C77.5973551,121.401034 83.1871857,119.338793 88.3749293,118.829019 C93.562673,118.319245 100.358703,120.478876 108.763018,125.307912 Z" id="Path-109" fill="#372400"></path>
            <path d="M76.5666445,111.84696 C78.8631738,111.84696 82.7186958,109.268671 88.1332105,104.112094 C88.381633,103.744274 88.381633,103.40323 88.1332105,103.088961 C87.884788,102.774692 87.5477454,102.774692 87.1220827,103.088961 C77.7885946,108.927627 74.2701152,111.84696 76.5666445,111.84696 Z" id="Path-110" fill="#372400"></path>
            <path d="M129.146637,145.694637 C128.135587,145.210727 129.891528,138.860375 132.460619,137.674428 C135.02971,136.48848 141.589815,139.076021 141.167049,139.674207 C140.744284,140.272393 137.465807,137.904773 133.932948,139.674207 C130.40009,141.443641 130.157687,146.178547 129.146637,145.694637 Z" id="Path-101" fill="#372400"></path>
            <path d="M112.068688,156.5886 C123.475016,156.829071 132.587176,155.770716 139.405167,153.413533 C146.223158,151.056351 153.509554,146.714505 161.264355,140.387997 C155.86965,151.919376 152.324424,158.411542 150.628679,159.864496 C148.085061,162.043927 136.049853,167.312782 134.143868,167.312782 C132.873211,167.312782 125.514818,163.738055 112.068688,156.5886 Z" id="Path-111" fill="#FFC1A8"></path>
            <path d="M134.636217,166.73726 C139.571806,166.73726 148.177321,161.029665 150.435655,159.094672 C151.789406,157.934747 157.957349,149.703279 159.882073,142.329121 C153.272588,147.323628 145.775149,152.989741 139.82642,155.046394 C133.719358,157.157787 124.477395,157.396109 114.837217,157.461572 C125.669445,163.162457 129.700628,166.73726 134.636217,166.73726 Z M112.089707,155.599275 C123.387771,155.837464 132.388074,154.7921 139.079457,152.47869 C145.776515,150.163317 152.964519,145.880102 160.634946,139.622428 C161.452253,138.955653 162.610999,139.852133 162.164759,140.805989 C156.681721,152.52618 153.13379,159.023301 151.276461,160.614704 C148.685247,162.834916 136.423786,168.30233 134.143868,168.30233 C132.605421,168.30233 125.470178,164.836009 111.600919,157.461572 C110.678776,156.971259 111.044657,155.577243 112.089707,155.599275 Z" id="Path-111" fill="#372400" fill-rule="nonzero"></path>
            <path d="M79.7257749,65.7381099 C84.3432927,64.9377554 87.6252661,61.9751085 89.571695,56.8501694 C92.4913383,49.1627606 83.8978462,17.1575285 59.4645299,12.883086 C35.0312136,8.6086435 20.5432897,19.6141972 12.9948837,31.6495829 C5.60589098,43.4307958 -8.36428902,79.9792331 19.4784368,94.1542065 C47.3211627,108.32918 75.9679772,92.9097388 79.7257749,82.7037461 C82.2309733,75.899751 82.2309733,70.244539 79.7257749,65.7381099 Z" id="Path-104" fill="#F1C262"></path>
            <path d="M87.0663916,38.6572483 C86.1928853,48.4616322 85.1608133,54.6464076 83.9701756,57.2115746 C82.7795378,59.7767415 80.7207531,60.2510561 77.7938212,58.6345185 L80.4175969,66.2118488 L86.4003991,62.7856956 L89.4997071,57.2115746 L90.1465299,49.8510738 L87.0663916,38.6572483 Z" id="Path-121" fill="#D0A141"></path>
            <path d="M77.9189409,61.6901755 L82.2988,73.8313848 L79.1553546,83.0195746 L75.5644219,89.2272663 L65.0306922,95.8550733 L52.4949165,99.5396308 L38.9936714,100.365817 L26.9329678,98.0722805 L15.1309487,92.0178576 L5.6895786,81.6700764 C4.01814183,76.0262022 4.65545372,74.9657368 7.60151428,78.4886802 C12.0206051,83.7730953 21.2999518,91.7702426 34.2735993,94.4304672 C47.2472469,97.0906919 58.8363639,95.4758704 66.1935464,90.5028779 C73.5507288,85.5298855 75.5310919,79.6990239 77.9189409,73.8313848 C79.5108403,69.9196255 79.5108403,65.8725557 77.9189409,61.6901755 Z" id="Path-122" fill="#D0A141"></path>
            <path d="M47.2790305,37.337302 C45.633537,40.7893348 36.8167605,44.3234703 33.7382809,49.4931214 C30.6598013,54.6627724 30.9382278,63.4919365 28.9388484,63.4919365 C27.6059289,63.4919365 26.9920724,60.3808269 27.0972791,54.1586078 L30.801703,45.2685827 L38.7513544,38.9763407 C45.5334675,35.582293 48.3760262,35.0359468 47.2790305,37.337302 Z" id="Path-124" fill="#FFE1A3"></path>
            <path d="M51.2294369,61.342407 C48.6699544,66.1579693 45.8233329,69.0156014 42.6895724,69.9153034 C39.555812,70.8150055 35.5435663,69.9265527 30.6528354,67.2499452 L33.7237355,71.9450271 L38.3687114,74.5547863 L42.6895724,74.5547863 L47.2131058,72.7846365 L49.9761245,67.9485966 L51.2294369,61.342407 Z" id="Path-123" fill="#D0A141"></path>
            <path d="M81.2801512,83.2716549 C79.0638905,89.2909092 70.0855837,95.8338723 59.114691,99.1500275 C46.0354116,103.103482 31.7868442,102.272679 18.7249788,95.6227704 C5.54769565,88.9141012 -0.939980457,75.7626415 0.199546884,60.6859357 C1.0268486,49.7401829 5.14878071,39.3324679 10.1324259,31.3864071 C14.4768466,24.4595436 21.8374156,18.2501109 29.1690077,14.6693164 C37.7422623,10.4820864 47.9570103,9.19543836 59.7509093,11.2587008 C71.3173778,13.2821757 80.3864922,21.3262364 86.2518918,32.8404592 C90.9317786,42.0274306 92.9263127,52.67829 91.1202064,57.4337603 C89.2704169,62.3042482 86.2319145,65.4867276 82.0781763,66.8504162 C83.8968186,71.4570256 83.6070992,76.9517791 81.2801512,83.2716549 Z M79.4419582,64.1132784 C83.4523818,63.4181515 86.2746373,60.8704933 88.0231835,56.2665784 C89.4312813,52.5590628 87.5988685,42.7739348 83.2990528,34.3330715 C77.8663516,23.6682685 69.5922278,16.3293432 59.1781504,14.5074712 C48.0579916,12.5620751 38.55415,13.7591774 30.6267231,17.6309813 C23.8802654,20.9259926 18.4304622,26.0955749 14.3990021,32.5234456 C9.68458546,40.0402409 4.34077364,51.6367778 3.5563714,62.014942 C2.50925155,75.8690352 7.86992218,86.8815321 19.7348344,92.922062 C31.9989263,99.1658176 44.9602253,100.979315 57.2510073,97.2641991 C67.3251244,94.2191109 75.6375593,88.1453405 77.432027,83.2716549 C79.7845549,76.8823057 80.3640189,71.4252731 78.637048,66.0352792 C78.2903653,64.9532591 78.3205775,64.3076474 79.4419582,64.1132784 Z" id="Path-104" fill="#372400" fill-rule="nonzero"></path>
            <path d="M155.998013,43.8527185 C154.881977,30.16251 160.620306,6.86790115 198.544696,4.13907101 C236.469085,1.41024086 253.055622,41.4594127 246.462688,63.008157 C239.869753,84.5569012 207.41915,93.1336801 195.928659,91.6907758 C184.438168,90.2478715 175.315245,80.7907273 172.471518,75.1951797 C170.5757,71.4648146 170.5757,65.6732361 172.471518,57.8204444 C162.233206,57.6354328 156.742037,52.9795242 155.998013,43.8527185 Z" id="Path-105" fill="#F1C262"></path>
            <path d="M156.542963,42.6664003 C159.662571,31.5812848 165.227722,22.7537277 173.238416,16.1837289 C181.24911,9.61373013 191.545182,5.43264883 204.126634,3.64048499 C189.006766,3.55345295 177.382638,6.84320049 169.254249,13.5097276 C161.125859,20.1762547 156.888764,29.8951456 156.542963,42.6664003 Z" id="Path-120" fill="#FFE1A3"></path>
            <path d="M210.322568,30.2414948 C217.624227,42.5191661 218.034571,51.6695093 211.5536,57.6925244 C205.072629,63.7155395 198.57797,62.1172971 192.069623,52.8977973 C192.292148,62.7047413 199.57838,65.2742838 213.928317,60.606425 C222.845095,46.2398649 221.643178,36.1182215 210.322568,30.2414948 Z" id="Path-119" fill="#D0A141"></path>
            <path d="M238.429198,23.7224377 C244.641055,50.5773716 241.102909,69.003092 227.814762,78.9995988 C214.526614,88.9961055 197.289862,89.5001824 176.104506,80.5118294 C188.283048,95.8575467 207.800354,95.8575467 234.656422,80.5118294 C251.54968,66.682899 252.807272,47.7531018 238.429198,23.7224377 Z" id="Path-118" fill="#D0A141"></path>
            <path d="M157.64821,43.7192287 C158.320378,51.9645839 163.081201,56.0012401 172.501547,56.1714706 C173.560015,56.1905977 174.328787,57.1807477 174.081253,58.2060745 C172.268729,65.713846 172.268729,71.1447245 173.948645,74.4502636 C175.402876,77.3117261 177.575885,81.127117 181.17663,83.9954107 C185.503148,87.4418436 190.762463,90.1273326 195.721589,90.7500688 C201.724175,91.5038362 212.473474,89.9934641 221.833205,85.791024 C233.340428,80.6243781 243.333648,72.7381829 246.163486,63.4889702 C249.400933,52.907502 245.963144,36.8685026 238.355012,25.2013655 C229.653489,11.8575034 215.235871,3.02606955 198.425415,4.2356573 C181.545439,5.45024741 170.469493,12.3750178 163.947203,20.8861093 C158.91209,27.4565472 156.990473,35.6508876 157.64821,43.7192287 Z M154.347816,43.9862083 C153.628283,35.1598229 155.73831,26.162046 161.315187,18.8846464 C168.453763,9.5693497 180.652086,3.7729826 198.425415,2.49411174 C216.493497,1.19403212 232.441279,8.73550289 241.774045,23.0473801 C249.891893,35.496171 251.583507,51.9280651 248.046396,63.4889702 C244.894628,73.7904005 236.009345,81.9537646 223.712584,87.4749059 C213.835867,91.9094683 202.388996,94.1643223 195.721589,93.3270709 C190.107358,92.6220707 184.697062,90.0907719 179.923551,86.2882722 C175.967052,83.1365897 172.672373,79.2418269 170.994392,75.9400957 C169.052444,72.1189632 168.896321,66.6089489 170.422894,59.372377 C160.627758,58.5909099 155.112643,53.3682013 154.347816,43.9862083 Z" id="Path-105" fill="#372400" fill-rule="nonzero"></path>
            <path d="M83.0960957,72.8112381 C83.2817655,73.7031154 82.7064724,74.5760595 81.8111428,74.7610133 C80.9158131,74.9459671 80.5261793,73.7031154 80.3405095,72.8112381 C76.0716797,52.3056209 66.8605632,40.5090678 55.4154196,37.9702242 C47.4639215,36.2063661 38.8582595,39.2121572 33.6143254,43.8435812 C28.9779015,47.9384543 27.6263685,55.2712469 28.4289654,59.8893204 C30.0327131,69.1171471 37.6591262,74.8489325 43.6711473,73.5369005 C47.4354215,72.715405 48.8769188,67.4849284 49.4012894,61.3916726 C49.4793887,60.4841483 50.2812424,59.8115223 51.1922796,59.8893204 C52.1033169,59.9671186 52.7785466,60.7658803 52.7004473,61.6734047 C52.0641043,69.0677946 49.0582027,73.5815204 43.6711473,74.7571632 C35.5597783,76.5273459 28.4289654,70.6952836 26.3039894,58.8868985 C25.256391,53.0654469 28.1686154,46.2182651 33.6143254,41.4086334 C39.6452158,36.0821725 47.936561,33.8685187 56.9356272,35.8647559 C69.9159746,38.7441493 78.5914819,51.1730161 83.0960957,72.8112381 Z" id="Path-116" fill="#372400" fill-rule="nonzero"></path>
            <path d="M172.492039,66.167586 C172.421972,67.0757607 171.6261,67.7554001 170.71441,67.6856031 C169.80272,67.615806 169.617556,67.0757607 169.687624,66.167586 C170.75589,52.3212785 176.354583,41.3150893 183.548354,34.8919765 C193.871317,25.6748978 202.931959,25.5446711 212.631767,29.8135872 C222.130124,33.9938438 222.824538,50.422783 216.159514,59.1786194 C213.09371,63.2061647 206.835708,63.9993048 203.244944,63.9993048 C199.654179,63.9993048 193.712594,62.930766 192.085804,59.5348395 C190.094627,55.3782543 189.34409,52.2373245 191.438074,49.00264 C191.933618,48.2371474 192.958293,48.016762 193.726749,48.5103955 C194.495204,49.004029 194.716443,50.0247524 194.220899,50.790245 C192.797224,52.9894685 192.797224,55.5823953 194.323706,58.768929 C195.243143,60.6882553 198.691041,62.8284662 203.244944,62.6603256 C208.238787,62.4759414 213.143594,59.7834643 215.538132,56.6377618 C220.988092,49.4781534 218.415557,34.3482487 211.008639,31.0884408 C202.58684,27.3819804 192.729612,27.7190973 185.028802,37.1695626 C180.371271,42.8853036 173.500289,53.0991808 172.492039,66.167586 Z" id="Path-117" fill="#372400" fill-rule="nonzero"></path>
            <path d="M83.0758256,103.877086 C81.5276376,106.847632 78.9138354,110.215829 74.8892845,114.691939 C74.1369438,115.528694 73.3374911,116.402518 72.3893942,117.427142 C71.9046323,117.951032 69.1525797,120.907472 68.3967692,121.727538 C66.934657,123.313951 65.8291944,124.547952 64.8793473,125.665389 C62.6684237,128.266405 61.4179984,130.13138 61.1323776,131.253085 C60.6227859,133.254381 60.9109077,137.629312 61.8593084,144.391426 C61.9934891,145.348136 62.139942,146.351077 62.3149229,147.518723 C63.893372,158.051697 63.8336584,157.617401 63.7712847,159.219957 C63.6415388,162.553496 61.5323894,165.572891 57.6300805,168.288643 C56.8805096,168.810295 55.2443512,169.035323 54.7206797,168.288643 C54.1970081,167.541962 54.9841271,166.106325 55.733698,165.584673 C58.8648051,163.405628 60.3789952,161.237958 60.4625124,159.092166 C60.5117576,157.826918 60.5119836,157.828562 59.0399541,148.005725 C58.8635611,146.828656 58.7156825,145.815952 58.5799012,144.847829 C57.5609461,137.582662 57.2616708,133.038373 57.9227599,130.442108 C58.3742625,128.668943 59.8189334,126.514256 62.3523155,123.533887 C63.3359732,122.376674 64.4681033,121.112904 65.957595,119.496784 C66.720221,118.669324 69.4753403,115.709589 69.9546539,115.191587 C70.892884,114.177627 71.6822025,113.314879 72.4227187,112.491276 C76.2724184,108.209636 78.7524963,105.013759 80.1370237,102.357232 C82.9846437,96.8934329 82.5034382,91.9124746 78.6640335,87.1015932 C77.6039747,85.7733098 79.0061306,83.9081233 80.5839804,84.5476269 C91.836084,89.1081117 101.079934,91.7000105 108.947095,90.7180286 C116.733924,89.7460736 123.093335,83.2143808 128.779609,77.0408854 C129.331871,76.4413033 130.240595,76.3325694 130.91969,76.7848128 C137.495585,81.1640296 140.091515,85.4392736 147.604302,87.1015932 C155.117089,88.7639129 158.397996,86.4576965 165.713202,84.4834121 C166.240073,84.3412159 166.803448,84.4668581 167.219158,84.8192663 C174.863189,91.2993007 180.040821,96.3624496 183.15782,97.1531773 C186.352306,97.9635622 190.795766,96.5589405 195.848993,95.7199836 C197.388946,95.4643145 198.395786,97.2793118 197.359009,98.4420394 C194.238167,101.942011 193.371137,105.719498 194.690816,109.98658 C195.35537,112.135363 196.384772,113.776666 201.530542,121.343581 C202.025085,122.070813 202.43545,122.678795 202.824617,123.26222 C205.32696,127.013649 206.932209,129.743381 207.964878,132.204978 C209.362304,135.536054 209.595808,138.212019 208.237789,140.2613 C207.734044,141.021463 206.707059,141.230905 205.943954,140.729102 C205.180849,140.2273 204.970596,139.204275 205.474341,138.444112 C206.694736,136.602509 204.910503,132.349393 200.066685,125.087705 C199.683688,124.513529 199.278536,123.913271 198.789082,123.193522 C198.917291,123.382055 197.018825,120.598376 196.515669,119.852463 C195.671775,118.601414 195.006657,117.588758 194.418674,116.651264 C192.943148,114.298651 191.998153,112.483339 191.526328,110.957727 C190.259483,106.861483 190.618026,103.002278 192.572368,99.4736176 C188.755902,99.8268608 184.486774,100.183399 181.688861,99.4736176 C178.02283,98.5436102 173.415845,94.3444009 165.735864,87.8906355 C158.401786,89.798747 152.367178,90.4194543 147.604302,89.7252829 C142.91551,89.0419089 137.368,86.6101434 130.91969,82.450795 C124.913737,88.5667323 117.818424,92.151727 109.681846,93.1673377 C102.30689,94.0878825 93.7190643,92.8026843 83.9088623,89.3391023 C85.9702235,93.9563379 85.696841,98.848079 83.0758256,103.877086 Z" id="Path-125" fill="#372400" fill-rule="nonzero"></path>
            <path d="M48.9257308,137.464922 C44.0751795,131.121907 40.5231709,129.606936 38.2697051,132.92001 C34.8895063,137.889621 38.2697051,153.892528 43.5977179,155.5254 C47.1497265,156.613981 49.6846634,154.335821 51.2025288,148.690918 L48.9257308,137.464922 Z" id="Path-127" fill="#FFE1D6"></path>
            <path d="M50.2427633,136.465529 C50.3944444,136.663881 50.4990017,136.893911 50.5485712,137.138319 C51.3252555,145.293359 51.7200888,149.459659 51.7330711,149.63722 C52.3653659,158.285203 51.0877667,151.709259 50.6934572,152.537206 C48.7999864,156.513002 45.8201024,157.365876 41.9721532,156.186598 C38.7296629,155.192875 36.9827737,150.432802 35.6746214,144.633043 C34.417908,139.06134 34.9802058,134.816038 36.8990626,131.994911 C38.4646006,129.693237 40.7598042,128.982354 43.2754686,130.055313 C45.3749689,130.950773 47.6590142,133.086788 50.2427633,136.465529 Z M41.9721532,133.087553 C40.9358089,132.645541 38.7210256,132.597712 37.7334748,134.504081 C35.2276873,139.341253 39.0727647,153.880439 43.1108739,155.117995 C45.5024843,155.85095 49.6798576,154.206014 50.975168,149.63722 L48.534832,137.138319 C46.3681083,134.351626 43.3753177,133.686018 41.9721532,133.087553 Z" id="Path-127" fill="#372400" fill-rule="nonzero"></path>
            <path d="M40.5585179,143.5342 C39.5324775,140.119318 39.5324775,137.965184 40.5585179,137.071798 C41.5845584,136.178411 43.6209563,136.559428 46.6677116,138.214847 C45.3157738,138.220527 44.0980605,138.695071 43.0145717,139.638478 C41.9310828,140.581886 41.1123983,141.880459 40.5585179,143.5342 Z" id="Path-128" fill="#E5AA94"></path>
            <path d="M91.2559419,146.97565 C87.8760071,141.705688 62.4300255,148.903838 55.3609291,154.034292 C48.2918326,159.164746 45.981352,171.161706 62.6075508,166.136047 C79.2337496,161.110388 94.6358768,152.245613 91.2559419,146.97565 Z" id="Path-129" fill="#EB6262"></path>
            <path d="M168.347534,132.292042 C168.347534,124.8523 196.947079,120.076171 207.432813,120.472297 C217.918548,120.868424 227.314948,130.616863 216.273891,134.102588 C205.232835,137.588313 168.347534,139.731784 168.347534,132.292042 Z" id="Path-130" fill="#EB6262"></path>
            <polygon id="Path-131" stroke="#372400" stroke-width="3.3000002" fill="#FFFFFF" stroke-linecap="round" stroke-linejoin="round" points="96.3980301 192.303824 100.149129 225.097807 115.001459 222.700752 102.954276 192.303824"></polygon>
            <ellipse id="Oval-2" fill="#372400" cx="105.629139" cy="217.04065" rx="3.31125828" ry="3.29849013"></ellipse>
            <polygon id="Path-132" stroke="#372400" stroke-width="3.3000002" fill="#FFFFFF" stroke-linecap="round" stroke-linejoin="round" points="162.444913 182.179833 155.086989 217.096562 170.670481 219.199853 168.790583 176.565933"></polygon>
            <ellipse id="Oval-2-Copy" fill="#372400" cx="163.245033" cy="210.44367" rx="3.31125828" ry="3.29849013"></ellipse>
        </g>
    </g>
</svg>