<?xml version="1.0" encoding="UTF-8"?>
<svg width="300px" height="300px" viewBox="0 0 300 300" version="1.1" xmlns="http://www.w3.org/2000/svg" xmlns:xlink="http://www.w3.org/1999/xlink">
    <!-- Generator: Sketch 49 (51002) - http://www.bohemiancoding.com/sketch -->
    <title>摩羯座</title>
    <desc>Created with Sketch.</desc>
    <defs></defs>
    <g id="摩羯座" stroke="none" stroke-width="1" fill="none" fill-rule="evenodd">
        <g id="摩羯座-copy-2" transform="translate(34.000000, 5.000000)">
            <path d="M193.950159,218.259131 C197.437281,218.000637 199.973259,217.619388 201.558091,217.115383 C203.93534,216.359375 214.681894,209.594081 216.526389,211.079483 C218.370884,212.564885 212.413523,219.705079 209.189875,223.261384 C207.040776,225.632254 203.314123,228.3807 198.009916,231.506722 L193.950159,218.259131 Z" id="Path-65" stroke="#372400" stroke-width="3.20100029" fill="#FFFFFF" stroke-linecap="round" stroke-linejoin="round"></path>
            <path d="M167.506343,28.1639774 C168.909106,24.7177415 169.548182,22.0676258 169.423571,20.2136303 C169.298959,18.3596348 168.035541,11.7206902 165.633318,0.296796472 C172.341068,8.77130712 176.563566,15.1300387 178.300812,19.3729911 C180.038058,23.6159436 180.627167,29.0088126 180.06814,35.5515981 L167.506343,28.1639774 Z" id="Path-71" stroke="#372400" stroke-width="1.92060017" fill="#FDD887" stroke-linecap="round" stroke-linejoin="round"></path>
            <path d="M80.8920285,7.8601362 C78.6377303,14.4755068 78.6377303,19.9569822 80.8920285,24.3045624 C83.1463268,28.6521426 87.257514,31.0993946 93.2255904,31.6463185 L70.9965638,43.9778676 C69.1277008,34.8701546 68.7422972,28.3123862 69.8403528,24.3045624 C70.9384085,20.2967386 74.6223004,14.8152632 80.8920285,7.8601362 Z" id="Path-72" stroke="#372400" stroke-width="1.92060017" fill="#FDD887" stroke-linecap="round" stroke-linejoin="round"></path>
            <path d="M86.7885302,219.827676 C80.4000606,218.195315 74.720568,215.684876 69.7500524,212.296359 C64.7795368,208.907841 60.5127893,203.029701 56.9498096,194.661936 L86.7885302,201.222875 L86.7885302,219.827676 Z" id="Path-66" stroke="#372400" stroke-width="3.20100029" fill="#FFFFFF" stroke-linecap="round" stroke-linejoin="round"></path>
            <path d="M179.261504,191.622623 L189.155928,204.495538 C197.232022,200.911801 202.395546,197.656118 204.6465,194.72849 C206.897455,191.800862 208.886757,185.75346 210.614409,176.586283 L179.261504,191.622623 Z" id="Path-67" stroke="#372400" stroke-width="3.20100029" fill="#FFFFFF" stroke-linecap="round" stroke-linejoin="round"></path>
            <path d="M84.7714344,203.383502 C85.2844578,220.069921 87.1689455,232.539248 90.4248974,240.791483 C93.6808492,249.043718 103.17967,265.425475 118.92136,289.936752 L141.227367,278.487347 C138.562466,258.903618 143.510355,248.294545 156.071034,246.660127 C168.631714,245.025709 176.796541,255.042445 180.565516,276.710336 L202.84722,266.95123 C202.995511,248.523005 202.036486,234.44142 199.970145,224.706473 C197.903805,214.971527 191.435595,203.95144 180.565516,191.646214 C162.048448,197.072303 147.079405,200.443267 135.658388,201.759104 C124.23737,203.074941 107.275053,203.616407 84.7714344,203.383502 Z" id="Path-64" stroke="#372400" stroke-width="3.20100029" fill="#FFFFFF" stroke-linecap="round" stroke-linejoin="round"></path>
            <path d="M150.967602,199.571568 C147.950582,199.571568 126.809778,198.008452 124.734775,224.784223 C122.659771,251.559993 163.882213,245.831775 167.574852,223.305275 C171.267492,200.778774 153.984622,199.571568 150.967602,199.571568 Z" id="Path-92" fill="#FFE0AD"></path>
            <path d="M126.219084,220.603615 C125.465712,224.97163 127.301733,233.224707 130.038409,237.283122 C133.383762,242.244191 139.273211,242.437264 146.698356,240.437585 C154.963118,238.211788 163.096983,233.108097 165.715573,225.803857 C168.48078,218.090648 166.780331,208.068171 158.986825,202.422936 C151.585021,197.061431 140.756944,198.087829 134.712108,203.687943 C130.017602,208.03707 127.044318,215.818944 126.219084,220.603615 Z M124.35021,220.603615 C125.293334,215.135425 129.496511,207.254817 134.712108,202.422936 C141.820188,195.837802 150.274078,194.788336 158.986825,201.099424 C167.935284,207.58125 170.745197,216.7559 167.501479,225.803857 C164.523399,234.110852 156.792088,241.030723 147.531423,243.524729 C138.784891,245.880273 132.077103,243.377985 127.967208,237.283122 C124.75495,232.51943 123.460891,225.759849 124.35021,220.603615 Z" id="Path-86" fill="#372400" fill-rule="nonzero"></path>
            <path d="M137.250355,21.1661285 C69.9862399,21.1661285 -19.8686311,108.117756 4.07068447,161.653059 C28.0100001,215.188361 166.007688,220.913007 214.918882,174.010112 C263.830076,127.107218 204.51447,21.1661285 137.250355,21.1661285 Z" id="Path-62" stroke="#372400" stroke-width="3.20100029" fill="#FFFFFF"></path>
            <ellipse id="Oval" fill="#372400" cx="101.137363" cy="53.2359427" rx="2.24038462" ry="2.07828004"></ellipse>
            <ellipse id="Oval-Copy" fill="#372400" cx="128.342033" cy="52.9162073" rx="2.24038462" ry="2.07828004"></ellipse>
            <path d="M114.30124,67.8960618 C175.81315,69.5022284 232.460657,154.032903 189.586819,181.731587 C146.712981,209.430271 35.8459132,201.538917 17.1591846,165.920287 C2.20314491,137.412694 52.7893291,66.2898952 114.30124,67.8960618 Z" id="Path-63" stroke="#372400" stroke-width="3.20100029" fill="#FFE1D6"></path>
            <path d="M111.709667,209.404098 C108.098072,213.677427 105.320766,219.291372 103.377747,226.245933 C115.786305,220.640894 122.94284,217.019978 124.847353,215.383184 C130.139349,210.835089 125.606767,204.563483 123.061308,204.765634 C120.515849,204.967785 117.127058,202.994105 111.709667,209.404098 Z" id="Path-68" stroke="#372400" stroke-width="1.92060017" fill="#FFFFFF" stroke-linecap="round" stroke-linejoin="round"></path>
            <path d="M167.557349,39.0614632 C177.462097,38.0580973 185.097368,36.8945769 190.463162,35.5709021 C195.828956,34.2472272 203.462997,31.5980928 213.365284,27.6234987 C213.365284,38.2659952 210.929724,46.5749401 206.058603,52.5503334 C201.187482,58.5257268 194.496159,62.8058196 185.984635,65.390612 C180.698217,62.9342108 176.667446,59.7415439 173.892323,55.8126115 C171.117199,51.8836791 169.005541,46.299963 167.557349,39.0614632 Z" id="Path-69" fill="#FFFFFF"></path>
            <path d="M190.846801,37.1229597 C188.793789,37.6294123 186.424606,38.1109582 183.737484,38.5685231 C180.75557,39.0762857 175.429907,39.7687643 167.73966,40.6497319 C166.861606,40.7503185 166.06818,40.120768 165.967493,39.2435915 C165.866806,38.3664149 166.496986,37.5737812 167.375039,37.4731946 C175.01003,36.598557 180.291864,35.9117772 183.199704,35.4166282 C185.814017,34.9714612 188.107879,34.5052247 190.079523,34.0188445 C195.35847,32.7165937 202.929782,30.089227 212.768676,26.140078 C213.820167,25.7180291 214.965559,26.4914424 214.965559,27.6234987 C214.965559,38.6077829 212.426178,47.2709113 207.299454,53.5598525 C206.345318,54.7302897 205.324185,55.8386216 204.236293,56.884584 C201.052104,59.9460486 195.192999,63.2471084 186.606331,66.8637157 C185.791945,67.2067257 184.853412,66.8252594 184.510059,66.0116867 C184.166706,65.198114 184.548554,64.2605185 185.36294,63.9175084 C193.615726,60.4415283 199.184599,57.3039878 202.01691,54.5808394 C203.01167,53.6244188 203.945205,52.6111652 204.817751,51.5408143 C209.072094,46.3220216 211.386097,39.1551246 211.722198,29.9985925 C202.835705,33.5064932 195.883752,35.8804063 190.846801,37.1229597 Z" id="Path-69" fill="#372400" fill-rule="nonzero"></path>
            <path d="M81.0980013,41.1253321 L50.2088041,30.6326428 C50.6061368,36.1995784 51.3468109,40.3592212 52.4308265,43.1115712 C53.5148421,45.8639212 56.2543577,49.8984397 60.6493732,55.2151268 C66.3188331,54.9771444 70.4581339,53.9995239 73.0672756,52.2822652 C75.6764174,50.5650066 78.3533259,46.8460289 81.0980013,41.1253321 Z" id="Path-70" fill="#FFFFFF"></path>
            <path d="M76.972528,39.7038178 C71.2631912,37.7644247 62.035169,34.6547728 49.2884615,30.3748622 C49.6857942,35.9417978 50.4264683,40.1014406 51.5104839,42.8537906 C52.5944995,45.6061406 52.7560418,47.4880884 57.1510574,52.8047755" id="Path-70" stroke="#372400" stroke-width="3.20100029" stroke-linecap="round" stroke-linejoin="round"></path>
            <path d="M129.021207,69.7205617 C123.370687,80.0562233 117.03215,86.4011574 110.005597,88.7553641 C102.979044,91.1095708 89.5241313,91.1095708 69.6408588,88.7553641 C78.3361601,85.6934326 84.8426516,83.0211679 89.1603334,80.7385701 C95.6368561,77.3146732 99.6741404,69.5374607 106.94635,68.3689407 C111.794491,67.5899274 119.152776,68.0404677 129.021207,69.7205617 Z" id="Path-73" stroke="#372400" stroke-width="1.92060017" fill="#7A472B"></path>
            <path d="M88.8433988,123.960848 C88.0526153,122.503021 86.108414,124.889361 81.3166469,123.960848 C76.5248797,123.032335 72.6000362,116.14069 65.8027591,115.365433 C61.271241,114.848594 55.0523295,116.705797 47.1460245,120.937041 C54.6705418,117.919527 60.6489253,116.562145 65.081175,116.864896 C71.7295495,117.319024 77.4814987,124.909623 80.6180454,125.752621 C83.754592,126.595619 89.6341823,125.418676 88.8433988,123.960848 Z" id="Path-74" fill="#372400"></path>
            <path d="M59.8745512,132.750205 C65.4033261,132.244528 69.6854573,132.53084 72.7209446,133.609141 C77.2741755,135.226592 83.2661262,140.5314 84.2487361,141.408684 C85.2313459,142.285969 85.667652,143.703426 82.3019282,142.9578 C78.9362044,142.212174 75.4114976,140.493209 72.3293022,140.296091 C70.2745052,140.16468 65.7006466,140.666071 58.6077263,141.800265 C61.3059388,140.532217 64.3398375,139.671154 67.7094224,139.217077 C71.0790072,138.763 74.4348274,138.763 77.7768829,139.217077 C75.1579983,136.828429 73.0417811,135.342673 71.4282312,134.759809 C69.8146813,134.176946 65.9634546,133.507078 59.8745512,132.750205 Z" id="Path-75" fill="#372400"></path>
            <path d="M120.630035,127.580867 C119.180874,126.327281 128.792248,119.250927 140.178189,117.556679 C147.768817,116.42718 154.98312,117.845732 161.8211,121.812334 C153.507047,119.148171 146.617682,118.534043 141.153004,119.969948 C140.281796,120.198867 139.380318,120.479261 138.463104,120.796096 C130.750437,123.460302 121.925175,128.701218 120.630035,127.580867 Z" id="Path-76" fill="#372400"></path>
            <path d="M147.281829,133.718726 C142.010135,134.22625 138.600992,134.730876 137.054402,135.232602 C135.507811,135.734329 132.279759,137.521082 127.370247,140.59286 C132.446388,139.812168 136.115619,139.421822 138.377938,139.421822 C140.640258,139.421822 144.636722,139.594664 150.36733,139.940347 C150.871545,140.862058 149.843045,141.509853 147.281829,141.883733 C143.440005,142.444552 140.133549,141.95413 137.054402,141.883733 C135.823015,141.85558 131.936757,142.028831 125.395626,142.403485 L124.010482,141.883733 C127.956169,138.098116 131.267904,135.498171 133.945689,134.0839 C137.962367,131.962492 143.281628,131.392813 145.323329,131.336906 C146.684463,131.299636 147.337296,132.093575 147.281829,133.718726 Z" id="Path-77" fill="#372400"></path>
            <path d="M93.4086213,157.98383 C91.9870216,157.166364 101.976631,151.339106 107.03299,151.339106 C112.089349,151.339106 116.73058,157.98383 115.054684,157.98383 C113.378788,157.98383 112.413108,154.068128 106.096595,154.068128 C99.7800823,154.068128 94.8302209,158.801297 93.4086213,157.98383 Z" id="Path-78" fill="#372400"></path>
            <path d="M70.842961,166.978324 C79.5937318,165.091233 86.8982435,177.23991 107.770111,179.113807 C128.641978,180.987705 147.560674,160.469834 163.840642,163.684754 C180.12061,166.899674 166.842673,190.523871 144.905139,196.204227 C122.967604,201.884584 80.855619,197.946011 67.3895272,188.659151 C53.9234354,179.372291 62.0921902,168.865414 70.842961,166.978324 Z" id="Path-79" fill="#FFFFFF"></path>
            <path d="M71.1130923,168.22847 C66.9634566,169.123333 62.5313116,171.172239 61.290071,174.60986 C59.8722792,178.536441 62.3908225,184.749041 68.1207214,188.700652 C81.1580842,197.69184 122.831436,200.598639 144.58393,194.966196 C154.504332,192.397474 163.383053,185.722631 167.593758,178.383942 C171.564538,171.46341 170.237222,166.251621 163.592379,164.939417 C159.957412,164.221594 155.966856,164.722564 151.173538,166.342004 C147.572176,167.558737 145.770249,168.373241 137.261031,172.442198 C130.955843,175.457226 127.179254,177.079763 122.999714,178.399608 C117.550956,180.120255 112.472805,180.742633 107.577818,180.303156 C99.7493071,179.600304 93.5526919,177.648308 86.8568959,174.204103 C85.3192958,173.413187 80.2498117,170.599109 79.1875894,170.060124 C76.7299634,168.813092 74.9373154,168.193299 73.257193,168.077905 C72.527094,168.027761 71.8193134,168.076175 71.1130923,168.22847 Z M70.5728297,165.728177 C71.5171924,165.524527 72.4658718,165.459635 73.4328091,165.526046 C75.5246421,165.669716 77.6099697,166.390702 80.3470943,167.779554 C81.4640078,168.346291 86.7648998,171.677189 88.2521351,172.442198 C94.6739331,175.745463 101.411921,178.269029 108.880248,178.939543 C116.348575,179.610057 130.348188,173.95882 136.551363,170.992572 C145.176779,166.868052 146.515688,165.624698 150.257887,164.360382 C155.439548,162.609739 159.953959,161.613533 164.088905,162.43009 C172.714972,164.133541 174.561441,171.383817 169.81515,179.655962 C165.258561,187.59748 156.901042,194.968366 146.319587,197.708256 C123.90409,203.512373 80.3819083,199.17341 66.6622175,189.711657 C60.0448152,185.14798 57.7313441,179.731528 59.5806526,174.60986 C61.141062,170.288299 65.6065558,166.799147 70.5728297,165.728177 Z" id="Path-79" fill="#372400" fill-rule="nonzero"></path>
            <path d="M81.9727712,37.8113859 C74.3256595,42.1365069 68.7208859,45.5301751 65.1584506,47.9923905 C61.5960152,50.454606 57.4944534,53.5047219 52.8537652,57.1427381" id="Path-87" stroke="#372400" stroke-width="1.92060017" stroke-linecap="round"></path>
            <path d="M69.8037073,25.3072599 C71.6187399,23.4496351 73.132789,22.2044802 74.3458546,21.5717953 C75.5589202,20.9391103 77.0744729,20.6869319 78.8925127,20.81526" id="Path-88" stroke="#372400" stroke-width="1.92060017" stroke-linecap="round"></path>
            <path d="M69.771978,31.9748864 C72.3454266,29.1819406 74.4871545,27.4372087 76.1971617,26.7406906 C77.907169,26.0441726 80.0488969,26.0441726 82.6223454,26.7406906" id="Path-88-Copy" stroke="#372400" stroke-width="1.92060017" stroke-linecap="round"></path>
            <path d="M72.6524725,37.7301235 C75.0743323,35.2585321 77.1402658,33.6744774 78.8502731,32.9779594 C80.5602803,32.2814413 84.1402284,31.960649 89.5901174,32.0155825" id="Path-88-Copy-2" stroke="#372400" stroke-width="1.92060017" stroke-linecap="round"></path>
            <path d="M168.348901,12.18912 C169.258703,11.5062263 170.015625,11.0994958 170.619669,10.9689287 C171.223713,10.8383615 172.259783,11.0254058 173.72788,11.5300616" id="Path-89" stroke="#372400" stroke-width="1.92060017" stroke-linecap="round"></path>
            <path d="M168.989011,17.748994 C169.727763,16.7873346 171.131448,16.306505 173.200067,16.306505 C175.268686,16.306505 176.951729,17.31754 178.249194,19.3396101" id="Path-89-Copy" stroke="#372400" stroke-width="1.92060017" stroke-linecap="round"></path>
            <path d="M168.758686,24.1822712 C170.193441,22.3739593 172.125783,21.8729206 174.555712,22.6791552 C176.985641,23.4853897 178.917984,25.4739011 180.352739,28.6446893" id="Path-89-Copy-2" stroke="#372400" stroke-width="1.92060017" stroke-linecap="round"></path>
            <path d="M65.0454731,175.392555 C74.7255763,181.1385 80.0285956,184.011473 80.9545308,184.011473 C81.880466,184.011473 82.8865173,182.507139 83.9726846,179.49847 C83.0608169,182.052036 82.8036123,183.714105 83.2010709,184.484676 C83.7972588,185.640532 95.7426982,188.855817 96.8507993,188.855817 C97.5895333,188.855817 98.4594586,187.241036 99.4605751,184.011473 C98.7527247,186.556707 98.6026607,188.171488 99.0103832,188.855817 C99.6219669,189.88231 116.451072,191.051453 117.90379,190.389283 C118.872269,189.947837 119.356509,187.8219 119.356509,184.011473 C119.365216,188.263346 119.927455,190.389283 121.043224,190.389283 C122.716879,190.389283 135.455211,187.723899 136.344344,186.263626 C136.937099,185.29011 136.937099,183.238925 136.344344,180.110071 C136.881472,183.797045 137.585633,185.640532 138.456824,185.640532 C139.328016,185.640532 143.924185,183.232663 152.245331,178.416926 C143.512229,183.946116 139.145677,187.006927 139.145677,187.599359 C139.145677,188.191791 139.351656,190.059019 139.763612,193.201044 C139.151884,190.059019 138.308506,188.488007 137.233477,188.488007 C135.620933,188.488007 122.299881,191.197458 121.043224,192.055249 C120.205454,192.627109 119.643215,193.904863 119.356509,195.888509 C119.356509,194.096866 118.872269,192.819112 117.90379,192.055249 C116.451072,190.909454 100.435133,189.894483 99.0103832,190.389283 C98.06055,190.71915 97.3406887,191.656404 96.8507993,193.201044 C97.2328731,191.544148 97.0914144,190.441961 96.426423,189.894483 C95.428936,189.073265 83.4820121,185.200477 82.311727,185.920952 C81.5315369,186.401269 80.6553608,187.725779 79.6831986,189.894483 C80.5307534,187.747934 80.8089224,186.329951 80.5177057,185.640532 C80.2264889,184.951114 75.0690781,181.535121 65.0454731,175.392555 Z" id="Path-90" fill="#959595"></path>
            <path d="M80.578892,193.843514 C81.2109193,191.582937 91.3705684,195.09453 106.198253,195.347008 C121.025937,195.599485 123.213826,197.048407 135.947452,195.347008 C148.681078,193.645608 153.907806,188.581878 156.829872,188.581878 C159.751938,188.581878 152.160401,194.118227 149.502509,195.347008 C142.736385,198.475082 137.140886,198.096832 137.140886,199.632795 C137.140886,202.841782 142.436266,206.923792 140.289153,210.766712 C139.041757,212.999313 135.311271,214.518477 132.478792,211.400032 C129.646313,208.281586 134.56174,202.809934 132.478792,200.289091 C131.54228,199.155698 119.317904,200.228018 103.698629,198.835398 C96.1581179,198.163083 79.9468647,196.10409 80.578892,193.843514 Z" id="Path-91" fill="#B7E5FF"></path>
            <path d="M101.446581,198.708028 C109.156923,199.412867 114.628131,199.592095 123.889092,199.678464 C130.886034,199.743718 132.525693,198.83908 133.219268,199.678464 C133.866285,200.461502 131.005137,207.527742 132.613442,210.916716 C134.221747,214.305689 140.003003,211.909594 140.325235,209.927713 C141.127559,204.99304 136.033444,200.733705 136.708009,199.397707 C137.593436,197.644091 145.608641,197.352565 149.274451,195.469021 C152.94026,193.585476 157.652603,190.209711 156.698989,189.612437 C155.745376,189.015163 148.254148,192.518547 147.212699,192.937155 C143.516943,194.422654 140.41965,195.192077 135.820165,195.806636 C130.434056,196.5263 114.267717,196.53629 108.361723,196.297748 C102.455729,196.059206 81.4196762,191.839573 80.5363507,193.958034 C79.6530252,196.076496 93.7362381,198.003189 101.446581,198.708028 Z M131.50496,200.913809 C131.154738,200.84584 130.64749,200.791875 129.973263,200.751129 C128.815501,200.68116 127.488548,200.654955 124.422078,200.626357 C115.112352,200.539533 110.324508,200.389182 103.613274,199.790806 C98.9512025,199.375135 93.2633349,198.660595 88.9044666,197.879179 C86.2257731,197.398969 84.0733998,196.901914 82.5576863,196.391606 C81.6834493,196.09727 81.0112776,195.796327 80.5363507,195.469021 C79.829354,194.981778 79.4403485,194.350081 79.6541218,193.585476 C79.8710033,192.809755 80.5155077,192.386048 81.4196762,192.221494 C82.0629096,192.104429 82.8966207,192.102313 84.0230724,192.193929 C84.9343924,192.268048 85.9951851,192.397275 87.6520016,192.626756 C88.1244506,192.692193 89.9928408,192.955499 89.8621282,192.937155 C90.8116768,193.070416 91.5627894,193.173494 92.3234996,193.273879 C97.3307541,193.93465 101.623995,194.309774 106.214616,194.387941 C109.76304,194.448361 121.446202,195.436938 122.406627,195.469021 C126.378517,195.6017 130.537132,195.102158 135.820165,194.396267 C140.255446,193.803649 155.72217,188.287136 156.698989,188.287136 C158.20234,188.287136 158.848274,188.80701 158.101901,189.980536 C157.709115,190.598117 156.93928,191.361633 155.869875,192.243418 C153.988973,193.794328 151.351548,195.549111 149.905763,196.217517 C147.900553,197.144554 139.347114,198.06346 138.143381,200.192039 C136.939648,202.320618 142.962558,205.282395 141.127559,211.234211 C140.150271,214.404046 134.775115,214.722298 131.767726,211.411283 C130.438566,209.947931 130.345506,208.24918 131.013239,205.895645 C131.109964,205.554721 131.207225,205.243896 131.378639,204.71636 C132.119134,202.437439 132.2417,201.600977 131.806906,200.989013 C131.737121,200.965149 131.63538,200.93912 131.50496,200.913809 Z" id="Path-91" fill="#372400" fill-rule="nonzero"></path>
            <path d="M197.137328,124.575228 C199.41887,115.632707 202.37904,111.772103 206.01784,112.993415 C211.47604,114.825385 216.544731,136.062932 212.100914,138.293839 C209.13837,139.78111 205.335206,139.037475 200.691423,136.062932 L197.137328,124.575228 Z" id="Path-95" stroke="#372400" stroke-width="1.92060017" fill="#FFE1D6"></path>
            <path d="M201.298497,125.171407 C202.302395,120.634458 203.473594,118.594061 204.812095,119.050214 C206.150595,119.506367 207.355498,122.356526 208.426803,127.600692 C206.940547,126.295909 205.735645,125.486147 204.812095,125.171407 C203.888545,124.856666 202.717346,124.856666 201.298497,125.171407 Z" id="Path-96" fill="#E5AA94"></path>
            <path d="M158.559473,151.361723 C161.239789,141.618898 204.534442,141.159427 215.902208,142.53206 C227.269975,143.904694 222.384075,157.840746 208.524056,159.974919 C194.664038,162.109091 155.879157,161.104548 158.559473,151.361723 Z" id="Path-94" fill="#EB6262"></path>
            <path d="M18.199762,130.261399 C15.4392466,122.437747 12.7725311,119.497096 10.1996156,121.439446 C6.3402422,124.352971 3.80023888,141.229965 5.84779258,144.129927 C7.21282837,146.063236 10.8404922,145.303624 16.730784,141.851092 L18.199762,130.261399 Z" id="Path-97" stroke="#372400" stroke-width="1.92060017" fill="#FFE1D6" transform="translate(11.660321, 133.015440) rotate(9.000000) translate(-11.660321, -133.015440) "></path>
            <path d="M8.64148352,134.115306 C9.58439173,129.158411 10.6128729,126.558171 11.7269271,126.314587 C12.8409812,126.071002 14.1670543,128.156424 15.7051464,132.570855 C14.1649152,131.636927 12.9876381,131.258987 12.1733149,131.437037 C11.3589918,131.615086 10.1817147,132.507843 8.64148352,134.115306 Z" id="Path-98" fill="#E5AA94" transform="translate(12.173315, 130.205393) rotate(9.000000) translate(-12.173315, -130.205393) "></path>
            <path d="M10.5103401,146.899078 C23.0653629,143.765292 63.2080445,142.744371 63.2080445,150.075137 C63.2080445,157.405903 26.8600288,162.756572 14.9241211,162.037202 C2.98821333,161.317832 -2.04468276,150.032864 10.5103401,146.899078 Z" id="Path-93" fill="#EB6262"></path>
        </g>
    </g>
</svg>