<?xml version="1.0" encoding="UTF-8"?>
<svg width="300px" height="300px" viewBox="0 0 300 300" version="1.1" xmlns="http://www.w3.org/2000/svg" xmlns:xlink="http://www.w3.org/1999/xlink">
    <!-- Generator: Sketch 49 (51002) - http://www.bohemiancoding.com/sketch -->
    <title>水瓶座</title>
    <desc>Created with Sketch.</desc>
    <defs></defs>
    <g id="水瓶座" stroke="none" stroke-width="1" fill="none" fill-rule="evenodd">
        <g id="水瓶座-copy" transform="translate(2.000000, 20.000000)">
            <path d="M161.512572,166.439081 C127.663428,203.202723 111.418772,224.608391 112.778602,230.656087 C114.138433,236.703782 126.774406,233.447582 150.686522,220.887487 C150.333258,226.712697 150.333258,230.978824 150.686522,233.685866 C151.039785,236.392909 152.754029,245.262953 155.829254,260.295999 L177.35458,255.781867 C186.820397,237.011494 195.935393,228.636234 204.699566,230.656087 C213.463739,232.67594 217.845825,244.091068 217.845825,264.90147 L237.773316,264.90147 C243.165692,251.64448 246.708644,241.239279 248.402171,233.685866 C250.095698,226.132453 250.857493,217.337773 250.687555,207.301826 C266.957987,212.999727 276.191783,212.999727 278.388944,207.301826 C280.586105,201.603925 264.870871,178.999616 231.243242,139.488899 L161.512572,166.439081 Z" id="Path-323" stroke="#372400" stroke-width="3.43332008" fill="#FFE1D6" stroke-linecap="round" stroke-linejoin="round"></path>
            <path d="M254.2601,164.226411 C254.377305,164.580489 252.136215,174.363995 247.536831,193.57693 L254.2601,216.74429 C238.903729,212.438087 221.394228,211.375083 201.731595,213.55528 C182.068963,215.735476 162.911658,220.864103 144.25968,228.941158 L147.580726,203.799017 C143.194205,199.938288 140.061765,197.315237 138.183405,195.929865 C136.305045,194.544492 134.603245,192.602821 133.078005,190.104852 L159.108881,161.640183 C173.333012,178.191351 186.216967,185.650491 197.760746,184.017603 C209.304524,182.384715 221.19354,171.363244 233.427792,150.953191 C247.198793,159.447927 254.142896,163.872334 254.2601,164.226411 Z" id="Path-324" stroke="#372400" stroke-width="3.43332008" fill="#FFFFFF" stroke-linecap="round" stroke-linejoin="round"></path>
            <path d="M149.807997,223.013755 C147.142908,231.017673 145.401605,237.102048 144.584087,241.266879 C143.766569,245.43171 143.766569,248.218374 144.584087,249.626871 L187.529928,245.599268 C193.027101,237.093787 198.15938,233.203385 202.926765,233.928061 C207.69415,234.652737 211.393924,239.885673 214.026086,249.626871 L248.83047,253.978597 C250.650771,245.003324 251.419865,237.987831 251.13775,232.932118 C250.855636,227.876404 250.524236,223.452733 250.143549,219.661103 C226.566563,214.121594 210.274181,211.543339 201.266402,211.926338 C192.258624,212.309338 175.105822,216.005143 149.807997,223.013755 Z" id="Path-325" stroke="#372400" stroke-width="3.43332008" fill="#000000" stroke-linecap="round" stroke-linejoin="round"></path>
            <path d="M79.2969213,94.6243736 C75.4715493,92.2866321 72.2943534,92.361844 69.7653337,94.8500093 C65.2894188,99.2536191 68.4503307,122.510327 54.5359756,124.823653 C40.6216204,127.136978 34.2910239,101.687604 35.660745,84.0271684 C37.0304661,66.366733 45.0722153,48.1756905 55.9654915,44.9664178 C66.8587676,41.7571452 64.2266362,66.8567179 70.8027806,69.6829312 C74.7219204,71.3672502 79.3340729,71.2916325 84.6392383,69.4560779 C94.1736423,40.8655845 118.776032,1.50794689 176.770332,0.0768215752 C259.557546,-1.96611849 293.485094,59.0404895 282.716326,101.815476 C274.088685,136.085616 237.542791,166.487201 191.943777,173.215393 C158.110747,178.207499 111.645947,163.161158 97.7988224,150.67719 C78.3750138,133.165524 79.2410539,111.383525 79.2410539,96.4159354 C79.2410539,95.8947828 79.2589264,95.2956024 79.2969213,94.6243736 Z" id="Combined-Shape" stroke="#372400" stroke-width="3.43332008" fill="#B5A6FF" stroke-linecap="round" stroke-linejoin="round"></path>
            <path d="M175.955104,47.8533538 C134.977246,58.2269203 108.6095,104.185415 116.01896,134.953922 C123.428421,165.72243 160.162285,176.755536 203.51082,165.72243 C246.859354,154.689323 276.967354,116.881136 266.847771,90.8687439 C256.728187,64.8563513 216.932962,37.4797873 175.955104,47.8533538 Z" id="Path-328" stroke="#372400" stroke-width="3.43332008" fill="#FFE1D6" stroke-linecap="round" stroke-linejoin="round"></path>
            <g id="Group-4" transform="translate(284.625031, 86.047299) rotate(-27.000000) translate(-284.625031, -86.047299) translate(270.932551, 68.495351)">
                <path d="M3.09791335,8.62802499 C16.4956026,-0.861447281 24.3480028,-2.52322282 26.6551139,3.64269836 C30.1157806,12.8915801 19.7004073,34.8261424 11.2308428,34.8261424 C5.58446644,34.8261424 1.84085218,31.2216594 0,24.0126934 C1.21766002,20.4276346 2.01146115,17.7165129 2.38140338,15.8793284 C2.75134562,14.0421438 2.99018227,11.6250427 3.09791335,8.62802499 Z" id="Path-184" stroke="#372400" stroke-width="3.43332008" fill="#FFE1D6"></path>
                <path d="M10.2374245,12.4825357 C15.336031,8.5873424 18.5399674,7.26006511 19.8492337,8.50070382 C21.8131331,10.3616619 16.7776662,19.1635297 16.7776662,19.1635297 C16.7776662,19.1635297 17.2877744,15.4042991 15.0433291,13.1115511 C14.4541052,12.5096465 12.852137,12.2999747 10.2374245,12.4825357 Z" id="Path-185" fill="#E5AA94"></path>
            </g>
            <g id="Group-4-Copy" transform="translate(98.280279, 135.321132) scale(-1, 1) rotate(-2.000000) translate(-98.280279, -135.321132) translate(84.587799, 117.769184)">
                <path d="M3.09791335,8.62802499 C16.4956026,-0.861447281 24.3480028,-2.52322282 26.6551139,3.64269836 C30.1157806,12.8915801 19.7004073,34.8261424 11.2308428,34.8261424 C5.58446644,34.8261424 1.84085218,31.2216594 0,24.0126934 C1.21766002,20.4276346 2.01146115,17.7165129 2.38140338,15.8793284 C2.75134562,14.0421438 2.99018227,11.6250427 3.09791335,8.62802499 Z" id="Path-184" stroke="#372400" stroke-width="3.43332008" fill="#FFE1D6"></path>
                <path d="M10.2374245,12.4825357 C15.336031,8.5873424 18.5399674,7.26006511 19.8492337,8.50070382 C21.8131331,10.3616619 16.7776662,19.1635297 16.7776662,19.1635297 C16.7776662,19.1635297 17.2877744,15.4042991 15.0433291,13.1115511 C14.4541052,12.5096465 12.852137,12.2999747 10.2374245,12.4825357 Z" id="Path-185" fill="#E5AA94"></path>
            </g>
            <path d="M174.36522,146.675274 C180.279004,146.675274 183.893198,154.640734 193.414584,152.426481 C202.93597,150.212227 217.294188,123.380363 228.974752,131.518322 C240.655316,139.65628 219.854215,155.119541 208.027922,160.678952 C196.20163,166.238363 171.92899,167.977593 166.942611,160.678952 C161.956232,153.380311 168.451435,146.675274 174.36522,146.675274 Z" id="Path-329" stroke="#372400" stroke-width="2.23165818" fill="#FFC1A8" stroke-linecap="round" stroke-linejoin="round"></path>
            <path d="M181.548719,126.338103 C186.22196,120.743758 190.141932,117.340281 193.308634,116.127671 C196.475336,114.915061 199.422789,115.688829 202.150991,118.448975" id="Path-330" stroke="#372400" stroke-width="2.23165818" stroke-linecap="round" stroke-linejoin="round"></path>
            <path d="M167.034027,91.4146114 C165.533297,95.9881695 163.294252,98.9275727 160.316893,100.232821 C157.339534,101.538069 146.629992,104.477472 128.188267,109.05103" id="Path-331" stroke="#372400" stroke-width="2.67798981" stroke-linecap="round" stroke-linejoin="round"></path>
            <path d="M157.206547,111.688124 C155.388866,110.920988 150.189223,112.440089 150.189223,116.210433 C150.189223,119.980776 155.40864,121.051268 157.910216,119.469012 C160.411791,117.886755 159.150577,112.508586 157.206547,111.688124 Z" id="Path-332" fill="#372400"></path>
            <path d="M207.483614,82.4918514 C208.63969,85.0474903 210.340852,86.7590362 212.5871,87.6264892 C214.833348,88.4939422 225.996168,87.6381692 246.075561,85.0591703" id="Path-333" stroke="#372400" stroke-width="2.67798981" stroke-linecap="round" stroke-linejoin="round"></path>
            <path d="M222.506491,92.2951299 C217.210685,93.1097217 214.987683,100.468863 217.642057,103.45269 C220.29643,106.436516 229.316053,105.902606 230.91716,101.538489 C232.518268,97.1743724 227.802297,91.4805381 222.506491,92.2951299 Z" id="Path-334" fill="#372400"></path>
            <path d="M52.9310696,58.9608506 C43.4323191,59.5718694 40.8246187,89.1404257 45.16928,106.23706 C47.2394623,114.383414 53.5466398,119.014207 56.474458,117.608535 C64.3448213,113.829902 66.955868,58.0586882 52.9310696,58.9608506 Z" id="Path-326" stroke="#372400" stroke-width="3.12432145" fill="#442DB4"></path>
            <path d="M56.5493342,110.485542 C57.3938498,118.812815 46.2579933,125.615949 47.2105174,137.839047 C48.1630415,150.062145 61.378355,191.172912 61.8403037,206.496816 C62.1482695,216.712751 58.1790478,223.926509 49.9326385,228.138089 C48.1178911,229.079033 45.4605916,229.549505 41.96074,229.549505 C38.4608884,229.549505 35.5276188,228.336055 33.160931,225.909154 C36.2208872,217.465948 37.6064165,210.505022 37.317519,205.026376 C36.8841727,196.808408 25.8391638,158.656287 27.2730362,135.487714 C28.7069086,112.31914 39.7586745,105.883422 43.6490388,102.721399 C47.5394031,99.5593758 55.7048185,102.15827 56.5493342,110.485542 Z" id="Path-327" stroke="#372400" stroke-width="3.43332008" fill="#BEE9FF" stroke-linecap="round" stroke-linejoin="round"></path>
            <path d="M46.25354,115.289797 C38.9817932,117.396672 36.3318397,127.819239 38.3036796,146.557499 C41.2614394,174.664888 54.1473394,191.52734 55.5046938,201.152007 C56.4095967,207.568452 53.8754651,212.057436 47.902299,214.618959" id="Path-335" stroke="#372400" stroke-width="2.67798981" stroke-linecap="round" stroke-linejoin="round"></path>
            <path d="M39.4423334,184.94609 C45.0009432,190.67663 47.7802482,195.433969 47.7802482,199.218106 C47.7802482,203.002244 46.3065056,205.305267 43.3590204,206.127175" id="Path-336" stroke="#372400" stroke-width="2.67798981" stroke-linecap="round" stroke-linejoin="round"></path>
            <path d="M64.0374123,222.805113 C64.5298489,218.710976 81.3150109,212.788612 86.1625744,214.560538 C91.010138,216.332464 90.2459121,228.566931 84.280918,230.204705 C80.8282294,231.15269 76.017964,226.816546 71.3323438,224.79566 C67.9229109,223.325188 63.8300104,224.529461 64.0374123,222.805113 Z" id="Path-337" stroke="#372400" stroke-width="2.67798981" fill="#BEE9FF"></path>
            <path d="M28.4997373,212.710017 C22.8050161,205.023396 17.4925429,201.884694 12.5623176,203.293911 C5.16697974,205.407736 -4.44868128,215.335026 2.27933549,220.204651 C5.97780354,222.88154 8.49367546,219.92106 17.9779006,214.786276 C19.3231267,214.057967 22.8304056,213.365881 28.4997373,212.710017 Z" id="Path-338" stroke="#372400" stroke-width="2.67798981" fill="#BEE9FF" stroke-linecap="round" stroke-linejoin="round"></path>
            <path d="M29.376067,202.112227 C32.0336776,196.951003 32.5467291,193.570765 30.9152215,191.971513 C28.4679603,189.572636 21.3941309,189.321199 20.6340493,193.026789 C20.1855104,195.213529 22.4116914,196.384753 27.3237172,199.44606 C27.7484931,199.710792 28.4326098,200.599514 29.376067,202.112227 Z" id="Path-339" stroke="#372400" stroke-width="2.67798981" fill="#BEE9FF" stroke-linecap="round" stroke-linejoin="round"></path>
            <path d="M72.9963973,202.112227 C75.6540078,196.951003 76.1670593,193.570765 74.5355518,191.971513 C72.0882906,189.572636 65.0144612,189.321199 64.2543795,193.026789 C63.8058407,195.213529 66.0320216,196.384753 70.9440474,199.44606 C71.3688234,199.710792 72.0529401,200.599514 72.9963973,202.112227 Z" id="Path-339-Copy" stroke="#372400" stroke-width="2.67798981" fill="#BEE9FF" stroke-linecap="round" stroke-linejoin="round" transform="translate(69.832210, 196.156107) rotate(63.000000) translate(-69.832210, -196.156107) "></path>
            <path d="M194.943237,46.4889028 C192.231042,60.8935256 186.165713,71.2608248 176.747249,77.5908004 C162.619553,87.0857637 138.172374,89.8305315 134.418471,87.16648 C130.664568,84.5024285 156.133255,73.0673198 160.654577,66.1702306 C166.485066,57.2760612 164.580914,47.9771797 171.448533,44.0440484 C176.026946,41.4219609 183.858514,42.2369123 194.943237,46.4889028 Z" id="Path-340" stroke="#372400" stroke-width="4.46331635" fill="#7A472B" stroke-linecap="round" stroke-linejoin="round"></path>
            <path d="M161.296761,15.9963195 C153.962821,8.74886144 117.285718,31.9421271 112.024403,37.7654428 C106.763087,43.5887584 105.732147,63.3718 123.81756,54.1203334 C140.628527,45.5208008 168.6307,23.2437775 161.296761,15.9963195 Z" id="Path-341" fill-opacity="0.525900136" fill="#FFFFFF"></path>
            <path d="M143.233538,129.861237 C139.859493,121.761554 123.139553,128.46629 115.485262,135.054008 C107.830971,141.641726 103.879471,156.862284 115.485262,155.366231 C127.091054,153.870178 146.607583,137.96092 143.233538,129.861237 Z" id="Path-322-Copy" fill="#EB6262" transform="translate(125.904071, 140.805902) rotate(19.000000) translate(-125.904071, -140.805902) "></path>
            <path d="M274.339037,100.952146 C270.964992,92.8524635 254.245053,99.5571995 246.590762,106.144917 C238.936471,112.732635 234.98497,127.953193 246.590762,126.45714 C258.196553,124.961087 277.713082,109.051829 274.339037,100.952146 Z" id="Path-322-Copy-3" fill="#EB6262" transform="translate(257.009570, 111.896811) rotate(19.000000) translate(-257.009570, -111.896811) "></path>
        </g>
    </g>
</svg>