<?xml version="1.0" encoding="UTF-8"?>
<svg width="300px" height="300px" viewBox="0 0 300 300" version="1.1" xmlns="http://www.w3.org/2000/svg" xmlns:xlink="http://www.w3.org/1999/xlink">
    <!-- Generator: Sketch 49 (51002) - http://www.bohemiancoding.com/sketch -->
    <title>双鱼座</title>
    <desc>Created with Sketch.</desc>
    <defs></defs>
    <g id="双鱼座" stroke="none" stroke-width="1" fill="none" fill-rule="evenodd">
        <g id="双鱼座-copy" transform="translate(7.000000, 15.000000)">
            <path d="M253.966754,57.8621216 C261.680299,59.7069575 267.217549,61.5140377 270.578504,63.2833623 C273.93946,65.0526869 278.971552,68.8096787 285.674781,74.5543377 C278.017302,73.0377392 272.277778,72.0574934 268.456208,71.6136002 C264.634638,71.1697071 261.935017,71.1697071 260.357347,71.6136002 C274.154613,107.075695 276.027228,131.971717 265.975191,146.301666 C250.897136,167.796589 212.998371,175.175803 184.825398,171.470125 C156.652425,167.764447 144.497012,159.059296 108.274178,135.784522 C72.051344,112.509748 80.4306261,81.8860752 72.2140998,71.6136002 C63.9975735,61.3411252 56.7436131,58.3635415 44.9118531,55.6006262 C37.0240131,53.7586827 26.495231,54.5125145 13.3255067,57.8621216 C25.5879189,42.4624862 37.739107,33.3556693 49.7790708,30.5416709 C67.8390165,26.3206733 103.237872,46.9688556 115.873674,35.6486828 C124.297543,28.101901 116.694886,22.1246762 93.0657028,17.7170086 C133.154931,2.94507978 171.3057,0.958666915 207.51801,11.75777 C243.730321,22.5568731 259.213235,37.9249903 253.966754,57.8621216 Z" id="Path-168" stroke="#372400" stroke-width="3.3000002" fill="#7A472B"></path>
            <path d="M199.099058,166.227809 C230.014204,198.64323 243.617665,217.124072 239.909442,221.670334 C234.347107,228.489727 205.671936,206.768445 195.103293,206.539125 C188.05753,206.386246 182.394464,210.983034 178.114093,220.32949 L174.567854,237.331453 L120.670236,232.848519 L122.803964,187.699801 C125.0009,180.836295 124.289657,175.97102 120.670236,173.103975 C115.241105,168.803409 81.1853148,166.959628 87.8379451,160.510206 C91.1367172,157.312196 106.738548,152.951495 126.694004,151.6131 C131.276655,151.305746 137.813939,151.652541 146.305858,152.653487 L199.099058,166.227809 Z" id="Path-163" stroke="#372400" stroke-width="3.3000002" fill="#FFE1D6" stroke-linecap="round" stroke-linejoin="round"></path>
            <path d="M122.058475,188.186983 C124.682159,202.367666 130.556299,212.073534 139.680895,217.304588 C148.805491,222.535642 162.329141,223.950364 180.251846,221.548753 C180.251846,250.929296 161.317483,267.505099 123.448756,271.276165 C85.5800293,275.04723 57.8331373,258.471426 40.2080801,221.548753 C26.566219,214.452001 17.9191467,208.98436 14.2668633,205.145828 C10.6145798,201.307296 5.87717678,193.951377 0.0546542818,183.078069 C16.7731243,189.783006 32.3167726,189.783006 46.6855993,183.078069 C61.054426,176.373131 69.8668323,165.007846 73.1228184,148.982212 C81.3880325,161.131764 82.1513444,173.805463 75.412754,187.003309 C67.9836266,201.553605 50.8002634,216.419337 54.9328752,218.835562 C68.6315727,225.230322 85.9892307,200.000086 102.422944,191.539077 C113.378753,185.898405 119.92393,184.78104 122.058475,188.186983 Z" id="Path-165" stroke="#372400" stroke-width="3.3000002" fill="#A6CAFF" stroke-linecap="round" stroke-linejoin="round"></path>
            <path d="M156.983699,197.088864 C163.430377,187.877422 150.890353,168.852101 140.146064,168.852101 C129.401775,168.852101 120.314684,175.816464 122.716332,187.448447 C125.117979,199.08043 150.537022,206.300307 156.983699,197.088864 Z" id="Path-167" stroke="#372400" stroke-width="3.3000002" fill="#A6CAFF"></path>
            <path d="M152.259242,202.415782 C150.590058,195.925018 161.671606,180.662584 178.763363,181.930075 C195.85512,183.197566 197.103604,204.231727 186.100176,208.906545 C175.096748,213.581363 153.928426,208.906545 152.259242,202.415782 Z" id="Path-166" stroke="#372400" stroke-width="3.3000002" fill="#A6CAFF"></path>
            <path d="M232.187535,94.9681022 C236.185492,102.908666 237.736786,108.712907 236.841417,112.380823 C235.946048,116.048739 232.923527,122.62321 227.773853,132.104236 C215.971838,138.336115 206.911123,143.752065 200.591707,148.352088 C194.272291,152.952111 188.168779,159.354656 182.281171,167.559722 C188.47531,167.329751 193.806599,166.773767 198.275038,165.89177 C202.743476,165.009773 209.631853,162.958821 218.940169,159.738916 C214.902348,162.756115 211.719215,164.807066 209.39077,165.89177 C207.062325,166.976474 203.357081,168.134465 198.275038,169.365744 C207.562588,171.052287 215.932201,171.052287 223.383876,169.365744 C230.835551,167.679202 244.382114,146.681945 264.023563,106.373974 L232.187535,94.9681022 Z" id="Path-169" fill="#7A472B"></path>
            <path d="M129.252073,66.3898645 C111.767572,86.7758249 105.206138,105.808993 109.56777,123.489368 C116.110217,150.00993 143.895707,160.365995 162.558761,166.007931 C181.221815,171.649867 214.490879,174.646809 233.591458,157.106714 C246.325177,145.413317 250.798964,121.5094 247.012818,85.3949628 L129.252073,66.3898645 Z" id="Path-170" stroke="#372400" stroke-width="3.3000002" fill="#FFE1D6"></path>
            <path d="M247.25078,91.1780032 C232.622311,95.7326365 219.388068,97.3853159 207.548051,96.1360414 C189.788025,94.2621296 182.014158,82.3227783 157.138819,79.4270839 C140.55526,77.496621 120.915438,78.8240198 98.2193526,83.4092802 L112.208064,55.7789809 L209.561053,45.3531394 L254.3959,68.9049249 L247.25078,91.1780032 Z" id="Path-171" fill="#7A472B"></path>
            <path d="M160.684217,98.4722775 C161.987602,98.2028932 154.347998,89.7141911 150.097785,86.9571706 C147.264311,85.1191568 143.7355,84.3793998 139.511353,84.7378994 C144.209097,85.6339206 147.446967,86.6586045 149.224962,87.8119513 C151.891954,89.5419714 159.380832,98.7416618 160.684217,98.4722775 Z" id="Path-172" fill="#372400"></path>
            <path d="M191.510775,108.949658 C190.783092,107.530693 199.716432,105.465663 204.362435,106.188521 C207.45977,106.670426 211.505438,109.178262 216.499437,113.712029 C210.263483,110.276285 206.091725,108.394459 203.984164,108.06655 C200.822821,107.574686 192.238457,110.368623 191.510775,108.949658 Z" id="Path-173" fill="#372400"></path>
            <path d="M203.755402,115.539501 C195.577374,114.400836 189.063826,120.350631 189.063826,127.934535 C189.063826,135.518439 195.137688,145.050125 203.755402,138.504125 C212.373115,131.958124 211.933429,116.678166 203.755402,115.539501 Z" id="Path-174" fill="#372400"></path>
            <path d="M205.221184,119.431187 C203.315154,118.260284 201.540342,120.678715 202.076164,122.628259 C202.611986,124.577803 205.081343,127.145098 206.717132,126.135699 C208.35292,125.126301 207.127215,120.602089 205.221184,119.431187 Z" id="Path-175" fill="#FFFFFF"></path>
            <path d="M199.721694,120.545955 C199.111795,120.171286 198.543884,120.945144 198.715339,121.568966 C198.886793,122.192788 199.676947,123.014281 200.200373,122.69129 C200.723798,122.368299 200.331593,120.920625 199.721694,120.545955 Z" id="Path-175-Copy" fill="#FFFFFF"></path>
            <path d="M193.512635,128.223945 C192.48513,127.592734 191.528363,128.896464 191.817215,129.947425 C192.106066,130.998387 193.437249,132.382366 194.319071,131.838219 C195.200893,131.294072 194.540139,128.855156 193.512635,128.223945 Z" id="Path-175-Copy-2" fill="#FFFFFF"></path>
            <path d="M145.828566,92.6150018 C152.455973,94.3286971 152.391996,107.954699 147.175233,112.321269 C141.958471,116.687839 130.881329,112.189959 130.881329,104.652649 C130.881329,97.1153391 139.201159,90.9013065 145.828566,92.6150018 Z" id="Path-176" fill="#372400"></path>
            <path d="M145.714017,95.9610706 C143.884899,95.9610706 142.806087,97.9333168 143.586572,99.5601467 C144.367056,101.186976 146.417649,102.738611 147.77865,101.528386 C149.139651,100.318161 147.543135,95.9610706 145.714017,95.9610706 Z" id="Path-177" fill="#FFFFFF"></path>
            <path d="M140.167778,97.6155718 C139.560096,97.6155718 139.201687,98.270804 139.460984,98.8112798 C139.720282,99.3517555 140.401543,99.8672493 140.853703,99.4651807 C141.305864,99.0631121 140.775459,97.6155718 140.167778,97.6155718 Z" id="Path-177-Copy" fill="#FFFFFF"></path>
            <path d="M135.029104,104.895377 C133.813741,104.895377 133.096922,106.205842 133.615517,107.286793 C134.134112,108.367745 135.496634,109.398732 136.400955,108.594595 C137.305276,107.790458 136.244466,104.895377 135.029104,104.895377 Z" id="Path-177-Copy-2" fill="#FFFFFF"></path>
            <path d="M137.960073,94.8002329 L139.978872,94.0853217 C138.286268,93.7467747 136.863779,93.3241311 135.711407,92.8173908 C134.559035,92.3106506 133.473973,91.2628423 132.456221,89.6739659 C132.846963,90.8089597 133.409763,91.7550606 134.14462,92.5122686 C134.879477,93.2694767 136.151295,94.0321314 137.960073,94.8002329 Z" id="Path-178" fill="#372400"></path>
            <path d="M136.312607,96.1238339 L138.331406,95.4089227 C136.638802,95.0703757 135.216314,94.6477321 134.063942,94.1409918 C132.91157,93.6342515 131.826508,92.5864432 130.808756,90.9975669 C131.199498,92.1325607 131.762298,93.0786616 132.497155,93.8358696 C133.232012,94.5930777 134.503829,95.3557324 136.312607,96.1238339 Z" id="Path-178-Copy" fill="#372400" transform="translate(134.570081, 93.560700) rotate(-7.000000) translate(-134.570081, -93.560700) "></path>
            <path d="M135.324128,97.4474349 L137.342927,96.7325236 C135.650323,96.3939767 134.227835,95.9713331 133.075462,95.4645928 C131.92309,94.9578525 130.838028,93.9100442 129.820276,92.3211679 C130.211019,93.4561616 130.773818,94.4022625 131.508675,95.1594706 C132.243532,95.9166786 133.51535,96.6793334 135.324128,97.4474349 Z" id="Path-178-Copy-2" fill="#372400" transform="translate(133.581602, 94.884301) rotate(-10.000000) translate(-133.581602, -94.884301) "></path>
            <path d="M208.569124,120.182077 C209.745081,120.477013 210.740692,120.624481 211.555957,120.624481 C212.371222,120.624481 214.390292,120.23465 217.613167,119.454988 C215.86843,120.522685 214.426698,121.204221 213.287969,121.499595 C212.149241,121.79497 210.681727,121.868064 208.885429,121.718876 L208.569124,120.182077 Z" id="Path-179" fill="#372400"></path>
            <path d="M208.702641,122.276505 C209.878598,122.571441 210.874209,122.718909 211.689474,122.718909 C212.504739,122.718909 214.523809,122.329078 217.746684,121.549416 C216.001947,122.617113 214.560215,123.298649 213.421487,123.594023 C212.282758,123.889398 210.815245,123.962492 209.018946,123.813304 L208.702641,122.276505 Z" id="Path-179-Copy" fill="#372400" transform="translate(213.224663, 122.718909) rotate(10.000000) translate(-213.224663, -122.718909) "></path>
            <path d="M208.702641,124.261907 C209.878598,124.556842 210.874209,124.70431 211.689474,124.70431 C212.504739,124.70431 214.523809,124.314479 217.746684,123.534817 C216.001947,124.602514 214.560215,125.28405 213.421487,125.579425 C212.282758,125.8748 210.815245,125.947893 209.018946,125.798706 L208.702641,124.261907 Z" id="Path-179-Copy-2" fill="#372400" transform="translate(213.224663, 124.704310) rotate(15.000000) translate(-213.224663, -124.704310) "></path>
            <path d="M160.410522,123.271341 C162.659548,121.730252 164.333979,121.150921 165.433814,121.533347 C166.53365,121.915774 167.533903,123.358835 168.434574,125.862531 C167.608322,124.07234 166.608069,122.987645 165.433814,122.608446 C164.25956,122.229246 162.585129,122.450211 160.410522,123.271341 Z" id="Path-180" fill="#372400"></path>
            <path d="M151.105547,129.233729 C154.393254,132.992565 157.175366,135.447711 159.451883,136.599166 C161.7284,137.750621 165.534186,138.627612 170.86924,139.230141 C163.6809,148.494415 157.477678,152.027138 152.259573,149.828311 C147.041468,147.629483 146.656793,140.764623 151.105547,129.233729 Z" id="Path-181" fill="#FFC1A8"></path>
            <path d="M152.642028,148.912925 C157.074286,150.780609 163.819317,147.312524 170.281475,139.40478 C165.752746,138.801913 161.143593,138.566324 159.007249,137.485767 C156.860427,136.399912 154.130796,133.484044 151.23502,130.320593 C147.568327,140.467038 148.315578,147.089827 152.642028,148.912925 Z M151.848202,128.578598 C155.059536,132.250116 157.756578,134.630189 159.896518,135.712564 C162.044344,136.798927 165.751549,137.653203 170.979705,138.243659 L170.979705,138.243659 C171.523825,138.30511 171.915104,138.796023 171.853653,139.340142 C171.833222,139.52105 171.763374,139.692839 171.651768,139.836676 L171.648948,139.840311 C164.216712,149.418915 156.990087,153.334702 151.23502,150.909608 C145.337116,148.424324 145.564041,140.849298 150.183835,128.875078 L150.184599,128.873099 C150.380791,128.36458 150.952073,128.11139 151.460592,128.307582 C151.609852,128.365169 151.742875,128.458178 151.848202,128.578598 Z" id="Path-181" fill="#372400" fill-rule="nonzero"></path>
            <path d="M248.488142,87.2417785 C248.268313,93.057388 238.111401,95.9651928 218.017406,95.9651928 C187.876413,95.9651928 173.415464,78.5183643 149.789879,78.5183643 C134.039489,78.5183643 117.62099,79.8613659 100.534381,82.5473692" id="Path-182" stroke="#372400" stroke-width="3.3000002" stroke-linecap="round" stroke-linejoin="round"></path>
            <path d="M139.046399,7.78313937 C130.623728,23.7380223 126.861894,33.0006713 127.760894,35.5710863 C128.659894,38.1415014 135.362466,37.2869865 147.868611,33.0075418 C140.840721,47.7646858 138.489233,56.5436905 140.814147,59.344556 C144.301518,63.5458542 160.610228,53.7618591 166.337459,55.2572919 C172.064689,56.7527248 156.946051,62.9308407 168.534572,66.5826152 C180.123093,70.2343897 189.615121,60.5659889 202.277176,66.5826152 C214.939231,72.5992415 208.754453,87.5253106 215.77796,89.0312476 C222.801467,90.5371846 223.820849,72.7168658 233.828905,73.347742 C243.83696,73.9786181 249.040293,90.6596959 253.48909,91.408438 C257.937887,92.1571801 253.127664,77.677179 256.150887,77.1045797 C258.166369,76.7228468 261.462819,80.6984028 266.040235,89.0312476 L260.058954,74.6949895 C256.545537,68.8629265 253.775115,66.1588017 251.747689,66.5826152 C248.706548,67.2183354 254.184633,80.0179336 248.532025,77.1045797 C242.879417,74.1912258 242.849388,57.0242015 234.703805,57.798198 C226.558222,58.5721946 226.431522,82.4177631 218.162394,79.9903141 C209.893266,77.5628651 214.755706,52.8831298 205.454104,49.2117838 C196.152503,45.5404377 178.920052,63.4151247 174.3032,62.6790715 C169.686349,61.9430184 190.098764,49.7782075 184.165986,45.8178722 C178.233208,41.857537 155.973247,54.2571516 151.789618,47.6504737 C147.605988,41.0437958 170.846935,27.3043115 169.633676,22.8688293 C168.420416,18.4333471 150.681503,27.1259422 145.01097,22.8688293 C141.230615,20.030754 142.183162,14.5840968 147.868611,6.52885764 L139.046399,7.78313937 Z" id="Path-183" fill-opacity="0.250905797" fill="#FFFFFF"></path>
            <ellipse id="Oval-5" stroke="#372400" stroke-width="2.64000016" fill="#FFFFFF" cx="158.486175" cy="10.2579075" rx="10.2142857" ry="10.2579075"></ellipse>
            <ellipse id="Oval-5-Copy" stroke="#372400" stroke-width="2.64000016" fill="#FFFFFF" cx="160.463134" cy="35.0754258" rx="10.2142857" ry="10.2579075"></ellipse>
            <ellipse id="Oval-5-Copy-2" stroke="#372400" stroke-width="2.64000016" fill="#FFFFFF" cx="171.995392" cy="55.5912409" rx="10.2142857" ry="10.2579075"></ellipse>
            <ellipse id="Oval-5-Copy-3" stroke="#372400" stroke-width="2.64000016" fill="#FFFFFF" cx="189.458525" cy="74.4525547" rx="10.2142857" ry="10.2579075"></ellipse>
            <ellipse id="Oval-5-Copy-4" stroke="#372400" stroke-width="2.64000016" fill="#FFFFFF" cx="216.476959" cy="84.379562" rx="10.2142857" ry="10.2579075"></ellipse>
            <ellipse id="Oval-5-Copy-5" stroke="#372400" stroke-width="2.64000016" fill="#FFFFFF" cx="240.529954" cy="92.9829684" rx="10.2142857" ry="10.2579075"></ellipse>
            <ellipse id="Oval-5-Copy-6" stroke="#372400" stroke-width="2.64000016" fill="#FFFFFF" cx="264.582949" cy="98.6082725" rx="10.2142857" ry="10.2579075"></ellipse>
            <ellipse id="Oval-5-Copy-7" stroke="#372400" stroke-width="2.64000016" fill="#A6CAFF" cx="157.332949" cy="21.6739659" rx="4.44815668" ry="4.46715328"></ellipse>
            <ellipse id="Oval-5-Copy-8" stroke="#372400" stroke-width="2.64000016" fill="#A6CAFF" cx="163.263825" cy="45.4987835" rx="4.44815668" ry="4.46715328"></ellipse>
            <ellipse id="Oval-5-Copy-9" stroke="#372400" stroke-width="2.64000016" fill="#A6CAFF" cx="178.420507" cy="66.3454988" rx="4.44815668" ry="4.46715328"></ellipse>
            <ellipse id="Oval-5-Copy-10" stroke="#372400" stroke-width="2.64000016" fill="#A6CAFF" cx="201.814516" cy="82.8905109" rx="4.44815668" ry="4.46715328"></ellipse>
            <ellipse id="Oval-5-Copy-11" stroke="#372400" stroke-width="2.64000016" fill="#A6CAFF" cx="227.514977" cy="90.5012165" rx="4.44815668" ry="4.46715328"></ellipse>
            <ellipse id="Oval-5-Copy-12" stroke="#372400" stroke-width="2.64000016" fill="#A6CAFF" cx="252.885945" cy="96.4574209" rx="4.44815668" ry="4.46715328"></ellipse>
            <path d="M246.775639,128.914004 C256.693393,121.893745 262.506199,120.664373 264.214058,125.225887 C266.775846,132.068159 259.065777,148.295227 252.796109,148.295227 C248.616331,148.295227 245.845089,145.62865 244.482382,140.295497 C245.383765,137.64329 245.971383,135.637617 246.245236,134.278478 C246.519089,132.919339 246.69589,131.131181 246.775639,128.914004 Z" id="Path-184" stroke="#372400" stroke-width="3.3000002" fill="#FFE1D6"></path>
            <ellipse id="Oval-6" stroke="#372400" stroke-width="3.3000002" fill="#FFFFFF" cx="252.062212" cy="148.243309" rx="6.58986175" ry="6.61800487"></ellipse>
            <path d="M252.201192,131.62157 C255.975479,128.739927 258.347221,127.758015 259.316416,128.675832 C260.770209,130.052559 257.042662,136.564132 257.042662,136.564132 C257.042662,136.564132 257.420274,133.783074 255.758804,132.086912 C255.322626,131.641626 254.136755,131.486512 252.201192,131.62157 Z" id="Path-185" fill="#E5AA94"></path>
            <path d="M132.456221,119.637198 C132.456221,115.628527 110.850105,108.20438 104.653327,108.20438 C98.4565498,108.20438 91.2744239,115.19237 101.440098,119.637198 C111.605771,124.082026 132.456221,123.645869 132.456221,119.637198 Z" id="Path-186" fill="#EB6262"></path>
            <path d="M214.084202,144.550705 C217.048009,139.839337 232.871434,139.121121 240.832513,142.386755 C248.793592,145.652389 251.21058,156.508295 240.832513,157.540832 C230.454446,158.573369 211.120396,149.262072 214.084202,144.550705 Z" id="Path-187" fill="#EB6262"></path>
            <path d="M101.833897,95.6092371 C104.701744,92.0961192 106.769649,90.9298456 108.037614,92.1104163 C109.305578,93.2909869 108.79332,96.2949404 106.500838,101.122277 C110.535085,103.193498 112.162644,105.187861 111.383513,107.105366 C110.604382,109.022871 108.359882,109.411334 104.650013,108.270755 C98.8408753,117.265027 90.4016966,122.354363 79.3324773,123.538766 C68.2632579,124.723168 59.5585014,122.59849 53.2182076,117.164732 C53.2273214,120.081824 53.3967787,122.206502 53.7265795,123.538766 C54.2212807,125.537161 57.1624254,128.232261 55.4802762,129.400317 C53.798127,130.568373 51.1234267,131.256122 46.8668141,128.30207 C42.6102016,125.348017 43.3705583,118.773648 39.9185296,117.164732 C36.4665009,115.555817 22.4589307,119.807751 22.2614807,113.1757 C22.0640308,106.543648 34.4949146,97.7557989 38.1660586,97.2990272 C40.6134878,96.9945127 43.1188296,98.0603931 45.6820838,100.496668 C53.8822206,85.2332991 63.9189506,77.2581036 75.7922736,76.5710818 C87.6655967,75.88406 96.3461378,82.2301118 101.833897,95.6092371 Z" id="Path-188" stroke="#372400" stroke-width="3.3000002" fill="#FFADDA"></path>
            <path d="M94.3454369,97.4013969 C94.3454369,96.7605923 91.7567595,93.1922263 89.2426905,93.2381617 C86.7286215,93.284097 84.8049789,96.8314786 85.3361747,97.1164378 C85.8673705,97.4013969 86.6384759,95.3200563 89.2426905,95.2724738 C91.8469051,95.2248914 94.3454369,98.0422016 94.3454369,97.4013969 Z" id="Path-189" fill="#372400"></path>
            <path d="M66.9300012,78.6792017 C67.0572148,76.6141538 65.0300466,75.8070344 60.8484966,76.2578435 C54.5761716,76.934057 47.3702954,81.5185418 47.3702954,82.6638584 C47.3702954,83.8091751 52.9209501,80.8736586 54.68536,81.5281077 C55.8616332,81.9644071 56.9191505,82.9034349 57.857912,84.345191 C59.5415338,82.8536713 60.816625,81.8373054 61.6831855,81.2960935 C62.549746,80.7548816 64.2986846,79.8825843 66.9300012,78.6792017 Z" id="Path-190" stroke="#372400" stroke-width="3.3000002" fill="#FFADDA"></path>
            <path d="M87.702614,109.852899 C88.397666,109.852899 88.6919885,117.444 87.1608475,118.394182 C86.1400868,119.027636 84.5860525,118.349858 82.4987444,116.360847 C79.4677773,118.915953 77.5841426,119.667788 76.8478402,118.616352 C75.7433867,117.039197 80.0746559,112.414781 80.6291724,112.414781 C81.1836888,112.414781 77.6125939,117.010456 78.1420256,117.681181 C78.4949802,118.12833 80.0948667,117.34942 82.9416852,115.344449 C84.4796446,118.172025 85.7990349,118.950936 86.8998562,117.681181 C88.5510882,115.776548 87.007562,109.852899 87.702614,109.852899 Z" id="Path-191" fill="#372400"></path>
            <path d="M120.480962,189.135445 C120.732713,188.219969 119.288407,187.762232 116.148044,187.762232 C113.00768,187.762232 107.740905,190.034754 100.347718,194.579799 C96.8994508,206.194945 96.0777427,213.782047 97.8825935,217.341106 C100.58987,222.679694 113.009759,218.474535 115.389012,222.679694 C120.188196,226.775335 120.934254,237.724569 124.211028,239.132663 C127.487802,240.540757 138.324696,232.925751 140.914265,235.230852 C146.610969,238.054863 140.552487,250.498241 146.062244,252.408729 C149.735415,253.682388 156.557267,251.114789 166.527798,244.705934 L170.289304,251.195663 C172.964519,246.783664 175.040755,241.951382 176.518014,236.698817 C177.995273,231.446252 178.700766,226.773211 178.634495,222.679694 C158.145041,225.751291 143.85154,223.676506 135.753993,216.45534 C127.656445,209.234175 122.565435,200.127543 120.480962,189.135445 Z" id="Path-194" fill="#FFFFFF"></path>
            <path d="M100.61089,193.338289 C97.2239331,206.043502 96.4390346,214.218643 98.2561949,217.863713 C100.981935,223.331317 107.77431,216.716204 115.168673,222.539968 C122.563036,228.363732 119.263704,236.095271 124.97356,238.906179 C130.683416,241.717087 135.505082,231.899392 141.449631,235.477835 C147.394179,239.056278 140.652544,249.659117 146.656607,251.958734 C152.660671,254.258351 161.745815,244.667872 165.443869,244.667872 C167.909239,244.667872 169.319518,247.098159 169.674708,251.958734" id="Path-192" stroke="#372400" stroke-width="3.3000002" stroke-linecap="round" stroke-linejoin="round"></path>
            <path d="M175.406103,244.380891 C176.806281,237.437676 175.305219,233.834852 170.902918,233.57242 C164.299466,233.178772 158.357321,244.758396 153.424984,243.070543 C148.492648,241.38269 157.214933,230.492878 150.777502,226.685472 C144.340072,222.878066 135.058277,231.57412 128.800177,228.506247 C122.542076,225.438375 128.44375,218.736838 123.754599,213.438191 C119.065448,208.139544 113.201886,213.256079 109.134657,206.284602 C106.423171,201.636951 106.423171,195.668326 109.134657,188.378727" id="Path-193" stroke="#372400" stroke-width="3.3000002" stroke-linecap="round" stroke-linejoin="round"></path>
        </g>
    </g>
</svg>