<?xml version="1.0" encoding="UTF-8"?>
<svg width="300px" height="300px" viewBox="0 0 300 300" version="1.1" xmlns="http://www.w3.org/2000/svg" xmlns:xlink="http://www.w3.org/1999/xlink">
    <!-- Generator: Sketch 49 (51002) - http://www.bohemiancoding.com/sketch -->
    <title>金牛座</title>
    <desc>Created with Sketch.</desc>
    <defs></defs>
    <g id="金牛座" stroke="none" stroke-width="1" fill="none" fill-rule="evenodd">
        <g id="金牛座-copy" transform="translate(5.000000, 24.000000)">
            <path d="M116.286273,190.966798 C142.35792,227.475411 158.538764,246.813035 164.828805,248.979668 C186.351969,256.393421 217.9703,253.520442 259.683798,240.360732 L269.424138,222.342145 C255.402431,216.499462 250.548409,210.319391 254.86207,203.801932 C259.175732,197.284473 268.895887,196.264824 284.022537,200.742986 L291.813079,180.256171 C278.079169,168.391177 261.312982,159.091132 241.514518,152.356035 C221.716053,145.620937 200.804599,142.103697 178.780155,141.804314 L116.286273,190.966798 Z" id="Path-234" stroke="#372400" stroke-width="3.26304024" fill="#FFCF30" stroke-linecap="round" stroke-linejoin="round"></path>
            <path d="M205.851718,160.711367 C160.585454,158.368737 156.495725,204.923604 164.20887,221.094653 C171.922015,237.265703 189.409286,254.091339 225.755333,240.916876 C262.10138,227.742414 251.117983,163.053997 205.851718,160.711367 Z" id="Path-238" fill="#FFFFFF"></path>
            <path d="M185.836482,196.439569 C188.406437,195.322127 190.263203,193.364968 191.40678,190.568094 C193.122144,186.372782 187.670677,185.60882 190.063157,181.338474 C191.658143,178.491577 194.224296,178.19037 197.761615,180.434852 C200.883072,175.942151 203.383157,174.818976 205.261871,177.065326 C208.079941,180.434852 199.973307,194.604125 205.261871,194.604125 C210.550435,194.604125 219.050707,173.6958 224.156249,177.065326 C229.261791,180.434852 215.673964,195.408529 216.73067,202.314067 C217.787376,209.219605 234.543637,217.275411 227.612723,225.084011 C220.681808,232.892611 212.864316,215.297195 209.868256,215.999017 C206.872197,216.700838 193.999135,238.253807 188.303477,231.928448 C182.60782,225.60309 202.723979,200.578013 198.563409,198.131168 C194.402839,195.684324 188.065409,208.555902 187.105278,212.761783 C186.145146,216.967664 187.105278,227.344189 181.973347,225.084011 C176.841415,222.823834 176.199342,211.535633 176.030076,204.503053 C175.86081,197.470473 178.110212,185.70916 181.973347,185.70916 C184.54877,185.70916 185.836482,189.285963 185.836482,196.439569 Z" id="Path-239" fill="#CC8A00"></path>
            <path d="M118.073918,192.248568 C117.991033,221.822297 125.06995,240.014132 139.310669,246.82407 C160.671748,257.038978 195.627656,244.139937 195.627656,234.422474 C195.627656,224.705012 166.784701,231.14049 160.671748,227.508325 C156.596445,225.086883 152.816984,220.234645 149.333363,212.951612 L118.073918,192.248568 Z" id="Path-235" fill="#FFCF30"></path>
            <path d="M117.217794,193.180771 C117.705183,222.133032 125.069303,240.014132 139.310153,246.82407 C160.671427,257.038978 195.627656,244.139937 195.627656,234.422474 C195.627656,224.705012 166.784437,231.14049 160.671427,227.508325 C156.596087,225.086883 153.078079,219.910382 150.117403,211.978824" id="Path-235" stroke="#372400" stroke-width="3.26304024" stroke-linecap="round" stroke-linejoin="round"></path>
            <path d="M192.250015,143.238405 C215.36147,132.505976 230.825264,131.447213 238.641395,140.062118 C250.365592,152.984476 241.917616,189.655094 236.381674,191.880121 C230.296107,194.326056 225.993103,188.052427 223.472662,173.059233 C223.472662,167.589592 222.363201,163.366629 220.144278,160.390346 C217.925355,157.414062 208.627267,151.696749 192.250015,143.238405 Z" id="Path-236" fill="#FFCF30"></path>
            <path d="M192.250015,143.238405 C215.36147,132.505976 230.825264,131.447213 238.641395,140.062118 C250.365592,152.984476 241.917616,189.655094 236.381674,191.880121 C230.296107,194.326056 225.993103,188.052427 223.472662,173.059233" id="Path-236" stroke="#372400" stroke-width="3.26304024" stroke-linecap="round" stroke-linejoin="round"></path>
            <path d="M37.5735944,117.817216 C28.5900464,118.941345 21.9796384,117.766737 17.7423704,114.293392 C11.3864684,109.083375 9.90211876,87.131151 6.57712118,92.4089958 C3.2521236,97.6868406 -4.13639924,118.248548 6.57712118,132.016248 C13.7194681,141.194715 24.0516259,144.773137 37.5735944,142.751516 L37.5735944,117.817216 Z" id="Path-240" stroke="#372400" stroke-width="3.26304024" fill="#925808" stroke-linecap="round" stroke-linejoin="round"></path>
            <path d="M19.7076636,92.6730153 C23.0877255,96.3291321 25.9400421,98.8975495 28.2646133,100.378267 C30.5891845,101.858985 32.6900609,102.44568 34.5672426,102.13835 L34.5672426,115.862109 C28.2161859,113.570198 24.1518253,110.8858 22.3741606,107.808914 C20.5964959,104.732028 19.7076636,99.6867287 19.7076636,92.6730153 Z" id="Path-241" stroke="#372400" stroke-width="3.26304024" fill="#FFCF30" stroke-linecap="round" stroke-linejoin="round"></path>
            <path d="M138.940971,31.8776304 C142.945829,29.1796107 145.749174,26.9306158 147.351006,25.1306457 C148.952839,23.3306755 152.137345,18.8511557 156.904526,11.6920862 C158.705058,18.4814941 159.791409,23.6452191 160.163578,27.183261 C160.535746,30.7213029 160.535746,35.8850278 160.163578,42.6744358 L138.940971,31.8776304 Z" id="Path-242" stroke="#372400" stroke-width="3.26304024" fill="#FFCF30" stroke-linecap="round" stroke-linejoin="round"></path>
            <path d="M150.7382,39.974827 C158.092822,34.6715952 162.730149,29.3003543 164.650181,23.8611043 C167.530229,15.7022294 156.707924,-3.17125656 164.650181,0.563635551 C172.592438,4.29852766 185.17288,21.2835688 187.976929,33.2897711 C189.846295,41.293906 186.804078,50.6522237 178.850278,61.3647244 L150.7382,39.974827 Z" id="Path-243" stroke="#372400" stroke-width="3.26304024" fill="#925808" stroke-linecap="round" stroke-linejoin="round"></path>
            <path d="M69.2924046,43.4949939 C14.662009,85.5611655 13.4263017,173.108908 67.8100758,192.692253 C122.19385,212.275598 212.570159,152.84593 211.382355,102.032846 C210.19455,51.219763 123.9228,1.4288223 69.2924046,43.4949939 Z" id="Path-244" stroke="#372400" stroke-width="3.26304024" fill="#FFCF30"></path>
            <g id="Group-3" transform="translate(62.407254, 167.082903) rotate(-15.000000) translate(-62.407254, -167.082903) translate(53.905575, 153.535161)">
                <path d="M13.9805895,8.08001985 C9.19065651,1.80233706 5.68303811,0.302970456 3.45773428,3.58192003 C0.119778541,8.50034438 3.45773428,24.3384236 8.71916189,25.9544773 C12.2267803,27.0318465 14.7300376,24.7771504 16.2289339,19.1903892 L13.9805895,8.08001985 Z" id="Path-127" fill="#FFE1D6"></path>
                <path d="M15.2811629,7.09092082 C15.4309483,7.28722957 15.5341989,7.51489056 15.583149,7.75678115 C16.3501269,15.8278251 16.7400259,19.951213 16.752846,20.1269446 C17.3772388,28.6858551 16.1156061,22.1776417 15.7262243,22.9970613 C13.8564165,26.9319075 10.9137728,27.775997 7.11391214,26.6088653 C3.91194398,25.625377 2.18688594,20.9143322 0.895081946,15.1743098 C-0.345926119,9.65999484 0.209344532,5.45841927 2.10422097,2.66634917 C3.65019416,0.388382421 5.91671418,-0.315178563 8.40093977,0.746728543 C10.4742022,1.63296534 12.7297034,3.74697982 15.2811629,7.09092082 Z M7.11391214,3.74773707 C6.09051933,3.31027756 3.90341453,3.2629417 2.92820538,5.14967461 C0.4537332,9.93702518 4.25075796,24.326459 8.23840209,25.5512686 C10.600124,26.2766743 14.7252918,24.6486808 16.0044145,20.1269446 L13.5945759,7.75678115 C11.4549301,4.99879061 8.49954108,4.34003803 7.11391214,3.74773707 Z" id="Path-127" fill="#372400" fill-rule="nonzero"></path>
                <path d="M5.71794338,14.0867847 C4.70472556,10.707076 4.70472556,8.57512923 5.71794338,7.69094456 C6.7311612,6.80675988 8.74210982,7.18385201 11.7507892,8.82222095 C10.4157469,8.82784224 9.21325159,9.29749813 8.14330334,10.2311886 C7.0733551,11.1648791 6.26490177,12.4500778 5.71794338,14.0867847 Z" id="Path-128" fill="#E5AA94"></path>
            </g>
            <g id="Group-3-Copy" transform="translate(188.576950, 87.501513) scale(-1, 1) rotate(52.000000) translate(-188.576950, -87.501513) translate(180.075270, 73.953771)">
                <path d="M13.9805895,8.08001985 C9.19065651,1.80233706 5.68303811,0.302970456 3.45773428,3.58192003 C0.119778541,8.50034438 3.45773428,24.3384236 8.71916189,25.9544773 C12.2267803,27.0318465 14.7300376,24.7771504 16.2289339,19.1903892 L13.9805895,8.08001985 Z" id="Path-127" fill="#FFE1D6"></path>
                <path d="M15.2811629,7.09092082 C15.4309483,7.28722957 15.5341989,7.51489056 15.583149,7.75678115 C16.3501269,15.8278251 16.7400259,19.951213 16.752846,20.1269446 C17.3772388,28.6858551 16.1156061,22.1776417 15.7262243,22.9970613 C13.8564165,26.9319075 10.9137728,27.775997 7.11391214,26.6088653 C3.91194398,25.625377 2.18688594,20.9143322 0.895081946,15.1743098 C-0.345926119,9.65999484 0.209344532,5.45841927 2.10422097,2.66634917 C3.65019416,0.388382421 5.91671418,-0.315178563 8.40093977,0.746728543 C10.4742022,1.63296534 12.7297034,3.74697982 15.2811629,7.09092082 Z M7.11391214,3.74773707 C6.09051933,3.31027756 3.90341453,3.2629417 2.92820538,5.14967461 C0.4537332,9.93702518 4.25075796,24.326459 8.23840209,25.5512686 C10.600124,26.2766743 14.7252918,24.6486808 16.0044145,20.1269446 L13.5945759,7.75678115 C11.4549301,4.99879061 8.49954108,4.34003803 7.11391214,3.74773707 Z" id="Path-127" fill="#372400" fill-rule="nonzero"></path>
                <path d="M5.71794338,14.0867847 C4.70472556,10.707076 4.70472556,8.57512923 5.71794338,7.69094456 C6.7311612,6.80675988 8.74210982,7.18385201 11.7507892,8.82222095 C10.4157469,8.82784224 9.21325159,9.29749813 8.14330334,10.2311886 C7.0733551,11.1648791 6.26490177,12.4500778 5.71794338,14.0867847 Z" id="Path-128" fill="#E5AA94"></path>
            </g>
            <ellipse id="Oval-7" fill="#000000" cx="50.6830907" cy="78.3483871" rx="3.5968645" ry="3.59096774"></ellipse>
            <ellipse id="Oval-7-Copy" fill="#000000" cx="112.81075" cy="39.1741935" rx="3.5968645" ry="3.59096774"></ellipse>
            <path d="M92.4087498,96.5796246 C63.2806094,121.76431 60.3908802,155.017309 76.051349,174.93347 C91.7118179,194.849631 139.519931,190.379388 164.952549,169.686658 C190.385168,148.993927 207.494208,114.321175 184.575291,94.3608537 C161.656374,74.4005329 121.53689,71.3949391 92.4087498,96.5796246 Z" id="Path-245" stroke="#372400" stroke-width="3.26304024" fill="#FFE1D6"></path>
            <path d="M75.294618,114.44257 C66.309847,101.844267 65.0004651,90.1310502 71.3664721,79.3029211 C80.9154827,63.0607275 101.935193,56.6551955 118.710557,56.6551955 C129.894133,56.6551955 138.023272,63.5657544 143.097974,77.3868721 C130.547069,75.9699296 117.499374,79.1169502 103.954889,86.8279339 C90.4104046,94.5389176 80.8569808,103.743796 75.294618,114.44257 Z" id="Path-256" fill="#B97C17"></path>
            <path d="M75.315212,116.285475 C68.5543202,106.458714 66.1866968,97.3458259 68.2123417,88.9468105 C71.2508091,76.3482873 77.0027549,71.6970689 87.618045,65.2737293 C98.2333351,58.8503896 106.565181,53.5922821 121.565541,57.0295432 C131.565781,59.3210506 139.02239,66.3707282 143.935369,78.178576" id="Path-246" stroke="#372400" stroke-width="3.26304024" stroke-linecap="round" stroke-linejoin="round"></path>
            <path d="M82.1070001,87.5850708 C90.8783391,91.9679106 98.1521832,92.5478531 103.928532,89.3248984 C109.704882,86.1019436 112.593056,80.3097892 112.593056,71.9484351 C115.553112,69.5625026 117.890463,70.5808608 119.605109,75.0035096 C122.177077,81.6374828 116.071336,91.7639858 108.535462,97.1639903 C100.999589,102.563995 82.9017283,99.8360488 80.9873527,94.8250823 C79.7111022,91.484438 80.084318,89.0711009 82.1070001,87.5850708 Z" id="Path-247" stroke="#372400" stroke-width="2.28412817" fill="#FFEC60" stroke-linecap="round" stroke-linejoin="round"></path>
            <path d="M141.127144,113.066169 C147.971956,114.671674 148.913692,105.511942 155.0112,100.755144 C161.108707,95.9983456 166.920876,97.313524 167.997998,92.1036322 C169.07512,86.8937405 157.987422,82.848447 149.568158,89.4164976 C141.148894,95.9845481 134.282331,111.460664 141.127144,113.066169 Z" id="Path-248" stroke="#372400" stroke-width="2.61043219" fill="#FFFFFF"></path>
            <path d="M149.444986,89.8274416 C148.506238,91.2704008 148.596611,94.8453503 151.760735,94.8453503 C154.924858,94.8453503 157.169595,90.7779457 155.843617,88.5695137 C154.517638,86.3610817 150.383735,88.3844823 149.444986,89.8274416 Z" id="Path-249" fill="#000000"></path>
            <path d="M111.662645,133.009579 C109.290489,140.525091 103.244235,133.009579 98.0070745,137.822237 C92.7699141,142.634894 89.2096517,154.596848 80.3825216,151.689954 C71.5553914,148.783059 85.3124402,128.589324 92.7220651,124.72458 C100.13169,120.859837 114.034802,125.494068 111.662645,133.009579 Z" id="Path-250" stroke="#372400" stroke-width="2.61043219" fill="#FFFFFF"></path>
            <path d="M91.080896,126.887151 C87.868384,128.962959 87.6129514,132.529309 89.8682292,132.716865 C92.123507,132.904421 96.6845818,131.982634 97.3220607,128.481997 C97.9595396,124.981361 94.2934079,124.811344 91.080896,126.887151 Z" id="Path-251" fill="#000000"></path>
            <path d="M126.706814,137.576201 C127.050196,134.08978 127.753515,131.993051 128.816771,131.286016 C129.880027,130.57898 131.746574,130.96682 134.416413,132.449535" id="Path-252" stroke="#372400" stroke-width="1.95782414" stroke-linecap="round" stroke-linejoin="round"></path>
            <path d="M154.489259,132.539657 C149.807723,134.641758 148.834574,143.039907 137.586119,147.436809 C126.337663,151.833711 119.816979,148.611319 114.58502,152.378836 C109.353061,156.146353 108.010149,165.459303 118.05489,169.008812 C128.099632,172.558321 139.369097,169.723542 150.512999,163.394904 C161.656901,157.066265 165.212243,149.978528 165.212243,142.228081 C165.212243,134.477635 159.170794,130.437555 154.489259,132.539657 Z" id="Path-253" stroke="#372400" stroke-width="1.63152012" fill="#FFFFFF"></path>
            <polygon id="Path-254" fill="#9D9D9D" points="125.711523 159.546431 136.543241 157.382746 136.543241 155.380777 137.535818 156.798588 142.524124 154.687648 141.978796 152.416599 143.633271 154.239883 152.302036 148.684441 151.768812 146.842361 153.789753 147.40492 157.835333 144.145701 154.243969 148.093351 155.129875 150.424146 153.239718 149.490351 144.462022 155.380777 144.462022 156.158492 143.2194 155.380777 137.952379 157.382746 137.535818 159.546431 136.543241 158.017355"></polygon>
            <path d="M165.782755,134.171613 C167.347857,135.238156 168.303739,136.074871 168.6504,136.681759 C168.997061,137.288647 168.997061,138.125363 168.6504,139.191906" id="Path-255" stroke="#372400" stroke-width="1.3052161" stroke-linecap="round" stroke-linejoin="round"></path>
            <path d="M170.025986,133.039543 C170.025986,132.493646 171.400286,133.486266 171.920277,134.396598 C172.266938,135.003486 172.266938,135.840201 171.920277,136.906744" id="Path-255-Copy" stroke="#372400" stroke-width="1.3052161" stroke-linecap="round" stroke-linejoin="round"></path>
            <polygon id="Path-257" fill="#FFFFFF" points="110.828916 78.0207605 112.644906 84.9075493 107.933731 89.5932751 114.023701 86.5990191 117.804371 90.5358643 116.309223 84.9075493 120.11367 81.5011874 115.524873 82.7178809"></polygon>
            <path d="M21.252197,117.522581 C17.9835012,122.002257 16.2478628,125.593396 16.0452817,128.295999 C15.8427006,130.998601 16.9850596,135.322309 19.4723586,141.267124" id="Path-258" stroke="#372400" stroke-width="3.26304024" stroke-linecap="round"></path>
            <path d="M14.8550535,113.285981 L11.6729723,112.982501 C8.99398196,116.189109 7.55319626,119.143714 7.35061519,121.846316 C7.14803411,124.548918 8.45171603,128.029008 11.2616609,132.286585" id="Path-258-Copy" stroke="#372400" stroke-width="3.26304024" stroke-linecap="round" transform="translate(11.092617, 122.634543) rotate(25.000000) translate(-11.092617, -122.634543) "></path>
            <path d="M9.34017325,103.045757 C5.68820773,106.143555 3.76093443,109.043755 3.55835336,111.746358 C3.35577228,114.44896 3.88687119,117.119021 5.15165008,119.756541" id="Path-258-Copy-2" stroke="#372400" stroke-width="3.26304024" stroke-linecap="round" transform="translate(6.428287, 111.401149) rotate(25.000000) translate(-6.428287, -111.401149) "></path>
            <path d="M92.5564032,162.14457 C85.707252,157.616619 70.136201,166.941575 66.4145091,172.233942 C62.6928171,177.526309 63.5410734,190.47408 74.3875536,187.981265 C85.2340337,185.48845 99.4055544,166.672522 92.5564032,162.14457 Z" id="Path-300" fill="#EB6262"></path>
            <path d="M196.211498,93.9161832 C189.362347,89.3882315 173.791296,98.7131875 170.069604,104.005554 C166.347912,109.297921 167.196169,122.245693 178.042649,119.752878 C188.889129,117.260063 203.06065,98.444135 196.211498,93.9161832 Z" id="Path-300-Copy" fill="#EB6262"></path>
        </g>
    </g>
</svg>