<?xml version="1.0" encoding="UTF-8"?>
<svg width="300px" height="300px" viewBox="0 0 300 300" version="1.1" xmlns="http://www.w3.org/2000/svg" xmlns:xlink="http://www.w3.org/1999/xlink">
    <!-- Generator: Sketch 49 (51002) - http://www.bohemiancoding.com/sketch -->
    <title>双子座</title>
    <desc>Created with Sketch.</desc>
    <defs></defs>
    <g id="双子座" stroke="none" stroke-width="1" fill="none" fill-rule="evenodd">
        <g id="双子座-copy" transform="translate(5.000000, 10.000000)">
            <path d="M83.3354631,214 L148.065605,167.016696 L208.764214,164.277116 L195.047399,105.298724 C202.074794,97.9414667 206.647065,92.0488556 208.764214,87.6208903 C210.881362,83.1929249 215.959958,66.276482 224,36.8715616 C203.765895,37.0780947 187.905161,38.3353624 176.417798,40.6433645 C164.930435,42.9513666 154.250368,46.3080869 144.377596,50.7135254 C136.649684,37.8773634 130.001096,28.4002508 124.431833,22.2821877 C118.862569,16.1641245 109.099097,8.73672865 95.1414149,0 C84.3269923,15.5708042 76.972539,27.8613248 73.0780549,36.8715616 C69.1835709,45.8817984 65.166027,58.7534534 61.0254232,75.4865267 C49.2877791,82.3741094 40.7487291,88.114224 35.4082731,92.7068703 C30.0678171,97.2995165 18.2650594,109.928146 0,130.592758 C10.9898419,138.533211 19.9831946,144.133289 26.9800581,147.392991 C33.9769216,150.652694 46.6828098,155.444395 65.0977227,161.768093 C68.0671876,175.385647 70.7272983,185.560644 73.0780549,192.293084 C75.4288116,199.025525 78.8479477,206.261163 83.3354631,214 Z" id="Path-237" stroke="#372400" stroke-width="3.41643415" fill="#FFF686"></path>
            <path d="M150.090823,92.767303 L93.4190732,92.767303 C83.2492646,139.024582 76.8059833,163.574006 74.0892294,166.415576 C73.2984374,167.242699 62.9573078,159.805275 61.220629,144.885687 C59.4839502,129.9661 52.372021,113.827275 81.6434048,90.7934081 C101.157661,75.4374966 123.973467,76.0954615 150.090823,92.767303 Z" id="Path-269" fill="#D0C542"></path>
            <path d="M114.662693,79.4395028 C74.6933403,89.7635513 58.2302274,123.11971 69.442175,157.645707 C80.6541226,192.171705 119.223676,189.267774 147.981717,179.562322 C176.739759,169.856871 204.212246,153.644724 193.715453,123.342809 C183.218661,93.0408927 154.632046,69.1154544 114.662693,79.4395028 Z" id="Path-259" stroke="#372400" stroke-width="3.41643415" fill="#FFE1D6"></path>
            <polygon id="Path-261" stroke="#372400" stroke-width="3.27408253" fill="#FFE1D6" stroke-linejoin="round" points="80 239 85.0922576 252 137 230.910603 134.387412 226"></polygon>
            <path d="M123.60331,186.47382 C113.421001,177.163705 102.433795,179.729881 90.641693,194.172347 C78.8495912,208.614813 74.1803166,225.224031 76.6338691,244 C92.8293008,237.98101 104.955599,234.052348 113.012763,232.214014 C121.069927,230.37568 130.732339,229.332998 142,229.085969 L123.60331,186.47382 Z" id="Path-260" stroke="#372400" stroke-width="3.27408253" fill="#FFFFFF" stroke-linecap="round" stroke-linejoin="round"></path>
            <path d="M151.564246,239 C157.456318,239.624502 161.7403,240.220887 164.416192,240.789155 C167.092083,241.357423 171.787827,242.668025 178.503424,244.720961 L185,260.306236 C181.631851,262.646767 174.770581,264.302136 164.416192,265.272344 C154.061802,266.242552 143.256405,266.242552 132,265.272344 L151.564246,239 Z" id="Path-263" stroke="#372400" stroke-width="3.27408253" fill="#FFE1D6" stroke-linecap="round" stroke-linejoin="round"></path>
            <path d="M128.880695,232 C117.019534,234.375041 108.806191,236.451808 104.240665,238.230302 C99.6751399,240.008797 91.760243,244.214763 80.4959747,250.848201 C78.2892402,260.281322 83.4463046,268.088873 95.9671679,274.270853 C114.748463,283.543823 140.593322,279.030065 144.340048,277.959117 C148.086774,276.888169 151.909007,260.99047 152.61613,257.704387 C153.087546,255.513665 153.087546,249.676669 152.61613,240.193401 C153.593126,237.317467 152.705191,235.629837 149.952327,235.130512 C145.82303,234.381524 135.790203,235.588566 132.707021,235.130512 C130.651566,234.825143 129.376124,233.781639 128.880695,232 Z" id="Path-262" stroke="#372400" stroke-width="3.27408253" fill="#FFFFFF" stroke-linecap="round" stroke-linejoin="round"></path>
            <path d="M118.071145,204 C133.357048,205.427417 141,207.882487 141,211.365213 C141,214.847938 133.667319,219.059534 119.001956,224 C116.333985,218.846921 115,215.23618 115,213.167776 C115,211.099372 116.023715,208.043447 118.071145,204 Z" id="Path-265" stroke="#372400" stroke-width="3.27408253" fill="#FFE1D6"></path>
            <path d="M110.660122,198 L118.957979,203.651085 C116.692973,207.782872 115.614069,210.90846 115.721269,213.027849 C115.828469,215.147237 117.254712,218.888733 120,224.252335 L105,230" id="Path-264" stroke="#372400" stroke-width="3.27408253" stroke-linecap="round" stroke-linejoin="round"></path>
            <path d="M85.5885585,116.071062 C76.4658476,118.234131 73.2903203,127.095672 76.5068035,135.270507 C79.7232866,143.445342 100.911924,141.729348 101.745455,130.039668 C102.578986,118.349987 94.7112694,113.907993 85.5885585,116.071062 Z" id="Path-266" stroke="#372400" stroke-width="2.27762268" fill="#FFFFFF"></path>
            <path d="M142.302844,104.501775 C133.180133,106.664844 130.004606,115.526384 133.221089,123.701219 C136.437572,131.876054 157.626209,130.160061 158.45974,118.47038 C159.293271,106.7807 151.425555,102.338706 142.302844,104.501775 Z" id="Path-266-Copy" stroke="#372400" stroke-width="2.27762268" fill="#FFFFFF"></path>
            <ellipse id="Oval-8" fill="#000000" cx="92.5714286" cy="123.539962" rx="3.28571429" ry="2.5705907"></ellipse>
            <ellipse id="Oval-8-Copy" fill="#000000" cx="149.571429" cy="111.970674" rx="3.28571429" ry="2.5705907"></ellipse>
            <path d="M93.2982626,145.073578 C96.3883449,139.424617 88.8017535,137.528563 83.0805919,138.743454 C77.3594303,139.958345 71.6491136,147.553517 74.1942782,149.130315 C76.7394428,150.707114 90.2081802,150.722538 93.2982626,145.073578 Z" id="Path-267" stroke="#372400" stroke-width="1.70821701" fill="#A1D9FF"></path>
            <path d="M164.298263,129.505594 C167.388345,123.856633 159.801753,121.960579 154.080592,123.17547 C148.35943,124.390361 145.11766,130.313491 147.662824,131.890289 C150.207989,133.467087 161.20818,135.154554 164.298263,129.505594 Z" id="Path-267-Copy" stroke="#372400" stroke-width="1.70821701" fill="#A1D9FF"></path>
            <path d="M136.230528,162.087579 C135.109211,165.676236 131.56465,165.851739 126.079269,162.958586 C125.730363,162.774563 125.596748,162.342631 125.780831,161.99384 C125.964914,161.645048 126.396987,161.511476 126.745893,161.695499 C131.556747,164.232887 134.30483,164.53261 135.068808,162.087579 C135.8366,159.630341 133.875616,157.776431 128.992699,157.317433 C128.667398,157.286855 127.421396,157.184947 127.344668,156.928735 C127.252658,156.621493 128.390264,156.142177 128.740932,155.967448 C132.19966,154.244057 133.479671,152.627413 132.428096,150.93685 C131.35052,149.204484 129.066634,149.208653 125.85786,151.172909 C125.521435,151.378852 125.081705,151.273165 124.875695,150.93685 C124.669685,150.600535 124.775407,150.160948 125.111831,149.955005 C128.904719,147.633183 131.753733,147.633183 133.342209,150.186896 C134.686933,152.348741 133.306011,154.511582 130.628655,156.314995 C134.811918,157.132619 137.199615,158.986121 136.230528,162.087579 Z" id="Path-268" fill="#372400" fill-rule="nonzero"></path>
            <polygon id="Path-270" stroke="#372400" stroke-width="2.61926602" fill="#AFD1FF" stroke-linecap="round" stroke-linejoin="round" points="121 189 192.858982 202.560475 194 246 130.884249 231.888366"></polygon>
            <polygon id="Path-280" stroke="#372400" stroke-width="2.56232544" fill="#FFF686" stroke-linecap="round" stroke-linejoin="round" points="247.723185 184.743621 254.287483 192 265.25508 169.445152 290 161.842585 267.418645 143.411451 270.153912 121 239.466035 130.582968 207.116972 124.277759 216.73662 153.204847 204 162.750481 235.875784 169.445152"></polygon>
            <path d="M249.325656,183.936094 C249.971314,196.24885 245.987076,205.536493 237.372941,211.799023 C228.758806,218.061552 217.537582,219.828374 203.709271,217.099489 L214.219014,181.569348 L229.969504,175.572697 L249.325656,183.936094 Z" id="Path-289" stroke="#372400" stroke-width="2.84702835" fill="#FFE1D6" stroke-linejoin="round"></path>
            <path d="M225.641101,184.644189 C226.460653,183.638618 227.54337,183.120931 228.889251,183.09113 C230.235132,183.061328 237.19783,183.400868 249.777344,184.109748 L243.724134,208.666937 L227.532484,222.624053 L214.874164,211.865729 L225.641101,184.644189 Z" id="Path-292" stroke="#372400" stroke-width="2.27762268" fill="#000000" stroke-linecap="round" stroke-linejoin="round"></path>
            <polygon id="Path-271" stroke="#372400" stroke-width="2.61926602" fill="#77A2DB" stroke-linecap="round" stroke-linejoin="round" points="193 202.902328 252 170 228.565485 230.277547 194.605384 246"></polygon>
            <polygon id="Path-272" stroke="#372400" stroke-width="2.61926602" fill="#97C4FF" stroke-linecap="round" stroke-linejoin="round" points="118 187 192 199.623059 192 217 121.15783 202.517103"></polygon>
            <polygon id="Path-273" stroke="#372400" stroke-width="2.61926602" fill="#6290CD" stroke-linecap="round" stroke-linejoin="round" points="192 200.964715 254 168 245.726453 189.219528 192 218"></polygon>
            <polygon id="Path-274" stroke="#372400" stroke-width="2.61926602" fill="#AFD1FF" stroke-linecap="round" stroke-linejoin="round" points="119 186.873422 177.51219 163 254 168.072367 192.669411 200"></polygon>
            <polygon id="Path-275" stroke="#372400" stroke-width="1.96444952" fill="#FF8181" stroke-linecap="round" stroke-linejoin="round" points="233 178.807409 160.527469 169 142 176.355864 217.438901 186"></polygon>
            <polygon id="Path-276" stroke="#372400" stroke-width="1.96444952" fill="#C15D5D" stroke-linecap="round" stroke-linejoin="round" points="216.886074 185.56814 232 178 218.705293 235.041393 212 238"></polygon>
            <polygon id="Path-277" stroke="#372400" stroke-width="1.96444952" fill="#FF9999" stroke-linecap="round" stroke-linejoin="round" points="224 165.748852 164.609711 195 147 192.670016 208.706561 164"></polygon>
            <polygon id="Path-278" stroke="#372400" stroke-width="1.63704127" fill="#FF8181" stroke-linecap="round" stroke-linejoin="round" points="164.694311 194.740115 168 241 154.68777 238.191241 148 192"></polygon>
            <path d="M189.940017,175.490818 C196.424419,159.007283 201.100212,150.518094 203.967396,150.023251 C208.268171,149.280986 211.656368,166.517211 209.13858,172.177365 C207.460054,175.950801 201.561718,177.950891 191.443571,178.177636 C183.027513,183.327039 176.825569,185.561432 172.837739,184.880813 C166.855993,183.859885 159.600029,176.454838 164.757656,173.623046 C168.196073,171.735185 176.590194,172.357776 189.940017,175.490818 Z" id="Path-279" stroke="#372400" stroke-width="1.96444952" fill="#FF8181" stroke-linecap="round" stroke-linejoin="round"></path>
            <path d="M256.103954,146.243369 C245.294907,138.036312 220.648902,138.09512 218.593318,157.055615 C216.537733,176.01611 240.110565,186.212553 253.103775,181.84985 C266.096985,177.487146 266.913,154.450426 256.103954,146.243369 Z" id="Path-281" stroke="#372400" stroke-width="2.84702835" fill="#FFE1D6"></path>
            <path d="M251.857482,155.803847 C252.434645,157.764858 252.951997,159.236766 253.40954,160.219572 C253.867083,161.202377 255.060197,163.40456 256.98888,166.826121 C250.326215,164.086583 246.776065,161.884399 246.33843,160.219572 C245.900796,158.554744 247.74048,157.082836 251.857482,155.803847 Z" id="Path-282" stroke="#372400" stroke-width="1.13881134" fill="#FFFFFF" stroke-linecap="round" stroke-linejoin="round"></path>
            <ellipse id="Oval-9" fill="#000000" cx="251.714286" cy="160.242285" rx="1.57142857" ry="1.57091654"></ellipse>
            <path d="M254.68231,154.772227 C254.823622,154.031824 255.8305,153.659423 256.273971,154.095598 C256.717442,154.531773 256.585069,156.201146 256.716527,156.772976 C256.804166,157.154196 257.187201,157.987276 257.865632,159.272217 C256.815415,158.425565 256.090289,157.71949 255.690252,157.153993 C255.090198,156.305747 254.540998,155.51263 254.68231,154.772227 Z" id="Path-283" fill="#372400"></path>
            <path d="M239.827079,146.602908 C240.441503,147.134848 240.607718,147.644765 240.325724,148.132658 C239.902734,148.864497 238.453203,148.859717 237.640408,148.859717 C237.098545,148.859717 235.717919,148.74004 233.49853,148.500686 C235.050043,148.292686 236.334202,148.036228 237.351008,147.731313 C238.367814,147.426398 239.193171,147.050263 239.827079,146.602908 Z" id="Path-284" fill="#372400"></path>
            <path d="M240.371078,151.48584 C240.629344,156.008078 239.499469,158.20265 236.981453,158.069556 C234.463437,157.936462 231.177632,155.508492 227.124039,150.785646 C230.702831,152.003217 233.403695,152.66018 235.226632,152.756535 C237.049569,152.852889 238.764384,152.429324 240.371078,151.48584 Z" id="Path-285" stroke="#372400" stroke-width="1.13881134" fill="#FFFFFF" stroke-linecap="round" stroke-linejoin="round"></path>
            <ellipse id="Oval-9-Copy" fill="#000000" cx="236.857143" cy="154.24424" rx="1.57142857" ry="1.57091654"></ellipse>
            <path d="M236.550199,171.522926 L236.140191,174.935621 L238.365494,173.229274 C238.124906,172.305125 237.891091,171.736343 237.664048,171.522926 C237.437006,171.30951 237.065723,171.30951 236.550199,171.522926 Z" id="Path-287" fill="#FFFFFF"></path>
            <path d="M232.102789,170.057036 C234.306632,169.930527 235.840337,170.140852 236.703903,170.688011 C237.567468,171.235171 238.3276,172.478231 238.984298,174.417192" id="Path-286" stroke="#372400" stroke-width="1.13881134" stroke-linecap="round" stroke-linejoin="round"></path>
            <path d="M267.857143,148.959644 L267.857143,152.742674 C270.617465,152.397506 272.611121,151.962057 273.838109,151.436329 C275.065097,150.910601 277.670625,148.847549 281.654691,145.247172 C277.958541,147.302343 274.868323,148.539833 272.38404,148.959644 C269.899756,149.379455 268.39079,149.379455 267.857143,148.959644 Z" id="Path-288" stroke="#372400" stroke-width="1.13881134" fill="#940404" stroke-linecap="round" stroke-linejoin="round"></path>
            <path d="M228.4372,125.886949 L228.4372,129.669978 C231.197523,129.32481 233.191178,128.889362 234.418166,128.363634 C235.645155,127.837906 238.250682,125.774854 242.234748,122.174477 C238.538598,124.229647 235.448381,125.467138 232.964097,125.886949 C230.479813,126.306759 228.970848,126.306759 228.4372,125.886949 Z" id="Path-288-Copy" stroke="#372400" stroke-width="1.13881134" fill="#940404" stroke-linecap="round" stroke-linejoin="round" transform="translate(235.335974, 125.922228) scale(-1, 1) rotate(-85.000000) translate(-235.335974, -125.922228) "></path>
            <path d="M242.367584,184.585152 C234.598535,183.804949 229.557424,183.804949 227.24425,184.585152 C223.774488,185.755456 223.354094,189.238956 224.734386,191.364859 C226.114677,193.490761 230.633661,193.714348 233.446981,194.138497 C235.322528,194.421264 238.557523,194.266693 243.151968,193.674787 C241.970214,192.608298 241.189993,191.090397 240.811307,189.121085 C240.432621,187.151772 240.95138,185.639795 242.367584,184.585152 Z" id="Path-290" stroke="#372400" stroke-width="1.13881134" fill="#FFE1D6" stroke-linecap="round" stroke-linejoin="round"></path>
            <path d="M246.142857,209.485476 C252.925492,206.765102 257.816157,205.676702 260.814853,206.220274 C265.312896,207.035632 264.04264,211.152787 265.773972,213.043998 C266.928193,214.304805 270.165819,216.697155 275.486849,220.221047 C268.979121,218.709469 264.598911,217.95368 262.34622,217.95368 C260.093529,217.95368 258.088066,218.709469 256.32983,220.221047 C253.144673,217.585058 251.039069,216.152877 250.013017,215.924503 C248.986966,215.69613 247.696913,216.372522 246.142857,217.95368 L246.142857,209.485476 Z" id="Path-291" stroke="#372400" stroke-width="2.56232551" fill="#000000" stroke-linejoin="round"></path>
            <path d="M67.46675,219.259335 C68.17775,216.022632 68.17775,214.088522 67.46675,213.457003 C51.9262946,199.653786 31.1949381,192.949582 23.8288711,197.331594 C16.057043,201.95499 16.057043,208.507917 23.8288711,216.990375 C23.931822,219.650035 24.459383,221.500195 25.411554,222.540854 C26.363725,223.581513 28.3468799,224.475398 31.3610185,225.222508 L36.0932518,233.910836 L41.0610236,236.819729 L49.050127,238 L57.2064232,236.819729 L65.0594,233.910836 L67.46675,227.851501 L67.46675,219.259335 Z" id="Path-296" fill="#FFFFFF"></path>
            <path d="M51.9597776,212.186789 C48.9984951,216.482833 48.6728946,219.623358 50.9829761,221.608364 C54.4480984,224.585873 71.8354657,223.158155 67.2286079,213.669099 C62.6217501,204.180042 31.2067004,191.23656 22.1330658,197.773887 C13.0594312,204.311214 21.4501692,213.521412 23.5323697,215.385697 C24.9205033,216.628553 29.0134797,218.042371 35.8112988,219.62715" id="Path-293" stroke="#372400" stroke-width="3.41643415" stroke-linecap="round" stroke-linejoin="round"></path>
            <path d="M24.1807255,216 C23.5509106,218.876608 24.5672392,221.093028 27.2297112,222.649262 C29.8921832,224.205496 35.1489461,225.655742 43,227" id="Path-294" stroke="#372400" stroke-width="3.41643415" stroke-linecap="round" stroke-linejoin="round"></path>
            <path d="M32,225.58335 C35.0219241,233.79289 41.7774052,237.574913 52.2664431,236.929419 C62.755481,236.283926 68,232.307453 68,225" id="Path-295" stroke="#372400" stroke-width="3.41643415" stroke-linecap="round" stroke-linejoin="round"></path>
            <path d="M63.5603663,162.431754 C56.8107723,167.706165 59.9862335,172.123602 70.3099603,171.105357 C80.633687,170.087112 89.9784245,163.321209 85.1749351,159.18326 C80.3714457,155.045311 70.3099603,157.157342 63.5603663,162.431754 Z" id="Path-297" fill="#EB6262"></path>
            <path d="M171,135.269722 C171,127.471835 186.944357,124.326124 192.207111,124.012126 C197.469864,123.698127 206.713439,129.55118 199.230639,133.585361 C191.747839,137.619543 171,143.067609 171,135.269722 Z" id="Path-298" fill="#EB6262"></path>
            <path d="M225.090871,158.707164 C227.613068,157.663875 223.390449,152.096334 219.838622,151.181663 C216.286794,150.266991 210.970681,152.315149 212.801863,154.813983 C214.633045,157.312816 222.568675,159.750453 225.090871,158.707164 Z" id="Path-299" fill="#EB6262"></path>
            <path d="M265.948014,177.843784 C268.470211,176.800494 264.247592,171.232954 260.695765,170.318282 C257.143937,169.403611 251.827824,171.451769 253.659006,173.950602 C255.490188,176.449436 263.425817,178.887073 265.948014,177.843784 Z" id="Path-299-Copy" fill="#EB6262"></path>
            <path d="M249.94414,183.282382 C250.590423,185.559835 250.913564,187.539654 250.913564,189.221838 C250.913564,190.904022 250.131457,192.88384 248.567242,195.161293 L238.099185,193.412313 L238.099185,183.282382 L249.94414,183.282382 Z" id="Path-2" stroke="#372400" fill="#000000"></path>
        </g>
    </g>
</svg>