<?xml version="1.0" encoding="UTF-8"?>
<svg width="300px" height="300px" viewBox="0 0 300 300" version="1.1" xmlns="http://www.w3.org/2000/svg" xmlns:xlink="http://www.w3.org/1999/xlink">
    <!-- Generator: Sketch 49 (51002) - http://www.bohemiancoding.com/sketch -->
    <title>天秤座</title>
    <desc>Created with Sketch.</desc>
    <defs></defs>
    <g id="天秤座" stroke="none" stroke-width="1" fill="none" fill-rule="evenodd">
        <g id="天秤座-copy" transform="translate(26.000000, 9.000000)">
            <path d="M165.179091,185.064059 C192.089416,168.136144 205.241126,156.82203 204.634219,151.121716 C204.027312,145.421402 189.505116,143.863348 161.067629,146.447552 C160.550448,156.47079 160.550448,163.911196 161.067629,168.768771 C161.584811,173.626346 162.955298,179.058109 165.179091,185.064059 Z" id="Path-303" stroke="#372400" stroke-width="3.6300003" fill="#FFE1D6" stroke-linecap="round" stroke-linejoin="round"></path>
            <polygon id="Path-301" stroke="#372400" stroke-width="3.6300003" fill="#FFE1D6" stroke-linejoin="round" points="86.410355 160.458431 94.3314289 184.936617 121.337911 190.840585 135.736639 181.1858 141.937668 139.604095"></polygon>
            <path d="M95.4888165,166.268419 L71.4435397,166.268419 L57.9449658,178.671545 C65.4425957,184.032901 70.5899291,188.121969 73.3869661,190.938749 C76.184003,193.755529 78.8633853,196.105541 81.4251131,197.988788 L156.85996,197.988788 L166.403608,183.151852 C163.711398,178.860934 162.215363,175.472255 161.915504,172.985814 C161.615645,170.499373 161.615645,161.482882 161.915504,145.936342 L138.018232,153.252019 C132.199456,170.19837 124.523312,178.671545 114.989802,178.671545 C105.456291,178.671545 98.9559629,174.53717 95.4888165,166.268419 Z" id="Path-302" stroke="#372400" stroke-width="3.6300003" fill="#FFFFFF" stroke-linecap="round" stroke-linejoin="round"></path>
            <path d="M77.0927303,194.877987 L158.809138,194.877987 C155.786675,207.514559 153.825982,216.886335 152.927058,222.993312 C151.859239,230.247705 152.46637,236.529462 150.101614,243.962894 C144.750767,260.782877 138.358869,271.951955 130.925921,277.470127 L115.506298,271.68535 C122.976957,261.163195 121.251014,253.714508 110.328469,249.339287 C101.46912,245.790517 88.141284,255.917108 61.4485303,259.986415 C57.3043283,260.618199 49.3386814,258.151527 37.5515895,252.586401 L44.8547541,236.174057 C52.7236313,235.76856 57.5905769,234.954789 59.4555912,233.732741 C62.2531125,231.899671 61.8662845,221.43458 64.4201679,215.551081 C66.1227568,211.628749 70.3469443,204.737718 77.0927303,194.877987 Z" id="Path-305" stroke="#372400" stroke-width="3.6300003" fill="#134F95" stroke-linecap="round" stroke-linejoin="round"></path>
            <polygon id="Path-306" stroke="#372400" stroke-width="3.6300003" fill="#134F95" stroke-linecap="round" stroke-linejoin="round" points="79.2729898 166.286499 84.7704301 203.031725 95.5395188 203.031725 89.058695 166.286499"></polygon>
            <path d="M78.8252558,195.749625 C97.2461218,214.792998 103.921799,225.971282 98.8522869,229.284478 C91.248019,234.254272 62.7387709,223.747392 56.8655677,209.907946 C52.950099,200.681649 53.692923,190.272828 59.0940397,178.681484 L78.8252558,195.749625 Z" id="Path-304" stroke="#372400" stroke-width="3.6300003" fill="#FFE1D6" stroke-linecap="round" stroke-linejoin="round"></path>
            <polygon id="Path-307" stroke="#372400" stroke-width="3.6300003" fill="#134F95" stroke-linecap="round" stroke-linejoin="round" points="144.317715 151.544091 152.874042 148.858443 147.481179 203.830033 135.722171 203.830033"></polygon>
            <ellipse id="Oval-10" fill="#372400" cx="87.9562044" cy="194.901015" rx="1.82481752" ry="1.81472081"></ellipse>
            <ellipse id="Oval-10-Copy" fill="#372400" cx="141.970803" cy="196.352792" rx="1.82481752" ry="1.81472081"></ellipse>
            <path d="M103.120484,210.560344 L133.096082,210.560344 C129.721471,226.213477 123.981276,233.756223 115.875498,233.188581 C107.769719,232.62094 103.518048,225.078194 103.120484,210.560344 Z" id="Path-308" stroke="#372400" stroke-width="3.6300003"></path>
            <path d="M196.291374,124.680345 C206.872375,111.904495 204.092366,99.9658087 187.951349,88.8642864 C189.29077,82.1224352 189.29077,77.2020287 187.951349,74.1030671 C168.95116,30.1431523 146.45571,6.37743918 132.695565,2.51934302 C117.480386,-1.74671885 102.471502,-0.127402174 87.6689147,7.37729306 C51.0862687,0.427673939 26.1306619,13.8181613 12.8020945,47.5487553 C-7.19075658,98.1446461 -2.61272682,156.986023 19.5824199,167.205711 C34.3791843,174.018836 49.9699398,167.939056 66.3546862,148.966373 C142.398144,145.551538 185.710373,137.456195 196.291374,124.680345 Z" id="Path-309" stroke="#372400" stroke-width="3.6300003" fill="#7A472B" stroke-linecap="round" stroke-linejoin="round"></path>
            <path d="M73.8101015,37.8090003 C28.4728571,53.5202736 26.8817683,111.747567 37.8409501,136.710571 C48.800132,161.673576 80.7971185,170.555131 115.556919,158.097638 C150.31672,145.640145 178.225812,124.00927 172.398128,91.2786831 C166.570444,58.5480961 119.147346,22.0977271 73.8101015,37.8090003 Z" id="Path-311" stroke="#372400" stroke-width="3.6300003" fill="#FFE1D6" stroke-linecap="round" stroke-linejoin="round"></path>
            <path d="M17.06658,97.3317844 L28.6629577,53.1937513 L73.0304031,33.0790462 L118.278342,20.3867923 L154.515683,48.4226657 C163.909265,69.4848866 169.204723,83.1365606 170.402057,89.3776878 C171.59939,95.618815 170.147611,102.002403 166.04672,108.528451 C167.48554,101.786211 167.114561,94.9484794 164.933785,88.0152545 C162.753008,81.0820297 159.280308,75.6997612 154.515683,71.8684492 C146.522744,72.5667051 138.617226,69.5712692 130.799131,62.8821416 C122.981035,56.193014 117.281393,47.5479362 113.700204,36.9469081 C109.907315,53.0169838 104.059496,64.2729483 96.1567465,70.7148016 C88.2539971,77.1566549 77.6355884,79.3229842 64.3015206,77.2137895 C59.5398995,87.0603196 54.5750731,94.9948868 49.4070414,101.017491 C44.2390097,107.040096 38.2787187,111.837196 31.5261683,115.408792 C34.6165616,124.565784 37.2219797,131.168099 39.3424225,135.215739 C41.4628652,139.263379 45.8992527,144.218489 52.6515849,150.081069 C46.2610101,149.362588 41.8246226,148.510756 39.3424225,147.525574 C36.8602223,146.540392 33.3004007,144.218539 28.6629577,140.560014 L17.06658,97.3317844 Z" id="Path-310" fill="#7A472B"></path>
            <path d="M17.1390218,41.6547507 C17.048285,47.4099873 20.6853197,50.7276804 28.0501256,51.60783 C39.0973346,52.9280545 42.8891705,47.8670192 58.7810874,46.6312904 C74.6730043,45.3955615 73.4977852,52.3423232 92.0502139,46.6312904 C110.602643,40.9202575 105.762555,36.8796193 117.663114,28.5055134 C125.59682,22.9227761 133.893155,16.7789879 142.552121,10.0741489 L148.175182,15.1046772 C143.100141,16.5227839 138.030161,19.219298 132.965245,23.1942193 C125.367871,29.1566014 126.800028,32.3298401 121.786134,35.8146727 C116.77224,39.2995053 114.983628,34.1147425 106.404673,41.6547507 C97.8257173,49.194759 103.125446,56.1451092 96.4369536,58.0939626 C89.7484609,60.0428161 82.7065755,51.0546983 72.2455635,51.60783 C61.7845515,52.1609617 59.954688,60.3114439 54.4992073,60.3114439 C49.0437267,60.3114439 58.0133273,51.60783 48.2471384,51.60783 C38.4809495,51.60783 28.8091386,60.3114439 21.429279,60.3114439 C16.5093725,60.3114439 13.6241871,57.4102393 12.7737226,51.60783 C13.6862924,49.3382476 14.3724215,47.679401 14.8321101,46.6312904 C15.2917986,45.5831797 16.0607692,43.9243332 17.1390218,41.6547507 Z" id="Path-17" fill="#BB8C6E"></path>
            <path d="M84.3059126,100.513316 C78.214417,97.0364765 72.7761163,96.4117125 67.9910106,98.6390242 C63.205905,100.866336 56.840841,107.198664 48.8958188,117.636008" id="Path-312" stroke="#372400" stroke-width="2.90400024" stroke-linecap="round" stroke-linejoin="round"></path>
            <path d="M110.385986,83.1374932 C116.336487,84.5470899 122.079081,84.5470899 127.61377,83.1374932 C133.148459,81.7278965 138.891054,78.8327015 144.841555,74.4519083" id="Path-313" stroke="#372400" stroke-width="2.90400024" stroke-linecap="round" stroke-linejoin="round"></path>
            <path d="M84.7493881,110.335025 C79.1856593,114.72102 75.0915037,117.779913 72.4669214,119.511703 C69.842339,121.243494 64.6648007,124.302387 56.9343066,128.688382" id="Path-314" stroke="#372400" stroke-width="2.90400024" stroke-linecap="round" stroke-linejoin="round"></path>
            <path d="M146.753839,91.4836112 C139.006343,91.4836112 133.616717,92.0640276 130.584962,93.2248604 C127.553206,94.3856931 122.711017,96.2863931 116.058394,98.9269602" id="Path-314-Copy" stroke="#372400" stroke-width="2.90400024" stroke-linecap="round" stroke-linejoin="round"></path>
            <ellipse id="Oval-11" fill="#000000" cx="76.6423358" cy="123.038071" rx="6.20437956" ry="5.44416244"></ellipse>
            <ellipse id="Oval-11-Copy" fill="#000000" cx="129.562044" cy="100.535533" rx="6.20437956" ry="5.44416244"></ellipse>
            <ellipse id="Oval-12" fill="#FFFFFF" cx="130.839416" cy="98.1763959" rx="1.64233577" ry="1.63324873"></ellipse>
            <ellipse id="Oval-12-Copy" fill="#FFFFFF" cx="76.8248175" cy="121.041878" rx="1.64233577" ry="1.63324873"></ellipse>
            <path d="M102.691635,122.853902 C104.116664,120.241004 105.39692,118.673461 106.532404,118.151273 C107.667888,117.629085 109.839023,117.629085 113.04581,118.151273" id="Path-315" stroke="#372400" stroke-width="1.45200012" stroke-linecap="round" stroke-linejoin="round"></path>
            <path d="M89.5120631,154.433611 C85.2355517,148.039025 87.8910903,143.10267 95.6290404,141.176606 C103.36699,139.250541 106.588008,146.444485 121.283523,143.905097 C135.979037,141.365708 136.404302,125.64038 144.577963,133.414357 C152.751623,141.188334 131.076845,154.433611 118.851408,157.99253 C106.625971,161.551449 93.7885745,160.828198 89.5120631,154.433611 Z" id="Path-316" stroke="#372400" stroke-width="3.6300003" fill="#FFC1A8"></path>
            <path d="M172.975629,79.9402738 C172.919447,88.3172659 172.562237,93.5007297 171.903996,95.490665 C171.245756,97.4806004 169.638338,101.405953 167.081744,107.266724 C167.799025,99.2787431 167.285588,92.6720412 165.541435,87.4466178 C162.925205,79.6084827 160.137045,75.1026316 155.588459,72.8332374 C151.039873,70.5638432 145.012918,72.8332374 133.854491,65.4361245 C126.41554,60.5047159 119.359069,50.8591831 112.685078,36.4995259 C109.773604,53.0253873 104.45015,64.6503215 96.7147175,71.3743286 C88.9792847,78.0983357 78.1410264,79.760583 64.1999426,76.3610705 C60.888546,86.9210137 56.9755724,94.8840554 52.4610218,100.250196 C47.9464711,105.616336 41.0510426,110.500509 31.7747363,114.902714 C33.5991841,125.914232 36.222912,133.875474 39.6459202,138.786441 C43.0689283,143.697408 47.3406288,147.439376 52.4610218,150.012346 C46.3125374,150.533408 42.0408368,150.533408 39.6459202,150.012346 C37.2510035,149.491284 33.6510678,147.778652 28.846113,144.87445" id="Path-317" stroke="#372400" stroke-width="3.6300003" stroke-linecap="round" stroke-linejoin="round"></path>
            <path d="M223.200713,125.44864 C223.200713,122.419583 161.139618,139.058123 141.905785,151.809182 C122.671952,164.560242 66.9356466,202.343936 70.0832606,204.960536 C73.2308746,207.577136 121.593376,171.471927 150.24071,156.388305 C178.888045,141.304682 223.200713,128.477697 223.200713,125.44864 Z" id="Path-318" stroke="#372400" stroke-width="3.6300003" fill="#C68D5B"></path>
            <path d="M215.750897,167.568414 C210.423401,160.784264 206.535861,159.088226 204.088279,162.480302 C201.640697,165.872377 204.784144,171.3561 213.518619,178.931472 C224.427957,172.30253 229.059589,167.232693 227.413514,163.721963 C225.767439,160.211233 221.8799,161.493383 215.750897,167.568414 Z" id="Path-321" fill="#E85A5A"></path>
            <path d="M227.715903,152.69444 C224.137734,148.081218 221.526701,146.927913 219.882802,149.234524 C218.238904,151.541135 220.350174,155.270067 226.216612,160.42132 C233.54378,155.913639 236.654577,152.46615 235.549004,150.078854 C234.443432,147.691557 231.832398,148.563419 227.715903,152.69444 Z" id="Path-321-Copy" fill="#E85A5A"></path>
            <path d="M201.457409,175.2792 C190.727958,201.882367 198.205882,209.002223 223.891181,196.638767 C249.957297,185.87625 256.505801,172.351991 243.536692,156.06599 C236.762886,166.483126 230.117147,172.887529 223.599475,175.2792 C217.081803,177.67087 209.701114,177.67087 201.457409,175.2792 Z" id="Path-320" stroke="#372400" stroke-width="3.26700018" fill="#FFF798" stroke-linecap="round" stroke-linejoin="round"></path>
            <path d="M216.997966,127.756345 C200.573761,172.591762 194.693571,197.106812 199.357394,201.301493 C206.35313,207.593516 246.590805,188.210106 249.745228,174.326483 C251.848177,165.070735 240.932423,149.547356 216.997966,127.756345 Z" id="Path-319" stroke="#372400" stroke-width="3.26700018" stroke-linecap="round" stroke-linejoin="round"></path>
            <path d="M78.7148359,238.067791 C72.8381437,230.469543 68.5498494,228.569981 65.849953,232.369105 C63.1500566,236.168229 66.617552,242.31 76.2524392,250.794416 C88.2863899,243.370001 93.3954831,237.691784 91.5797189,233.759766 C89.7639546,229.827748 85.4756603,231.263757 78.7148359,238.067791 Z" id="Path-321" fill="#E85A5A"></path>
            <path d="M54.8992371,255.440299 C42.9884347,284.990102 51.2897059,292.898571 79.8030507,279.165707 C108.739143,267.211106 116.008661,252.188865 101.611606,234.098985 C94.0919786,245.66995 86.7145191,252.783721 79.479227,255.440299 C72.243935,258.096877 64.050605,258.096877 54.8992371,255.440299 Z" id="Path-320" stroke="#372400" stroke-width="3.6300003" fill="#FFF798" stroke-linecap="round" stroke-linejoin="round"></path>
            <path d="M72.4850282,202.885787 C54.1756351,252.592784 47.6205098,279.771509 52.8196523,284.421962 C60.6183661,291.397643 105.474566,269.908134 108.991058,254.51599 C111.335385,244.254561 99.1667085,227.044493 72.4850282,202.885787 Z" id="Path-319" stroke="#372400" stroke-width="3.6300003" stroke-linecap="round" stroke-linejoin="round"></path>
            <path d="M73.4348593,138.391447 C72.6969043,133.857381 50.5024781,140.073384 43.7057501,145.859502 C36.9090221,151.645619 33.4002356,165.014125 43.7057501,163.700113 C54.0112646,162.386102 74.1728143,142.925513 73.4348593,138.391447 Z" id="Path-322" fill="#EB6262"></path>
            <path d="M177.469283,102.826511 C174.473255,95.7124055 159.626566,101.601303 152.829838,107.38742 C146.03311,113.173538 142.524323,126.542044 152.829838,125.228032 C163.135352,123.91402 180.46531,109.940617 177.469283,102.826511 Z" id="Path-322-Copy" fill="#EB6262"></path>
        </g>
    </g>
</svg>