<?xml version="1.0" encoding="UTF-8"?>
<svg width="300px" height="300px" viewBox="0 0 300 300" version="1.1" xmlns="http://www.w3.org/2000/svg" xmlns:xlink="http://www.w3.org/1999/xlink">
    <!-- Generator: Sketch 49 (51002) - http://www.bohemiancoding.com/sketch -->
    <title>射手座</title>
    <desc>Created with Sketch.</desc>
    <defs>
        <polygon id="path-1" points="20.3019385 159.141869 103.683719 186.113913 103.683719 187.698653 18.744496 160.366716"></polygon>
        <polygon id="path-2" points="25.0026979 176.030635 108.384479 203.002678 108.384479 204.587418 23.4452555 177.255481"></polygon>
        <polygon id="path-3" points="197.614141 81.4857647 184.509315 87.147378 190.200932 74.1116343 184.509315 61.0758906 197.614141 66.737504 210.718968 61.0758906 205.027351 74.1116343 210.718968 87.147378"></polygon>
        <filter x="-251.9%" y="-249.4%" width="603.8%" height="606.5%" filterUnits="objectBoundingBox" id="filter-4">
            <feOffset dx="0" dy="1" in="SourceAlpha" result="shadowOffsetOuter1"></feOffset>
            <feGaussianBlur stdDeviation="0.5" in="shadowOffsetOuter1" result="shadowBlurOuter1"></feGaussianBlur>
            <feColorMatrix values="0 0 0 0 1   0 0 0 0 0.925490196   0 0 0 0 0.356862745  0 0 0 1 0" type="matrix" in="shadowBlurOuter1"></feColorMatrix>
        </filter>
    </defs>
    <g id="射手座" stroke="none" stroke-width="1" fill="none" fill-rule="evenodd">
        <g id="射手座-copy" transform="translate(40.000000, 5.000000)">
            <g id="Path-28-Copy" stroke-linecap="round" stroke-linejoin="round" transform="translate(61.214108, 173.420261) rotate(9.000000) translate(-61.214108, -173.420261) ">
                <use fill="#4F0F0F" fill-rule="evenodd" xlink:href="#path-1"></use>
                <path stroke="#372400" stroke-width="3.20100029" d="M102.083219,187.278342 L103.191126,187.636724 L103.683719,186.113913 L102.083219,186.113913 L102.083219,187.278342 Z M20.6208859,160.927194 L21.2913321,160.399924 L19.809345,160.66468 L20.6208859,160.927194 Z M19.982991,157.356544 L105.284219,184.949484 L105.284219,189.894986 L15.390064,160.968639 L19.982991,157.356544 Z"></path>
            </g>
            <g id="Path-28" stroke-linecap="round" stroke-linejoin="round">
                <use fill="#4F0F0F" fill-rule="evenodd" xlink:href="#path-2"></use>
                <path stroke="#372400" stroke-width="3.20100029" d="M106.783979,204.167107 L107.891885,204.525489 L108.384479,203.002678 L106.783979,203.002678 L106.783979,204.167107 Z M25.3216453,177.81596 L25.9920915,177.288689 L24.5101045,177.553445 L25.3216453,177.81596 Z M24.6837505,174.24531 L109.984979,201.838249 L109.984979,206.783751 L20.0908234,177.857405 L24.6837505,174.24531 Z"></path>
            </g>
            <path d="M21.0388359,153.333113 C28.4511785,163.892996 27.4213845,170.697322 17.9494541,173.746093 C3.74155838,178.319249 -3.0515897,150.760613 1.30700598,142.352944 C5.66560165,133.945275 35.2467316,132.36876 35.2467316,140.379892 C35.2467316,145.720646 30.5107663,150.038387 21.0388359,153.333113 Z" id="Path-26" stroke="#372400" stroke-width="3.20100029" fill="#EB6262" stroke-linecap="round" stroke-linejoin="round"></path>
            <path d="M25.8238571,175.266374 C30.8485385,182.424711 30.1504614,187.03723 23.7296259,189.103931 C14.0983727,192.203984 9.49343112,173.522526 12.4480375,167.823133 C15.4026438,162.12374 35.4551103,161.055051 35.4551103,166.48564 C35.4551103,170.106032 32.2446926,173.032944 25.8238571,175.266374 Z" id="Path-26-Copy" stroke="#372400" stroke-width="3.20100029" fill="#EB6262" stroke-linecap="round" stroke-linejoin="round"></path>
            <path d="M100.683209,198.358269 C93.7921924,214.418295 90.6820146,229.652923 91.3526756,244.062153 C92.0233365,258.471384 96.1633846,274.418714 103.77282,291.904145 L131.285698,284.570008 C134.664865,273.639714 140.253461,268.174567 148.051486,268.174567 C155.84951,268.174567 157.365022,274.354229 152.598019,286.713552 L177.873698,281.87567 C189.621299,262.757297 194.932531,245.564807 193.807394,230.2982 C192.682257,215.031592 185.095557,201.349018 171.047294,189.250477 C161.236958,195.27882 150.765876,199.013432 139.634048,200.454314 C128.502221,201.895197 115.518608,201.196515 100.683209,198.358269 Z" id="Path-18" stroke="#372400" stroke-width="3.20100029" fill="#FFE1D6" stroke-linecap="round" stroke-linejoin="round"></path>
            <path d="M80.906152,45.6560714 C72.2440967,39.1244126 68.6525315,32.5843692 70.1314564,26.035941 C72.3498437,16.2132988 86.4851599,5.32645527 102.358992,1.41016192 C118.232823,-2.50613144 125.582367,3.45118138 132.866989,10.5582192 C137.723404,15.2962445 135.170918,24.1588419 125.20953,37.1460114 C115.06495,37.7836566 107.448104,38.5912529 102.358992,39.5688002 C97.2698797,40.5463475 90.1189331,42.5754379 80.906152,45.6560714 Z" id="Path-4" stroke="#372400" stroke-width="3.20100029" fill="#7A472B"></path>
            <polygon id="Path-25" stroke="#372400" stroke-width="3.20100029" fill="#965419" stroke-linecap="round" stroke-linejoin="round" points="196.968475 205.756594 218.871748 229.550467 205.59237 248.169989 190.240946 245.169273"></polygon>
            <path d="M90.1434649,243.253349 L65.2134264,259.951105 C95.8107413,272.072336 111.53452,278.132951 112.384762,278.132951 C113.235005,278.132951 118.900602,276.304145 129.381554,272.646531 L133.730485,280.293449 L147.745383,276.337214 L155.319997,280.293449 L170.956804,278.132951 L173.311089,266.7222 L176.87022,276.337214 L212.701295,266.7222 L193.717918,245.498021 L143.217136,252.817256 L90.1434649,243.253349 Z" id="Path-24" stroke="#372400" stroke-width="3.20100029" fill="#FFFFFF" stroke-linecap="round" stroke-linejoin="round"></path>
            <path d="M145.195714,223.793574 L162.942508,193.396353 C170.672549,209.044406 174.935849,217.756905 175.732409,219.53385 C177.164007,222.727422 198.359488,222.468143 194.973361,242.91821 C194.038347,248.565107 177.445798,257.01647 145.195714,268.272299 C106.166215,255.092869 87.6552967,245.935168 89.6629602,240.799198 C92.6744555,233.095241 114.856077,233.608396 117.258701,223.793574 C118.86045,217.250359 120.372441,209.577393 121.794674,200.774676 L145.195714,223.793574 Z" id="Path-19" stroke="#372400" stroke-width="3.20100029" fill="#FFFFFF" stroke-linecap="round" stroke-linejoin="round"></path>
            <path d="M173.618623,212.75617 C174.545688,221.447186 180.51897,224.82237 176.359817,229.837104 C172.200665,234.851839 158.266978,234.862308 166.391055,243.82868 C174.515132,252.795052 191.666113,246.584777 196.07154,235.554225 C200.476968,224.523674 196.701106,199.240466 186.464444,193.176911 C176.227781,187.113355 173.618623,188.986386 171.31468,191.497084 C169.010737,194.007782 173.02717,207.211438 173.618623,212.75617 Z" id="Path-23" stroke="#372400" stroke-width="3.20100029" fill="#FFE1D6"></path>
            <path d="M115.514927,212.669562 C119.980194,218.657929 116.57786,219.68486 124.127866,228.145857 C131.677871,236.606853 143.799404,248.555036 135.687764,256.171837 C127.576125,263.788637 123.763215,253.69152 113.485525,247.131229 C103.207835,240.570937 97.3875862,239.898933 94.87028,230.117868 C92.3529737,220.336804 90.6556338,215.583799 97.3875862,209.561169 C104.119539,203.538538 111.049659,206.681194 115.514927,212.669562 Z" id="Path-22" stroke="#372400" stroke-width="3.20100029" fill="#FFE1D6"></path>
            <path d="M114.774491,201.423651 C108.637568,204.414217 103.321687,208.058258 98.8268471,212.355773 C92.084587,218.802045 87.2224678,231.738871 84.8263,230.632622 C82.4301322,229.526374 86.1735723,214.316409 89.141033,207.884083 C91.1193402,203.595866 94.3479449,200.409521 98.8268471,198.325046 C101.40952,199.416109 103.902369,200.166945 106.305392,200.577556 C108.708415,200.988166 111.531448,201.270198 114.774491,201.423651 Z" id="Path-20" stroke="#372400" stroke-width="3.20100029" fill="#FFFFFF" stroke-linecap="round" stroke-linejoin="round"></path>
            <path d="M172.097211,188.924583 C177.222753,187.644879 183.435276,189.572335 190.734781,194.706949 C198.034286,199.841563 201.411708,205.828313 200.867047,212.667201 C193.18292,209.703266 186.275199,206.574877 180.143884,203.282034 C174.012568,199.989191 168.712076,196.561119 164.242407,192.997818 L172.097211,188.924583 Z" id="Path-21" stroke="#372400" stroke-width="3.20100029" fill="#FFFFFF" stroke-linecap="round" stroke-linejoin="round"></path>
            <path d="M92.3213909,200.392244 C111.964983,208.789705 133.801451,204.210745 154.205148,196.711169 C173.167703,189.741299 187.677348,182.857858 194.577629,168.868164 C197.561046,162.819556 204.584019,147.862173 203.203758,130.551102 C201.823498,113.24003 173.491343,45.2352837 105.443094,75.7115341 C62.6615419,94.8717818 55.6391936,138.700725 65.5702103,168.868164 C71.4354484,186.684991 89.9057513,199.35958 92.3213909,200.392244 Z" id="Path" stroke="#372400" stroke-width="3.20100029" fill="#FFE1D6" stroke-linecap="round" stroke-linejoin="round"></path>
            <path d="M86.2441116,190.237714 C63.6132202,187.141902 47.7371183,180.30121 38.6158058,169.715639 C30.0318686,159.753709 23.6374705,145.709481 23.4250424,126.745746 C23.4161768,125.954296 24.0846876,124.609946 25.430575,122.712698 L29.0477184,113.747082 C35.5574968,73.4481179 58.5190465,49.095961 97.9323677,40.6906113 C135.587715,32.6601701 169.247338,39.3108782 194.839758,61.6611392 C195.636295,62.3567674 196.139374,63.603052 196.348996,65.3999932 L206.089416,74.9056175 L210.129106,76.5404301 C219.083297,92.5754232 221.894352,107.966179 218.562272,122.712698 C215.230192,137.459216 208.893372,150.508282 199.551814,161.859894 C205.1874,135.875767 204.119794,121.356793 196.348996,118.302973 C184.6928,113.722242 171.936834,126.745746 150.662652,122.712698 C136.479864,120.023999 117.915834,114.529036 94.9705609,106.227808 C92.5402638,118.498411 84.7550558,131.306117 71.614937,144.650925 C58.4748183,157.995733 63.3512098,173.191329 86.2441116,190.237714 Z" id="Path-2" stroke="#372400" stroke-width="3.20100029" fill="#7A472B" stroke-linecap="round" stroke-linejoin="round"></path>
            <path d="M75.9578839,42.7084784 L79.8521307,46.0631091 C92.6719856,41.1954174 101.852048,38.2337229 107.392317,37.1780256 C112.932586,36.1223282 119.295411,36.1223282 126.480793,37.1780256 L129.71527,32.6262925 C130.407259,27.8001308 123.794242,26.6922109 109.876221,29.3025327 C95.9582,31.9128544 84.6520876,36.381503 75.9578839,42.7084784 Z" id="Path-5" stroke="#372400" stroke-width="3.20100029" fill="#AC2430" stroke-linecap="round" stroke-linejoin="round"></path>
            <path d="M120.234692,147.986846 C118.751118,148.178457 116.711888,147.649982 113.624029,147.5206 C112.084477,147.456093 109.268791,147.893046 105.176973,148.831462 C110.072543,146.836708 113.664249,145.874579 115.952089,145.945076 C119.38385,146.050822 124.124344,147.484478 120.234692,147.986846 Z" id="Path-8" fill="#372400"></path>
            <path d="M149.249328,134.31129 C147.64591,136.129878 147.349251,138.819094 150.014515,137.102477 C151.153189,136.369091 151.602658,134.693945 153.344458,132.561201 C153.995252,131.764337 155.259348,130.50734 157.136746,128.790208 C152.947413,131.258537 150.318273,133.098897 149.249328,134.31129 Z" id="Path-9" fill="#372400"></path>
            <path d="M27.3949033,113.928506 C45.4546953,127.031554 72.0827738,128.573638 107.279139,118.554758 C142.475504,108.535877 172.455008,90.8800664 197.217652,65.5873256 C199.681659,66.6614371 201.398511,67.6244136 202.368207,68.4762551 C203.337904,69.3280965 204.776056,71.1366692 206.682663,73.9019733 C181.394479,104.53608 150.022278,124.821837 112.566062,134.759245 C75.1098451,144.696652 45.5062884,140.76875 23.7553918,122.975538 C23.3565605,121.019759 23.3565605,119.546165 23.7553918,118.554758 C24.1542232,117.56335 25.3673936,116.021266 27.3949033,113.928506 Z" id="Path-3" stroke="#372400" stroke-width="3.20100029" fill="#AC2430" stroke-linecap="round" stroke-linejoin="round"></path>
            <path d="M110.601799,153.373693 C102.640834,156.163913 95.1446822,171.991209 106.548329,176.996945 C117.951977,182.002681 125.419702,170.107371 125.419702,162.802818 C125.419702,155.498265 118.562763,150.583473 110.601799,153.373693 Z" id="Path-10" fill="#372400"></path>
            <path d="M115.963771,156.391784 C115.016453,156.863191 114.327098,159.079854 115.963771,160.385606 C117.600445,161.691358 119.976678,160.385606 119.976678,158.388695 C119.976678,156.391784 116.91109,155.920378 115.963771,156.391784 Z" id="Path-11" fill="#FFFFFF"></path>
            <path d="M113.173245,158.854819 C112.747176,159.06684 112.437129,160.063814 113.173245,160.651093 C113.90936,161.238372 114.978102,160.651093 114.978102,159.752956 C114.978102,158.854819 113.599314,158.642797 113.173245,158.854819 Z" id="Path-11-Copy" fill="#FFFFFF"></path>
            <path d="M110.328959,173.50341 C109.707129,174.147273 110.947487,175.1351 111.775702,175.295282 C112.603917,175.455465 113.963834,175.295282 113.963834,174.20642 C113.963834,173.117557 110.950788,172.859547 110.328959,173.50341 Z" id="Path-11-Copy-2" fill="#FFFFFF"></path>
            <path d="M104.369605,160.056893 C102.272394,161.388825 100.614686,162.151842 99.3964811,162.345942 C98.178276,162.540043 96.5205682,162.305282 94.4233577,161.64166" id="Path-12" stroke="#372400" stroke-width="1.92060017" stroke-linecap="round" stroke-linejoin="round"></path>
            <path d="M102.763765,162.932166 C100.666555,164.264099 99.0088468,165.027115 97.7906417,165.221216 C96.5724366,165.415316 94.9147288,165.180555 92.8175182,164.516933" id="Path-12-Copy" stroke="#372400" stroke-width="1.92060017" stroke-linecap="round" stroke-linejoin="round"></path>
            <path d="M163.474919,130.774535 C158.048553,134.556802 153.356739,143.890639 159.6206,153.08427 C165.884462,162.277902 181.90531,149.099665 180.83327,138.298685 C179.761231,127.497704 168.901284,126.992267 163.474919,130.774535 Z" id="Path-13" fill="#372400"></path>
            <path d="M169.598808,133.070121 C168.651489,133.541528 167.962134,135.758191 169.598808,137.063943 C171.235481,138.369695 173.611714,137.063943 173.611714,135.067032 C173.611714,133.070121 170.546127,132.598715 169.598808,133.070121 Z" id="Path-11-Copy-3" fill="#FFFFFF"></path>
            <path d="M166.808281,135.533156 C166.382212,135.745177 166.072166,136.74215 166.808281,137.32943 C167.544397,137.916709 168.613139,137.32943 168.613139,136.431293 C168.613139,135.533156 167.23435,135.321134 166.808281,135.533156 Z" id="Path-11-Copy-4" fill="#FFFFFF"></path>
            <path d="M163.963995,150.181747 C163.342166,150.82561 164.582524,151.813437 165.410739,151.973619 C166.238954,152.133802 167.59887,151.973619 167.59887,150.884757 C167.59887,149.795894 164.585825,149.537884 163.963995,150.181747 Z" id="Path-11-Copy-5" fill="#FFFFFF"></path>
            <path d="M175.357664,130.856149 C177.619805,130.662851 179.227179,130.327008 180.179787,129.84862 C181.132395,129.370232 181.98437,128.47102 182.735712,127.150985" id="Path-14" stroke="#372400" stroke-width="1.92060017" stroke-linecap="round" stroke-linejoin="round"></path>
            <path d="M176.355759,131.87884 C178.58577,132.799929 180.502781,133.081613 182.106795,132.723893 C183.710808,132.366173 184.979746,131.568173 185.91361,130.329891" id="Path-14-Copy" stroke="#372400" stroke-width="1.92060017" stroke-linecap="round" stroke-linejoin="round"></path>
            <path d="M68.0788744,172.034996 C60.5355494,171.888945 57.5120187,173.71386 59.0082823,177.50974 C61.2526777,183.20356 67.6429002,187.583601 71.5758197,187.583601 C74.1977661,187.583601 76.4791423,186.111531 78.4199484,183.16739 C75.2120684,180.854173 72.9306922,178.96829 71.5758197,177.50974 C70.2209473,176.05119 69.0552989,174.226275 68.0788744,172.034996 Z" id="Path-84" stroke="#372400" stroke-width="1.92060017" fill="#FFE1D6"></path>
            <path d="M73.8134411,186.765707 C78.5058419,181.70999 94.1770523,178.701616 97.2342918,181.690886 C100.291531,184.680156 90.7097784,191.558247 84.8352331,193.013907 C78.9606878,194.469568 69.1210403,191.821424 73.8134411,186.765707 Z" id="Path-16" fill="#EB6262"></path>
            <path d="M182.047018,151.94295 C186.739419,146.887233 202.410629,143.878859 205.467868,146.868129 C208.525108,149.857399 198.943355,156.73549 193.06881,158.19115 C187.194264,159.646811 177.354617,156.998667 182.047018,151.94295 Z" id="Path-16-Copy" fill="#EB6262"></path>
            <path d="M41.581279,80.0400211 C41.4854144,86.1221028 45.3279893,89.6282107 53.1090035,90.5583448 C64.7805248,91.953546 68.7866492,86.60509 85.5766682,85.299183 C102.366687,83.993276 101.125053,91.3345505 120.725937,85.299183 C140.326822,79.2638154 135.213205,74.9937057 147.786302,66.1440267 C156.168367,60.2442407 164.591224,54.3519064 173.054875,48.4670238 L180.022704,51.9821449 C174.660855,53.4807872 169.304356,56.3304387 163.953205,60.5310995 C155.926479,66.8320906 157.439573,70.1855404 152.142328,73.8682798 C146.845083,77.5510192 144.95539,72.071809 135.891611,80.0400211 C126.827832,88.0082333 132.427066,95.3533002 125.360585,97.4128308 C118.294105,99.4723614 110.854261,89.9738002 99.802064,90.5583448 C88.7498674,91.1428894 86.8165926,99.7562448 81.0528057,99.7562448 C75.2890187,99.7562448 84.7655196,90.5583448 74.4474127,90.5583448 C64.1293059,90.5583448 53.9109107,99.7562448 46.1139921,99.7562448 C40.9160463,99.7562448 37.86781,96.6902782 36.9692831,90.5583448 C37.933425,88.1598707 38.6583295,86.4068168 39.1439965,85.299183 C39.6296635,84.1915492 40.442091,82.4384952 41.581279,80.0400211 Z" id="Path-17" fill="#BB8C6E"></path>
            <path d="M180.633896,177.824827 C170.948147,178.696258 162.875839,180.753059 159.239519,188.849434 C155.603198,196.945808 160.295964,232.59476 141.309908,247.413681 C122.323852,262.232602 54.7700413,249.121425 45.9070643,250.399541 C37.0440872,251.677656 34.9067066,257.366167 38.6116511,260.71221 C42.3165956,264.058252 48.4861031,259.8915 51.7201796,256.161415 C59.8102614,250.399541 125.525755,271.390412 149.169097,250.399541 C172.812439,229.408669 160.906356,197.202303 163.212345,192.008867 C165.518333,186.81543 173.745826,185.650575 177.74003,186.053457 C183.390969,189.712931 187.688049,189.566416 190.021127,186.909346 C192.354205,184.252276 190.319644,176.953396 180.633896,177.824827 Z" id="Path-15" fill="#000000"></path>
            <g id="Star">
                <use fill="black" fill-opacity="1" filter="url(#filter-4)" xlink:href="#path-3"></use>
                <use fill="#FFEC5B" fill-rule="evenodd" xlink:href="#path-3"></use>
            </g>
            <polyline id="Path-27" stroke="#372400" stroke-width="1.92060017" points="49.0932023 252.766955 109.643525 220.505615 165.74549 183.928623"></polyline>
            <path d="M161.96721,165.036612 C159.355348,166.940989 156.860455,167.893177 154.482531,167.893177 C152.104606,167.893177 149.794704,166.940989 147.552824,165.036612 C146.581318,168.472518 145.394397,170.809764 143.992061,172.048349 C142.589726,173.286934 140.320795,174.002001 137.185268,174.193551" id="Path-6" stroke="#372400" stroke-width="1.92060017" stroke-linecap="round" stroke-linejoin="round"></path>
            <path d="M144.038885,172.804083 C146.678565,185.698233 149.647301,191.879296 152.945092,191.347272 C156.242883,190.815248 157.648539,182.867541 157.16206,167.504151 C155.129736,168.008368 153.72408,168.180601 152.945092,168.02085 C152.166103,167.861099 150.412085,167.040895 147.683037,165.56024 C147.293388,167.314338 146.871386,168.642972 146.417031,169.54614 C145.962675,170.449308 145.16996,171.535289 144.038885,172.804083 Z" id="Path-7" stroke="#372400" stroke-width="1.92060017" fill="#FFC1A8" stroke-linecap="round" stroke-linejoin="round"></path>
            <path d="M114.706785,248.25692 C123.675293,257.122604 130.773995,260.583096 136.00289,258.638394 C141.231786,256.693693 140.668196,250.085088 134.31212,238.812579 L114.706785,248.25692 Z" id="Path-37" fill="#FFE1D6"></path>
            <path d="M114.720818,247.872445 C123.689326,256.738129 130.773995,260.583096 136.00289,258.638394 C141.231786,256.693693 139.831321,250.280186 133.475245,239.007676" id="Path-37" stroke="#372400" stroke-width="3.20100029" stroke-linecap="round" stroke-linejoin="round"></path>
            <path d="M64.2596097,177.725019 C64.2596097,176.321583 65.4232912,175.818272 67.7506541,176.215087 C67.6452966,177.157393 67.6452966,177.845714 67.7506541,178.280052 C67.8560116,178.714389 68.2941395,179.832255 69.0650379,181.633648 C65.8614191,180.431333 64.2596097,179.128456 64.2596097,177.725019 Z" id="Path-85" fill="#E5AA94"></path>
        </g>
    </g>
</svg>