<?xml version="1.0" encoding="UTF-8"?>
<svg width="51px" height="63px" viewBox="0 0 51 63" version="1.1" xmlns="http://www.w3.org/2000/svg" xmlns:xlink="http://www.w3.org/1999/xlink">
    <!-- Generator: Sketch 51 (57462) - http://www.bohemiancoding.com/sketch -->
    <title>一签盒 copy</title>
    <desc>Created with Sketch.</desc>
    <defs>
        <path d="M11.0866013,10.3898438 L11.0866013,44.7070312 C37.1642838,34.8966146 50.203125,29.9914063 50.203125,29.9914063 C50.203125,29.9914063 50.203125,20.7942708 50.203125,2.4 L11.0866013,10.3898438 Z" id="path-1"></path>
        <path d="M12.910902,26.1145292 L23.6602199,22.7039474 L23.5570631,24.0730254 L12.8054842,27.5351515 L12.910902,26.1145292 Z M32.4946616,22.2349419 L33.6832776,22.2448058 C33.3415747,23.2402111 32.9465268,24.1792489 32.5109119,25.0458967 L34.7681621,24.3613455 L34.6741413,25.5882871 L24.5995994,28.768448 L24.6955967,27.4964461 L31.1870734,25.45222 C31.6504316,24.5225619 32.0899117,23.4531343 32.4946616,22.2349419 Z M27.2282428,23.9225076 C27.5070501,24.5091038 27.7425807,25.2091979 27.9358192,26.0097908 L26.8017046,26.6586575 C26.6243451,25.9521505 26.3859456,25.2891157 26.0746972,24.6729273 L27.2282428,23.9225076 Z M29.9778959,22.8348996 C30.1948793,23.4733904 30.3686311,24.2243486 30.5109693,25.0841966 L29.389078,25.7202405 C29.2508491,24.9569621 29.0624413,24.2459387 28.8130282,23.5775977 L29.9778959,22.8348996 Z M26.9278378,22.7056794 C26.3644737,23.1314431 25.7773979,23.5660974 25.144939,23.9909171 L24.6321235,22.983886 C26.7191263,21.6492862 28.4636782,20.2693904 29.8895697,18.8335135 L30.645341,18.6174658 C32.0246906,19.3136745 33.6344071,19.7132539 35.4988891,19.8011025 L34.8094433,21.1106344 C34.2127314,21.0606549 33.664246,20.9840353 33.1521809,20.8840864 L33.0840971,21.7748357 L26.8569014,23.6425644 L26.9278378,22.7056794 Z M32.6637552,20.7768945 C31.7342006,20.5476142 30.9040925,20.2251526 30.1852638,19.8055837 C29.3931215,20.6536649 28.4747408,21.4932366 27.4182605,22.32887 L32.6637552,20.7768945 Z M26.9989159,18.7164217 C26.6681396,19.4236518 26.294975,20.0811187 25.9010717,20.7080441 L24.8822607,20.2816658 C25.6908105,19.0582544 26.2796246,17.8405819 26.6596497,16.6354803 L27.8304742,16.5854089 C27.7399625,16.8648495 27.6386204,17.1348097 27.5500627,17.388602 L30.4190392,16.5818065 L30.3290358,17.7644034 L28.9475129,18.156596 C29.0617501,18.477777 29.1661519,18.7762373 29.2370955,19.0588443 L28.0924903,19.8334899 C27.9890857,19.3692871 27.8729051,18.9210567 27.7311565,18.5051388 L26.9989159,18.7164217 Z M31.9464956,17.3102052 C31.7263912,17.7722732 31.4855707,18.2032857 31.233888,18.6255396 L30.2504952,18.1892303 C30.8552224,17.2267726 31.3112093,16.2465664 31.6175463,15.2599 L32.764451,15.2234633 C32.6741711,15.4976198 32.5848583,15.7591803 32.4965129,16.0081328 L35.7417782,15.1297162 L35.6527672,16.2896902 L34.0830661,16.7184628 C34.2546055,17.043592 34.3917218,17.3654143 34.5071841,17.6681145 L33.349717,18.4512446 C33.2016558,17.9700903 33.0172323,17.5109439 32.8200609,17.0671315 L31.9464956,17.3102052 Z M39.5721165,16.2638239 C38.8196686,16.8803764 38.0119117,17.4664375 37.1616103,18.0062954 L36.562927,17.0770677 C38.7604722,15.6999537 40.4798505,14.2381614 41.7213369,12.685421 L42.8532252,12.4016696 C43.7178033,13.3267492 45.2779647,13.9262681 47.5454236,14.1990092 L46.7783983,15.4351914 C45.9312151,15.3319271 45.1920984,15.1764583 44.5384227,14.9623603 L44.510885,15.3161482 L39.5442868,16.6242686 L39.5721165,16.2638239 Z M43.4957949,14.5472702 C42.9837642,14.2940807 42.5444417,13.9972511 42.2004583,13.6630814 C41.7297316,14.2183172 41.225448,14.7599454 40.6767627,15.2788164 L43.4957949,14.5472702 Z M38.7831441,17.3540032 L45.248526,15.6388203 L45.0266255,18.4866697 L38.5581767,20.271769 L38.7831441,17.3540032 Z M43.9146046,17.7819692 L43.9773514,16.9750951 L39.8944991,18.0738857 L39.8312061,18.8932108 L43.9146046,17.7819692 Z M45.9072475,18.7492412 L45.7084045,21.2982009 L46.7944381,20.9964699 L46.70656,22.1211707 L36.1347889,25.2058771 L36.2246578,24.0357937 L37.3470722,23.7021854 L37.5494713,21.0721604 L45.9072475,18.7492412 Z M38.5402504,23.350372 L39.6978637,23.0118307 L39.8100812,21.5590168 L38.6527421,21.8913065 L38.5402504,23.350372 Z M40.8907867,22.6658346 L42.1071984,22.3160278 L42.2188451,20.8762276 L41.0027215,21.2194637 L40.8907867,22.6658346 Z M43.2998598,21.9759952 L44.5160048,21.63227 L44.6270805,20.2054835 L43.4112238,20.542638 L43.2998598,21.9759952 Z" id="path-3"></path>
        <filter x="-2.9%" y="-6.1%" width="105.8%" height="112.2%" filterUnits="objectBoundingBox" id="filter-4">
            <feGaussianBlur stdDeviation="0.5" in="SourceAlpha" result="shadowBlurInner1"></feGaussianBlur>
            <feOffset dx="-1" dy="1" in="shadowBlurInner1" result="shadowOffsetInner1"></feOffset>
            <feComposite in="shadowOffsetInner1" in2="SourceAlpha" operator="arithmetic" k2="-1" k3="1" result="shadowInnerInner1"></feComposite>
            <feColorMatrix values="0 0 0 0 0   0 0 0 0 0   0 0 0 0 0  0 0 0 0.1 0" type="matrix" in="shadowInnerInner1"></feColorMatrix>
        </filter>
        <linearGradient x1="50%" y1="0%" x2="54.4462585%" y2="131.722182%" id="linearGradient-5">
            <stop stop-color="#FFDC90" offset="0%"></stop>
            <stop stop-color="#F0C56A" offset="100%"></stop>
        </linearGradient>
        <linearGradient x1="39.8828125%" y1="22.4609375%" x2="83.3203125%" y2="69.6838379%" id="linearGradient-6">
            <stop stop-color="#97F649" offset="0%"></stop>
            <stop stop-color="#5CB611" offset="100%"></stop>
        </linearGradient>
        <filter x="-11.1%" y="-69.9%" width="144.3%" height="244.6%" filterUnits="objectBoundingBox" id="filter-7">
            <feOffset dx="1" dy="0" in="SourceAlpha" result="shadowOffsetOuter1"></feOffset>
            <feGaussianBlur stdDeviation="0.5" in="shadowOffsetOuter1" result="shadowBlurOuter1"></feGaussianBlur>
            <feColorMatrix values="0 0 0 0 0   0 0 0 0 0   0 0 0 0 0  0 0 0 0.05 0" type="matrix" in="shadowBlurOuter1" result="shadowMatrixOuter1"></feColorMatrix>
            <feMerge>
                <feMergeNode in="shadowMatrixOuter1"></feMergeNode>
                <feMergeNode in="SourceGraphic"></feMergeNode>
            </feMerge>
        </filter>
        <filter x="-16.1%" y="-83.9%" width="164.4%" height="267.7%" filterUnits="objectBoundingBox" id="filter-8">
            <feOffset dx="1" dy="0" in="SourceAlpha" result="shadowOffsetOuter1"></feOffset>
            <feGaussianBlur stdDeviation="0.5" in="shadowOffsetOuter1" result="shadowBlurOuter1"></feGaussianBlur>
            <feColorMatrix values="0 0 0 0 0   0 0 0 0 0   0 0 0 0 0  0 0 0 0.05 0" type="matrix" in="shadowBlurOuter1" result="shadowMatrixOuter1"></feColorMatrix>
            <feMerge>
                <feMergeNode in="shadowMatrixOuter1"></feMergeNode>
                <feMergeNode in="SourceGraphic"></feMergeNode>
            </feMerge>
        </filter>
    </defs>
    <g id="小哥星座红包版块" stroke="none" stroke-width="1" fill="none" fill-rule="evenodd">
        <g id="一签盒-copy">
            <path d="M29.5062381,61.4210327 C38.221911,63.7950457 48.8138627,59.0410577 43.7321039,55.6083035 C38.6503452,52.1755493 41.0792349,49.8854516 32.0571457,49.8854516 C23.0350566,49.8854516 19.0989232,51.9473109 14.2376672,56.5738724 C9.37641128,61.2004339 20.7905652,59.0470196 29.5062381,61.4210327 Z" id="Oval-17" fill="#93CA66" fill-rule="nonzero" transform="translate(29.065264, 55.972891) rotate(7.000000) translate(-29.065264, -55.972891) "></path>
            <path d="M29.484375,35.8127028 L29.484375,56.9896296 L32.547104,55.5558834 C33.1094796,55.2926202 33.46875,54.7277483 33.46875,54.1068024 L33.46875,31.2 L29.484375,35.8127028 Z" id="Path-33" fill="#FFDC90"></path>
            <polygon id="Path-34" fill="#F0C56A" points="25.5 36.9270451 25.5 54.4707126 29.484375 56.7881481 29.484375 34.6251852"></polygon>
            <polygon id="Path-3" fill="#000000" fill-rule="nonzero" opacity="0.05" points="25.5 38.4636719 33.5810051 35.5258789 33.5810051 39.4480469 29.5405025 41.7273437 25.5 40.7483887"></polygon>
            <polygon id="Path-35" fill="#FFF1D2" points="11.0789435 44.7111111 0.782867432 39.9083984 0.782867432 7.68242187 41.4032593 0.11796875 50.2214127 2.30976563 50.2214127 26.3128906"></polygon>
            <polygon id="Path-35-Copy" fill="#F0C56A" points="11.0789435 44.7111111 0.781894684 40.028125 0.781894684 7.72421875 11.0789435 10.3396484"></polygon>
            <mask id="mask-2" fill="white">
                <use xlink:href="#path-1"></use>
            </mask>
            <use id="Path-32" fill="#FFDC90" xlink:href="#path-1"></use>
            <g id="年轮" mask="url(#mask-2)" fill-rule="nonzero">
                <g transform="translate(13.277638, 44.037801) rotate(-12.000000) translate(-13.277638, -44.037801) translate(10.887013, 41.237801)">
                    <ellipse id="Oval-4" stroke="none" fill="#F0C56A" cx="2.390625" cy="2.4" rx="1" ry="1"></ellipse>
                    <ellipse id="Oval-4-Copy" stroke="#F0C56A" stroke-width="0.5" fill="none" cx="2.390625" cy="2.8" rx="1.59375" ry="2"></ellipse>
                    <ellipse id="Oval-4-Copy-2" stroke="#F0C56A" stroke-width="0.5" fill="none" cx="2.390625" cy="2.8" rx="2.390625" ry="2.8"></ellipse>
                </g>
            </g>
            <g id="年轮-copy-2" mask="url(#mask-2)" fill-rule="nonzero">
                <g transform="translate(38.777638, 3.237801) rotate(-12.000000) translate(-38.777638, -3.237801) translate(36.387013, 0.437801)">
                    <ellipse id="Oval-4" stroke="none" fill="#F0C56A" cx="2.390625" cy="2.4" rx="1" ry="1"></ellipse>
                    <ellipse id="Oval-4-Copy" stroke="#F0C56A" stroke-width="0.5" fill="none" cx="2.390625" cy="2.8" rx="1.59375" ry="2"></ellipse>
                    <ellipse id="Oval-4-Copy-2" stroke="#F0C56A" stroke-width="0.5" fill="none" cx="2.390625" cy="2.8" rx="2.390625" ry="2.8"></ellipse>
                </g>
            </g>
            <g id="年轮-copy" mask="url(#mask-2)" fill-rule="nonzero">
                <g transform="translate(50.730763, 27.237801) rotate(-12.000000) translate(-50.730763, -27.237801) translate(48.340138, 24.437801)">
                    <ellipse id="Oval-4" stroke="none" fill="#F0C56A" cx="2.390625" cy="2.4" rx="1" ry="1"></ellipse>
                    <ellipse id="Oval-4-Copy" stroke="#F0C56A" stroke-width="0.5" fill="none" cx="2.390625" cy="2.8" rx="1.59375" ry="2"></ellipse>
                    <ellipse id="Oval-4-Copy-2" stroke="#F0C56A" stroke-width="0.5" fill="none" cx="2.390625" cy="2.8" rx="2.390625" ry="2.8"></ellipse>
                </g>
            </g>
            <g id="一签盒" mask="url(#mask-2)">
                <use fill="#775100" fill-rule="evenodd" xlink:href="#path-3"></use>
                <use fill="black" fill-opacity="1" filter="url(#filter-4)" xlink:href="#path-3"></use>
            </g>
            <polygon id="Path-39" fill="url(#linearGradient-5)" fill-rule="nonzero" points="4.07892609 7.58554688 10.8332977 9.22148437 47.0611496 2.14648438 41.4966431 0.646875"></polygon>
            <g id="Group-3-Copy" transform="translate(25.500000, 54.598535)" fill-rule="nonzero">
                <path d="M0,0.135084296 C0.27792264,-0.189292262 2.58564583,-0.12990872 5.56906128,2.64124447 C6.00411282,3.30836903 4.44515422,4.05294901 3.78048417,3.74445364 C1.8014866,2.85387537 1.92422601,1.38330132 0,0.135084296 Z" id="Path-49-Copy" fill="url(#linearGradient-6)"></path>
                <g id="石头-copy-3" filter="url(#filter-7)" transform="translate(1.693359, 1.908143)">
                    <polygon id="Path-45-Copy-3" fill="#CCDDD9" points="0.766941726 0.988568094 0 2.68974329 8.67970705 2.68974329 6.80027521 0.664915172 2.2503595 0"></polygon>
                    <path d="M0.766941726,0.988568094 L0,2.68974329 L0.4273477,2.68974329 C0.679075997,1.87062256 0.911686679,1.30356416 1.12517975,0.988568094 C1.33867282,0.673572026 1.71373273,0.344049328 2.2503595,0 L0.766941726,0.988568094 Z" id="Path-45-Copy-4" fill="#F0F0F0"></path>
                    <path d="M8.82827334,2.68974329 L6.94884149,0.664915172 L2.39892578,0 C3.88826589,0.588895795 4.86113753,1.03718634 5.31754073,1.34487165 C5.77394392,1.65255695 6.13101059,2.1008475 6.38874074,2.68974329 L8.82827334,2.68974329 Z" id="Path-45-Copy-5" fill="#B7D3C1"></path>
                </g>
                <g id="石头-copy-4" filter="url(#filter-8)" transform="translate(7.337891, 3.816286)">
                    <polygon id="Path-45-Copy-3" fill="#CCDDD9" points="0.496256411 0.706120067 0 1.92124521 5.61628103 1.92124521 4.40017807 0.474939409 1.45611497 0"></polygon>
                    <path d="M0.496256411,0.706120067 L0,1.92124521 L0.2765191,1.92124521 C0.439402115,1.33615897 0.58991491,0.931117259 0.728057484,0.706120067 C0.866200058,0.481122876 1.10888589,0.24574952 1.45611497,0 L0.496256411,0.706120067 Z" id="Path-45-Copy-4" fill="#F0F0F0"></path>
                    <path d="M5.71241216,1.92124521 L4.4963092,0.474939409 L1.55224609,0 C2.51593675,0.420639853 3.14544193,0.740847388 3.44076165,0.960622604 C3.73608136,1.18039782 3.9671245,1.50060535 4.13389107,1.92124521 L5.71241216,1.92124521 Z" id="Path-45-Copy-5" fill="#B7D3C1"></path>
                </g>
            </g>
        </g>
    </g>
</svg>