<?xml version="1.0" standalone="no"?><!DOCTYPE svg PUBLIC "-//W3C//DTD SVG 1.1//EN" "http://www.w3.org/Graphics/SVG/1.1/DTD/svg11.dtd"><svg t="1530860718970" class="icon" style="" viewBox="0 0 1024 1024" version="1.1" xmlns="http://www.w3.org/2000/svg" p-id="3076" xmlns:xlink="http://www.w3.org/1999/xlink" width="32" height="32"><defs><style type="text/css"></style></defs><path d="M596.722 511.999L924.94 183.781c23.299-23.299 23.299-61.422 0-84.721s-61.422-23.299-84.721 0L512.001 427.278 183.781 99.06c-23.299-23.299-61.422-23.299-84.721 0s-23.299 61.422 0 84.721l328.22 328.218-328.22 328.22c-23.299 23.299-23.299 61.422 0 84.721s61.422 23.299 84.721 0L512 596.721 840.219 924.94c23.299 23.299 61.422 23.299 84.721 0s23.299-61.422 0-84.721l-328.218-328.22z" fill="#000000" p-id="3077"></path></svg>