<?xml version="1.0" encoding="UTF-8"?>
<svg width="13px" height="12px" viewBox="0 0 13 12" version="1.1" xmlns="http://www.w3.org/2000/svg" xmlns:xlink="http://www.w3.org/1999/xlink">
    <!-- Generator: Sketch 52.3 (67297) - http://www.bohemiancoding.com/sketch -->
    <title>星星@2x</title>
    <desc>Created with Sketch.</desc>
    <defs>
        <linearGradient x1="50%" y1="0%" x2="50%" y2="100%" id="linearGradient-1">
            <stop stop-color="#FFE876" offset="0%"></stop>
            <stop stop-color="#FFC718" offset="100%"></stop>
        </linearGradient>
    </defs>
    <g id="小哥星座v2.6" stroke="none" stroke-width="1" fill="none" fill-rule="evenodd">
        <g id="精选好物" transform="translate(-204.000000, -505.000000)" fill="url(#linearGradient-1)" fill-rule="nonzero">
            <g id="Group-Copy" transform="translate(195.000000, 318.000000)">
                <path d="M15.2673294,196.872322 L12.5761319,198.287168 C12.3317096,198.415669 12.0293961,198.321696 11.9008957,198.077273 C11.8497261,197.979943 11.8320688,197.868459 11.8506572,197.76008 L12.3646302,194.763388 C12.3924492,194.601191 12.3386749,194.435691 12.2208319,194.320822 L10.0436074,192.198553 C9.84586558,192.005802 9.84181943,191.689245 10.03457,191.491504 C10.1113243,191.412762 10.2118955,191.361518 10.3207141,191.345706 L13.3295643,190.908494 C13.4924194,190.88483 13.6332022,190.782545 13.7060332,190.634974 L15.051632,187.908493 C15.1738431,187.660866 15.473656,187.559197 15.7212829,187.681408 C15.8198892,187.730073 15.8997029,187.809887 15.948368,187.908493 L17.2939668,190.634974 C17.3667978,190.782545 17.5075806,190.88483 17.6704357,190.908494 L20.6792859,191.345706 C20.9525584,191.385415 21.1418991,191.639136 21.1021903,191.912409 C21.086378,192.021227 21.0351344,192.121798 20.9563926,192.198553 L18.7791681,194.320822 C18.6613251,194.435691 18.6075508,194.601191 18.6353698,194.763388 L19.1493428,197.76008 C19.1960233,198.032248 19.0132294,198.290726 18.7410612,198.337407 C18.6326823,198.355995 18.5211983,198.338338 18.4238681,198.287168 L15.7326706,196.872322 C15.5870086,196.795743 15.4129914,196.795743 15.2673294,196.872322 Z" id="星星"></path>
            </g>
        </g>
    </g>
</svg>