<?xml version="1.0" encoding="UTF-8"?>
<svg width="50px" height="50px" viewBox="0 0 50 50" version="1.1" xmlns="http://www.w3.org/2000/svg" xmlns:xlink="http://www.w3.org/1999/xlink">
    <!-- Generator: Sketch 49 (51002) - http://www.bohemiancoding.com/sketch -->
    <title>切换icon</title>
    <desc>Created with Sketch.</desc>
    <defs></defs>
    <g id="小哥星座-个别页面" stroke="none" stroke-width="1" fill="none" fill-rule="evenodd">
        <g id="2.0-首页" transform="translate(-40.000000, -441.000000)" fill="#6041CD" fill-rule="nonzero">
            <g id="切换icon" transform="translate(40.000000, 441.000000)">
                <g id="Shape">
                    <path d="M35,20 L18.8,20 L22.7666667,16.0333333 C23.2808589,15.6631346 23.5281643,15.0243876 23.3973255,14.4044505 C23.2664868,13.7845134 22.7821533,13.3001799 22.1622162,13.1693411 C21.5422792,13.0385024 20.9035321,13.2858077 20.5333333,13.8 L13.8666667,20.4666667 C13.6458316,20.6098289 13.4628612,20.8042349 13.3333333,21.0333333 C13.3132606,21.1770804 13.3132606,21.3229196 13.3333333,21.4666667 C13.3290737,21.5332653 13.3290737,21.600068 13.3333333,21.6666667 C13.3333333,22.1086941 13.5089281,22.5326173 13.8214887,22.845178 C14.1340493,23.1577386 14.5579725,23.3333333 15,23.3333333 L35,23.3333333 C35.9204746,23.3333333 36.6666666,22.5871412 36.6666666,21.6666667 C36.6666666,20.7461921 35.9204746,20 35,20 Z M25,0 C11.1928813,-8.45442189e-16 1.69088438e-15,11.1928813 0,25 C-1.69088438e-15,38.8071187 11.1928813,50 25,50 C38.8071187,50 50,38.8071187 50,25 C50,18.3695878 47.366079,12.0107399 42.6776695,7.32233047 C37.9892601,2.63392101 31.6304122,4.05995657e-16 25,0 Z M25,46.6666667 C13.0338304,46.6666667 3.33333335,36.9661696 3.33333335,25 C3.33333335,13.0338304 13.0338304,3.33333335 25,3.33333335 C36.9661696,3.33333335 46.6666667,13.0338304 46.6666667,25 C46.6666667,30.7463573 44.3839351,36.2573587 40.3206469,40.3206469 C36.2573587,44.3839351 30.7463573,46.6666667 25,46.6666667 Z M35,26.6666667 L15,26.6666667 C14.0795254,26.6666667 13.3333334,27.4128588 13.3333334,28.3333333 C13.3333334,29.2538079 14.0795254,30 15,30 L31.2333333,30 L27.2333333,34.0333333 C26.9320728,34.3335497 26.7627383,34.7413576 26.7627383,35.1666667 C26.7627383,35.5919757 26.9320728,35.9997837 27.2333333,36.3 C27.527831,36.599269 27.93013,36.7678036 28.35,36.7678036 C28.76987,36.7678036 29.172169,36.599269 29.4666667,36.3 L36.1333333,29.6333333 C36.4926329,29.3128587 36.68852,28.8476267 36.6666667,28.3666667 C36.6756239,27.9188923 36.5039915,27.4863551 36.1904548,27.1665476 C35.876918,26.8467401 35.4478639,26.6665771 35,26.6666667 Z"></path>
                </g>
            </g>
        </g>
    </g>
</svg>