<?xml version="1.0" encoding="UTF-8"?>
<svg width="68px" height="68px" viewBox="0 0 68 68" version="1.1" xmlns="http://www.w3.org/2000/svg" xmlns:xlink="http://www.w3.org/1999/xlink">
    <!-- Generator: Sketch 52.3 (67297) - http://www.bohemiancoding.com/sketch -->
    <title>icon/任务中心</title>
    <desc>Created with Sketch.</desc>
    <defs>
        <linearGradient x1="50%" y1="0%" x2="50%" y2="100%" id="linearGradient-1">
            <stop stop-color="#C49BFD" offset="0%"></stop>
            <stop stop-color="#9262FB" offset="100%"></stop>
        </linearGradient>
    </defs>
    <g id="icon/任务中心" stroke="none" stroke-width="1" fill="none" fill-rule="evenodd">
        <rect id="Rectangle" stroke="url(#linearGradient-1)" x="2.5" y="2.5" width="63" height="63" rx="20"></rect>
        <g id="Group" transform="translate(16.000000, 16.000000)">
            <path d="M6,2 L32,2 C34.209139,2 36,3.790861 36,6 L36,32 C36,34.209139 34.209139,36 32,36 L6,36 C3.790861,36 2,34.209139 2,32 L2,6 C2,3.790861 3.790861,2 6,2 Z" id="Rectangle-6-Copy" fill="url(#linearGradient-1)"></path>
            <path d="M4,0.55125 C2.09530797,0.55125 0.55125,2.09530797 0.55125,4 L0.55125,32 C0.55125,33.904692 2.09530797,35.44875 4,35.44875 L32,35.44875 C33.904692,35.44875 35.44875,33.904692 35.44875,32 L35.44875,4 C35.44875,2.09530797 33.904692,0.55125 32,0.55125 L4,0.55125 Z" id="Rectangle-6" stroke="#9262FB" stroke-width="1.1025"></path>
        </g>
        <path d="M27,28 L27,23 C27,22.4477153 27.4477153,22 28,22 C28.5522847,22 29,22.4477153 29,23 L29,29 C29,29.5522847 28.5522847,30 28,30 L24,30 C23.4477153,30 23,29.5522847 23,29 C23,28.4477153 23.4477153,28 24,28 L27,28 Z" id="Combined-Shape" fill="#FFFFFF" fill-rule="nonzero" transform="translate(26.000000, 26.000000) rotate(-315.000000) translate(-26.000000, -26.000000) "></path>
        <circle id="Oval" stroke="#FFFFFF" stroke-width="2" fill-rule="nonzero" cx="26" cy="40" r="2"></circle>
        <rect id="Rectangle" fill="#FFFFFF" fill-rule="nonzero" x="34" y="27" width="12" height="2" rx="1"></rect>
        <rect id="Rectangle-Copy" fill="#FFFFFF" fill-rule="nonzero" x="34" y="39" width="12" height="2" rx="1"></rect>
    </g>
</svg>