<?xml version="1.0" standalone="no"?><!DOCTYPE svg PUBLIC "-//W3C//DTD SVG 1.1//EN" "http://www.w3.org/Graphics/SVG/1.1/DTD/svg11.dtd"><svg t="1513734598872" class="icon" style="" viewBox="0 0 1024 1024" version="1.1" xmlns="http://www.w3.org/2000/svg" p-id="1579" xmlns:xlink="http://www.w3.org/1999/xlink" width="200" height="200"><defs><style type="text/css"></style></defs><path d="M835.52286 607.054913H774.203282l-0.868787-119.909997H539.60215v-71.999824h61.289901c38.189787-0.030699 69.143777-31.018457 69.143777-69.26862V188.366112v-0.031723c0-38.251186-30.953989-69.236897-69.142754-69.298295H414.25942c-38.220487 0.061398-69.143777 31.04711-69.143776 69.298295v157.540036c0 38.252209 30.924313 69.237921 69.143776 69.26862h65.666582v72.063269l-244.351194 0.870834v120.745015h-47.659463c-38.219463 0.124843-69.1448 31.112602-69.144799 69.363787V835.727009c0 38.185694 30.92636 69.176522 69.144799 69.236897h186.631608c38.190811-0.062422 69.145823-31.051203 69.145823-69.236897V678.18595v-0.064468c0-38.186717-30.955013-69.176522-69.145823-69.236898h-78.365812v-58.184167h416.639119v56.414871h-63.929008c-38.187741 0.031722-69.1448 31.019481-69.1448 69.269643v157.539013c0 38.252209 30.957059 69.236897 69.1448 69.298295h186.629561c38.22458-0.061398 69.145823-31.046087 69.145823-69.298295V676.41563v-0.094144c0.002047-38.219463-30.921243-69.206198-69.143776-69.266573z m-460.975907 55.420217c8.633634 0 15.650445 7.049556 15.650445 15.711843v157.476591c0 8.664334-7.016811 15.709797-15.650445 15.709797H187.915345c-8.66331 0-15.678074-7.045463-15.678074-15.709797V678.18595c0-8.66331 7.014764-15.711843 15.678074-15.711843l186.631608 0.001023z m39.712467-300.919561c-8.66331-0.032746-15.678074-7.05058-15.678074-15.711843V188.366112c0-8.662287 7.014764-15.679098 15.678074-15.711844h186.631608c8.633634 0.031722 15.650445 7.049556 15.650445 15.711844v157.478637c0 8.662287-7.016811 15.678074-15.650445 15.711844H414.289096l-0.029676-0.001024z m436.94356 472.338699c0 8.661264-7.013741 15.678074-15.68012 15.71082H648.893298c-8.633634-0.030699-15.648398-7.049556-15.648398-15.71082V676.41563c0-8.66331 7.014764-15.677051 15.648398-15.709797h186.629562c8.66638 0.030699 15.680121 7.046486 15.68012 15.709797v157.478638z" p-id="1580"></path><path d="M575.371818 248.266363c-0.496304-1.01205-2.062985-3.378957-5.92392-3.676739-0.125867-0.013303-0.243547-0.013303-0.36225-0.013303l-39.795355-0.255826 10.238179-50.890041c0.029676-0.141216 0.049119-0.284479 0.071631-0.428765 0.35918-3.180436-0.283456-5.711072-1.915629-7.507998-1.354857-1.505283-3.296069-2.332115-5.457292-2.332115-2.468215 0-4.615111 1.094938-5.216815 1.428536a5.031597 5.031597 0 0 0-1.402953 1.155313L449.047738 276.332583c-0.110517 0.14224-0.231267 0.285502-0.325412 0.442068-1.177825 1.74883-1.951445 4.526083-0.566911 7.079232 0.708128 1.307785 2.529613 3.499707 6.800893 3.499707 0.202615 0 0.410346 0 0.636496-0.013303l35.230386-0.023536-19.669992 56.954153c-0.112564 0.325411-0.192382 0.665149-0.23843 1.010004-0.096191 0.803295-0.274246 3.605108 1.760086 5.88401 1.341554 1.493004 3.2623 2.320858 5.429663 2.320859 1.320065 0 2.724041-0.302899 4.27742-0.90972a5.1503 5.1503 0 0 0 1.832741-1.24434l89.816609-95.045703c0.191358-0.200568 0.36532-0.415462 0.522909-0.647753 0.594541-0.898463 2.439562-4.068665 0.817622-7.371898zM327.704089 730.779795c-0.496304-1.01205-2.062985-3.378957-5.92392-3.676739-0.125867-0.013303-0.243547-0.013303-0.36225-0.013303l-39.794332-0.255826 10.238179-50.890041c0.029676-0.141216 0.049119-0.284479 0.071631-0.428765 0.35918-3.180436-0.283456-5.711072-1.915629-7.507998-1.354857-1.505283-3.296069-2.332115-5.457292-2.332115-2.468215 0-4.615111 1.094938-5.216815 1.428536a5.031597 5.031597 0 0 0-1.402953 1.155312l-76.559676 90.586135c-0.11154 0.143263-0.231267 0.285502-0.326435 0.443092-1.177825 1.74883-1.951445 4.526083-0.565888 7.079232 0.708128 1.307785 2.52859 3.499707 6.800893 3.499707 0.202615 0 0.411369 0 0.636496-0.013303l35.230386-0.023536-19.669992 56.954153a5.239328 5.239328 0 0 0-0.23843 1.010003c-0.096191 0.802272-0.274246 3.604084 1.760086 5.884011 1.340531 1.493004 3.2623 2.320858 5.42864 2.320859 1.320065 0 2.724041-0.302899 4.27742-0.90972a5.166673 5.166673 0 0 0 1.832741-1.245363l89.816609-95.045703c0.190335-0.199545 0.36532-0.414439 0.521886-0.647753 0.595564-0.89744 2.440585-4.068665 0.818645-7.370875zM800.446993 730.779795c-0.496304-1.01205-2.064009-3.378957-5.92392-3.676739-0.125867-0.013303-0.243547-0.013303-0.36225-0.013303l-39.794331-0.255826 10.238178-50.890041c0.029676-0.141216 0.049119-0.284479 0.071631-0.428765 0.35918-3.180436-0.283456-5.711072-1.915629-7.507998-1.354857-1.505283-3.296069-2.332115-5.457292-2.332115-2.468215 0-4.615111 1.094938-5.217838 1.428536a5.04183 5.04183 0 0 0-1.401929 1.155312l-76.559677 90.586135c-0.11154 0.143263-0.231267 0.285502-0.326435 0.443092-1.176802 1.74883-1.950422 4.526083-0.565888 7.079232 0.708128 1.307785 2.52859 3.499707 6.800893 3.499707 0.201591 0 0.410346 0 0.636496-0.013303l35.230386-0.023536-19.669992 56.954153c-0.112564 0.324388-0.192382 0.664126-0.23843 1.010003-0.096191 0.802272-0.275269 3.604084 1.760087 5.884011 1.341554 1.493004 3.2623 2.320858 5.428639 2.320859 1.320065 0 2.724041-0.302899 4.278443-0.90972a5.166673 5.166673 0 0 0 1.832742-1.245363l89.816608-95.045703c0.191358-0.199545 0.36532-0.414439 0.52291-0.647753 0.594541-0.89744 2.438539-4.068665 0.816598-7.370875z" p-id="1581"></path></svg>