<?xml version="1.0" standalone="no"?><!DOCTYPE svg PUBLIC "-//W3C//DTD SVG 1.1//EN" "http://www.w3.org/Graphics/SVG/1.1/DTD/svg11.dtd"><svg t="1513736769330" class="icon" style="" viewBox="0 0 1024 1024" version="1.1" xmlns="http://www.w3.org/2000/svg" p-id="2934" xmlns:xlink="http://www.w3.org/1999/xlink" width="200" height="200"><defs><style type="text/css"></style></defs><path d="M455.5776 220.5696l41.04192 0 0 41.04192c0 8.54016 6.92224 15.4624 15.4624 15.4624 8.54016 0 15.4624-6.92224 15.4624-15.4624L527.54432 220.5696l41.04192 0c8.54016 0 15.4624-6.92224 15.4624-15.4624 0-8.54016-6.92224-15.4624-15.4624-15.4624L527.5648 189.6448 527.5648 148.5824c0-8.54016-6.92224-15.4624-15.4624-15.4624-8.54016 0-15.4624 6.92224-15.4624 15.4624l0 41.04192-41.04192 0c-8.54016 0-15.4624 6.92224-15.4624 15.4624C440.1152 213.62688 447.03744 220.5696 455.5776 220.5696z" p-id="2935"></path><path d="M815.37024 798.12608c-11.75552-1.26976-22.3232 7.20896-23.59296 18.96448-17.55136 58.0608-74.07616 100.67968-140.9024 100.67968l-3.4816 0L376.60672 917.77024l-3.4816 0c-80.7936 0-146.5344-62.32064-146.5344-138.89536l0-53.37088c0-41.02144 18.96448-77.824 48.88576-103.26016 2.72384-0.67584 5.3248-1.86368 7.61856-3.66592 25.72288-20.29568 58.32704-31.49824 91.42272-31.80544l0.8192 0.47104c39.936 32.72704 86.56896 50.03264 134.88128 50.03264 0.59392 0 1.18784-0.08192 1.80224-0.08192 0.59392 0 1.18784 0.08192 1.80224 0.08192 48.31232 0 94.94528-17.3056 134.88128-50.03264l0.8192-0.47104c33.0752 0.3072 65.67936 11.50976 91.42272 31.80544 2.29376 1.78176 4.89472 2.9696 7.61856 3.66592 7.49568 6.36928 14.39744 13.35296 20.3776 21.05344 4.5056 5.81632 8.56064 11.96032 12.10368 18.41152 5.16096 9.4208 9.216 19.47648 12.00128 29.98272 2.8672 10.83392 4.4032 22.15936 4.4032 33.83296 0.02048 11.6736 9.48224 21.11488 21.15584 21.11488 11.6736-0.02048 21.11488-9.48224 21.11488-21.15584 0-12.67712-1.41312-25.12896-4.096-37.19168-6.2464-28.09856-19.43552-54.12864-37.86752-76.0832-26.37824-31.41632-63.54944-54.53824-106.5984-63.54944l-4.58752-0.96256 2.78528-3.76832c33.50528-45.44512 51.24096-99.26656 51.24096-155.648 0-22.30272-3.01056-43.78624-8.06912-64.36864 9.46176-12.47232 13.47584-28.59008 10.69056-44.93312l-25.9072-151.90016c-5.7344-33.60768-36.92544-60.17024-70.98368-60.49792L381.97248 63.95904c-33.792 0-65.16736 25.98912-71.43424 59.16672l-29.30688 155.58656c-3.11296 16.4864 0.75776 32.82944 10.26048 45.40416-5.0176 20.50048-8.02816 41.92256-8.02816 64.14336 0 56.38144 17.7152 110.20288 51.24096 155.648l2.78528 3.76832-4.58752 0.96256C246.80448 566.64064 184.32 641.00352 184.32 725.46304l0 53.37088c0 99.92192 84.72576 181.20704 188.84608 181.20704l3.3792 0 270.90944 0 3.3792 0c88.73984 0 163.36896-59.02336 183.5008-138.32192C835.62496 809.96352 827.12576 799.39584 815.37024 798.12608zM323.35872 286.63808l29.30688-155.58656c2.43712-12.92288 16.11776-24.22784 29.51168-24.22784l263.65952 2.60096c13.29152 0.12288 26.91072 11.73504 29.16352 24.84224l25.9072 151.90016c0.83968 4.89472-0.14336 9.29792-2.74432 12.3904-2.60096 3.09248-6.79936 4.8128-11.776 4.8128L337.22368 303.37024c-4.9152 0-8.97024-1.6384-11.44832-4.62848C323.31776 295.77216 322.4576 291.47136 323.35872 286.63808zM329.216 388.23936c0-14.58176 1.55648-28.71296 4.17792-42.41408 1.29024 0.08192 2.51904 0.4096 3.82976 0.4096l349.16352 0c1.4336 0 2.80576-0.34816 4.21888-0.43008 2.62144 13.7216 4.1984 27.8528 4.1984 42.45504 0 113.29536-81.85856 205.5168-182.784 206.56128C411.05408 593.75616 329.216 501.53472 329.216 388.23936z" p-id="2936"></path></svg>