<?xml version="1.0" standalone="no"?><!DOCTYPE svg PUBLIC "-//W3C//DTD SVG 1.1//EN" "http://www.w3.org/Graphics/SVG/1.1/DTD/svg11.dtd"><svg t="1513736755319" class="icon" style="" viewBox="0 0 1024 1024" version="1.1" xmlns="http://www.w3.org/2000/svg" p-id="2255" xmlns:xlink="http://www.w3.org/1999/xlink" width="200" height="200"><defs><style type="text/css"></style></defs><path d="M735.030729 1024v-0.625291H0.824889V0.625291h738.810259v399.788609h282.74542v623.5861h-287.349839zM624.524678 114.99678H114.116329v794.745421h510.408349V114.99678z m284.734984 397.401133h-172.353059v396.88953h172.353059V512.397913zM341.892947 343.000777H228.203594v-113.689353h113.689353v113.689353z m0 227.378706H228.203594v-113.689353h113.689353v113.689353z m0 227.378705H228.203594v-113.689353h113.689353v113.689353z m170.534029-454.757411H398.737623v-113.689353h113.689353v113.689353z m0 227.378706H398.737623v-113.689353h113.689353v113.689353z m0 227.378705H398.737623v-113.689353h113.689353v113.689353z" fill="#F4901B" p-id="2256"></path></svg>