<?xml version="1.0" standalone="no"?><!DOCTYPE svg PUBLIC "-//W3C//DTD SVG 1.1//EN" "http://www.w3.org/Graphics/SVG/1.1/DTD/svg11.dtd"><svg t="1513736825430" class="icon" style="" viewBox="0 0 1024 1024" version="1.1" xmlns="http://www.w3.org/2000/svg" p-id="4248" xmlns:xlink="http://www.w3.org/1999/xlink" width="200" height="200"><defs><style type="text/css"></style></defs><path d="M283.748324 546.286924h98.901583L353.842517 737.8311l194.1109-256.743427h-85.299672l29.100701-190.176068z" p-id="4249"></path><path d="M726.961344 184.298687l-0.142088 0.006089c-7.307399 0.457727-14.593484 0.457727-21.63802 0.457728-94.280668 0-160.930234-22.384998-200.240995-41.162984-42.210377-20.162331-63.063866-40.53678-65.591009-43.108578l-23.013231-25.320137-22.525057 24.778172-0.013194 0.014208c-2.224697 2.289652-22.943202 22.957411-64.78212 43.180638-39.198105 18.946461-105.973521 41.532413-201.497462 41.532413-7.17343 0-14.513306-0.126865-21.81157-0.377549l-31.617694-1.127572v393.841391c0 103.224112 34.312297 253.732169 330.944987 368.51415l11.30008 4.520439 11.24223-4.495066C724.264711 830.74975 758.578023 680.239663 758.578023 577.016566V183.171115l-31.616679 1.127572z m-29.84362 61.419701v331.299193c0 53.355175-0.022328 194.892385-280.783753 307.025434C135.571531 771.911996 135.549203 630.373771 135.549203 577.016566V245.703165c67.724363-0.919514 130.061549-11.936433 185.363334-32.768609 45.016621-16.957225 76.32375-37.058661 95.422449-51.760742 19.19816 14.789363 50.580393 34.988231 95.416359 51.932263 55.345426 20.918444 117.688702 31.882587 185.366379 32.612311z" p-id="4250"></path></svg>