<?xml version="1.0" encoding="UTF-8"?>
<svg width="280px" height="120px" viewBox="0 0 280 120" version="1.1" xmlns="http://www.w3.org/2000/svg" xmlns:xlink="http://www.w3.org/1999/xlink">
    <!-- Generator: Sketch 49 (51002) - http://www.bohemiancoding.com/sketch -->
    <title>1</title>
    <desc>Created with Sketch.</desc>
    <defs>
        <rect id="path-1" x="0" y="0" width="280" height="120"></rect>
        <linearGradient x1="1.62269607%" y1="56.8909705%" x2="100%" y2="56.8909713%" id="linearGradient-3">
            <stop stop-color="#9846D3" offset="0%"></stop>
            <stop stop-color="#7690E4" offset="100%"></stop>
        </linearGradient>
        <filter x="-10.3%" y="-6.4%" width="121.7%" height="112.9%" filterUnits="objectBoundingBox" id="filter-4">
            <feOffset dx="0" dy="0" in="SourceAlpha" result="shadowOffsetOuter1"></feOffset>
            <feGaussianBlur stdDeviation="2" in="shadowOffsetOuter1" result="shadowBlurOuter1"></feGaussianBlur>
            <feColorMatrix values="0 0 0 0 0   0 0 0 0 0   0 0 0 0 0  0 0 0 0.109827899 0" type="matrix" in="shadowBlurOuter1" result="shadowMatrixOuter1"></feColorMatrix>
            <feMerge>
                <feMergeNode in="shadowMatrixOuter1"></feMergeNode>
                <feMergeNode in="SourceGraphic"></feMergeNode>
            </feMerge>
        </filter>
    </defs>
    <g id="小哥星座-个别页面" stroke="none" stroke-width="1" fill="none" fill-rule="evenodd">
        <g id="1">
            <mask id="mask-2" fill="white">
                <use xlink:href="#path-1"></use>
            </mask>
            <use id="Mask" fill="#FFFFFF" xlink:href="#path-1"></use>
            <g mask="url(#mask-2)">
                <g transform="translate(15.000000, 8.000000)">
                    <path d="M41.715,27.945 L46.17,38.07 L30.861,42.606 L38.88,42.12 L54.351,43.74 L65.772,51.921 L69.579,69.984 L69.579,72.252 L65.286,90.639 L40.824,101.007 L31.509,101.007 L10.206,96.39 L0,74.115 L4.536,47.142 L1.215,39.609 L41.715,27.945 Z M37.665,53.865 L15.714,58.644 L14.823,63.18 L32.238,65.286 L31.023,77.598 L14.58,75.735 L18.792,85.374 L37.665,89.262 L48.033,87.804 L53.46,82.053 L55.323,70.632 L51.03,55.971 L37.665,53.865 Z" id="白羊座" fill="url(#linearGradient-3)" fill-rule="evenodd"></path>
                    <g id="Group-14-Copy" filter="url(#filter-4)" stroke-width="1" fill="none" fill-rule="evenodd" transform="translate(57.915000, 8.910000)">
                        <polygon id="Path-2" fill="#FFBBBB" points="48.886419 87.075 48.195 89.5639253 51.6051431 89.5639253 51.0741966 87.075"></polygon>
                        <path d="M48.3734961,88.695 C49.2750619,88.9657998 49.9659574,89.1011998 50.4461826,89.1011998 C50.9264079,89.1011998 51.2649541,88.9657998 51.4618214,88.695 C54.2842107,89.5948026 56.0987778,90.2404598 56.9055227,90.6319715 C58.1156401,91.2192391 58.9272184,92.7964677 56.9055227,92.9301603 C56.0182872,92.9888323 51.836368,91.9499018 51.0888367,91.9499018 C50.3413055,91.9499018 49.2096107,92.2250769 48.2858271,91.7963978 C47.30707,91.3422083 47.3865516,91.1893413 47.3865516,90.3765848 C47.3865516,89.8347471 47.7155331,89.2742189 48.3734961,88.695 Z" id="Path-3" fill="#FFFFFF"></path>
                        <path d="M10.53,54.675 L42.2457256,54.675 C44.9788445,58.4803698 46.6928987,61.5809658 47.3878881,63.976788 C48.0828775,66.3726103 49.5530537,74.248944 51.7984166,87.6057891 L47.9098641,87.6057891 C43.1954481,81.8207814 40.4408157,77.8112538 39.645967,75.5772063 C38.8511182,73.3431588 38.6515817,69.4763527 39.0473574,63.976788 C27.7968386,66.2493327 20.5378537,67.385605 17.2704028,67.385605 C14.0029519,67.385605 11.756151,67.385605 10.53,67.385605 L10.53,54.675 Z" id="Path-46-Copy" fill="#F9F9F9"></path>
                        <polygon id="Path-2" fill="#FFBBBB" points="35.1403848 63.6890446 34.4489658 66.1779699 37.8591089 66.1779699 37.3281625 63.6890446"></polygon>
                        <path d="M34.6201795,65.3507887 C35.5217453,65.6215886 36.2126408,65.7569885 36.692866,65.7569885 C37.1730912,65.7569885 37.5116375,65.6215886 37.7085048,65.3507887 C40.530894,66.2505913 42.3454611,66.8962485 43.1522061,67.2877602 C44.3623235,67.8750278 45.1739018,69.4522564 43.1522061,69.585949 C42.2649705,69.644621 38.0830513,68.6056905 37.3355201,68.6056905 C36.5879888,68.6056905 35.456294,68.8808656 34.5325105,68.4521865 C33.5537534,67.9979971 33.633235,67.8451301 33.633235,67.0323735 C33.633235,66.4905358 33.9622165,65.9300076 34.6201795,65.3507887 Z" id="Path-3" fill="#FFFFFF"></path>
                        <path d="M38.9174927,52.9378459 C40.9230394,53.2417579 42.1755522,53.5195073 42.675031,53.7710943 C43.4242493,54.1484747 45.6419802,56.7302628 45.6419802,58.5779569 C45.6419802,60.4256511 43.1788672,56.4444842 41.9334235,55.8639504 C41.1031278,55.4769279 40.0978175,55.336777 38.9174927,55.4434977 L38.9174927,52.9378459 Z" id="Path-4" fill="#FFBBBB"></path>
                        <path d="M39.445778,55.9919533 L2.24829006,56.7009598 C3.66740012,42.2797058 4.80919251,33.2054526 5.67366721,29.4782001 C6.53814192,25.7509477 8.90891691,22.4048809 12.7859922,19.44 C13.565453,20.0103969 14.3251219,20.3530331 15.064999,20.4679084 C16.1748146,20.6402214 17.1150144,20.0997214 17.1150144,20.0997214 C17.1150144,20.0997214 21.2269134,23.7618491 24.1505574,30.2758643 C25.4291256,33.1245737 26.5330651,37.8044876 27.4623759,44.315606 C27.6141523,45.3790115 31.6086197,47.8778242 39.445778,51.8120441 L39.445778,55.9919533 Z" id="Combined-Shape" fill="#FFFFFF"></path>
                        <path d="M13.2590059,67.7148623 C16.5888712,65.9308929 18.8294249,64.4081555 19.9806672,63.1466501 C23.6381024,59.1389148 27.0259857,54.3596338 30.144317,48.8088069 C30.1405799,51.2696056 30.2382239,53.0611618 30.4372489,54.1834757 C30.636274,55.3057896 31.0653552,56.4844666 31.7244925,57.7195069 C32.2106138,49.4981369 31.6838887,45.8971354 30.144317,46.9165022 C28.9498447,47.707375 25.053219,56.1128235 19.4054321,62.8780667 C18.3176169,64.1811143 16.2688081,65.7933795 13.2590059,67.7148623 Z" id="Path-9" fill="#D8D8D8"></path>
                        <path d="M2.3379369,55.7235199 C19.947277,41.1817729 30.4582896,34.619238 33.8709748,36.0359153 C37.2836601,37.4525925 38.6829863,46.7706208 38.0689536,63.99 L34.5770643,63.99 C32.4248973,59.7038656 31.136264,56.4149895 30.7111644,54.1233719 C30.2860648,51.8317542 30.2860648,49.5001329 30.7111644,47.1285079 C24.3601043,57.602958 19.9280477,63.7487475 17.4149945,65.5658763 C13.6454147,68.2915695 8.39150903,69.0720517 4.51741566,65.5658763 C1.93468674,63.2284261 1.20819383,59.9476406 2.3379369,55.7235199 Z" id="Path-46" fill="#FFFFFF"></path>
                        <rect id="Rectangle-2" fill="#FFE2D4" x="2.025" y="67.635" width="34.425" height="3.645"></rect>
                        <rect id="Rectangle-2-Copy-2" fill="#FFE2D4" x="1.62" y="77.76" width="34.425" height="3.645"></rect>
                        <rect id="Rectangle-2-Copy-4" fill="#FFE2D4" x="1.62" y="83.835" width="31.995" height="8.91"></rect>
                        <rect id="Rectangle-2-Copy" fill="#FFB8A5" x="0" y="71.28" width="31.185" height="6.48"></rect>
                        <rect id="Rectangle-2-Copy-3" fill="#FFB8A5" x="0.81" y="81.405" width="31.185" height="2.43"></rect>
                        <polygon id="Path-40" fill="#FFBBBB" points="19.8589175 8.1 16.2 8.91696458 10.935 11.0779328 11.5644698 13.3489334 14.1018336 16.7782573 11.5644698 21.465 16.9334536 20.8731588 17.6042784 16.360028 20.3603461 16.360028 20.3603461 14.3036041 21.465 13.3489334 18.7467084 9.33947237"></polygon>
                        <path d="M20.2252296,7.30609456 C20.0718028,6.60447152 19.0648451,5.65410667 17.2043563,4.455 C17.084127,5.35361271 16.7573974,6.0604737 16.2241675,6.57558297 C15.4243226,7.34824687 11.9098401,7.60057872 10.7604683,10.3498901 C9.99422042,12.1827643 11.1386555,14.267801 14.1937736,16.605 L14.7499326,15.1771268 C13.6543657,14.3640624 13.239081,13.7472978 13.5040783,13.3268331 C13.6029849,13.1699006 14.0182696,13.1699006 14.7499326,13.3268331 C14.7499326,12.8705957 14.7499326,12.3092158 14.7499326,11.6426933 C14.7499326,10.9761709 16.0157193,10.2979565 18.5472927,9.60804996 C19.8193441,8.77503607 20.3786564,8.00771761 20.2252296,7.30609456 Z" id="Path-40" fill="#000000"></path>
                        <path d="M21.66333,39.6165074 C23.1621636,37.8678925 24.3992014,36.81239 25.3744433,36.45 C26.8373061,35.9064149 29.1037862,36.4254809 29.4580648,36.7200626 C29.8123433,37.0146444 27.6771878,37.4444572 27.025339,37.8227156 C26.5907731,38.074888 25.0916856,39.0477946 22.5280763,40.7414355 L21.66333,39.6165074 Z" id="Path-6" fill="#FFBBBB"></path>
                        <polygon id="Path-7" fill="#E4E4E4" points="13.580334 30.595933 14.1573105 40.6220475 19.0812328 39.3658086 11.5087296 43.8229728"></polygon>
                        <path d="M13.7648663,30.2072462 C13.9985539,32.7600819 13.9985539,35.0092604 13.7648663,36.9547816 C13.5311786,38.9003029 13.2173624,40.6721155 12.8234177,42.2702195 C14.6503707,41.2682968 16.039651,40.5094634 16.9912587,39.9937193 C17.9428663,39.4779752 19.4824444,39.1765447 21.609993,39.0894276 L23.1150583,40.7861226 C14.0710443,51.2837632 8.27845648,55.6867924 5.73729473,53.9952102 C3.19613298,52.303628 3.99257206,44.3743067 8.12661197,30.2072462 L13.7648663,30.2072462 Z" id="Path-5" fill="#FFFFFF"></path>
                        <path d="M5.89134995,40.6700593 C3.48812875,49.4549647 3.95182524,53.8474174 7.28243943,53.8474174 C10.6130536,53.8474174 15.7814882,49.4549647 22.7877431,40.6700593 C14.1347658,51.2101088 8.50263476,56.1898362 5.89134995,55.6092414 C3.28006515,55.0286466 3.28006515,50.0489193 5.89134995,40.6700593 Z" id="Path-8" fill="#D8D8D8"></path>
                        <path d="M31.0934141,10.6739366 C26.6648786,6.41413183 25.321005,3.23585492 27.0617931,1.13910588 C28.8025812,-0.957643157 31.3992374,-0.159782089 34.8517615,3.53268909 C39.4450427,-0.0565690798 42.4723215,-0.290474931 43.9335979,2.83097153 C45.3948743,5.952418 41.1148131,8.56673969 31.0934141,10.6739366 Z" id="Path-10" fill="#FF7171"></path>
                    </g>
                    <polygon id="白羊座" fill="url(#linearGradient-3)" fill-rule="evenodd" points="216.19393 28.2746348 220.644 35.7738261 244.542522 35.3617826 245.531426 46.2397304 194.685261 48.1351304 192.707452 59.2603043 200.45387 49.1240348 209.106783 54.6454174 204.739122 60.7436609 211.084591 62.7214696 210.095687 50.1129391 222.374583 48.8768087 223.528304 63.2983304 230.038591 48.5471739 240.339678 52.0907478 237.620191 57.6945391 249.075 61.0732957 246.190696 70.715113 233.334939 67.2539478 231.027496 73.0225565 224.105165 70.6327043 224.4348 74.9179565 240.339678 73.5994174 241.328583 84.2301391 225.341296 85.631087 225.67093 89.5042957 247.097191 89.0922522 248.086096 99.7229739 191.800957 102.936913 190.812052 92.3061913 213.392035 90.1635652 213.0624 86.4551739 196.251026 87.1144435 195.262122 76.5661304 212.073496 75.7420435 211.414226 67.4187652 209.766052 73.0225565 199.052922 69.8910261 195.921391 75.5772261 190.97687 72.0336522 188.834243 100.959104 176.308122 99.7229739 181.582278 49.2064435 179.192426 49.4536696 178.203522 38.5757217 205.563209 36.4330957 203.997443 33.0543391"></polygon>
                    <polygon id="白羊座" fill="url(#linearGradient-3)" fill-rule="evenodd" points="116.64 29.16 121.338 38.961 133.569 38.313 138.186 29.16 150.822 33.615 148.473 37.908 160.299 37.746 161.595 50.382 133.488 51.03 134.136 58.806 156.168 56.376 157.464 68.445 135.108 70.956 135.756 78.813 161.919 78.246 163.134 90.882 136.809 91.449 137.538 100.683 124.254 101.979 123.444 92.178 95.418 94.689 94.203 82.053 122.391 79.461 121.824 72.009 100.197 73.143 98.901 61.155 120.771 59.94 120.123 51.759 95.742 53.865 94.527 41.229 107.082 40.014 104.652 33.939"></polygon>
                    <text id="3月21日---4月19日" fill="none" font-family="PingFangSC-Medium, PingFang SC" font-size="12.15" font-weight="400">
                        <tspan x="142.155" y="13" fill="#7C83E1">3月21日 - 4月19日</tspan>
                    </text>
                </g>
            </g>
        </g>
    </g>
</svg>