<?xml version="1.0" encoding="UTF-8"?>
<svg width="50px" height="50px" viewBox="0 0 50 50" version="1.1" xmlns="http://www.w3.org/2000/svg" xmlns:xlink="http://www.w3.org/1999/xlink">
    <!-- Generator: Sketch 49 (51002) - http://www.bohemiancoding.com/sketch -->
    <title>icon/整体运势</title>
    <desc>Created with Sketch.</desc>
    <defs>
        <linearGradient x1="40.1881564%" y1="100.999999%" x2="40.1881576%" y2="0%" id="linearGradient-1">
            <stop stop-color="#3023AE" offset="0%"></stop>
            <stop stop-color="#C86DD7" offset="100%"></stop>
        </linearGradient>
        <rect id="path-2" x="0" y="0" width="50" height="50" rx="10.9090909"></rect>
    </defs>
    <g id="icon/整体运势" stroke="none" stroke-width="1" fill="none" fill-rule="evenodd">
        <g id="icon-copy-4">
            <g id="Path-3">
                <mask id="mask-3" fill="white">
                    <use xlink:href="#path-2"></use>
                </mask>
                <use id="Mask" fill="url(#linearGradient-1)" xlink:href="#path-2"></use>
                <g id="整体规划" mask="url(#mask-3)" fill="#FFFFFF" fill-rule="nonzero">
                    <g transform="translate(7.000000, 10.000000)" id="Shape">
                        <path d="M27.7483983,0 L31.4483983,3.75196478 L22.2,13.1302525 L12.9516017,7.50392957 L0,16.8919627 L0,20.6374306 L12.9516017,11.2558944 L22.2,16.8919627 L33.3160173,5.62957142 L37,9.38153621 L37,0 L27.7483983,0 Z M0,30.9902546 L10.76161,30.9902546 L11.1719961,14.881736 L0,23.486325 L0,30.9902546 Z M13.553327,14.881736 L13.553327,31 L25.9,30.9902546 L25.9,15.9823955 L22.2,19.7343603 L13.553327,14.881736 Z M33.3160173,8.47846588 L27.7516017,14.1080373 L27.7516017,31 L35.1516018,31 L35.1516018,10.3528241 L33.3160173,8.47846588 Z"></path>
                    </g>
                </g>
            </g>
        </g>
    </g>
</svg>