<?xml version="1.0" encoding="UTF-8"?>
<svg width="41px" height="38px" viewBox="0 0 41 38" version="1.1" xmlns="http://www.w3.org/2000/svg" xmlns:xlink="http://www.w3.org/1999/xlink">
    <!-- Generator: Sketch 51 (57462) - http://www.bohemiancoding.com/sketch -->
    <title>星座配对/爱心</title>
    <desc>Created with Sketch.</desc>
    <defs></defs>
    <g id="星座配对" stroke="none" stroke-width="1" fill="none" fill-rule="evenodd">
        <g transform="translate(-166.000000, -243.000000)">
            <rect fill="#FFFFFF" x="0" y="0" width="375" height="667"></rect>
            <g id="星座配对/爱心" transform="translate(167.000000, 243.000000)" fill-rule="nonzero">
                <g id="Group-2-Copy" transform="translate(14.698113, 1.280000)">
                    <path d="M11.5954423,1.44135358 C14.4081941,-1.05974481 18.7517147,-0.977854999 21.464227,1.687023 C24.2664371,4.44002352 24.2664371,8.90631794 21.464227,11.6593185 L12.6587464,20.3101663 C12.0707527,20.8878342 11.1201319,20.8878342 10.5321382,20.3101663 L1.72665754,11.6593185 C-1.07555251,8.90631794 -1.07555251,4.44002352 1.72665754,1.687023 C4.43916991,-0.977854999 8.78269047,-1.05974481 11.5954423,1.44135358 Z" id="Combined-Shape" stroke="#8D4310" stroke-width="0.75" fill="#FF8080"></path>
                    <path d="M21.2014212,1.95452646 C23.854039,4.56056173 23.854039,8.78577973 21.2014212,11.391815 L12.3959405,20.0426628 C12.1652865,20.2692664 11.8598647,20.3776463 11.5576908,20.3678025 C12.89902,19.0885695 15.9446328,14.0829058 19.7852023,11.391815 C22.3681641,9.41428639 22.1559258,4.56056173 19.503308,1.95452646 C18.3697751,0.840899456 16.9761945,0.212402208 15.5205225,0.0556396598 C17.5384505,-0.201301058 19.6513349,0.431661208 21.2014212,1.95452646 Z" id="Combined-Shape" fill="#FF6A6A"></path>
                    <path d="M3.68757658,13.0601077 L1.98946337,11.391815 C-0.663154458,8.78577973 -0.663154458,4.56056173 1.98946337,1.95452646 C3.5321635,0.438917646 5.63231106,-0.195248734 7.64150943,0.0520273158 C6.19596289,0.229933611 4.79749428,0.864099991 3.68757658,1.95452646 C1.03495875,4.56056173 1.03495875,10.4540724 3.68757658,13.0601077 Z" id="Combined-Shape" fill="#FF9F9F"></path>
                </g>
                <g id="Group-2" transform="translate(1.547170, 8.880000)">
                    <path d="M15.8471045,2.15489 C19.6342211,-1.29928317 25.5533388,-1.21635227 29.2380815,2.4036827 C33.0129181,6.11222949 33.0129181,12.1277705 29.2380815,15.8363173 L17.2039246,27.6591427 C16.4538264,28.3960683 15.2403825,28.3960683 14.4902844,27.6591427 L2.45612745,15.8363173 C-1.31870915,12.1277705 -1.31870915,6.11222949 2.45612745,2.4036827 C6.1408701,-1.21635227 12.0599878,-1.29928317 15.8471045,2.15489 Z" id="Combined-Shape" stroke="#8D4310" stroke-width="0.75" fill="#FF8080"></path>
                    <path d="M28.9752756,2.67118616 C32.60052,6.2327677 32.60052,12.0072323 28.9752756,15.5688138 L16.9411187,27.3916392 C16.6258915,27.7013307 16.2084817,27.8494499 15.7955108,27.8359968 C17.6286607,26.0877117 21.7909981,19.2466379 27.0397765,15.5688138 C30.5698242,12.8661914 30.2797653,6.2327677 26.6545209,2.67118616 C25.1053592,1.14922926 23.2007991,0.290283017 21.2113808,0.0760408684 C23.9692157,-0.275111445 26.8568244,0.589936984 28.9752756,2.67118616 Z" id="Combined-Shape" fill="#FF6A6A"></path>
                    <path d="M5.03968799,17.8488138 L2.71893328,15.5688138 C-0.906311092,12.0072323 -0.906311092,6.2327677 2.71893328,2.67118616 C4.82729012,0.599854116 7.69749179,-0.266839937 10.4433962,0.0711039982 C8.46781595,0.314242602 6.55657552,1.18093665 5.03968799,2.67118616 C1.41444362,6.2327677 1.41444362,14.2872323 5.03968799,17.8488138 Z" id="Combined-Shape" fill="#FF9F9F"></path>
                    <path d="M5.4313366,2.3128418 C4.97810282,2.77485665 4.67580859,3.0948753 4.52445392,3.27289777 M3.39593028,5.09796311 C2.96984141,6.02862957 2.66625634,7.08450335 2.48517509,8.26558444 C2.42260309,8.67370292 2.37465834,9.09677145 2.34134084,9.53479004" id="Path-2" stroke="#FFFFFF" stroke-width="0.75" stroke-linecap="round"></path>
                </g>
                <g id="Group-3" transform="translate(37.053928, 27.043224) rotate(-285.000000) translate(-37.053928, -27.043224) translate(33.959588, 24.003224)" stroke="#FF8080" stroke-linecap="round" stroke-width="0.75">
                    <path d="M6.18867925,6.08 C6.18867925,2.72210872 3.41791317,0 0,0" id="Oval-2"></path>
                    <path d="M3.86792453,6.08 C3.86792453,3.98131795 2.13619573,2.28 0,2.28" id="Oval-2-Copy"></path>
                </g>
                <g id="Group-3-Copy" transform="translate(3.094340, 3.560000) rotate(-90.000000) translate(-3.094340, -3.560000) translate(0.000000, 0.520000)" stroke="#FF8080" stroke-linecap="round" stroke-width="0.75">
                    <path d="M6.18867925,6.08 C6.18867925,2.72210872 3.41791317,0 0,0" id="Oval-2"></path>
                    <path d="M3.86792453,6.08 C3.86792453,3.98131795 2.13619573,2.28 0,2.28" id="Oval-2-Copy"></path>
                </g>
            </g>
        </g>
    </g>
</svg>