<?xml version="1.0" encoding="UTF-8"?>
<svg width="157px" height="41px" viewBox="0 0 157 41" version="1.1" xmlns="http://www.w3.org/2000/svg" xmlns:xlink="http://www.w3.org/1999/xlink">
    <!-- Generator: Sketch 51 (57462) - http://www.bohemiancoding.com/sketch -->
    <title>星座配对/文字</title>
    <desc>Created with Sketch.</desc>
    <defs>
        <linearGradient x1="50%" y1="-2.48949813e-15%" x2="50%" y2="100%" id="linearGradient-1">
            <stop stop-color="#AD62FB" offset="0%"></stop>
            <stop stop-color="#7F39D7" offset="100%"></stop>
        </linearGradient>
    </defs>
    <g id="星座配对" stroke="none" stroke-width="1" fill="none" fill-rule="evenodd">
        <g transform="translate(-102.000000, -112.000000)">
            <rect fill="none" x="0" y="0" width="375" height="667"></rect>
            <g id="星座配对/文字" transform="translate(101.000000, 112.000000)" fill="url(#linearGradient-1)">
                <path d="M19.8133407,7.52977148 L19.8133407,7.52977148 C20.9205542,7.77978743 22.0633491,7.83134319 23.1885773,7.68204106 L28.8558645,6.93007091 C31.3533406,6.59869059 33.8775558,6.51618581 36.3913407,6.68377148 L37.1220825,6.73248759 C39.1402417,6.86703154 41.1208589,7.34357736 42.9793407,8.14177148 L43.1459959,8.21334772 C44.828169,8.93581953 46.1272376,10.3347795 46.7233407,12.0657715 L46.7679851,12.1954119 C47.342778,13.864522 47.2949594,15.6851359 46.6333407,17.3217715 L46.6333407,17.3217715 C45.9905448,18.9118455 44.6104108,20.0867951 42.9381363,20.4676101 L35.2110267,22.2272489 C34.9189673,22.2937575 34.7225187,22.5678251 34.7533407,22.8657715 L34.7533407,22.8657715 C34.7841897,23.1639784 35.0322776,23.3925405 35.3320085,23.3988952 L42.7355044,23.5558598 C43.8938854,23.5804191 44.8130296,24.5393817 44.7884702,25.6977628 C44.7873657,25.749861 44.7843204,25.8019 44.7793407,25.8537715 L44.7793407,25.8537715 C44.6573438,27.1245726 43.5797573,28.088581 42.303266,28.0688668 L35.6369263,27.9659118 C35.4394899,27.9628626 35.2769643,28.1204445 35.2739151,28.3178809 C35.2737197,28.3305274 35.2741956,28.3431754 35.2753407,28.3557715 L35.2753407,28.3557715 C35.2956461,28.5791304 35.484673,28.7490911 35.7089262,28.7456232 L40.3038319,28.674568 C41.432483,28.6571146 42.3889267,29.5016428 42.5113407,30.6237715 L42.5113407,30.6237715 C42.6199953,31.6197715 41.9006597,32.5152709 40.9046597,32.6239254 C40.8485766,32.6300436 40.7922386,32.6335423 40.7358294,32.6344101 L36.0870062,32.7059305 C35.8933767,32.7089094 35.7388239,32.868292 35.7418028,33.0619215 C35.7419458,33.0712216 35.7424589,33.0805122 35.7433407,33.0897715 L35.7433407,33.0897715 C35.7634339,33.3007498 35.9468349,33.4580264 36.1584101,33.4457165 L43.2975706,33.0303472 C44.6253391,32.9530952 45.7749269,33.9432197 45.8953407,35.2677715 L45.8953407,35.2677715 C46.0093498,36.5218707 45.085124,37.6309416 43.8310248,37.7449506 C43.7967397,37.7480675 43.7623885,37.7504074 43.7279974,37.7519687 L19.9645922,38.8307613 C18.6214375,38.8917368 17.4681617,37.88487 17.3473407,36.5457715 L17.3473407,36.5457715 C17.2347432,35.2978156 18.155133,34.1948691 19.403089,34.0822715 C19.4465785,34.0783477 19.4901722,34.0756801 19.5338157,34.0742723 L29.0099145,33.7685917 C29.2169461,33.7619132 29.3793645,33.588667 29.372686,33.3816353 C29.3724506,33.3743358 29.3720019,33.3670448 29.3713407,33.3597715 L29.3713407,33.3597715 C29.351314,33.1394774 29.1592893,32.9753304 28.938562,32.9898226 L24.1769541,33.3024534 C23.0754004,33.3747777 22.1121439,32.5670673 21.9913407,31.4697715 L21.9913407,31.4697715 C21.8766182,30.4277086 22.6283761,29.4899487 23.6704391,29.3752261 C23.6950066,29.3725215 23.7196247,29.3702969 23.7442791,29.3685536 L28.3262558,29.0445755 C28.6377587,29.02255 28.8724266,28.7521718 28.8504011,28.4406689 C28.8500969,28.4363658 28.8497434,28.4320664 28.8493407,28.4277715 L28.8493407,28.4277715 C28.8185964,28.099832 28.5462304,27.8474265 28.216903,27.8416824 L25.0880713,27.7871098 C23.552742,27.7603308 22.121902,28.5622174 21.3433407,29.8857715 L21.3433407,29.8857715 C20.7060456,30.9691732 19.3111453,31.330814 18.2277436,30.6935189 C18.1703035,30.6597306 18.1143751,30.6234357 18.0601201,30.5847391 L17.6353407,30.2817715 C16.2797362,29.3149065 15.9564387,27.4362863 16.9108483,26.0718839 L20.2242286,21.3351501 C20.2538032,21.2928709 20.2435041,21.2346218 20.2012249,21.2050472 C20.192731,21.1991057 20.1833076,21.1946191 20.1733407,21.1917715 L20.1733407,21.1917715 C20.0912739,21.1683238 20.0182468,21.1205405 19.9638994,21.0547292 L17.7433407,18.3657715 C16.3075807,16.6271558 15.8555196,14.2772935 16.5437313,12.1300731 L17.6155407,8.78602772 C17.9119964,7.86108581 18.865905,7.31583438 19.8133407,7.52977148 Z M28.3093407,22.7937715 L28.3093407,22.7937715 C28.2782892,22.5143073 28.0477,22.2994658 27.7667407,22.2882275 L27.0848373,22.2609513 C26.6907027,22.245186 26.3140106,22.4242116 26.0773407,22.7397715 L26.0773407,22.7397715 C25.9711898,22.881306 25.9998739,23.0820948 26.1414085,23.1882457 C26.1956738,23.2289447 26.2614577,23.2513677 26.3292832,23.2522842 L27.8743946,23.2731641 C28.1128234,23.2763861 28.30872,23.0857133 28.311942,22.8472846 C28.3121836,22.8294102 28.3113148,22.8115381 28.3093407,22.7937715 Z M28.7006069,11.2235658 L26.1384072,11.3324211 C25.9304074,11.341258 25.7689539,11.5170389 25.7777908,11.7250387 C25.7856975,11.9111436 25.9283522,12.0635699 26.1135263,12.0837715 L29.1612004,12.4162575 C30.2218257,12.5319664 30.9996345,13.4678789 30.9193407,14.5317715 L30.9193407,14.5317715 C30.8389016,15.5975897 29.9312972,16.409761 28.8631228,16.3717815 L23.448852,16.1792741 C23.0365728,16.1646153 22.6904713,16.4869502 22.6758125,16.8992293 C22.675498,16.9080732 22.6753407,16.916922 22.6753407,16.9257715 L22.6753407,16.9257715 C22.6753407,17.3532399 23.0218723,17.6997715 23.4493407,17.6997715 L30.1480476,17.6997715 C31.789994,17.6997715 33.4316913,17.6593317 35.0716463,17.5784888 L35.4760696,17.5585524 C36.9406922,17.4863527 38.3502199,16.9776121 39.5233407,16.0977715 L39.7696081,15.913071 C40.6382223,15.2616103 40.8391776,14.0413695 40.2253407,13.1457715 L40.2253407,13.1457715 C39.5319229,12.1340635 38.4133251,11.4956772 37.1895658,11.4132478 L35.6533407,11.3097715 C33.339084,11.1538889 31.0180171,11.1251104 28.7006069,11.2235658 Z M70.7113409,1.67377148 L70.7113409,1.67377148 C71.3123237,2.68653882 72.4102608,3.29923837 73.5877437,3.27893695 L79.7378975,3.17289981 C81.0827371,3.14971292 82.2175668,4.16825582 82.3393409,5.50777148 L82.3393409,5.50777148 C82.4524284,6.75173354 81.5356734,7.85183954 80.2917113,7.964927 C80.2516164,7.968572 80.2114312,7.97114574 80.1711989,7.97264549 L62.8097292,8.61983156 C61.3704307,8.6734845 60.1634411,9.72370788 59.9113409,11.1417715 L59.9113409,11.1417715 C59.8533838,11.4677806 60.0706828,11.7790467 60.3966919,11.8370039 C60.617525,11.8762631 60.8418028,11.7889756 60.9779975,11.6107634 L61.5019792,10.9251278 C62.2717586,9.91786326 63.684644,9.66784108 64.7533409,10.3497715 L65.262174,10.6744554 C65.9851681,11.1357945 66.1972813,12.0958862 65.7359423,12.8188802 C65.7210264,12.8422559 65.705487,12.8652279 65.6893409,12.8877715 L65.5806699,13.0395008 C65.2433336,13.5104987 65.3516877,14.1657832 65.8226856,14.5031196 C65.9136704,14.5682843 66.0144969,14.6184694 66.1213409,14.6517715 L66.1213409,14.6517715 C66.6396373,14.8133184 67.1907593,14.5241158 67.3523062,14.0058194 C67.3895099,13.8864576 67.4036016,13.7610944 67.3938257,13.6364518 L67.2861098,12.263075 C67.1689608,10.7694242 68.2666379,9.45584225 69.7573409,9.30577148 L69.7573409,9.30577148 C71.208506,9.15968103 72.5033374,10.217653 72.6494278,11.6688181 C72.6512357,11.686776 72.6528594,11.704752 72.6542987,11.7227432 L72.6913409,12.1857715 C72.726542,12.6257845 73.1117791,12.9539495 73.5517922,12.9187484 C73.8444554,12.8953354 74.1007224,12.7133502 74.2192674,12.4447482 L74.8266173,11.0686009 C75.3698173,9.8378061 76.765175,9.22814639 78.0373409,9.66577148 L79.0008152,9.99720664 C79.6305018,10.2138188 79.9653648,10.8998796 79.7487526,11.5295662 C79.7329948,11.5753738 79.7144907,11.6201901 79.6933409,11.6637715 L79.6933409,11.6637715 C79.4153883,12.2365223 79.6543695,12.9261537 80.2271203,13.2041063 C80.2841852,13.2317995 80.3434384,13.2547355 80.4042766,13.2726805 L81.9949359,13.7418678 C83.1549104,14.0840186 83.8178875,15.3017317 83.4757368,16.4617062 C83.4749433,16.4643961 83.4741447,16.4670846 83.4733409,16.4697715 L83.4733409,16.4697715 C83.1226164,17.6421935 81.9023918,18.322439 80.7207128,18.0042947 L78.5377409,17.4165715 C77.7904211,17.21537 77.0107716,17.6051948 76.7233409,18.3237715 L76.7233409,18.3237715 C76.4411548,19.0292368 75.6547864,19.3888657 74.936574,19.1409115 L74.0827118,18.8461257 C73.7610659,18.7350813 73.4103012,18.9058075 73.2992568,19.2274534 C73.2717357,19.3071695 73.2608729,19.3916868 73.2673409,19.4757715 L73.2673409,19.4757715 C73.3068699,19.9896482 73.7554939,20.374183 74.2693706,20.334654 C74.2712131,20.3345123 74.2730551,20.3343651 74.2748967,20.3342124 L77.9632886,20.028439 C79.2505859,19.9217201 80.3836981,20.871611 80.5033409,22.1577715 L80.5033409,22.1577715 C80.6219978,23.4333332 79.6841412,24.5635706 78.4085795,24.6822275 C78.4044602,24.6826107 78.4003398,24.6829829 78.3962184,24.6833441 L74.581158,25.0176535 C74.113684,25.0586177 73.7675473,25.4701963 73.8073409,25.9377715 L73.8073409,25.9377715 C73.8478477,26.4137259 74.2506556,26.7766308 74.7282423,26.7674464 L80.9077472,26.6486098 C82.2222659,26.6233306 83.3335633,27.6166616 83.4553409,28.9257715 L83.4553409,28.9257715 C83.5704479,30.1631716 82.6606495,31.2595953 81.4232494,31.3747023 C81.3965737,31.3771838 81.3698559,31.3791886 81.3431086,31.3807159 L61.4115733,32.518827 C60.1124922,32.5930059 58.9878622,31.6253751 58.8673409,30.3297715 L58.8673409,30.3297715 C58.7479828,29.0466717 59.6900605,27.9092068 60.9729372,27.787474 L67.7057838,27.1485908 C68.1536671,27.1060909 68.4831746,26.7098998 68.4433409,26.2617715 L68.4433409,26.2617715 C68.4030133,25.8080851 68.0138971,25.4657889 67.5587718,25.4836369 L63.3396664,25.649092 C62.0427984,25.6999496 60.9324846,24.7279701 60.8113409,23.4357715 L60.8113409,23.4357715 C60.6972409,22.2187041 61.5913725,21.1395797 62.8084399,21.0254796 C62.8411267,21.0224153 62.8738777,21.0200785 62.9066685,21.0184711 L66.117834,20.861061 C67.0940276,20.8132084 67.8465966,19.983055 67.798744,19.0068614 C67.7978757,18.9891487 67.7967412,18.9714501 67.7953409,18.9537715 L67.7520823,18.4076312 C67.7418114,18.2779613 67.628367,18.1811692 67.498697,18.1914401 C67.4013699,18.1991492 67.3188894,18.2661067 67.2913409,18.3597715 L67.2913409,18.3597715 C67.0924214,19.0360977 66.3833995,19.423604 65.7067426,19.225812 L63.6122833,18.6135854 C62.8170401,18.3811297 61.9670245,18.7320302 61.5673409,19.4577715 L61.5243197,19.5358891 C61.2099398,20.1067367 60.4923211,20.314645 59.9214734,20.0002651 C59.8806597,19.977788 59.8412131,19.9529132 59.8033409,19.9257715 L59.8033409,19.9257715 C59.4685609,19.6858458 59.0026698,19.7627404 58.7627441,20.0975205 C58.682906,20.2089224 58.6353113,20.3401711 58.6251867,20.4768533 L57.9904356,29.0459931 C57.8809764,30.5236921 56.5943306,31.6328696 55.1166316,31.5234104 C55.0948459,31.5217966 55.0730807,31.5199168 55.0513409,31.5177715 L55.0513409,31.5177715 C53.5488212,31.3694965 52.450989,30.031263 52.5992639,28.5287433 C52.5997706,28.5236088 52.6002919,28.5184757 52.6008276,28.5133441 L54.5648471,9.70172015 C54.5892766,9.46773171 54.4193954,9.2582426 54.185407,9.23381313 C54.1561319,9.23075668 54.1266189,9.23074272 54.0973409,9.23377148 L54.0973409,9.23377148 C53.8126073,9.26322668 53.557907,9.05628264 53.5284518,8.77154903 C53.5282309,8.76941433 53.5280234,8.76727827 53.5278291,8.76514099 L53.3593409,6.91177148 C53.2415301,5.61585206 54.1965758,4.46979724 55.4924952,4.35198638 C55.502277,4.35109713 55.5120642,4.35026905 55.5218564,4.34950219 L64.2844309,3.66327648 C64.5957792,3.63889378 64.8284108,3.36673 64.8040281,3.05538166 C64.7987782,2.98834456 64.7816137,2.92278118 64.7533409,2.86177148 L64.7533409,2.86177148 C64.5755468,2.47811052 64.7424349,2.02296127 65.1260958,1.84516717 C65.1400961,1.83867923 65.1542894,1.832616 65.1686561,1.8269858 L67.9659698,0.730741229 C68.9885425,0.330003283 70.15086,0.72925734 70.7113409,1.67377148 Z M117.163341,2.22177148 L117.163341,2.22177148 C118.511454,2.82727995 119.527642,3.99167716 119.945168,5.40932371 L120.061341,5.80377148 C120.565518,7.51562698 120.5399,9.33997856 119.987856,11.0370026 L119.842349,11.4843036 C119.242791,13.3273874 117.820369,14.7869356 115.993341,15.4337715 L113.248053,16.4057058 C113.146985,16.4414875 113.040556,16.4597715 112.933341,16.4597715 L112.933341,16.4597715 C112.838024,16.4597715 112.75483,16.5243784 112.73123,16.6167272 L111.407319,21.7972493 C111.215328,22.5485187 111.201638,23.3342699 111.367341,24.0917715 L111.387908,24.1857928 C111.532529,24.8469179 111.997447,25.3923132 112.627341,25.6397715 L112.627341,25.6397715 C113.281747,25.8968596 114.001748,25.9354179 114.679869,25.7496907 L116.743845,25.1843978 C118.037892,24.8299773 119.374239,25.5916949 119.728659,26.8857417 C119.746198,26.9497805 119.761105,27.0145114 119.773341,27.0797715 L119.773341,27.0797715 C120.042905,28.5174436 119.108335,29.9052302 117.6748,30.1959943 L115.349744,30.6675861 C113.567056,31.0291688 111.720212,30.9091107 109.999341,30.3197715 L109.999341,30.3197715 C108.34361,29.7527403 107.048217,28.4441865 106.497952,26.7828082 L106.435341,26.5937715 C105.822459,24.7433377 105.714514,22.7628661 106.12265,20.8567823 L107.184541,15.8975182 C107.225936,15.7041934 107.102773,15.5139153 106.909448,15.47252 C106.81391,15.4520631 106.714161,15.4715449 106.633341,15.5264463 L106.633341,15.5264463 C106.470272,15.6372194 106.248279,15.5948253 106.137506,15.4317564 C106.082624,15.3509648 106.063246,15.2512133 106.083886,15.1557499 L106.51283,13.1718867 C106.818427,11.7585008 108.126578,10.7922775 109.567341,10.9157715 L110.764577,11.0183917 C111.641301,11.0935394 112.524357,11.0346569 113.383341,10.8437715 L113.673467,10.7792991 C114.310464,10.6377441 114.850967,10.21912 115.147341,9.63777148 L115.147341,9.63777148 C115.447482,9.04903322 115.506575,8.36655789 115.312095,7.73499241 L115.147341,7.19996093 C114.884068,6.34499158 114.002544,5.84100004 113.1322,6.04784872 L109.84304,6.8295606 C108.408116,7.170589 106.968422,6.28381158 106.627394,4.8488878 C106.623196,4.83122379 106.619178,4.81351743 106.615341,4.79577148 L106.615341,4.79577148 C106.332492,3.48759241 107.163685,2.19780889 108.471864,1.91495936 C108.564452,1.89494046 108.658133,1.88036741 108.752427,1.87131524 L112.721587,1.49027586 C114.240566,1.3444539 115.771342,1.59655167 117.163341,2.22177148 Z M93.1430134,0.7991544 L102.907602,1.6246631 C104.339483,1.7457158 105.402677,3.00374684 105.283341,4.43577148 L105.217427,5.22673894 C105.135084,6.21486167 104.267299,6.94914076 103.279177,6.8667972 C103.27523,6.86646834 103.271285,6.86612643 103.267341,6.86577148 L102.110987,6.76169963 C101.742301,6.72851791 101.405825,6.97290233 101.323341,7.33377148 L101.323341,7.33377148 C101.235291,7.71899259 101.375411,8.12062722 101.683976,8.36747917 L102.619341,9.11577148 C103.550507,9.86070397 104.194949,10.9051307 104.443112,12.0714964 L104.779341,13.6517715 C105.255215,15.8883796 105.312269,18.1938344 104.947611,20.4512436 L104.653911,22.2693856 C104.231628,24.8835194 102.668001,27.1741823 100.387341,28.5197715 L99.8716285,28.8240419 C97.9075073,29.9828734 95.5452492,30.2580693 93.3673411,29.5817715 L93.1766423,29.5225545 C91.1531009,28.8941916 89.5642522,27.3167379 88.9213411,25.2977715 L88.9213411,25.2977715 C88.2474887,23.1816384 88.0991618,20.9332275 88.4891831,18.746911 L90.2082407,9.11050336 C90.3364163,8.39199793 91.0227869,7.91344104 91.7412923,8.04161663 C91.7613998,8.04520365 91.7814215,8.04925636 91.8013411,8.05377148 L92.5795324,8.23016149 C92.9538381,8.31500413 93.3440746,8.2975994 93.7093411,8.17977148 L93.7093411,8.17977148 C94.0500083,8.06987883 94.2966978,7.77330564 94.3427141,7.4183225 L94.3933411,7.02777148 C94.4602714,6.51145206 94.0959696,6.03863474 93.5796501,5.97170445 C93.5675185,5.97013183 93.5553574,5.9687955 93.5431737,5.96769622 L92.1253411,5.83977148 C90.9046796,5.7296366 90.0044199,4.65081299 90.1145548,3.4301515 C90.1198597,3.37135498 90.1275088,3.31279356 90.1374836,3.25460701 L90.1633411,3.10377148 C90.4076699,1.67852056 91.7021117,0.677339039 93.1430134,0.7991544 Z M98.3255895,7.07470704 L98.368605,6.89035498 C98.4209333,6.66609069 98.2815517,6.44186807 98.0572874,6.38953973 C98.0362571,6.38463266 98.0148773,6.38136675 97.9933411,6.37977148 L97.9933411,6.37977148 C97.7207603,6.3595803 97.4799548,6.55601577 97.4449767,6.82709608 L97.4186727,7.03095168 C97.3906543,7.24809462 97.54397,7.4468372 97.7611129,7.47485564 C97.7724748,7.47632169 97.7838949,7.47729455 97.7953411,7.47777148 L97.7953411,7.47777148 C98.0459586,7.48821387 98.2685924,7.31898047 98.3255895,7.07470704 Z M96.8455061,12.6800016 L96.7144436,15.4104692 C96.6770642,16.1892078 96.0154698,16.7901981 95.2367312,16.7528186 C95.2135632,16.7517066 95.1904262,16.7500237 95.1673411,16.7477715 L95.1673411,16.7477715 C94.3384998,16.6669089 93.7163315,15.9540206 93.7483377,15.1218594 L93.8259317,13.1044171 C93.8296176,13.0085833 93.754917,12.9279067 93.6590833,12.9242208 C93.6395481,12.9234694 93.6200263,12.9260222 93.6013411,12.9317715 L93.6013411,12.9317715 C93.4579816,12.9758821 93.3519502,13.0973484 93.3276075,13.2453522 L92.8522076,16.1357831 C92.6513439,17.3570347 93.4785317,18.5098869 94.6997833,18.7107507 C94.7414671,18.7176066 94.7833364,18.7232824 94.8253411,18.7277715 L94.937435,18.739751 C96.1845478,18.8730302 97.0952871,19.9803854 96.9853411,21.2297715 L96.980935,21.2798412 C96.8759637,22.4726969 95.823867,23.3546015 94.6310112,23.2496302 C94.6177763,23.2484655 94.6045524,23.2471792 94.5913411,23.2457715 L93.3527109,23.1137863 C93.0279941,23.0791853 92.7367094,23.3143707 92.7021085,23.6390876 C92.6922625,23.7314879 92.7043331,23.8249081 92.7373411,23.9117715 L92.7373411,23.9117715 C92.9529188,24.4790812 93.42034,24.9136792 94.0018177,25.0874541 L94.6453411,25.2797715 C95.6517291,25.5805311 96.7347217,25.4885269 97.6759522,25.0223099 L98.1373411,24.7937715 C99.349015,24.1935965 100.205109,23.0553252 100.445581,21.7247101 L100.731274,20.1438769 C101.003959,18.6350167 101.015483,17.0905324 100.765341,15.5777715 L100.765341,15.5777715 C100.7401,15.4251252 100.595894,15.3218426 100.443248,15.3470833 C100.315975,15.3681286 100.219526,15.473366 100.209632,15.6019878 L100.105083,16.9611319 C100.043539,17.7612053 99.3450595,18.3599016 98.5449861,18.2983575 C98.5350959,18.2975967 98.5252137,18.2967347 98.5153411,18.2957715 L98.5153411,18.2957715 C97.6935265,18.2155944 97.0847057,17.4960475 97.1416945,16.6723 L97.4154253,12.7156453 C97.4263516,12.5577113 97.3071782,12.420823 97.1492442,12.4098968 C97.14861,12.4098529 97.1479756,12.4098111 97.1473411,12.4097715 L97.1473411,12.4097715 C96.9905659,12.399973 96.8555313,12.5191212 96.8457329,12.6758964 C96.8456474,12.6772642 96.8455718,12.6786327 96.8455061,12.6800016 Z M128.391935,17.9815599 L130.388354,19.2555905 C130.835581,19.5409922 131.429494,19.4098066 131.714896,18.9625792 C131.751582,18.9050917 131.782042,18.8438611 131.805761,18.7799229 L131.805761,18.7799229 C132.081693,18.0361063 132.334204,17.2838096 132.56292,16.5241449 L132.815713,15.684512 C133.062716,14.8641068 132.766331,13.9770604 132.075761,13.4699229 L132.075761,13.4699229 C131.357525,12.9424685 130.420781,12.8153224 129.587936,13.1322456 L127.570497,13.8999438 C127.094305,14.0811497 126.627476,14.2860656 126.171761,14.5139229 L126.171761,14.5139229 C125.893332,14.6531374 125.554765,14.5402818 125.415551,14.2618528 C125.390256,14.2112634 125.37272,14.1571549 125.363532,14.1013455 L125.001761,11.9039229 C124.721653,10.202526 125.717547,8.54929407 127.35253,8.00153323 L128.998425,7.45011686 C130.698036,6.88070395 132.530269,6.83949654 134.253761,7.33192291 L134.283189,7.34033085 C135.953833,7.81765762 137.355269,8.95989562 138.159761,10.4999229 L138.159761,10.4999229 C138.973964,12.0585407 139.216672,13.8530662 138.845751,15.571971 L138.207906,18.5278365 C138.031941,19.3432854 137.811564,20.1485137 137.547761,20.9399229 L137.473453,21.1628476 C137.311041,21.6500831 137.574363,22.1767263 138.061598,22.3391382 C138.087965,22.3479272 138.114713,22.3555297 138.141761,22.3619229 L138.141761,22.3619229 C138.691986,22.4919761 139.037445,23.0378631 138.91944,23.5907977 L138.189766,27.0098447 C138.021101,27.8001603 137.243693,28.3041078 136.453378,28.1354429 C136.434083,28.1313251 136.414873,28.1268175 136.395761,28.1219229 L136.395761,28.1219229 C135.538972,27.9025014 134.647006,28.3220011 134.269601,29.1218748 L133.713761,30.2999229 C133.03664,31.7350148 131.357963,32.3931994 129.885884,31.8007772 L129.225638,31.5350686 C127.859601,30.9853221 127.197867,29.4322728 127.747614,28.066236 C127.766943,28.0182049 127.787668,27.9707471 127.809761,27.9239229 L127.809761,27.9239229 C128.506393,26.4474797 128.037506,24.6838796 126.699606,23.7483558 L126.621761,23.6939229 C125.193274,22.695056 124.567624,20.8918659 125.070456,19.2228928 L125.073761,19.2119229 C125.42727,18.0385757 126.665031,17.373965 127.838378,17.7274735 C128.033699,17.7863203 128.219973,17.8718212 128.391935,17.9815599 Z M157.642907,15.9764586 L157.41792,18.7460662 C157.352647,19.5495951 156.648343,20.1480689 155.844814,20.082795 C155.810623,20.0800175 155.776542,20.0760358 155.742632,20.0708571 L155.742632,20.0708571 C154.910483,19.9437717 154.13287,20.5153388 154.005784,21.3474879 C154.003689,21.3612044 154.001782,21.3749488 154.000063,21.3887174 L151.976469,37.5927927 C151.780883,39.158959 150.388123,40.2943398 148.814673,40.1702945 L148.814673,40.1702945 C147.328947,40.0531651 146.21948,38.7537936 146.336609,37.2680671 C146.339746,37.2282817 146.343764,37.1885708 146.348662,37.1489636 L148.150897,22.575389 C148.366571,20.8313624 147.127597,19.2427109 145.38357,19.0270366 C145.30481,19.0172967 145.225712,19.0105068 145.146444,19.0066812 L144.612111,18.9808931 C143.057434,18.9058609 141.857944,17.5847202 141.932977,16.0300428 C141.934183,16.0050458 141.935722,15.980066 141.937594,15.95511 L141.937594,15.95511 C142.058073,14.3488235 143.436145,13.1308304 145.045064,13.2086083 L145.874775,13.2487179 C147.8056,13.3420573 149.483729,11.9353274 149.728954,10.0178654 L149.805434,9.4198523 C150.005821,7.85298837 151.400778,6.71925089 152.975517,6.84339785 L152.975517,6.84339785 C154.460475,6.96046675 155.569369,8.25916618 155.4523,9.74412422 C155.449128,9.78435231 155.445054,9.82450416 155.440081,9.86454944 L155.094495,12.6472868 C154.995388,13.4453155 155.544635,14.1790162 156.338261,14.3087475 L156.338261,14.3087475 C157.141135,14.4399907 157.708777,15.1655991 157.642907,15.9764586 Z M144.780936,24.1487711 L145.457697,24.8038755 C146.511204,25.8236703 146.538533,27.5044136 145.518738,28.5579207 C145.511648,28.5652453 145.504515,28.572529 145.497341,28.5797715 L145.497341,28.5797715 C144.458458,29.6285485 142.766076,29.6365693 141.717299,28.5976864 C141.714299,28.5947147 141.711306,28.591736 141.70832,28.5887501 L141.114885,27.9953149 C140.078478,26.9589083 140.058264,25.2849025 141.069341,24.2237715 L141.069341,24.2237715 C142.065503,23.1782949 143.720578,23.1383173 144.766054,24.1344789 C144.771034,24.1392234 144.775994,24.1439874 144.780936,24.1487711 Z" id="星座配对"></path>
                <path d="M5.92968101,7.50281611 C6.96900462,6.48174403 8.65408115,6.48174403 9.69340477,7.50281611 C10.7327284,8.52388819 10.7327284,10.1793731 9.69340477,11.2004452 L6.24332465,14.5899385 C6.07010405,14.7601172 5.78925796,14.7601172 5.61603736,14.5899385 L2.16595725,11.2004452 C1.12663363,10.1793731 1.12663363,8.52388819 2.16595725,7.50281611 C3.20528087,6.48174403 4.89035739,6.48174403 5.92968101,7.50281611 Z" id="Combined-Shape-Copy-4" fill-rule="nonzero" transform="translate(5.929681, 10.727292) rotate(-30.000000) translate(-5.929681, -10.727292) "></path>
                <path d="M121.794468,32.9145096 C122.664513,32.0597431 124.075136,32.0597431 124.945181,32.9145096 C125.815226,33.769276 125.815226,35.1551263 124.945181,36.0098928 L122.057028,38.8473275 C121.91202,38.9897886 121.676916,38.9897886 121.531909,38.8473275 L118.643755,36.0098928 C117.77371,35.1551263 117.77371,33.769276 118.643755,32.9145096 C119.513801,32.0597431 120.924423,32.0597431 121.794468,32.9145096 Z" id="Combined-Shape-Copy-5" fill-rule="nonzero" transform="translate(121.794468, 35.613804) rotate(-300.000000) translate(-121.794468, -35.613804) "></path>
                <path d="M147.725559,2.75971469 C148.401631,2.09551525 149.49776,2.09551525 150.173832,2.75971469 C150.849904,3.42391414 150.849904,4.50079422 150.173832,5.16499367 L147.929582,7.36983273 C147.816903,7.48053263 147.634215,7.48053263 147.521536,7.36983273 L145.277286,5.16499367 C144.601214,4.50079422 144.601214,3.42391414 145.277286,2.75971469 C145.953358,2.09551525 147.049487,2.09551525 147.725559,2.75971469 Z" id="Combined-Shape-Copy-6" fill-rule="nonzero" transform="translate(147.725559, 4.857211) rotate(-300.000000) translate(-147.725559, -4.857211) "></path>
            </g>
        </g>
    </g>
</svg>