<?xml version="1.0" encoding="UTF-8"?>
<svg width="66px" height="73px" viewBox="0 0 66 73" version="1.1" xmlns="http://www.w3.org/2000/svg" xmlns:xlink="http://www.w3.org/1999/xlink">
    <!-- Generator: Sketch 51 (57462) - http://www.bohemiancoding.com/sketch -->
    <title>星座配对/星座圈</title>
    <desc>Created with Sketch.</desc>
    <defs>
        <linearGradient x1="50%" y1="-2.48949813e-15%" x2="50%" y2="100%" id="linearGradient-1">
            <stop stop-color="#AE45FF" offset="0%"></stop>
            <stop stop-color="#9262FB" offset="100%"></stop>
        </linearGradient>
        <path d="M9.65061039,43 C4.93397103,38.4528008 2,32.0690332 2,25 C2,11.1928813 13.1928813,0 27,0 C40.8071187,0 52,11.1928813 52,25 C52,32.0690332 49.066029,38.4528008 44.3493896,43 L45,43 C49.9705627,43 54,47.0294373 54,52 C54,56.9705627 49.9705627,61 45,61 L9,61 C4.02943725,61 -2.9439953e-15,56.9705627 -3.55271368e-15,52 C-6.08718376e-16,47.0294373 4.02943725,43 9,43 L9.65061039,43 Z" id="path-2"></path>
        <filter x="-19.4%" y="-12.3%" width="138.9%" height="134.4%" filterUnits="objectBoundingBox" id="filter-3">
            <feOffset dx="0" dy="3" in="SourceAlpha" result="shadowOffsetOuter1"></feOffset>
            <feGaussianBlur stdDeviation="3" in="shadowOffsetOuter1" result="shadowBlurOuter1"></feGaussianBlur>
            <feColorMatrix values="0 0 0 0 0.584313725   0 0 0 0 0.37254902   0 0 0 0 0.984313725  0 0 0 0.3 0" type="matrix" in="shadowBlurOuter1"></feColorMatrix>
        </filter>
        <filter x="-24.1%" y="-16.7%" width="148.3%" height="146.7%" filterUnits="objectBoundingBox" id="filter-4">
            <feOffset dx="0" dy="2" in="SourceAlpha" result="shadowOffsetOuter1"></feOffset>
            <feGaussianBlur stdDeviation="2" in="shadowOffsetOuter1" result="shadowBlurOuter1"></feGaussianBlur>
            <feColorMatrix values="0 0 0 0 0.378849357   0 0 0 0 0.110481949   0 0 0 0 0.862616922  0 0 0 0.3 0" type="matrix" in="shadowBlurOuter1" result="shadowMatrixOuter1"></feColorMatrix>
            <feMerge>
                <feMergeNode in="shadowMatrixOuter1"></feMergeNode>
                <feMergeNode in="SourceGraphic"></feMergeNode>
            </feMerge>
        </filter>
    </defs>
    <g id="星座配对" stroke="none" stroke-width="1" fill="none" fill-rule="evenodd">
        <g transform="translate(-300.000000, -543.000000)">
            <rect fill="#FFFFFF" x="0" y="0" width="375" height="667"></rect>
            <g id="星座配对/星座圈" transform="translate(306.000000, 546.000000)">
                <g id="Group-7">
                    <g id="Group-6">
                        <g id="Group-5">
                            <g id="Combined-Shape" fill-rule="nonzero">
                                <use fill="black" fill-opacity="1" filter="url(#filter-3)" xlink:href="#path-2"></use>
                                <use fill="url(#linearGradient-1)" xlink:href="#path-2"></use>
                            </g>
                            <text id="星座圈" font-family="PingFangSC-Medium, PingFang SC" font-size="12" font-weight="400" fill="#FFFFFF">
                                <tspan x="9" y="56">星座圈</tspan>
                            </text>
                            <g id="Group" filter="url(#filter-4)" transform="translate(12.000000, 6.000000)" fill="#FFFFFF" fill-rule="nonzero">
                                <g id="圈子-(1)" transform="translate(8.000000, 9.000000)">
                                    <path d="M19.2478276,0.535005225 C19.2478276,0.367816092 19.2200209,0.228491808 19.1838721,0.103099958 C18.4859228,-0.0808080878 17.579423,0.130964807 16.8119569,0.504353877 C16.6534585,0.579588986 16.2808481,0.808080794 15.7302746,1.14524556 C15.5022593,1.28456984 15.2992701,1.40717519 15.2102885,1.45733193 C15.2019465,1.46290491 15.1963851,1.47126437 15.1880431,1.47683735 C13.6809176,0.557297116 11.9179701,0.0167189133 10.0271116,0.0167189133 C4.53249912,0.0167189133 0.0611748279,4.49738767 0.0611748279,10.0034831 C0.0611748279,11.850923 0.572818895,13.5757576 1.44595064,15.0581679 C0.411539791,16.6548241 -0.100104275,17.8084291 0.0333680918,18.5886451 C0.0611748279,18.7474748 0.336461585,18.7753396 0.486617998,18.7753396 C3.56482446,18.7753396 10.6054918,12.0041797 11.4814042,11.1403692 C15.3493222,7.32845699 19.2506083,2.66945317 19.2478276,0.535005225 Z M5.40006951,12.2020202 C4.41849147,12.2020202 3.62043796,11.4022989 3.62043796,10.4186694 C3.62043796,9.43504004 4.41849149,8.6353187 5.40006951,8.6353187 C6.38164753,8.6353187 7.17970106,9.43504006 7.17970108,10.4186694 C7.17970111,11.4022988 6.38164755,12.2020202 5.40006951,12.2020202 Z M8.5311088,7.2086381 C7.35488357,7.2086381 6.39555093,6.24730059 6.39555093,5.0686172 C6.39555093,3.88993381 7.35488357,2.9285963 8.5311088,2.9285963 C9.70733404,2.9285963 10.6666667,3.88993381 10.6666667,5.0686172 C10.6666667,6.25008706 9.7101147,7.2086381 8.5311088,7.2086381 Z" id="Shape"></path>
                                    <path d="M18.5165103,4.79832811 C17.0232882,7.0191571 14.676399,9.68861024 12.3350713,11.9958203 C11.6982969,12.625566 7.83594023,16.3761755 4.59089328,18.3740857 C4.59367395,18.3712992 4.59645464,18.3712992 4.59923531,18.3685127 C6.16197426,19.3911529 8.02502607,19.9902473 10.0271116,19.9902473 C15.521724,19.9902473 19.9930483,15.5095785 19.9930483,10.0034831 C19.9930483,8.09474052 19.4480362,6.31696274 18.5165103,4.79832811 Z M12.8244699,16.4235458 C12.0403198,16.4235458 11.4007647,15.7826541 11.4007647,14.9968652 C11.4007647,14.2110763 12.0403198,13.5701846 12.8244699,13.5701846 C13.6086201,13.5701846 14.2481752,14.2110763 14.2481752,14.9968652 C14.2481752,15.7826541 13.6086201,16.4235458 12.8244699,16.4235458 Z" id="Shape"></path>
                                </g>
                                <path d="M11.3388849,6.24464431 L10.6286556,6.61803399 C10.3082317,6.78649078 9.91191562,6.66329713 9.74345882,6.34287327 C9.67637845,6.21527881 9.65323067,6.06912951 9.67759904,5.92705098 L9.81324079,5.13619895 C9.86887872,4.81180488 9.76133024,4.48080468 9.52564415,4.25106753 L8.95105652,3.69098301 C8.69182817,3.43829781 8.68652389,3.02330989 8.93920908,2.76408154 C9.03982965,2.66085545 9.17167283,2.59367799 9.31432778,2.57294902 L10.1083884,2.45756526 C10.4340985,2.4102368 10.7156641,2.20566743 10.8613261,1.91052396 L11.2164408,1.19098301 C11.3766527,0.866358175 11.7696906,0.733075186 12.0943154,0.893287117 C12.2235827,0.957084349 12.3282141,1.0617157 12.3920113,1.19098301 L12.747126,1.91052396 C12.892788,2.20566743 13.1743536,2.4102368 13.5000638,2.45756526 L14.2941244,2.57294902 C14.6523691,2.62500503 14.9005842,2.95761953 14.8485281,3.3158643 C14.8277992,3.45851925 14.7606217,3.59036244 14.6573956,3.69098301 L14.082808,4.25106753 C13.8471219,4.48080468 13.7395734,4.81180488 13.7952113,5.13619895 L13.9308531,5.92705098 C13.9920486,6.2838482 13.7524161,6.62269826 13.3956189,6.68389377 C13.2535403,6.70826214 13.107391,6.68511437 12.9797966,6.61803399 L12.2695672,6.24464431 C11.9782432,6.09148621 11.630209,6.09148621 11.3388849,6.24464431 Z" id="Star"></path>
                                <path d="M2.33888487,14.6674509 L1.93767251,14.8783807 C1.70147705,15.002556 1.40933882,14.9117457 1.28516352,14.6755503 C1.23571626,14.581496 1.21865324,14.4737643 1.23661601,14.3690333 L1.31324075,13.9222768 C1.36887869,13.5978827 1.26133021,13.2668825 1.02564412,13.0371454 L0.7010565,12.7207506 C0.509970358,12.5344877 0.506060391,12.2285858 0.692323345,12.0374997 C0.76649423,11.9614082 0.863680383,11.9118893 0.968836255,11.8966093 L1.41740531,11.8314284 C1.74311547,11.7840999 2.02468106,11.5795306 2.17034307,11.2843871 L2.37094925,10.8779146 C2.48904699,10.6386224 2.77876872,10.540375 3.01806086,10.6584727 C3.11334824,10.7054998 3.19047561,10.7826272 3.23750275,10.8779146 L3.43810893,11.2843871 C3.58377094,11.5795306 3.86533653,11.7840999 4.19104669,11.8314284 L4.63961575,11.8966093 C4.9036903,11.9349816 5.08665814,12.1801632 5.04828586,12.4442377 C5.03300582,12.5493936 4.983487,12.6465798 4.9073955,12.7207506 L4.58280788,13.0371454 C4.34712179,13.2668825 4.23957331,13.5978827 4.29521125,13.9222768 L4.37183599,14.3690333 C4.41694531,14.6320408 4.24030392,14.8818189 3.97729641,14.9269282 C3.87256544,14.944891 3.76483376,14.9278279 3.67077949,14.8783807 L3.26956713,14.6674509 C2.9782431,14.5142928 2.6302089,14.5142928 2.33888487,14.6674509 Z" id="Star-Copy"></path>
                                <path d="M2.33888487,25.0902575 L2.2466895,25.1387275 C2.09472244,25.2186213 1.90676206,25.1601944 1.82686825,25.0082273 C1.79505411,24.9477133 1.78407584,24.8783992 1.795633,24.8110158 L1.81324075,24.7083547 C1.86887869,24.3839607 1.76133021,24.0529605 1.52564412,23.8232233 L1.4510565,23.7505183 C1.32811256,23.6306776 1.32559691,23.4338618 1.44543763,23.3109178 C1.49315883,23.2619609 1.55568795,23.2301007 1.62334475,23.2202696 L1.72642231,23.2052916 C2.05213247,23.1579631 2.33369806,22.9533937 2.47936007,22.6582503 L2.52545775,22.5648462 C2.60144128,22.4108867 2.7878469,22.3476747 2.94180636,22.4236583 C3.00311382,22.4539153 3.05273721,22.5035387 3.08299425,22.5648462 L3.12909193,22.6582503 C3.27475394,22.9533937 3.55631953,23.1579631 3.88202969,23.2052916 L3.98510725,23.2202696 C4.15501159,23.2449582 4.27273225,23.4027069 4.24804371,23.5726112 C4.2382126,23.640268 4.20635242,23.7027971 4.1573955,23.7505183 L4.08280788,23.8232233 C3.84712179,24.0529605 3.73957331,24.3839607 3.79521125,24.7083547 L3.812819,24.8110158 C3.84184212,24.9802336 3.72819187,25.1409396 3.55897406,25.1699627 C3.49159064,25.1815199 3.42227658,25.1705416 3.3617625,25.1387275 L3.26956713,25.0902575 C2.9782431,24.9370994 2.6302089,24.9370994 2.33888487,25.0902575 Z" id="Star-Copy-2"></path>
                            </g>
                        </g>
                    </g>
                </g>
            </g>
        </g>
    </g>
</svg>