<?xml version="1.0" encoding="UTF-8"?>
<svg width="375px" height="55px" viewBox="0 0 375 55" version="1.1" xmlns="http://www.w3.org/2000/svg" xmlns:xlink="http://www.w3.org/1999/xlink">
    <!-- Generator: Sketch 51 (57462) - http://www.bohemiancoding.com/sketch -->
    <title>配对结果/顶部背景</title>
    <desc>Created with Sketch.</desc>
    <defs>
        <rect id="path-1" x="0" y="0" width="375" height="64"></rect>
        <linearGradient x1="50.5184515%" y1="-92.9888048%" x2="50.5184515%" y2="100%" id="linearGradient-3">
            <stop stop-color="#9262FB" stop-opacity="0.4" offset="0%"></stop>
            <stop stop-color="#9262FB" stop-opacity="0" offset="100%"></stop>
        </linearGradient>
        <linearGradient x1="100%" y1="50%" x2="0%" y2="50%" id="linearGradient-4">
            <stop stop-color="#FFFFFF" stop-opacity="0" offset="0%"></stop>
            <stop stop-color="#FFFFFF" offset="100%"></stop>
        </linearGradient>
    </defs>
    <g id="星座配对" stroke="none" stroke-width="1" fill="none" fill-rule="evenodd">
        <g id="配对结果" transform="translate(0.000000, -64.000000)">
            <rect fill="#FFFFFF" x="0" y="0" width="375" height="935"></rect>
            <g id="配对结果/顶部背景" transform="translate(0.000000, 64.000000)">
                <mask id="mask-2" fill="white">
                    <use xlink:href="#path-1"></use>
                </mask>
                <g id="Rectangle" fill-rule="nonzero"></g>
                <g id="Group-4" mask="url(#mask-2)" fill-rule="nonzero">
                    <g transform="translate(-108.000000, 0.000000)">
                        <path d="M70,54.7399943 C129.563802,27.3402547 175.920332,20.7832356 209.06959,35.0689371 C316,88.4880412 366.669922,7.88452554 428.519531,35.0689371 C478.90625,60.725944 523.39974,56.1154764 562,21.2375343 L562,0 L70,0 L70,54.7399943 Z" id="Path-10-Copy-9" fill="url(#linearGradient-3)"></path>
                        <path d="M108,54.7399943 C167.563802,27.3402547 213.920332,20.7832356 247.06959,35.0689371 C354,88.4880412 404.669922,7.88452554 466.519531,35.0689371 C516.90625,60.725944 561.39974,56.1154764 600,21.2375343 L600,0 L108,0 L108,54.7399943 Z" id="Path-10-Copy-8" fill="url(#linearGradient-3)"></path>
                        <path d="M0,54.7399943 C59.5638021,27.3402547 105.920332,20.7832356 139.06959,35.0689371 C246,88.4880412 296.669922,7.88452554 358.519531,35.0689371 C408.90625,60.725944 453.39974,56.1154764 492,21.2375343 L492,0 L0,0 L0,54.7399943 Z" id="Path-10-Copy-7" fill="url(#linearGradient-3)"></path>
                        <polygon id="Star-2-Copy-5" fill="#9262FB" opacity="0.5" transform="translate(193.485281, 18.485281) rotate(-315.000000) translate(-193.485281, -18.485281) " points="193.485281 20.2852814 189.242641 22.7279221 191.685281 18.4852814 189.242641 14.2426407 193.485281 16.6852814 197.727922 14.2426407 195.285281 18.4852814 197.727922 22.7279221"></polygon>
                        <polygon id="Star-2-Copy-6" fill="#FFFFFF" transform="translate(269.656854, 37.656854) rotate(-315.000000) translate(-269.656854, -37.656854) " points="269.656854 38.8568542 266.828427 40.4852814 268.456854 37.6568542 266.828427 34.8284271 269.656854 36.4568542 272.485281 34.8284271 270.856854 37.6568542 272.485281 40.4852814"></polygon>
                        <rect id="Rectangle-2" fill="url(#linearGradient-4)" transform="translate(139.960155, 23.960155) rotate(-45.000000) translate(-139.960155, -23.960155) " x="124.960155" y="23.4601551" width="30" height="1" rx="0.5"></rect>
                        <rect id="Rectangle-2-Copy-2" fill="url(#linearGradient-4)" transform="translate(385.031223, 23.031223) rotate(-45.000000) translate(-385.031223, -23.031223) " x="360.031223" y="22.5312229" width="50" height="1" rx="0.5"></rect>
                        <rect id="Rectangle-2-Copy" fill="url(#linearGradient-4)" opacity="0.5" transform="translate(263.424621, 18.424621) rotate(-45.000000) translate(-263.424621, -18.424621) " x="253.424621" y="17.9246212" width="20" height="1" rx="0.5"></rect>
                        <polygon id="Star-2-Copy-9" fill="#9262FB" opacity="0.300000012" transform="translate(135.242641, 37.242641) rotate(-315.000000) translate(-135.242641, -37.242641) " points="135.242641 38.1426407 133.12132 39.363961 134.342641 37.2426407 133.12132 35.1213203 135.242641 36.3426407 137.363961 35.1213203 136.142641 37.2426407 137.363961 39.363961"></polygon>
                    </g>
                </g>
            </g>
        </g>
    </g>
</svg>