<?xml version="1.0" encoding="UTF-8"?>
<svg width="50px" height="50px" viewBox="0 0 50 50" version="1.1" xmlns="http://www.w3.org/2000/svg" xmlns:xlink="http://www.w3.org/1999/xlink">
    <!-- Generator: Sketch 49 (51002) - http://www.bohemiancoding.com/sketch -->
    <title>icon/财富运势</title>
    <desc>Created with Sketch.</desc>
    <defs>
        <linearGradient x1="50%" y1="0%" x2="50%" y2="100%" id="linearGradient-1">
            <stop stop-color="#FAD961" offset="0%"></stop>
            <stop stop-color="#F76B1C" offset="100%"></stop>
        </linearGradient>
    </defs>
    <g id="icon/财富运势" stroke="none" stroke-width="1" fill="none" fill-rule="evenodd">
        <g id="icon-copy-3">
            <rect id="Rectangle" fill="url(#linearGradient-1)" x="0" y="0" width="50" height="50" rx="10.9090909"></rect>
            <path d="M29.7262195,41.1521951 L21.8603659,41.1521951 C22.079878,39.2497561 22.1530488,37.7497561 22.1530488,35.7009756 L22.1530488,34.1278049 L16.6652439,34.1278049 C14.9823171,34.1278049 13.8847561,34.2009756 12.7140244,34.3839024 L12.7140244,29.444878 C13.8115854,29.6643902 14.9457317,29.737561 16.6652439,29.737561 L22.1530488,29.737561 L22.1530488,29.0058537 L20.9091463,26.9570732 L16.7384146,26.9570732 C14.9823171,26.9570732 14.2506098,26.9936585 12.7871951,27.2131707 L12.7871951,22.2741463 C13.9579268,22.4936585 15.0189024,22.5668293 16.7384146,22.5668293 L18.275,22.5668293 L13.7018293,15.14 C12.9335366,13.8595122 11.5067073,11.7009756 10.775,10.7131707 L19.8115854,10.7131707 C20.1408537,11.8473171 20.5067073,12.6887805 21.4945122,14.5546341 L25.775,22.64 L30.0920732,14.5546341 C31.1530488,12.542439 31.4823171,11.7741463 31.775,10.7131707 L40.775,10.7131707 C40.1164634,11.6643902 38.2140244,14.5912195 37.8847561,15.14 L33.3481707,22.5668293 L34.8481707,22.5668293 C36.5676829,22.5668293 37.4091463,22.4936585 38.7628049,22.2741463 L38.7628049,27.2131707 C37.5554878,27.0302439 36.4945122,26.9570732 34.8481707,26.9570732 L30.7140244,26.9570732 L29.4335366,29.0058537 L29.4335366,29.737561 L34.775,29.737561 C36.4213415,29.737561 37.4457317,29.6643902 38.6896341,29.444878 L38.6896341,34.3839024 C37.2993902,34.2009756 36.3847561,34.1278049 34.775,34.1278049 L29.4335366,34.1278049 L29.4335366,35.7009756 C29.4335366,38.1521951 29.5067073,39.4692683 29.7262195,41.1521951 Z" id="¥" fill="#FFFFFF"></path>
        </g>
    </g>
</svg>