<?xml version="1.0" encoding="UTF-8"?>
<svg width="300px" height="300px" viewBox="0 0 300 300" version="1.1" xmlns="http://www.w3.org/2000/svg" xmlns:xlink="http://www.w3.org/1999/xlink">
    <!-- Generator: Sketch 49 (51002) - http://www.bohemiancoding.com/sketch -->
    <title>双子座</title>
    <desc>Created with Sketch.</desc>
    <defs></defs>
    <g id="双子座" stroke="none" stroke-width="1" fill="none" fill-rule="evenodd">
        <g id="双子座-copy" transform="translate(2.000000, 33.000000)">
            <path d="M69.5213569,178.423108 L123.424916,139.253607 L173.971245,136.969647 L162.548667,87.7999629 C168.400678,81.6662928 172.208204,76.7536831 173.971245,73.0621335 C175.734285,69.370584 179.963449,55.2675181 186.658736,30.7529359 C169.808931,30.9251205 156.601019,31.9732917 147.035001,33.8974495 C137.468982,35.8216074 128.575233,38.6200708 120.353753,42.2928399 C113.91839,31.5914626 108.381826,23.6904905 103.744062,18.5899237 C99.1062984,13.4893569 90.975837,7.29721272 79.3526781,0.0134911753 C70.3470457,12.9947118 64.2226777,23.2411934 60.9795742,30.7529359 C57.7364707,38.2646784 54.39089,48.9956459 50.942832,62.9458384 C41.1683935,68.6879459 34.0575612,73.4734208 29.6103349,77.3022632 C25.1631087,81.1311055 15.3344473,91.659465 0.124350733,108.887342 C9.27606234,115.507216 16.765212,120.175943 22.5917996,122.893524 C28.4183873,125.611105 38.9991241,129.605897 54.3340101,134.8779 C56.8068105,146.230716 59.0219986,154.713507 60.9795742,160.326274 C62.9371499,165.939041 65.7844108,171.971319 69.5213569,178.423108 Z" id="Path-237" stroke="#372400" stroke-width="2.84702835" fill="#FFF686"></path>
            <path d="M142.090823,72.767303 L85.4190732,72.767303 C75.2492646,119.024582 68.8059833,143.574006 66.0892294,146.415576 C65.2984374,147.242699 54.9573078,139.805275 53.220629,124.885687 C51.4839502,109.9661 44.372021,93.8272754 73.6434048,70.7934081 C93.1576607,55.4374966 115.973467,56.0954615 142.090823,72.767303 Z" id="Path-269" fill="#D0C542"></path>
            <path d="M95.2526637,65.7779616 C61.8936828,74.4125161 48.1533386,102.310057 57.5109868,131.185998 C66.868635,160.061939 99.0593232,157.633225 123.061187,149.516037 C147.06305,141.398848 169.991972,127.839762 161.231203,102.496647 C152.470433,77.1535322 128.611645,57.1434071 95.2526637,65.7779616 Z" id="Path-259" stroke="#372400" stroke-width="2.84702835" fill="#FFE1D6"></path>
            <polygon id="Path-261" stroke="#372400" stroke-width="2.84702835" fill="#FFE1D6" stroke-linejoin="round" points="83.8488747 199.131852 88.2442269 210.371093 133.04809 192.138108 130.793049 187.892611"></polygon>
            <path d="M120.996784,153.568183 C112.186212,145.450145 102.679178,147.687745 92.4756814,160.280983 C82.2721852,172.87422 78.2319447,187.356776 80.3549601,203.72865 C94.3685796,198.480338 104.86125,195.054706 111.832971,193.451754 C118.804692,191.848802 127.165406,190.939626 136.915113,190.724227 L120.996784,153.568183 Z" id="Path-260" stroke="#372400" stroke-width="2.84702835" fill="#FFFFFF" stroke-linecap="round" stroke-linejoin="round"></path>
            <path d="M145.95355,199.354393 C151.049275,199.895764 154.754252,200.41276 157.068481,200.905382 C159.38271,201.398005 163.443797,202.534145 169.251742,204.313802 L174.870269,217.824426 C171.957344,219.853395 166.023415,221.288408 157.068481,222.129466 C148.113547,222.970524 138.768562,222.970524 129.033525,222.129466 L145.95355,199.354393 Z" id="Path-263" stroke="#372400" stroke-width="2.84702835" fill="#FFE1D6" stroke-linecap="round" stroke-linejoin="round"></path>
            <path d="M126.494369,193.211617 C116.174848,195.286104 109.029024,197.100064 105.056897,198.653496 C101.08477,200.206928 94.1986022,203.880644 84.3983936,209.674644 C82.4784767,217.914037 86.9652579,224.73357 97.8587372,230.133242 C114.198956,238.23275 136.684661,234.290193 139.944411,233.354769 C143.20416,232.419346 146.529604,218.533445 147.144819,215.663204 C147.554963,213.74971 147.554963,208.651366 147.144819,200.368171 C147.994831,197.856177 147.222305,196.382111 144.82724,195.945973 C141.234644,195.291767 132.505821,196.346062 129.823372,195.945973 C128.035073,195.679248 126.925405,194.767795 126.494369,193.211617 Z" id="Path-262" stroke="#372400" stroke-width="2.84702835" fill="#FFFFFF" stroke-linecap="round" stroke-linejoin="round"></path>
            <path d="M116.792199,168.195948 C129.844345,169.419682 136.370418,171.52443 136.370418,174.510194 C136.370418,177.495957 130.109275,181.106586 117.586988,185.342081 C115.308893,180.924312 114.169845,177.8288 114.169845,176.055543 C114.169845,174.282287 115.043963,171.662422 116.792199,168.195948 Z" id="Path-265" stroke="#372400" stroke-width="2.84702835" fill="#FFE1D6"></path>
            <path d="M110.140305,163.008152 L117.420178,167.904404 C115.433044,171.484296 114.486501,174.19239 114.580549,176.028686 C114.674597,177.864981 115.925869,181.106714 118.334364,185.753884 L105.174568,190.733816" id="Path-264" stroke="#372400" stroke-width="2.84702835" stroke-linecap="round" stroke-linejoin="round"></path>
            <path d="M86.5885585,89.0710624 C77.4658476,91.2341314 74.2903203,100.095672 77.5068035,108.270507 C80.7232866,116.445342 101.911924,114.729348 102.745455,103.039668 C103.578986,91.349987 95.7112694,86.9079934 86.5885585,89.0710624 Z" id="Path-266" stroke="#372400" stroke-width="2.27762268" fill="#FFFFFF"></path>
            <path d="M126.302844,82.5017751 C117.180133,84.6648441 114.004606,93.5263843 117.221089,101.701219 C120.437572,109.876054 141.626209,108.160061 142.45974,96.4703803 C143.293271,84.7806997 135.425555,80.3387061 126.302844,82.5017751 Z" id="Path-266-Copy" stroke="#372400" stroke-width="2.27762268" fill="#FFFFFF"></path>
            <ellipse id="Oval-8" fill="#000000" cx="93.5714286" cy="96.5399618" rx="3.28571429" ry="2.5705907"></ellipse>
            <ellipse id="Oval-8-Copy" fill="#000000" cx="133.571429" cy="89.9706745" rx="3.28571429" ry="2.5705907"></ellipse>
            <path d="M94.2982626,118.073578 C97.3883449,112.424617 89.8017535,110.528563 84.0805919,111.743454 C78.3594303,112.958345 72.6491136,120.553517 75.1942782,122.130315 C77.7394428,123.707114 91.2081802,123.722538 94.2982626,118.073578 Z" id="Path-267" stroke="#372400" stroke-width="1.70821701" fill="#A1D9FF"></path>
            <path d="M148.298263,107.505594 C151.388345,101.856633 143.801753,99.9605794 138.080592,101.17547 C132.35943,102.390361 129.11766,108.313491 131.662824,109.890289 C134.207989,111.467087 145.20818,113.154554 148.298263,107.505594 Z" id="Path-267-Copy" stroke="#372400" stroke-width="1.70821701" fill="#A1D9FF"></path>
            <path d="M127.230528,136.087579 C126.109211,139.676236 122.56465,139.851739 117.079269,136.958586 C116.730363,136.774563 116.596748,136.342631 116.780831,135.99384 C116.964914,135.645048 117.396987,135.511476 117.745893,135.695499 C122.556747,138.232887 125.30483,138.53261 126.068808,136.087579 C126.8366,133.630341 124.875616,131.776431 119.992699,131.317433 C119.667398,131.286855 118.421396,131.184947 118.344668,130.928735 C118.252658,130.621493 119.390264,130.142177 119.740932,129.967448 C123.19966,128.244057 124.479671,126.627413 123.428096,124.93685 C122.35052,123.204484 120.066634,123.208653 116.85786,125.172909 C116.521435,125.378852 116.081705,125.273165 115.875695,124.93685 C115.669685,124.600535 115.775407,124.160948 116.111831,123.955005 C119.904719,121.633183 122.753733,121.633183 124.342209,124.186896 C125.686933,126.348741 124.306011,128.511582 121.628655,130.314995 C125.811918,131.132619 128.199615,132.986121 127.230528,136.087579 Z" id="Path-268" fill="#372400" fill-rule="nonzero"></path>
            <polygon id="Path-270" stroke="#372400" stroke-width="2.27762268" fill="#AFD1FF" stroke-linecap="round" stroke-linejoin="round" points="118.462227 158.600353 181.045991 170.312717 182.039732 207.832017 127.070664 195.64361"></polygon>
            <polygon id="Path-280" stroke="#372400" stroke-width="2.84702835" fill="#FFF686" stroke-linecap="round" stroke-linejoin="round" points="251.108579 163.539385 258.367701 171.630621 270.496208 146.480803 297.860354 138.003548 272.888785 117.451884 275.913577 92.4619598 241.977418 103.147463 206.204237 96.1168295 216.842116 128.372025 202.757337 139.015899 238.007142 146.480803"></polygon>
            <path d="M250.325656,156.936094 C250.971314,169.24885 246.987076,178.536493 238.372941,184.799023 C229.758806,191.061552 218.537582,192.828374 204.709271,190.099489 L215.219014,154.569348 L230.969504,148.572697 L250.325656,156.936094 Z" id="Path-289" stroke="#372400" stroke-width="2.84702835" fill="#FFE1D6" stroke-linejoin="round"></path>
            <path d="M226.641101,157.644189 C227.460653,156.638618 228.54337,156.120931 229.889251,156.09113 C231.235132,156.061328 238.19783,156.400868 250.777344,157.109748 L244.724134,181.666937 L228.532484,195.624053 L215.874164,184.865729 L226.641101,157.644189 Z" id="Path-292" stroke="#372400" stroke-width="2.27762268" fill="#000000" stroke-linecap="round" stroke-linejoin="round"></path>
            <polygon id="Path-271" stroke="#372400" stroke-width="2.27762268" fill="#77A2DB" stroke-linecap="round" stroke-linejoin="round" points="181.017766 170.691353 232.169258 141.918096 211.852132 194.631126 182.409593 208.380492"></polygon>
            <polygon id="Path-272" stroke="#372400" stroke-width="2.27762268" fill="#97C4FF" stroke-linecap="round" stroke-linejoin="round" points="115.777125 156.822978 179.949284 167.79391 179.949284 182.896527 118.515567 170.309176"></polygon>
            <polygon id="Path-273" stroke="#372400" stroke-width="2.27762268" fill="#6290CD" stroke-linecap="round" stroke-linejoin="round" points="180.144696 168.346451 234.062622 139.856765 226.867582 158.195698 180.144696 183.06916"></polygon>
            <polygon id="Path-274" stroke="#372400" stroke-width="2.27762268" fill="#AFD1FF" stroke-linecap="round" stroke-linejoin="round" points="116.378887 156.430825 167.237355 135.499073 233.720131 139.946425 180.411927 167.939954"></polygon>
            <polygon id="Path-275" stroke="#372400" stroke-width="1.70821701" fill="#FF8181" stroke-linecap="round" stroke-linejoin="round" points="215.674919 148.998561 152.569406 140.623158 136.436597 146.904972 202.12508 155.140942"></polygon>
            <polygon id="Path-276" stroke="#372400" stroke-width="1.70821701" fill="#C15D5D" stroke-linecap="round" stroke-linejoin="round" points="202.045378 155.487952 215.244949 148.865418 203.634172 198.779737 197.778183 201.368679"></polygon>
            <polygon id="Path-277" stroke="#372400" stroke-width="1.70821701" fill="#FF9999" stroke-linecap="round" stroke-linejoin="round" points="207.831104 137.690876 156.33794 162.993734 141.069792 160.978249 194.571232 136.178082"></polygon>
            <polygon id="Path-278" stroke="#372400" stroke-width="1.42351417" fill="#FF8181" stroke-linecap="round" stroke-linejoin="round" points="156.243556 162.875793 159.071923 202.985785 147.681899 200.550429 141.959803 160.499955"></polygon>
            <path d="M178.016251,146.300177 C183.611534,132.042218 187.646198,124.699223 190.120243,124.271193 C193.83131,123.629147 196.754929,138.53817 194.582371,143.4341 C193.133999,146.698054 188.044423,148.428096 179.313643,148.624226 C172.051566,153.078367 166.700012,155.011076 163.258979,154.422353 C158.09743,153.539269 151.83638,147.134037 156.28681,144.684589 C159.253763,143.051623 166.49691,143.590153 178.016251,146.300177 Z" id="Path-279" stroke="#372400" stroke-width="1.70821701" fill="#FF8181" stroke-linecap="round" stroke-linejoin="round"></path>
            <path d="M257.103954,119.243369 C246.294907,111.036312 221.648902,111.09512 219.593318,130.055615 C217.537733,149.01611 241.110565,159.212553 254.103775,154.84985 C267.096985,150.487146 267.913,127.450426 257.103954,119.243369 Z" id="Path-281" stroke="#372400" stroke-width="2.84702835" fill="#FFE1D6"></path>
            <path d="M252.857482,128.803847 C253.434645,130.764858 253.951997,132.236766 254.40954,133.219572 C254.867083,134.202377 256.060197,136.40456 257.98888,139.826121 C251.326215,137.086583 247.776065,134.884399 247.33843,133.219572 C246.900796,131.554744 248.74048,130.082836 252.857482,128.803847 Z" id="Path-282" stroke="#372400" stroke-width="1.13881134" fill="#FFFFFF" stroke-linecap="round" stroke-linejoin="round"></path>
            <ellipse id="Oval-9" fill="#000000" cx="252.714286" cy="133.242285" rx="1.57142857" ry="1.57091654"></ellipse>
            <path d="M255.68231,127.772227 C255.823622,127.031824 256.8305,126.659423 257.273971,127.095598 C257.717442,127.531773 257.585069,129.201146 257.716527,129.772976 C257.804166,130.154196 258.187201,130.987276 258.865632,132.272217 C257.815415,131.425565 257.090289,130.71949 256.690252,130.153993 C256.090198,129.305747 255.540998,128.51263 255.68231,127.772227 Z" id="Path-283" fill="#372400"></path>
            <path d="M240.827079,119.602908 C241.441503,120.134848 241.607718,120.644765 241.325724,121.132658 C240.902734,121.864497 239.453203,121.859717 238.640408,121.859717 C238.098545,121.859717 236.717919,121.74004 234.49853,121.500686 C236.050043,121.292686 237.334202,121.036228 238.351008,120.731313 C239.367814,120.426398 240.193171,120.050263 240.827079,119.602908 Z" id="Path-284" fill="#372400"></path>
            <path d="M241.371078,124.48584 C241.629344,129.008078 240.499469,131.20265 237.981453,131.069556 C235.463437,130.936462 232.177632,128.508492 228.124039,123.785646 C231.702831,125.003217 234.403695,125.66018 236.226632,125.756535 C238.049569,125.852889 239.764384,125.429324 241.371078,124.48584 Z" id="Path-285" stroke="#372400" stroke-width="1.13881134" fill="#FFFFFF" stroke-linecap="round" stroke-linejoin="round"></path>
            <ellipse id="Oval-9-Copy" fill="#000000" cx="237.857143" cy="127.24424" rx="1.57142857" ry="1.57091654"></ellipse>
            <path d="M237.550199,144.522926 L237.140191,147.935621 L239.365494,146.229274 C239.124906,145.305125 238.891091,144.736343 238.664048,144.522926 C238.437006,144.30951 238.065723,144.30951 237.550199,144.522926 Z" id="Path-287" fill="#FFFFFF"></path>
            <path d="M233.102789,143.057036 C235.306632,142.930527 236.840337,143.140852 237.703903,143.688011 C238.567468,144.235171 239.3276,145.478231 239.984298,147.417192" id="Path-286" stroke="#372400" stroke-width="1.13881134" stroke-linecap="round" stroke-linejoin="round"></path>
            <path d="M268.857143,121.959644 L268.857143,125.742674 C271.617465,125.397506 273.611121,124.962057 274.838109,124.436329 C276.065097,123.910601 278.670625,121.847549 282.654691,118.247172 C278.958541,120.302343 275.868323,121.539833 273.38404,121.959644 C270.899756,122.379455 269.39079,122.379455 268.857143,121.959644 Z" id="Path-288" stroke="#372400" stroke-width="1.13881134" fill="#940404" stroke-linecap="round" stroke-linejoin="round"></path>
            <path d="M229.4372,98.8869485 L229.4372,102.669978 C232.197523,102.32481 234.191178,101.889362 235.418166,101.363634 C236.645155,100.837906 239.250682,98.7748536 243.234748,95.1744767 C239.538598,97.2296471 236.448381,98.4671377 233.964097,98.8869485 C231.479813,99.3067593 229.970848,99.3067593 229.4372,98.8869485 Z" id="Path-288-Copy" stroke="#372400" stroke-width="1.13881134" fill="#940404" stroke-linecap="round" stroke-linejoin="round" transform="translate(236.335974, 98.922228) scale(-1, 1) rotate(-85.000000) translate(-236.335974, -98.922228) "></path>
            <path d="M233.133881,158.263111 C225.364833,157.482909 220.323722,157.482909 218.010547,158.263111 C214.540786,159.433415 214.120392,162.916916 215.500683,165.042818 C216.880974,167.16872 221.399958,167.392307 224.213278,167.816457 C226.088825,168.099223 229.323821,167.944652 233.918265,167.352746 C232.736511,166.286257 231.956291,164.768357 231.577605,162.799044 C231.198919,160.829731 231.717677,159.317754 233.133881,158.263111 Z" id="Path-290" stroke="#372400" stroke-width="1.13881134" fill="#FFE1D6" stroke-linecap="round" stroke-linejoin="round"></path>
            <path d="M247.142857,182.485476 C253.925492,179.765102 258.816157,178.676702 261.814853,179.220274 C266.312896,180.035632 265.04264,184.152787 266.773972,186.043998 C267.928193,187.304805 271.165819,189.697155 276.486849,193.221047 C269.979121,191.709469 265.598911,190.95368 263.34622,190.95368 C261.093529,190.95368 259.088066,191.709469 257.32983,193.221047 C254.144673,190.585058 252.039069,189.152877 251.013017,188.924503 C249.986966,188.69613 248.696913,189.372522 247.142857,190.95368 L247.142857,182.485476 Z" id="Path-291" stroke="#372400" stroke-width="2.56232551" fill="#000000" stroke-linejoin="round"></path>
            <path d="M73.3957502,191.501552 C73.9893131,188.835976 73.9893131,187.243145 73.3957502,186.72306 C60.4221374,175.355462 43.1150133,169.834235 36.9656117,173.443028 C30.4774693,177.250612 30.4774693,182.647255 36.9656117,189.632958 C37.0515581,191.823313 37.491981,193.347006 38.2868803,194.204038 C39.0817797,195.06107 40.7373736,195.797226 43.253662,196.412506 L47.2042645,203.567752 L51.3515012,205.963362 L58.0210312,206.935371 L64.8301384,205.963362 L71.3860261,203.567752 L73.3957502,198.577605 L73.3957502,191.501552 Z" id="Path-296" fill="#FFFFFF"></path>
            <path d="M60.2505978,186.224391 C57.7659074,189.803656 57.4927094,192.420196 59.4310038,194.074011 C62.3384455,196.554733 76.9274708,195.365224 73.0620458,187.459383 C69.1966207,179.553541 42.8375436,168.769633 35.2242297,174.21623 C27.6109158,179.662827 34.6512393,187.336337 36.3983281,188.889573 C37.5630539,189.925063 40.9973022,191.10299 46.7010729,192.423354" id="Path-293" stroke="#372400" stroke-width="2.84702835" stroke-linecap="round" stroke-linejoin="round"></path>
            <path d="M36.9679695,189.475513 C36.4354573,191.897835 37.2947691,193.76423 39.545905,195.074698 C41.7970409,196.385165 46.2416652,197.606382 52.879778,198.73835" id="Path-294" stroke="#372400" stroke-width="2.84702835" stroke-linecap="round" stroke-linejoin="round"></path>
            <path d="M43.5922311,197.176631 C46.0945623,204.255041 51.6884986,207.515968 60.3740399,206.959412 C69.0595811,206.402856 73.4023518,202.974271 73.4023518,196.673656" id="Path-295" stroke="#372400" stroke-width="2.84702835" stroke-linecap="round" stroke-linejoin="round"></path>
            <path d="M60.1361419,135.858801 C53.3865479,141.133213 56.5620091,145.55065 66.8857359,144.532404 C77.2094626,143.514159 86.5542001,136.748256 81.7507107,132.610308 C76.9472213,128.472359 66.8857359,130.58439 60.1361419,135.858801 Z" id="Path-297" fill="#EB6262"></path>
            <path d="M139.662052,121.309407 C139.662052,113.51152 155.606409,110.365809 160.869162,110.05181 C166.131916,109.737812 175.37549,115.590865 167.89269,119.625046 C160.40989,123.659228 139.662052,129.107294 139.662052,121.309407 Z" id="Path-298" fill="#EB6262"></path>
            <path d="M226.090871,131.707164 C228.613068,130.663875 224.390449,125.096334 220.838622,124.181663 C217.286794,123.266991 211.970681,125.315149 213.801863,127.813983 C215.633045,130.312816 223.568675,132.750453 226.090871,131.707164 Z" id="Path-299" fill="#EB6262"></path>
            <path d="M266.948014,150.843784 C269.470211,149.800494 265.247592,144.232954 261.695765,143.318282 C258.143937,142.403611 252.827824,144.451769 254.659006,146.950602 C256.490188,149.449436 264.425817,151.887073 266.948014,150.843784 Z" id="Path-299-Copy" fill="#EB6262"></path>
        </g>
    </g>
</svg>