<?xml version="1.0" encoding="UTF-8"?>
<svg width="300px" height="300px" viewBox="0 0 300 300" version="1.1" xmlns="http://www.w3.org/2000/svg" xmlns:xlink="http://www.w3.org/1999/xlink">
    <!-- Generator: Sketch 49 (51002) - http://www.bohemiancoding.com/sketch -->
    <title>巨蟹座</title>
    <desc>Created with Sketch.</desc>
    <defs>
        <path d="M119.324586,237.054258 C117.183955,227.527194 116.561467,211.590385 137.745489,207.878992 C158.929512,204.1676 165.199828,219.592229 165.855105,231.102689 C166.510383,242.61315 157.491116,259.152734 142.444294,259.152734 C127.397471,259.152734 121.465217,246.581323 119.324586,237.054258 Z" id="path-1"></path>
        <filter x="-2.1%" y="-1.9%" width="108.4%" height="105.8%" filterUnits="objectBoundingBox" id="filter-2">
            <feOffset dx="2" dy="1" in="SourceAlpha" result="shadowOffsetOuter1"></feOffset>
            <feColorMatrix values="0 0 0 0 0.215686275   0 0 0 0 0.141176471   0 0 0 0 0  0 0 0 1 0" type="matrix" in="shadowOffsetOuter1"></feColorMatrix>
        </filter>
        <path d="M205.098507,63.8203376 C200.367026,48.7470806 213.911812,21.4856775 240.008147,31.973152 C266.104483,42.4606266 257.979547,79.571451 240.008147,83.9328895 C222.036748,88.2943281 209.829987,78.8935947 205.098507,63.8203376 Z" id="path-3"></path>
        <filter x="-1.0%" y="-0.9%" width="101.9%" height="101.8%" filterUnits="objectBoundingBox" id="filter-4">
            <feOffset dx="1" dy="1" in="SourceAlpha" result="shadowOffsetInner1"></feOffset>
            <feComposite in="shadowOffsetInner1" in2="SourceAlpha" operator="arithmetic" k2="-1" k3="1" result="shadowInnerInner1"></feComposite>
            <feColorMatrix values="0 0 0 0 0.215686275   0 0 0 0 0.141176471   0 0 0 0 0  0 0 0 1 0" type="matrix" in="shadowInnerInner1"></feColorMatrix>
        </filter>
        <path d="M57.3655482,56.8557987 C34.8647612,64.7940431 21.0012561,50.5489474 21.0012561,33.2102091 C21.0012561,15.8714708 41.5127952,-3.94842207 62.7001332,7.37352614 C83.8874712,18.6954743 79.8663352,48.9175543 57.3655482,56.8557987 Z" id="path-5"></path>
        <filter x="-1.8%" y="-1.8%" width="103.6%" height="103.6%" filterUnits="objectBoundingBox" id="filter-6">
            <feOffset dx="2" dy="1" in="SourceAlpha" result="shadowOffsetInner1"></feOffset>
            <feComposite in="shadowOffsetInner1" in2="SourceAlpha" operator="arithmetic" k2="-1" k3="1" result="shadowInnerInner1"></feComposite>
            <feColorMatrix values="0 0 0 0 0.215686275   0 0 0 0 0.141176471   0 0 0 0 0  0 0 0 1 0" type="matrix" in="shadowInnerInner1"></feColorMatrix>
        </filter>
    </defs>
    <g id="巨蟹座" stroke="none" stroke-width="1" fill="none" fill-rule="evenodd">
        <g id="巨蟹座-copy" transform="translate(20.000000, 4.000000)">
            <path d="M178.231365,177.992862 C187.812676,207.15076 193.153526,229.066435 194.253916,243.739885 C195.354305,258.413334 191.483973,272.967044 182.64292,287.401012 L171.91802,287.401012 C169.638442,271.877871 162.120205,264.116301 149.363308,264.116301 C136.606411,264.116301 126.910924,273.107083 120.276846,291.088646 L105.717519,293.660935 C99.129462,284.429442 94.4827008,273.850267 91.7772357,261.923408 C89.0717705,249.996549 89.6656929,228.49711 93.5590029,197.425091 L178.231365,177.992862 Z" id="Path-197" stroke="#372400" stroke-width="3.60162033" fill="#B44545" stroke-linecap="round" stroke-linejoin="round"></path>
            <g id="Path-196">
                <use fill="black" fill-opacity="1" filter="url(#filter-2)" xlink:href="#path-1"></use>
                <use fill="#F1B85B" fill-rule="evenodd" xlink:href="#path-1"></use>
            </g>
            <path d="M38.714943,104.661259 C30.3601724,103.67813 23.5653944,104.375243 18.3306091,106.7526 C13.0958237,109.129956 7.16268524,115.290863 0.531193725,125.23532 C-0.447237289,128.528825 -0.0740042996,130.915644 1.65089269,132.395777 C3.37578969,133.87591 5.4632168,133.87591 7.91317404,132.395777 C15.6116581,123.179137 20.7916624,117.968363 23.4531869,116.763456 C26.1147114,115.558548 30.592352,115.558548 36.8861085,116.763456 L38.714943,104.661259 Z" id="Path-203" stroke="#372400" stroke-width="3.60162033" fill="#B44545"></path>
            <path d="M41.090062,122.663616 C33.6494419,120.875144 27.3117392,121.169586 22.0769538,123.546943 C16.8421684,125.924299 12.1837291,131.399072 8.10163571,139.971261 C7.31976035,141.941007 7.79127116,143.665946 9.51616815,145.146079 C11.2410651,146.626212 13.0763043,146.626212 15.0218857,145.146079 C20.1749037,137.838898 24.082175,133.582854 26.7436995,132.377947 C29.405224,131.17304 33.7843815,130.88019 39.8811721,131.499397 L41.090062,122.663616 Z" id="Path-203-Copy" stroke="#372400" stroke-width="3.60162033" fill="#B44545"></path>
            <path d="M42.4184347,134.133142 C40.9675978,133.150012 37.6247867,133.847126 32.3900013,136.224482 C27.1552159,138.601839 21.2220775,144.762745 14.590586,154.707202 C12.865689,158.915026 12.865689,161.759004 14.590586,163.239137 C17.1779315,165.459336 21.9718841,165.682228 23.3836101,161.86766 C24.7953362,158.053091 22.3542541,159.665692 22.3542541,156.950322 C22.3542541,152.395998 26.9169993,147.497965 29.7072696,146.235338 C32.1803324,145.116251 35.8077759,145.116251 40.5896002,146.235338 L42.4184347,134.133142 Z" id="Path-203-Copy-2" stroke="#372400" stroke-width="3.60162033" fill="#B44545"></path>
            <path d="M215.323242,106.523901 C223.059606,103.703352 229.156729,104.671148 233.614611,109.427287 C240.301433,116.561496 245.099294,132.525928 239.694681,132.525928 C234.290069,132.525928 231.512378,117.418854 227.508962,114.273506 C224.840017,112.176607 221.157997,112.176607 216.4629,114.273506 L215.323242,106.523901 Z" id="Path-204" stroke="#372400" stroke-width="3.60162033" fill="#B44545"></path>
            <path d="M216.674159,123.289683 C220.973849,121.886788 224.402296,121.886788 226.959501,123.289683 C230.795307,125.394024 236.723802,141.533604 232.149065,141.533604 C227.574329,141.533604 227.544103,134.477248 224.411612,132.411643 C222.323285,131.034573 219.744134,130.673775 216.674159,131.329249 L216.674159,123.289683 Z" id="Path-205" stroke="#372400" stroke-width="3.60162033" fill="#B44545"></path>
            <path d="M214.972724,141.017908 C217.346775,139.305219 219.941873,139.305219 222.758018,141.017908 C226.982237,143.586942 231.718023,158.445783 225.03165,158.445783 C218.345278,158.445783 221.877294,151.390117 219.587925,149.089587 C218.061679,147.555901 216.041711,146.821396 213.52802,146.886073 L214.972724,141.017908 Z" id="Path-206" stroke="#372400" stroke-width="3.60162033" fill="#B44545"></path>
            <path d="M198.660307,74.652853 C224.496199,101.682845 226.487026,142.835078 207.613264,165.784736 C177.532266,202.361896 96.3033385,220.076754 51.7262498,181.690739 C22.0949424,156.174766 26.1465409,106.403263 58.0365927,75.3635509 L52.2252851,62.794988 C38.5941562,64.6539709 27.96183,59.5177735 20.3283067,47.3863959 C8.87802178,29.1893295 25.6675994,2.06204975 46.782861,0.320493481 C67.8981226,-1.42106279 78.6868732,16.6632917 80.4098267,27.5118128 C82.4192863,40.1643097 76.4720647,50.7850707 62.5681622,59.3740957 C63.5390776,64.0772394 64.2976599,66.8565483 64.843909,67.7120222 C65.0226805,67.991994 65.3416817,68.2944688 65.8009126,68.6194466 C81.2590135,56.6542574 101.741418,48.7249048 126.78905,48.2080067 C155.904955,47.6071533 177.895728,56.2738047 193.198627,69.4656816 C193.809193,69.2549905 194.481547,68.9967794 195.2195,68.6811174 C195.90453,68.3880935 197.258721,67.3175094 199.282072,65.4693652 C196.829589,46.4127169 202.948683,33.8600871 217.639355,27.8114757 C239.675362,18.7385587 253.773022,32.2908715 259.275038,47.7364167 C264.777054,63.181962 256.640347,86.4389748 237.760669,89.4144689 C225.174217,91.3981316 213.2371,86.0560303 201.949318,73.3881649 C200.611734,73.843732 199.515397,74.2652947 198.660307,74.652853 Z" id="Combined-Shape" stroke="#372400" stroke-width="3.60162033" fill="#B44545" stroke-linecap="round" stroke-linejoin="round"></path>
            <path d="M135.731652,196.775859 C204.155896,186.856465 205.882015,150.160829 199.801113,134.530003 C193.720212,118.899177 171.254345,82.2660294 116.898532,88.3961328 C62.5427179,94.5262361 51.5006578,131.219296 53.0822842,153.019044 C54.6639105,174.818793 67.307407,206.695254 135.731652,196.775859 Z" id="Path-202" stroke="#372400" stroke-width="3.60162033" fill="#FFE1D6"></path>
            <path d="M159.305881,124.265436 C149.48041,126.442232 147.703255,143.328865 152.58956,150.328729 C157.475864,157.328592 171.46704,157.715547 174.56228,145.62563 C177.657519,133.535713 169.131352,122.088641 159.305881,124.265436 Z" id="Path-207" fill="#372400"></path>
            <path d="M96.2188643,127.500155 C86.393393,129.67695 84.6162389,146.563584 89.5025433,153.563447 C94.3888477,160.563311 108.380024,160.950266 111.475263,148.860349 C114.570502,136.770432 106.044336,125.32336 96.2188643,127.500155 Z" id="Path-207-Copy" fill="#372400"></path>
            <path d="M151.96954,134.973612 C153.012756,137.634236 158.725818,139.491625 163.569772,137.382095 C168.413725,135.272564 169.578164,130.797579 168.642988,128.412505 C167.707813,126.027431 164.130935,123.774062 159.094189,125.967553 C154.057443,128.161044 150.926323,132.312989 151.96954,134.973612 Z" id="Path-208" fill="#FFFFFF"></path>
            <path d="M88.8825232,138.208331 C89.9257398,140.868954 95.6388012,142.726344 100.482755,140.616814 C105.326709,138.507283 106.491147,134.032298 105.555972,131.647224 C104.620797,129.26215 101.043918,127.008781 96.0071723,129.202272 C90.9704264,131.395762 87.8393065,135.547707 88.8825232,138.208331 Z" id="Path-208-Copy-2" fill="#FFFFFF"></path>
            <path d="M160.519249,150.765695 C161.029793,152.067788 163.825732,152.976784 166.196335,151.944392 C168.566937,150.912 169.136807,148.721968 168.679137,147.554727 C168.221468,146.387486 166.470965,145.2847 164.006011,146.358182 C161.541056,147.431663 160.008705,149.463601 160.519249,150.765695 Z" id="Path-208-Copy" fill="#FFFFFF"></path>
            <path d="M97.4322322,154.000413 C97.9427763,155.302507 100.738715,156.211503 103.109318,155.179111 C105.479921,154.146719 106.04979,151.956687 105.592121,150.789446 C105.134452,149.622205 103.383948,148.519419 100.918994,149.5929 C98.4540399,150.666382 96.921688,152.69832 97.4322322,154.000413 Z" id="Path-208-Copy-3" fill="#FFFFFF"></path>
            <path d="M149.366946,116.652356 C150.273367,117.269567 154.909694,112.466787 158.875806,112.080453 C162.841919,111.69412 167.846851,115.781421 168.361576,114.802116 C168.876301,113.822811 163.05974,108.795653 157.916915,109.296609 C152.77409,109.797564 148.460525,116.035146 149.366946,116.652356 Z" id="Path-209" fill="#372400"></path>
            <path d="M82.5093193,123.84062 C83.4157399,124.457831 88.0520668,119.655051 92.0181796,119.268717 C95.9842924,118.882384 100.989225,122.969685 101.50395,121.99038 C102.018675,121.011075 96.2021135,115.983917 91.0592882,116.484873 C85.9164628,116.985828 81.6028986,123.22341 82.5093193,123.84062 Z" id="Path-209-Copy" fill="#372400"></path>
            <path d="M126.324179,158.20524 C128.939681,154.213456 131.125937,152.102399 132.882947,151.872068 C134.639958,151.641738 136.486144,153.224173 138.421505,156.619374 C137.059222,154.257759 135.213036,153.22968 132.882947,153.535137 C130.552858,153.840594 128.366602,155.397295 126.324179,158.20524 Z" id="Path-210" fill="#372400"></path>
            <path d="M118.401403,179.568939 C118.401403,178.221285 123.73028,181.691103 129.052924,180.542303 C134.375567,179.393502 133.021766,177.244219 136.153397,176.504864 C139.285028,175.765508 140.182804,178.287867 146.153994,176.504864 C152.125184,174.72186 154.070721,169.822055 154.99075,170.880011 C155.91078,171.937968 144.030797,182.694516 137.42331,184.263606 C130.815823,185.832696 118.401403,180.916592 118.401403,179.568939 Z" id="Path-211" fill="#372400"></path>
            <path d="M155.524206,90.2748233 C145.525385,101.586544 135.090872,109.166081 124.220667,113.013432 C107.915359,118.78446 81.3820283,117.499382 76.2720805,115.349758 C71.1621326,113.200134 92.8813085,110.447589 101.281293,103.363426 C109.681277,96.2792626 110.099962,88.1308914 122.578702,85.3523144 C130.897862,83.4999297 141.879696,85.140766 155.524206,90.2748233 Z" id="Path-212" fill="#7A472B"></path>
            <path d="M155.524206,90.2748233 C145.525385,101.586544 135.090872,109.166081 124.220667,113.013432 C107.915359,118.78446 81.3820283,117.499382 76.2720805,115.349758 C71.1621326,113.200134 92.8813085,110.447589 101.281293,103.363426 C109.681277,96.2792626 110.099962,88.1308914 122.578702,85.3523144 C130.897862,83.4999297 141.879696,85.140766 155.524206,90.2748233 Z" id="Path-212" stroke="#372400" stroke-width="3.60162033" stroke-linecap="round" stroke-linejoin="round"></path>
            <path d="M61.7627315,191.130026 C83.530366,186.719268 101.439879,197.16803 103.496353,217.048786 C105.552827,236.929542 93.9308124,250.002752 77.1536294,253.036534 C65.9688408,255.059055 53.8516308,251.20239 40.8019994,241.46654 L66.71728,223.77264 L36.0497238,230.593285 C38.6799725,207.224951 47.2509751,194.070532 61.7627315,191.130026 Z" id="Path-213" stroke="#372400" stroke-width="3.60162033" fill="#B44545" stroke-linecap="round" stroke-linejoin="round"></path>
            <path d="M187.293253,173.614709 C203.328005,170.3656 216.520739,178.0625 218.035605,192.707316 C219.550471,207.352132 210.989315,216.982286 198.630692,219.217069 C190.391611,220.706924 181.465677,217.865979 171.852892,210.694232 L190.942936,197.660327 L168.35221,202.684637 C170.289737,185.470758 176.603418,175.780782 187.293253,173.614709 Z" id="Path-213-Copy" stroke="#372400" stroke-width="3.60162033" fill="#B44545" stroke-linecap="round" stroke-linejoin="round" transform="translate(193.280697, 196.239609) rotate(-180.000000) translate(-193.280697, -196.239609) "></path>
            <path d="M100.207095,210.412636 C96.8860497,225.267591 92.9592336,234.842895 88.4266466,239.138547 C83.8940596,243.434199 75.337145,247.315613 62.7559027,250.78279 C75.7645501,253.380711 86.174105,250.699601 93.9845674,242.73946 C101.79503,234.779319 103.869206,224.003711 100.207095,210.412636 Z" id="Path-201" fill="#732929"></path>
            <path d="M216.004842,191.653822 C214.403492,203.749471 210.17779,211.732142 203.327735,215.601834 C196.47768,219.471527 187.119859,218.472602 175.254272,212.605058 C186.735685,215.085321 195.047769,215.085321 200.190525,212.605058 C205.33328,210.124795 210.604719,203.14105 216.004842,191.653822 Z" id="Path-214" fill="#732929"></path>
            <g id="Path-215">
                <use fill="#FFFFFF" fill-rule="evenodd" xlink:href="#path-3"></use>
                <use fill="black" fill-opacity="1" filter="url(#filter-4)" xlink:href="#path-3"></use>
            </g>
            <path d="M242.688602,70.8753126 C243.562343,71.3509184 243.883933,72.4426506 243.406893,73.3137647 C242.929852,74.1848788 241.834827,74.5055016 240.961086,74.0298958 L214.851827,59.8177796 C213.341553,58.9956884 213.735146,56.7325342 215.43486,56.4653506 L247.372583,51.4449539 C248.355921,51.2903797 249.278759,51.9598286 249.4338,52.9402099 C249.58884,53.9205912 248.917372,54.8406544 247.934034,54.9952286 L221.227469,59.1933222 L242.688602,70.8753126 Z" id="Path-216" fill="#372400" fill-rule="nonzero"></path>
            <g id="Path-217">
                <use fill="#FFFFFF" fill-rule="evenodd" xlink:href="#path-5"></use>
                <use fill="black" fill-opacity="1" filter="url(#filter-6)" xlink:href="#path-5"></use>
            </g>
            <polyline id="Path-218" stroke="#372400" stroke-width="3.60162033" stroke-linecap="round" stroke-linejoin="round" points="42.6627046 20.1002761 64.7885625 36.5546086 32.4871461 41.117117"></polyline>
            <path d="M62.9889295,84.3912352 C60.2817397,81.3398326 79.1764132,63.0312142 89.5041234,61.1095272 C99.8318337,59.1878402 108.622751,65.031502 99.8318337,72.7503812 C91.0409159,80.4692604 65.6961193,87.4426377 62.9889295,84.3912352 Z" id="Path-195" fill-opacity="0.454512002" fill="#FFFFFF"></path>
            <path d="M48.7484588,95.0270552 C47.9093892,94.0812999 53.7656263,88.4067055 56.9666088,87.8110956 C60.1675913,87.2154856 62.8922586,89.026677 60.1675913,91.4190754 C57.4429241,93.8114738 49.5875283,95.9728104 48.7484588,95.0270552 Z" id="Path-195-Copy" fill-opacity="0.454512002" fill="#FFFFFF"></path>
            <path d="M68.1524404,196.599022 C76.7831357,196.599022 79.3138903,200.660909 73.9058389,204.512812 C68.4977875,208.364715 50.8301105,211.708249 50.8301105,206.839416 C50.8301105,201.970583 59.5217452,196.599022 68.1524404,196.599022 Z" id="Path-198" fill-opacity="0.397843071" fill="#FFFFFF"></path>
            <path d="M187.188439,179.949372 C193.355718,179.949372 195.164132,182.851895 191.299674,185.604368 C187.435215,188.356842 174.810335,190.746048 174.810335,187.266902 C174.810335,183.787755 181.02116,179.949372 187.188439,179.949372 Z" id="Path-198-Copy" fill-opacity="0.397843071" fill="#FFFFFF" transform="translate(184.069837, 184.474593) rotate(-25.000000) translate(-184.069837, -184.474593) "></path>
            <path d="M91.1403198,167.150458 C88.3541041,157.572749 56.4347878,162.73785 47.1289726,167.150458 C37.8231574,171.563065 42.3588509,184.424914 54.7099524,184.424914 C67.0610539,184.424914 93.9265356,176.728166 91.1403198,167.150458 Z" id="Path-199" fill="#EB6262"></path>
            <path d="M212.885685,153.682589 C210.556628,145.676378 183.874588,149.993996 176.095658,153.682589 C168.316728,157.371182 172.108212,168.122677 182.432762,168.122677 C192.757312,168.122677 215.214743,161.688801 212.885685,153.682589 Z" id="Path-199-Copy" fill="#EB6262"></path>
        </g>
    </g>
</svg>