<?xml version="1.0" encoding="UTF-8"?>
<svg width="300px" height="300px" viewBox="0 0 300 300" version="1.1" xmlns="http://www.w3.org/2000/svg" xmlns:xlink="http://www.w3.org/1999/xlink">
    <!-- Generator: Sketch 49 (51002) - http://www.bohemiancoding.com/sketch -->
    <title>狮子座</title>
    <desc>Created with Sketch.</desc>
    <defs></defs>
    <g id="狮子座" stroke="none" stroke-width="1" fill="none" fill-rule="evenodd">
        <g id="狮子座-copy" transform="translate(31.000000, 8.000000)">
            <path d="M88.9272703,196.838285 C83.7191912,199.358461 78.8908636,205.228301 74.4422875,214.447804 C69.9937113,223.667307 67.1498656,233.697751 65.9107502,244.539138 L87.2702974,246.615801 C86.0551513,253.815959 85.5198269,259.12911 85.6643242,262.555254 C85.8088215,265.981399 86.8964702,273.764292 88.9272703,285.903933 L114.580168,284.074765 C119.419944,268.617127 126.428773,261.443957 135.606655,262.555254 C144.784537,263.666551 145.672696,270.386329 138.271134,282.714587 L164.158214,277.661755 C174.471383,257.784428 178.546163,240.285137 176.382553,225.163883 C174.218944,210.042629 165.338387,193.954818 149.740884,176.900449 L88.9272703,196.838285 Z" id="Path-36" stroke="#372400" stroke-width="3.90456005" fill="#FFE88F" stroke-linecap="round" stroke-linejoin="round"></path>
            <path d="M43.1137853,130.790851 C36.767857,130.026943 33.5948928,132.470618 33.5948928,138.121879 C33.5948928,143.773139 37.7197462,148.81564 45.9694531,153.249381 L43.1137853,130.790851 Z" id="Path-30" stroke="#FF0000" stroke-width="0.650759983"></path>
            <path d="M171.595782,104.560762 C174.280795,97.7751551 177.516194,95.6081882 181.301979,98.0598614 C185.087764,100.511535 184.565233,108.948439 179.734387,123.370573 L171.595782,104.560762 Z" id="Path-31" stroke="#FF0000" stroke-width="0.650759983"></path>
            <path d="M79.4696682,193.84148 C84.1840197,193.527253 89.2592142,197.324917 94.6952516,205.234473 C101.761089,197.181292 106.765573,192.801063 109.708704,192.093785 C112.651836,191.386506 119.904368,193.576621 131.466301,198.664129 C131.562678,188.449582 133.432101,182.705674 137.074571,181.432404 C140.71704,180.159135 150.377603,182.966413 166.056259,189.854238 C165.902706,181.327718 169.235521,175.074204 176.054701,171.093696 C182.873881,167.113188 192.022651,166.080922 203.501012,167.996899 C203.914441,156.634811 206.340012,148.981476 210.777722,145.036891 C215.215432,141.092307 223.912025,138.694618 236.867499,137.843823 C225.298438,129.741341 218.479208,122.301048 216.409808,115.522946 C217.36729,108.840417 224.855056,100.963227 238.873105,91.8913742 C223.094504,90.018277 213.309511,85.9956173 209.518125,79.8233951 C205.726739,73.6511729 205.726739,60.7745179 209.518125,41.19343 C194.950918,48.1615286 185.088896,49.1631975 179.932059,44.1984367 C174.775223,39.2336759 170.149956,24.5975883 166.056259,0.290173814 C141.300786,12.3942651 127.575966,18.4463107 124.881797,18.4463107 C118.829354,18.8578996 113.771657,12.8058539 109.708704,0.290173814 C103.489366,11.0264067 98.8844033,17.0784523 95.8938155,18.4463107 C92.9032277,19.8141691 84.7658944,17.8510875 71.4818155,12.5570659 C74.9818154,19.3685068 74.9818154,23.8261384 71.4818155,25.9299606 C67.9818156,28.0337829 55.4812704,28.9278575 33.9801799,28.6121844 C43.7544627,33.5159173 46.9470256,41.1937152 43.5578687,51.6455779 C36.9933569,59.0927192 8.17048204,57.7887717 8.44089779,58.2182494 C18.8542732,74.7569029 21.5089438,85.9127003 20.3247992,89.0817284 C19.1099046,92.3330502 12.3491699,96.1526529 0.0425949886,100.540537 C10.3382426,110.994835 15.9518448,119.330236 16.8834016,125.546739 C17.8149584,131.763242 13.0066006,142.334046 2.45832817,157.25915 C15.0792248,158.306876 22.6547015,159.980556 25.1847582,162.28019 C27.7148149,164.579824 28.9798433,174.517689 28.9798433,192.093785 C44.1762121,184.546941 53.0578682,181.735437 55.6248114,183.65927 C58.1917546,185.583104 60.8412694,193.466298 63.5733557,207.308851 C69.4565459,198.644831 74.7553167,194.155707 79.4696682,193.84148 Z" id="Path-32" stroke="#372400" stroke-width="3.90456005" fill="#ECB350" stroke-linecap="round" stroke-linejoin="round"></path>
            <path d="M2.5918548,101.457002 C13.5025819,109.381895 19.5815398,115.65577 20.8287286,120.278624 C22.0759173,124.901479 20.7926349,128.379482 16.9788813,130.712633 C15.638671,124.156636 14.1827478,119.280697 12.6111116,116.084817 C11.0394754,112.888937 7.69972312,108.012999 2.5918548,101.457002 Z" id="Path-59" fill="#A77114"></path>
            <path d="M235.631881,91.6787194 C217.524225,102.686933 208.470397,109.629333 208.470397,112.505919 C208.470397,115.382506 214.248372,121.625641 225.804322,131.235327 C219.049174,122.528233 216.236037,116.285097 217.364913,112.505919 C218.493789,108.726742 224.582778,101.784342 235.631881,91.6787194 Z" id="Path-58" fill="#A77114"></path>
            <path d="M56.4097095,182.603141 C60.9508041,190.930452 63.9682716,195.551058 65.4621119,196.464957 C67.7028723,197.835807 72.3401793,191.236091 80.188793,191.598134 C88.0374066,191.960177 92.0022264,197.835807 95.1803462,197.835807 C97.2990928,197.835807 102.102608,195.297029 109.590891,190.219474 L95.1803462,204.885089 L82.5651213,192.916409 L64.0352805,206.13776 L56.4097095,182.603141 Z" id="Path-60" fill="#A77114"></path>
            <path d="M79.4696682,193.84148 C84.1840197,193.527253 89.2592142,197.324917 94.6952516,205.234473 C101.761089,197.181292 106.765573,192.801063 109.708704,192.093785 C112.651836,191.386506 119.904368,193.576621 131.466301,198.664129 C131.562678,188.449582 133.432101,182.705674 137.074571,181.432404 C140.71704,180.159135 150.377603,182.966413 166.056259,189.854238 C165.902706,181.327718 169.235521,175.074204 176.054701,171.093696 C182.873881,167.113188 192.022651,166.080922 203.501012,167.996899 C203.914441,156.634811 206.340012,148.981476 210.777722,145.036891 C215.215432,141.092307 223.912025,138.694618 236.867499,137.843823 C225.298438,129.741341 218.479208,122.301048 216.409808,115.522946 C217.36729,108.840417 224.855056,100.963227 238.873105,91.8913742 C223.094504,90.018277 213.309511,85.9956173 209.518125,79.8233951 C205.726739,73.6511729 205.726739,60.7745179 209.518125,41.19343 C194.950918,48.1615286 185.088896,49.1631975 179.932059,44.1984367 C174.775223,39.2336759 170.149956,24.5975883 166.056259,0.290173814 C141.300786,12.3942651 127.575966,18.4463107 124.881797,18.4463107 C118.829354,18.8578996 113.771657,12.8058539 109.708704,0.290173814 C103.489366,11.0264067 98.8844033,17.0784523 95.8938155,18.4463107 C92.9032277,19.8141691 84.7658944,17.8510875 71.4818155,12.5570659 C74.9818154,19.3685068 74.9818154,23.8261384 71.4818155,25.9299606 C67.9818156,28.0337829 55.4812704,28.9278575 33.9801799,28.6121844 C43.7544627,33.5159173 46.9470256,41.1937152 43.5578687,51.6455779 C36.9933569,59.0927192 8.17048204,57.7887717 8.44089779,58.2182494 C18.8542732,74.7569029 21.5089438,85.9127003 20.3247992,89.0817284 C19.1099046,92.3330502 12.3491699,96.1526529 0.0425949887,100.540537 C10.3382426,110.994835 15.9518448,119.330236 16.8834016,125.546739 C17.8149584,131.763242 13.0066006,142.334046 2.45832817,157.25915 C15.0792248,158.306876 22.6547015,159.980556 25.1847582,162.28019 C27.7148149,164.579824 28.9798433,174.517689 28.9798433,192.093785 C44.1762121,184.546941 53.0578682,181.735437 55.6248114,183.65927 C58.1917546,185.583104 60.8412694,193.466298 63.5733557,207.308851 C69.4565459,198.644831 74.7553167,194.155707 79.4696682,193.84148 Z" id="Path-32" stroke="#372400" stroke-width="3.90456005" stroke-linecap="round" stroke-linejoin="round"></path>
            <path d="M96.8111576,47.1286001 C98.3265947,53.6606451 97.7967439,58.057158 95.2216053,60.3181389 C91.3588973,63.7096101 66.4693893,78.4494266 61.6831853,84.3842556 C48.2881668,100.9939 42.930913,125.48552 41.1810634,129.136559 C40.014497,131.570586 38.0819936,132.54098 35.3835531,132.047741 C37.6218687,133.114031 39.3862211,134.262126 40.6766103,135.492027 C42.6121939,137.336879 41.6100563,149.51556 43.0277448,153.924206 C48.1810532,169.949667 81.1633148,178.906056 84.6949845,179.040378 C87.049431,179.129926 87.603568,181.022386 86.3573956,184.717757 C87.2645463,182.550651 88.6034496,180.911733 90.3741055,179.801004 C93.0300893,178.134911 106.044665,180.424253 113.764475,179.1747 C145.565049,174.027356 179.015617,158.450025 184.485229,137.161318 C185.188529,134.423951 184.499625,127.489664 186.770963,124.672054 C187.765239,123.438649 192.985462,124.992666 192.985462,124.672054 C192.985462,123.619033 184.923998,120.021006 184.485229,118.565163 C184.192716,117.594601 185.985318,117.117544 189.863035,117.133991 C185.74847,115.436893 183.603303,114.323833 183.427531,113.794812 C178.057705,97.6331678 162.220439,84.5330154 153.414217,77.4993861 C141.127156,67.6855725 110.951459,61.861855 105.947378,59.1246337 C102.611323,57.2998195 99.5659165,53.3011416 96.8111576,47.1286001 Z" id="Path-57" fill="#A77114"></path>
            <path d="M99.8497088,65.3379407 C46.0597439,74.1906327 32.022978,143.417896 49.9752121,161.843547 C58.9828026,171.088676 88.9898951,181.399472 117.518165,176.539466 C145.847073,171.713423 172.706874,151.787661 179.179649,140.712719 C192.17075,118.484897 153.639674,56.4852486 99.8497088,65.3379407 Z" id="Path-29" stroke="#372400" stroke-width="3.90456005" fill="#FFE1D6"></path>
            <path d="M155.565423,48.5979016 C152.618173,42.1714971 153.934874,37.2462266 159.515527,33.8220901 C167.886507,28.6858854 181.307664,34.3139736 182.514269,46.2723965 C183.318672,54.2446783 180.353841,59.364119 173.619775,61.6307183 C172.800457,60.2760859 169.860471,57.7780226 164.799818,54.1365283 C163.037004,52.8680599 161.275573,51.7260332 159.515527,50.7104483 C157.320421,49.4438241 156.003719,48.7396418 155.565423,48.5979016 Z" id="Path-33" stroke="#372400" stroke-width="2.34273603" fill="#FFE88F" stroke-linecap="round" stroke-linejoin="round"></path>
            <path d="M162.170915,52.3768137 C160.353128,46.1331012 161.068324,42.4548796 164.316502,41.3421489 C169.188769,39.673053 175.022162,43.6797521 175.881536,48.510401 C176.454452,51.7308336 173.750626,54.2774547 167.770058,56.1502644 L162.170915,52.3768137 Z" id="Path-34" fill="#372400"></path>
            <path d="M144.466874,42.975408 C144.466874,41.7966215 157.184775,48.0572146 164.631569,52.878389 C172.092538,57.7087406 183.201448,70.9594967 181.940153,71.4191974 C180.678858,71.8788982 171.080191,59.5104154 163.933224,54.883354 C156.772082,50.2471156 144.466874,44.1541944 144.466874,42.975408 Z" id="Path-35" fill="#372400" fill-rule="nonzero"></path>
            <path d="M85.0734391,255.197698 C91.2043705,252.3257 94.2698362,247.737239 94.2698362,241.432316 C94.2698362,226.411998 77.7156597,219.892543 68.3278656,223.176851 C50.3346101,229.47177 45.1065625,255.379783 60.2139277,264.456992 C70.2855045,270.508464 78.5720083,267.422033 85.0734391,255.197698 Z" id="Path-38" stroke="#372400" stroke-width="3.90456005" fill="#ECB350"></path>
            <path d="M94.0070135,65.9701697 C94.7910321,70.4379892 93.2077769,75.9868593 89.2572477,82.6167799 C85.3067185,89.2467005 80.4175923,94.5600144 74.5898693,98.5567215 C87.7256759,96.5500045 97.4037679,93.638376 103.624145,89.8218361 C109.844522,86.0052962 115.536619,78.0547407 120.700434,65.9701697 C114.067963,65.1777967 108.985708,64.6655827 105.453669,64.4335275 C101.92163,64.2014724 98.1060785,64.7136865 94.0070135,65.9701697 Z" id="Path-40" fill="#7A472B"></path>
            <path d="M94.0070135,65.9701697 C94.7910321,70.4379892 93.2077769,75.9868593 89.2572477,82.6167799 C85.3067185,89.2467005 80.4175923,94.5600144 74.5898693,98.5567215 C87.7256759,96.5500045 97.4037679,93.638376 103.624145,89.8218361 C109.844522,86.0052962 115.536619,78.0547407 120.700434,65.9701697 C115.770816,64.5320801 111.539987,63.6970077 108.007949,63.4649526 C104.47591,63.2328975 99.8089315,64.0679698 94.0070135,65.9701697 Z" id="Path-40" stroke="#372400" stroke-width="2.34273603" stroke-linecap="round" stroke-linejoin="round"></path>
            <path d="M74.4861721,93.2300069 C74.4861721,92.1966165 63.7396035,91.7385956 58.491115,93.2300069 C54.9921226,94.2242811 51.0179677,96.8686302 46.5686502,101.163054 C51.2550527,98.3644401 55.2292076,96.5016811 58.491115,95.574777 C63.383976,94.1844208 74.4861721,94.2633973 74.4861721,93.2300069 Z" id="Path-41" stroke="#372400" stroke-width="0.650759983" fill="#372400"></path>
            <path d="M126.314064,82.0517583 C125.124741,81.2358898 131.246654,74.3699837 136.234459,71.9407184 C139.559662,70.3212082 144.717987,69.5686921 151.709437,69.6831701 C145.66032,70.5530699 140.501994,72.0272523 136.234459,74.1057171 C129.833155,77.2234143 127.503386,82.8676267 126.314064,82.0517583 Z" id="Path-42" fill="#372400"></path>
            <path d="M97.3987644,128.208973 L99.6492437,126.595647 C97.6179134,116.874754 92.380973,112.807036 83.9384224,114.392495 C75.4958718,115.977954 67.32108,122.564312 59.4140468,134.151568 C59.3132468,135.738747 59.7989992,136.532336 60.871304,136.532336 C61.9436088,136.532336 62.8120935,136.029895 63.4767581,135.025011 C67.8445462,124.563432 74.0134266,118.53281 81.9833992,116.933143 C89.9533719,115.333476 95.091827,119.092086 97.3987644,128.208973 Z" id="Path-43" fill="#372400"></path>
            <path d="M122.284801,124.39049 L125.694961,122.480218 C125.682759,113.549939 129.108171,107.102905 135.971197,103.139116 C142.834222,99.175328 150.703671,102.583994 159.579542,113.365116 C160.27763,114.237701 160.982752,114.547207 161.69491,114.293633 C162.407067,114.040058 162.543209,113.375057 162.103335,112.298628 C151.883532,100.345873 142.465338,96.6076169 133.848753,101.083859 C125.232168,105.560101 121.377517,113.328978 122.284801,124.39049 Z" id="Path-44" fill="#372400"></path>
            <path d="M110.097353,137.516618 C110.361517,135.134354 111.059445,133.766871 112.191138,133.414169 C113.888678,132.885116 116.182308,135.29155 117.236792,135.29155 C117.939781,135.29155 118.321962,134.665756 118.383336,133.414169 C115.88024,131.553204 113.816174,130.903 112.191138,131.463558 C109.753585,132.304394 109.054273,134.903437 108.785659,136.724898 C108.606583,137.939206 109.043814,138.203112 110.097353,137.516618 Z" id="Path-45" fill="#372400"></path>
            <path d="M108.993711,151.344216 L115.736239,148.544362 L123.284764,149.389046 C122.758734,160.756489 121.247451,166.610987 118.750916,166.95254 C116.254382,167.294093 113.00198,162.091318 108.993711,151.344216 Z" id="Path-48" fill="#FFC1A8"></path>
            <path d="M101.309358,151.617457 C101.683152,150.629254 107.569474,150.366918 109.937533,149.25183 C112.305592,148.136742 112.848673,146.390068 115.889347,146.052721 C118.93002,145.715375 120.103003,147.682686 124.081,147.682686 C128.058996,147.682686 131.0866,144.41453 131.783005,144.947786 C132.479411,145.481041 127.601517,149.359035 125.306624,150.073244 C123.01173,150.787452 121.436318,149.083223 116.537474,149.692445 C111.63863,150.301667 110.554235,151.986668 107.70947,152.34628 C104.864704,152.705892 100.935563,152.60566 101.309358,151.617457 Z" id="Path-46" fill="#372400"></path>
            <path d="M109.851534,151.227085 C113.667206,161.627173 116.587433,166.647509 118.612213,166.288095 C120.636993,165.92868 121.812768,160.181271 122.139536,149.045867 L125.244154,149.045867 C123.925683,161.077995 121.820932,167.308917 118.9299,167.738635 C116.038869,168.168353 112.369181,162.795732 107.920838,151.620774 L109.851534,151.227085 Z" id="Path-47" fill="#372400"></path>
            <path d="M106.731394,225.623824 C107.614553,213.753142 122.149323,199.031995 137.795807,205.051896 C153.442291,211.071797 158.183407,252.090112 136.144459,255.320367 C114.105511,258.550623 105.848236,237.494507 106.731394,225.623824 Z" id="Path-49" fill="#FFFFFF"></path>
            <path d="M106.971222,225.565978 C106.497263,231.936538 109.045214,239.158877 113.293874,244.883031 C118.448167,251.827329 126.473409,255.211164 136.257825,253.777059 C145.857777,252.369991 150.873552,241.407366 150.448529,228.850123 C150.048983,217.045572 144.614149,208.511431 137.51513,205.780122 C130.524872,203.090658 123.547861,203.314277 117.478347,208.011989 C111.982512,212.265681 107.398479,219.823144 106.971222,225.565978 Z M106.296512,225.565978 C106.758235,219.359889 110.363343,212.177858 116.194097,207.664943 C122.673612,202.649896 130.54433,201.425714 138.076485,204.32367 C145.877392,207.325027 151.464325,218.842968 151.88277,231.205875 C152.331532,244.464496 146.800516,254.547213 136.257825,256.092458 C125.889915,257.612086 117.704042,253.995381 112.214773,246.599775 C107.738671,240.569193 105.79525,232.303525 106.296512,225.565978 Z" id="Path-49" fill="#372400" fill-rule="nonzero"></path>
            <path d="M141.421746,192.721588 C136.864354,182.387645 136.864354,174.873083 141.421746,170.177903 C145.979137,165.482722 151.004936,164.828276 156.499141,168.214563 C160.354317,162.574959 165.35105,159.755158 171.489339,159.755158 C177.627629,159.755158 182.518631,163.229406 186.162345,170.177903 C193.598893,170.160227 198.422075,173.594493 200.631893,180.480701 C202.841711,187.36691 201.146225,193.385293 195.545436,198.535851 C198.02232,206.757046 197.168048,212.358772 192.98262,215.341028 C188.797193,218.323284 183.94663,219.015609 178.430931,217.418002 C166.13666,224.966654 155.892557,224.966654 147.698623,217.418002 C139.504689,209.86935 137.412396,201.637212 141.421746,192.721588 Z" id="Path-39" stroke="#372400" stroke-width="3.90456005" fill="#ECB350"></path>
            <path d="M90.5944661,251.44995 C86.536788,255.344318 82.1401509,255.891169 77.4045546,253.090504 C72.6689584,250.28984 70.4035319,246.280166 70.6082751,241.061484" id="Path-50" stroke="#372400" stroke-width="3.90456005" stroke-linecap="round" stroke-linejoin="round"></path>
            <path d="M145.545522,175.631535 C146.151398,174.362476 149.56199,173.16386 150.725046,174.850426 C151.888101,176.536991 151.378638,180.495905 148.264993,180.495905 C145.151348,180.495905 144.939647,176.900595 145.545522,175.631535 Z" id="Path-51" fill="#372400"></path>
            <path d="M168.976895,168.608343 C169.582771,167.339283 172.993363,166.140668 174.156418,167.827233 C175.319474,169.513799 174.81001,173.472713 171.696365,173.472713 C168.58272,173.472713 168.371019,169.877402 168.976895,168.608343 Z" id="Path-51-Copy" fill="#372400"></path>
            <path d="M186.800501,182.653973 C188.095372,180.63405 191.347938,180.967407 192.510993,182.653973 C193.674049,184.340538 193.164585,188.299452 190.05094,188.299452 C186.937295,188.299452 185.505631,184.673896 186.800501,182.653973 Z" id="Path-51-Copy-2" fill="#372400"></path>
            <path d="M181.86415,204.504659 C182.470026,203.2356 185.880617,202.036985 187.043673,203.72355 C188.206729,205.410115 187.697265,209.369029 184.58362,209.369029 C181.469975,209.369029 181.258274,205.773719 181.86415,204.504659 Z" id="Path-51-Copy-3" fill="#372400"></path>
            <path d="M148.902534,196.27973 C150.736656,185.410247 158.799109,181.373794 170.46541,187.95943 C182.131711,194.545067 181.54499,210.375113 170.46541,212.972554 C159.385831,215.569995 147.068413,207.149213 148.902534,196.27973 Z" id="Path-51-Copy-4" fill="#372400"></path>
            <path d="M176.286222,241.129604 C181.086341,246.641903 186.175325,249.699341 191.553172,250.301918 C196.931019,250.904495 202.594168,248.94144 208.542618,244.412752 C203.967894,250.991143 198.059743,254.110599 190.818166,253.771119 C183.576588,253.431638 178.158441,251.674207 174.563725,248.498824 L176.286222,241.129604 Z" id="Path-52" fill="#372400"></path>
            <path d="M204.633987,247.79193 C207.834061,231.996697 210.657269,222.608554 213.10361,219.627501 C216.773121,215.155922 223.990969,217.705685 227.634628,217.705685 C230.063734,217.705685 232.633816,216.799697 235.344874,214.987722 C231.979738,217.624242 229.409656,219.956699 227.634628,221.985093 C224.972086,225.027683 225.534901,234.942388 220.379165,240.710686 C216.942008,244.556218 211.693615,246.916633 204.633987,247.79193 Z" id="Path-53" stroke="#372400" stroke-width="3.90456005" fill="#D89348" stroke-linecap="round" stroke-linejoin="round"></path>
            <path d="M41.7150119,69.816957 C37.6579127,61.4492064 32.5440946,57.6759727 26.3735578,58.4972557 C17.1177524,59.7291802 7.08583796,72.3723732 12.2027366,82.3555019 C15.6140024,89.0109209 21.4579258,92.3965974 29.7345068,92.5125311 C32.0159621,87.4480226 34.4761125,82.5271787 37.1149579,77.7499993 C39.7538034,72.97282 41.2871547,70.3284726 41.7150119,69.816957 Z" id="Path-54" stroke="#372400" stroke-width="2.34273603" fill="#FFE88F"></path>
            <path d="M20.2508388,78.282687 C20.2508388,82.6428275 24.5141509,85.0584563 33.0407751,85.5295735 L37.0548142,77.6482574 C35.2182552,72.3940467 32.5219484,69.7669413 28.9658938,69.7669413 C24.8996968,69.7669413 20.2508388,75.4808644 20.2508388,78.282687 Z" id="Path-55" fill="#372400"></path>
            <path d="M51.4074232,57.3781166 C52.4120197,57.3781166 38.8135617,76.2671434 35.7290663,82.307951 C34.1110469,85.4767492 24.3284349,107.296224 23.8493002,106.891785 C23.411187,106.521972 32.1322499,84.2005483 33.64185,81.244083 C36.8154128,75.0288421 50.4028266,57.3781166 51.4074232,57.3781166 Z" id="Path-56" fill="#372400" fill-rule="nonzero"></path>
            <path d="M42.6215678,137.210651 C37.8453122,134.242393 34.6609319,133.320212 33.0684268,134.444107 C30.6796691,136.129951 28.009152,151.119444 33.0684268,153.50411 C36.4412766,155.093887 40.0599263,153.99595 43.9243757,150.210299 C43.2062026,147.554108 42.7719333,145.498602 42.6215678,144.043781 C42.4712023,142.58896 42.4712023,140.31125 42.6215678,137.210651 Z" id="Path-81" stroke="#372400" stroke-width="2.34273603" fill="#FFE1D6"></path>
            <path d="M41.7859477,152.813748 C41.7859477,144.003873 66.5940441,144.353195 74.196563,145.110629 C81.799082,145.868063 91.2083791,149.321918 74.196563,156.413899 C57.1847469,163.50588 41.7859477,161.623623 41.7859477,152.813748 Z" id="Path-61" fill="#EB6262"></path>
            <path d="M147.227124,130.963816 C147.227124,125.18463 173.532282,120.339096 181.134801,121.09653 C188.73732,121.853964 196.649556,127.471986 179.63774,134.563967 C162.625923,141.655948 147.227124,136.743003 147.227124,130.963816 Z" id="Path-61-Copy" fill="#EB6262"></path>
            <path d="M171.143978,99.7896299 C173.039018,92.1253006 175.434864,89.1917891 178.331518,90.9890955 C182.676497,93.685055 187.931881,106.31702 186.872889,110.331459 C186.166894,113.007752 182.856607,113.106764 176.942027,110.628497 C175.440044,108.061421 174.383477,106.219067 173.772325,105.101435 C173.161173,103.983803 172.285057,102.213201 171.143978,99.7896299 Z" id="Path-80" stroke="#372400" stroke-width="2.34273603" fill="#FFE1D6" stroke-linecap="round" stroke-linejoin="round"></path>
            <path d="M40.5090126,141.630222 C37.9343645,139.182732 36.2262195,138.487352 35.3845776,139.544082 C34.1221147,141.129176 34.9339513,147.257689 35.3845776,148.064243 C35.8352039,148.870796 36.7132563,144.717668 37.6311794,143.565163 C38.2431282,142.796826 39.2024059,142.151846 40.5090126,141.630222 Z" id="Path-82" fill="#E5AA94"></path>
            <path d="M175.661302,101.812695 C175.583224,98.3663377 176.185799,96.9328639 177.469026,97.5122729 C178.752253,98.091682 180.151457,100.429009 181.666639,104.524254 C180.297709,103.002295 179.296819,102.098441 178.663971,101.812695 C178.031122,101.526948 177.030233,101.526948 175.661302,101.812695 Z" id="Path-83" fill="#E5AA94"></path>
        </g>
    </g>
</svg>