<?xml version="1.0" encoding="UTF-8"?>
<svg width="300px" height="300px" viewBox="0 0 300 300" version="1.1" xmlns="http://www.w3.org/2000/svg" xmlns:xlink="http://www.w3.org/1999/xlink">
    <!-- Generator: Sketch 49 (51002) - http://www.bohemiancoding.com/sketch -->
    <title>处女座</title>
    <desc>Created with Sketch.</desc>
    <defs></defs>
    <g id="处女座" stroke="none" stroke-width="1" fill="none" fill-rule="evenodd">
        <g id="处女座-copy" transform="translate(34.000000, -22.000000)">
            <path d="M133.546368,37.0270716 C90.1479399,18.8209125 54.551336,30.2785855 26.7565565,71.4000905 C-1.03822305,112.521596 -7.04461118,147.217642 8.73739211,175.488231 C-2.54056322,199.902712 -2.54056322,217.102904 8.73739211,227.088807 C20.0153475,237.07471 29.3444816,239.862982 36.7247946,235.453622 C40.313289,256.967396 47.5414061,266.206707 58.4091459,263.171553 C74.7107555,258.618824 89.2056332,226.1108 130.098774,215.277767 C170.991915,204.444733 186.264418,215.574024 202.136193,202.524413 C218.007969,189.474801 211.744155,177.172973 218.007969,172.930778 C224.271782,168.688584 236.845781,146.562068 227.426875,132.08471 C218.007969,117.607351 215.826692,118.242698 208.981443,106.90103 C202.136193,95.5593614 199.516164,67.2185753 177.312801,53.2837605 C162.510559,43.993884 147.921748,38.5749877 133.546368,37.0270716 Z" id="Path-133" stroke="#372400" stroke-width="3.43200008" fill="#7A472B"></path>
            <path d="M101.806385,212.242019 C72.280377,230.109088 60.9750739,243.071844 67.8904759,251.130289 C74.805878,259.188733 81.2599361,258.531969 87.2526504,249.159997 L99.0543737,243.457931 C96.8023497,256.810939 96.8023497,268.507759 99.0543737,278.548393 C101.306398,288.589027 110.692605,302.622594 127.212997,320.649095 C131.249756,321.346312 134.135533,320.680029 135.870329,318.650249 C137.605124,316.620468 139.933246,304.871296 142.854694,283.402734 L155.482199,305.434662 C162.638975,304.447136 166.217362,302.122288 166.217362,298.460115 C166.217362,292.966857 170.155432,265.152553 168.186397,254.305242 C166.873707,247.073701 163.678782,237.023549 158.601621,224.154786 C175.570277,236.143105 185.329246,239.140185 187.878527,233.146025 C190.427809,227.151866 187.981973,222.342737 180.54102,218.718638 L146.348661,195.614115 L101.806385,212.242019 Z" id="Path-134" stroke="#372400" stroke-width="3.43200008" fill="#FFE1D6" stroke-linecap="round" stroke-linejoin="round"></path>
            <path d="M97.8408849,210.346551 C98.3802169,224.420047 98.3802169,234.165541 97.8408849,239.583034 C97.3015529,245.000527 94.4274047,264.125333 89.2184404,296.957453 C90.9056426,303.823877 97.8255173,305.540483 109.978064,302.107271 C122.130612,298.674059 141.358476,289.285258 167.661659,273.940867 L168.171639,286.109303 C178.581189,285.10885 184.678802,280.008138 186.464478,270.807167 C187.794663,263.953186 172.922669,239.583034 159.449017,222.189548 C155.419854,216.988198 151.41451,207.632536 147.432983,194.122562 L142.184051,196.137117 L145.651958,215.813225 C141.207162,218.519686 138.173466,220.645127 136.550869,222.189548 C134.928272,223.733969 132.98003,226.35044 130.706144,230.038959 C125.947148,227.595829 122.313393,226.129308 119.804879,225.639398 C117.296366,225.149487 113.421019,225.149487 108.17884,225.639398 L100.985584,207.051736 L97.8408849,210.346551 Z" id="Path-135" stroke="#372400" stroke-width="3.43200008" fill="#FFD1CF" stroke-linecap="round" stroke-linejoin="round"></path>
            <path d="M83.4758462,73.4379754 C17.8674499,97.1657688 32.7100702,185.902324 57.6127951,207.053511 C82.5155201,228.204698 178.685101,195.184687 184.788374,161.771135 C190.891648,128.357583 149.084243,49.710182 83.4758462,73.4379754 Z" id="Path-136" stroke="#372400" stroke-width="3.43200008" fill="#FFE1D6"></path>
            <path d="M187.463788,144.882934 C184.650278,138.160761 170.708047,143.725225 164.325375,149.192572 C157.942703,154.659919 154.647671,167.291922 164.325375,166.050302 C174.003079,164.808682 190.277298,151.605106 187.463788,144.882934 Z" id="Path-322-Copy" fill="#EB6262" transform="translate(173.013291, 153.966243) rotate(24.000000) translate(-173.013291, -153.966243) "></path>
            <path d="M79.5038475,173.347677 C76.6903375,166.625504 62.7481067,172.189968 56.3654346,177.657315 C49.9827624,183.124662 46.6877308,195.756666 56.3654346,194.515046 C66.0431384,193.273426 82.3173574,180.06985 79.5038475,173.347677 Z" id="Path-322-Copy-2" fill="#EB6262" transform="translate(65.053351, 182.430987) rotate(24.000000) translate(-65.053351, -182.430987) "></path>
            <path d="M39.4087566,175.109315 C30.2793658,170.288731 25.4027908,170.693077 24.7790314,176.322352 C23.8433924,184.766264 31.3651878,201.70763 36.3490329,202.722569 C39.6715963,203.399195 42.6934104,199.85309 45.4144753,192.084254 C43.2335477,188.447424 41.8730153,185.863994 41.332878,184.333964 C40.7927407,182.803934 40.1513669,179.729051 39.4087566,175.109315 Z" id="Path-152" stroke="#372400" stroke-width="3.43200008" fill="#FFE1D6"></path>
            <path d="M124.632163,77.7295903 C121.714879,92.6875765 116.481782,103.899152 108.932871,111.364318 C101.38396,118.829484 90.9772999,123.084164 77.7128902,124.128358 C60.999524,140.819825 52.2074441,153.578305 51.3366503,162.403797 C50.0304596,175.642035 59.3464447,186.283972 59.3464447,193.095635 C59.3464447,197.636744 56.6765132,203.426016 51.3366503,210.463451 C51.1697316,205.276607 49.3641603,198.505334 45.9199363,190.149632 C40.7536002,177.616079 38.5307429,185.20464 31.3258572,162.403797 C24.1209715,139.602954 27.0764855,111.906426 49.2029277,82.8027987 C71.3293699,53.6991714 125.222747,55.2075477 146.168234,63.8515417 C167.113722,72.4955358 178.77061,98.3679452 178.77061,106.824881 C178.77061,115.281817 174.370066,116.680685 176.442804,124.128358 C177.82463,129.093474 180.913289,133.675009 185.70878,137.872964 C173.212883,131.69984 165.591254,127.118305 162.843895,124.128358 C158.722857,119.643438 165.401709,117.597663 156.589183,109.805897 C147.776657,102.014132 139.78759,104.596609 132.64553,97.4278885 C127.884156,92.6487417 125.213034,86.0826423 124.632163,77.7295903 Z" id="Path-137" fill="#7A472B"></path>
            <path d="M46.2447225,30.4192752 C40.4891133,42.0111543 38.0948883,49.2386612 39.0620476,52.1017962 C40.0292068,54.9649311 47.2399432,54.0131038 60.6942568,49.2463142 C53.1335382,65.6840075 50.6037692,75.4627687 53.1049497,78.5825979 C56.8567205,83.2623416 74.4018965,72.3641412 80.5633445,74.0298746 C86.7247924,75.6956079 70.4599151,82.5772901 82.9270345,86.6449301 C95.3941539,90.7125701 105.605833,79.943128 119.227878,86.6449301 C132.849923,93.3467321 126.196238,109.972588 133.752241,111.650021 C141.308244,113.327455 142.404912,93.4777515 153.171741,94.1804721 C163.938571,94.8831927 169.536401,113.463918 174.322489,114.297927 C179.108577,115.131936 173.933661,99.0029471 177.186094,98.36514 C179.354382,97.9399352 182.900756,102.368229 187.825215,111.650021 L181.390456,95.6811447 C177.610665,89.1849241 174.6302,86.1728526 172.449061,86.6449301 C169.177353,87.3530464 175.070765,101.610268 168.989598,98.36514 C162.90843,95.1200122 162.876125,75.9980005 154.112974,76.8601401 C145.349823,77.7222796 145.213517,104.283391 136.317454,101.579503 C127.421392,98.8756151 132.652483,71.3853419 122.645669,67.2959016 C112.638855,63.2064612 94.0999032,83.1167245 89.133019,82.2968493 C84.1661348,81.4769741 106.126144,67.9268298 99.7435647,63.5154901 C93.3609855,59.1041503 69.4133567,72.9158379 64.9125399,65.5567889 C60.411723,58.19774 85.4147128,42.8935978 84.1094683,37.9530012 C82.8042238,33.0124045 63.720412,42.6949157 57.6199608,37.9530012 C53.5529934,34.7917248 53.1935585,31.0877858 56.541656,26.8411841 L46.2447225,30.4192752 Z" id="Path-183" fill-opacity="0.250905797" fill="#FFFFFF" transform="translate(113.339277, 70.585183) rotate(-24.000000) translate(-113.339277, -70.585183) "></path>
            <path d="M94.5842958,139.35351 C95.037245,138.651465 95.6887057,138.651465 96.5386779,139.35351 C97.3886501,140.055554 97.5660889,140.879181 97.0709943,141.82439 C89.5014912,148.218893 83.5063576,152.641724 79.0855934,155.092883 C72.4544472,158.769622 64.7033782,160.529706 62.5748176,160.951313 C60.4462571,161.37292 57.3392542,159.552641 58.5819272,159.154075 C59.8246002,158.755508 66.6842833,158.542722 77.0897924,152.819905 C84.0267985,149.004694 89.8582997,144.515895 94.5842958,139.35351 Z" id="Path-138" fill="#372400"></path>
            <path d="M91.3332451,140.253832 L81.4822124,146.238111 C80.2531591,147.919869 81.0228472,147.919869 83.7912769,146.238111 C86.5597066,144.556352 89.073696,142.561593 91.3332451,140.253832 Z" id="Path-139" fill="#372400"></path>
            <path d="M76.2524454,148.851524 C74.4950925,150.201111 73.1794608,151.020288 72.30555,151.309054 C71.4316392,151.59782 69.5953309,151.820138 66.796625,151.976008 C69.2036372,152.606209 71.3607506,152.606209 73.2679651,151.976008 C75.1751797,151.345808 76.1700065,150.304313 76.2524454,148.851524 Z" id="Path-140" fill="#372400"></path>
            <path d="M128.946599,130.431989 L137.347264,130.431989 C137.753241,131.42725 137.178075,131.92488 135.621766,131.92488 C134.065458,131.92488 131.840402,131.42725 128.946599,130.431989 Z" id="Path-141" fill="#372400"></path>
            <path d="M126.597526,134.171331 C125.213822,133.854716 124.521969,134.330371 124.521969,135.598296 C124.521969,136.866221 125.213822,137.500183 126.597526,137.500183 C133.53495,138.908429 139.369951,138.908429 144.102531,137.500183 C148.83511,136.091938 154.151839,132.342359 160.052716,126.251448 C159.668546,125.249364 158.410581,125.650363 156.278823,127.454443 C153.081186,130.160563 149.480774,133.463257 144.102531,134.957851 C140.517036,135.954247 134.682034,135.692073 126.597526,134.171331 Z" id="Path-142" fill="#372400"></path>
            <path d="M72.1614368,157.75641 C72.2284959,159.394823 72.1220662,160.593152 71.8421478,161.351396 C71.5622294,162.10964 70.5777548,163.251864 68.888724,164.778067 C70.2593851,163.409365 71.057884,162.267141 71.2842206,161.351396 C71.5105571,160.435651 71.5105571,159.237322 71.2842206,157.75641 L72.1614368,157.75641 Z" id="Path-145" fill="#372400"></path>
            <path d="M76.2741965,156.041667 C76.3412556,157.680079 76.2348259,158.878408 75.9549074,159.636652 C75.674989,160.394896 74.6905144,161.53712 73.0014837,163.063323 C74.3721448,161.694621 75.1706436,160.552397 75.3969802,159.636652 C75.6233168,158.720907 75.6233168,157.522579 75.3969802,156.041667 L76.2741965,156.041667 Z" id="Path-145-Copy" fill="#372400"></path>
            <path d="M66.6777573,158.442308 C66.7448164,160.080721 66.6383867,161.279049 66.3584683,162.037293 C66.0785498,162.795537 65.0940752,163.937761 63.4050445,165.463964 C64.7757056,164.095262 65.5742045,162.953038 65.800541,162.037293 C66.0268776,161.121548 66.0268776,159.92322 65.800541,158.442308 L66.6777573,158.442308 Z" id="Path-145-Copy-2" fill="#372400"></path>
            <path d="M153.290198,131.349359 C153.887274,133.046374 154.527323,134.248361 155.210343,134.95532 C155.893364,135.662279 157.548603,136.588315 160.17606,137.733428 C158.156414,137.345505 156.501175,136.688446 155.210343,135.762252 C153.919512,134.836058 152.906766,133.621941 152.172107,132.119902 L153.290198,131.349359 Z" id="Path-143" fill="#372400"></path>
            <path d="M148.149248,134.092949 C148.746325,135.789964 149.386373,136.991951 150.069394,137.698909 C150.752415,138.405868 152.407653,139.331905 155.03511,140.477018 C153.015464,140.089094 151.360225,139.432035 150.069394,138.505841 C148.778562,137.579647 147.765817,136.365531 147.031157,134.863492 L148.149248,134.092949 Z" id="Path-143-Copy" fill="#372400"></path>
            <path d="M143.351029,137.179487 C143.948105,138.876502 144.588153,140.078489 145.271174,140.785448 C145.954195,141.492407 147.609434,142.418443 150.236891,143.563557 C148.217244,143.175633 146.562006,142.518574 145.271174,141.59238 C143.980343,140.666186 142.967597,139.452069 142.232938,137.95003 L143.351029,137.179487 Z" id="Path-143-Copy-2" fill="#372400"></path>
            <path d="M125.329898,115.015751 C130.074172,113.957231 133.565806,109.688108 136.546211,108.070684 C138.533148,106.992402 144.067874,104.581791 153.15039,100.838852 C149.299736,101.041485 144.423923,102.341257 138.522948,104.738169 C129.671486,108.333536 120.585624,116.074271 125.329898,115.015751 Z" id="Path-144" fill="#372400"></path>
            <path d="M68.9600886,123.629982 C75.6133698,123.401508 92.7426394,124.604576 84.2311791,125.998257 C80.9974772,126.527749 76.1915567,125.840524 69.8951455,125.998257 C66.7270423,126.077622 60.4928277,127.140077 51.1925018,129.185623 C58.6020388,125.634178 64.5245678,123.782298 68.9600886,123.629982 Z" id="Path-146" fill="#372400"></path>
            <path d="M102.52618,176.558427 C110.062083,175.121529 115.62343,173.765173 119.210223,172.489357 C122.797015,171.213542 127.950695,168.758583 134.671262,165.124481 C136.324806,181.439708 133.154731,191.329502 125.161039,194.793865 C117.167346,198.258227 109.622393,192.179748 102.52618,176.558427 Z" id="Path-149" fill="#FFC1A8"></path>
            <path d="M98.7925598,173.729921 C98.7925598,173.338992 100.949099,175.32779 104.61419,175.32779 C108.279282,175.32779 113.545628,173.515008 117.9235,172.02008 C122.301371,170.525153 131.576783,166.916401 133.297944,165.448887 C135.019105,163.981373 135.494222,160.684942 135.812984,160.9844 C136.131747,161.283858 136.475502,163.705586 134.751204,165.870986 C133.026905,168.036385 124.692923,171.327689 119.681038,173.12333 C114.669152,174.918972 107.589468,177.002027 104.077515,177.104013 C100.565562,177.205998 98.7925598,174.12085 98.7925598,173.729921 Z" id="Path-147" fill="#372400"></path>
            <path d="M103.475819,176.59412 C109.836424,191.420887 116.767529,197.472575 124.269135,194.749184 C131.770741,192.025794 135.103313,182.280361 134.26685,165.512888 L135.521544,164.148865 C136.737371,182.301117 133.086401,192.69316 124.568634,195.324995 C116.050866,197.95683 108.303168,191.605453 101.325538,176.270862 L103.475819,176.59412 Z" id="Path-148" fill="#372400"></path>
            <path d="M177.534125,120.799435 C178.902803,113.389441 181.785671,110.231904 186.182729,111.326824 C192.778315,112.969205 192.683398,127.161499 192.34394,132.070123 C192.117635,135.342539 189.274567,136.920767 183.814736,136.804807 L177.534125,120.799435 Z" id="Path-150" stroke="#372400" stroke-width="3.43200008" fill="#FFE1D6"></path>
            <path d="M182.039228,120.545489 C182.571356,117.480528 183.474906,116.370512 184.749879,117.215442 C186.024851,118.060372 187.115679,120.492071 188.022361,124.510538 C186.71854,122.448916 185.627712,121.127233 184.749879,120.545489 C183.872045,119.963745 182.968495,119.963745 182.039228,120.545489 Z" id="Path-151" fill="#E5AA94"></path>
            <path d="M34.3179223,178.651485 C32.5628495,175.093579 31.1593529,174.624886 30.1074324,177.245407 C29.055512,179.865928 29.5814722,183.202414 31.6853131,187.254864 C30.7176361,182.280202 30.7176361,179.79287 31.6853131,179.79287 C32.65299,179.79287 33.5305264,179.412409 34.3179223,178.651485 Z" id="Path-153" fill="#E5AA94"></path>
            <path d="M176.828429,109.850589 C175.793556,114.197954 175.793556,118.619907 176.828429,123.116449 C177.863302,127.612991 179.911261,132.089457 182.972307,136.545846 C170.675003,130.637732 163.757208,126.161266 162.218922,123.116449 C159.911493,118.549223 163.272808,117.827639 159.503754,112.328928 C155.7347,106.830218 145.47637,103.999516 135.555856,99.7180578 C128.94218,96.8637525 125.380646,88.2853821 124.871254,73.9829465 C120.873619,95.9170942 114.045965,109.705878 104.388291,115.349299 C94.7306167,120.99272 85.4337855,123.933289 76.4977973,124.171008 C60.5667909,141.729004 52.095546,154.400006 51.0840624,162.184015 C49.5668371,173.860029 58.1879895,184.058464 58.4410468,193.308251 C58.6097516,199.474775 56.6103727,205.656293 52.44291,211.852805 C49.2006587,198.302863 46.4700463,189.385618 44.2510726,185.101069 C42.032099,180.81652 38.8799883,176.030403 34.7947404,170.742716" id="Path-154" stroke="#372400" stroke-width="3.43200008" stroke-linecap="round" stroke-linejoin="round"></path>
            <path d="M31.7292749,172.053728 C23.0975965,111.440897 37.7485261,75.154719 75.6820638,63.1951942 C113.615602,51.2356694 148.774592,67.6662737 181.159035,112.487007 C181.881739,111.824085 182.48177,111.442272 182.959128,111.341567 C183.436485,111.240862 184.646313,111.240862 186.588611,111.341567 C161.22832,57.6158159 124.259471,38.9968415 75.6820638,55.4846435 C27.1046571,71.9724454 9.91821321,111.196141 24.1227323,173.155729 C25.9796412,171.893976 27.4797122,171.180286 28.6229453,171.01466 C29.7661783,170.849033 30.8016215,171.19539 31.7292749,172.053728 Z" id="Path-155" stroke="#372400" stroke-width="3.43200008" fill="#FFD1CF" stroke-linecap="round" stroke-linejoin="round"></path>
            <path d="M165.608335,275.612022 C170.453216,273.543144 174.244021,272.79224 176.98075,273.359309 C179.71748,273.926378 181.726072,275.878957 183.006526,279.217046 C180.465803,281.485042 177.796331,283.177142 174.998111,284.293345 C172.199891,285.409548 169.640109,285.663144 167.318763,285.054134 C167.667531,282.026577 167.667531,279.877183 167.318763,278.605952 C166.969994,277.33472 166.399852,276.336743 165.608335,275.612022 Z" id="Path-156" fill="#D39795"></path>
            <path d="M164.178292,277.473123 C163.360932,277.950542 162.858206,278.291005 162.381092,277.473123 C161.903977,276.655242 162.23941,275.715553 163.05677,275.238134 C168.460014,272.082107 172.699286,270.876324 176.983117,271.635133 C181.266947,272.393941 183.162071,273.410118 183.834188,278.105262 C183.968387,279.04272 183.43417,280.433648 182.49731,280.567932 C181.56045,280.702216 181.72196,280.710113 181.587762,279.772655 C181.123539,276.529784 180.078439,273.984465 176.983117,273.436181 C173.603705,272.837575 168.938487,274.6927 164.178292,277.473123 Z" id="Path-157" fill="#372400" fill-rule="nonzero"></path>
            <path d="M164.217878,257.920061 C160.805744,254.251542 159.736149,251.747531 161.009092,250.408029 C162.918506,248.398775 169.699977,248.614307 171.356639,250.408029 C172.461081,251.603843 171.324576,254.107854 167.947125,257.920061 C172.811617,258.308326 175.524795,259.236092 176.08666,260.703358 C176.929458,262.904258 173.311059,266.823743 171.356639,266.823743 C170.053693,266.823743 168.917188,264.783615 167.947125,260.703358 C166.737767,265.021938 165.494684,267.589553 164.217878,268.406205 C162.302668,269.631182 159.31482,269.450743 158.378116,266.823743 C157.844025,265.325877 158.999264,263.730906 159.962773,262.291013 C160.689094,261.205581 161.306463,260.208273 161.009092,259.407117 C160.317239,257.543178 155.723571,259.429128 155.073267,257.920061 C154.422962,256.410995 155.810404,253.301797 158.378116,253.301797 C160.089924,253.301797 162.036511,254.841218 164.217878,257.920061 Z" id="Path-158" stroke="#372400" stroke-width="2.05920005" fill="#FFFFFF" stroke-linecap="round" stroke-linejoin="round"></path>
            <path d="M84.2967927,262.528351 C84.9336705,262.796547 85.5227487,262.796547 86.0640271,262.528351 C86.6053056,262.260155 86.8759448,261.635169 86.8759448,260.653392 L69.0198711,225.697362 L66.6394628,227.200944 L84.2967927,262.528351 Z" id="Path-159" stroke="#372400" stroke-width="1.37280003" fill="#FFFFFF" stroke-linecap="round" stroke-linejoin="round"></path>
            <path d="M70.0049112,232.49835 C73.8259571,230.80508 78.1417261,228.918613 81.4371982,224.914125 C82.3213719,223.839723 81.2154969,221.797359 83.6748617,220.282178 C89.517881,216.682375 89.0051099,207.797944 86.8609072,200.823192 C82.5729376,186.875104 60.9789282,175.311367 45.8325761,180.836494 C30.686224,186.361622 20.2011887,204.004847 28.8914883,224.161056 C37.5817878,244.317264 60.3114645,236.793936 70.0049112,232.49835 Z" id="Path-160" stroke="#372400" stroke-width="2.74560007" fill="#FFFFFF" stroke-linecap="round" stroke-linejoin="round"></path>
            <path d="M74.7579421,216.650047 C75.9763704,211.687112 68.8472928,190.971489 56.048892,190.971489 C43.2504913,190.971489 39.8608563,200.888099 39.8608563,211.463784 C39.8608563,222.039468 47.0119526,225.253945 56.048892,222.943871 C65.0858315,220.633797 63.1392431,209.36597 59.4707102,206.95768 C57.0250215,205.352153 54.4646216,205.806565 51.7895104,208.320916" id="Path-161" stroke="#FFC8C8" stroke-width="7.20720018" stroke-linecap="round" stroke-linejoin="round"></path>
            <path d="M70.5772233,252.885837 C70.938966,252.885837 74.3404654,257.409459 78.1116988,256.705105 C81.8829322,256.00075 85.1270006,254.488701 86.5488149,249.902818 C87.9706292,245.316935 89.7070013,241.755693 85.5301695,239.283667 C82.7456149,237.63565 78.2840074,238.33384 72.145347,241.378237" id="Path-162" fill="#FFE1D6"></path>
            <path d="M68.3329772,251.694141 C68.6947199,251.694141 72.8654577,257.685947 78.1116988,256.705105 C83.3579398,255.724263 86.8135315,254.170343 88.2353458,249.58446 C89.6571601,244.998576 89.7499025,241.36178 85.5730706,238.889755 C82.7885161,237.241738 78.3126082,238.071232 72.145347,241.378237" id="Path-162" stroke="#372400" stroke-width="3.43200008" stroke-linecap="round" stroke-linejoin="round"></path>
        </g>
    </g>
</svg>