<?xml version="1.0" encoding="UTF-8"?>
<svg width="300px" height="300px" viewBox="0 0 300 300" version="1.1" xmlns="http://www.w3.org/2000/svg" xmlns:xlink="http://www.w3.org/1999/xlink">
    <!-- Generator: Sketch 49 (51002) - http://www.bohemiancoding.com/sketch -->
    <title>天蝎座</title>
    <desc>Created with Sketch.</desc>
    <defs></defs>
    <g id="天蝎座" stroke="none" stroke-width="1" fill="none" fill-rule="evenodd">
        <g id="天蝎座-copy" transform="translate(11.000000, 10.000000)">
            <path d="M224.51221,54.2898911 C181.132828,16.764645 119.937021,12.600288 61.3306518,48.747594 C2.72428286,84.8949001 -19.3297837,148.213958 20.0663362,176.263051 C59.4624561,204.312144 183.709683,183.967684 219.617627,161.444126 C255.525571,138.920567 267.891591,91.8151373 224.51221,54.2898911 Z" id="Path-200" stroke="#372400" stroke-width="3.39900011" fill="#7A472B"></path>
            <path d="M116.840854,160.374975 C104.249517,165.904087 95.7309392,170.397756 91.2851202,173.855982 C63.5688986,195.415333 53.6874624,211.428906 55.7059051,214.5287 C58.2100002,218.374327 72.8945377,212.469726 99.7595176,196.814898 C96.434976,205.180977 94.1880753,215.310874 93.0188155,227.204588 C91.8495557,239.098302 92.9260641,252.564706 96.2483408,267.603801 L115.616025,271.789236 C127.404043,249.167922 136.498153,238.007158 142.898354,238.306942 C149.298555,238.606726 153.593149,250.394616 155.782137,273.67061 L175.261062,273.67061 C179.252332,255.691367 181.62428,241.223299 182.376905,230.266408 C183.129529,219.309516 182.517312,208.159013 180.540253,196.814898 C203.064485,203.614996 215.162089,205.722513 216.833064,203.13745 C218.504038,200.552386 206.406435,186.939955 180.540253,162.300157 L116.840854,160.374975 Z" id="Path-220" stroke="#372400" stroke-width="3.39900011" fill="#FFE1D6" stroke-linecap="round" stroke-linejoin="round"></path>
            <path d="M124.600472,164.356762 C130.372945,185.566333 137.479716,196.53529 145.920783,197.263633 C154.36185,197.991976 164.315904,188.495124 175.782945,168.773077 C175.729776,179.723382 176.265009,187.639125 177.388645,192.520306 C179.074099,199.842077 183.813601,208.857678 182.341402,212.274366 C180.869203,215.691055 175.782945,215.898586 167.86475,214.623419 C162.585954,213.773308 155.271298,210.743456 145.920783,205.533863 C132.215114,210.657097 122.058302,212.903932 115.450348,212.274366 C105.538417,211.330018 97.7511592,206.446028 97.4045321,200.911532 C97.0579051,195.377037 110.205508,194.801682 114.033755,189.656035 C116.58592,186.225603 120.108159,177.792513 124.600472,164.356762 Z" id="Path-221" stroke="#372400" stroke-width="3.39900011" fill="#000000" stroke-linecap="round" stroke-linejoin="round"></path>
            <path d="M74.7588026,74.3622181 C73.1359533,113.142116 77.7362616,138.071205 88.5597274,149.149485 C104.794926,165.766904 164.468031,179.085682 198.290216,166.33996 C220.838339,157.842811 232.080337,129.289503 232.016211,80.6800343 C195.855634,62.2144049 168.639182,52.6145449 150.366853,51.8804541 C132.094525,51.1463634 106.891841,58.6402847 74.7588026,74.3622181 Z" id="Path-219" stroke="#372400" stroke-width="3.39900011" fill="#FFE1D6"></path>
            <path d="M233.122896,68.9256483 C235.892352,91.6464114 236.74359,106.723497 235.676609,114.156906 C231.196878,145.366175 220.016887,155.490286 217.659635,156.543656 C213.030306,158.612337 229.415044,140.63382 225.77834,119.974049 C222.901815,103.632789 199.755426,83.644403 197.874758,84.3322622 C186.207731,88.5995086 176.768503,90.9301327 169.557073,91.3241345 C149.389714,92.4259932 144.175758,77.2983245 129.996156,75.2493882 C115.816553,73.2004519 102.74728,79.1574468 89.5658632,95.7436999 C76.384446,112.329953 86.8886135,124.832763 85.0878988,131.718863 C83.8874223,136.309597 80.1007537,140.405408 73.7278931,144.006295 L71.6478224,82.9997123 L71.6478224,60.3154144 L164.823118,40.4756239 L233.122896,68.9256483 Z" id="Path-222" fill="#7A472B"></path>
            <path d="M42.5329365,66.0290578 C42.4314583,72.5046382 46.4990497,76.2375844 54.7357109,77.2278964 C67.0907027,78.7133644 71.331421,73.0188737 89.1046435,71.6284771 C95.1227886,71.1576785 99.9917077,72.4306411 99.8909221,74.7700403 C99.6940602,79.3395246 88.3512284,87.0208825 84.315869,87.0208825 C78.2145615,87.0208825 88.245995,77.2278964 77.3236721,77.2278964 C66.4013491,77.2278964 55.5845768,87.0208825 47.3310799,87.0208825 C41.8287486,87.0208825 38.6020112,83.7565538 37.6508677,77.2278964 C38.6714686,74.6742457 39.4388226,72.8077727 39.9529296,71.6284771 C40.4670367,70.4491816 41.327039,68.5827085 42.5329365,66.0290578 Z" id="Path-17" fill="#BB8C6E" transform="translate(68.771663, 76.524970) rotate(14.000000) translate(-68.771663, -76.524970) "></path>
            <path d="M234.433264,121.266798 C229.953532,152.476066 220.016887,155.490286 217.659635,156.543656 C213.030306,158.612337 229.415044,140.63382 225.77834,119.974049 C222.901815,103.632789 199.755426,83.644403 197.874758,84.3322622 C186.207731,88.5995086 176.768503,90.9301327 169.557073,91.3241345 C149.389714,92.4259932 144.175758,77.2983245 129.996156,75.2493882 C115.816553,73.2004519 102.74728,79.1574468 89.5658632,95.7436999 C76.384446,112.329953 86.8886135,124.832763 85.0878988,131.718863 C83.8874223,136.309597 80.1007537,140.405408 73.7278931,144.006295 C74.7094952,139.372636 75.3435513,135.704212 75.6300613,133.001022 C75.7662554,131.716046 75.7662554,129.402222 75.6300613,126.059549" id="Path-222" stroke="#372400" stroke-width="3.39900011" stroke-linecap="round" stroke-linejoin="round"></path>
            <path d="M91.1249809,217.04456 C114.475549,224.258372 131.814197,228.23953 143.140926,228.988034 C154.467654,229.736538 167.949126,227.792066 183.58534,223.154617 L183.58534,236.37575 L145.619854,248.541496 C146.960276,244.002261 145.349745,241.732644 140.788261,241.732644 C136.226777,241.732644 133.186853,244.002261 131.668489,248.541496 L91.1249809,241.732644 L91.1249809,217.04456 Z" id="Path-223" stroke="#372400" stroke-width="3.39900011" fill="#000000" stroke-linecap="round" stroke-linejoin="round"></path>
            <path d="M216.969323,168.65438 C223.85567,172.411158 227.861157,180.563413 228.985783,193.111145 C240.379243,188.348636 247.950494,188.348636 251.699536,193.111145 C255.448578,197.873654 254.063768,203.677432 247.545106,210.522479 C262.290592,205.291074 270.514048,205.291074 272.215472,210.522479 C273.916897,215.753884 271.002832,219.914583 263.473278,223.004577 C270.926981,251.292121 262.029925,269.85626 236.782111,278.696994 C211.534297,287.537727 188.594139,281.637514 167.961635,260.996354 C178.267129,262.823821 188.394234,263.321347 198.34295,262.488935 C208.291666,261.656523 218.505943,259.457025 228.985783,255.890443 C219.40689,258.565947 212.207345,260.267917 207.387148,260.996354 C202.56695,261.724792 198.504258,261.724792 195.199071,260.996354 C197.456813,251.055532 201.802623,243.977995 208.236502,239.763744 C217.88732,233.442368 250.147746,227.1509 253.613576,225.064653 C257.079406,222.978407 245.305719,223.004577 243.778086,218.369586 C242.759663,215.279593 242.759663,213.118761 243.778086,211.887092 C234.860772,214.106979 228.80271,214.106979 225.603897,211.887092 C222.405085,209.667204 220.645037,207.168238 220.323754,204.390194 C209.431236,206.707527 200.446528,205.185803 193.369631,199.825021 C186.292735,194.46424 185.363621,185.242733 190.582291,172.160502 C201.287298,166.066309 210.082976,164.897601 216.969323,168.65438 Z" id="Path-224" stroke="#372400" stroke-width="3.39900011" fill="#7A472B" stroke-linecap="round" stroke-linejoin="round"></path>
            <polygon id="Path-225" stroke="#372400" stroke-width="3.39900011" fill="#000000" stroke-linejoin="round" points="64.654962 45.8947557 165.601357 64.3134413 223.493312 53.5529261 230.521436 60.2197637 163.454401 79.1471495 53.7193293 53.5529261"></polygon>
            <polygon id="Path-226" fill="#FFEC5B" points="162.430815 51.9870539 155.514012 65.0025272 141.006673 65.0025272 156.740949 74.2997895 151.618162 83.4747308 162.907283 77.5469345 176.626867 83.4747308 170.571955 74.2997895 182.753749 67.2945274 168.214328 65.0025272"></polygon>
            <path d="M136.628799,103.819703 C135.241195,105.976674 132.940858,107.629099 129.727786,108.776979 C126.514715,109.924858 124.034646,109.924858 122.287581,108.776979" id="Path-227" stroke="#372400" stroke-width="3.39900011" stroke-linecap="round" stroke-linejoin="round"></path>
            <path d="M180.500324,107.666932 C179.369952,111.091196 179.369952,113.493659 180.500324,114.874322 C181.630696,116.254985 185.564571,118.657448 192.30195,122.081712" id="Path-228" stroke="#372400" stroke-width="3.39900011" stroke-linecap="round" stroke-linejoin="round"></path>
            <polyline id="Path-229" stroke="#372400" stroke-width="3.39900011" stroke-linecap="round" stroke-linejoin="round" points="139.327134 117.667092 116.826245 121.062495 98.9051041 123.766809"></polyline>
            <polyline id="Path-230" stroke="#372400" stroke-width="3.39900011" stroke-linecap="round" stroke-linejoin="round" points="171.280237 120.226453 188.013568 129.610633 202.103701 137.512486"></polyline>
            <path d="M141.09156,137.665159 C141.328839,141.697888 142.676192,143.714253 145.133619,143.714253 C147.591046,143.714253 150.158422,142.180621 152.835748,139.113358 C154.009298,142.998659 155.706903,144.94131 157.928562,144.94131 C160.150221,144.94131 161.791528,143.834842 162.852484,141.621906" id="Path-231" stroke="#372400" stroke-width="3.39900011" stroke-linecap="round" stroke-linejoin="round"></path>
            <path d="M113.891518,136.719392 C109.622994,128.421647 89.5670919,131.650596 80.0281524,136.719392 C70.4892129,141.788188 72.3806209,147.839082 86.5011705,147.839082 C100.62172,147.839082 118.160043,145.017137 113.891518,136.719392 Z" id="Path-232" fill="#EB6262"></path>
            <path d="M221.776681,147.059106 C217.508157,138.76136 197.452255,141.99031 187.913315,147.059106 C178.374376,152.127901 180.265784,158.178795 194.386333,158.178795 C208.506883,158.178795 226.045205,155.356851 221.776681,147.059106 Z" id="Path-232-Copy" fill="#EB6262" transform="translate(202.214490, 150.077163) rotate(27.000000) translate(-202.214490, -150.077163) "></path>
            <path d="M231.257074,26.0160869 C231.094025,38.8390161 230.28269,48.7119537 228.823068,55.6348997 C226.633636,66.0193186 215.76918,70.1634523 221.694744,71.3699663 C227.620307,72.5764804 243.625033,69.9502574 245.909741,59.1139458 C247.43288,51.8897382 242.548657,40.8571185 231.257074,26.0160869 Z" id="Path-233" stroke="#372400" stroke-width="3.39900011" fill="#B71414" stroke-linecap="round" stroke-linejoin="round"></path>
            <path d="M87.4250386,0.165125368 C87.2619897,12.9880546 86.4506545,22.8609922 84.9910331,29.7839381 C82.8016009,40.1683571 71.9371448,44.3124908 77.8627085,45.5190048 C83.7882722,46.7255188 99.7929974,44.0992958 102.077706,33.2629843 C103.600845,26.0387766 98.7166223,15.006157 87.4250386,0.165125368 Z" id="Path-233" stroke="#372400" stroke-width="3.39900011" fill="#B71414" stroke-linecap="round" stroke-linejoin="round" transform="translate(89.232177, 22.976935) scale(-1, 1) translate(-89.232177, -22.976935) "></path>
        </g>
    </g>
</svg>