<?xml version="1.0" encoding="UTF-8"?>
<svg width="140px" height="43px" viewBox="0 0 140 43" version="1.1" xmlns="http://www.w3.org/2000/svg" xmlns:xlink="http://www.w3.org/1999/xlink">
    <!-- Generator: Sketch 51 (57462) - http://www.bohemiancoding.com/sketch -->
    <title>选择星座/标题</title>
    <desc>Created with Sketch.</desc>
    <defs>
        <linearGradient x1="50%" y1="-2.48949813e-15%" x2="50%" y2="100%" id="linearGradient-1">
            <stop stop-color="#AD62FB" offset="0%"></stop>
            <stop stop-color="#7F39D7" offset="100%"></stop>
        </linearGradient>
    </defs>
    <g id="星座配对" stroke="none" stroke-width="1" fill="none" fill-rule="evenodd">
        <g id="选择星座" transform="translate(-118.000000, -82.000000)">
            <rect fill="#FFFFFF" x="0" y="0" width="375" height="667"></rect>
            <g id="选择星座/标题" transform="translate(118.000000, 84.000000)">
                <path d="M21.2235349,16.5762379 C21.4319086,15.6883839 22.0872888,14.9364236 22.998819,14.6374416 C22.3858938,13.9488826 22.0973109,12.9879887 22.3035051,12.0171089 C22.3200977,11.9389816 22.3398031,11.8615479 22.3625742,11.7849929 L24.0167974,6.22360389 C24.4530143,4.7570716 25.9738362,3.90088329 27.4539375,4.28857184 L28.1383456,4.46784146 C29.0886889,4.71676851 29.7785561,5.51804091 29.9001246,6.47282243 L30.0339533,5.56968455 C30.2803009,3.90721576 31.7073069,2.67608421 33.3879287,2.67608421 C34.9961933,2.67608421 36.2999493,3.97984023 36.2999493,5.58810477 C36.2999493,5.66156059 36.2971699,5.73499011 36.2916171,5.80823575 L36.2737677,6.04368233 C36.2284849,6.64099488 36.6759935,7.1619213 37.273306,7.20720405 C37.3005877,7.20927229 37.3279378,7.21030753 37.3552977,7.21030753 L37.5499601,7.21030753 C39.2366326,7.21030753 40.6039509,8.57762579 40.6039509,10.2642983 C40.6039509,11.9509709 39.2366326,13.3182892 37.5499601,13.3182892 L35.9026406,13.3182892 C35.6700166,13.3182892 35.4767258,13.4976232 35.4593242,13.7295954 C35.4530008,13.8138899 35.5162089,13.8873501 35.6005033,13.8936735 C35.6081321,13.8942458 35.6157932,13.8942453 35.623422,13.8936721 L37.4835798,13.7538906 C39.1621246,13.6277565 40.6369868,14.85854 40.8132902,16.532559 L40.8143791,16.5428978 C40.9876935,18.188536 39.7941393,19.6630885 38.1485011,19.836403 C38.1155429,19.8397513 38.1155429,19.8397513 38.0825388,19.8426134 L37.6952386,19.8747621 C37.188064,19.9168612 36.7753579,20.3001561 36.6959456,20.8028409 C36.6839689,20.8786547 36.7357189,20.9498229 36.8115326,20.9617996 C36.8282194,20.9644358 36.845247,20.9640073 36.8617801,20.9605354 L37.6474843,20.7955386 C39.1341369,20.4833435 40.592391,21.4354295 40.9045861,22.9220821 C40.9106444,22.9514619 40.9106444,22.9514619 40.9162748,22.9809268 C41.1927543,24.4568642 40.2204016,25.8774787 38.7444642,26.1539582 C38.6908982,26.1636229 38.6908982,26.1636229 38.6370932,26.1718546 L37.2412463,26.3758833 C36.0446872,26.5507825 34.8245344,26.4490754 33.6743651,26.0793007 C33.9099413,26.4950226 34.0444311,26.9755596 34.0444311,27.4875084 C34.0444311,29.0613029 32.821104,30.3640222 31.2504158,30.4628517 L27.3959801,30.705377 C25.1457948,30.8469612 22.8875245,30.6235117 20.7087201,30.0436917 L20.5309257,29.9963773 C18.3780935,29.4234689 16.5614245,27.9792643 15.5178038,26.0110757 C14.4857749,24.0647483 14.1260391,21.8318694 14.494575,19.659899 L14.7961655,17.8824723 C15.1198421,15.9748805 16.9042168,14.6723325 18.8197099,14.9453874 C19.8696728,15.0950604 20.7337872,15.7224107 21.2235349,16.5762379 Z M51.9868054,14.8702952 C52.4330185,15.0658479 52.7948632,15.4466915 52.9505159,15.9480288 L53.6016804,18.0453466 C53.9645657,19.2141537 53.3301804,20.4592818 52.1713166,20.8527668 C51.8833623,20.9505399 51.6896679,21.2208631 51.6896679,21.5249638 L51.6896679,24.036796 C51.6896679,25.6169455 50.4087036,26.8979098 48.828554,26.8979098 C48.6881102,26.8979098 48.547857,26.8875689 48.4089318,26.8669708 L48.3532229,26.858711 C46.6749174,26.6098733 45.3962806,25.226049 45.2806235,23.5333432 L45.2093823,22.4906899 C44.3968411,22.4741529 43.6713473,21.9269822 43.4488656,21.120091 L42.8498043,18.9474298 C42.5424504,17.832726 43.1969367,16.6799205 44.3116404,16.3725666 C44.3900265,16.3520379 44.3900265,16.3520379 44.469367,16.3355789 C44.6375832,16.3029408 44.7552301,16.1502311 44.743878,15.9792542 L44.7362343,15.8641308 C44.7227642,15.6612558 44.5542779,15.5035853 44.3509562,15.5035853 L44.2481078,15.5035853 C42.9408482,15.5035853 41.8439259,14.5179341 41.7046308,13.2181171 L41.5538234,11.8108736 C41.4156451,10.5214775 42.3488915,9.36419978 43.6382876,9.22602145 C43.7140157,9.21790604 43.7900937,9.21347996 43.866252,9.21275891 C44.1440339,9.21012894 44.3682638,8.98499921 44.3697813,8.70720904 L44.3777377,7.25071768 C44.3876814,5.43045875 45.7776001,3.91500133 47.5902171,3.7480845 C49.2946105,3.59113356 50.8035283,4.84558353 50.9604792,6.54997695 C50.9691794,6.64445541 50.9735363,6.73928357 50.9735363,6.83416177 L50.9735363,8.64501427 C50.9735363,8.66591561 50.9904802,8.68285949 51.0113815,8.68285949 C51.0144693,8.68285949 51.0175454,8.68248161 51.0205413,8.68173429 C52.1764681,8.39339019 53.3472809,9.0967049 53.635625,10.2526317 C53.6595989,10.3487391 53.6769246,10.4463837 53.6874791,10.5448722 L53.8537778,12.0966708 C53.9889218,13.3577523 53.1943934,14.5249641 51.9868054,14.8702952 Z M53.3062988,8.81118419 C53.0980025,8.63133779 52.9430274,8.38612578 52.8764206,8.09784835 L52.4939275,6.44240016 C52.1313908,4.87332436 53.109484,3.30744303 54.6785598,2.94490633 C54.736059,2.93162107 54.7939483,2.92008443 54.8521477,2.91031235 L59.6598528,2.10306509 C61.4507346,1.80236352 63.2843304,1.87329428 65.0466304,2.31144701 L65.7287149,2.4810306 C67.1333644,2.83026229 68.337733,3.73137996 69.0691673,4.9803823 L69.1513201,5.12066696 C69.8492687,6.31248873 69.9144924,7.77185694 69.3256467,9.02118957 L69.0323243,9.64352121 C69.8018762,10.0429039 70.2115866,10.9401842 69.9662378,11.8070747 C69.9625742,11.8199024 69.9625742,11.8199024 69.9587885,11.8326947 L69.6514288,12.862267 C69.185197,14.4240176 67.5492295,15.3199678 65.9822172,14.871739 L64.588995,14.4732213 C64.6295941,14.6047381 64.6583784,14.7419813 64.6739973,14.8838681 C64.6742681,14.8863367 64.6742681,14.8863367 64.6745351,14.8888057 C64.6975833,15.1026198 64.8698728,15.269569 65.0843065,15.2858756 L66.2837845,15.3770903 C67.9526763,15.5040017 69.2026984,16.9597878 69.0757871,18.6286796 C69.0748332,18.6410016 69.0748332,18.6410016 69.0738123,18.6533182 L69.0563105,18.8610453 C68.9967248,19.5682599 68.6838095,20.1937279 68.2141028,20.6552949 C69.1210344,21.136321 69.7762069,22.0412149 69.9014485,23.1253182 C70.0798332,24.669433 68.9726903,26.0657947 67.4285755,26.2441794 C67.3394341,26.2544775 67.2498512,26.2605066 67.1601339,26.2622459 L65.8848412,26.2869694 C65.9499175,27.3524591 65.1695466,28.2911265 64.0997389,28.413315 L61.3234393,28.7304109 C60.1393314,28.8656542 59.0697859,28.0153814 58.9345427,26.8312734 C58.9342444,26.8286524 58.9342444,26.8286524 58.9339504,26.8260309 C58.9223634,26.722334 58.8303076,26.6467223 58.7263354,26.6555024 L55.5282403,26.9255719 C53.8889919,27.0640015 52.4359212,25.8760224 52.2457972,24.2419627 C52.0583576,22.6309756 53.2123709,21.1730628 54.823358,20.9856233 C54.857784,20.9817549 54.857784,20.9817549 54.8922667,20.9784285 L56.8348048,20.7987456 L56.039248,20.7435853 C54.6153554,20.6448591 53.5410957,19.4105327 53.6398219,17.9866401 C53.6459531,17.8982124 53.6566296,17.8101586 53.6718091,17.722828 L53.7471516,17.2893683 C53.3246284,17.1394916 52.9707777,16.8073832 52.8092284,16.3519324 C52.8062765,16.3435592 52.8062765,16.3435592 52.803389,16.3351635 L52.2525354,14.7234453 C51.8092625,13.4264924 52.3430788,12.0316179 53.4611181,11.339679 C53.1075476,10.8728644 52.945267,10.2639683 53.0630362,9.64332402 C53.0780495,9.56420435 53.0975043,9.48599247 53.1213083,9.40905949 L53.3062988,8.81118419 Z M58.6612815,15.8678981 L58.7962775,15.8541546 L58.7989724,15.8139147 C58.8832332,15.7807803 58.9672911,15.7475436 59.0511462,15.7142046 L58.8410421,15.1857447 L58.8630995,14.8563897 C58.8107927,14.8528866 58.7584137,14.8494196 58.7059625,14.8459886 L58.6816964,14.7849539 L58.3451357,14.8230253 C57.6624716,14.7807816 56.9677228,14.7445682 56.2608715,14.714381 L56.2182038,15.7134703 L56.5545732,16.6552004 C57.2703001,16.3995553 57.9725313,16.1371253 58.6612815,15.8678981 Z M63.1509226,8.1724302 C63.1582105,8.17404554 63.1654953,8.17567848 63.1727769,8.17732902 C63.1509322,8.17237739 63.1294894,8.1662289 63.1085323,8.15894202 Z M63.1085323,8.15894202 C62.9831982,8.11536282 62.875234,8.03106721 62.8025284,7.91855783 C62.6231831,7.64102724 62.7027779,7.27065613 62.9803085,7.0913108 L62.6935398,7.27662599 C62.2189224,7.5833324 61.6420222,7.68924276 61.0894125,7.57112007 L59.5925376,7.25115667 C59.8210789,7.30000836 59.9926568,7.48971834 60.0183809,7.72200243 C60.0513629,8.01982411 59.8366679,8.28799346 59.5388462,8.32097544 L61.6241542,8.09003995 C62.134201,8.03355529 62.6500157,8.06140718 63.1509226,8.1724302 Z M92.3074171,14.145554 L93.8024216,14.1766876 C95.2582112,14.2070046 96.413785,15.411732 96.383468,16.8675216 C96.3820662,16.9348369 96.3780862,17.0020738 96.371537,17.0690844 C96.2517998,18.2942098 95.3867589,19.2789337 94.2546942,19.5960082 C94.417455,19.8960451 94.5257322,20.2313467 94.5655165,20.5895639 C94.6037021,20.9333857 94.5677215,21.2683519 94.4703492,21.5784959 C95.9179579,21.6409987 97.1237292,22.7647815 97.2600266,24.2374444 C97.4014205,25.7651726 96.2775745,27.1182634 94.7498463,27.2596572 C94.6837868,27.2652415 94.6837868,27.2652415 94.6175831,27.2687216 L75.6421201,28.114866 C74.0579668,28.1855058 72.6978282,26.9990113 72.5527805,25.4199316 C72.4128647,23.8967217 73.5342462,22.548492 75.0574561,22.4085763 C75.1125505,22.4035155 75.1677842,22.4001068 75.2230828,22.3983546 L76.5123973,22.357502 C76.419861,22.1736106 76.3481454,21.9767269 76.3005918,21.7696503 C75.4942586,22.1222871 74.5351919,22.0928381 73.7226347,21.6062268 C73.6650142,21.57172 73.6086465,21.5351632 73.5536395,21.4966266 L73.2039711,21.2516571 C71.684133,20.1868941 71.3152218,18.0916609 72.3799848,16.5718228 C72.3874392,16.5612116 72.3874392,16.5612116 72.394948,16.5506389 L74.5634438,13.5056263 L73.0982557,11.762865 C71.7357693,10.1422616 71.3066738,7.93300497 71.9634583,5.9202063 L72.804876,3.34157617 C73.2046556,2.11640161 74.4691516,1.39481534 75.7273253,1.67387674 C76.4950878,1.84416554 77.2866629,1.87928096 78.0664884,1.77764542 L82.5760256,1.1899123 C84.6283967,0.922424429 86.7019708,0.855828896 88.7672762,0.991072217 L89.3551962,1.02957125 C91.0684244,1.14175934 92.7508144,1.5397654 94.3327082,2.20711028 L94.5878966,2.31476521 C96.1059161,2.95516382 97.2893871,4.19781131 97.8550148,5.7452476 C98.4136409,7.273529 98.3978324,8.95274364 97.8105328,10.4702371 L97.7767718,10.5574705 C97.1507118,12.1751147 95.7586143,13.3735864 94.0658767,13.7522198 L92.3074171,14.145554 Z M82.2281031,15.7532723 L82.3140389,15.7416072 L82.3140389,14.7416072 C81.6352838,14.7416072 80.9373154,14.7323426 80.2201295,14.7138042 L80.1942894,15.7134703 L81.0030565,16.3015994 C81.0862632,16.1871775 81.1714246,16.0726881 81.2585428,15.9581317 C81.5742926,15.9739962 81.8974742,15.9819119 82.2281031,15.9819119 L82.2281031,15.7532723 Z M84.8849383,7.36591298 C85.1904087,7.78272618 85.3653315,8.30015782 85.3512538,8.85672114 C85.3491481,8.91889472 85.3491481,8.91889472 85.3449138,8.98095967 C85.3075828,9.46681561 85.1365459,9.91152525 84.8700569,10.280882 C85.8057538,10.3276602 86.7434104,10.3284176 87.6796295,10.283085 L88.5980428,10.2386147 C89.2474848,10.2071681 89.8896165,10.0874015 90.5067287,9.8826179 L90.8111983,9.78158217 C91.0514735,9.70184882 91.2517043,9.53245651 91.3701516,9.30871603 C91.4234324,9.20807147 91.4159607,9.08608275 91.3507954,8.99269295 L90.932566,8.39331946 C90.5540334,7.85083636 89.9495601,7.50968515 89.2895088,7.46601482 L88.0486871,7.38391953 C86.9947749,7.31419055 85.9382696,7.30825639 84.8849383,7.36591298 Z M116.720196,5.50870585 C117.026599,5.91468743 117.510468,6.15275191 118.023696,6.1440602 L122.97062,6.06028219 C124.545433,6.03361214 125.874719,7.22509855 126.019871,8.79343432 C126.160546,10.3133971 125.042413,11.6596102 123.52245,11.8002853 C123.445752,11.8066664 123.445752,11.8066664 123.368869,11.8101964 L123.336381,11.811386 C123.920338,12.3095039 124.174254,13.1308396 123.913544,13.9024107 C123.899629,13.9435925 123.884333,13.984282 123.867685,14.0244107 L125.053348,14.3679317 C126.484221,14.7824968 127.3081,16.2785194 126.893535,17.7093916 C126.888384,17.7270222 126.888384,17.7270222 126.883073,17.7446053 C126.446561,19.1779017 124.954531,20.0091901 123.506033,19.6261313 L122.820766,19.4449109 C123.759933,19.837613 124.456259,20.7222341 124.558764,21.8046079 C124.660421,22.8780217 124.14357,23.8674091 123.300188,24.4197056 L123.89875,24.4083991 C125.449789,24.3791008 126.761414,25.549932 126.907676,27.0943377 C127.051092,28.6087021 125.939719,29.9525991 124.425355,30.0960156 C124.372685,30.1006638 124.372685,30.1006638 124.319914,30.1039625 L108.395373,30.9971315 C107.208129,31.0637211 106.142926,30.4038363 105.641637,29.3974121 C105.0242,29.9639465 104.182909,30.2835548 103.281382,30.2155683 C103.247939,30.2129265 103.247939,30.2129265 103.214537,30.2098087 C101.473568,30.0410519 100.199038,28.4929134 100.367795,26.7519448 C100.369233,26.7373477 100.369233,26.7373477 100.370761,26.7227597 L101.867061,12.6453672 C101.454414,12.4341639 101.153917,12.0245389 101.103568,11.5290323 C101.102936,11.522719 101.102936,11.522719 101.102341,11.516402 L100.968945,10.0750876 C100.824587,8.51533411 101.971992,7.13387891 103.531746,6.98952105 C103.553662,6.98754981 103.553662,6.98754981 103.575597,6.98580539 L109.479892,6.53162739 C109.331514,6.37091587 109.155319,6.23446875 108.9569,6.1300537 L108.944699,6.12363272 C108.079361,5.66826013 107.747018,4.59761277 108.202391,3.73227491 C108.386964,3.38153376 108.683883,3.10286454 109.045612,2.94088145 L109.07788,2.92643166 C109.679533,2.65701019 110.111134,2.11005956 110.23327,1.46225034 C110.416574,0.49001185 111.353327,-0.149545876 112.325565,0.0337581737 C112.704107,0.105127673 113.04956,0.296615694 113.310681,0.579816947 C113.757546,1.06446771 114.413403,1.29959473 115.066406,1.20924961 L115.101428,1.20440416 C116.070043,1.07039295 116.963898,1.7469729 117.097909,2.71558779 C117.152227,3.10818947 117.073245,3.50766325 116.873608,3.85005443 L116.866663,3.86196564 C116.574221,4.36352621 116.522273,4.96759555 116.720196,5.50870585 Z M98.3054086,4.52553892 L98.2191322,4.5229609 C97.3842185,4.49801286 96.7276117,3.80095726 96.7525597,2.96604363 C96.7621244,2.64594944 96.8730451,2.33715236 97.0693439,2.0841335 C97.2345861,1.87114497 97.2746393,1.58656146 97.1746053,1.33623708 L97.1537613,1.28407709 C96.8502381,0.524542981 97.219908,-0.337235206 97.9794421,-0.640758363 C98.3138582,-0.774396885 98.6855104,-0.781605122 99.0248569,-0.661034298 L99.156132,-0.614391861 C99.464299,-0.504899208 99.8062043,-0.548894622 100.076613,-0.73283674 C100.790936,-1.21874593 101.763916,-1.03358019 102.249825,-0.31925749 C102.417042,-0.073436827 102.510743,0.214945995 102.519952,0.512106463 C102.530081,0.838990092 102.695455,1.1414572 102.965173,1.32641135 L103.080069,1.4051994 C103.754638,1.86777369 103.926494,2.7896105 103.463919,3.46417955 C103.260252,3.76118624 102.955342,3.97380636 102.606243,4.06225535 L102.551793,4.07605104 C102.290478,4.1422588 102.083788,4.34193653 102.008603,4.6008118 C101.775639,5.40295337 100.936521,5.86436322 100.134379,5.63139954 C99.8268495,5.54208453 99.5556064,5.35745996 99.3597218,5.10412033 L99.3069241,5.03583654 C99.0662059,4.72451322 98.6987651,4.5372928 98.3054086,4.52553892 Z M19.1051266,14.3724569 L18.5888491,15.1177353 C18.0473631,15.8994039 16.9747344,16.0941103 16.1930658,15.5526243 C15.8933851,15.3450261 15.6673334,15.0476625 15.5474727,14.7033676 L15.3819986,14.2280498 C15.3120283,14.0270632 15.140827,13.8781804 14.9320748,13.8367802 L14.3607855,13.7234807 C13.4520229,13.5432527 12.861429,12.6604513 13.041657,11.7516887 C13.1210098,11.3515687 13.3434359,10.9940716 13.667316,10.7460906 L14.3279066,10.2403049 C14.4797741,10.1240265 14.5671028,9.94230833 14.5630136,9.75108153 L14.5494219,9.11547122 C14.5282304,8.12445961 15.3144249,7.30390683 16.3054365,7.28271529 C16.6464744,7.27542262 16.9825286,7.36546807 17.2742298,7.54230267 L17.8178886,7.8718786 C17.9814513,7.9710333 18.1824881,7.98626355 18.3591219,7.91288163 L19.1274405,7.59368623 C19.9830062,7.23824431 20.9647218,7.64367473 21.3201637,8.49924041 C21.4766616,8.8759383 21.4905397,9.296753 21.3592012,9.68294349 L21.1716768,10.2343443 C21.1031544,10.4358291 21.14649,10.6585352 21.2855644,10.8196245 L21.6144646,11.2005882 C22.2358691,11.9203585 22.156128,13.0075955 21.4363577,13.6290001 C21.1604078,13.8672378 20.8159595,14.0117364 20.4526293,14.0416813 L19.5490606,14.1161515 C19.3701973,14.130893 19.2073247,14.2249276 19.1051266,14.3724569 Z" id="Combined-Shape" stroke="url(#linearGradient-1)" stroke-width="2"></path>
                <path d="M140,40.9043357 C140,39.5552991 108.659932,35 70,35 C31.3400675,35 0,39.5552991 0,40.9043357 C0,41.5795924 34.9617321,38.4587957 70,38.4580566 C104.961648,38.4573191 140,41.5781158 140,40.9043357 Z" id="Oval-11-Copy" fill="url(#linearGradient-1)" fill-rule="nonzero" opacity="0.200000003"></path>
            </g>
        </g>
    </g>
</svg>