<?xml version="1.0" encoding="UTF-8"?>
<svg width="24px" height="32px" viewBox="0 0 24 32" version="1.1" xmlns="http://www.w3.org/2000/svg" xmlns:xlink="http://www.w3.org/1999/xlink">
    <!-- Generator: Sketch 51 (57462) - http://www.bohemiancoding.com/sketch -->
    <title>手 copy</title>
    <desc>Created with Sketch.</desc>
    <defs>
        <filter x="-33.3%" y="-33.3%" width="166.7%" height="166.7%" filterUnits="objectBoundingBox" id="filter-1">
            <feGaussianBlur stdDeviation="1" in="SourceGraphic"></feGaussianBlur>
        </filter>
    </defs>
    <g id="小哥星座红包版块" stroke="none" stroke-width="1" fill="none" fill-rule="evenodd">
        <g id="手-copy" transform="translate(-3.000000, 2.000000)" fill-rule="nonzero">
            <circle id="Oval-5" fill="#D08D40" opacity="0.5" filter="url(#filter-1)" cx="12.5" cy="4.5" r="4.5"></circle>
            <g id="手" transform="translate(17.000000, 17.642305) rotate(-330.000000) translate(-17.000000, -17.642305) translate(4.500000, 5.642305)">
                <ellipse id="Oval-23" stroke="#000000" fill="#F8CB00" transform="translate(19.202058, 18.070713) rotate(-45.000000) translate(-19.202058, -18.070713) " cx="19.2020576" cy="18.0707127" rx="5.81012658" ry="2.36893204"></ellipse>
                <path d="M13.9377967,3.32327063 C17.5590388,2.33611448 20.1490725,5.27009822 21.8620867,11.6978895 C22.418024,15.2174448 21.0467188,16.678472 18.7250218,18.6812026 C15.2424763,21.6852985 11.0568058,19.970796 9.28134105,19.970796 C8.09769785,19.970796 7.6159833,19.8681043 5.63632318,21.0024272 C3.45953909,22.1109479 2.16726866,21.2220655 2.39798464,18.4837969 C2.74405861,14.376394 8.16038779,15.3677924 8.56916739,15.3677924 C8.97794699,15.3677924 8.56916739,14.2270934 7.85974393,12.6900789 C6.36519783,9.51401119 4.60886153,10.4913908 1.88492556,7.2295394 C-1.54125126,2.31691804 1.77214519,-0.443929935 3.80284177,0.0717786699 C6.82905924,1.06878396 5.69458619,2.7992115 7.85974393,5.42087881 C7.91160028,5.37210568 7.96575799,5.32489697 8.02207721,5.27917824 C9.28134105,2.97166025 10.9718977,2.97166025 12.174644,3.56911787 C12.3155636,3.63911891 12.7504132,3.90762283 12.8786219,3.97986195 C12.8164897,3.78928538 13.169548,3.5704216 13.9377967,3.32327063 Z" id="Combined-Shape" stroke="#000000" fill="#F8CB00"></path>
                <path d="M7.19136468,4.04711026 C7.72381454,4.79391039 8.26077586,5.35212182 8.70431788,5.89008044 C9.92288265,7.32213823 10.8408101,7.66615771 11.5054384,7.85735885 C10.9427173,8.10076471 10.4157821,8.12980199 9.924633,7.94447071 C9.43188923,7.76474528 9.14302166,7.65897747 7.80608287,6.16675205 C7.3546578,5.61923232 7.37989229,5.20410732 6.84164854,4.44918083 C6.46922752,3.92683294 6.82191687,3.5289325 7.19136468,4.04711026 Z" id="Path-55" fill="#000000"></path>
                <path d="M11.4617117,3.52573274 L11.660816,3.10654882 C12.2148226,3.38174857 13.0228677,3.59608956 13.5597241,4.08789345 C13.9774085,4.47052618 14.1735245,4.86580897 14.8282617,5.31140362 C14.999868,5.42819377 15.5998314,5.77384068 15.74759,5.77384068 C14.842559,5.88513032 14.2362609,5.81716073 13.9286958,5.5699319 C13.7007118,5.3866725 13.0778927,4.74259243 12.9111259,4.60018218 C12.3758736,4.1431044 11.9777754,3.78208452 11.4617117,3.52573274 Z" id="Path-56" fill="#000000"></path>
                <path d="M15.4382417,12.1940231 C16.8256032,13.8370247 17.7558347,15.3730785 18.2289359,16.8021845" id="Path-57" stroke="#000000" stroke-linecap="round"></path>
                <path d="M18.9182654,11.8957828 C19.4702334,13.3124494 19.6542227,14.6346582 19.4702334,15.862409" id="Path-58" stroke="#000000" stroke-linecap="round"></path>
                <path d="M14.2286887,15.44554 C15.2052512,15.7977852 16.1859177,16.5673544 17.1706883,17.7542476" id="Path-59" stroke="#000000" stroke-linecap="round"></path>
            </g>
        </g>
    </g>
</svg>