<?xml version="1.0" encoding="UTF-8"?>
<svg width="60px" height="40px" viewBox="0 0 60 40" version="1.1" xmlns="http://www.w3.org/2000/svg" xmlns:xlink="http://www.w3.org/1999/xlink">
    <!-- Generator: Sketch 51 (57462) - http://www.bohemiancoding.com/sketch -->
    <title>签</title>
    <desc>Created with Sketch.</desc>
    <defs>
        <rect id="path-1" x="0" y="0" width="60" height="40"></rect>
        <linearGradient x1="100%" y1="50%" x2="0%" y2="50%" id="linearGradient-3">
            <stop stop-color="#F55E90" offset="0%"></stop>
            <stop stop-color="#FC7EA9" offset="17.3895302%"></stop>
            <stop stop-color="#FF93BA" offset="49.3750015%"></stop>
            <stop stop-color="#FD86AF" offset="73.4646684%"></stop>
            <stop stop-color="#FE6395" offset="100%"></stop>
        </linearGradient>
        <rect id="path-4" x="0" y="0" width="59.7014925" height="39.6205234"></rect>
        <rect id="path-6" x="0" y="0" width="2.08955224" height="39.6205234"></rect>
        <rect id="path-8" x="0" y="0" width="2.08955224" height="39.6205234"></rect>
        <linearGradient x1="50%" y1="100%" x2="50%" y2="3.061617e-15%" id="linearGradient-10">
            <stop stop-color="#FF93BA" offset="0%"></stop>
            <stop stop-color="#FDA1C1" offset="18.7812369%"></stop>
            <stop stop-color="#FE6395" offset="100%"></stop>
        </linearGradient>
        <polygon id="path-11" points="30 16.0543097 59.8507463 31.4788063 59.8507463 39.7790055 0.149253731 39.7790055 0.149253731 31.4788063"></polygon>
        <filter x="-16.7%" y="-50.6%" width="133.5%" height="184.3%" filterUnits="objectBoundingBox" id="filter-12">
            <feOffset dx="0" dy="-2" in="SourceAlpha" result="shadowOffsetOuter1"></feOffset>
            <feGaussianBlur stdDeviation="3" in="shadowOffsetOuter1" result="shadowBlurOuter1"></feGaussianBlur>
            <feColorMatrix values="0 0 0 0 0.62542517   0 0 0 0 0.135836997   0 0 0 0 0.135836997  0 0 0 0.5 0" type="matrix" in="shadowBlurOuter1"></feColorMatrix>
        </filter>
        <polygon id="path-13" points="30.0078042 30.8805108 59.8734735 8.78249816 59.8734735 0.073180681 0.142134894 0.073180681 0.142134894 7.68166184"></polygon>
        <filter x="-16.7%" y="-26.0%" width="133.5%" height="164.9%" filterUnits="objectBoundingBox" id="filter-14">
            <feOffset dx="0" dy="2" in="SourceAlpha" result="shadowOffsetOuter1"></feOffset>
            <feGaussianBlur stdDeviation="3" in="shadowOffsetOuter1" result="shadowBlurOuter1"></feGaussianBlur>
            <feColorMatrix values="0 0 0 0 0.62542517   0 0 0 0 0.135836997   0 0 0 0 0.135836997  0 0 0 0.426545516 0" type="matrix" in="shadowBlurOuter1"></feColorMatrix>
        </filter>
    </defs>
    <g id="小哥星座红包版块" stroke="none" stroke-width="1" fill="none" fill-rule="evenodd">
        <g id="一签盒" transform="translate(-55.000000, -122.000000)">
            <rect fill="#9262FB" x="0" y="0" width="375" height="667"></rect>
            <g id="1" transform="translate(40.000000, 112.000000)">
                <g id="签" transform="translate(15.000000, 10.000000)">
                    <mask id="mask-2" fill="white">
                        <use xlink:href="#path-1"></use>
                    </mask>
                    <g id="Rectangle-5"></g>
                    <g id="Group-2-Copy" mask="url(#mask-2)">
                        <g id="Group" transform="translate(0.149254, 0.158482)">
                            <mask id="mask-5" fill="white">
                                <use xlink:href="#path-4"></use>
                            </mask>
                            <use id="Mask" fill="url(#linearGradient-3)" xlink:href="#path-4"></use>
                            <g mask="url(#mask-5)">
                                <g id="Combined-Shape">
                                    <mask id="mask-7" fill="white">
                                        <use xlink:href="#path-6"></use>
                                    </mask>
                                    <use id="Mask" fill="#DA4072" xlink:href="#path-6"></use>
                                    <path d="M0,0 L2.08955224,0.74806354 L2.08955224,2.69419559 L0,1.91433564 L0,0 Z M0,3.80357025 L2.08955224,4.55163379 L2.08955224,6.49776584 L0,5.71790589 L0,3.80357025 Z M0,7.6071405 L2.08955224,8.35520404 L2.08955224,10.3013361 L0,9.52147614 L0,7.6071405 Z M0,11.4107107 L2.08955224,12.1587743 L2.08955224,14.1049063 L0,13.3250464 L0,11.4107107 Z M0,15.214281 L2.08955224,15.9623445 L2.08955224,17.9084766 L0,17.1286166 L0,15.214281 Z M0,19.0178512 L2.08955224,19.7659148 L2.08955224,21.7120468 L0,20.9321869 L0,19.0178512 Z M0,22.8214215 L2.08955224,23.569485 L2.08955224,25.5156171 L0,24.7357571 L0,22.8214215 Z M0,26.6249917 L2.08955224,27.3730553 L2.08955224,29.3191873 L0,28.5393274 L0,26.6249917 Z M0,30.428562 L2.08955224,31.1766255 L2.08955224,33.1227576 L0,32.3428976 L0,30.428562 Z M0,34.2321322 L2.08955224,34.9801958 L2.08955224,36.9263278 L0,36.1464679 L0,34.2321322 Z M0,38.0357025 L2.08955224,38.783766 L2.08955224,40.7298981 L0,39.9500381 L0,38.0357025 Z" fill="#FE92B9" mask="url(#mask-7)"></path>
                                </g>
                                <g id="Combined-Shape-Copy-3" transform="translate(57.611940, 0.000000)">
                                    <mask id="mask-9" fill="white">
                                        <use xlink:href="#path-8"></use>
                                    </mask>
                                    <use id="Mask" fill="#DA4072" xlink:href="#path-8"></use>
                                    <path d="M0,0 L2.08955224,0.74806354 L2.08955224,2.69419559 L0,1.91433564 L0,0 Z M0,3.80357025 L2.08955224,4.55163379 L2.08955224,6.49776584 L0,5.71790589 L0,3.80357025 Z M0,7.6071405 L2.08955224,8.35520404 L2.08955224,10.3013361 L0,9.52147614 L0,7.6071405 Z M0,11.4107107 L2.08955224,12.1587743 L2.08955224,14.1049063 L0,13.3250464 L0,11.4107107 Z M0,15.214281 L2.08955224,15.9623445 L2.08955224,17.9084766 L0,17.1286166 L0,15.214281 Z M0,19.0178512 L2.08955224,19.7659148 L2.08955224,21.7120468 L0,20.9321869 L0,19.0178512 Z M0,22.8214215 L2.08955224,23.569485 L2.08955224,25.5156171 L0,24.7357571 L0,22.8214215 Z M0,26.6249917 L2.08955224,27.3730553 L2.08955224,29.3191873 L0,28.5393274 L0,26.6249917 Z M0,30.428562 L2.08955224,31.1766255 L2.08955224,33.1227576 L0,32.3428976 L0,30.428562 Z M0,34.2321322 L2.08955224,34.9801958 L2.08955224,36.9263278 L0,36.1464679 L0,34.2321322 Z M0,38.0357025 L2.08955224,38.783766 L2.08955224,40.7298981 L0,39.9500381 L0,38.0357025 Z" id="Combined-Shape" fill="#FE92B9" mask="url(#mask-9)"></path>
                                </g>
                            </g>
                        </g>
                        <g id="Rectangle-3">
                            <use fill="black" fill-opacity="1" filter="url(#filter-12)" xlink:href="#path-11"></use>
                            <use fill="url(#linearGradient-10)" fill-rule="evenodd" xlink:href="#path-11"></use>
                        </g>
                        <g id="Rectangle-3">
                            <use fill="black" fill-opacity="1" filter="url(#filter-14)" xlink:href="#path-13"></use>
                            <use fill="url(#linearGradient-10)" fill-rule="evenodd" xlink:href="#path-13"></use>
                        </g>
                        <path d="M29.8169538,26.0454267 C24.3300906,22.4250876 22.3554863,19.5981431 23.8931409,17.5645932 C25.4307956,15.5310433 27.4053999,15.7491255 29.8169538,18.2188397 C31.9619174,15.524586 33.7799339,15.3065038 35.2710033,17.5645932 C36.7620727,19.8226826 34.9440562,22.6496271 29.8169538,26.0454267 Z" id="Path-29" fill="#FFFBCB"></path>
                    </g>
                </g>
            </g>
        </g>
    </g>
</svg>