<?xml version="1.0" encoding="UTF-8"?>
<svg width="16px" height="16px" viewBox="0 0 16 16" version="1.1" xmlns="http://www.w3.org/2000/svg" xmlns:xlink="http://www.w3.org/1999/xlink">
    <!-- Generator: Sketch 52.3 (67297) - http://www.bohemiancoding.com/sketch -->
    <title>小星星 @2x</title>
    <desc>Created with Sketch.</desc>
    <defs>
        <polygon id="path-1" points="8.05111472 10.1745457 5.69997371 11.4106136 6.14900169 8.79257966 4.24688865 6.93847769 6.87554422 6.55651168 8.05111472 4.17454567 9.22668522 6.55651168 11.8553408 6.93847769 9.95322775 8.79257966 10.4022557 11.4106136"></polygon>
        <filter x="-39.4%" y="-41.5%" width="178.9%" height="182.9%" filterUnits="objectBoundingBox" id="filter-2">
            <feOffset dx="0" dy="0" in="SourceAlpha" result="shadowOffsetOuter1"></feOffset>
            <feGaussianBlur stdDeviation="1" in="shadowOffsetOuter1" result="shadowBlurOuter1"></feGaussianBlur>
            <feColorMatrix values="0 0 0 0 1   0 0 0 0 0.729411765   0 0 0 0 0.164705882  0 0 0 1 0" type="matrix" in="shadowBlurOuter1"></feColorMatrix>
        </filter>
        <filter x="-39.4%" y="-41.5%" width="178.9%" height="182.9%" filterUnits="objectBoundingBox" id="filter-3">
            <feGaussianBlur stdDeviation="1" in="SourceAlpha" result="shadowBlurInner1"></feGaussianBlur>
            <feOffset dx="0" dy="0" in="shadowBlurInner1" result="shadowOffsetInner1"></feOffset>
            <feComposite in="shadowOffsetInner1" in2="SourceAlpha" operator="arithmetic" k2="-1" k3="1" result="shadowInnerInner1"></feComposite>
            <feColorMatrix values="0 0 0 0 1   0 0 0 0 0.839314269   0 0 0 0 0.254596749  0 0 0 1 0" type="matrix" in="shadowInnerInner1"></feColorMatrix>
        </filter>
    </defs>
    <g id="小哥星座v2.6" stroke="none" stroke-width="1" fill="none" fill-rule="evenodd">
        <g id="任务中心" transform="translate(-94.000000, -235.000000)">
            <g id="小星星-" transform="translate(94.000000, 235.000000)">
                <circle id="Oval-2" fill="#FFD640" cx="8" cy="8" r="8"></circle>
                <circle id="Oval-2-Copy" fill="#FFC140" cx="8" cy="8" r="6"></circle>
                <polygon id="Star" fill="#FFD640" points="8.05111472 10.1745457 5.69997371 11.4106136 6.14900169 8.79257966 4.24688865 6.93847769 6.87554422 6.55651168 8.05111472 4.17454567 9.22668522 6.55651168 11.8553408 6.93847769 9.95322775 8.79257966 10.4022557 11.4106136"></polygon>
                <g id="Star-Copy-3">
                    <use fill="black" fill-opacity="1" filter="url(#filter-2)" xlink:href="#path-1"></use>
                    <use fill="#FFDB59" fill-rule="evenodd" xlink:href="#path-1"></use>
                    <use fill="black" fill-opacity="1" filter="url(#filter-3)" xlink:href="#path-1"></use>
                </g>
                <polygon id="Star-Copy" fill="#FFFFFF" transform="translate(12.691203, 11.774619) rotate(-315.000000) translate(-12.691203, -11.774619) " points="12.6547035 12.0292921 12.1912027 12.2386353 12.3925079 11.756627 12.1912027 11.2746187 12.6547035 11.483962 13.1182042 11.2746187 12.9168991 11.756627 13.1182042 12.2386353"></polygon>
                <polygon id="Star-Copy-2" fill="#FFFFFF" transform="translate(3.017174, 3.104132) rotate(-315.000000) translate(-3.017174, -3.104132) " points="3.0171739 3.51312923 2.32192283 3.82714404 2.6238805 3.10413165 2.32192283 2.38111926 3.0171739 2.69513407 3.71242496 2.38111926 3.4104673 3.10413165 3.71242496 3.82714404"></polygon>
            </g>
        </g>
    </g>
</svg>