<?xml version="1.0" encoding="UTF-8"?>
<svg width="33px" height="23px" viewBox="0 0 33 23" version="1.1" xmlns="http://www.w3.org/2000/svg" xmlns:xlink="http://www.w3.org/1999/xlink">
    <!-- Generator: Sketch 51 (57462) - http://www.bohemiancoding.com/sketch -->
    <title>icon_运势点评@2x</title>
    <desc>Created with Sketch.</desc>
    <defs>
        <filter x="-4.5%" y="-1.8%" width="118.2%" height="107.1%" filterUnits="objectBoundingBox" id="filter-1">
            <feOffset dx="1" dy="1" in="SourceAlpha" result="shadowOffsetOuter1"></feOffset>
            <feColorMatrix values="0 0 0 0 0   0 0 0 0 0   0 0 0 0 0  0 0 0 0.2 0" type="matrix" in="shadowOffsetOuter1" result="shadowMatrixOuter1"></feColorMatrix>
            <feMerge>
                <feMergeNode in="shadowMatrixOuter1"></feMergeNode>
                <feMergeNode in="SourceGraphic"></feMergeNode>
            </feMerge>
        </filter>
        <path d="M8.17245473,2.36366127 C8.26374024,2.29272542 8.34787072,2.23214543 8.42392473,2.1830576 C9.54393005,1.39154412 9.66498308,1.69566535e-16 10.2064565,0 C10.5663974,0 11.1638265,2.28029122 10.8873517,4.71531281 C10.4497982,4.78957101 9.87669979,4.9543454 9.25450393,5.2991075 C9.64997142,5.15560754 10.1794365,5.07473599 10.8428991,5.05649285 C10.7183533,5.90153459 10.4832148,6.75322934 10.0915895,7.5238035 C9.63518502,7.48091575 8.95270031,7.49575887 8.15177467,7.74048999 C8.59997301,7.67794735 9.18476621,7.71852585 9.9061543,7.86222548 C9.82908448,7.99285649 9.74698635,8.12058768 9.65961198,8.24494485 C9.28642988,8.77608312 8.89193753,9.3593138 8.49021979,9.96799849 C8.03802413,9.91147604 7.30585553,9.90516003 6.43302467,10.1718625 C6.89734862,10.1070697 7.50827327,10.1529518 8.26579865,10.3095089 C7.74067498,11.1119447 7.20775905,11.9490434 6.69800126,12.7622693 C6.30703404,12.7743646 5.8364581,12.8363108 5.31583717,12.9953919 C5.64703032,12.9491765 6.05280935,12.959269 6.53317425,13.0256695 C5.95818178,13.9460718 5.41764379,14.8272067 4.95741544,15.5823493 C4.6962481,15.6185551 4.41279327,15.6779773 4.11271217,15.7696701 C4.32839953,15.7395726 4.57572011,15.7333563 4.8546739,15.7510213 C4.37513605,16.5387104 3.99163819,17.1744504 3.76047258,17.551777 C2.91452531,18.932598 2.19093828,20.5456495 2.19093828,21.546875 C2.28644304,23.220435 1.73322038,28.8259804 1.73322038,27.8200061 C1.73322038,27.1493566 1.5200551,26.5350286 1.09372453,25.9770221 C1.54433692,23.6540033 1.6641235,22.1772876 1.45308427,21.546875 C0.725861441,20.2753897 0.317277352,18.9708145 0.129222983,17.7084067 C0.727020439,17.9730323 1.13992959,18.2711728 1.36795044,18.6028284 C1.12893677,17.7918603 0.192687988,17.4237536 0.121520996,17.4121881 C0.107303078,17.4098775 0.0973458959,17.4170247 0.0916494506,17.4336297 C-0.0669992258,16.1604437 -0.00633118427,14.9362215 0.171431454,13.8393752 C0.995041177,14.4226351 1.51909446,14.87753 1.74359131,15.2040599 C1.54140404,14.518043 0.57148121,13.7186261 0.23431672,13.4815681 C0.356579481,12.8362916 0.517488465,12.2406833 0.694486674,11.7120463 C1.23710461,12.1713431 1.60521334,12.5417864 1.79881287,12.8233762 C1.6498033,12.3177901 1.16253868,11.7613934 0.799450483,11.4112448 C1.11455099,10.5441807 1.46456903,9.88701683 1.73322038,9.52895221 C1.86206213,9.34311404 2.03492885,9.11045883 2.24190113,8.84321871 C2.79838361,9.65453659 3.13284116,10.3336459 3.24527378,10.8805465 C3.24295418,9.82486604 2.70031217,8.81312224 2.49806896,8.51670636 C2.8558075,8.06599311 3.285484,7.54433921 3.75072206,6.99660217 C4.21394441,7.62395053 4.50960453,8.16675833 4.63770242,8.62502556 C4.46459935,7.81126299 4.14973739,7.20972206 3.89189643,6.83087329 C4.48252416,6.13950347 5.12311354,5.41434604 5.74239554,4.74328631 C6.3339562,5.14683538 6.76022173,5.53075489 7.02119213,5.89504484 C6.64532238,5.29373596 6.22540929,4.87252683 5.87933304,4.59541206 C6.70662983,3.70518247 7.48595366,2.9243357 8.04444768,2.46602988 C8.46962115,2.78518834 8.78739014,3.09159202 8.99775463,3.38524092 C8.73079414,2.95816289 8.44161593,2.6219364 8.17245473,2.36366127 Z" id="path-2"></path>
    </defs>
    <g id="星座占卜" stroke="none" stroke-width="1" fill="none" fill-rule="evenodd">
        <g id="首页-3.0" transform="translate(-104.000000, -259.000000)">
            <rect fill="#FFFFFF" x="0" y="0" width="375" height="1053"></rect>
            <g id="icon_运势点评" transform="translate(104.000000, 254.000000)">
                <g id="羽毛" filter="url(#filter-1)" transform="translate(20.500000, 15.000000) rotate(-330.000000) translate(-20.500000, -15.000000) translate(15.000000, 1.000000)">
                    <mask id="mask-3" fill="white">
                        <use xlink:href="#path-2"></use>
                    </mask>
                    <use id="Combined-Shape" fill="#FFBF00" fill-rule="nonzero" xlink:href="#path-2"></use>
                    <path d="M2.70300293,19.6581648 C2.94604492,16.9791411 3.21708934,15.45601 3.51613617,15.0887714 C4.32806651,14.885289 4.79143524,14.7202563 4.90624237,14.5936734 C4.04412587,14.7465022 3.61306763,14.8229167 3.61306763,14.8229167 C4.64297485,11.7453533 5.34720357,10.0236162 5.72575378,9.65770527 C6.104304,9.29179432 6.87430064,9.1197406 8.03574371,9.14154412 C7.22087606,9.01588031 6.58717092,9.01588031 6.1346283,9.14154412 C6.45639038,8.08563113 8.8918457,4.56893382 9.23442078,4.46514997 C8.41504924,5.05302793 7.54937998,6.08759702 6.63741302,7.56885723 C6.18763987,6.83841401 5.97928619,6.3865145 6.01235199,6.2131587 C5.77996826,6.74142157 6.39898682,7.74096201 6.39898682,7.87002145 C6.39898682,7.99908088 4.31919861,11.1036305 3.61306763,13.9836857 C3.18388367,12.6897212 2.66442617,11.9864685 2.05469513,11.8739277 C2.60277049,12.3342525 3.02773031,13.2408344 3.32957458,14.5936734 C3.01041412,15.3920803 2.82964325,16.3383885 2.70300293,17.1280637 C2.35030111,16.247498 1.89834595,15.7267667 1.34713745,15.5658701 C2.00850932,16.3888378 2.38375854,17.1512204 2.47288513,17.8530178 C2.4429245,18.2863051 2.25376129,20.9276961 2.25376129,21.0389093 C2.25376129,21.1130515 2.4035085,20.6528033 2.70300293,19.6581648 Z" id="Path-55" fill="#FFFFFF" fill-rule="nonzero" mask="url(#mask-3)"></path>
                </g>
                <rect id="Rectangle-11" fill="#6B19CE" fill-rule="nonzero" opacity="0.699999988" x="0" y="26" width="13" height="2"></rect>
            </g>
        </g>
    </g>
</svg>