<?xml version="1.0" encoding="UTF-8"?>
<svg width="16px" height="16px" viewBox="0 0 16 16" version="1.1" xmlns="http://www.w3.org/2000/svg" xmlns:xlink="http://www.w3.org/1999/xlink">
    <!-- Generator: Sketch 51 (57462) - http://www.bohemiancoding.com/sketch -->
    <title>小星星 copy</title>
    <desc>Created with Sketch.</desc>
    <defs>
        <path d="M6.5131603,11.7276689 L4.4207729,12.8936349 C3.93833495,13.1624695 3.32930817,12.9893098 3.06047353,12.5068719 C2.95093228,12.3102943 2.91089824,12.082515 2.9468451,11.8603667 L3.37397674,9.2207327 C3.42437923,8.90924997 3.32481459,8.5922499 3.10536881,8.36552218 L1.25304244,6.45172947 C0.868943003,6.05488433 0.879275431,5.42180367 1.27612057,5.03770422 C1.42490491,4.89369847 1.61472277,4.79942924 1.81937115,4.76790973 L4.27988856,4.38894607 C4.6101411,4.33808127 4.89316576,4.12562641 5.03421148,3.82270715 L6.09338259,1.54796014 C6.326506,1.04728867 6.92136428,0.830398101 7.42203575,1.0635215 C7.63551841,1.16292362 7.80707227,1.33447748 7.90647438,1.54796014 L8.9656455,3.82270715 C9.10669122,4.12562641 9.38971587,4.33808127 9.71996842,4.38894607 L12.1804858,4.76790973 C12.7263343,4.85198016 13.1006795,5.36263037 13.016609,5.90847889 C12.9850895,6.11312727 12.8908203,6.30294513 12.7468145,6.45172947 L10.8944882,8.36552218 C10.6750424,8.5922499 10.5754777,8.90924997 10.6258802,9.2207327 L11.0530119,11.8603667 C11.1412322,12.4055599 10.7707824,12.919043 10.2255892,13.0072633 C10.003441,13.0432102 9.77566163,13.0031761 9.57908408,12.8936349 L7.48669668,11.7276689 C7.18409007,11.5590438 6.81576691,11.5590438 6.5131603,11.7276689 Z" id="path-1"></path>
        <filter x="-29.0%" y="-20.7%" width="158.1%" height="158.1%" filterUnits="objectBoundingBox" id="filter-2">
            <feOffset dx="0" dy="1" in="SourceAlpha" result="shadowOffsetOuter1"></feOffset>
            <feGaussianBlur stdDeviation="1" in="shadowOffsetOuter1" result="shadowBlurOuter1"></feGaussianBlur>
            <feColorMatrix values="0 0 0 0 1   0 0 0 0 0.517647059   0 0 0 0 0  0 0 0 0.3 0" type="matrix" in="shadowBlurOuter1"></feColorMatrix>
        </filter>
    </defs>
    <g id="代币优化以及第三方入口调整" stroke="none" stroke-width="1" fill="none" fill-rule="evenodd">
        <g id="小星星-copy" transform="translate(1.000000, 0.000000)">
            <g id="Star-Copy-3">
                <use fill="black" fill-opacity="1" filter="url(#filter-2)" xlink:href="#path-1"></use>
                <use fill="#FF8E00" fill-rule="evenodd" xlink:href="#path-1"></use>
            </g>
            <path d="M6.69018555,3.18212891 C6.40769519,4.22981922 6.12660873,4.72511398 5.74755859,5.00402832 M4.46405029,5.61334229 C4.17931099,5.67433424 4.06465992,5.70800781 3.72070313,5.70800781" id="Path-6-Copy" stroke="#FFFFFF" opacity="0.5" stroke-linecap="round" fill-rule="nonzero"></path>
        </g>
    </g>
</svg>