<?xml version="1.0" encoding="UTF-8"?>
<svg width="44px" height="44px" viewBox="0 0 44 44" version="1.1" xmlns="http://www.w3.org/2000/svg" xmlns:xlink="http://www.w3.org/1999/xlink">
    <!-- Generator: Sketch 49 (51002) - http://www.bohemiancoding.com/sketch -->
    <title>提醒icon</title>
    <desc>Created with Sketch.</desc>
    <defs>
        <rect id="path-1" x="0" y="0" width="44" height="44"></rect>
    </defs>
    <g id="提醒icon" stroke="none" stroke-width="1" fill="none" fill-rule="evenodd">
        <g id="提醒">
            <mask id="mask-2" fill="white">
                <use xlink:href="#path-1"></use>
            </mask>
            <g id="Mask"></g>
            <g mask="url(#mask-2)" fill="#6041CD" fill-rule="nonzero" id="Shape">
                <g transform="translate(5.000000, 4.000000)">
                    <path d="M30.7608742,26.2220923 L28.4484406,24.4116583 C28.0437647,24.0612517 27.8125214,23.5940429 27.8125214,23.0684331 L27.8125214,14.541873 C27.8125214,13.0818456 27.5234672,11.6218182 26.9453588,10.278593 C26.4250612,8.99376884 25.6157095,7.82574692 24.6329252,6.83292828 C23.6501409,5.84010964 22.4939242,5.02249429 21.2220857,4.49688442 C20.759599,4.32168113 20.2393014,4.14647784 19.7768147,3.97127455 L19.7768147,2.80325263 C19.7768147,1.28482412 18.5627871,0 17.0018944,0 C15.4988126,0 14.2269741,1.22642302 14.2269741,2.80325263 L14.2269741,3.97127455 C13.7066765,4.08807675 13.2441898,4.26328004 12.7817031,4.49688442 C11.5098646,5.02249429 10.3536479,5.84010964 9.37086358,6.83292828 C8.38807931,7.82574692 7.57872755,8.99376884 7.05843,10.278593 C6.4803216,11.6218182 6.1912674,13.0818456 6.1912674,14.541873 L6.1912674,23.010032 C6.1912674,23.5356418 5.96002405,24.0612517 5.55534817,24.3532572 L3.24291459,26.1636912 C2.78042787,26.5140978 2.49137367,26.9813065 2.31794116,27.5653175 C2.20231948,28.0909274 2.20231948,28.6165372 2.375752,29.083746 C2.54918451,29.5509548 2.83823871,30.0181635 3.24291459,30.310169 C3.64759047,30.7189767 4.16788802,30.89418 4.74599642,30.89418 L29.1999815,30.89418 C29.7780899,30.89418 30.2983875,30.7189767 30.7608742,30.3685701 C31.1655501,30.0765646 31.4546043,29.6093559 31.6280368,29.1421471 C31.8014693,28.6749383 31.8014693,28.1493285 31.6858476,27.6237186 C31.5124151,27.0397076 31.2233609,26.5724989 30.7608742,26.2220923 Z M16.9440836,1.98563728 C17.4065703,1.98563728 17.7534353,2.33604386 17.7534353,2.80325263 L17.7534353,3.50406578 L16.1347318,3.50406578 L16.1347318,2.80325263 C16.1347318,2.33604386 16.5394077,1.98563728 16.9440836,1.98563728 Z M13.3020007,32.5878118 C13.3020007,34.6318502 14.9207042,36.2670809 16.9440836,36.2670809 C18.9674629,36.2670809 20.5861664,34.6318502 20.5861664,32.5878118 L20.5861664,32.5294107 L13.3020007,32.5294107 L13.3020007,32.5878118 Z M7.46310587,4.49688442 C7.63653839,4.32168113 7.80997091,4.08807675 7.80997091,3.85447236 C7.80997091,3.62086798 7.75216007,3.32886249 7.57872755,3.15365921 C7.40529504,2.92005482 7.11624084,2.80325263 6.82718664,2.80325263 C6.59594328,2.80325263 6.36469992,2.86165372 6.24907824,3.03685701 C4.51475306,4.43848333 3.12729291,6.13211512 2.02888696,8.0593513 C0.930481007,10.0449886 0.236750933,12.2058291 0.0055075749,14.4834719 C-0.0523032646,15.0090818 0.352372612,15.4762905 0.872670168,15.5346916 C1.39296772,15.5930927 1.85545444,15.1842851 1.91326528,14.6586752 C2.375752,10.6289995 4.34132054,7.00813157 7.46310587,4.49688442 Z M31.917091,8.00095021 C30.818685,6.07371402 29.4312249,4.38008223 27.6968997,2.97845592 C27.5234672,2.86165372 27.2922238,2.74485153 27.1187913,2.74485153 C26.8297371,2.74485153 26.5406829,2.86165372 26.3672504,3.09525811 C26.0203854,3.50406578 26.0781962,4.14647784 26.4828721,4.43848333 C29.6046574,7.00813157 31.570226,10.6289995 32.0327127,14.6002741 C32.0905235,15.0674829 32.4951994,15.4762905 33.0154969,15.4762905 L33.1311186,15.4762905 C33.362362,15.4762905 33.5936053,15.3010873 33.7670379,15.125884 C33.9404704,14.9506807 33.9982812,14.6586752 33.9982812,14.4250708 C33.6514162,12.147428 33.0154969,9.98658748 31.917091,8.00095021 Z"></path>
                </g>
            </g>
        </g>
    </g>
</svg>