<?xml version="1.0" encoding="UTF-8"?>
<svg width="152px" height="212px" viewBox="0 0 152 212" version="1.1" xmlns="http://www.w3.org/2000/svg" xmlns:xlink="http://www.w3.org/1999/xlink">
    <!-- Generator: Sketch 51 (57462) - http://www.bohemiancoding.com/sketch -->
    <title>男/水瓶座</title>
    <desc>Created with Sketch.</desc>
    <defs>
        <filter x="-7.5%" y="-3.8%" width="115.0%" height="110.5%" filterUnits="objectBoundingBox" id="filter-1">
            <feOffset dx="0" dy="3" in="SourceAlpha" result="shadowOffsetOuter1"></feOffset>
            <feGaussianBlur stdDeviation="3" in="shadowOffsetOuter1" result="shadowBlurOuter1"></feGaussianBlur>
            <feColorMatrix values="0 0 0 0 0.57254902   0 0 0 0 0.384313725   0 0 0 0 0.984313725  0 0 0 0.2 0" type="matrix" in="shadowBlurOuter1" result="shadowMatrixOuter1"></feColorMatrix>
            <feMerge>
                <feMergeNode in="shadowMatrixOuter1"></feMergeNode>
                <feMergeNode in="SourceGraphic"></feMergeNode>
            </feMerge>
        </filter>
        <rect id="path-2" x="5" y="5" width="130" height="190" rx="4"></rect>
    </defs>
    <g id="星座配对" stroke="none" stroke-width="1" fill="none" fill-rule="evenodd">
        <g id="男/水瓶座" filter="url(#filter-1)" transform="translate(6.000000, 3.000000)">
            <rect id="Rectangle-2-Copy-3" fill="#FFFFFF" fill-rule="nonzero" x="0" y="0" width="140" height="200" rx="4"></rect>
            <mask id="mask-3" fill="white">
                <use xlink:href="#path-2"></use>
            </mask>
            <rect stroke="#8D76FF" x="4.5" y="4.5" width="131" height="191" rx="4"></rect>
            <g id="水瓶座" mask="url(#mask-3)">
                <g transform="translate(9.000000, 41.000000)" id="水瓶座-copy">
                    <g>
                        <path d="M64.8957513,73.3996349 C51.2951655,89.6124006 44.7680625,99.0523004 45.3144424,101.719334 C45.8608223,104.386368 50.9379563,102.950384 60.5458444,97.4113818 C60.403903,99.9802995 60.403903,101.861661 60.5458444,103.055467 C60.6877857,104.249273 61.376569,108.160962 62.6121943,114.790535 L71.2610703,112.799803 C75.0644356,104.522069 78.7268407,100.828579 82.2482855,101.719334 C85.7697303,102.610089 87.5304526,107.644161 87.5304526,116.821548 L95.5373185,116.821548 C97.703975,110.975216 99.127533,106.386522 99.8079923,103.055467 C100.488452,99.7244118 100.794541,95.845958 100.72626,91.4201053 C107.263719,93.9328798 110.973858,93.9328798 111.856678,91.4201053 C112.739497,88.9073309 106.425116,78.9388306 92.9135346,61.5146046 L64.8957513,73.3996349 Z" id="Path-323" stroke="#372400" stroke-width="1.51409416" fill="#FFE1D6" stroke-linecap="round" stroke-linejoin="round"></path>
                        <path d="M102.161708,72.4238473 C102.208801,72.5799956 101.308331,76.8945218 99.4602986,85.3674259 L102.161708,95.5842319 C95.9915185,93.6851962 88.9562007,93.2164117 81.0557551,94.1778784 C73.1553094,95.1393451 65.4579042,97.4010692 57.9635393,100.963051 L59.2979358,89.8753665 C57.5354317,88.1727851 56.2768172,87.0160197 55.5220922,86.4050704 C54.7673673,85.794121 54.083584,84.9378441 53.4707423,83.8362396 L63.9299482,71.2833208 C69.6452042,78.5823859 74.8219774,81.8718667 79.4602677,81.1517629 C84.0985579,80.4316592 88.8755643,75.5711907 93.7912868,66.5703572 C99.324475,70.3165357 102.114615,72.2676991 102.161708,72.4238473 Z" id="Path-324" stroke="#372400" stroke-width="1.51409416" fill="#FFFFFF" stroke-linecap="round" stroke-linejoin="round"></path>
                        <path d="M60.1928533,98.3490661 C59.1220206,101.878794 58.4223649,104.562003 58.0938861,106.398694 C57.7654073,108.235384 57.7654073,109.464303 58.0938861,110.08545 L75.3495249,108.309277 C77.558289,104.55836 79.6204388,102.842693 81.5359741,103.162275 C83.4515095,103.481857 84.9380785,105.789582 85.9956813,110.08545 L99.9800828,112.004561 C100.71148,108.046466 101.020502,104.952633 100.907148,102.723064 C100.793795,100.493494 100.660638,98.5426552 100.507678,96.8705465 C91.0344451,94.427623 84.488166,93.2906126 80.8688405,93.4595152 C77.2495151,93.6284179 70.3575193,95.2582682 60.1928533,98.3490661 Z" id="Path-325" stroke="#372400" stroke-width="1.51409416" fill="#000000" stroke-linecap="round" stroke-linejoin="round"></path>
                        <path d="M31.861503,41.7293488 C30.3244685,40.6984048 29.0478712,40.7315732 28.0317111,41.8288541 C26.2332885,43.770846 27.5033429,54.0270543 21.912555,55.0472309 C16.3217671,56.0674074 13.7781334,44.8442333 14.3284873,37.0559813 C14.8788413,29.2677292 18.1100161,21.2454795 22.4869345,19.8301903 C26.8638528,18.414901 25.8062624,29.4838126 28.4485573,30.7301727 C30.0232676,31.4729574 31.8764305,31.4396099 34.0080459,30.6301303 C37.8389695,18.0217227 47.7242097,0.665004578 71.0263193,0.0338783146 C104.290222,-0.867058254 117.922311,26.0368559 113.59542,44.900625 C110.128834,60.0137567 95.4446936,73.4208559 77.1230097,76.3879884 C63.5288981,78.5895072 44.8593414,71.9540708 39.2955668,66.4486407 C31.4910806,58.7259962 31.8390555,49.1201345 31.8390555,42.5194275 C31.8390555,42.2895992 31.8462366,42.0253607 31.861503,41.7293488 Z" id="Combined-Shape" stroke="#372400" stroke-width="1.51409416" fill="#B5A6FF" stroke-linecap="round" stroke-linejoin="round"></path>
                        <path d="M70.6987609,21.103329 C54.2338576,25.6780718 43.639297,45.945768 46.6164182,59.5146797 C49.5935395,73.0835915 64.3532062,77.9491913 81.7706474,73.0835915 C99.1880886,68.2179916 111.285483,51.5445812 107.219434,40.0731161 C103.153386,28.6016509 87.1636642,16.5285862 70.6987609,21.103329 Z" id="Path-328" stroke="#372400" stroke-width="1.51409416" fill="#FFE1D6" stroke-linecap="round" stroke-linejoin="round"></path>
                        <g id="Group-4" transform="translate(114.362337, 37.946859) rotate(-27.000000) translate(-114.362337, -37.946859) translate(108.860699, 30.206450)">
                            <path d="M1.24474158,3.80495902 C6.62793313,-0.379898251 9.78302753,-1.11274127 10.7100248,1.60642998 C12.1005206,5.68518684 7.91562365,15.3583288 4.51255263,15.3583288 C2.24383861,15.3583288 0.739654406,13.7687518 0,10.5895978 C0.489255795,9.00858686 0.808205088,7.8129822 0.956847879,7.00278381 C1.10549067,6.19258541 1.20145524,5.12664381 1.24474158,3.80495902 Z" id="Path-184" stroke="#372400" stroke-width="1.51409416" fill="#FFE1D6"></path>
                            <path d="M4.11339715,5.50479824 C6.16201726,3.787018 7.44935892,3.20168871 7.9754221,3.74881039 C8.76451688,4.56949289 6.74126628,8.45111661 6.74126628,8.45111661 C6.74126628,8.45111661 6.94622776,6.79329589 6.04440963,5.78219404 C5.80765945,5.51675412 5.16398863,5.42428885 4.11339715,5.50479824 Z" id="Path-185" fill="#E5AA94"></path>
                        </g>
                        <g id="Group-4-Copy" transform="translate(39.489016, 59.676619) scale(-1, 1) rotate(-2.000000) translate(-39.489016, -59.676619) translate(33.987378, 51.936210)">
                            <path d="M1.24474158,3.80495902 C6.62793313,-0.379898251 9.78302753,-1.11274127 10.7100248,1.60642998 C12.1005206,5.68518684 7.91562365,15.3583288 4.51255263,15.3583288 C2.24383861,15.3583288 0.739654406,13.7687518 0,10.5895978 C0.489255795,9.00858686 0.808205088,7.8129822 0.956847879,7.00278381 C1.10549067,6.19258541 1.20145524,5.12664381 1.24474158,3.80495902 Z" id="Path-184" stroke="#372400" stroke-width="1.51409416" fill="#FFE1D6"></path>
                            <path d="M4.11339715,5.50479824 C6.16201726,3.787018 7.44935892,3.20168871 7.9754221,3.74881039 C8.76451688,4.56949289 6.74126628,8.45111661 6.74126628,8.45111661 C6.74126628,8.45111661 6.94622776,6.79329589 6.04440963,5.78219404 C5.80765945,5.51675412 5.16398863,5.42428885 4.11339715,5.50479824 Z" id="Path-185" fill="#E5AA94"></path>
                        </g>
                        <path d="M70.0599452,64.6837958 C72.436104,64.6837958 73.8882869,68.1965636 77.7139797,67.2200779 C81.5396726,66.2435923 87.3088047,54.4107401 92.0020553,57.9995798 C96.6953058,61.5884195 88.3374237,68.4077177 83.5856192,70.8594179 C78.8338148,73.311118 69.0810681,74.0781186 67.077541,70.8594179 C65.074014,67.6407172 67.6837865,64.6837958 70.0599452,64.6837958 Z" id="Path-329" stroke="#372400" stroke-width="0.984161256" fill="#FFC1A8" stroke-linecap="round" stroke-linejoin="round"></path>
                        <path d="M72.9462752,55.7151036 C74.8239837,53.2479974 76.3990284,51.7470639 77.6714093,51.2123029 C78.9437902,50.6775419 80.1280764,51.0187735 81.2242681,52.2359979" id="Path-330" stroke="#372400" stroke-width="0.984161256" stroke-linecap="round" stroke-linejoin="round"></path>
                        <path d="M67.1142722,40.3138436 C66.5112788,42.3307828 65.6116306,43.6270595 64.4153276,44.202674 C63.2190246,44.7782884 58.9159306,46.0745651 51.5060458,48.0915043" id="Path-331" stroke="#372400" stroke-width="1.18099351" stroke-linecap="round" stroke-linejoin="round"></path>
                        <path d="M63.1655904,49.2544628 C62.4352465,48.9161557 60.3460298,49.5860794 60.3460298,51.2488008 C60.3460298,52.9115222 62.4431915,53.3836093 63.4483246,52.6858342 C64.4534578,51.9880591 63.9467019,49.6162864 63.1655904,49.2544628 Z" id="Path-332" fill="#372400"></path>
                        <path d="M83.3669159,36.3789065 C83.8314273,37.5059432 84.5149542,38.260735 85.4174967,38.6432817 C86.3200392,39.0258285 90.8052604,38.6484326 98.8731603,37.5110941" id="Path-333" stroke="#372400" stroke-width="1.18099351" stroke-linecap="round" stroke-linejoin="round"></path>
                        <path d="M89.4031082,40.7021523 C87.2752533,41.0613873 86.3820511,44.3067688 87.4485784,45.6226362 C88.5151058,46.9385036 92.1391899,46.7030494 92.782515,44.7784738 C93.4258402,42.8538982 91.5309631,40.3429173 89.4031082,40.7021523 Z" id="Path-334" fill="#372400"></path>
                        <path d="M21.2677038,26.0017351 C17.4511058,26.2711944 16.4033318,39.3109277 18.1490167,46.8505434 C18.980816,50.4430855 21.5150399,52.4852652 22.6914372,51.8653639 C25.8537492,50.198987 26.9028678,25.6038815 21.2677038,26.0017351 Z" id="Path-326" stroke="#372400" stroke-width="1.37782576" fill="#442DB4"></path>
                        <path d="M22.7215225,48.7241242 C23.0608488,52.3964513 18.5864617,55.3966337 18.9691859,60.7870199 C19.3519101,66.1774061 24.6618231,84.3072542 24.847434,91.0650957 C24.9711747,95.5703234 23.3763414,98.7515906 20.0629342,100.608897 C19.3337686,101.023854 18.2660657,101.231332 16.8598253,101.231332 C15.453585,101.231332 14.2749972,100.6962 13.3240621,99.6259367 C14.5535525,95.9024828 15.1102582,92.8327145 14.9941791,90.4166318 C14.8200606,86.7925077 10.382176,69.9674227 10.958306,59.7500818 C11.5344359,49.5327408 15.9750354,46.694589 17.5381838,45.3001368 C19.1013322,43.9056847 22.3821961,45.0517971 22.7215225,48.7241242 Z" id="Path-327" stroke="#372400" stroke-width="1.51409416" fill="#BEE9FF" stroke-linecap="round" stroke-linejoin="round"></path>
                        <path d="M18.5846724,50.8428005 C15.6628845,51.7719322 14.5981332,56.3682843 15.3904185,64.6318569 C16.5788464,77.0272158 21.756401,84.4635567 22.301786,88.708035 C22.6653759,91.5376872 21.6471619,93.5173291 19.2471438,94.6469608" id="Path-335" stroke="#372400" stroke-width="1.18099351" stroke-linecap="round" stroke-linejoin="round"></path>
                        <path d="M15.8479295,81.5612256 C18.081379,84.0883938 19.1981037,86.1863802 19.1981037,87.8551849 C19.1981037,89.5239897 18.6059539,90.5396227 17.4216544,90.902084" id="Path-336" stroke="#372400" stroke-width="1.18099351" stroke-linecap="round" stroke-linejoin="round"></path>
                        <path d="M25.7302323,98.2570549 C25.9280933,96.4515403 32.6723714,93.8397778 34.6201224,94.6211971 C36.5678734,95.4026164 36.2608075,100.798017 33.8640728,101.520275 C32.4767826,101.938336 30.5440179,100.026097 28.6613357,99.1348863 C27.2914256,98.4864081 25.6468982,99.0174923 25.7302323,98.2570549 Z" id="Path-337" stroke="#372400" stroke-width="1.18099351" fill="#BEE9FF"></path>
                        <path d="M11.4511944,93.8051176 C9.16305548,90.4153176 7.02850374,89.0311499 5.04753923,89.6526146 C2.07609246,90.5848115 -1.78748014,94.9627466 0.915836998,97.1102512 C2.40188146,98.2907591 3.4127588,96.9851876 7.22352047,94.7207479 C7.76403231,94.3995637 9.17325696,94.0943536 11.4511944,93.8051176 Z" id="Path-338" stroke="#372400" stroke-width="1.18099351" fill="#BEE9FF" stroke-linecap="round" stroke-linejoin="round"></path>
                        <path d="M11.8033037,89.131492 C12.8711316,86.8553922 13.0772757,85.3647073 12.421736,84.6594373 C11.4384264,83.6015323 8.59616179,83.4906488 8.29076099,85.1248141 C8.11053809,86.0891665 9.00501758,86.6056763 10.9786696,87.9557127 C11.1493445,88.0724594 11.4242226,88.4643859 11.8033037,89.131492 Z" id="Path-339" stroke="#372400" stroke-width="1.18099351" fill="#BEE9FF" stroke-linecap="round" stroke-linejoin="round"></path>
                        <path d="M29.3299524,89.131492 C30.3977804,86.8553922 30.6039244,85.3647073 29.9483847,84.6594373 C28.9650751,83.6015323 26.1228105,83.4906488 25.8174097,85.1248141 C25.6371868,86.0891665 26.5316663,86.6056763 28.5053183,87.9557127 C28.6759933,88.0724594 28.9508713,88.4643859 29.3299524,89.131492 Z" id="Path-339-Copy" stroke="#372400" stroke-width="1.18099351" fill="#BEE9FF" stroke-linecap="round" stroke-linejoin="round" transform="translate(28.058582, 86.504843) rotate(63.000000) translate(-28.058582, -86.504843) "></path>
                        <path d="M78.3281928,20.5016061 C77.2384327,26.8540448 74.8013833,31.4260237 71.0170445,34.217543 C65.3405364,38.4048218 55.5176597,39.6152644 54.0093416,38.4404177 C52.5010235,37.265571 62.7343417,32.222688 64.5510089,29.1810717 C66.8936994,25.258743 66.1286111,21.1579362 68.8880206,19.4234253 C70.7276269,18.2670847 73.874351,18.6264783 78.3281928,20.5016061 Z" id="Path-340" stroke="#372400" stroke-width="1.96832251" fill="#7A472B" stroke-linecap="round" stroke-linejoin="round"></path>
                        <path d="M64.8090384,7.0543769 C61.8622615,3.8582479 47.1254017,14.0864781 45.011405,16.6545603 C42.8974084,19.2226425 42.4831765,27.9469638 49.7498956,23.867067 C56.5045422,20.0746731 67.7558153,10.2505059 64.8090384,7.0543769 Z" id="Path-341" fill-opacity="0.525900136" fill="#FFFFFF"></path>
                        <path d="M57.5512354,57.2688057 C56.1955441,53.6968455 49.4774725,56.6536341 46.4019784,59.5588175 C43.3264843,62.464001 41.7387714,69.1762673 46.4019784,68.5165079 C51.0651853,67.8567485 58.9069268,60.8407659 57.5512354,57.2688057 Z" id="Path-322-Copy" fill="#EB6262" transform="translate(50.588256, 62.095403) rotate(19.000000) translate(-50.588256, -62.095403) "></path>
                        <path d="M110.229425,44.5198966 C108.873734,40.9479364 102.155662,43.904725 99.080168,46.8099084 C96.0046739,49.7150919 94.4169611,56.4273582 99.080168,55.7675988 C103.743375,55.1078394 111.585116,48.0918568 110.229425,44.5198966 Z" id="Path-322-Copy-3" fill="#EB6262" transform="translate(103.266445, 49.346494) rotate(19.000000) translate(-103.266445, -49.346494) "></path>
                    </g>
                </g>
            </g>
            <text id="水瓶座" mask="url(#mask-3)" font-family="PingFangSC-Medium, PingFang SC" font-size="12" font-weight="400" line-spacing="14" fill="#6344FF">
                <tspan x="10.136" y="22.576">水</tspan>
                <tspan x="10.136" y="36.576">瓶</tspan>
                <tspan x="10.136" y="50.576">座</tspan>
            </text>
            <path d="M123.806452,178.19919 L123.80441,173.526571 L125.323397,175.050514 C125.482645,175.209762 125.692935,175.290394 125.901183,175.290394 C126.10739,175.290394 126.311555,175.213793 126.470803,175.060593 C126.789301,174.75016 126.793384,174.242179 126.47897,173.927714 L124.114741,171.55512 C123.979992,171.381762 123.671703,171.065281 123.17354,171.008839 C122.869335,170.972555 122.397714,171.031013 121.915885,171.508757 C121.295223,172.123575 119.506739,173.933762 119.506739,173.933762 L119.50878,173.935778 C119.367907,174.080915 119.278074,174.276447 119.278074,174.492138 C119.278074,174.933597 119.641488,175.292409 120.09065,175.292409 C120.317273,175.292409 120.521438,175.199683 120.668437,175.050514 C120.668437,175.050514 121.468763,174.240163 122.181299,173.522539 L122.185382,178.19919 C119.810944,178.584207 117.99796,180.616131 118.000002,183.067341 C118.002043,185.7927 120.241732,188.002014 123.004083,187.999999 C125.766435,187.999999 128.00204,185.788668 127.999999,183.061294 C127.997957,180.610084 126.182931,178.582191 123.806452,178.19919 Z M123,186 C121.344093,186 120,184.657844 120,183 C120,181.344093 121.342156,180 123,180 C124.655907,180 126,181.342156 126,183 C126,184.657844 124.655907,186 123,186 Z" id="男" fill="#6344FF" fill-rule="nonzero" mask="url(#mask-3)"></path>
        </g>
    </g>
</svg>