<?xml version="1.0" encoding="UTF-8"?>
<svg width="152px" height="212px" viewBox="0 0 152 212" version="1.1" xmlns="http://www.w3.org/2000/svg" xmlns:xlink="http://www.w3.org/1999/xlink">
    <!-- Generator: Sketch 51 (57462) - http://www.bohemiancoding.com/sketch -->
    <title>男/天蝎座</title>
    <desc>Created with Sketch.</desc>
    <defs>
        <filter x="-7.5%" y="-3.8%" width="115.0%" height="110.5%" filterUnits="objectBoundingBox" id="filter-1">
            <feOffset dx="0" dy="3" in="SourceAlpha" result="shadowOffsetOuter1"></feOffset>
            <feGaussianBlur stdDeviation="3" in="shadowOffsetOuter1" result="shadowBlurOuter1"></feGaussianBlur>
            <feColorMatrix values="0 0 0 0 0.57254902   0 0 0 0 0.384313725   0 0 0 0 0.984313725  0 0 0 0.2 0" type="matrix" in="shadowBlurOuter1" result="shadowMatrixOuter1"></feColorMatrix>
            <feMerge>
                <feMergeNode in="shadowMatrixOuter1"></feMergeNode>
                <feMergeNode in="SourceGraphic"></feMergeNode>
            </feMerge>
        </filter>
    </defs>
    <g id="星座配对" stroke="none" stroke-width="1" fill="none" fill-rule="evenodd">
        <g id="男/天蝎座" filter="url(#filter-1)" transform="translate(6.000000, 3.000000)">
            <rect id="Rectangle-2-Copy-3" fill="#FFFFFF" fill-rule="nonzero" x="0" y="0" width="140" height="200" rx="4"></rect>
            <rect id="Rectangle-2-Copy-5" stroke="#AF5B2D" fill-opacity="0.2" fill="#D79164" fill-rule="nonzero" x="4.5" y="4.5" width="131" height="191" rx="4"></rect>
            <path d="M123.806452,178.19919 L123.80441,173.526571 L125.323397,175.050514 C125.482645,175.209762 125.692935,175.290394 125.901183,175.290394 C126.10739,175.290394 126.311555,175.213793 126.470803,175.060593 C126.789301,174.75016 126.793384,174.242179 126.47897,173.927714 L124.114741,171.55512 C123.979992,171.381762 123.671703,171.065281 123.17354,171.008839 C122.869335,170.972555 122.397714,171.031013 121.915885,171.508757 C121.295223,172.123575 119.506739,173.933762 119.506739,173.933762 L119.50878,173.935778 C119.367907,174.080915 119.278074,174.276447 119.278074,174.492138 C119.278074,174.933597 119.641488,175.292409 120.09065,175.292409 C120.317273,175.292409 120.521438,175.199683 120.668437,175.050514 C120.668437,175.050514 121.468763,174.240163 122.181299,173.522539 L122.185382,178.19919 C119.810944,178.584207 117.99796,180.616131 118.000002,183.067341 C118.002043,185.7927 120.241732,188.002014 123.004083,187.999999 C125.766435,187.999999 128.00204,185.788668 127.999999,183.061294 C127.997957,180.610084 126.182931,178.582191 123.806452,178.19919 Z M123,186 C121.344093,186 120,184.657844 120,183 C120,181.344093 121.342156,180 123,180 C124.655907,180 126,181.342156 126,183 C126,184.657844 124.655907,186 123,186 Z" id="男" fill="#9E420F" fill-rule="nonzero"></path>
            <text id="天蝎座" font-family="PingFangSC-Medium, PingFang SC" font-size="12" font-weight="400" line-spacing="14" fill="#9E420F">
                <tspan x="10.136" y="22.576">天</tspan>
                <tspan x="10.136" y="36.576">蝎</tspan>
                <tspan x="10.136" y="50.576">座</tspan>
            </text>
            <g id="天蝎座" transform="translate(12.000000, 39.000000)">
                <g id="天蝎座-copy">
                    <path d="M96.2968673,23.279166 C77.6907588,7.18857499 51.442901,5.40292474 26.3056947,20.9026637 C1.16848836,36.4024026 -8.29085249,63.553219 8.60677163,75.5804947 C25.5043957,87.6077704 78.7960128,78.8841931 94.1975027,69.2262321 C109.598993,59.568271 114.902976,39.369757 96.2968673,23.279166 Z" id="Path-200" stroke="#372400" stroke-width="1.4454248" fill="#7A472B"></path>
                    <path d="M50.1149058,68.7677869 C44.7142805,71.1386355 41.0605265,73.0654927 39.1536439,74.5483586 C27.2657144,83.7928733 23.0274088,90.6593933 23.8931511,91.9885656 C24.9671974,93.6375465 31.2656298,91.1056906 42.7884481,84.392998 C41.3624992,87.9803205 40.3987676,92.3239569 39.8972535,97.4239072 C39.3957393,102.523857 39.8574709,108.298168 41.2824484,114.746838 L49.5895571,116.541526 C54.6456261,106.841648 58.5462348,102.055982 61.2913831,102.184527 C64.0365315,102.313073 65.8785514,107.367646 66.8174428,117.348247 L75.1722644,117.348247 C76.8841839,109.63886 77.9015501,103.435043 78.2243629,98.7367965 C78.5471758,94.03855 78.284586,89.2572838 77.4365936,84.392998 C87.0975963,87.3088376 92.2864515,88.2125279 93.0031591,87.1040688 C93.7198668,85.9956098 88.5310116,80.1586844 77.4365936,69.5932928 L50.1149058,68.7677869 Z" id="Path-220" stroke="#372400" stroke-width="1.4454248" fill="#FFE1D6" stroke-linecap="round" stroke-linejoin="round"></path>
                    <path d="M53.4431297,70.4751523 C55.9190355,79.5696837 58.9672426,84.2731039 62.587751,84.5854129 C66.2082593,84.897722 70.4777119,80.8255311 75.3961086,72.3688404 C75.3733034,77.0642629 75.6028735,80.4584841 76.0848189,82.5515039 C76.807737,85.6910337 78.8405851,89.5568668 78.2091354,91.0219216 C77.5776858,92.4869763 75.3961086,92.5759642 71.9998686,92.0291808 C69.7357086,91.6646586 66.598336,90.3654769 62.587751,88.1316358 C56.7091708,90.3284466 52.3527523,91.2918752 49.5184954,91.0219216 C45.2671101,90.6169911 41.9270311,88.5227664 41.7783573,86.1496094 C41.6296834,83.7764524 47.2688998,83.5297438 48.9108963,81.3233224 C50.0055606,79.8523749 51.516305,76.2363182 53.4431297,70.4751523 Z" id="Path-221" stroke="#372400" stroke-width="1.4454248" fill="#000000" stroke-linecap="round" stroke-linejoin="round"></path>
                    <path d="M32.0652427,31.8860544 C31.3691768,48.5146324 33.3423224,59.2040699 37.9846795,63.954367 C44.9482151,71.0798125 70.5429616,76.790821 85.049836,71.325535 C94.7210855,67.682011 99.5429579,55.4385308 99.5154532,34.5950944 C84.0056052,26.677148 72.3320346,22.560788 64.4947415,22.2460145 C56.6574484,21.9312409 45.8476155,25.1445876 32.0652427,31.8860544 Z" id="Path-219" stroke="#372400" stroke-width="1.4454248" fill="#FFE1D6"></path>
                    <path d="M99.9901279,29.5548872 C101.177992,39.2974084 101.543101,45.7623686 101.085456,48.9497679 C99.1640281,62.3321073 94.3687517,66.6732626 93.3576889,67.1249415 C91.3720955,68.0119788 98.3997713,60.302903 96.8399306,51.4441222 C95.6061434,44.4370923 85.678288,35.8661972 84.8716397,36.161147 C79.8674656,37.9909155 75.8188299,38.9902726 72.7257325,39.1592181 C64.075631,39.6316882 61.8392819,33.1450384 55.7574244,32.2664674 C49.6755669,31.3878963 44.0699472,33.9422185 38.4162271,41.0543001 C32.7625071,48.1663818 37.2679121,53.5275084 36.4955568,56.4802254 C35.9806533,58.4487034 34.3564907,60.2049613 31.6230692,61.7489991 L30.7308937,35.5897579 L30.7308937,25.8628727 L70.6952642,17.3556946 L99.9901279,29.5548872 Z" id="Path-222" fill="#7A472B"></path>
                    <path d="M18.2430548,28.3128473 C18.1995292,31.0895357 19.944184,32.6901997 23.4770193,33.1148393 C28.7762724,33.7517987 30.5951841,31.3100367 38.2184027,30.7138433 C40.7996811,30.5119678 42.8880381,31.0578062 42.8448096,32.060926 C42.7603724,34.0202923 37.8952509,37.3140105 36.1644209,37.3140105 C33.5474728,37.3140105 37.8501146,33.1148393 33.1653561,33.1148393 C28.4805976,33.1148393 23.8411115,37.3140105 20.301055,37.3140105 C17.9410174,37.3140105 16.5570182,35.9142868 16.1490576,33.1148393 C16.5868096,32.0198499 16.91594,31.2195179 17.1364487,30.7138433 C17.3569574,30.2081688 17.7258261,29.4078368 18.2430548,28.3128473 Z" id="Path-17" fill="#BB8C6E" transform="translate(29.497263, 32.813429) rotate(14.000000) translate(-29.497263, -32.813429) "></path>
                    <path d="M100.552166,51.9984449 C98.6307373,65.3807843 94.3687517,66.6732626 93.3576889,67.1249415 C91.3720955,68.0119788 98.3997713,60.302903 96.8399306,51.4441222 C95.6061434,44.4370923 85.678288,35.8661972 84.8716397,36.161147 C79.8674656,37.9909155 75.8188299,38.9902726 72.7257325,39.1592181 C64.075631,39.6316882 61.8392819,33.1450384 55.7574244,32.2664674 C49.6755669,31.3878963 44.0699472,33.9422185 38.4162271,41.0543001 C32.7625071,48.1663818 37.2679121,53.5275084 36.4955568,56.4802254 C35.9806533,58.4487034 34.3564907,60.2049613 31.6230692,61.7489991 C32.044094,59.7621152 32.3160508,58.1891178 32.4389395,57.0300068 C32.4973553,56.4790173 32.4973553,55.4868638 32.4389395,54.0535466" id="Path-222" stroke="#372400" stroke-width="1.4454248" stroke-linecap="round" stroke-linejoin="round"></path>
                    <path d="M39.0849576,93.0673506 C49.1003885,96.1605882 56.5372112,97.8676839 61.3954258,98.1886378 C66.2536404,98.5095917 72.0360586,97.675814 78.7426803,95.6873049 L78.7426803,101.356444 L62.4586778,106.57304 C63.0336063,104.626645 62.3428238,103.653447 60.3863304,103.653447 C58.4298371,103.653447 57.1259652,104.626645 56.4747148,106.57304 L39.0849576,103.653447 L39.0849576,93.0673506 Z" id="Path-223" stroke="#372400" stroke-width="1.4454248" fill="#000000" stroke-linecap="round" stroke-linejoin="round"></path>
                    <path d="M93.0616028,72.3179439 C96.015267,73.9288269 97.7332841,77.4244629 98.2156542,82.804852 C103.102491,80.762718 106.349921,80.762718 107.957945,82.804852 C109.565969,84.846986 108.972002,87.3356097 106.176044,90.2707231 C112.500618,88.0275293 116.027789,88.0275293 116.757557,90.2707231 C117.487325,92.5139169 116.237437,94.2979988 113.007891,95.6229686 C116.204903,107.752491 112.388814,115.712678 101.559624,119.503529 C90.7304337,123.29438 80.8910338,120.764406 72.041424,111.913606 C76.4616147,112.697212 80.8052915,112.910548 85.0724544,112.553615 C89.3396172,112.196682 93.7206839,111.253551 98.2156542,109.724223 C94.1071143,110.871462 91.0191146,111.601256 88.9516551,111.913606 C86.8841956,112.225955 85.1416421,112.225955 83.7239946,111.913606 C84.6923761,107.651043 86.5563635,104.616239 89.3159567,102.809195 C93.4553466,100.098628 107.292358,97.4008863 108.778907,96.5063167 C110.265457,95.6117471 105.215535,95.6229686 104.560309,93.6355138 C104.123491,92.3105439 104.123491,91.3839929 104.560309,90.8558606 C100.735531,91.8077345 98.1371311,91.8077345 96.7651096,90.8558606 C95.393088,89.9039867 94.6381755,88.8324458 94.5003721,87.6412379 C89.8283971,88.6348959 85.9747126,87.98239 82.9393188,85.6837203 C79.903925,83.3850506 79.5054134,79.4309262 81.7437841,73.8213473 C86.3353324,71.2081953 90.1079387,70.7070608 93.0616028,72.3179439 Z" id="Path-224" stroke="#372400" stroke-width="1.4454248" fill="#7A472B" stroke-linecap="round" stroke-linejoin="round"></path>
                    <polygon id="Path-225" stroke="#372400" stroke-width="1.4454248" fill="#000000" stroke-linejoin="round" points="27.7315443 19.6793844 71.029063 27.5772017 95.859846 22.96316 98.8743204 25.8218583 70.1081996 33.937803 23.0410771 22.96316"></polygon>
                    <polygon id="Path-226" fill="#FFEC5B" points="69.6691672 22.2917238 66.7024399 27.8726774 60.480011 27.8726774 67.2286928 31.8592854 65.0314476 35.7934428 69.8735319 33.2516408 75.7580804 35.7934428 73.1610317 31.8592854 78.3859975 28.8554728 72.149808 27.8726774"></polygon>
                    <path d="M58.602271,44.5172397 C58.0071056,45.4421354 57.0204541,46.150685 55.6423165,46.6428885 C54.2641789,47.1350921 53.200438,47.1350921 52.4510938,46.6428885" id="Path-227" stroke="#372400" stroke-width="1.4454248" stroke-linecap="round" stroke-linejoin="round"></path>
                    <path d="M77.4194675,46.1669076 C76.9346328,47.6352106 76.9346328,48.6653718 77.4194675,49.2573913 C77.9043021,49.8494109 79.5916041,50.8795721 82.4813734,52.3478751" id="Path-228" stroke="#372400" stroke-width="1.4454248" stroke-linecap="round" stroke-linejoin="round"></path>
                    <polyline id="Path-229" stroke="#372400" stroke-width="1.4454248" stroke-linecap="round" stroke-linejoin="round" points="59.7596296 50.4549138 50.1086397 51.9108411 42.4219765 53.0704342"></polyline>
                    <polyline id="Path-230" stroke="#372400" stroke-width="1.4454248" stroke-linecap="round" stroke-linejoin="round" points="73.4648251 51.5523518 80.6420178 55.5762292 86.6855006 58.9644947"></polyline>
                    <path d="M60.5164201,59.0299597 C60.618193,60.7591689 61.1960942,61.6237735 62.2501238,61.6237735 C63.3041534,61.6237735 64.4053421,60.9661618 65.5536899,59.6509383 C66.0570441,61.3169313 66.7851738,62.1499277 67.7380788,62.1499277 C68.6909838,62.1499277 69.3949667,61.6754812 69.8500274,60.7265882" id="Path-231" stroke="#372400" stroke-width="1.4454248" stroke-linecap="round" stroke-linejoin="round"></path>
                    <path d="M48.8498885,58.6244208 C47.0190504,55.0663995 38.4167542,56.4509528 34.3253509,58.6244208 C30.2339476,60.7978887 31.0452027,63.3924742 37.1017316,63.3924742 C43.1582605,63.3924742 50.6807267,62.182442 48.8498885,58.6244208 Z" id="Path-232" fill="#EB6262"></path>
                    <path d="M95.1235554,63.0580254 C93.2927173,59.5000041 84.690421,60.8845574 80.5990177,63.0580254 C76.5076145,65.2314934 77.3188695,67.8260788 83.3753984,67.8260788 C89.4319273,67.8260788 96.9543935,66.6160467 95.1235554,63.0580254 Z" id="Path-232-Copy" fill="#EB6262" transform="translate(86.733020, 64.352150) rotate(27.000000) translate(-86.733020, -64.352150) "></path>
                    <path d="M99.1898471,11.1555355 C99.1199128,16.6539274 98.7719182,20.8873813 98.1458633,23.8558973 C97.2067809,28.3086712 92.5468424,30.0856498 95.0884112,30.6029955 C97.62998,31.1203412 104.494662,29.9942332 105.47461,25.3476905 C106.127908,22.2499954 104.032987,17.5192771 99.1898471,11.1555355 Z" id="Path-233" stroke="#372400" stroke-width="1.4454248" fill="#B71414" stroke-linecap="round" stroke-linejoin="round"></path>
                    <path d="M37.4979933,0.0708047257 C37.4280591,5.56919663 37.0800645,9.80265056 36.4540095,12.7711665 C35.5149272,17.2239405 30.8549887,19.0009191 33.3965575,19.5182648 C35.9381262,20.0356104 42.8028081,18.9095024 43.782756,14.2629598 C44.4360545,11.1652647 42.3411337,6.43454632 37.4979933,0.0708047257 Z" id="Path-233" stroke="#372400" stroke-width="1.4454248" fill="#B71414" stroke-linecap="round" stroke-linejoin="round" transform="translate(38.273104, 9.852366) scale(-1, 1) translate(-38.273104, -9.852366) "></path>
                </g>
            </g>
        </g>
    </g>
</svg>