<?xml version="1.0" encoding="UTF-8"?>
<svg width="152px" height="212px" viewBox="0 0 152 212" version="1.1" xmlns="http://www.w3.org/2000/svg" xmlns:xlink="http://www.w3.org/1999/xlink">
    <!-- Generator: Sketch 51 (57462) - http://www.bohemiancoding.com/sketch -->
    <title>男/金牛座</title>
    <desc>Created with Sketch.</desc>
    <defs>
        <filter x="-7.3%" y="-3.8%" width="114.0%" height="110.5%" filterUnits="objectBoundingBox" id="filter-1">
            <feOffset dx="0" dy="3" in="SourceAlpha" result="shadowOffsetOuter1"></feOffset>
            <feGaussianBlur stdDeviation="3" in="shadowOffsetOuter1" result="shadowBlurOuter1"></feGaussianBlur>
            <feColorMatrix values="0 0 0 0 0.57254902   0 0 0 0 0.384313725   0 0 0 0 0.984313725  0 0 0 0.2 0" type="matrix" in="shadowBlurOuter1" result="shadowMatrixOuter1"></feColorMatrix>
            <feMerge>
                <feMergeNode in="shadowMatrixOuter1"></feMergeNode>
                <feMergeNode in="SourceGraphic"></feMergeNode>
            </feMerge>
        </filter>
    </defs>
    <g id="星座配对" stroke="none" stroke-width="1" fill="none" fill-rule="evenodd">
        <g id="男/金牛座" filter="url(#filter-1)" transform="translate(-4.000000, 3.000000)">
            <rect id="Rectangle-2-Copy-3" fill="#FFFFFF" fill-rule="nonzero" x="10" y="0" width="140" height="200" rx="4"></rect>
            <rect id="Rectangle-2-Copy-5" stroke="#FFA300" fill-opacity="0.1" fill="#FFCF30" fill-rule="nonzero" x="14.5" y="4.5" width="131" height="191" rx="4"></rect>
            <path d="M133.806452,178.19919 L133.80441,173.526571 L135.323397,175.050514 C135.482645,175.209762 135.692935,175.290394 135.901183,175.290394 C136.10739,175.290394 136.311555,175.213793 136.470803,175.060593 C136.789301,174.75016 136.793384,174.242179 136.47897,173.927714 L134.114741,171.55512 C133.979992,171.381762 133.671703,171.065281 133.17354,171.008839 C132.869335,170.972555 132.397714,171.031013 131.915885,171.508757 C131.295223,172.123575 129.506739,173.933762 129.506739,173.933762 L129.50878,173.935778 C129.367907,174.080915 129.278074,174.276447 129.278074,174.492138 C129.278074,174.933597 129.641488,175.292409 130.09065,175.292409 C130.317273,175.292409 130.521438,175.199683 130.668437,175.050514 C130.668437,175.050514 131.468763,174.240163 132.181299,173.522539 L132.185382,178.19919 C129.810944,178.584207 127.99796,180.616131 128.000002,183.067341 C128.002043,185.7927 130.241732,188.002014 133.004083,187.999999 C135.766435,187.999999 138.00204,185.788668 137.999999,183.061294 C137.997957,180.610084 136.182931,178.582191 133.806452,178.19919 Z M133,186 C131.344093,186 130,184.657844 130,183 C130,181.344093 131.342156,180 133,180 C134.655907,180 136,181.342156 136,183 C136,184.657844 134.655907,186 133,186 Z" id="男" fill="#FF8F00" fill-rule="nonzero"></path>
            <text id="金牛座" font-family="PingFangSC-Medium, PingFang SC" font-size="12" font-weight="400" line-spacing="14" fill="#FF8F00">
                <tspan x="20.136" y="22.576">金</tspan>
                <tspan x="20.136" y="36.576">牛</tspan>
                <tspan x="20.136" y="50.576">座</tspan>
            </text>
            <g id="金牛座" transform="translate(85.224664, 92.113448) rotate(-330.000000) translate(-85.224664, -92.113448) translate(19.724664, 35.113448)">
                <g id="金牛座-copy">
                    <path d="M52.3288228,85.935059 C64.0610639,102.363935 71.3424436,111.065866 74.1729622,112.040851 C83.8583862,115.377039 98.0866352,114.084199 116.857709,108.162329 L121.240862,100.053965 C114.931094,97.4247579 112.746784,94.6437258 114.687932,91.7108692 C116.629079,88.7780127 121.003149,88.3191709 127.810142,90.3343439 L131.315885,81.1152771 C125.135626,75.7760298 117.590842,71.5910093 108.681533,68.5602156 C99.7722238,65.5294218 90.3620694,63.9466638 80.4510697,63.8119415 L52.3288228,85.935059 Z" id="Path-234" stroke="#372400" stroke-width="1.46836811" fill="#FFCF30" stroke-linecap="round" stroke-linejoin="round"></path>
                    <path d="M92.6332733,72.3201152 C72.2634543,71.2659316 70.4230763,92.2156217 73.8939914,99.4925939 C77.3649066,106.769566 85.2341785,114.341102 101.5899,108.412594 C117.945621,102.484086 113.003092,73.3742987 92.6332733,72.3201152 Z" id="Path-238" fill="#FFFFFF"></path>
                    <path d="M83.6264168,88.397806 C84.7828967,87.894957 85.6184414,87.0142358 86.1330508,85.7556422 C86.9049648,83.8677519 84.4518047,83.523969 85.5284206,81.6023135 C86.2461645,80.3212098 87.4009332,80.1856664 88.9927268,81.1956833 C90.3973824,79.1739679 91.5224208,78.668539 92.3678419,79.6793967 C93.6359735,81.1956833 89.987988,87.5718564 92.3678419,87.5718564 C94.7476957,87.5718564 98.5728183,78.1631101 100.870312,79.6793967 C103.167806,81.1956833 97.0532838,87.933838 97.5288016,91.04133 C98.0043194,94.1488221 105.544637,97.7739352 102.425725,101.287805 C99.3068136,104.801675 95.7889422,96.883738 94.4407153,97.1995574 C93.0924885,97.5153769 87.2996106,107.214213 84.7365647,104.367802 C82.1735188,101.52139 91.2257906,90.2601057 89.3535341,89.1590258 C87.4812776,88.057946 84.6294342,93.8501557 84.197375,95.7428023 C83.7653158,97.6354488 84.197375,102.304885 81.888006,101.287805 C79.578637,100.270725 79.2897039,95.191035 79.2135343,92.026374 C79.1373647,88.8617129 80.1495953,83.5691221 81.888006,83.5691221 C83.0469465,83.5691221 83.6264168,85.1786834 83.6264168,88.397806 Z" id="Path-239" fill="#CC8A00"></path>
                    <path d="M53.132943,86.5118554 C53.0956444,99.8200339 56.2811863,108.006359 62.6895686,111.070832 C72.3021422,115.66754 88.032445,109.862972 88.032445,105.490113 C88.032445,101.117255 75.0529965,104.01322 72.3021422,102.378746 C70.4682393,101.289097 68.767466,99.1055901 67.1998222,95.8282252 L53.132943,86.5118554 Z" id="Path-235" fill="#FFCF30"></path>
                    <path d="M52.7480073,86.9313472 C52.9673325,99.9598645 56.2811863,108.006359 62.6895686,111.070832 C72.3021422,115.66754 88.032445,109.862972 88.032445,105.490113 C88.032445,101.117255 75.0529965,104.01322 72.3021422,102.378746 C70.4682393,101.289097 68.8851357,98.9596719 67.5528312,95.3904708" id="Path-235" stroke="#372400" stroke-width="1.46836811" stroke-linecap="round" stroke-linejoin="round"></path>
                    <path d="M86.5125066,64.4572824 C96.9126615,59.6276891 103.871369,59.151246 107.388628,63.0279532 C112.664517,68.8430141 108.862927,85.3447921 106.371753,86.3460544 C103.633248,87.4467252 101.696896,84.623592 100.562698,77.876655 C100.562698,75.4153164 100.06344,73.5149833 99.0649251,72.1756557 C98.0664098,70.8363281 93.8822703,68.263537 86.5125066,64.4572824 Z" id="Path-236" fill="#FFCF30"></path>
                    <path d="M86.5125066,64.4572824 C96.9126615,59.6276891 103.871369,59.151246 107.388628,63.0279532 C112.664517,68.8430141 108.862927,85.3447921 106.371753,86.3460544 C103.633248,87.4467252 101.696896,84.623592 100.562698,77.876655" id="Path-236" stroke="#372400" stroke-width="1.46836811" stroke-linecap="round" stroke-linejoin="round"></path>
                    <path d="M16.9081175,53.0177471 C12.8655209,53.5236052 9.89083729,52.9950317 7.98406669,51.4320265 C5.12391079,49.0875188 4.45595344,39.2090179 2.95970453,41.5840481 C1.46345562,43.9590783 -1.86137966,53.2118468 2.95970453,59.4073117 C6.17376065,63.5376217 10.8232316,65.1479118 16.9081175,64.2381822 L16.9081175,53.0177471 Z" id="Path-240" stroke="#372400" stroke-width="1.46836811" fill="#925808" stroke-linecap="round" stroke-linejoin="round"></path>
                    <path d="M8.86844861,41.7028569 C10.3894765,43.3481094 11.6730189,44.5038973 12.719076,45.1702204 C13.765133,45.8365434 14.7105274,46.1005559 15.5552592,45.9622577 L15.5552592,52.1379489 C12.6972837,51.1065891 10.8683214,49.89861 10.0683723,48.5140113 C9.26842316,47.1294127 8.86844861,44.8590279 8.86844861,41.7028569 Z" id="Path-241" stroke="#372400" stroke-width="1.46836811" fill="#FFCF30" stroke-linecap="round" stroke-linejoin="round"></path>
                    <path d="M62.523437,14.3449337 C64.325623,13.1308248 65.5871283,12.1187771 66.3079529,11.3087906 C67.0287775,10.498804 68.4618054,8.48302006 70.6070366,5.26143877 C71.4172762,8.31667236 71.906134,10.6403486 72.0736099,12.2324674 C72.2410859,13.8245863 72.2410859,16.1482625 72.0736099,19.2034961 L62.523437,14.3449337 Z" id="Path-242" stroke="#372400" stroke-width="1.46836811" fill="#FFCF30" stroke-linecap="round" stroke-linejoin="round"></path>
                    <path d="M67.8321902,17.9886722 C71.1417701,15.6022178 73.2285673,13.1851594 74.0925816,10.7374969 C75.388603,7.06600323 70.5185659,-1.42706545 74.0925816,0.253635998 C77.6665972,1.93433745 83.327796,9.57760596 84.589618,14.980397 C85.4308327,18.5822577 84.061835,22.7935007 80.482625,27.614126 L67.8321902,17.9886722 Z" id="Path-243" stroke="#372400" stroke-width="1.46836811" fill="#925808" stroke-linecap="round" stroke-linejoin="round"></path>
                    <path d="M31.1815821,19.5727473 C6.59790404,38.5025245 6.04183578,77.8990086 30.5145341,86.7115139 C54.9872325,95.5240193 95.6565718,68.7806683 95.1220595,45.9147808 C94.5875473,23.0488934 55.7652601,0.642970037 31.1815821,19.5727473 Z" id="Path-244" stroke="#372400" stroke-width="1.46836811" fill="#FFCF30"></path>
                    <g id="Group-3" transform="translate(28.083264, 75.187306) rotate(-15.000000) translate(-28.083264, -75.187306) translate(24.257509, 69.090823)">
                        <path d="M6.29126527,3.63600893 C4.13579543,0.811051679 2.55736715,0.136336705 1.55598043,1.61186401 C0.0539003435,3.82515497 1.55598043,10.9522906 3.92362285,11.6795148 C5.50205113,12.1643309 6.62851694,11.1497177 7.30302027,8.63567512 L6.29126527,3.63600893 Z" id="Path-127" fill="#FFE1D6"></path>
                        <path d="M6.87652328,3.19091437 C6.94392675,3.27925331 6.99038951,3.38170075 7.01241704,3.49055152 C7.35755712,7.12252131 7.53301167,8.97804584 7.53878068,9.05712509 C7.81975745,12.9086348 7.25202274,9.97993877 7.07680095,10.3486776 C6.23538744,12.1193584 4.91119776,12.4991986 3.20126046,11.9739894 C1.76037479,11.5314196 0.984098674,9.41144949 0.402786876,6.82843941 C-0.155666754,4.34699768 0.0942050392,2.45628867 0.946899437,1.19985713 C1.64258737,0.17477209 2.66252138,-0.141830353 3.7804229,0.336027844 C4.713391,0.734834404 5.72836652,1.68614092 6.87652328,3.19091437 Z M3.20126046,1.68648168 C2.7407337,1.4896249 1.75653654,1.46832376 1.31769242,2.31735358 C0.20417994,4.47166133 1.91284108,10.9469065 3.70728094,11.4980709 C4.77005581,11.8245034 6.62638133,11.0919063 7.20198652,9.05712509 L6.11755915,3.49055152 C5.15471856,2.24945577 3.82479348,1.95301711 3.20126046,1.68648168 Z" id="Path-127" fill="#372400" fill-rule="nonzero"></path>
                        <path d="M2.57307452,6.33905314 C2.1171265,4.81818418 2.1171265,3.85880816 2.57307452,3.46092505 C3.02902254,3.06304195 3.93394942,3.23273341 5.28785515,3.96999943 C4.6870861,3.97252901 4.14596322,4.18387416 3.6644865,4.60403488 C3.18300979,5.0241956 2.8192058,5.60253502 2.57307452,6.33905314 Z" id="Path-128" fill="#E5AA94"></path>
                    </g>
                    <g id="Group-3-Copy" transform="translate(84.859627, 39.375681) scale(-1, 1) rotate(52.000000) translate(-84.859627, -39.375681) translate(81.033872, 33.279197)">
                        <path d="M6.29126527,3.63600893 C4.13579543,0.811051679 2.55736715,0.136336705 1.55598043,1.61186401 C0.0539003435,3.82515497 1.55598043,10.9522906 3.92362285,11.6795148 C5.50205113,12.1643309 6.62851694,11.1497177 7.30302027,8.63567512 L6.29126527,3.63600893 Z" id="Path-127" fill="#FFE1D6"></path>
                        <path d="M6.87652328,3.19091437 C6.94392675,3.27925331 6.99038951,3.38170075 7.01241704,3.49055152 C7.35755712,7.12252131 7.53301167,8.97804584 7.53878068,9.05712509 C7.81975745,12.9086348 7.25202274,9.97993877 7.07680095,10.3486776 C6.23538744,12.1193584 4.91119776,12.4991986 3.20126046,11.9739894 C1.76037479,11.5314196 0.984098674,9.41144949 0.402786876,6.82843941 C-0.155666754,4.34699768 0.0942050392,2.45628867 0.946899437,1.19985713 C1.64258737,0.17477209 2.66252138,-0.141830353 3.7804229,0.336027844 C4.713391,0.734834404 5.72836652,1.68614092 6.87652328,3.19091437 Z M3.20126046,1.68648168 C2.7407337,1.4896249 1.75653654,1.46832376 1.31769242,2.31735358 C0.20417994,4.47166133 1.91284108,10.9469065 3.70728094,11.4980709 C4.77005581,11.8245034 6.62638133,11.0919063 7.20198652,9.05712509 L6.11755915,3.49055152 C5.15471856,2.24945577 3.82479348,1.95301711 3.20126046,1.68648168 Z" id="Path-127" fill="#372400" fill-rule="nonzero"></path>
                        <path d="M2.57307452,6.33905314 C2.1171265,4.81818418 2.1171265,3.85880816 2.57307452,3.46092505 C3.02902254,3.06304195 3.93394942,3.23273341 5.28785515,3.96999943 C4.6870861,3.97252901 4.14596322,4.18387416 3.6644865,4.60403488 C3.18300979,5.0241956 2.8192058,5.60253502 2.57307452,6.33905314 Z" id="Path-128" fill="#E5AA94"></path>
                    </g>
                    <ellipse id="Oval-7" fill="#000000" cx="22.8073908" cy="35.2567742" rx="1.61858903" ry="1.61593548"></ellipse>
                    <ellipse id="Oval-7-Copy" fill="#000000" cx="50.7648376" cy="17.6283871" rx="1.61858903" ry="1.61593548"></ellipse>
                    <path d="M41.5839374,43.4608311 C28.4762742,54.7939395 27.1758961,69.7577891 34.2231071,78.7200615 C41.2703181,87.6823339 62.7839688,85.6707248 74.2286473,76.358996 C85.6733257,67.0472672 93.3723938,51.4445286 83.0588811,42.4623842 C72.7453684,33.4802398 54.6916006,32.1277226 41.5839374,43.4608311 Z" id="Path-245" stroke="#372400" stroke-width="1.46836811" fill="#FFE1D6"></path>
                    <path d="M33.8825781,51.4991566 C29.8394312,45.82992 29.2502093,40.5589726 32.1149125,35.6863145 C36.4119672,28.3773274 45.8708368,25.494838 53.4197505,25.494838 C58.4523596,25.494838 62.1104722,28.6045895 64.3940882,34.8240924 C58.7461809,34.1864683 52.8747182,35.6026276 46.7797001,39.0725703 C40.6846821,42.5425129 36.3856414,46.6847084 33.8825781,51.4991566 Z" id="Path-256" fill="#B97C17"></path>
                    <path d="M33.8918454,52.3284636 C30.8494441,47.9064213 29.7840135,43.8056217 30.6955538,40.0260647 C32.0628641,34.3567293 34.6512397,32.263681 39.4281203,29.3731782 C44.2050008,26.4826753 47.9543314,24.1165269 54.7044934,25.6632944 C59.2046014,26.6944728 62.5600756,29.8668277 64.7709159,35.1803592" id="Path-246" stroke="#372400" stroke-width="1.46836811" stroke-linecap="round" stroke-linejoin="round"></path>
                    <path d="M36.94815,39.4132818 C40.8952526,41.3855598 44.1684825,41.6465339 46.7678396,40.1962043 C49.3671967,38.7458746 50.6668753,36.1394051 50.6668753,32.3767958 C51.9989004,31.3031262 53.0507083,31.7613874 53.8222989,33.7515793 C54.9796847,36.7368673 52.2321011,41.2937936 48.840958,43.7237956 C45.4498149,46.1537976 37.3057777,44.9262219 36.4443087,42.671287 C35.869996,41.1679971 36.0379431,40.0819954 36.94815,39.4132818 Z" id="Path-247" stroke="#372400" stroke-width="1.02785768" fill="#FFEC60" stroke-linecap="round" stroke-linejoin="round"></path>
                    <path d="M63.5072146,50.8797759 C66.5873803,51.6022532 67.0111614,47.4803737 69.7550399,45.3398146 C72.4989183,43.1992555 75.1143943,43.7910858 75.5990991,41.4466345 C76.0838038,39.1021832 71.0943397,37.2818011 67.3056709,40.2374239 C63.5170021,43.1930467 60.427049,50.1572987 63.5072146,50.8797759 Z" id="Path-248" stroke="#372400" stroke-width="1.17469449" fill="#FFFFFF"></path>
                    <path d="M67.2502438,40.4223487 C66.827807,41.0716804 66.8684752,42.6804076 68.2923307,42.6804076 C69.7161862,42.6804076 70.7263177,40.8500755 70.1296275,39.8562812 C69.5329373,38.8624868 67.6726806,39.7730171 67.2502438,40.4223487 Z" id="Path-249" fill="#000000"></path>
                    <path d="M50.2481905,59.8543106 C49.1807199,63.2362908 46.4599057,59.8543106 44.1031835,62.0200066 C41.7464613,64.1857025 40.1443433,69.5685817 36.1721347,68.2604792 C32.1999262,66.9523767 38.3905981,57.8651956 41.7249293,56.1260612 C45.0592605,54.3869268 51.315661,56.4723304 50.2481905,59.8543106 Z" id="Path-250" stroke="#372400" stroke-width="1.17469449" fill="#FFFFFF"></path>
                    <path d="M40.9864032,57.0992182 C39.5407728,58.0333315 39.4258281,59.6381892 40.4407032,59.7225893 C41.4555782,59.8069895 43.5080618,59.3921854 43.7949273,57.8168989 C44.0817928,56.2416123 42.4320336,56.1651048 40.9864032,57.0992182 Z" id="Path-251" fill="#000000"></path>
                    <path d="M57.0180664,61.9092906 C57.1725882,60.3404008 57.4890818,59.396873 57.967547,59.0787071 C58.4460122,58.7605412 59.2859585,58.9350691 60.4873859,59.6022908" id="Path-252" stroke="#372400" stroke-width="0.881020865" stroke-linecap="round" stroke-linejoin="round"></path>
                    <path d="M69.5201664,59.6428455 C67.4134754,60.5887912 66.9755584,64.3679582 61.9137535,66.346564 C56.8519486,68.3251699 53.9176407,66.8750935 51.5632591,68.5704762 C49.2088774,70.2658589 48.6045669,74.4566862 53.1247006,76.0539653 C57.6448342,77.6512443 62.7160935,76.375594 67.7308496,73.5277066 C72.7456056,70.6798192 74.3455094,67.4903374 74.3455094,64.0026365 C74.3455094,60.5149356 71.6268574,58.6968998 69.5201664,59.6428455 Z" id="Path-253" stroke="#372400" stroke-width="0.734184054" fill="#FFFFFF"></path>
                    <polygon id="Path-254" fill="#9D9D9D" points="56.5701851 71.795894 61.4444583 70.8222359 61.4444583 69.9213498 61.8911182 70.5593647 64.1358556 69.6094415 63.890458 68.5874698 64.634972 69.4079472 68.5359163 66.9079984 68.2959652 66.0790624 69.2053888 66.3322141 71.0259001 64.8655654 69.4097859 66.6420078 69.8084435 67.6908655 68.9578731 67.2706578 65.0079097 69.9213498 65.0079097 70.2713215 64.44873 69.9213498 62.0785704 70.8222359 61.8911182 71.795894 61.4444583 71.1078097"></polygon>
                    <path d="M74.6022396,60.3772258 C75.3065358,60.8571701 75.7366826,61.233692 75.8926801,61.5067916 C76.0486775,61.7798912 76.0486775,62.1564132 75.8926801,62.6363575" id="Path-255" stroke="#372400" stroke-width="0.587347243" stroke-linecap="round" stroke-linejoin="round"></path>
                    <path d="M76.5116935,59.8677945 C76.5116935,59.6221406 77.1301285,60.0688197 77.3641247,60.4784691 C77.5201221,60.7515687 77.5201221,61.1280906 77.3641247,61.6080349" id="Path-255-Copy" stroke="#372400" stroke-width="0.587347243" stroke-linecap="round" stroke-linejoin="round"></path>
                    <polygon id="Path-257" fill="#FFFFFF" points="49.8730122 35.1093422 50.6902076 38.2083972 48.5701791 40.3169738 51.3106654 38.9695586 53.0119668 40.7411389 52.3391503 38.2083972 54.0511517 36.6755343 51.9861926 37.2230464"></polygon>
                    <path d="M9.56348866,52.8851613 C8.09257554,54.9010157 7.31153824,56.5170284 7.22037676,57.7331994 C7.12921528,58.9493703 7.64327681,60.8950392 8.76256137,63.570206" id="Path-258" stroke="#372400" stroke-width="1.46836811" stroke-linecap="round"></path>
                    <path d="M6.68477409,50.9786914 L5.25283753,50.8421255 C4.04729188,52.285099 3.39893832,53.6146712 3.30777683,54.8308422 C3.21661535,56.0470131 3.80327221,57.6130534 5.06774742,59.528963" id="Path-258-Copy" stroke="#372400" stroke-width="1.46836811" stroke-linecap="round" transform="translate(4.991678, 55.185544) rotate(25.000000) translate(-4.991678, -55.185544) "></path>
                    <path d="M4.20307796,46.3705909 C2.55969348,47.7645999 1.69242049,49.0696899 1.60125901,50.2858609 C1.51009753,51.5020319 1.74909204,52.7035594 2.31824254,53.8904436" id="Path-258-Copy-2" stroke="#372400" stroke-width="1.46836811" stroke-linecap="round" transform="translate(2.892729, 50.130517) rotate(25.000000) translate(-2.892729, -50.130517) "></path>
                    <path d="M41.6503814,72.9650566 C38.5682634,70.9274784 31.5612905,75.1237086 29.8865291,77.5052737 C28.2117677,79.8868389 28.593483,85.7133361 33.4743991,84.5915693 C38.3553152,83.4698025 44.7324995,75.0026349 41.6503814,72.9650566 Z" id="Path-300" fill="#EB6262"></path>
                    <path d="M88.2951743,42.2622824 C85.2130562,40.2247042 78.2060833,44.4209344 76.5313219,46.8024995 C74.8565605,49.1840647 75.2382759,55.0105619 80.1191919,53.8887951 C85.000108,52.7670283 91.3772923,44.2998607 88.2951743,42.2622824 Z" id="Path-300-Copy" fill="#EB6262"></path>
                </g>
            </g>
        </g>
    </g>
</svg>