<?xml version="1.0" encoding="UTF-8"?>
<svg width="152px" height="212px" viewBox="0 0 152 212" version="1.1" xmlns="http://www.w3.org/2000/svg" xmlns:xlink="http://www.w3.org/1999/xlink">
    <!-- Generator: Sketch 51 (57462) - http://www.bohemiancoding.com/sketch -->
    <title>男/双鱼座</title>
    <desc>Created with Sketch.</desc>
    <defs>
        <filter x="-7.5%" y="-3.8%" width="115.0%" height="110.5%" filterUnits="objectBoundingBox" id="filter-1">
            <feOffset dx="0" dy="3" in="SourceAlpha" result="shadowOffsetOuter1"></feOffset>
            <feGaussianBlur stdDeviation="3" in="shadowOffsetOuter1" result="shadowBlurOuter1"></feGaussianBlur>
            <feColorMatrix values="0 0 0 0 0.57254902   0 0 0 0 0.384313725   0 0 0 0 0.984313725  0 0 0 0.2 0" type="matrix" in="shadowBlurOuter1" result="shadowMatrixOuter1"></feColorMatrix>
            <feMerge>
                <feMergeNode in="shadowMatrixOuter1"></feMergeNode>
                <feMergeNode in="SourceGraphic"></feMergeNode>
            </feMerge>
        </filter>
        <rect id="path-2" x="5" y="5" width="130" height="190" rx="4"></rect>
    </defs>
    <g id="星座配对" stroke="none" stroke-width="1" fill="none" fill-rule="evenodd">
        <g id="男/双鱼座" filter="url(#filter-1)" transform="translate(6.000000, 3.000000)">
            <rect id="Rectangle-2-Copy-3" fill="#FFFFFF" fill-rule="nonzero" x="0" y="0" width="140" height="200" rx="4"></rect>
            <mask id="mask-3" fill="white">
                <use xlink:href="#path-2"></use>
            </mask>
            <rect stroke="#6AA7FF" x="4.5" y="4.5" width="131" height="191" rx="4"></rect>
            <g id="双鱼座" mask="url(#mask-3)">
                <g transform="translate(7.000000, 41.000000)" id="双鱼座-copy">
                    <g>
                        <path d="M113.39933,26.0496826 C116.843524,26.8802326 119.315976,27.693785 120.816684,28.4903397 C122.317393,29.2868944 124.564285,30.9783022 127.55736,33.5645631 C124.138201,32.8817864 121.575431,32.4404771 119.869053,32.2406352 C118.162674,32.0407933 116.957259,32.0407933 116.25281,32.2406352 C122.413462,48.2057655 123.249608,59.4140214 118.761248,65.8654029 C112.028707,75.5424752 95.1064352,78.8646172 82.5268506,77.1963109 C69.947266,75.5280046 64.5197219,71.6089225 48.3457738,61.1305566 C32.1718258,50.6521908 35.9132799,36.865331 32.2444982,32.2406352 C28.5757166,27.6159393 25.3367325,26.2754232 20.0537038,25.0315513 C16.5316847,24.2023034 11.8304518,24.5416804 5.9500053,26.0496826 C11.4253256,19.1167253 16.850983,15.0168119 22.2269773,13.7499423 C30.2909689,11.8496378 46.0970002,21.145505 51.7390441,16.0491328 C55.5004067,12.6515513 52.1057252,9.96058867 41.5549996,7.97624486 C59.4553411,1.32588283 76.4901365,0.43159442 92.6593857,5.29337964 C108.828635,10.1551649 115.74195,17.0739325 113.39933,26.0496826 Z" id="Path-168" stroke="#372400" stroke-width="1.47349134" fill="#7A472B"></path>
                        <path d="M88.9002181,74.8362063 C102.704217,89.4297159 108.778333,97.7498404 107.122565,99.7965798 C104.638912,102.866689 91.8350905,93.0877095 87.116059,92.984469 C83.970038,92.9156421 81.441408,94.9851285 79.530169,99.1929282 L77.9467291,106.847257 L53.8807687,104.829029 L54.8335051,84.5029547 C55.8144642,81.4129858 55.4968854,79.2226258 53.8807687,77.9318746 C51.4565937,75.9957479 36.2502579,75.1656731 39.2207405,72.2621257 C40.6936835,70.8223732 47.660096,68.859174 56.5704566,68.2566248 C58.6166673,68.118253 61.5356465,68.2743814 65.3273943,68.72501 L88.9002181,74.8362063 Z" id="Path-163" stroke="#372400" stroke-width="1.47349134" fill="#FFE1D6" stroke-linecap="round" stroke-linejoin="round"></path>
                        <path d="M54.500635,84.7222852 C55.6721426,91.1064667 58.2950194,95.4760747 62.3692655,97.8311093 C66.4435117,100.186144 72.4819907,100.823055 80.4847025,99.7418436 C80.4847025,112.969043 72.0302726,120.431514 55.1214127,122.129258 C38.2125529,123.827002 25.8232187,116.36453 17.9534104,99.7418436 C11.8621489,96.5468669 8.00112301,94.08532 6.37033278,92.3572028 C4.73954255,90.6290856 2.6242329,87.3174307 0.02440382,82.4222382 C7.48940966,85.440819 14.4298429,85.440819 20.8457037,82.4222382 C27.2615644,79.4036574 31.196414,74.2869753 32.6502524,67.0721918 C36.3407739,72.541953 36.6816022,78.2476865 33.6727373,84.1893922 C30.3555391,90.7399743 22.6829526,97.4325666 24.5282154,98.5203577 C30.6448551,101.399296 38.3952664,90.0405758 45.7331248,86.231407 C50.6250304,83.6919611 53.5475338,83.1889205 54.500635,84.7222852 Z" id="Path-165" stroke="#372400" stroke-width="1.47349134" fill="#A6CAFF" stroke-linecap="round" stroke-linejoin="round"></path>
                        <path d="M70.0951841,88.7299362 C72.973706,84.5829201 67.3744289,76.0176696 62.5769694,76.0176696 C57.77951,76.0176696 53.7220106,79.1530444 54.794376,84.3897945 C55.8667414,89.6265445 67.2166622,92.8769522 70.0951841,88.7299362 Z" id="Path-167" stroke="#372400" stroke-width="1.47349134" fill="#A6CAFF"></path>
                        <path d="M67.9856548,91.1281285 C67.2403432,88.2059695 72.1883928,81.3347806 79.8200761,81.9054084 C87.4517593,82.4760363 88.0092229,91.945672 83.0960548,94.0502876 C78.1828867,96.1549031 68.7309663,94.0502876 67.9856548,91.1281285 Z" id="Path-166" stroke="#372400" stroke-width="1.47349134" fill="#A6CAFF"></path>
                        <path d="M103.674637,42.7548947 C105.459774,46.329758 106.152446,48.9428425 105.752653,50.5941483 C105.35286,52.245454 104.003266,55.2052986 101.703873,59.4736819 C96.4341254,62.2792904 92.3884027,64.717566 89.5667045,66.7885086 C86.7450064,68.8594512 84.019712,71.741894 81.3908213,75.4358369 C84.156582,75.3323034 86.5370691,75.0819979 88.5322828,74.6849204 C90.5274964,74.287843 93.6032429,73.3644991 97.7595224,71.9148889 C95.9565848,73.2732401 94.5352761,74.1965839 93.4955962,74.6849204 C92.4559162,75.1732569 90.8014784,75.6945878 88.5322828,76.248913 C92.67929,77.008199 96.4164267,77.008199 99.7436929,76.248913 C103.070959,75.4896269 109.119669,66.0366055 117.889821,47.8898487 L103.674637,42.7548947 Z" id="Path-169" fill="#7A472B"></path>
                        <path d="M57.7126662,29.8888953 C49.9056181,39.0667095 46.9758556,47.6354927 48.9233788,55.595245 C51.8446635,67.5348735 64.2512318,72.1972018 72.5845188,74.7372166 C80.9178059,77.2772314 95.7728585,78.6264624 104.301506,70.7298645 C109.987271,65.4654658 111.984872,54.7038582 110.294311,38.4450416 L57.7126662,29.8888953 Z" id="Path-170" stroke="#372400" stroke-width="1.47349134" fill="#FFE1D6"></path>
                        <path d="M110.400564,41.048582 C103.86877,43.0990901 97.9595148,43.8431308 92.6727991,43.2807041 C84.7427256,42.4370639 81.2715966,37.0619359 70.1644469,35.7582865 C62.7596805,34.8891869 53.9902544,35.4867854 43.8561687,37.551082 L50.102303,25.111847 L93.5716296,20.4181052 L113.590949,31.0211822 L110.400564,41.048582 Z" id="Path-171" fill="#7A472B"></path>
                        <path d="M71.7475115,44.3324838 C72.3294891,44.2112063 68.9183102,40.3895698 67.0205374,39.1483518 C65.7553555,38.320873 64.1796974,37.9878324 62.2935632,38.1492299 C64.3911646,38.5526211 65.8369137,39.0139365 66.6308106,39.5331763 C67.821656,40.312036 71.1655339,44.4537614 71.7475115,44.3324838 Z" id="Path-172" fill="#372400"></path>
                        <path d="M85.5119548,49.0494287 C85.1870355,48.4106069 89.1758834,47.4809248 91.2503817,47.8063572 C92.6333806,48.0233121 94.4398217,49.1523467 96.6697049,51.1934611 C93.8852736,49.6466799 92.0225316,48.7994765 91.0814788,48.651851 C89.6698997,48.4304126 85.8368741,49.6882504 85.5119548,49.0494287 Z" id="Path-173" fill="#372400"></path>
                        <path d="M90.9793338,52.0161936 C87.3277424,51.5035636 84.4193614,54.1821774 84.4193614,57.5964713 C84.4193614,61.0107652 87.1314171,65.3019558 90.9793338,62.3549289 C94.8272504,59.4079021 94.6309251,52.5288237 90.9793338,52.0161936 Z" id="Path-174" fill="#372400"></path>
                        <path d="M91.6338241,53.768241 C90.7827576,53.2410977 89.9902819,54.3298816 90.2295331,55.2075715 C90.4687844,56.0852614 91.5713834,57.2410645 92.3017832,56.7866305 C93.0321831,56.3321966 92.4848905,54.2953844 91.6338241,53.768241 Z" id="Path-175" fill="#FFFFFF"></path>
                        <path d="M89.1782328,54.2701128 C88.9059054,54.1014356 88.6523261,54.4498287 88.7288826,54.7306751 C88.8054391,55.0115216 89.1582528,55.3813597 89.3919689,55.2359483 C89.6256849,55.0905368 89.4505602,54.4387901 89.1782328,54.2701128 Z" id="Path-175-Copy" fill="#FFFFFF"></path>
                        <path d="M86.4058102,57.7267646 C85.9470167,57.4425918 85.5198083,58.0295342 85.648784,58.50268 C85.7777598,58.9758257 86.3721497,59.5988969 86.7658942,59.3539203 C87.1596387,59.1089438 86.8646038,58.0109374 86.4058102,57.7267646 Z" id="Path-175-Copy-2" fill="#FFFFFF"></path>
                        <path d="M65.1142776,41.6955226 C68.0734975,42.4670328 68.0449309,48.6014954 65.7155813,50.5673369 C63.3862317,52.5331785 58.4401492,50.508221 58.4401492,47.1149037 C58.4401492,43.7215865 62.1550576,40.9240123 65.1142776,41.6955226 Z" id="Path-176" fill="#372400"></path>
                        <path d="M65.0631299,43.2019317 C64.2464058,43.2019317 63.764703,44.0898423 64.113199,44.8222454 C64.461695,45.5546486 65.3773106,46.2531985 65.9850146,45.708352 C66.5927185,45.1635056 65.879854,43.2019317 65.0631299,43.2019317 Z" id="Path-177" fill="#FFFFFF"></path>
                        <path d="M62.5866648,43.9467926 C62.3153275,43.9467926 62.1552932,44.2417799 62.2710727,44.4851035 C62.3868523,44.7284272 62.6910439,44.9605039 62.8929392,44.7794915 C63.0948345,44.5984792 62.8580021,43.9467926 62.5866648,43.9467926 Z" id="Path-177-Copy" fill="#FFFFFF"></path>
                        <path d="M60.2921826,47.2241805 C59.7495081,47.2241805 59.4294394,47.8141551 59.6609985,48.3008024 C59.8925576,48.7874497 60.5009409,49.2516031 60.9047314,48.8895784 C61.308522,48.5275536 60.8348572,47.2241805 60.2921826,47.2241805 Z" id="Path-177-Copy-2" fill="#FFFFFF"></path>
                        <path d="M61.600897,42.6793195 L62.502316,42.3574645 C61.746547,42.2050498 61.1113883,42.0147745 60.5968397,41.7866387 C60.0822911,41.5585028 59.5977974,41.0867767 59.1433585,40.3714603 C59.3178297,40.8824376 59.5691268,41.3083747 59.8972496,41.6492718 C60.2253725,41.9901689 60.793255,42.3335181 61.600897,42.6793195 Z" id="Path-178" fill="#372400"></path>
                        <path d="M60.8652831,43.2752082 L61.7667021,42.9533532 C61.0109331,42.8009385 60.3757743,42.6106632 59.8612258,42.3825274 C59.3466772,42.1543915 58.8621834,41.6826654 58.4077446,40.967349 C58.5822158,41.4783263 58.8335129,41.9042634 59.1616357,42.2451605 C59.4897586,42.5860576 60.057641,42.9294069 60.8652831,43.2752082 Z" id="Path-178-Copy" fill="#372400" transform="translate(60.087223, 42.121279) rotate(-7.000000) translate(-60.087223, -42.121279) "></path>
                        <path d="M60.4239147,43.8710969 L61.3253337,43.549242 C60.5695648,43.3968272 59.934406,43.2065519 59.4198574,42.9784161 C58.9053088,42.7502802 58.4208151,42.2785541 57.9663762,41.5632378 C58.1408475,42.074215 58.3921445,42.5001522 58.7202674,42.8410492 C59.0483902,43.1819463 59.6162727,43.5252956 60.4239147,43.8710969 Z" id="Path-178-Copy-2" fill="#372400" transform="translate(59.645855, 42.717167) rotate(-10.000000) translate(-59.645855, -42.717167) "></path>
                        <path d="M93.1287212,54.1062941 C93.6538005,54.2390748 94.0983532,54.3054652 94.4623792,54.3054652 C94.8264052,54.3054652 95.7279452,54.1299623 97.1669992,53.7789564 C96.3879525,54.2596364 95.7442009,54.5664656 95.2357445,54.6994442 C94.727288,54.8324227 94.0720248,54.8653297 93.269955,54.7981651 L93.1287212,54.1062941 Z" id="Path-179" fill="#372400"></path>
                        <path d="M93.1883382,55.0492112 C93.7134175,55.1819919 94.1579702,55.2483823 94.5219962,55.2483823 C94.8860223,55.2483823 95.7875623,55.0728794 97.2266163,54.7218735 C96.4475696,55.2025535 95.803818,55.5093828 95.2953615,55.6423613 C94.786905,55.7753398 94.1316419,55.8082468 93.329572,55.7410822 L93.1883382,55.0492112 Z" id="Path-179-Copy" fill="#372400" transform="translate(95.207477, 55.248382) rotate(10.000000) translate(-95.207477, -55.248382) "></path>
                        <path d="M93.1883382,55.9430443 C93.7134175,56.075825 94.1579702,56.1422154 94.5219962,56.1422154 C94.8860223,56.1422154 95.7875623,55.9667124 97.2266163,55.6157066 C96.4475696,56.0963866 95.803818,56.4032158 95.2953615,56.5361944 C94.786905,56.6691729 94.1316419,56.7020799 93.329572,56.6349153 L93.1883382,55.9430443 Z" id="Path-179-Copy-2" fill="#372400" transform="translate(95.207477, 56.142215) rotate(15.000000) translate(-95.207477, -56.142215) "></path>
                        <path d="M71.6253032,55.4970888 C72.6295214,54.8032865 73.3771757,54.54247 73.8682661,54.7146395 C74.3593564,54.8868089 74.8059821,55.5364789 75.2081429,56.6636496 C74.8392109,55.8577008 74.3925853,55.3693681 73.8682661,55.1986515 C73.3439469,55.0279349 72.5962926,55.127414 71.6253032,55.4970888 Z" id="Path-180" fill="#372400"></path>
                        <path d="M67.4705155,58.181372 C68.9385179,59.8736101 70.1807658,60.9789232 71.197259,61.4973113 C72.2137523,62.0156994 73.9130831,62.4105234 76.2952515,62.6817835 C73.0855679,66.8525843 70.3157516,68.4430258 67.9858026,67.4531079 C65.6558535,66.46319 65.4840912,63.3726113 67.4705155,58.181372 Z" id="Path-181" fill="#FFC1A8"></path>
                        <path d="M68.1565737,67.0409989 C70.135632,67.881835 73.1473728,66.3204941 76.032807,62.7604064 C74.010673,62.4889942 71.9526288,62.3829311 70.9987242,61.8964618 C70.0401414,61.4076067 68.8213272,60.0948753 67.5283267,58.6706808 C65.8911025,63.2386378 66.2247595,66.2202352 68.1565737,67.0409989 Z M67.8021202,57.8864301 C69.2360211,59.5393576 70.4402838,60.6108727 71.3957939,61.0981608 C72.3548251,61.5872446 74.0101385,61.9718416 76.3445757,62.2376665 L76.3445757,62.2376665 C76.588929,62.2654912 76.7644601,62.4861352 76.7366353,62.7304885 C76.7274681,62.8109937 76.6965092,62.8874721 76.6470938,62.9516846 L76.6434007,62.9564835 C73.3248148,67.2687967 70.098036,69.0316948 67.5283267,67.9399107 C64.8948388,66.8210292 64.9961637,63.4107324 67.0589597,58.0199064 L67.0599541,58.0173077 C67.1466655,57.7906997 67.400661,57.6772911 67.6272689,57.7640025 C67.694731,57.7898169 67.7547874,57.8318671 67.8021202,57.8864301 Z" id="Path-181" fill="#372400" fill-rule="nonzero"></path>
                        <path d="M110.953061,39.276483 C110.854905,41.894686 106.319717,43.2037876 97.3474969,43.2037876 C83.8891668,43.2037876 77.4321723,35.3491785 66.8830534,35.3491785 C59.8503074,35.3491785 52.5192422,35.9538014 44.8898576,37.1630473" id="Path-182" stroke="#372400" stroke-width="1.47349134" stroke-linecap="round" stroke-linejoin="round"></path>
                        <path d="M62.085955,3.50399025 C58.3251275,10.6869214 56.6454212,14.8569908 57.0468361,16.0141986 C57.448251,17.1714064 60.4410333,16.7867015 66.025183,14.860084 C62.8871423,21.5037898 61.8371735,25.4561213 62.8752767,26.7170785 C64.4324316,28.6085143 71.7144745,24.2037334 74.2717546,24.8769812 C76.8290346,25.5502291 70.0783736,28.3316335 75.252793,29.9756722 C80.4272124,31.6197109 84.6655218,27.2669709 90.3192876,29.9756722 C95.9730533,32.6843735 93.2114728,39.4041299 96.3475565,40.0821068 C99.4836401,40.7600837 99.9388069,32.7373283 104.407529,33.0213504 C108.876251,33.3053726 111.199604,40.8152386 113.186047,41.1523243 C115.172491,41.48941 113.024666,34.9704746 114.374573,34.7126889 C115.274511,34.5408317 116.746417,36.3306377 118.79029,40.0821068 L116.119574,33.6278849 C114.550789,31.0022745 113.313761,29.7848702 112.40849,29.9756722 C111.050583,30.2618752 113.496616,36.0242886 110.972656,34.7126889 C108.448696,33.4010891 108.435287,25.6724487 104.798183,26.020904 C101.161078,26.3693593 101.104505,37.1046983 97.412236,36.0118542 C93.719967,34.9190102 95.891107,23.8081271 91.7378258,22.1552772 C87.5845445,20.5024274 79.8900397,28.5496595 77.8285577,28.2182864 C75.7670758,27.8869133 84.8814745,22.4102827 82.2324149,20.6273291 C79.5833554,18.8443756 69.6440045,24.4267154 67.7759616,21.4523713 C65.9079187,18.4780271 76.2852922,12.2924744 75.7435566,10.2956084 C75.201821,8.29874237 67.2811745,12.212172 64.7492109,10.2956084 C63.0612352,9.01789927 63.4865592,6.56579956 66.025183,2.93930925 L62.085955,3.50399025 Z" id="Path-183" fill-opacity="0.250905797" fill="#FFFFFF"></path>
                        <ellipse id="Oval-5" stroke="#372400" stroke-width="1.17879307" fill="#FFFFFF" cx="70.7660583" cy="4.61813753" rx="4.56080625" ry="4.61813753"></ellipse>
                        <ellipse id="Oval-5-Copy" stroke="#372400" stroke-width="1.17879307" fill="#FFFFFF" cx="71.648795" cy="15.7910509" rx="4.56080625" ry="4.61813753"></ellipse>
                        <ellipse id="Oval-5-Copy-2" stroke="#372400" stroke-width="1.17879307" fill="#FFFFFF" cx="76.7980923" cy="25.027326" rx="4.56080625" ry="4.61813753"></ellipse>
                        <ellipse id="Oval-5-Copy-3" stroke="#372400" stroke-width="1.17879307" fill="#FFFFFF" cx="84.5955998" cy="33.5187401" rx="4.56080625" ry="4.61813753"></ellipse>
                        <ellipse id="Oval-5-Copy-4" stroke="#372400" stroke-width="1.17879307" fill="#FFFFFF" cx="96.6596679" cy="37.9879055" rx="4.56080625" ry="4.61813753"></ellipse>
                        <ellipse id="Oval-5-Copy-5" stroke="#372400" stroke-width="1.17879307" fill="#FFFFFF" cx="107.399631" cy="41.8611821" rx="4.56080625" ry="4.61813753"></ellipse>
                        <ellipse id="Oval-5-Copy-6" stroke="#372400" stroke-width="1.17879307" fill="#FFFFFF" cx="118.139594" cy="44.3937091" rx="4.56080625" ry="4.61813753"></ellipse>
                        <ellipse id="Oval-5-Copy-7" stroke="#372400" stroke-width="1.17879307" fill="#A6CAFF" cx="70.2511285" cy="9.75767768" rx="1.98615756" ry="2.01112441"></ellipse>
                        <ellipse id="Oval-5-Copy-8" stroke="#372400" stroke-width="1.17879307" fill="#A6CAFF" cx="72.8993386" cy="20.4836745" rx="1.98615756" ry="2.01112441"></ellipse>
                        <ellipse id="Oval-5-Copy-9" stroke="#372400" stroke-width="1.17879307" fill="#A6CAFF" cx="79.6669866" cy="29.8689218" rx="1.98615756" ry="2.01112441"></ellipse>
                        <ellipse id="Oval-5-Copy-10" stroke="#372400" stroke-width="1.17879307" fill="#A6CAFF" cx="90.1127041" cy="37.3175307" rx="1.98615756" ry="2.01112441"></ellipse>
                        <ellipse id="Oval-5-Copy-11" stroke="#372400" stroke-width="1.17879307" fill="#A6CAFF" cx="101.588281" cy="40.7438908" rx="1.98615756" ry="2.01112441"></ellipse>
                        <ellipse id="Oval-5-Copy-12" stroke="#372400" stroke-width="1.17879307" fill="#A6CAFF" cx="112.916735" cy="43.42539" rx="1.98615756" ry="2.01112441"></ellipse>
                        <path d="M110.188407,58.0374309 C114.616809,54.8768914 117.212299,54.3234246 117.97488,56.3770307 C119.11875,59.4574397 115.676108,66.7629093 112.876623,66.7629093 C111.0103,66.7629093 109.772905,65.5624093 109.16444,63.1614094 C109.566918,61.9673789 109.829297,61.0644196 109.951576,60.4525315 C110.073855,59.8406435 110.152799,59.03561 110.188407,58.0374309 Z" id="Path-184" stroke="#372400" stroke-width="1.47349134" fill="#FFE1D6"></path>
                        <ellipse id="Oval-6" stroke="#372400" stroke-width="1.47349134" fill="#FFFFFF" cx="112.548928" cy="66.7395359" rx="2.94245565" ry="2.97944357"></ellipse>
                        <path d="M112.610985,59.2563842 C114.296251,57.959061 115.355263,57.5170014 115.788021,57.9302054 C116.437158,58.5500113 114.772762,61.4815391 114.772762,61.4815391 C114.772762,61.4815391 114.94137,60.2294993 114.199503,59.4658824 C114.004744,59.2654136 113.475238,59.1955809 112.610985,59.2563842 Z" id="Path-185" fill="#E5AA94"></path>
                        <path d="M59.1433585,53.8609878 C59.1433585,52.0562733 49.4959575,48.7139023 46.7290189,48.7139023 C43.9620802,48.7139023 40.7551712,51.8599143 45.2942716,53.8609878 C49.8333719,55.8620612 59.1433585,55.6657022 59.1433585,53.8609878 Z" id="Path-186" fill="#EB6262"></path>
                        <path d="M95.5912724,65.0771155 C96.9146492,62.9560452 103.980006,62.6327021 107.534727,64.1028994 C111.089449,65.5730966 112.168664,70.4604546 107.534727,70.9253057 C102.900791,71.3901567 94.2678956,67.1981858 95.5912724,65.0771155 Z" id="Path-187" fill="#EB6262"></path>
                        <path d="M45.4701079,43.0435354 C46.7506374,41.4619202 47.6739831,40.9368607 48.2401451,41.4683568 C48.806307,41.9998529 48.5775771,43.3522408 47.5539553,45.5255205 C49.3552972,46.45799 50.0820224,47.3558577 49.7341308,48.2191234 C49.3862391,49.0823891 48.3840419,49.2572763 46.7275391,48.7437847 C44.1336863,52.7930299 40.3654876,55.0842631 35.4229428,55.6174841 C30.480398,56.1507052 26.5936153,55.1941695 23.7625949,52.7478771 C23.7666644,54.0611598 23.8423292,55.0176955 23.9895893,55.6174841 C24.2104796,56.5171671 25.5237375,57.7305085 24.7726368,58.2563703 C24.0215362,58.7822321 22.827249,59.0918588 20.9266184,57.7619364 C19.0259877,56.432014 19.3654964,53.4722152 17.8241224,52.7478771 C16.2827485,52.023539 10.0281933,53.9377715 9.94002941,50.952004 C9.85186553,47.9662366 15.4024106,44.0099232 17.0416222,43.8042834 C18.13443,43.6671901 19.2530964,44.1470523 20.3976214,45.24387 C24.059085,38.3722602 28.5406104,34.7818057 33.8421976,34.4725067 C39.1437847,34.1632076 43.0197548,37.0202172 45.4701079,43.0435354 Z" id="Path-188" stroke="#372400" stroke-width="1.47349134" fill="#FFADDA"></path>
                        <path d="M42.1264169,43.8503705 C42.1264169,43.5618786 40.9705401,41.9553906 39.8479768,41.9760708 C38.7254136,41.996751 37.8664831,43.5937918 38.1036687,43.7220811 C38.3408543,43.8503705 38.6851625,42.9133454 39.8479768,42.8919236 C41.0107912,42.8705019 42.1264169,44.1388625 42.1264169,43.8503705 Z" id="Path-189" fill="#372400"></path>
                        <path d="M29.8850821,35.4215879 C29.9418846,34.4918978 29.0367287,34.1285305 27.1696143,34.331486 C24.3689428,34.6359191 21.151429,36.6998665 21.151429,37.2154911 C21.151429,37.7311157 23.6298657,36.4095383 24.4176968,36.7041731 C24.9429175,36.9005962 25.4151122,37.3233491 25.8342809,37.9724316 C26.5860391,37.3009454 27.1553833,36.8433747 27.5423134,36.5997197 C27.9292435,36.3560646 28.7101664,35.963354 29.8850821,35.4215879 Z" id="Path-190" stroke="#372400" stroke-width="1.47349134" fill="#FFADDA"></path>
                        <path d="M39.1603134,49.4560702 C39.4706628,49.4560702 39.6020815,52.8736041 38.9184079,53.3013785 C38.4626255,53.5865615 37.7687298,53.281424 36.8367206,52.385966 C35.4833559,53.5362816 34.6422895,53.8747596 34.3135213,53.4014002 C33.8203689,52.691361 35.7543348,50.6094365 36.0019333,50.6094365 C36.2495318,50.6094365 34.6549933,52.6784216 34.8913912,52.9803836 C35.0489898,53.1816916 35.7633592,52.831024 37.0344992,51.9283807 C37.7212173,53.2013633 38.3103416,53.5520309 38.8018721,52.9803836 C39.5391678,52.1229127 38.849964,49.4560702 39.1603134,49.4560702 Z" id="Path-191" fill="#372400"></path>
                        <path d="M53.7962555,85.1492853 C53.9086657,84.7371358 53.263765,84.531061 51.8615534,84.531061 C50.4593418,84.531061 48.1076608,85.5541567 44.8065103,87.600348 C43.266816,92.829518 42.8999131,96.245252 43.7058015,97.8475498 C44.9146342,100.250996 50.4602701,98.3578224 51.5226362,100.250996 C53.6655317,102.094865 53.9986563,107.02424 55.4617767,107.658167 C56.9248971,108.292095 61.7637059,104.863799 62.9199806,105.901562 C65.4636305,107.172939 62.7584422,112.774981 65.2186177,113.635088 C66.8587347,114.208492 69.9047766,113.052553 74.3567436,110.167269 L76.0363028,113.088962 C77.2308197,111.102668 78.1578853,108.927162 78.8174997,106.562443 C79.4771141,104.197724 79.7921259,102.093909 79.762535,100.250996 C70.6137377,101.633837 64.231511,100.699764 60.6158547,97.4487756 C57.0001984,94.1977874 54.7269986,90.0979573 53.7962555,85.1492853 Z" id="Path-194" fill="#FFFFFF"></path>
                        <path d="M44.9240202,87.041417 C43.4117014,92.7613379 43.0612344,96.4418084 43.8726192,98.0828286 C45.0896964,100.544359 48.1225767,97.566217 51.4242521,100.188091 C54.7259275,102.809966 53.2527345,106.290725 55.8022566,107.556203 C58.3517787,108.821682 60.5047129,104.401729 63.1590282,106.012754 C65.8133435,107.623779 62.8031189,112.397205 65.4840084,113.432499 C68.1648979,114.467793 72.2215281,110.150133 73.8727556,110.150133 C74.9735739,110.150133 75.6032813,111.244255 75.7618779,113.432499" id="Path-192" stroke="#372400" stroke-width="1.47349134" stroke-linecap="round" stroke-linejoin="round"></path>
                        <path d="M78.3210176,110.020934 C78.9462144,106.89508 78.2759716,105.273079 76.3102892,105.154931 C73.3617655,104.97771 70.7085232,110.190887 68.5061734,109.431011 C66.3038236,108.671135 70.1984326,103.768513 67.3240395,102.054408 C64.4496465,100.340304 60.3052091,104.255291 57.5108889,102.874126 C54.7165688,101.492962 57.35174,98.4759121 55.2579755,96.090447 C53.164211,93.7049819 50.5460573,96.0084596 48.7299885,92.869882 C47.5192759,90.777497 47.5192759,88.090406 48.7299885,84.8086091" id="Path-193" stroke="#372400" stroke-width="1.47349134" stroke-linecap="round" stroke-linejoin="round"></path>
                    </g>
                </g>
            </g>
            <text id="双鱼座" mask="url(#mask-3)" font-family="PingFangSC-Medium, PingFang SC" font-size="12" font-weight="400" line-spacing="14" fill="#4390FF">
                <tspan x="10.136" y="22.576">双</tspan>
                <tspan x="10.136" y="36.576">鱼</tspan>
                <tspan x="10.136" y="50.576">座</tspan>
            </text>
            <path d="M123.806452,178.19919 L123.80441,173.526571 L125.323397,175.050514 C125.482645,175.209762 125.692935,175.290394 125.901183,175.290394 C126.10739,175.290394 126.311555,175.213793 126.470803,175.060593 C126.789301,174.75016 126.793384,174.242179 126.47897,173.927714 L124.114741,171.55512 C123.979992,171.381762 123.671703,171.065281 123.17354,171.008839 C122.869335,170.972555 122.397714,171.031013 121.915885,171.508757 C121.295223,172.123575 119.506739,173.933762 119.506739,173.933762 L119.50878,173.935778 C119.367907,174.080915 119.278074,174.276447 119.278074,174.492138 C119.278074,174.933597 119.641488,175.292409 120.09065,175.292409 C120.317273,175.292409 120.521438,175.199683 120.668437,175.050514 C120.668437,175.050514 121.468763,174.240163 122.181299,173.522539 L122.185382,178.19919 C119.810944,178.584207 117.99796,180.616131 118.000002,183.067341 C118.002043,185.7927 120.241732,188.002014 123.004083,187.999999 C125.766435,187.999999 128.00204,185.788668 127.999999,183.061294 C127.997957,180.610084 126.182931,178.582191 123.806452,178.19919 Z M123,186 C121.344093,186 120,184.657844 120,183 C120,181.344093 121.342156,180 123,180 C124.655907,180 126,181.342156 126,183 C126,184.657844 124.655907,186 123,186 Z" id="男" fill="#4390FF" fill-rule="nonzero" mask="url(#mask-3)"></path>
        </g>
    </g>
</svg>