<?xml version="1.0" encoding="UTF-8"?>
<svg width="152px" height="212px" viewBox="0 0 152 212" version="1.1" xmlns="http://www.w3.org/2000/svg" xmlns:xlink="http://www.w3.org/1999/xlink">
    <!-- Generator: Sketch 51 (57462) - http://www.bohemiancoding.com/sketch -->
    <title>女/处女座</title>
    <desc>Created with Sketch.</desc>
    <defs>
        <filter x="-7.5%" y="-3.8%" width="115.0%" height="110.5%" filterUnits="objectBoundingBox" id="filter-1">
            <feOffset dx="0" dy="3" in="SourceAlpha" result="shadowOffsetOuter1"></feOffset>
            <feGaussianBlur stdDeviation="3" in="shadowOffsetOuter1" result="shadowBlurOuter1"></feGaussianBlur>
            <feColorMatrix values="0 0 0 0 0.57254902   0 0 0 0 0.384313725   0 0 0 0 0.984313725  0 0 0 0.2 0" type="matrix" in="shadowBlurOuter1" result="shadowMatrixOuter1"></feColorMatrix>
            <feMerge>
                <feMergeNode in="shadowMatrixOuter1"></feMergeNode>
                <feMergeNode in="SourceGraphic"></feMergeNode>
            </feMerge>
        </filter>
    </defs>
    <g id="星座配对" stroke="none" stroke-width="1" fill="none" fill-rule="evenodd">
        <g id="女/处女座" filter="url(#filter-1)" transform="translate(6.000000, 3.000000)">
            <rect id="Rectangle-2-Copy-3" fill="#FFFFFF" fill-rule="nonzero" x="0" y="0" width="140" height="200" rx="4"></rect>
            <rect id="Rectangle-2-Copy-5" stroke="#FFA39F" fill-opacity="0.1" fill="#FFD1CF" fill-rule="nonzero" x="4.5" y="4.5" width="131" height="191" rx="4"></rect>
            <text id="处女座" font-family="PingFangSC-Medium, PingFang SC" font-size="12" font-weight="400" line-spacing="14" fill="#FF635C">
                <tspan x="10.136" y="22.576">处</tspan>
                <tspan x="10.136" y="36.576">女</tspan>
                <tspan x="10.136" y="50.576">座</tspan>
            </text>
            <path d="M126.21968,182.822457 C126.666801,182.822457 127.030215,183.176375 127.032257,183.611813 C127.032257,184.04924 126.668843,184.403158 126.221722,184.403158 L123.818701,184.405146 L123.820743,187.208655 C123.820743,187.646082 123.457329,188 123.010208,188 C122.561045,188 122.197632,187.646082 122.197632,187.210643 L122.19559,184.407135 L119.729278,184.409123 C119.280115,184.409123 118.916702,184.055205 118.916702,183.619766 C118.916702,183.18234 119.280115,182.828421 119.727236,182.828421 L122.193548,182.826433 L122.191507,180.889825 L122.191507,180.669123 C119.817069,180.293334 118.002043,178.2931 118.000001,175.873334 C117.99796,173.183159 120.233565,171.00199 122.995917,171.000001 C125.756226,170.998013 127.997957,173.175206 127.999998,175.865381 C128.00204,178.283159 126.189056,180.287369 123.814618,180.667135 L123.814618,180.887837 L123.816659,182.824445 L126.21968,182.822457 Z M123.026541,179.024796 C124.772151,179.024796 126.189056,177.644913 126.189056,175.944913 C126.189056,174.242925 124.772151,172.86503 123.026541,172.86503 C121.27889,172.86503 119.864027,174.244913 119.864027,175.944913 C119.864027,177.646901 121.280931,179.024796 123.026541,179.024796 Z" id="女-copy" fill="#FF635C" fill-rule="nonzero"></path>
            <g id="处女座" transform="translate(22.000000, 26.000000)">
                <g id="处女座-copy">
                    <path d="M58.4308096,16.0401274 C39.4426085,8.15321929 23.8679552,13.1166832 11.7068497,30.9305192 C-0.454255806,48.7443552 -3.08224282,63.7746827 3.82288865,76.0215016 C-1.11157771,86.5978547 -1.11157771,94.0489779 3.82288865,98.3748712 C8.757355,102.700765 12.8391497,103.908644 16.0682728,101.998509 C17.638354,111.318276 20.8008865,115.320745 25.5558704,114.005917 C32.6883463,112.033675 39.0303191,97.9511986 56.9223768,93.2583285 C74.8144344,88.5654584 81.4966435,93.3866673 88.441053,87.7335756 C95.3854625,82.080484 92.6448438,76.7513318 95.3854625,74.9136132 C98.1260812,73.0758945 103.627608,63.490688 99.5065353,57.2190962 C95.3854625,50.9475044 94.4310842,51.2227369 91.4360686,46.3095261 C88.441053,41.3963154 87.2947065,29.1190868 77.5800246,23.0825251 C71.10357,19.0581506 64.7204984,16.7106847 58.4308096,16.0401274 Z" id="Path-133" stroke="#372400" stroke-width="1.48674244" fill="#7A472B"></path>
                    <path d="M44.5435513,91.9432425 C31.6249779,99.6832568 26.678546,105.298723 29.7042557,108.789641 C32.7299654,112.280559 35.5538224,111.996049 38.1758266,107.936111 L43.3394582,105.465976 C42.3541257,111.250499 42.3541257,116.317561 43.3394582,120.667164 C44.3247908,125.016766 48.431557,131.096108 55.6597568,138.905188 C57.425968,139.207222 58.688588,138.918589 59.4476166,138.039288 C60.2066452,137.159987 61.225273,132.070246 62.5035001,122.770064 L68.0284377,132.314295 C71.1597559,131.886499 72.7254149,130.879375 72.7254149,129.292922 C72.7254149,126.913243 74.4484463,114.864086 73.5869306,110.165031 C73.0125868,107.032327 71.6147048,102.678602 69.3932845,97.1038533 C76.8176145,102.297193 81.0874756,103.595528 82.2028678,100.998858 C83.3182601,98.4021883 82.2481286,96.3188735 78.9924733,94.7489139 L64.0322222,84.7400348 L44.5435513,91.9432425 Z" id="Path-134" stroke="#372400" stroke-width="1.48674244" fill="#FFE1D6" stroke-linecap="round" stroke-linejoin="round"></path>
                    <path d="M42.808518,91.1221261 C43.0444931,97.2187642 43.0444931,101.440512 42.808518,103.78737 C42.572543,106.134228 41.3150112,114.419094 39.0359226,128.641969 C39.7741276,131.616504 42.8017942,132.360137 48.1189225,130.87287 C53.4360507,129.385602 61.8488569,125.318374 73.357341,118.671183 L73.5804734,123.94255 C78.1349847,123.509154 80.8028856,121.299525 81.5841762,117.313665 C82.1661747,114.34452 75.6592013,103.78737 69.7640471,96.2525122 C68.0011596,93.9992874 66.2486932,89.9464146 64.506648,84.0938938 L62.2100724,84.966599 L63.7273923,93.4902891 C61.7826521,94.6627278 60.4553129,95.5834688 59.7453748,96.2525122 C59.0354367,96.9215555 58.1830187,98.0550105 57.1881208,99.6528771 C55.1059075,98.5945129 53.5160234,97.9592163 52.4184685,97.7469871 C51.3209135,97.5347579 49.6253255,97.5347579 47.3317044,97.7469871 L44.1844245,89.6948122 L42.808518,91.1221261 Z" id="Path-135" stroke="#372400" stroke-width="1.48674244" fill="#FFD1CF" stroke-linecap="round" stroke-linejoin="round"></path>
                    <path d="M36.5233539,31.8133309 C7.81758108,42.092211 14.3117024,80.5328869 25.2074415,89.695581 C36.1031805,98.8582751 78.1804494,84.5540063 80.850827,70.0792557 C83.5212047,55.6045052 65.2291268,21.5344508 36.5233539,31.8133309 Z" id="Path-136" stroke="#372400" stroke-width="1.48674244" fill="#FFE1D6"></path>
                    <path d="M82.0214061,62.7632868 C80.7904055,59.8512415 74.6902334,62.2617674 71.8976101,64.630222 C69.1049868,66.9986767 67.663305,72.4708607 71.8976101,71.932991 C76.1319152,71.3951212 83.2524068,65.6753321 82.0214061,62.7632868 Z" id="Path-322-Copy" fill="#EB6262" transform="translate(75.698851, 66.698177) rotate(24.000000) translate(-75.698851, -66.698177) "></path>
                    <path d="M34.7854774,75.0942138 C33.5544768,72.1821685 27.4543046,74.5926943 24.6616813,76.961149 C21.869058,79.3296036 20.4273762,84.8017877 24.6616813,84.2639179 C28.8959864,83.7260482 36.016478,78.0062591 34.7854774,75.0942138 Z" id="Path-322-Copy-2" fill="#EB6262" transform="translate(28.462923, 79.029103) rotate(24.000000) translate(-28.462923, -79.029103) "></path>
                    <path d="M17.2425921,75.857355 C13.2481915,73.7690784 11.1145339,73.9442411 10.8416192,76.3828429 C10.4322472,80.0407457 13.7232733,87.3797452 15.9038651,87.8194168 C17.3575929,88.1125312 18.6797333,86.5763586 19.8702862,83.2108989 C18.9160606,81.6354239 18.3207841,80.516282 18.0844568,79.8534732 C17.8481294,79.1906643 17.5675079,77.858625 17.2425921,75.857355 Z" id="Path-152" stroke="#372400" stroke-width="1.48674244" fill="#FFE1D6"></path>
                    <path d="M54.5305596,33.6724585 C53.2541544,40.1522581 50.9645068,45.0091128 47.6616168,48.2430227 C44.3587268,51.4769326 39.80548,53.3200599 34.0018763,53.7724047 C26.6892437,61.0031483 22.8424274,66.5301216 22.4614273,70.3533248 C21.8899271,76.0881296 25.9659686,80.6982165 25.9659686,83.6490291 C25.9659686,85.6162375 24.7977882,88.1241501 22.4614273,91.1727668 C22.388395,88.925826 21.5983998,85.9925106 20.0914415,82.3728206 C17.8310042,76.9432856 16.858433,80.2306499 13.706065,70.3533248 C10.5536969,60.4759997 11.8468289,48.4778638 21.5278554,35.8701724 C31.2088819,23.262481 54.788959,23.9159097 63.9532799,27.6604879 C73.1176009,31.4050661 78.2178625,42.6129939 78.2178625,46.2765385 C78.2178625,49.9400831 76.2924839,50.5460726 77.1993731,53.7724047 C77.803966,55.9232928 79.1553529,57.9080139 81.2535341,59.726568 C75.7861789,57.0523707 72.4514726,55.0676496 71.2494152,53.7724047 C69.446329,51.8295374 72.3685406,50.9433076 68.5127784,47.5679147 C64.6570161,44.1925219 61.161544,45.3112509 58.0366639,42.2057613 C55.9534104,40.1354349 54.784709,37.2910006 54.5305596,33.6724585 Z" id="Path-137" fill="#7A472B"></path>
                    <path d="M20.2335459,13.17763 C17.7152827,18.199232 16.6677327,21.3301881 17.0908958,22.5704981 C17.5140589,23.8108081 20.6689868,23.3984765 26.5556795,21.3335033 C23.2476232,28.454312 22.1407683,32.6904714 23.2351149,34.0419814 C24.8766346,36.0692464 32.5532106,31.348146 35.2490412,32.0697417 C37.9448719,32.7913373 30.8284676,35.7724821 36.2832312,37.5345837 C41.7379949,39.2966854 46.2059313,34.6313631 52.1660118,37.5345837 C58.1260924,40.4378044 55.2148925,47.640125 58.5208857,48.3667893 C61.8268788,49.0934536 62.306706,40.4945619 67.0175384,40.7989805 C71.7283707,41.1033991 74.1776006,49.1525693 76.2716674,49.5138621 C78.3657341,49.8751548 76.1015427,42.8880767 77.524586,42.6117786 C78.4732816,42.4275799 80.0249336,44.3459168 82.1795421,48.3667893 L79.364129,41.4490719 C77.7103494,38.6349091 76.4063006,37.3300797 75.4519825,37.5345837 C74.0205054,37.8413397 76.599062,44.017568 73.9383567,42.6117786 C71.2776513,41.2059893 71.2635166,32.9223338 67.4293576,33.2958127 C63.5951987,33.6692915 63.5355604,45.1755649 59.6432483,44.0042407 C55.7509363,42.8329164 58.0397063,30.9241301 53.6614048,29.1525846 C49.2831034,27.381039 41.1717189,36.006165 38.9985481,35.6509951 C36.8253773,35.2958252 46.433584,29.4259027 43.6410014,27.5149103 C40.8484187,25.6039179 30.3705648,31.587141 28.4013134,28.399201 C26.432062,25.211261 37.3716701,18.5815066 36.8005839,16.4412401 C36.2294977,14.3009736 27.8797193,18.4954375 25.2105767,16.4412401 C23.4311483,15.0717752 23.273884,13.4672288 24.7387838,11.627601 L20.2335459,13.17763 Z" id="Path-183" fill-opacity="0.250905797" fill="#FFFFFF" transform="translate(49.589561, 30.577501) rotate(-24.000000) translate(-49.589561, -30.577501) "></path>
                    <path d="M41.3836561,60.3679404 C41.5818359,60.0638147 41.8668708,60.0638147 42.2387608,60.3679404 C42.6106509,60.6720661 42.688286,61.0288612 42.4716663,61.4383258 C39.1597665,64.2084245 36.5367037,66.1243948 34.6024779,67.1862369 C31.7011392,68.7790001 28.3097985,69.5414685 27.3784851,69.7241088 C26.4471718,69.906749 25.0877586,69.1182042 25.6314678,68.9455451 C26.175177,68.772886 29.1765078,68.6807071 33.7292511,66.2015829 C36.7644132,64.5488334 39.3158816,62.6042859 41.3836561,60.3679404 Z" id="Path-138" fill="#372400"></path>
                    <path d="M39.9612174,60.7579601 L35.6510754,63.3503495 C35.1133252,64.0788871 35.4500884,64.0788871 36.661365,63.3503495 C37.8726415,62.6218119 38.9725923,61.7576821 39.9612174,60.7579601 Z" id="Path-139" fill="#372400"></path>
                    <path d="M33.3628849,64.4824804 C32.5939868,65.0671215 32.0183558,65.4219888 31.6359919,65.5470822 C31.253628,65.6721757 30.4501843,65.7684839 29.2256609,65.8360068 C30.2788058,66.1090095 31.2226119,66.1090095 32.0570793,65.8360068 C32.8915467,65.563004 33.3268153,65.1118285 33.3628849,64.4824804 Z" id="Path-140" fill="#372400"></path>
                    <path d="M56.4182632,56.5031378 L60.0938231,56.5031378 C60.2714509,56.9342845 60.0197974,57.1498578 59.3388627,57.1498578 C58.657928,57.1498578 57.6843948,56.9342845 56.4182632,56.5031378 Z" id="Path-141" fill="#372400"></path>
                    <path d="M55.3904689,58.1230205 C54.7850538,57.9858628 54.4823462,58.1919165 54.4823462,58.7411817 C54.4823462,59.2904469 54.7850538,59.5650795 55.3904689,59.5650795 C58.4258137,60.1751314 60.9788136,60.1751314 63.0494685,59.5650795 C65.1201235,58.9550275 67.4463623,57.3307101 70.028185,54.6921272 C69.8600981,54.2580246 69.3096985,54.4317371 68.3769862,55.2132645 C66.9779177,56.3855557 65.4026219,57.8162829 63.0494685,58.463741 C61.4806996,58.8953797 58.9276997,58.7818062 55.3904689,58.1230205 Z" id="Path-142" fill="#372400"></path>
                    <path d="M31.5729378,68.3400769 C31.6022783,69.0498374 31.5557119,69.5689533 31.4332386,69.8974246 C31.3107653,70.2258959 30.8800262,70.7207073 30.1410212,71.3818586 C30.7407293,70.7889367 31.0900981,70.2941254 31.1891276,69.8974246 C31.2881571,69.5007238 31.2881571,68.9816079 31.1891276,68.3400769 L31.5729378,68.3400769 Z" id="Path-145" fill="#372400"></path>
                    <path d="M33.3724017,67.59725 C33.4017422,68.3070104 33.3551758,68.8261263 33.2327026,69.1545977 C33.1102293,69.483069 32.6794902,69.9778804 31.9404852,70.6390317 C32.5401933,70.0461098 32.889562,69.5512985 32.9885915,69.1545977 C33.087621,68.7578969 33.087621,68.238781 32.9885915,67.59725 L33.3724017,67.59725 Z" id="Path-145-Copy" fill="#372400"></path>
                    <path d="M29.1736525,68.6372077 C29.202993,69.3469681 29.1564266,69.866084 29.0339533,70.1945554 C28.9114801,70.5230267 28.4807409,71.017838 27.7417359,71.6789894 C28.341444,71.0860675 28.6908128,70.5912561 28.7898423,70.1945554 C28.8888718,69.7978546 28.8888718,69.2787387 28.7898423,68.6372077 L29.1736525,68.6372077 Z" id="Path-145-Copy-2" fill="#372400"></path>
                    <path d="M67.0693669,56.9005423 C67.3306068,57.6356892 67.6106485,58.1563899 67.9094919,58.4626445 C68.2083354,58.7688991 68.9325553,59.170058 70.0821518,59.6661212 C69.198492,59.4980726 68.474272,59.2134347 67.9094919,58.8122074 C67.3447119,58.4109802 66.9016033,57.8850248 66.5801662,57.2343414 L67.0693669,56.9005423 Z" id="Path-143" fill="#372400"></path>
                    <path d="M64.8200369,58.0890654 C65.0812769,58.8242123 65.3613186,59.344913 65.660162,59.6511676 C65.9590054,59.9574222 66.6832254,60.358581 67.8328219,60.8546442 C66.949162,60.6865957 66.2249421,60.4019578 65.660162,60.0007305 C65.0953819,59.5995032 64.6522733,59.0735479 64.3308363,58.4228645 L64.8200369,58.0890654 Z" id="Path-143-Copy" fill="#372400"></path>
                    <path d="M62.7206623,59.4261538 C62.9819022,60.1613007 63.2619439,60.6820015 63.5607874,60.988256 C63.8596308,61.2945106 64.5838508,61.6956695 65.7334473,62.1917327 C64.8497874,62.0236841 64.1255675,61.7390462 63.5607874,61.337819 C62.9960073,60.9365917 62.5528987,60.4106364 62.2314617,59.759953 L62.7206623,59.4261538 Z" id="Path-143-Copy-2" fill="#372400"></path>
                    <path d="M54.835841,49.8248232 C56.9116127,49.3662724 58.4393144,47.5168886 59.7433369,46.8162205 C60.6126852,46.3491084 63.034305,45.3048318 67.0081963,43.6833907 C65.3234123,43.7711714 63.1900877,44.3342327 60.6082224,45.3725747 C56.7354245,46.9300876 52.7600693,50.2833741 54.835841,49.8248232 Z" id="Path-144" fill="#372400"></path>
                    <path d="M30.1722455,53.5565082 C33.0832689,53.4575332 40.5778725,53.9787021 36.8538363,54.5824449 C35.4389882,54.8118209 33.3362442,54.514115 30.5813628,54.5824449 C29.1952163,54.6168259 26.4675479,55.0770815 22.3983577,55.9632118 C25.6402673,54.4247261 28.2315632,53.6224916 30.1722455,53.5565082 Z" id="Path-146" fill="#372400"></path>
                    <path d="M44.8584846,76.4851104 C48.1556833,75.8626464 50.5889508,75.2750728 52.1582872,74.7223896 C53.7276235,74.1697064 55.9825233,73.1062183 58.9229866,71.5319253 C59.6464648,78.5996815 58.2594558,82.8839405 54.7619595,84.3847022 C51.2644633,85.8854639 47.963305,83.2522666 44.8584846,76.4851104 Z" id="Path-149" fill="#FFC1A8"></path>
                    <path d="M43.2249063,75.2598017 C43.2249063,75.0904512 44.168461,75.9519985 45.772056,75.9519985 C47.3756509,75.9519985 49.6798459,75.1667013 51.5953047,74.5190987 C53.5107635,73.8714961 57.5690532,72.3081849 58.3221161,71.6724578 C59.0751789,71.0367306 59.2830577,69.6087167 59.4225266,69.738442 C59.5619955,69.8681674 59.7123995,70.9172598 58.9579636,71.855311 C58.2035277,72.7933622 54.5571441,74.2191548 52.3642838,74.9970266 C50.1714234,75.7748985 47.0738351,76.6772783 45.5372433,76.7214583 C44.0006514,76.7656384 43.2249063,75.4291522 43.2249063,75.2598017 Z" id="Path-147" fill="#372400"></path>
                    <path d="M45.273982,76.5005726 C48.0569502,82.9235281 51.0895307,85.5451194 54.3717234,84.3653466 C57.653916,83.1855738 59.1120228,78.9638525 58.7460436,71.7001829 L59.2950123,71.1092882 C59.8269756,78.9728437 58.2295592,83.4746769 54.5027634,84.6147879 C50.7759676,85.7548988 47.3861015,83.0034821 44.3331653,76.3605376 L45.273982,76.5005726 Z" id="Path-148" fill="#372400"></path>
                    <path d="M77.6768606,52.3303154 C78.275701,49.1203058 79.537048,47.7524607 81.4609016,48.2267803 C84.3466819,48.9382595 84.3051526,55.0863615 84.1566289,57.2127774 C84.0576131,58.6303881 82.8136798,59.3140764 80.4248289,59.2638424 L77.6768606,52.3303154 Z" id="Path-150" stroke="#372400" stroke-width="1.48674244" fill="#FFE1D6"></path>
                    <path d="M79.6479875,52.2203058 C79.8808105,50.8925645 80.2761427,50.4117058 80.833984,50.7777295 C81.3918253,51.1437532 81.8690972,52.197165 82.2657997,53.9379651 C81.6953361,53.0448705 81.2180642,52.4723174 80.833984,52.2203058 C80.4499038,51.9682942 80.0545716,51.9682942 79.6479875,52.2203058 Z" id="Path-151" fill="#E5AA94"></path>
                    <path d="M15.0151892,77.3918235 C14.2472887,75.8505384 13.633214,75.6475007 13.1729651,76.7827104 C12.7127163,77.91792 12.9428407,79.3632856 13.8633384,81.1188071 C13.4399488,78.9637834 13.4399488,77.8862715 13.8633384,77.8862715 C14.286728,77.8862715 14.6706783,77.7214555 15.0151892,77.3918235 Z" id="Path-153" fill="#E5AA94"></path>
                    <path d="M77.3680962,47.587275 C76.915306,49.4705535 76.915306,51.3861437 77.3680962,53.3340457 C77.8208863,55.2819477 78.716934,57.2211526 80.0562394,59.1516604 C74.6757756,56.5922654 71.6490189,54.6530605 70.9759695,53.3340457 C69.9663953,51.3555235 71.4370784,51.0429331 69.7879967,48.6608917 C68.138915,46.2788504 63.6505672,45.0525902 59.3100249,43.1978626 C56.4163301,41.9613776 54.8580449,38.2452275 54.6351695,32.0494124 C52.8860764,41.5512852 49.8987592,47.5245865 45.6732177,49.9693164 C41.4476762,52.4140463 37.380015,53.687901 33.4702342,53.7908805 C26.4999092,61.3970043 22.7934684,66.8860826 22.350912,70.2581154 C21.6870774,75.3161646 25.4591074,79.7341264 25.5698281,83.7411341 C25.6436419,86.4124726 24.7688496,89.0903063 22.9454513,91.7746353 C21.5268626,85.9048004 20.3321323,82.0418497 19.3612603,80.1857831 C18.3903883,78.3297165 17.011239,76.2563704 15.2238124,73.9657447" id="Path-154" stroke="#372400" stroke-width="1.48674244" stroke-linecap="round" stroke-linejoin="round"></path>
                    <path d="M13.8825731,74.533675 C10.1059376,48.2761966 16.5161881,32.5570243 33.1133248,27.3761581 C49.7104614,22.195292 65.0936448,29.3130298 79.2628748,48.7293714 C79.5790811,48.4421936 79.8416138,48.2767921 80.050473,48.2331667 C80.2593322,48.1895414 80.7886705,48.1895414 81.638488,48.2331667 C70.5425491,24.9591715 54.3674947,16.8934317 33.1133248,24.0359475 C11.8591548,31.1784634 4.33953566,48.1701681 10.5544673,75.0110617 C11.3669244,74.4644703 12.0232534,74.1552999 12.5234545,74.0835506 C13.0236555,74.0118013 13.4766951,74.1618428 13.8825731,74.533675 Z" id="Path-155" stroke="#372400" stroke-width="1.48674244" fill="#FFD1CF" stroke-linecap="round" stroke-linejoin="round"></path>
                    <path d="M72.4589462,119.395128 C74.5787366,118.49889 76.2373351,118.173598 77.4347417,118.419253 C78.6321483,118.664907 79.5109715,119.510764 80.0712115,120.956824 C78.9595637,121.93932 77.7915845,122.672338 76.5672737,123.155877 C75.3429629,123.639416 74.222976,123.749274 73.207313,123.485451 C73.3599104,122.173913 73.3599104,121.242796 73.207313,120.692098 C73.0547156,120.141401 72.80526,119.709077 72.4589462,119.395128 Z" id="Path-156" fill="#D39795"></path>
                    <path d="M71.8332564,120.201357 C71.4756351,120.408175 71.2556767,120.555664 71.0469239,120.201357 C70.838171,119.847051 70.9849336,119.439978 71.3425549,119.23316 C73.7066467,117.865969 75.5614641,117.343624 77.4357769,117.672339 C79.3100898,118.001055 80.1392671,118.441263 80.43334,120.4752 C80.4920562,120.881306 80.2583192,121.483856 79.848413,121.542028 C79.4385067,121.6002 79.5091727,121.603621 79.4504565,121.197514 C79.2473443,119.792702 78.7900794,118.69007 77.4357769,118.452553 C75.9571761,118.193237 73.9159941,118.996878 71.8332564,120.201357 Z" id="Path-157" fill="#372400" fill-rule="nonzero"></path>
                    <path d="M71.8505766,111.730971 C70.3576588,110.141768 69.8896765,109.057031 70.4466299,108.476758 C71.2820599,107.606349 74.2491703,107.699718 74.9740131,108.476758 C75.4572417,108.994785 74.9599844,110.079522 73.4822413,111.730971 C75.6106123,111.899167 76.7977147,112.301075 77.0435486,112.936695 C77.4122994,113.890125 75.8291342,115.588045 74.9740131,115.588045 C74.4039324,115.588045 73.9066751,114.704262 73.4822413,112.936695 C72.9531085,114.807503 72.4092203,115.919794 71.8505766,116.273568 C71.0126111,116.804228 69.7053319,116.726062 69.2954939,115.588045 C69.061812,114.93917 69.5672661,114.248228 69.9888322,113.624467 C70.3066208,113.154258 70.5767393,112.722224 70.4466299,112.375163 C70.1439222,111.567705 68.1340456,112.384698 67.8495166,111.730971 C67.5649876,111.077243 68.1720378,109.730338 69.2954939,109.730338 C70.0444646,109.730338 70.8961589,110.397216 71.8505766,111.730971 Z" id="Path-158" stroke="#372400" stroke-width="0.892045462" fill="#FFFFFF" stroke-linecap="round" stroke-linejoin="round"></path>
                    <path d="M36.8825443,113.727282 C37.1611987,113.843464 37.4189393,113.843464 37.6557659,113.727282 C37.8925926,113.611099 38.0110059,113.340355 38.0110059,112.91505 L30.1984022,97.7720971 L29.1568974,98.423449 L36.8825443,113.727282 Z" id="Path-159" stroke="#372400" stroke-width="0.594696975" fill="#FFFFFF" stroke-linecap="round" stroke-linejoin="round"></path>
                    <path d="M30.6293888,100.718285 C32.3012186,99.9847605 34.1895057,99.1675433 35.6313802,97.432799 C36.0182345,96.9673678 35.5343788,96.0826157 36.6104296,95.4262396 C39.1669375,93.8668049 38.9425837,90.0180695 38.0044264,86.9966067 C36.1283025,80.9542951 26.6802324,75.944884 20.0532187,78.3383693 C13.426205,80.7318545 8.83866651,88.3748996 12.6409506,97.1065692 C16.4432348,105.838239 26.3881957,102.579133 30.6293888,100.718285 Z" id="Path-160" stroke="#372400" stroke-width="1.18939395" fill="#FFFFFF" stroke-linecap="round" stroke-linejoin="round"></path>
                    <path d="M32.7089919,93.8528003 C33.2420933,91.702857 30.1228937,82.7288491 24.5231838,82.7288491 C18.923474,82.7288491 17.4404002,87.0247246 17.4404002,91.606111 C17.4404002,96.1874974 20.5692336,97.5800091 24.5231838,96.579285 C28.477134,95.5785608 27.6254393,90.6973384 26.0203388,89.654067 C24.9502717,88.9585528 23.8300148,89.155404 22.6595681,90.2446207" id="Path-161" stroke="#FFC8C8" stroke-width="3.12215912" stroke-linecap="round" stroke-linejoin="round"></path>
                    <path d="M30.8797937,109.550145 C31.0380677,109.550145 32.5263325,111.509778 34.1763678,111.204651 C35.8264031,110.899525 37.2457868,110.244505 37.8678761,108.257901 C38.4899653,106.271296 39.2496837,104.728566 37.4221861,103.657685 C36.2038544,102.943764 34.2517583,103.24622 31.5658979,104.565052" id="Path-162" fill="#FFE1D6"></path>
                    <path d="M29.8978642,109.033902 C30.0561382,109.033902 31.8809695,111.629552 34.1763678,111.204651 C36.4717661,110.779751 37.983698,110.106593 38.6057873,108.119988 C39.2278766,106.133383 39.2684543,104.557923 37.4409567,103.487042 C36.222625,102.773121 34.2642721,103.132458 31.5658979,104.565052" id="Path-162" stroke="#372400" stroke-width="1.48674244" stroke-linecap="round" stroke-linejoin="round"></path>
                </g>
            </g>
        </g>
    </g>
</svg>