<?xml version="1.0" encoding="UTF-8"?>
<svg width="152px" height="212px" viewBox="0 0 152 212" version="1.1" xmlns="http://www.w3.org/2000/svg" xmlns:xlink="http://www.w3.org/1999/xlink">
    <!-- Generator: Sketch 51 (57462) - http://www.bohemiancoding.com/sketch -->
    <title>女/射手座</title>
    <desc>Created with Sketch.</desc>
    <defs>
        <filter x="-7.5%" y="-3.8%" width="119.3%" height="110.5%" filterUnits="objectBoundingBox" id="filter-1">
            <feOffset dx="0" dy="3" in="SourceAlpha" result="shadowOffsetOuter1"></feOffset>
            <feGaussianBlur stdDeviation="3" in="shadowOffsetOuter1" result="shadowBlurOuter1"></feGaussianBlur>
            <feColorMatrix values="0 0 0 0 0.57254902   0 0 0 0 0.384313725   0 0 0 0 0.984313725  0 0 0 0.2 0" type="matrix" in="shadowBlurOuter1" result="shadowMatrixOuter1"></feColorMatrix>
            <feMerge>
                <feMergeNode in="shadowMatrixOuter1"></feMergeNode>
                <feMergeNode in="SourceGraphic"></feMergeNode>
            </feMerge>
        </filter>
        <polygon id="path-2" points="88.7040477 36.5769226 82.8216188 39.1182793 85.3764434 33.2668599 82.8216188 27.4154404 88.7040477 29.9567971 94.5864766 27.4154404 92.031652 33.2668599 94.5864766 39.1182793"></polygon>
        <filter x="-257.0%" y="-258.4%" width="614.0%" height="616.7%" filterUnits="objectBoundingBox" id="filter-3">
            <feOffset dx="0" dy="0" in="SourceAlpha" result="shadowOffsetOuter1"></feOffset>
            <feGaussianBlur stdDeviation="0.5" in="shadowOffsetOuter1" result="shadowBlurOuter1"></feGaussianBlur>
            <feColorMatrix values="0 0 0 0 1   0 0 0 0 0.925490196   0 0 0 0 0.356862745  0 0 0 1 0" type="matrix" in="shadowBlurOuter1"></feColorMatrix>
        </filter>
    </defs>
    <g id="星座配对" stroke="none" stroke-width="1" fill="none" fill-rule="evenodd">
        <g id="女/射手座" filter="url(#filter-1)" transform="translate(6.000000, 3.000000)">
            <rect id="Rectangle-2-Copy-3" fill="#FFFFFF" fill-rule="nonzero" x="0" y="0" width="140" height="200" rx="4"></rect>
            <rect id="Rectangle-2-Copy-5" stroke="#EB6262" fill-opacity="0.1" fill="#EB6262" fill-rule="nonzero" x="4.5" y="4.5" width="131" height="191" rx="4"></rect>
            <text id="射手座" font-family="PingFangSC-Medium, PingFang SC" font-size="12" font-weight="400" line-spacing="14" fill="#E23030">
                <tspan x="10.136" y="22.576">射</tspan>
                <tspan x="10.136" y="36.576">手</tspan>
                <tspan x="10.136" y="50.576">座</tspan>
            </text>
            <path d="M126.21968,182.822457 C126.666801,182.822457 127.030215,183.176375 127.032257,183.611813 C127.032257,184.04924 126.668843,184.403158 126.221722,184.403158 L123.818701,184.405146 L123.820743,187.208655 C123.820743,187.646082 123.457329,188 123.010208,188 C122.561045,188 122.197632,187.646082 122.197632,187.210643 L122.19559,184.407135 L119.729278,184.409123 C119.280115,184.409123 118.916702,184.055205 118.916702,183.619766 C118.916702,183.18234 119.280115,182.828421 119.727236,182.828421 L122.193548,182.826433 L122.191507,180.889825 L122.191507,180.669123 C119.817069,180.293334 118.002043,178.2931 118.000001,175.873334 C117.99796,173.183159 120.233565,171.00199 122.995917,171.000001 C125.756226,170.998013 127.997957,173.175206 127.999998,175.865381 C128.00204,178.283159 126.189056,180.287369 123.814618,180.667135 L123.814618,180.887837 L123.816659,182.824445 L126.21968,182.822457 Z M123.026541,179.024796 C124.772151,179.024796 126.189056,177.644913 126.189056,175.944913 C126.189056,174.242925 124.772151,172.86503 123.026541,172.86503 C121.27889,172.86503 119.864027,174.244913 119.864027,175.944913 C119.864027,177.646901 121.280931,179.024796 123.026541,179.024796 Z" id="女-copy" fill="#E23030" fill-rule="nonzero"></path>
            <g id="射手座" transform="translate(21.000000, 34.000000)">
                <g id="射手座-copy">
                    <path d="M45.822605,84.0645657 L46.3199166,84.2254343 L46.5410295,83.5418827 L45.822605,83.5418827 L45.822605,84.0645657 Z M9.25620016,72.2361944 L9.55714668,71.9995158 L8.89191976,72.1183582 L9.25620016,72.2361944 Z M8.9698651,70.6334188 L47.259454,83.0191996 L47.259454,85.2391117 L6.90821498,72.254798 L8.9698651,70.6334188 Z" id="Path-28-Copy" stroke="#372400" stroke-width="1.43684901" fill="#4F0F0F" stroke-linecap="round" stroke-linejoin="round" transform="translate(27.477483, 77.844020) rotate(9.000000) translate(-27.477483, -77.844020) "></path>
                    <path d="M47.9326584,91.6455102 L48.42997,91.8063788 L48.6510829,91.1228272 L47.9326584,91.1228272 L47.9326584,91.6455102 Z M11.3662535,79.8171389 L11.6672001,79.5804603 L11.0019731,79.6993027 L11.3662535,79.8171389 Z M11.0799185,78.2143633 L49.3695074,90.6001441 L49.3695074,92.8200562 L9.01826837,79.8357426 L11.0799185,78.2143633 Z" id="Path-28" stroke="#372400" stroke-width="1.43684901" fill="#4F0F0F" stroke-linecap="round" stroke-linejoin="round"></path>
                    <path d="M9.44380745,68.8274012 C12.7710227,73.5674684 12.308774,76.6217604 8.0570612,77.9902774 C1.67949202,80.0430528 -1.36978233,67.67267 0.586682308,63.8986777 C2.54314694,60.1246854 15.8213766,59.4170273 15.8213766,63.013024 C15.8213766,65.4103551 13.6955202,67.3484809 9.44380745,68.8274012 Z" id="Path-26" stroke="#372400" stroke-width="1.43684901" fill="#EB6262" stroke-linecap="round" stroke-linejoin="round"></path>
                    <path d="M11.5916839,78.6726936 C13.8471377,81.8858919 13.5337884,83.9563365 10.6516358,84.8840272 C6.32840704,86.2755633 4.26136389,77.889924 5.58761281,75.3316088 C6.91386173,72.7732936 15.9149127,72.2935861 15.9149127,74.7312415 C15.9149127,76.3563452 14.4738364,77.6701625 11.5916839,78.6726936 Z" id="Path-26-Copy" stroke="#372400" stroke-width="1.43684901" fill="#EB6262" stroke-linecap="round" stroke-linejoin="round"></path>
                    <path d="M45.1941754,89.038068 C42.1009704,96.2470121 40.7048893,103.085456 41.0059323,109.553399 C41.3069752,116.021342 43.1653393,123.1797 46.5810245,131.028473 L58.9308678,127.736362 C60.4476913,122.830027 62.9562722,120.376859 66.4566106,120.376859 C69.956949,120.376859 70.6372241,123.150755 68.4974359,128.698546 L79.8430563,126.526941 C85.1162606,117.945182 87.5003398,110.227903 86.9952939,103.375104 C86.490248,96.5223059 83.084768,90.3805405 76.7788541,84.949808 C72.3752393,87.6557802 67.6750325,89.3321543 62.6782335,89.9789304 C57.6814345,90.6257064 51.8534152,90.3120857 45.1941754,89.038068 Z" id="Path-18" stroke="#372400" stroke-width="1.43684901" fill="#FFE1D6" stroke-linecap="round" stroke-linejoin="round"></path>
                    <path d="M36.316749,20.4938691 C32.4285689,17.5619707 30.8164051,14.6263087 31.4802575,11.686883 C32.4760361,7.27774449 38.8210261,2.39091261 45.9463924,0.632986431 C53.0717586,-1.12493975 56.3707849,1.54914904 59.6406698,4.73932066 C61.8205931,6.86610174 60.6748458,10.8443001 56.2034279,16.6739159 C51.6497793,16.9601389 48.2307675,17.3226486 45.9463924,17.7614452 C43.6620172,18.2002417 40.4521361,19.1110497 36.316749,20.4938691 Z" id="Path-4" stroke="#372400" stroke-width="1.43684901" fill="#7A472B"></path>
                    <polygon id="Path-25" stroke="#372400" stroke-width="1.43684901" fill="#965419" stroke-linecap="round" stroke-linejoin="round" points="88.4142241 92.3589912 98.2460559 103.039466 92.2852749 111.397304 85.3944048 110.050357"></polygon>
                    <path d="M40.4631478,109.190347 L29.2726768,116.685552 C43.0070465,122.12647 50.0650576,124.846929 50.4467103,124.846929 C50.8283629,124.846929 53.3715079,124.026023 58.0761452,122.384212 L60.0282713,125.816722 L66.3192089,124.040867 L69.7192635,125.816722 L76.7382352,124.846929 L77.795015,119.724927 L79.3926202,124.040867 L95.4762939,119.724927 L86.9551303,110.197924 L64.2865921,113.483346 L40.4631478,109.190347 Z" id="Path-24" stroke="#372400" stroke-width="1.43684901" fill="#FFFFFF" stroke-linecap="round" stroke-linejoin="round"></path>
                    <path d="M65.1747262,100.45534 L73.1408181,86.8107882 C76.6106404,93.8348078 78.5243293,97.7456308 78.8818851,98.543257 C79.5244937,99.9767716 89.0386154,99.8603877 87.5186676,109.039912 C87.0989629,111.574663 79.6509825,115.368268 65.1747262,120.420728 C47.6553596,114.504812 39.3462713,110.394149 40.2474613,108.08874 C41.5992462,104.630626 51.5560215,104.860969 52.6344994,100.45534 C53.3534846,97.5182551 54.0321795,94.0740525 54.6705842,90.1227327 L65.1747262,100.45534 Z" id="Path-19" stroke="#372400" stroke-width="1.43684901" fill="#FFFFFF" stroke-linecap="round" stroke-linejoin="round"></path>
                    <path d="M77.9330594,95.5009259 C78.3491956,99.4021055 81.0304526,100.917141 79.163513,103.16813 C77.2965735,105.419119 71.0420896,105.423819 74.6887848,109.448599 C78.33548,113.473379 86.0341263,110.685742 88.0116127,105.734403 C89.9890991,100.783064 88.294209,89.4340642 83.6992271,86.7122857 C79.1042451,83.9905072 77.9330594,84.8312638 76.8988771,85.9582535 C75.8646948,87.0852433 77.667571,93.0120344 77.9330594,95.5009259 Z" id="Path-23" stroke="#372400" stroke-width="1.43684901" fill="#FFE1D6"></path>
                    <path d="M51.8517628,95.4620495 C53.8561098,98.1500781 52.3288871,98.6110417 55.7178957,102.408971 C59.1069042,106.206901 64.5479573,111.570142 60.9068453,114.989133 C57.2657333,118.408124 55.5542132,113.875781 50.9408151,110.93103 C46.3274171,107.986279 43.7148528,107.684633 42.5848969,103.294158 C41.4549411,98.903683 40.6930476,96.7701778 43.7148528,94.0667695 C46.7366579,91.3633613 49.8474158,92.7740209 51.8517628,95.4620495 Z" id="Path-22" stroke="#372400" stroke-width="1.43684901" fill="#FFE1D6"></path>
                    <path d="M51.5193995,90.4140412 C48.7646885,91.7564317 46.3785223,93.3921505 44.360901,95.3211976 C41.334469,98.2147682 39.1519852,104.021786 38.0764054,103.525218 C37.0008256,103.028651 38.6811623,96.2012781 40.0131812,93.3139679 C40.9011938,91.3890945 42.3504338,89.9588235 44.360901,89.0231551 C45.5201985,89.5129059 46.6391757,89.8499376 47.7178327,90.0342504 C48.7964897,90.2185631 50.0636786,90.3451601 51.5193995,90.4140412 Z" id="Path-20" stroke="#372400" stroke-width="1.43684901" fill="#FFFFFF" stroke-linecap="round" stroke-linejoin="round"></path>
                    <path d="M77.2501356,84.8035221 C79.5508631,84.2290952 82.3395095,85.0942817 85.6160749,87.3990816 C88.8926403,89.7038814 90.4086805,92.3911842 90.1641956,95.4609899 C86.7149834,94.1305537 83.6142801,92.7262981 80.8620858,91.2482232 C78.1098916,89.7701482 75.7306331,88.2313723 73.7243104,86.6318956 L77.2501356,84.8035221 Z" id="Path-21" stroke="#372400" stroke-width="1.43684901" fill="#FFFFFF" stroke-linecap="round" stroke-linejoin="round"></path>
                    <path d="M41.4407644,89.9510685 C50.2582817,93.7204788 60.0601263,91.6650981 69.2188358,88.298726 C77.7306525,85.1701256 84.2436694,82.0803209 87.341033,75.8006971 C88.6802144,73.0856284 91.8326515,66.371633 91.213087,58.6011258 C90.5935225,50.8306186 77.8759267,20.304988 47.3307689,33.9850149 C28.1271996,42.585571 24.975043,62.2592881 29.4328282,75.8006971 C32.0655869,83.7982254 40.3564441,89.4875313 41.4407644,89.9510685 Z" id="Path" stroke="#372400" stroke-width="1.43684901" fill="#FFE1D6" stroke-linecap="round" stroke-linejoin="round"></path>
                    <path d="M38.7128256,85.3929538 C28.5543842,84.0033211 21.427999,80.9327056 17.3336698,76.1811075 C13.480555,71.7094461 10.6102696,65.4053431 10.5149159,56.8929967 C10.5109363,56.5377344 10.8110142,55.9342896 11.4151494,55.0826621 L13.0387946,51.0582215 C15.9608714,32.9690239 26.267737,22.0379495 43.9593916,18.2649982 C60.8619355,14.6603339 75.9708989,17.6456705 87.4586965,27.6781439 C87.816242,27.990394 88.0420617,28.54982 88.1361557,29.3564219 L92.5083866,33.623259 L94.3217024,34.3570856 C98.3410147,41.5547931 99.6028272,48.4633186 98.1071398,55.0826621 C96.6114524,61.7020056 93.7670126,67.5594049 89.5738203,72.6548599 C92.1034941,60.9912347 91.6242726,54.4740304 88.1361557,53.1032469 C82.9039805,51.0470716 77.1781462,56.8929967 67.628698,55.0826621 C61.2623992,53.8757724 52.92947,51.4092208 42.6299105,47.6830073 C41.5390109,53.1909742 38.0444257,58.9400331 32.1461549,64.9301838 C26.2478841,70.9203344 28.4367743,77.7412578 38.7128256,85.3929538 Z" id="Path-2" stroke="#372400" stroke-width="1.43684901" fill="#7A472B" stroke-linecap="round" stroke-linejoin="round"></path>
                    <path d="M34.0955952,19.1707683 L35.8436252,20.6765781 C41.5981375,18.491593 45.7188379,17.1621624 48.2057263,16.6882862 C50.6926146,16.2144101 53.5487278,16.2144101 56.7740657,16.6882862 L58.2259419,14.6451271 C58.5365582,12.4787837 55.5681405,11.9814662 49.3206887,13.1531743 C43.073237,14.3248825 37.9982058,16.3307472 34.0955952,19.1707683 Z" id="Path-5" stroke="#372400" stroke-width="1.43684901" fill="#AC2430" stroke-linecap="round" stroke-linejoin="round"></path>
                    <path d="M53.9703476,66.4275956 C53.3044082,66.513605 52.3890487,66.2763859 51.0029862,66.2183094 C50.3119195,66.1893535 49.0480287,66.3854912 47.2113137,66.8067224 C49.408813,65.9113272 51.0210398,65.4794517 52.0479942,65.5110961 C53.5884258,65.5585626 55.7163147,66.2020952 53.9703476,66.4275956 Z" id="Path-8" fill="#372400"></path>
                    <path d="M66.9942921,60.2889802 C66.2745577,61.1052992 66.1413948,62.3124208 67.3377656,61.5418744 C67.8488879,61.2126759 68.0506433,60.4607447 68.8324935,59.5034092 C69.1246186,59.1457169 69.6920398,58.5814821 70.5347571,57.8107045 C68.65427,58.9186757 67.474115,59.7447676 66.9942921,60.2889802 Z" id="Path-9" fill="#372400"></path>
                    <path d="M12.2968872,51.139658 C20.4034763,57.0212889 32.3561551,57.7134918 48.1549235,53.2162668 C63.9536919,48.7190418 77.4107419,40.7937898 88.5260735,29.4405108 C89.6321045,29.9226526 90.4027564,30.3549087 90.8380291,30.737279 C91.2733018,31.1196493 91.9188522,31.9314724 92.7746803,33.1727483 C81.4234466,46.9236329 67.3412502,56.0294021 50.5280909,60.4900559 C33.7149317,64.9507096 20.4266352,63.1875726 10.6632015,55.2006447 C10.4841761,54.3227443 10.4841761,53.661285 10.6632015,53.2162668 C10.8422269,52.7712486 11.3867888,52.0790457 12.2968872,51.139658 Z" id="Path-3" stroke="#372400" stroke-width="1.43684901" fill="#AC2430" stroke-linecap="round" stroke-linejoin="round"></path>
                    <path d="M49.6463823,68.8456165 C46.0729045,70.0980765 42.7080692,77.2025541 47.8268813,79.4495038 C52.9456935,81.6964535 56.2977688,76.3569463 56.2977688,73.078115 C56.2977688,69.7992837 53.2198601,67.5931564 49.6463823,68.8456165 Z" id="Path-10" fill="#372400"></path>
                    <path d="M52.0532378,70.2003622 C51.6280102,70.4119649 51.318576,71.4069694 52.0532378,71.9930889 C52.7878996,72.5792083 53.8545312,71.9930889 53.8545312,71.0967255 C53.8545312,70.2003622 52.4784655,69.9887595 52.0532378,70.2003622 Z" id="Path-11" fill="#FFFFFF"></path>
                    <path d="M50.8006402,71.3059568 C50.6093884,71.4011279 50.4702164,71.8486443 50.8006402,72.1122592 C51.131064,72.3758742 51.6107956,72.1122592 51.6107956,71.709108 C51.6107956,71.3059568 50.991892,71.2107857 50.8006402,71.3059568 Z" id="Path-11-Copy" fill="#FFFFFF"></path>
                    <path d="M49.5239113,77.8813433 C49.2447876,78.1703573 49.8015532,78.613768 50.1733183,78.6856699 C50.5450833,78.7575718 51.1555159,78.6856699 51.1555159,78.1969067 C51.1555159,77.7081434 49.8030351,77.5923293 49.5239113,77.8813433 Z" id="Path-11-Copy-2" fill="#FFFFFF"></path>
                    <path d="M46.8489062,71.8455377 C45.9075209,72.4434089 45.1634173,72.7859079 44.6165955,72.8730347 C44.0697736,72.9601616 43.3256701,72.8547834 42.3842847,72.5569001" id="Path-12" stroke="#372400" stroke-width="0.862109403" stroke-linecap="round" stroke-linejoin="round"></path>
                    <path d="M46.1280851,73.1361761 C45.1866997,73.7340473 44.4425961,74.0765463 43.8957743,74.1636731 C43.3489525,74.2508 42.6048489,74.1454218 41.6634635,73.8475385" id="Path-12-Copy" stroke="#372400" stroke-width="0.862109403" stroke-linecap="round" stroke-linejoin="round"></path>
                    <path d="M73.3798042,58.7014193 C70.9440442,60.3991847 68.838006,64.5889104 71.6496969,68.7157018 C74.4613878,72.8424932 81.652746,66.9271122 81.1715342,62.078822 C80.6903224,57.2305318 75.8155641,57.0036539 73.3798042,58.7014193 Z" id="Path-13" fill="#372400"></path>
                    <path d="M76.1286648,59.7318507 C75.7034372,59.9434534 75.3940031,60.9384579 76.1286648,61.5245774 C76.8633266,62.1106969 77.9299583,61.5245774 77.9299583,60.628214 C77.9299583,59.7318507 76.5538925,59.520248 76.1286648,59.7318507 Z" id="Path-11-Copy-3" fill="#FFFFFF"></path>
                    <path d="M74.8760672,60.8374453 C74.6848155,60.9326164 74.5456434,61.3801328 74.8760672,61.6437477 C75.206491,61.9073627 75.6862226,61.6437477 75.6862226,61.2405965 C75.6862226,60.8374453 75.067319,60.7422742 74.8760672,60.8374453 Z" id="Path-11-Copy-4" fill="#FFFFFF"></path>
                    <path d="M73.5993383,67.4128318 C73.3202146,67.7018458 73.8769803,68.1452565 74.2487453,68.2171584 C74.6205103,68.2890603 75.2309429,68.2171584 75.2309429,67.7283952 C75.2309429,67.239632 73.8784621,67.1238178 73.5993383,67.4128318 Z" id="Path-11-Copy-5" fill="#FFFFFF"></path>
                    <path d="M78.7136715,58.7380539 C79.7290899,58.6512871 80.4506001,58.5005355 80.878202,58.2857991 C81.3058039,58.0710627 81.6882341,57.6674291 82.0254926,57.0748982" id="Path-14" stroke="#372400" stroke-width="0.862109403" stroke-linecap="round" stroke-linejoin="round"></path>
                    <path d="M79.1616912,59.1971145 C80.1626873,59.6105681 81.023186,59.7370091 81.7431874,59.5764375 C82.4631887,59.415866 83.0327835,59.0576635 83.4519715,58.50183" id="Path-14-Copy" stroke="#372400" stroke-width="0.862109403" stroke-linecap="round" stroke-linejoin="round"></path>
                    <path d="M30.5589047,77.2222086 C27.1728947,77.1566503 25.8157074,77.975809 26.4873427,79.6796845 C27.4947957,82.2354979 30.3632068,84.2015888 32.1285961,84.2015888 C33.3055223,84.2015888 34.329575,83.5408133 35.2007543,82.2192621 C33.7608172,81.180917 32.7367644,80.3343912 32.1285961,79.6796845 C31.5204277,79.0249779 30.9971973,78.2058193 30.5589047,77.2222086 Z" id="Path-84" stroke="#372400" stroke-width="0.862109403" fill="#FFE1D6"></path>
                    <path d="M33.1330084,83.8344568 C35.2393098,81.5650717 42.2737244,80.2146878 43.6460428,81.5564965 C45.0183611,82.8983052 40.7173518,85.985708 38.0804153,86.6391177 C35.4434787,87.2925273 31.0267069,86.1038419 33.1330084,83.8344568 Z" id="Path-16" fill="#EB6262"></path>
                    <path d="M81.7163551,68.2033917 C83.8226565,65.9340066 90.8570711,64.5836227 92.2293895,65.9254314 C93.6017079,67.2672401 89.3006985,70.3546429 86.663762,71.0080526 C84.0268255,71.6614622 79.6100537,70.4727768 81.7163551,68.2033917 Z" id="Path-16-Copy" fill="#EB6262"></path>
                    <path d="M18.6647966,35.9279645 C18.6217654,38.6580589 20.3466012,40.2318631 23.8393039,40.649377 C29.0783581,41.275648 30.8766072,38.8748598 38.4132269,38.2886708 C45.9498467,37.7024818 45.392508,40.9977964 54.1908551,38.2886708 C62.9892021,35.5795451 60.6938276,33.6627996 66.3375764,29.6904 C70.1000756,27.0421335 73.8808858,24.397212 77.6800069,21.7556353 L80.8076911,23.3334853 C78.4008913,24.0061883 75.9964926,25.2853257 73.594495,27.1708973 C69.9914985,29.9992547 70.6706882,31.5045344 68.2928873,33.1576241 C65.9150865,34.8107138 65.0668508,32.3512333 60.998347,35.9279645 C56.9298433,39.5046957 59.4431992,42.8017126 56.2712328,43.7261844 C53.0992664,44.6506562 49.7597062,40.3869896 44.7986515,40.649377 C39.8375967,40.9117645 38.969798,44.7780844 36.3825781,44.7780844 C33.7953583,44.7780844 38.0491226,40.649377 33.4175824,40.649377 C28.7860422,40.649377 24.19926,44.7780844 20.6994182,44.7780844 C18.3661903,44.7780844 16.9979132,43.4018486 16.594587,40.649377 C17.0273662,39.572762 17.3527576,38.7858599 17.5707614,38.2886708 C17.7887652,37.7914816 18.1534436,37.0045795 18.6647966,35.9279645 Z" id="Path-17" fill="#BB8C6E"></path>
                    <path d="M81.08204,79.8211193 C76.7343496,80.2122829 73.1108923,81.1355292 71.4786389,84.7697895 C69.8463855,88.4040497 71.9528509,104.405973 63.4304849,111.057816 C54.9081189,117.709659 24.5849023,111.82438 20.6065335,112.398094 C16.6281646,112.971808 15.6687479,115.525238 17.3318049,117.027193 C18.9948618,118.529148 21.7641995,116.658797 23.2158956,114.984455 C26.8473311,112.398094 56.3453734,121.820371 66.9582785,112.398094 C77.5711836,102.975816 72.2268405,88.519184 73.2619412,86.18798 C74.2970418,83.856776 77.9901577,83.3339019 79.7830558,83.5147454 C82.3196211,85.1573919 84.2484729,85.0916251 85.2957333,83.8989328 C86.3429937,82.7062405 85.4297303,79.4299557 81.08204,79.8211193 Z" id="Path-15" fill="#000000"></path>
                    <g id="Star">
                        <use fill="black" fill-opacity="1" filter="url(#filter-3)" xlink:href="#path-2"></use>
                        <use fill="#FFEC5B" fill-rule="evenodd" xlink:href="#path-2"></use>
                    </g>
                    <polyline id="Path-27" stroke="#372400" stroke-width="0.862109403" points="22.0367112 113.460767 49.2162374 98.9794578 74.3990069 82.5609609"></polyline>
                    <path d="M72.7030313,74.0808092 C71.530632,74.9356363 70.4107369,75.3630498 69.343346,75.3630498 C68.2759552,75.3630498 67.2390978,74.9356363 66.232774,74.0808092 C65.796689,75.6231016 65.2639099,76.6722327 64.6344365,77.2282026 C64.0049632,77.7841725 62.9864968,78.1051484 61.5790373,78.1911303" id="Path-6" stroke="#372400" stroke-width="0.862109403" stroke-linecap="round" stroke-linejoin="round"></path>
                    <path d="M64.6554547,77.5674329 C65.840341,83.3552946 67.1729321,86.1298192 68.653228,85.8910068 C70.133524,85.6521944 70.7644878,82.0846673 70.5461197,75.1884256 C69.6338603,75.4147561 69.0028965,75.4920672 68.653228,75.420359 C68.3035596,75.3486507 67.5162246,74.980482 66.291223,74.3158527 C66.1163197,75.1032237 65.9268936,75.699614 65.7229447,76.1050236 C65.5189957,76.5104333 65.1631657,76.9979031 64.6554547,77.5674329 Z" id="Path-7" stroke="#372400" stroke-width="0.862109403" fill="#FFC1A8" stroke-linecap="round" stroke-linejoin="round"></path>
                    <path d="M51.4890082,111.436325 C55.5147473,115.415909 58.7011771,116.969237 61.0482974,116.096309 C63.3954178,115.223382 63.1424363,112.256944 60.289353,107.196996 L51.4890082,111.436325 Z" id="Path-37" fill="#FFE1D6"></path>
                    <path d="M51.4953071,111.263744 C55.5210462,115.243328 58.7011771,116.969237 61.0482974,116.096309 C63.3954178,115.223382 62.7667841,112.344518 59.9137008,107.284571" id="Path-37" stroke="#372400" stroke-width="1.43684901" stroke-linecap="round" stroke-linejoin="round"></path>
                    <path d="M28.8445323,79.7763181 C28.8445323,79.1463504 29.3668798,78.9204267 30.4115748,79.0985471 C30.3642825,79.5215247 30.3642825,79.830495 30.4115748,80.0254583 C30.4588672,80.2204215 30.6555319,80.7222034 31.0015689,81.530804 C29.5635445,80.9911144 28.8445323,80.4062858 28.8445323,79.7763181 Z" id="Path-85" fill="#E5AA94"></path>
                </g>
            </g>
        </g>
    </g>
</svg>