<?xml version="1.0" encoding="UTF-8"?>
<svg width="152px" height="212px" viewBox="0 0 152 212" version="1.1" xmlns="http://www.w3.org/2000/svg" xmlns:xlink="http://www.w3.org/1999/xlink">
    <!-- Generator: Sketch 51 (57462) - http://www.bohemiancoding.com/sketch -->
    <title>女/白羊座</title>
    <desc>Created with Sketch.</desc>
    <defs>
        <filter x="-7.5%" y="-3.8%" width="115.0%" height="110.5%" filterUnits="objectBoundingBox" id="filter-1">
            <feOffset dx="0" dy="3" in="SourceAlpha" result="shadowOffsetOuter1"></feOffset>
            <feGaussianBlur stdDeviation="3" in="shadowOffsetOuter1" result="shadowBlurOuter1"></feGaussianBlur>
            <feColorMatrix values="0 0 0 0 0.57254902   0 0 0 0 0.384313725   0 0 0 0 0.984313725  0 0 0 0.2 0" type="matrix" in="shadowBlurOuter1" result="shadowMatrixOuter1"></feColorMatrix>
            <feMerge>
                <feMergeNode in="shadowMatrixOuter1"></feMergeNode>
                <feMergeNode in="SourceGraphic"></feMergeNode>
            </feMerge>
        </filter>
    </defs>
    <g id="星座配对" stroke="none" stroke-width="1" fill="none" fill-rule="evenodd">
        <g id="女/白羊座" filter="url(#filter-1)" transform="translate(6.000000, 3.000000)">
            <rect id="Rectangle-2-Copy-3" fill="#FFFFFF" fill-rule="nonzero" x="0" y="0" width="140" height="200" rx="4"></rect>
            <rect id="Rectangle-2-Copy-5" stroke="#FFC040" fill-opacity="0.1" fill="#FFC040" fill-rule="nonzero" x="4.5" y="4.5" width="131" height="191" rx="4"></rect>
            <text id="白羊座" font-family="PingFangSC-Medium, PingFang SC" font-size="12" font-weight="400" line-spacing="14" fill="#F08000">
                <tspan x="10.136" y="22.576">白</tspan>
                <tspan x="10.136" y="36.576">羊</tspan>
                <tspan x="10.136" y="50.576">座</tspan>
            </text>
            <path d="M126.21968,182.822457 C126.666801,182.822457 127.030215,183.176375 127.032257,183.611813 C127.032257,184.04924 126.668843,184.403158 126.221722,184.403158 L123.818701,184.405146 L123.820743,187.208655 C123.820743,187.646082 123.457329,188 123.010208,188 C122.561045,188 122.197632,187.646082 122.197632,187.210643 L122.19559,184.407135 L119.729278,184.409123 C119.280115,184.409123 118.916702,184.055205 118.916702,183.619766 C118.916702,183.18234 119.280115,182.828421 119.727236,182.828421 L122.193548,182.826433 L122.191507,180.889825 L122.191507,180.669123 C119.817069,180.293334 118.002043,178.2931 118.000001,175.873334 C117.99796,173.183159 120.233565,171.00199 122.995917,171.000001 C125.756226,170.998013 127.997957,173.175206 127.999998,175.865381 C128.00204,178.283159 126.189056,180.287369 123.814618,180.667135 L123.814618,180.887837 L123.816659,182.824445 L126.21968,182.822457 Z M123.026541,179.024796 C124.772151,179.024796 126.189056,177.644913 126.189056,175.944913 C126.189056,174.242925 124.772151,172.86503 123.026541,172.86503 C121.27889,172.86503 119.864027,174.244913 119.864027,175.944913 C119.864027,177.646901 121.280931,179.024796 123.026541,179.024796 Z" id="女-copy" fill="#F08000" fill-rule="nonzero"></path>
            <g id="白羊座" transform="translate(16.000000, 41.000000)">
                <g id="白羊座-copy">
                    <path d="M43.1181911,77.5424452 C28.9747738,86.8232 22.5532868,92.6251179 23.85373,94.9481988 C25.1541732,97.2712797 29.7509041,96.6561556 37.6439229,93.1028266 C36.0766495,97.4391691 35.4912943,100.940438 35.8878573,103.606634 C36.2844202,106.27283 38.6945315,110.289336 43.1181911,115.656153 L48.6264503,115.656153 C52.4020127,107.100567 57.2121796,103.084061 63.0569508,103.606634 C68.901722,104.129208 72.1303108,110.133439 72.7427173,121.619329 L78.4217819,121.619329 C81.8597972,114.559714 83.6256353,109.121228 83.7192962,105.303869 C83.8129571,101.48651 82.3353353,95.1781023 79.2864307,86.3786459 C86.2194839,91.6853607 90.1814309,93.4003717 91.1722718,91.523679 C91.921411,90.104779 86.5664765,78.5112656 81.1041053,75.646283 C79.2138759,74.6548684 76.5782903,73.898802 73.1973484,73.3780835 L43.1181911,77.5424452 Z" id="Path-100" stroke="#372400" stroke-width="1.41466884" fill="#FFE1D6" stroke-linecap="round" stroke-linejoin="round"></path>
                    <path d="M40.9788756,93.7156933 C37.9579205,92.822525 35.5339646,93.4252109 33.7070082,95.5237508 C31.8800517,97.6222907 32.2040651,99.789074 34.6790484,102.024101 C31.6711332,104.392664 31.3471198,106.261201 33.7070082,107.62971 C36.0668965,108.99822 39.7641026,108.368115 44.7986265,105.739394 C48.5878157,108.232057 51.2941957,109.478388 52.9177664,109.478388 C54.5413372,109.478388 55.5668977,108.232057 55.9944481,105.739394 C57.2614559,107.615999 58.5292049,108.661569 59.7976952,108.876103 C61.0661854,109.090637 62.8007011,108.552827 65.0012422,107.262672 C66.756608,108.963652 67.9840992,109.901606 68.6837158,110.076536 C69.3833324,110.251465 70.3067702,109.851321 71.4540294,108.876103 C73.6271122,110.317005 75.6443502,110.889683 77.5057434,110.594138 C79.3671366,110.298592 80.7371126,109.188103 81.6156714,107.262672 C85.9788992,107.057037 88.3258528,105.769857 88.6565322,103.401132 C88.9872115,101.032406 87.1246313,98.8499201 83.0687914,96.8536725 C83.4445317,94.6222267 82.9601584,93.1296495 81.6156714,92.3759409 C80.2711845,91.6222323 78.6258732,91.790882 76.6797375,92.8818898 C74.1920265,90.0191607 71.9193569,88.5219396 69.8617287,88.3902264 C67.8041005,88.2585132 65.5651585,89.4669364 63.1449028,92.0154961 C62.1386682,90.3414585 60.944293,89.5044398 59.5617771,89.5044398 C58.1792612,89.5044398 56.6127086,90.3414585 54.8621193,92.0154961 C52.8498179,90.9328888 51.2117609,90.4621119 49.9479482,90.6031655 C48.6841355,90.7442191 47.7346194,91.5037939 47.0993997,92.8818898 C46.0207525,92.1572234 44.9416439,91.8684255 43.8620741,92.0154961 C42.7825042,92.1625667 41.8214381,92.7292991 40.9788756,93.7156933 Z" id="Path-102" fill="#FFFFFF"></path>
                    <path d="M83.2555191,106.901668 C82.0326828,106.596938 81.0317464,106.596938 80.2527098,106.901668 C79.8635161,107.053905 79.2969733,108.403978 78.0928326,109.153898 C77.2900721,109.653845 76.2813137,110.077498 75.0665573,110.424858 C77.1634058,110.305868 78.5299089,110.078291 79.1660666,109.742126 C79.8022244,109.405961 81.1653752,108.459141 83.2555191,106.901668 Z" id="Path-112" fill="#E4E4E4"></path>
                    <path d="M45.1545106,105.625664 C45.5618583,104.849622 44.322759,104.755357 41.4372126,105.34287 C38.5516663,105.930382 36.1457849,106.766785 34.2195686,107.852077 L38.1296071,108.49396 L42.7419303,106.741392 L45.1545106,105.625664 Z" id="Path-114" fill="#E4E4E4"></path>
                    <path d="M79.2395838,91.6602789 C77.7499326,92.2088939 77.0519375,92.545973 77.1455984,92.6715161 C77.2860897,92.8598308 80.1479126,93.0846024 81.2315374,94.4768266 C81.953954,95.404976 82.1209496,96.3781799 81.7325242,97.3964381 C83.4556223,97.9919738 84.8650653,99.1030497 85.9608532,100.729666 C87.0566411,102.356282 87.5095686,104.009757 87.3196357,105.690092 C88.3183712,104.5577 88.84797,103.656804 88.9084323,102.987403 C88.9688945,102.318003 88.6105864,101.322474 87.8335079,100.000817 L83.8695143,97.1936051 L83.1268512,96.1352485 L83.1268512,93.4409317 L79.2395838,91.6602789 Z" id="Path-115" fill="#D8D8D8"></path>
                    <path d="M55.7599101,105.375247 C54.7454214,106.437116 53.7089787,107.160087 52.650582,107.54416 C51.5921852,107.928233 49.3478025,107.522668 45.9174338,106.327465 L53.292796,109.735614 L55.13253,108.257781 L55.7599101,105.375247 Z" id="Path-113" fill="#E4E4E4"></path>
                    <path d="M40.9788756,93.7156933 C37.9579205,92.822525 35.5339646,93.4252109 33.7070082,95.5237508 C31.8800517,97.6222907 32.2040651,99.789074 34.6790484,102.024101 C31.6711332,104.392664 31.3471198,106.261201 33.7070082,107.62971 C36.0668965,108.99822 39.7641026,108.368115 44.7986265,105.739394 C48.5878157,108.232057 51.2941957,109.478388 52.9177664,109.478388 C54.5413372,109.478388 55.5668977,108.232057 55.9944481,105.739394 C57.2614559,107.615999 58.5292049,108.661569 59.7976952,108.876103 C61.0661854,109.090637 62.8007011,108.552827 65.0012422,107.262672 C66.756608,108.963652 67.9840992,109.901606 68.6837158,110.076536 C69.3833324,110.251465 70.3067702,109.851321 71.4540294,108.876103 C73.6271122,110.317005 75.6443502,110.889683 77.5057434,110.594138 C79.3671366,110.298592 80.7371126,109.188103 81.6156714,107.262672 C85.9788992,107.057037 88.3258528,105.769857 88.6565322,103.401132 C88.9872115,101.032406 87.1246313,98.8499201 83.0687914,96.8536725 C83.4445317,94.6222267 82.9601584,93.1296495 81.6156714,92.3759409 C80.2711845,91.6222323 78.6258732,91.790882 76.6797375,92.8818898 C74.1920265,90.0191607 71.9193569,88.5219396 69.8617287,88.3902264 C67.8041005,88.2585132 65.5651585,89.4669364 63.1449028,92.0154961 C62.1386682,90.3414585 60.944293,89.5044398 59.5617771,89.5044398 C58.1792612,89.5044398 56.6127086,90.3414585 54.8621193,92.0154961 C52.8498179,90.9328888 51.2117609,90.4621119 49.9479482,90.6031655 C48.6841355,90.7442191 47.7346194,91.5037939 47.0993997,92.8818898 C46.0207525,92.1572234 44.9416439,91.8684255 43.8620741,92.0154961 C42.7825042,92.1625667 41.8214381,92.7292991 40.9788756,93.7156933 Z" id="Path-102" stroke="#372400" stroke-width="1.41466884" stroke-linecap="round" stroke-linejoin="round"></path>
                    <path d="M30.7621222,8.86167663 C30.7621222,8.86167663 32.5187783,6.29197272 37.6526222,4.09110259 C38.8085764,3.59554702 41.1054097,3.2164413 44.5431223,2.95378543 C48.1162604,1.04298995 51.4417361,0.0875922131 54.5195494,0.0875922131 C57.5973628,0.0875922131 60.4343396,1.42209567 63.03048,4.09110259 C66.3599066,3.41760689 68.873364,3.27302072 70.5708522,3.65734407 C72.2683404,4.04166742 74.1090011,5.17205676 76.0928342,7.04851211 C79.4364693,7.13113278 82.1693841,7.73552095 84.2915788,8.86167663 C86.4137735,9.98783231 88.0867501,12.0713101 89.3105087,15.1121101 C94.0061767,15.9506329 97.1498016,17.8471879 98.7413832,20.8017749 C100.332965,23.756362 100.332965,27.2686386 98.7413832,31.3386047 C102.106397,34.3252651 103.788904,37.2494467 103.788904,40.1111496 C103.788904,42.9728526 102.715314,45.4911153 100.568135,47.6659377 C101.949789,50.4129467 102.29546,52.658202 101.605148,54.4017034 C100.914836,56.1452049 99.2856479,57.713843 96.7175837,59.1076178 C95.9399523,63.1760444 93.9268424,66.6228916 90.678254,69.4481594 C87.4296657,72.2734271 81.2602585,74.3708889 72.1700324,75.7405446 C70.7719644,77.6833161 69.140458,78.943153 67.2755133,79.5200555 C65.4105686,80.0969579 62.2058975,80.3331453 57.6615,80.2286175 C56.7934582,80.7895144 55.7461414,81.0699628 54.5195494,81.0699628 C53.2929575,81.0699628 52.3838318,80.7895144 51.7921725,80.2286175 C47.6880686,81.8112922 44.5960884,82.5605232 42.5162319,82.4763103 C40.4363754,82.3920975 37.8765537,81.4066792 34.8367669,79.5200555 C30.9341851,79.5200555 28.3109989,79.1766152 26.9672084,78.4897346 C25.623418,77.8028541 24.4581299,76.5949758 23.4713441,74.8660997 C19.6854782,73.7127749 17.1769148,72.5356869 15.9456539,71.3348358 C14.714393,70.1339847 13.923625,68.0932284 13.5733498,65.212567 C9.15715516,62.7193215 6.65670549,60.2627677 6.0720008,57.8429057 C5.48729611,55.4230437 6.10381183,53.0342287 7.92154794,50.6764605 C6.68851652,46.6313832 6.36177736,43.1096129 6.94133046,40.1111496 C7.52088357,37.1126864 9.36837007,35.0805258 12.48379,34.0146678 C11.2466373,24.7927126 12.1363157,18.2636268 15.1528252,14.4274105 C19.6775895,8.67308597 30.7621222,8.86167663 30.7621222,8.86167663 Z" id="Path-103" stroke="#372400" stroke-width="1.41466884" fill="#FFFFFF"></path>
                    <g id="Group" transform="translate(93.260824, 44.329574) scale(-1, 1) rotate(8.000000) translate(-93.260824, -44.329574) translate(89.570137, 38.461384)">
                        <g id="Group-3">
                            <path d="M6.06915136,3.4998515 C3.98978065,0.780680271 2.46707898,0.131231312 1.50104634,1.55150463 C0.0519973851,3.6819146 1.50104634,10.5421608 3.78509885,11.2421526 C5.30780052,11.7088139 6.39449631,10.7321948 7.04518622,8.31229546 L6.06915136,3.4998515 Z" id="Path-127" fill="#FFE1D6"></path>
                            <path d="M6.63374676,3.07142437 C6.69877054,3.15645529 6.74359293,3.25506639 6.76484277,3.35984102 C7.09779764,6.85580464 7.26705774,8.64184544 7.27262308,8.71796342 C7.54367993,12.4252458 6.99598916,9.60622054 6.82695361,9.96115123 C6.0152463,11.6655254 4.73780731,12.0311418 3.08823956,11.5256 C1.69822454,11.0996032 0.949354947,9.05901945 0.388566434,6.5727352 C-0.150170919,4.18421589 0.0908791184,2.36430816 0.913469033,1.15492614 C1.58459562,0.168227409 2.56852073,-0.13651924 3.64695459,0.323444628 C4.54698414,0.707317099 5.52612581,1.62300009 6.63374676,3.07142437 Z M3.08823956,1.62332809 C2.64397175,1.433843 1.6945218,1.41333952 1.27117112,2.23057576 C0.196971342,4.30421127 1.84530799,10.5369783 3.57639492,11.0675032 C4.60164839,11.3817119 6.3924361,10.6765483 6.94771948,8.71796342 L5.90157795,3.35984102 C4.97273057,2.16522053 3.68975867,1.87988259 3.08823956,1.62332809 Z" id="Path-127" fill="#372400" fill-rule="nonzero"></path>
                            <path d="M2.4822318,6.10167496 C2.04238108,4.6377579 2.04238108,3.71430758 2.4822318,3.33132398 C2.92208252,2.94834038 3.79506084,3.11167741 5.10116676,3.82133508 C4.52160793,3.82376993 3.99958946,4.02720085 3.53511135,4.43162784 C3.07063323,4.83605482 2.71967338,5.39273719 2.4822318,6.10167496 Z" id="Path-128" fill="#E5AA94"></path>
                        </g>
                    </g>
                    <path d="M19.2529923,46.7829669 C22.4192477,61.6873762 25.484816,70.5149089 28.4496971,73.2655648 C32.8970188,77.3915487 50.8586638,80.1648878 61.1324134,77.8646154 C71.406163,75.564343 82.249078,69.9046124 86.5584576,61.1224545 C89.4313774,55.2676826 88.4325,46.0900993 83.5618254,33.5897046 C71.3145504,25.0421214 59.5038289,21.9350622 48.1296609,24.2685267 C36.7554929,26.6019912 27.1299367,34.1068046 19.2529923,46.7829669 Z" id="Path-99" stroke="#372400" stroke-width="1.41466884" fill="#FFE1D6" stroke-linecap="round" stroke-linejoin="round"></path>
                    <path d="M56.2250733,34.353388 C53.3269266,37.3325324 49.7696441,38.9399678 45.5532259,39.1756942 C41.3368077,39.4114207 37.1047288,38.2394635 32.8569893,35.6598227 C35.6175255,38.2393638 36.470538,40.8634537 35.4160267,43.5320924 C33.8342597,47.5350505 26.3066799,53.072011 25.7163436,55.697236 C25.1260073,58.3224611 26.5493558,65.1692521 26.5493558,66.9055328 C26.5493558,68.0630533 26.0744459,69.3239728 25.124626,70.6882913 C23.5936466,68.9933412 22.6008501,67.4848346 22.1462365,66.1627715 C21.38937,63.9617259 21.6264212,61.1546813 20.784151,57.8141204 C19.1830136,51.4637861 17.9573558,45.1557367 17.1071775,38.8899722 C25.4974688,20.4000313 38.2241474,11.4454364 55.2872132,12.0261877 C72.350279,12.6069389 83.1012909,21.4353683 87.5402488,38.5114757 C89.3064752,45.9072124 90.0705956,50.7795036 89.8326101,53.1283492 C89.4756319,56.6516178 89.4023685,57.0419928 89.0608576,57.8141204 C88.7193468,58.586248 87.2097785,55.0571113 86.3869373,53.5038552 C85.5640961,51.9505991 83.7291915,51.0016409 83.1097283,48.0362411 C82.6967529,46.059308 82.9032406,44.0950301 83.7291915,42.1434076 C81.1346179,42.1827549 79.2797009,41.9719937 78.1644405,41.5111241 C77.0491801,41.0502546 74.8130332,39.5704268 71.4559998,37.0716408 C68.9098753,37.7675238 66.4138652,37.980951 63.9679695,37.7119225 C61.5220739,37.4428941 58.9411085,36.3233825 56.2250733,34.353388 Z" id="Path-106" fill="#FFFFFF"></path>
                    <path d="M84.7454875,41.387907 C83.8133176,42.6020876 83.2323122,43.6335572 83.0024714,44.4823155 C82.7726307,45.3310738 82.7726307,46.4451471 83.0024714,47.8245353 L89.3780273,57.9395448 C88.7131736,53.4401675 87.6218509,50.3923406 86.1040591,48.7960641 C84.5862673,47.1997875 84.1334101,44.7304018 84.7454875,41.387907 Z" id="Path-126" fill="#D8D8D8"></path>
                    <path d="M64.4951777,50.2824873 C68.1954034,46.8678016 70.8388971,45.0248735 72.4256589,44.7537032 C74.0124207,44.4825328 75.9387772,45.2716574 78.2047282,47.1210768 C77.7766762,47.4506657 77.4020518,47.6301806 77.0808548,47.6596214 C76.7596578,47.6890623 76.3714852,47.5533679 75.9163371,47.2525384 C75.2744463,46.3795222 74.1108869,45.9647399 72.4256589,46.0081915 C70.7404309,46.0516431 68.3691979,47.4764084 65.3119598,50.2824873 C65.131319,50.4404199 64.9452384,50.5193862 64.753718,50.5193862 C64.5621977,50.5193862 64.4760176,50.4404199 64.4951777,50.2824873 Z" id="Path-107" fill="#372400"></path>
                    <path d="M70.9927654,39.9891873 C71.6895847,40.1434599 72.6128315,40.4508533 73.7625057,40.9113678 C74.3184846,41.5099561 74.3184846,41.7969612 73.7625057,41.772383 C72.9285373,41.7355157 72.220795,41.0623469 70.9927654,40.7293948 C69.7647358,40.3964427 68.7115635,40.4547028 68.2230252,40.2704798 C67.7344869,40.0862567 69.9475365,39.7577785 70.9927654,39.9891873 Z" id="Path-108" fill="#372400"></path>
                    <path d="M46.6253463,53.7179354 C46.6253463,53.9356556 46.5617199,54.0981178 46.4344673,54.2053222 C46.3072147,54.3125266 46.1121286,54.2589244 45.849209,54.0445156 C42.7700647,52.5386381 40.0686372,51.8535827 37.7449266,51.9893495 C35.421216,52.1251162 33.1445153,53.0426308 30.9148245,54.7418932 C30.6791069,54.8265962 30.4805295,54.7450393 30.3190924,54.4972226 C30.1576553,54.249406 30.2834098,53.9478937 30.696356,53.5926858 C33.2650162,52.0431056 35.6613067,51.1590487 37.8852275,50.9405151 C40.1091484,50.7219814 43.0225213,51.6477882 46.6253463,53.7179354 Z" id="Path-109" fill="#372400"></path>
                    <path d="M32.8231634,47.9473936 C33.8076568,47.9473936 35.4604709,46.8421134 37.7816057,44.6315531 C37.8881013,44.4738736 37.8881013,44.3276722 37.7816057,44.192949 C37.6751101,44.0582257 37.5306241,44.0582257 37.3481478,44.192949 C33.3469981,46.695912 31.83867,47.9473936 32.8231634,47.9473936 Z" id="Path-110" fill="#372400"></path>
                    <path d="M55.3635489,62.4574699 C54.9301243,62.2500237 55.6828742,59.527707 56.7842116,59.0193062 C57.8855489,58.5109054 60.6977837,59.6201516 60.5165494,59.8765866 C60.335315,60.1330215 58.9298731,59.1180522 57.4153808,59.8765866 C55.9008885,60.6351209 55.7969736,62.664916 55.3635489,62.4574699 Z" id="Path-101" fill="#372400"></path>
                    <path d="M48.0424456,67.1275755 C52.932196,67.2306626 56.838465,66.7769588 59.7612525,65.766464 C62.68404,64.7559693 65.807627,62.8946745 69.1320133,60.1825795 C66.8193704,65.1259375 65.2995766,67.909048 64.5726318,68.5319112 C63.4822147,69.4662058 58.3228712,71.7248984 57.5057993,71.7248984 C56.9610846,71.7248984 53.8066334,70.1924575 48.0424456,67.1275755 Z" id="Path-111" fill="#FFC1A8"></path>
                    <path d="M57.7168631,71.4781793 C59.8326884,71.4781793 63.5217655,69.0314044 64.4898848,68.2018974 C65.0702208,67.704652 67.7143409,64.1759246 68.5394463,61.0147152 C65.7060427,63.1557979 62.4919842,65.5847897 59.9418383,66.4664511 C57.3238172,67.371579 53.3619031,67.4737446 49.2292797,67.5018075 C53.8729201,69.9457059 55.6010379,71.4781793 57.7168631,71.4781793 Z M48.0514562,66.703464 C52.8947952,66.8055726 56.7531126,66.3574383 59.6216245,65.3657083 C62.4925696,64.373137 65.5739773,62.536976 68.8621932,59.8543896 C69.2125628,59.5685517 69.7093028,59.9528614 69.518005,60.3617674 C67.1674954,65.3860669 65.6465417,68.1713014 64.8503277,68.853516 C63.739507,69.8052929 58.4831717,72.1491049 57.5057993,72.1491049 C56.8462863,72.1491049 53.787497,70.6631367 47.8419188,67.5018075 C47.4466079,67.2916164 47.6034564,66.6940191 48.0514562,66.703464 Z" id="Path-111" fill="#372400" fill-rule="nonzero"></path>
                    <path d="M34.1774431,28.181106 C36.1569153,27.838004 37.5638562,26.5679543 38.398266,24.370957 C39.6498806,21.075461 35.9659579,7.35521799 25.4917007,5.52281792 C15.0174434,3.69041786 8.8066515,8.40836115 5.57074422,13.5677806 C2.40317539,18.6182393 -3.58566615,34.2860975 8.35016239,40.3627314 C20.2859909,46.4393653 32.5665222,39.8292436 34.1774431,35.4540622 C35.2513904,32.5372745 35.2513904,30.1129558 34.1774431,28.181106 Z" id="Path-104" fill="#F1C262"></path>
                    <path d="M37.3242738,16.5718791 C36.9498125,20.774896 36.5073761,23.4262319 35.9969646,24.5258869 C35.4865531,25.6255419 34.6039778,25.8288746 33.3492387,25.1358851 L34.4740186,28.3841919 L37.0387711,26.9154429 L38.3674057,24.5258869 L38.6446905,21.3705322 L37.3242738,16.5718791 Z" id="Path-121" fill="#D0A141"></path>
                    <path d="M33.402876,26.4458071 L35.2804668,31.6505918 L33.9329111,35.5894539 L32.3935231,38.2506137 L27.8778449,41.0918717 L22.5039145,42.6713955 L16.7160995,43.0255711 L11.5458266,42.0423607 L6.48644857,39.4469053 L2.43905122,35.0109409 C1.72252717,32.5914825 1.99573482,32.1368743 3.25867415,33.6471161 C5.15308315,35.9124788 9.1310231,39.3407559 14.6926636,40.4811609 C20.2543041,41.621566 25.2224138,40.9293122 28.3763459,38.7974525 C31.530278,36.6655928 32.379235,34.1659753 33.402876,31.6505918 C34.0853033,29.9736694 34.0853033,28.2387412 33.402876,26.4458071 Z" id="Path-122" fill="#D0A141"></path>
                    <path d="M20.2679294,16.0060346 C19.5625269,17.485878 15.782885,19.0009177 14.4631793,21.2170825 C13.1434736,23.4332473 13.2628315,27.2181995 12.4057226,27.2181995 C11.8343166,27.2181995 11.571164,25.8845057 11.6162648,23.2171182 L13.2043051,19.4060756 L16.6122212,16.7086701 C19.5196283,15.2536842 20.7381977,15.0194724 20.2679294,16.0060346 Z" id="Path-124" fill="#FFE1A3"></path>
                    <path d="M21.9614192,26.2967231 C20.8642011,28.3610945 19.64389,29.5861256 18.3004861,29.9718166 C16.9570821,30.3575076 15.2370826,29.9766391 13.1404874,28.8292109 L14.4569439,30.8419338 L16.448187,31.9607049 L18.3004861,31.9607049 L20.2396683,31.2018639 L21.4241399,29.128714 L21.9614192,26.2967231 Z" id="Path-123" fill="#D0A141"></path>
                    <path d="M34.8437848,35.6975176 C33.8937016,38.2778967 30.0448136,41.0827831 25.3417291,42.5043774 C19.7348055,44.1991737 13.6266228,43.8430193 8.02716434,40.9922864 C2.37822778,38.1163637 -0.402957872,32.4784974 0.0855432549,26.0153021 C0.44019716,21.3229947 2.20721793,16.8613373 4.34364434,13.4549604 C6.20604316,10.4855006 9.36142711,7.82359442 12.504389,6.28855259 C16.1796361,4.49353941 20.5585709,3.94196948 25.6144679,4.82646428 C30.5728684,5.69390271 34.4606844,9.14229095 36.9751079,14.0782943 C38.9813168,18.0166342 39.8363487,22.5825244 39.0620935,24.6211351 C38.2691118,26.7090524 36.9665438,28.0733415 35.1858882,28.6579378 C35.9655174,30.6327336 35.8413183,32.9882658 34.8437848,35.6975176 Z M34.0557744,27.4845611 C35.7749929,27.1865688 36.9848586,26.0944196 37.7344385,24.1207788 C38.3380724,22.5314132 37.5525399,18.3366512 35.7092627,14.7181586 C33.3803316,10.1462909 29.8333182,7.00018532 25.3689334,6.21917156 C20.6018603,5.38520455 16.5276822,5.89838738 13.1292934,7.55818129 C10.2371713,8.97071143 7.90090877,11.1868468 6.17267221,13.9423946 C4.15166073,17.1647508 1.8608354,22.1360412 1.52457197,26.5850304 C1.07568477,32.524107 3.37373727,37.2450268 8.46007684,39.8345264 C13.7175397,42.5111465 19.2738866,43.2885702 24.5427912,41.6959463 C28.8614392,40.3905551 32.4248762,37.7868057 33.1941421,35.6975176 C34.2026414,32.9584834 34.4510503,30.6191217 33.7107195,28.3084988 C33.562101,27.8446503 33.5750526,27.5678846 34.0557744,27.4845611 Z" id="Path-104" fill="#372400" fill-rule="nonzero"></path>
                    <path d="M66.8743983,18.7991123 C66.3959677,12.930291 68.8559176,2.94418338 85.1136293,1.774368 C101.371341,0.60455263 108.481782,17.773132 105.655473,27.0108093 C102.829165,36.2484866 88.9179967,39.9252445 83.9921669,39.3066894 C79.0663371,38.6881344 75.1554543,34.6339749 73.9363841,32.2352336 C73.1236706,30.6360727 73.1236706,28.1532954 73.9363841,24.7869018 C69.5473473,24.7075896 67.1933521,22.7116598 66.8743983,18.7991123 Z" id="Path-105" fill="#F1C262"></path>
                    <path d="M67.1080114,18.2905525 C68.4453484,13.538502 70.8310591,9.75423863 74.2651434,6.93776228 C77.6992277,4.12128594 82.1130254,2.32890864 87.5065364,1.56063041 C81.0248382,1.52332086 76.0417197,2.93359451 72.5571808,5.79145135 C69.0726419,8.64930819 67.2562521,12.8156752 67.1080114,18.2905525 Z" id="Path-120" fill="#FFE1A3"></path>
                    <path d="M90.162656,12.9641508 C93.2927858,18.227435 93.468695,22.1500728 90.6903837,24.732064 C87.9120724,27.3140553 85.1278933,26.6289088 82.3378464,22.6766245 C82.4332404,26.8807388 85.5567567,27.9822696 91.7083954,25.9812168 C95.5309065,19.8224521 95.01566,15.4834301 90.162656,12.9641508 Z" id="Path-119" fill="#D0A141"></path>
                    <path d="M102.211617,10.1695125 C104.874562,21.681887 103.357803,29.580763 97.6613406,33.8661405 C91.9648778,38.151518 84.5756977,38.3676095 75.4938003,34.5144149 C80.7145893,41.0929321 89.0814142,41.0929321 100.594275,34.5144149 C107.836203,28.5861253 108.375317,20.4711578 102.211617,10.1695125 Z" id="Path-118" fill="#D0A141"></path>
                    <path d="M67.5818172,18.7418868 C67.8699669,22.2765676 69.9108724,24.0070316 73.9492571,24.0800073 C74.403009,24.0882068 74.7325717,24.5126718 74.6264569,24.9522166 C73.8494508,28.1707044 73.8494508,30.4988541 74.5696099,31.9158974 C75.1930205,33.1425706 76.1245622,34.778181 77.6681564,36.0077826 C79.5228806,37.4852253 81.7774832,38.6364609 83.9033987,38.9034201 C86.4766324,39.2265508 91.0847222,38.5790731 95.097122,36.7775396 C100.030125,34.5626631 104.314093,31.1819498 105.527209,27.2169279 C106.915063,22.6807848 105.441325,15.8050662 102.179814,10.8035104 C98.44958,5.08316348 92.2689273,1.29723819 85.0624953,1.81577334 C77.8262605,2.33645294 73.0781409,5.30501545 70.2821165,8.953614 C68.1236266,11.7702786 67.2998535,15.2830899 67.5818172,18.7418868 Z M66.1669795,18.8563377 C65.8585245,15.0725766 66.7630668,11.2153421 69.1538044,8.09561184 C72.2140226,4.1022606 77.4432913,1.61743048 85.0624953,1.06919453 C92.808056,0.511866646 99.6446709,3.74480089 103.645511,9.88012377 C107.125531,15.2167648 107.850705,22.2609124 106.33439,27.2169279 C104.983266,31.6330223 101.174256,35.1325544 95.9027884,37.4993987 C91.6687633,39.4004402 86.7616326,40.3670679 83.9033987,40.0081487 C81.4966482,39.7059239 79.1773217,38.6207878 77.1309774,36.9907037 C75.4348754,35.6396168 74.0224877,33.9699806 73.3031583,32.5545698 C72.4706698,30.916498 72.4037415,28.5544238 73.0581643,25.4521959 C68.8591121,25.1171907 66.4948513,22.8782808 66.1669795,18.8563377 Z" id="Path-105" fill="#372400" fill-rule="nonzero"></path>
                    <path d="M35.6222575,31.2132676 C35.7018518,31.5956043 35.4552309,31.9698245 35.0714143,32.0491119 C34.6875976,32.1283993 34.5205665,31.5956043 34.4409722,31.2132676 C32.6109782,22.4227658 28.6622877,17.365731 23.7558977,16.2773605 C20.3471899,15.5212166 16.6580501,16.8097616 14.4100411,18.7951952 C12.4224642,20.5506161 11.8430788,23.6940927 12.1871421,25.6738031 C12.8746487,29.629657 16.1439967,32.0868018 18.721275,31.52435 C20.3349722,31.1721852 20.9529241,28.9299452 21.1777152,26.3178426 C21.2111954,25.9287983 21.5549401,25.640452 21.9454904,25.6738031 C22.3360407,25.7071542 22.6255032,26.0495733 22.592023,26.4386177 C22.3192307,29.6085002 21.0306383,31.543478 18.721275,32.0474614 C15.2440325,32.8063166 12.1871421,30.3061844 11.2761914,25.2440773 C10.8270991,22.7484938 12.0755333,19.8131925 14.4100411,17.7513635 C16.9954084,15.4679763 20.5498045,14.5190106 24.4075917,15.3747725 C29.9721044,16.6091325 33.6911859,21.9372323 35.6222575,31.2132676 Z" id="Path-116" fill="#372400" fill-rule="nonzero"></path>
                    <path d="M73.945181,28.365217 C73.915144,28.7545402 73.5739638,29.0458931 73.1831336,29.015972 C72.7923034,28.9860508 72.7129262,28.7545402 72.7429631,28.365217 C73.2009155,22.4294781 75.6010052,17.7112623 78.684885,14.9577542 C83.1102103,11.0065078 86.994394,10.9506812 91.1525806,12.7807122 C95.2244073,14.5727359 95.5220941,21.6156168 92.6648818,25.3691344 C91.3506097,27.0956927 88.6678826,27.435702 87.1285668,27.435702 C85.589251,27.435702 83.0421677,26.9776328 82.3447832,25.5218415 C81.4911906,23.7399654 81.1694446,22.393488 82.0671094,21.0068193 C82.279543,20.6786621 82.7188082,20.5841857 83.0482356,20.7958002 C83.377663,21.0074147 83.4725051,21.444986 83.2600715,21.7731432 C82.6497599,22.7159228 82.6497599,23.8274781 83.3041436,25.1935052 C83.6982948,26.0162964 85.1763657,26.9337781 87.1285668,26.8616983 C89.2693648,26.7826551 91.3719946,25.6284239 92.398503,24.2799005 C94.7348327,21.2106659 93.6320192,14.7246649 90.456766,13.3272259 C86.8464459,11.7383127 82.6207756,11.8828305 79.3195345,15.9341269 C77.3229092,18.3843936 74.377405,22.7629551 73.945181,28.365217 Z" id="Path-117" fill="#372400" fill-rule="nonzero"></path>
                    <path d="M35.613568,44.5308082 C34.9498792,45.8042444 33.8293748,47.2481483 32.1041002,49.1670008 C31.7815811,49.5257069 31.4388657,49.9003046 31.0324284,50.3395479 C30.824617,50.564133 29.6448465,51.8315221 29.32084,52.1830739 C28.6940508,52.8631493 28.2201528,53.3921502 27.8129652,53.8711814 C26.8651699,54.9862044 26.3291282,55.7856959 26.2066861,56.266557 C25.9882305,57.1244876 26.1117447,58.9999659 26.5183123,61.8987993 C26.5758338,62.3089291 26.6386164,62.7388774 26.7136285,63.2394326 C27.3902899,67.7547868 27.3646914,67.5686097 27.3379526,68.2556052 C27.2823322,69.6846518 26.3781662,70.9790287 24.7052951,72.1432375 C24.3839634,72.3668633 23.6825628,72.4633301 23.4580714,72.1432375 C23.2335799,71.8231449 23.571008,71.2077054 23.8923397,70.9840795 C25.2346061,70.04995 25.8837205,69.1206972 25.9195233,68.2008229 C25.9406341,67.658427 25.940731,67.6591318 25.3096903,63.4482044 C25.2340728,62.9436096 25.1706791,62.5094759 25.1124714,62.0944538 C24.6756581,58.9799674 24.5473625,57.0318874 24.8307631,55.9189012 C25.0243167,55.1587673 25.643629,54.2350799 26.7296582,52.9574332 C27.15134,52.4613505 27.63667,51.9195882 28.2751965,51.2267778 C28.6021247,50.8720559 29.7832099,49.6032545 29.9886857,49.3811935 C30.3908932,48.9465214 30.7292642,48.5766723 31.0467142,48.2236039 C32.6970324,46.3881181 33.7602107,45.0180857 34.3537403,43.8792658 C35.5744794,41.5370035 35.3681927,39.401729 33.7222879,37.3393642 C33.2678539,36.7699458 33.8689406,35.9703636 34.5453451,36.2445108 C39.3689813,38.1995336 43.3317043,39.3106483 46.7042578,38.8896849 C50.042374,38.4730199 52.7685739,35.6729649 55.2062084,33.0264646 C55.4429563,32.7694312 55.8325151,32.7228184 56.1236346,32.9166894 C58.9426386,34.7940049 60.0554813,36.6267486 63.2761192,37.3393642 C66.4967572,38.0519799 67.9032411,37.0633338 71.0391781,36.2169827 C71.2650414,36.156025 71.506553,36.2098862 71.6847629,36.3609592 C74.9616634,39.138869 77.1812493,41.3093776 78.5174678,41.6483527 C79.8869042,41.9957546 81.79176,41.3936108 83.9580151,41.0339605 C84.6181736,40.9243583 85.0497935,41.702425 84.6053402,42.2008717 C83.267474,43.701266 82.8957894,45.3206275 83.4615193,47.1498719 C83.746405,48.0710283 84.1876969,48.7746345 86.3936242,52.0184766 C86.6056286,52.3302315 86.781547,52.590866 86.9483778,52.8409731 C88.0211013,54.4491635 88.7092515,55.6193657 89.1519437,56.6746214 C89.7510026,58.1026122 89.8511028,59.2497651 89.2689373,60.128266 C89.0529882,60.4541383 88.6127326,60.5439236 88.2855989,60.3288071 C87.9584653,60.1136906 87.8683324,59.6751326 88.0842816,59.3492604 C88.6074495,58.5597881 87.8425714,56.7365303 85.7660868,53.6235355 C85.601901,53.3773937 85.4282174,53.1200702 85.2183944,52.8115229 C85.2733562,52.8923449 84.4595074,51.6990163 84.2438109,51.3792526 C83.8820439,50.8429438 83.5969164,50.4088308 83.3448553,50.0069388 C82.7123158,48.998403 82.3072082,48.2202013 82.1049425,47.5661906 C81.5618623,45.810182 81.715565,44.155789 82.5533671,42.6430965 C80.9172957,42.7945274 79.087174,42.9473708 77.8877435,42.6430965 C76.316162,42.2444139 74.3412051,40.4442653 71.0488932,37.6776168 C67.9048654,38.4956004 65.3179046,38.7616898 63.2761192,38.4641072 C61.2660926,38.1711533 58.8879446,37.1286858 56.1236346,35.3456252 C53.5489578,37.9674511 50.5072856,39.5042935 47.0192365,39.9396731 C43.8576848,40.3342991 40.1761914,39.7833507 35.9706804,38.2985564 C36.8543602,40.2779076 36.7371645,42.3749359 35.613568,44.5308082 Z" id="Path-125" fill="#372400" fill-rule="nonzero"></path>
                    <path d="M20.9738492,58.9294938 C18.8944785,56.2103225 17.3717768,55.5608736 16.4057442,56.9811469 C14.9566952,59.1115569 16.4057442,65.9718031 18.6897967,66.6717949 C20.2124984,67.1384562 21.2991942,66.1618371 21.9498841,63.7419377 L20.9738492,58.9294938 Z" id="Path-127" fill="#FFE1D6"></path>
                    <path d="M21.5384446,58.5010666 C21.6034684,58.5860976 21.6482908,58.6847087 21.6695406,58.7894833 C22.0024955,62.2854469 22.1717556,64.0714877 22.1773209,64.1476057 C22.4483778,67.8548881 21.900687,65.0358628 21.7316515,65.3907935 C20.9199442,67.0951677 19.6425052,67.4607841 17.9929374,66.9552423 C16.6029224,66.5292455 15.8540528,64.4886617 15.2932643,62.0023775 C14.7545269,59.6138582 14.995577,57.7939504 15.8181669,56.5845684 C16.4892935,55.5978697 17.4732186,55.293123 18.5516524,55.7530869 C19.451682,56.1369594 20.4308237,57.0526424 21.5384446,58.5010666 Z M17.9929374,57.0529704 C17.5486696,56.8634853 16.5992196,56.8429818 16.175869,57.660218 C15.1016692,59.7338535 16.7500058,65.9666206 18.4810928,66.4971455 C19.5063462,66.8113542 21.2971339,66.1061906 21.8524173,64.1476057 L20.8062758,58.7894833 C19.8774284,57.5948628 18.5944565,57.3095249 17.9929374,57.0529704 Z" id="Path-127" fill="#372400" fill-rule="nonzero"></path>
                    <path d="M17.3869296,61.5313172 C16.9470789,60.0674002 16.9470789,59.1439499 17.3869296,58.7609663 C17.8267804,58.3779827 18.6997587,58.5413197 20.0058646,59.2509774 C19.4263058,59.2534122 18.9042873,59.4568431 18.4398092,59.8612701 C17.9753311,60.2656971 17.6243712,60.8223795 17.3869296,61.5313172 Z" id="Path-128" fill="#E5AA94"></path>
                    <path d="M39.1202816,63.0066241 C37.6713458,60.7474571 26.7629716,63.8332141 23.7325383,66.0325757 C20.702105,68.2319372 19.7116308,73.3748839 26.8390744,71.2204466 C33.966518,69.0660094 40.5692174,65.2657912 39.1202816,63.0066241 Z" id="Path-129" fill="#EB6262"></path>
                    <path d="M72.1684835,56.7119448 C72.1684835,53.5226205 84.4287509,51.4751534 88.9238542,51.6449679 C93.4189576,51.8147824 97.4470766,55.9938163 92.7139138,57.4881032 C87.980751,58.9823901 72.1684835,59.901269 72.1684835,56.7119448 Z" id="Path-130" fill="#EB6262"></path>
                    <polygon id="Path-131" stroke="#372400" stroke-width="1.41466884" fill="#FFFFFF" stroke-linecap="round" stroke-linejoin="round" points="41.3246305 82.4382454 42.9326798 96.4966162 49.299688 95.4690285 44.1352113 82.4382454"></polygon>
                    <ellipse id="Oval-2" fill="#372400" cx="45.2818916" cy="93.0426138" rx="1.41949503" ry="1.41402149"></ellipse>
                    <polygon id="Path-132" stroke="#372400" stroke-width="1.41466884" fill="#FFFFFF" stroke-linecap="round" stroke-linejoin="round" points="69.6381035 78.0982172 66.4838538 93.0665826 73.1643019 93.968237 72.3584132 75.6916083"></polygon>
                    <ellipse id="Oval-2-Copy" fill="#372400" cx="69.9811051" cy="90.2145708" rx="1.41949503" ry="1.41402149"></ellipse>
                </g>
            </g>
        </g>
    </g>
</svg>