<?xml version="1.0" encoding="UTF-8"?>
<svg width="152px" height="212px" viewBox="0 0 152 212" version="1.1" xmlns="http://www.w3.org/2000/svg" xmlns:xlink="http://www.w3.org/1999/xlink">
    <!-- Generator: Sketch 51 (57462) - http://www.bohemiancoding.com/sketch -->
    <title>女/双子座</title>
    <desc>Created with Sketch.</desc>
    <defs>
        <filter x="-7.5%" y="-3.8%" width="115.0%" height="110.5%" filterUnits="objectBoundingBox" id="filter-1">
            <feOffset dx="0" dy="3" in="SourceAlpha" result="shadowOffsetOuter1"></feOffset>
            <feGaussianBlur stdDeviation="3" in="shadowOffsetOuter1" result="shadowBlurOuter1"></feGaussianBlur>
            <feColorMatrix values="0 0 0 0 0.57254902   0 0 0 0 0.384313725   0 0 0 0 0.984313725  0 0 0 0.2 0" type="matrix" in="shadowBlurOuter1" result="shadowMatrixOuter1"></feColorMatrix>
            <feMerge>
                <feMergeNode in="shadowMatrixOuter1"></feMergeNode>
                <feMergeNode in="SourceGraphic"></feMergeNode>
            </feMerge>
        </filter>
        <rect id="path-2" x="5" y="5" width="130" height="190" rx="4"></rect>
    </defs>
    <g id="星座配对" stroke="none" stroke-width="1" fill="none" fill-rule="evenodd">
        <g id="女/双子座" filter="url(#filter-1)" transform="translate(6.000000, 3.000000)">
            <rect id="Rectangle-2-Copy-3" fill="#FFFFFF" fill-rule="nonzero" x="0" y="0" width="140" height="200" rx="4"></rect>
            <mask id="mask-3" fill="white">
                <use xlink:href="#path-2"></use>
            </mask>
            <rect stroke="#EF6E6E" x="4.5" y="4.5" width="131" height="191" rx="4"></rect>
            <g id="双子座-copy" mask="url(#mask-3)">
                <g transform="translate(5.000000, 37.000000)">
                    <path d="M37.6446402,96.3 L66.8848077,75.1575134 L94.3038344,73.9247022 L88.1076184,47.3844256 C91.2820619,44.07366 93.3474673,41.421985 94.3038344,39.4294006 C95.2602015,37.4368162 97.5543257,29.8244169 101.186207,16.5922027 C92.0459734,16.6851426 84.881297,17.2509131 79.6921778,18.289514 C74.5030586,19.328115 69.6786144,20.8386391 65.2188452,22.8210864 C61.7279607,17.0448135 58.7246331,12.7801128 56.2088623,10.0269844 C53.6930916,7.27385604 49.2826953,3.93152789 42.9776736,0 C38.0925379,7.0068619 34.7703538,12.5375961 33.0111214,16.5922027 C31.2518889,20.6468093 29.4370674,26.439054 27.5666567,33.968937 C22.2644795,37.0683492 18.4071845,39.6514008 15.9947716,41.7180916 C13.5823588,43.7847824 8.25076821,49.4676657 0,58.7667413 C4.96437685,62.3399449 9.02689135,64.8599798 12.1875435,66.3268461 C15.3481956,67.7937124 21.087752,69.9499776 29.4062127,72.7956417 C30.7475916,78.923541 31.9492279,83.5022897 33.0111214,86.531888 C34.0730149,89.5614862 35.6175212,92.8175236 37.6446402,96.3 Z" id="Path-237" stroke="#372400" stroke-width="1.53739537" fill="#FFF686" fill-rule="evenodd"></path>
                    <path d="M67.7996478,41.7452864 L42.1996503,41.7452864 C37.6057023,62.5610618 34.6951166,73.6083028 33.4678933,74.8870092 C33.1106735,75.2592147 28.4393356,71.9123736 27.6548359,65.1985593 C26.8703361,58.4847449 23.657706,51.2222739 36.8802967,40.8570336 C45.6953571,33.9468735 56.0018075,34.2429577 67.7996478,41.7452864 Z" id="Path-269" stroke="none" fill="#D0C542" fill-rule="evenodd"></path>
                    <path d="M51.7959063,35.7477763 C33.7407848,40.3935981 26.3039993,55.4038693 31.3687066,70.9405683 C36.433414,86.4772673 53.8562121,85.1704983 66.8469136,80.803045 C79.8376152,76.4355918 92.2476008,69.140126 87.5059462,55.5042638 C82.7642916,41.8684017 69.8510279,31.1019545 51.7959063,35.7477763 Z" id="Path-259" stroke="#372400" stroke-width="1.53739537" fill="#FFE1D6" fill-rule="evenodd"></path>
                    <polygon id="Path-261" stroke="#372400" stroke-width="1.47333714" fill="#FFE1D6" fill-rule="evenodd" stroke-linejoin="round" points="36.137931 107.55 38.4382267 113.4 61.8862069 103.909771 60.7060376 101.7"></polygon>
                    <path d="M55.8345989,83.9132191 C51.2350037,79.7236674 46.2718176,80.8784465 40.9450406,87.3775562 C35.6182636,93.876666 33.5090396,101.350814 34.6173684,109.8 C41.9332359,107.091455 47.4109773,105.323557 51.0505928,104.496306 C54.6902083,103.669056 59.0549532,103.199849 64.1448276,103.088686 L55.8345989,83.9132191 Z" id="Path-260" stroke="#372400" stroke-width="1.47333714" fill="#FFFFFF" fill-rule="evenodd" stroke-linecap="round" stroke-linejoin="round"></path>
                    <path d="M68.4652285,107.55 C71.1268197,107.831026 73.0619977,108.099399 74.2707625,108.35512 C75.4795273,108.61084 77.6007082,109.200611 80.6343052,110.124432 L83.5689655,117.137806 C82.0474912,118.191045 78.9480901,118.935961 74.2707625,119.372555 C69.5934348,119.809148 64.7123761,119.809148 59.6275862,119.372555 L68.4652285,107.55 Z" id="Path-263" stroke="#372400" stroke-width="1.47333714" fill="#FFE1D6" fill-rule="evenodd" stroke-linecap="round" stroke-linejoin="round"></path>
                    <path d="M58.218521,104.4 C52.8605482,105.468768 49.1503828,106.403314 47.0880247,107.203636 C45.0256666,108.003958 41.4503167,109.896643 36.3619748,112.88169 C35.3651395,117.126595 37.69471,120.639993 43.3506862,123.421884 C51.8346505,127.59472 63.5093972,125.563529 65.2018837,125.081603 C66.8943703,124.599676 68.6209654,117.445711 68.9403899,115.966974 C69.1533396,114.981149 69.1533396,112.354501 68.9403899,108.08703 C69.3817223,106.79286 68.9806208,106.033427 67.7370855,105.80873 C65.8717824,105.471686 61.3397123,106.014855 59.9469645,105.80873 C59.018466,105.671314 58.4423182,105.201737 58.218521,104.4 Z" id="Path-262" stroke="#372400" stroke-width="1.47333714" fill="#FFFFFF" fill-rule="evenodd" stroke-linecap="round" stroke-linejoin="round"></path>
                    <path d="M53.3355863,91.8 C60.2405977,92.4423375 63.6931034,93.5471194 63.6931034,95.1143457 C63.6931034,96.6815721 60.3807543,98.5767902 53.7560559,100.8 C52.5508692,98.4811146 51.9482759,96.856281 51.9482759,95.9254992 C51.9482759,94.9947174 52.4107127,93.619551 53.3355863,91.8 Z" id="Path-265" stroke="#372400" stroke-width="1.47333714" fill="#FFE1D6" fill-rule="evenodd"></path>
                    <path d="M49.9878483,89.1 L53.7361903,91.6429882 C52.7130324,93.5022924 52.2256658,94.908807 52.2740905,95.8625319 C52.3225152,96.8162569 52.9667839,98.4999298 54.2068966,100.913551 L47.4310345,103.5" id="Path-264" stroke="#372400" stroke-width="1.47333714" fill="none" stroke-linecap="round" stroke-linejoin="round"></path>
                    <path d="M38.6624178,52.2319781 C34.5414691,53.2053591 33.1070068,57.1930523 34.5599698,60.871728 C36.0129329,64.5504037 45.5843518,63.7782067 45.9608778,58.5178504 C46.3374038,53.2574942 42.7833665,51.258597 38.6624178,52.2319781 Z" id="Path-266" stroke="#372400" stroke-width="1.0249302" fill="#FFFFFF" fill-rule="evenodd"></path>
                    <path d="M64.2816296,47.0257988 C60.1606809,47.9991798 58.7262186,51.9868729 60.1791817,55.6655487 C61.6321447,59.3442244 71.2035636,58.5720274 71.5800896,53.3116711 C71.9566157,48.0513149 68.4025784,46.0524177 64.2816296,47.0257988 Z" id="Path-266-Copy" stroke="#372400" stroke-width="1.0249302" fill="#FFFFFF" fill-rule="evenodd"></path>
                    <ellipse id="Oval-8" stroke="none" fill="#000000" fill-rule="evenodd" cx="41.8167488" cy="55.5929828" rx="1.48423645" ry="1.15676581"></ellipse>
                    <ellipse id="Oval-8-Copy" stroke="none" fill="#000000" fill-rule="evenodd" cx="67.5650246" cy="50.3868035" rx="1.48423645" ry="1.15676581"></ellipse>
                    <path d="M42.1450772,65.2831099 C43.540942,62.7410776 40.1138955,61.8878535 37.5295087,62.4345543 C34.9451219,62.9812551 32.3656341,66.3990826 33.5153464,67.1086419 C34.6650586,67.8182011 40.7492124,67.8251423 42.1450772,65.2831099 Z" id="Path-267" stroke="#372400" stroke-width="0.768697654" fill="#A1D9FF" fill-rule="evenodd"></path>
                    <path d="M74.217491,58.2775171 C75.6133558,55.7354848 72.1863093,54.8822607 69.6019225,55.4289615 C67.0175357,55.9756623 65.5531498,58.6410708 66.7028621,59.35063 C67.8525744,60.0601893 72.8216262,60.8195495 74.217491,58.2775171 Z" id="Path-267-Copy" stroke="#372400" stroke-width="0.768697654" fill="#A1D9FF" fill-rule="evenodd"></path>
                    <path d="M61.5386179,72.9394106 C61.0320917,74.5543062 59.4309282,74.6332825 56.953049,73.3313639 C56.7954399,73.2485535 56.7350828,73.0541841 56.8182376,72.8972278 C56.9013924,72.7402715 57.09657,72.6801643 57.2541791,72.7629747 C59.4273583,73.904799 60.6687333,74.0396744 61.0138407,72.9394106 C61.3606712,71.8336533 60.4748472,70.999394 58.2691159,70.7928449 C58.1221692,70.7790846 57.5593201,70.7332263 57.5246604,70.6179307 C57.4830975,70.4796716 57.9969814,70.2639795 58.1553863,70.1853518 C59.7177773,69.4098255 60.2959892,68.6823357 59.8209677,67.9215823 C59.3342004,67.1420179 58.3025139,67.1438938 56.8530331,68.0278091 C56.701062,68.1204834 56.5024253,68.0729241 56.4093656,67.9215823 C56.3163059,67.7702406 56.364063,67.5724265 56.5160341,67.4797522 C58.2293729,66.4349322 59.5163412,66.4349322 60.2338942,67.5841031 C60.8413386,68.5569335 60.217543,69.5302121 59.0081165,70.3417479 C60.8977972,70.7096787 61.9763777,71.5437544 61.5386179,72.9394106 Z" id="Path-268" stroke="none" fill="#372400" fill-rule="nonzero"></path>
                    <polygon id="Path-270" stroke="#372400" stroke-width="1.17866971" fill="#AFD1FF" fill-rule="evenodd" stroke-linecap="round" stroke-linejoin="round" points="54.6586207 85.05 87.1190573 91.1522136 87.6344828 110.7 59.1235745 104.349765"></polygon>
                    <polygon id="Path-280" stroke="#372400" stroke-width="1.15304645" fill="#FFF686" fill-rule="evenodd" stroke-linecap="round" stroke-linejoin="round" points="111.902542 83.1346296 114.867794 86.4 119.822122 76.2503185 131 72.8291633 120.799457 64.535153 122.035043 54.45 108.172588 58.7623355 93.5597354 55.9249913 97.9051628 68.9421812 92.1517241 73.2377165 106.550785 76.2503185"></polygon>
                    <path d="M112.626417,82.7712423 C112.918077,88.3119824 111.1183,92.4914217 107.227087,95.3095601 C103.335874,98.1276985 98.2669768,98.9227685 92.0203946,97.69477 L96.7678996,81.7062065 L103.882776,79.0077134 L112.626417,82.7712423 Z" id="Path-289" stroke="#372400" stroke-width="1.28116276" fill="#FFE1D6" fill-rule="evenodd" stroke-linejoin="round"></path>
                    <path d="M101.927532,83.0898852 C102.297743,82.637378 102.786833,82.4044191 103.3948,82.3910084 C104.002767,82.3775978 107.147985,82.5303906 112.830456,82.8493868 L110.096074,93.9001215 L102.781915,100.180824 L97.0638465,95.339578 L101.927532,83.0898852 Z" id="Path-292" stroke="#372400" stroke-width="1.0249302" fill="#000000" fill-rule="evenodd" stroke-linecap="round" stroke-linejoin="round"></path>
                    <polygon id="Path-271" stroke="#372400" stroke-width="1.17866971" fill="#77A2DB" fill-rule="evenodd" stroke-linecap="round" stroke-linejoin="round" points="87.1827586 91.3060475 113.834483 76.5 103.248547 103.624896 87.9079495 110.7"></polygon>
                    <polygon id="Path-272" stroke="#372400" stroke-width="1.17866971" fill="#97C4FF" fill-rule="evenodd" stroke-linecap="round" stroke-linejoin="round" points="53.3034483 84.15 86.7310345 89.8303766 86.7310345 97.65 54.7299162 91.1326962"></polygon>
                    <polygon id="Path-273" stroke="#372400" stroke-width="1.17866971" fill="#6290CD" fill-rule="evenodd" stroke-linecap="round" stroke-linejoin="round" points="86.7310345 90.4341218 114.737931 75.6 111.00057 85.1487877 86.7310345 98.1"></polygon>
                    <polygon id="Path-274" stroke="#372400" stroke-width="1.17866971" fill="#AFD1FF" fill-rule="evenodd" stroke-linecap="round" stroke-linejoin="round" points="53.7551724 84.0930397 80.1865409 73.35 114.737931 75.6325649 87.0334237 90"></polygon>
                    <polygon id="Path-275" stroke="#372400" stroke-width="0.884002283" fill="#FF8181" fill-rule="evenodd" stroke-linecap="round" stroke-linejoin="round" points="105.251724 80.4633341 72.5141325 76.05 64.1448276 79.3601386 98.2224002 83.7"></polygon>
                    <polygon id="Path-276" stroke="#372400" stroke-width="0.884002283" fill="#C15D5D" fill-rule="evenodd" stroke-linecap="round" stroke-linejoin="round" points="97.9726747 83.5056628 104.8 80.1 98.7944597 105.768627 95.7655172 107.1"></polygon>
                    <polygon id="Path-277" stroke="#372400" stroke-width="0.884002283" fill="#FF9999" fill-rule="evenodd" stroke-linecap="round" stroke-linejoin="round" points="101.186207 74.5869832 74.3581797 87.75 66.4034483 86.7015071 94.2777912 73.8"></polygon>
                    <polygon id="Path-278" stroke="#372400" stroke-width="0.736668569" fill="#FF8181" fill-rule="evenodd" stroke-linecap="round" stroke-linejoin="round" points="74.3963958 87.6330517 75.8896552 108.45 69.8761995 107.186058 66.8551724 86.4"></polygon>
                    <path d="M85.8004904,78.970868 C88.7296514,71.5532774 90.84182,67.7331423 92.1369961,67.5104629 C94.0797602,67.1764437 95.6102903,74.9327448 94.4729446,77.4798141 C93.7147142,79.1778603 91.0502933,80.0779009 86.4796821,80.1799361 C82.6779457,82.4971677 79.8763779,83.5026443 78.0749786,83.1963659 C75.3728797,82.7369483 72.0951856,79.4046769 74.42501,78.1303707 C75.9782262,77.2808332 79.770053,77.560999 85.8004904,78.970868 Z" id="Path-279" stroke="#372400" stroke-width="0.884002283" fill="#FF8181" fill-rule="evenodd" stroke-linecap="round" stroke-linejoin="round"></path>
                    <path d="M115.688338,65.8095161 C110.80563,62.1163404 99.6724352,62.1428039 98.743878,70.6750267 C97.8153209,79.2072494 108.463738,83.7956489 114.333085,81.8324324 C120.202431,79.8692159 120.571045,69.5026919 115.688338,65.8095161 Z" id="Path-281" stroke="#372400" stroke-width="1.28116276" fill="#FFE1D6" fill-rule="evenodd"></path>
                    <path d="M113.770104,70.1117313 C114.030822,70.9941863 114.264523,71.6565449 114.471206,72.0988072 C114.677889,72.5410695 115.216847,73.5320519 116.08808,75.0717545 C113.078394,73.8389622 111.474705,72.8479797 111.277015,72.0988072 C111.079325,71.3496346 111.910355,70.687276 113.770104,70.1117313 Z" id="Path-282" stroke="#372400" stroke-width="0.512465102" fill="#FFFFFF" fill-rule="evenodd" stroke-linecap="round" stroke-linejoin="round"></path>
                    <ellipse id="Oval-9" stroke="none" fill="#000000" fill-rule="evenodd" cx="113.705419" cy="72.1090281" rx="1" ry="1"></ellipse>
                    <path d="M115.046147,69.6475023 C115.109981,69.3143209 115.564812,69.1467403 115.765139,69.343019 C115.965465,69.5392977 115.905669,70.2905159 115.965052,70.5478393 C116.004641,70.7193882 116.177667,71.0942744 116.48413,71.6724977 C116.009722,71.2915041 115.682165,70.9737704 115.501459,70.7192967 C115.2304,70.3375862 114.982313,69.9806837 115.046147,69.6475023 Z" id="Path-283" stroke="none" fill="#372400" fill-rule="evenodd"></path>
                    <path d="M108.335681,65.9713087 C108.613231,66.2106817 108.688314,66.4401441 108.560931,66.6596959 C108.369856,66.9890236 107.715067,66.9868728 107.347908,66.9868728 C107.103136,66.9868728 106.479474,66.933018 105.476922,66.8253086 C106.177778,66.7317086 106.757864,66.6163026 107.217179,66.4790907 C107.676495,66.3418789 108.049329,66.1726182 108.335681,65.9713087 Z" id="Path-284" stroke="none" fill="#372400" fill-rule="evenodd"></path>
                    <path d="M108.581418,68.1686278 C108.698083,70.2036349 108.187691,71.1911923 107.050242,71.1313001 C105.912794,71.0714079 104.428516,69.9788214 102.597411,67.8535406 C104.214037,68.4014478 105.434083,68.6970811 106.257548,68.7404406 C107.081012,68.7838 107.855636,68.5931958 108.581418,68.1686278 Z" id="Path-285" stroke="#372400" stroke-width="0.512465102" fill="#FFFFFF" fill-rule="evenodd" stroke-linecap="round" stroke-linejoin="round"></path>
                    <ellipse id="Oval-9-Copy" stroke="none" fill="#000000" fill-rule="evenodd" cx="106.994089" cy="69.4099078" rx="1" ry="1"></ellipse>
                    <path d="M106.855435,77.1853169 L106.670224,78.7210295 L107.675447,77.9531732 C107.566768,77.5373064 107.461148,77.2813543 107.358587,77.1853169 C107.256027,77.0892795 107.088309,77.0892795 106.855435,77.1853169 Z" id="Path-287" stroke="none" fill="#FFFFFF" fill-rule="evenodd"></path>
                    <path d="M104.846432,76.5256663 C105.841961,76.4687373 106.534773,76.5633836 106.924866,76.8096052 C107.31496,77.0558268 107.65833,77.6152038 107.954976,78.4877362" id="Path-286" stroke="#372400" stroke-width="0.512465102" fill="none" stroke-linecap="round" stroke-linejoin="round"></path>
                    <path d="M120.997537,67.0318398 L120.997537,68.7342032 C122.244441,68.5788775 123.145023,68.3829259 123.699284,68.1463483 C124.253544,67.9097707 125.430524,66.9813971 127.230222,65.3612275 C125.560582,66.2860542 124.164656,66.8429249 123.042446,67.0318398 C121.920235,67.2207547 121.238598,67.2207547 120.997537,67.0318398 Z" id="Path-288" stroke="#372400" stroke-width="0.512465102" fill="#940404" fill-rule="evenodd" stroke-linecap="round" stroke-linejoin="round"></path>
                    <path d="M103.190597,56.6491268 L103.190597,58.3514902 C104.437502,58.1961646 105.338084,58.0002129 105.892344,57.7636353 C106.446604,57.5270577 107.623584,56.5986841 109.423283,54.9785145 C107.753642,55.9033412 106.357717,56.460212 105.235506,56.6491268 C104.113295,56.8380417 103.431659,56.8380417 103.190597,56.6491268 Z" id="Path-288-Copy" stroke="#372400" stroke-width="0.512465102" fill="#940404" fill-rule="evenodd" stroke-linecap="round" stroke-linejoin="round" transform="translate(106.306940, 56.665002) scale(-1, 1) rotate(-85.000000) translate(-106.306940, -56.665002) "></path>
                    <path d="M109.483288,83.0633184 C105.973821,82.7122272 103.69663,82.7122272 102.651713,83.0633184 C101.084338,83.5899551 100.894436,85.1575304 101.517947,86.1141863 C102.141457,87.0708423 104.182791,87.1714566 105.453636,87.3623238 C106.300866,87.4895686 107.762192,87.420012 109.837613,87.153654 C109.303786,86.6737341 108.951342,85.9906788 108.78028,85.1044881 C108.609219,84.2182975 108.843554,83.5379075 109.483288,83.0633184 Z" id="Path-290" stroke="#372400" stroke-width="0.512465102" fill="#FFE1D6" fill-rule="evenodd" stroke-linecap="round" stroke-linejoin="round"></path>
                    <path d="M111.18867,94.2684642 C114.25255,93.0442961 116.461781,92.5545158 117.816365,92.7991232 C119.848239,93.1660343 119.274434,95.0187542 120.056518,95.8697991 C120.577908,96.4371624 122.040421,97.5137197 124.444059,99.0994709 C121.504361,98.4192611 119.525715,98.0791562 118.50812,98.0791562 C117.490525,98.0791562 116.584609,98.4192611 115.790372,99.0994709 C114.351559,97.9132761 113.400407,97.2687946 112.936915,97.1660265 C112.473423,97.0632585 111.890674,97.367635 111.18867,98.0791562 L111.18867,94.2684642 Z" id="Path-291" stroke="#372400" stroke-width="1.15304648" fill="#000000" fill-rule="evenodd" stroke-linejoin="round"></path>
                    <path d="M30.4763595,98.6667006 C30.7975353,97.2101846 30.7975353,96.3398349 30.4763595,96.0556516 C23.4563607,89.8442037 14.0915065,86.8273121 10.7640762,88.7992174 C7.2533539,90.8797455 7.2533539,93.8285627 10.7640762,97.6456689 C10.8105817,98.842516 11.0488937,99.6750878 11.4790123,100.143384 C11.909131,100.611681 12.8049699,101.013929 14.1665291,101.350129 L16.3041931,105.259876 L18.5482555,106.568878 L22.1571263,107.1 L25.8415222,106.568878 L29.3889014,105.259876 L30.4763595,102.533176 L30.4763595,98.6667006 Z" id="Path-296" stroke="none" fill="#FFFFFF" fill-rule="evenodd"></path>
                    <path d="M23.4714857,95.4840551 C22.133803,97.417275 21.9867214,98.8305113 23.0302409,99.723764 C24.5955203,101.063643 32.4498138,100.42117 30.368785,96.1510945 C28.2877561,91.8810191 14.0968198,86.056452 9.99804006,88.9982491 C5.8992603,91.9400461 9.6895592,96.0846356 10.6301394,96.9235635 C11.2571929,97.4828489 13.1060891,98.1190668 16.1768281,98.8322173" id="Path-293" stroke="#372400" stroke-width="1.53739537" fill="none" stroke-linecap="round" stroke-linejoin="round"></path>
                    <path d="M10.9230174,97.2 C10.6385148,98.4944734 11.0976149,99.4918627 12.3003178,100.192168 C13.5030207,100.892473 15.8776274,101.545084 19.4241379,102.15" id="Path-294" stroke="#372400" stroke-width="1.53739537" fill="none" stroke-linecap="round" stroke-linejoin="round"></path>
                    <path d="M14.4551724,101.512507 C15.8202485,105.2068 18.8718623,106.908711 23.610014,106.618239 C28.3481656,106.327767 30.7172414,104.538354 30.7172414,101.25" id="Path-295" stroke="#372400" stroke-width="1.53739537" fill="none" stroke-linecap="round" stroke-linejoin="round"></path>
                    <path d="M28.7117517,73.0942892 C25.6627972,75.4677745 27.0972296,77.4556209 31.7607062,76.9974105 C36.4241828,76.5392002 40.6454262,73.4945439 38.4755741,71.6324669 C36.305722,69.77039 31.7607062,70.7208038 28.7117517,73.0942892 Z" id="Path-297" stroke="none" fill="#EB6262" fill-rule="evenodd"></path>
                    <path d="M77.2448276,60.8713751 C77.2448276,57.362326 84.4472785,55.9467558 86.8245913,55.8054566 C89.2019041,55.6641573 93.3774498,58.298031 89.9972885,60.1134127 C86.6171271,61.9287943 77.2448276,64.3804242 77.2448276,60.8713751 Z" id="Path-298" stroke="none" fill="#EB6262" fill-rule="evenodd"></path>
                    <path d="M101.67898,71.4182238 C102.818317,70.9487436 100.910858,68.4433503 99.3064119,68.0317481 C97.7019656,67.6201459 95.3005489,68.5418172 96.1277381,69.6662923 C96.9549273,70.7907674 100.539643,71.8877039 101.67898,71.4182238 Z" id="Path-299" stroke="none" fill="#EB6262" fill-rule="evenodd"></path>
                    <path d="M120.135137,80.0297026 C121.274475,79.5602225 119.367016,77.0548292 117.762569,76.643227 C116.158123,76.2316248 113.756707,77.153296 114.583896,78.2777711 C115.411085,79.4022462 118.9958,80.4991828 120.135137,80.0297026 Z" id="Path-299-Copy" stroke="none" fill="#EB6262" fill-rule="evenodd"></path>
                    <path d="M112.905801,82.4770721 C113.197743,83.5019259 113.343713,84.3928442 113.343713,85.149827 C113.343713,85.9068099 112.990417,86.7977282 112.283823,87.822582 L107.555149,87.0355408 L107.555149,82.4770721 L112.905801,82.4770721 Z" id="Path-2" stroke="#372400" stroke-width="0.5" fill="#000000" fill-rule="evenodd"></path>
                </g>
            </g>
            <text id="双子座" mask="url(#mask-3)" font-family="PingFangSC-Medium, PingFang SC" font-size="12" font-weight="400" line-spacing="14" fill="#D83232">
                <tspan x="10.136" y="22.576">双</tspan>
                <tspan x="10.136" y="36.576">子</tspan>
                <tspan x="10.136" y="50.576">座</tspan>
            </text>
            <path d="M126.21968,182.822457 C126.666801,182.822457 127.030215,183.176375 127.032257,183.611813 C127.032257,184.04924 126.668843,184.403158 126.221722,184.403158 L123.818701,184.405146 L123.820743,187.208655 C123.820743,187.646082 123.457329,188 123.010208,188 C122.561045,188 122.197632,187.646082 122.197632,187.210643 L122.19559,184.407135 L119.729278,184.409123 C119.280115,184.409123 118.916702,184.055205 118.916702,183.619766 C118.916702,183.18234 119.280115,182.828421 119.727236,182.828421 L122.193548,182.826433 L122.191507,180.889825 L122.191507,180.669123 C119.817069,180.293334 118.002043,178.2931 118.000001,175.873334 C117.99796,173.183159 120.233565,171.00199 122.995917,171.000001 C125.756226,170.998013 127.997957,173.175206 127.999998,175.865381 C128.00204,178.283159 126.189056,180.287369 123.814618,180.667135 L123.814618,180.887837 L123.816659,182.824445 L126.21968,182.822457 Z M123.026541,179.024796 C124.772151,179.024796 126.189056,177.644913 126.189056,175.944913 C126.189056,174.242925 124.772151,172.86503 123.026541,172.86503 C121.27889,172.86503 119.864027,174.244913 119.864027,175.944913 C119.864027,177.646901 121.280931,179.024796 123.026541,179.024796 Z" id="女-copy" fill="#D83232" fill-rule="nonzero" mask="url(#mask-3)"></path>
        </g>
    </g>
</svg>