<?xml version="1.0" encoding="UTF-8"?>
<svg width="152px" height="212px" viewBox="0 0 152 212" version="1.1" xmlns="http://www.w3.org/2000/svg" xmlns:xlink="http://www.w3.org/1999/xlink">
    <!-- Generator: Sketch 51 (57462) - http://www.bohemiancoding.com/sketch -->
    <title>女/狮子座</title>
    <desc>Created with Sketch.</desc>
    <defs>
        <filter x="-7.5%" y="-3.8%" width="115.0%" height="110.5%" filterUnits="objectBoundingBox" id="filter-1">
            <feOffset dx="0" dy="3" in="SourceAlpha" result="shadowOffsetOuter1"></feOffset>
            <feGaussianBlur stdDeviation="3" in="shadowOffsetOuter1" result="shadowBlurOuter1"></feGaussianBlur>
            <feColorMatrix values="0 0 0 0 0.57254902   0 0 0 0 0.384313725   0 0 0 0 0.984313725  0 0 0 0.2 0" type="matrix" in="shadowBlurOuter1" result="shadowMatrixOuter1"></feColorMatrix>
            <feMerge>
                <feMergeNode in="shadowMatrixOuter1"></feMergeNode>
                <feMergeNode in="SourceGraphic"></feMergeNode>
            </feMerge>
        </filter>
    </defs>
    <g id="星座配对" stroke="none" stroke-width="1" fill="none" fill-rule="evenodd">
        <g id="女/狮子座" filter="url(#filter-1)" transform="translate(6.000000, 3.000000)">
            <rect id="Rectangle-2-Copy-3" fill="#FFFFFF" fill-rule="nonzero" x="0" y="0" width="140" height="200" rx="4"></rect>
            <rect id="Rectangle-2-Copy-5" stroke="#FFB129" fill-opacity="0.1" fill="#FFB129" fill-rule="nonzero" x="4.5" y="4.5" width="131" height="191" rx="4"></rect>
            <g id="狮子座" transform="translate(13.000000, 32.000000)">
                <g id="狮子座-copy">
                    <path d="M42.2404534,93.4981852 C39.7666158,94.695269 37.4731602,97.4834428 35.3600865,101.862707 C33.2470129,106.241971 31.8961861,111.006432 31.3076063,116.15609 L41.4533913,117.142505 C40.8761969,120.56258 40.6219178,123.086327 40.690554,124.713746 C40.7591902,126.341164 41.2758233,130.038039 42.2404534,135.804368 L54.4255797,134.935513 C56.7244735,127.593135 60.0536674,124.18588 64.4131612,124.713746 C68.7726549,125.241612 69.1945308,128.433506 65.6787887,134.289429 L77.9751518,131.889334 C82.8739069,122.447603 84.8094272,114.13544 83.7817128,106.952845 C82.7539983,99.7702489 78.535734,92.1285385 71.12692,84.0277133 L42.2404534,93.4981852 Z" id="Path-36" stroke="#372400" stroke-width="1.85466603" fill="#FFE88F" stroke-linecap="round" stroke-linejoin="round"></path>
                    <path d="M20.479048,62.1256543 C17.4647321,61.7627977 15.9575741,62.9235438 15.9575741,65.6078925 C15.9575741,68.2922412 17.9168795,70.687429 21.8354902,72.793456 L20.479048,62.1256543 Z" id="Path-30" stroke="#FF0000" stroke-width="0.5"></path>
                    <path d="M81.5079966,49.6663621 C82.7833777,46.4431987 84.3201922,45.4138894 86.11844,46.5784342 C87.9166878,47.742979 87.6684858,51.7505083 85.373834,58.6010221 L81.5079966,49.6663621 Z" id="Path-31" stroke="#FF0000" stroke-width="0.5"></path>
                    <path d="M37.7480924,92.0747029 C39.9874094,91.925445 42.3981267,93.7293355 44.9802445,97.4863746 C48.3365172,93.6611139 50.7136472,91.5805049 52.1116346,91.2445477 C53.509622,90.9085905 56.9545749,91.948895 62.4464931,94.3654612 C62.4922721,89.5135514 63.380248,86.7851951 65.1104211,86.1803921 C66.8405942,85.5755891 71.4293614,86.9090461 78.8767228,90.1807629 C78.8037856,86.1306659 80.3868723,83.1602467 83.6259829,81.2695055 C86.8650936,79.3787642 91.2107594,78.888438 96.6629805,79.7985269 C96.8593597,74.4015354 98.0115055,70.7662009 100.119418,68.8925234 C102.22733,67.0188458 106.358212,65.8799434 112.512062,65.475816 C107.016758,61.6271369 103.777624,58.092998 102.794659,54.8733993 C103.249463,51.6991981 106.806151,47.9575326 113.464725,43.6484027 C105.96989,42.7586816 101.322018,40.8479182 99.5211093,37.9161127 C97.7202009,34.9843071 97.7202009,28.867896 99.5211093,19.5668793 C92.601686,22.8767261 87.9172256,23.3525188 85.4677282,20.9942574 C83.0182307,18.6359961 80.8212289,11.6838544 78.8767228,0.137832561 C67.1178735,5.8872759 60.5985838,8.76199757 59.3188536,8.76199757 C56.4439432,8.95750229 54.0415369,6.08278062 52.1116346,0.137832561 C49.157449,5.23754316 46.9700916,8.11226483 45.5495624,8.76199757 C44.1290332,9.41173031 40.2637998,8.47926655 33.9538624,5.96460628 C35.6163623,9.20004072 35.6163623,11.3174157 33.9538624,12.3167313 C32.2913624,13.3160469 26.3536034,13.7407323 16.1405854,13.5907876 C20.7833698,15.9200607 22.2998372,19.5670147 20.6899876,24.5316495 C17.5718445,28.0690416 3.88097897,27.4496665 4.00942645,27.6536684 C8.95577975,35.5095289 10.2167483,40.8085326 9.65427964,42.313821 C9.0772047,43.8581989 5.86585569,45.6725101 0.0202326196,47.7567548 C4.91066522,52.7225465 7.57712626,56.6818619 8.01961574,59.634701 C8.46210523,62.58754 6.17813527,67.6086718 1.16770588,74.6980963 C7.16263179,75.1957662 10.7609832,75.9907643 11.9627602,77.0830904 C13.1645371,78.1754165 13.7654256,82.8959023 13.7654256,91.2445477 C20.9837008,87.6597971 25.2024874,86.3243324 26.4217854,87.2381534 C27.6410834,88.1519744 28.899603,91.8964913 30.197344,98.4717043 C32.9918593,94.3562946 35.5087754,92.2239609 37.7480924,92.0747029 Z" id="Path-32" stroke="#372400" stroke-width="1.85466603" fill="#ECB350" stroke-linecap="round" stroke-linejoin="round"></path>
                    <path d="M1.23113103,48.1920758 C6.4137264,51.9564003 9.30123142,54.9364905 9.89364607,57.1323465 C10.4860607,59.3282025 9.87650157,60.9802539 8.06496863,62.0885007 C7.42836874,58.974402 6.73680519,56.6583312 5.990278,55.1402883 C5.2437508,53.6222453 3.65736848,51.3061745 1.23113103,48.1920758 Z" id="Path-59" fill="#A77114"></path>
                    <path d="M111.925144,43.5473917 C103.324007,48.7762931 99.0234385,52.0739331 99.0234385,53.4403117 C99.0234385,54.8066902 101.767977,57.7721797 107.257053,62.3367801 C104.048357,58.2009105 102.712118,55.2354211 103.248334,53.4403117 C103.78455,51.6452023 106.67682,48.3475623 111.925144,43.5473917 Z" id="Path-58" fill="#A77114"></path>
                    <path d="M26.794612,86.7364921 C28.951632,90.6919648 30.384929,92.8867523 31.0945031,93.3208547 C32.1588644,93.9720081 34.3615852,90.8371434 38.0896767,91.0091137 C41.8177681,91.1810839 43.7010575,93.9720081 45.2106644,93.9720081 C46.2170691,93.9720081 48.4987387,92.7660888 52.0556732,90.3542501 L45.2106644,97.3204171 L39.2184326,91.6352943 L30.4167582,97.915436 L26.794612,86.7364921 Z" id="Path-60" fill="#A77114"></path>
                    <path d="M37.7480924,92.0747029 C39.9874094,91.925445 42.3981267,93.7293355 44.9802445,97.4863746 C48.3365172,93.6611139 50.7136472,91.5805049 52.1116346,91.2445477 C53.509622,90.9085905 56.9545749,91.948895 62.4464931,94.3654612 C62.4922721,89.5135514 63.380248,86.7851951 65.1104211,86.1803921 C66.8405942,85.5755891 71.4293614,86.9090461 78.8767228,90.1807629 C78.8037856,86.1306659 80.3868723,83.1602467 83.6259829,81.2695055 C86.8650936,79.3787642 91.2107594,78.888438 96.6629805,79.7985269 C96.8593597,74.4015354 98.0115055,70.7662009 100.119418,68.8925234 C102.22733,67.0188458 106.358212,65.8799434 112.512062,65.475816 C107.016758,61.6271369 103.777624,58.092998 102.794659,54.8733993 C103.249463,51.6991981 106.806151,47.9575326 113.464725,43.6484027 C105.96989,42.7586816 101.322018,40.8479182 99.5211093,37.9161127 C97.7202009,34.9843071 97.7202009,28.867896 99.5211093,19.5668793 C92.601686,22.8767261 87.9172256,23.3525188 85.4677282,20.9942574 C83.0182307,18.6359961 80.8212289,11.6838544 78.8767228,0.137832561 C67.1178735,5.8872759 60.5985838,8.76199757 59.3188536,8.76199757 C56.4439432,8.95750229 54.0415369,6.08278062 52.1116346,0.137832561 C49.157449,5.23754316 46.9700916,8.11226483 45.5495624,8.76199757 C44.1290332,9.41173031 40.2637998,8.47926655 33.9538624,5.96460628 C35.6163623,9.20004072 35.6163623,11.3174157 33.9538624,12.3167313 C32.2913624,13.3160469 26.3536034,13.7407323 16.1405854,13.5907876 C20.7833698,15.9200607 22.2998372,19.5670147 20.6899876,24.5316495 C17.5718445,28.0690416 3.88097897,27.4496665 4.00942645,27.6536684 C8.95577975,35.5095289 10.2167483,40.8085326 9.65427964,42.313821 C9.0772047,43.8581989 5.86585569,45.6725101 0.0202326196,47.7567548 C4.91066522,52.7225465 7.57712626,56.6818619 8.01961574,59.634701 C8.46210523,62.58754 6.17813527,67.6086718 1.16770588,74.6980963 C7.16263179,75.1957662 10.7609832,75.9907643 11.9627602,77.0830904 C13.1645371,78.1754165 13.7654256,82.8959023 13.7654256,91.2445477 C20.9837008,87.6597971 25.2024874,86.3243324 26.4217854,87.2381534 C27.6410834,88.1519744 28.899603,91.8964913 30.197344,98.4717043 C32.9918593,94.3562946 35.5087754,92.2239609 37.7480924,92.0747029 Z" id="Path-32" stroke="#372400" stroke-width="1.85466603" stroke-linecap="round" stroke-linejoin="round"></path>
                    <path d="M45.9852998,22.3860851 C46.7051325,25.4888064 46.4534534,27.5771501 45.2302625,28.651116 C43.3954762,30.2620648 31.5729599,37.2634776 29.299513,40.0825214 C22.9368793,47.9721023 20.3921837,59.6056218 19.5610051,61.3398657 C19.0068861,62.4960283 18.088947,62.9569654 16.8071877,62.722677 C17.8703877,63.2291646 18.708455,63.7745099 19.3213899,64.358713 C20.2407921,65.2350175 19.7647767,71.0198909 20.4381788,73.1139977 C22.8860003,80.7260916 38.5525745,84.9803765 40.2301176,85.0441795 C41.3484797,85.0867149 41.6116948,85.9856332 41.0197629,87.7409344 C41.4506595,86.711559 42.0866386,85.9330732 42.9277001,85.4054769 C44.1892924,84.6140825 50.3712161,85.7015203 54.0381254,85.1079825 C69.1433984,82.6629942 85.0324181,75.2637618 87.6304838,65.1516261 C87.964551,63.8513768 87.6373217,60.5575903 88.7162076,59.2192258 C89.1884887,58.6333583 91.6680945,59.3715163 91.6680945,59.2192258 C91.6680945,58.7190407 87.8388992,57.0099779 87.6304838,56.3184524 C87.4915402,55.8574355 88.3430261,55.6308332 90.1849415,55.6386456 C88.2305234,54.832524 87.2115688,54.3038207 87.1280775,54.0525358 C84.5774099,46.3757547 77.0547087,40.1531823 72.871753,36.8122084 C67.0353993,32.1506469 52.7019431,29.3843811 50.3250043,28.084201 C48.7403785,27.2174143 47.2938103,25.3180423 45.9852998,22.3860851 Z" id="Path-57" fill="#A77114"></path>
                    <path d="M47.4286117,31.0355218 C21.8783784,35.2405505 15.2109146,68.1235007 23.7382257,76.8756848 C28.0168312,81.267121 42.2702002,86.1647493 55.8211283,83.8562465 C69.2773596,81.563876 82.035765,72.099139 85.1103331,66.8385416 C91.2811063,56.2803259 72.978845,26.8304931 47.4286117,31.0355218 Z" id="Path-29" stroke="#372400" stroke-width="1.85466603" fill="#FFE1D6"></path>
                    <path d="M73.8935757,23.0840032 C72.493632,20.0314611 73.1190652,17.6919577 75.7698754,16.0654928 C79.7460906,13.6257956 86.1211403,16.2991375 86.6942776,21.9793883 C87.0763691,25.7662222 85.6680743,28.1979565 82.4693932,29.2745912 C82.0802169,28.6311408 80.6837237,27.4445607 78.2799135,25.714851 C77.4425767,25.1123284 76.6058973,24.5698658 75.7698754,24.0874629 C74.7271998,23.4858164 74.1017666,23.1513299 73.8935757,23.0840032 Z" id="Path-33" stroke="#372400" stroke-width="1.11279962" fill="#FFE88F" stroke-linecap="round" stroke-linejoin="round"></path>
                    <path d="M77.0311847,24.8789865 C76.1677359,21.913223 76.5074539,20.1660678 78.0503385,19.6375208 C80.3646654,18.8447002 83.1355268,20.7478823 83.5437296,23.0424405 C83.8158648,24.5721459 82.5315474,25.781791 79.6907774,26.6713756 L77.0311847,24.8789865 Z" id="Path-34" fill="#372400"></path>
                    <path d="M68.6217651,20.4133188 C68.6217651,19.8533952 74.6627679,22.8271769 78.1999953,25.1172348 C81.7439557,27.4116518 87.0206876,33.7057609 86.4215725,33.9241188 C85.8224574,34.1424766 81.2630908,28.2674473 77.8682815,26.0695932 C74.4667391,23.8673799 68.6217651,20.9732423 68.6217651,20.4133188 Z" id="Path-35" fill="#372400" fill-rule="nonzero"></path>
                    <path d="M40.4098836,121.218907 C43.322076,119.854708 44.7781722,117.675189 44.7781722,114.68035 C44.7781722,107.545699 36.9149384,104.448958 32.4557361,106.009004 C23.9089398,108.999091 21.4256172,121.305397 28.6016157,125.617071 C33.3856146,128.491521 37.321704,127.025466 40.4098836,121.218907 Z" id="Path-38" stroke="#372400" stroke-width="1.85466603" fill="#ECB350"></path>
                    <path d="M44.6533314,31.3358306 C45.0257403,33.4580449 44.273694,36.0937581 42.3971926,39.2429704 C40.5206913,42.3921827 38.1983564,44.9160068 35.4301879,46.8144427 C41.6696961,45.8612521 46.2667898,44.4782286 49.221469,42.6653722 C52.1761482,40.8525157 54.879894,37.0760019 57.3327063,31.3358306 C54.1822824,30.9594534 51.7682113,30.7161518 50.0904928,30.6059256 C48.4127744,30.4956994 46.6003873,30.7390011 44.6533314,31.3358306 Z" id="Path-40" fill="#7A472B"></path>
                    <path d="M44.6533314,31.3358306 C45.0257403,33.4580449 44.273694,36.0937581 42.3971926,39.2429704 C40.5206913,42.3921827 38.1983564,44.9160068 35.4301879,46.8144427 C41.6696961,45.8612521 46.2667898,44.4782286 49.221469,42.6653722 C52.1761482,40.8525157 54.879894,37.0760019 57.3327063,31.3358306 C54.9911376,30.652738 52.981494,30.2560787 51.3037756,30.1458525 C49.6260572,30.0356263 47.4092425,30.4322857 44.6533314,31.3358306 Z" id="Path-40" stroke="#372400" stroke-width="1.11279962" stroke-linecap="round" stroke-linejoin="round"></path>
                    <path d="M35.3809317,44.2842533 C35.3809317,43.7933929 30.2763117,43.5758329 27.7832796,44.2842533 C26.1212582,44.7565335 24.2335347,46.0125993 22.1201089,48.0524507 C24.34615,46.7231091 26.2338736,45.8382985 27.7832796,45.3980191 C30.1073886,44.7375999 35.3809317,44.7751137 35.3809317,44.2842533 Z" id="Path-41" stroke="#372400" stroke-width="0.5" fill="#372400"></path>
                    <path d="M59.9991803,38.9745852 C59.4342521,38.5870476 62.3421608,35.3257423 64.7113678,34.1718412 C66.2908392,33.4025739 68.7410441,33.0451287 72.0619823,33.0995058 C69.188652,33.5127082 66.7384472,34.2129448 64.7113678,35.2002156 C61.6707488,36.6811218 60.5641085,39.3621227 59.9991803,38.9745852 Z" id="Path-42" fill="#372400"></path>
                    <path d="M46.2644131,60.8992621 L47.3333907,60.1329322 C46.3685089,55.515508 43.8809622,53.5833423 39.8707506,54.3364353 C35.8605391,55.0895283 31.977513,58.2180482 28.2216722,63.721995 C28.1737922,64.4759049 28.4045246,64.8528598 28.9138694,64.8528598 C29.4232142,64.8528598 29.8357444,64.6141999 30.1514601,64.1368801 C32.2261594,59.1676303 35.1563776,56.3030846 38.9421146,55.5432428 C42.7278517,54.7834011 45.1686178,56.5687408 46.2644131,60.8992621 Z" id="Path-43" fill="#372400"></path>
                    <path d="M58.0852806,59.085483 L59.7051064,58.1781035 C59.6993106,53.9362208 61.3263813,50.8738798 64.5863184,48.9910803 C67.8462555,47.1082808 71.5842436,48.7273974 75.8002826,53.8484299 C76.1318742,54.2629082 76.4668074,54.4099234 76.8050821,54.2894756 C77.1433569,54.1690278 77.2080242,53.8531521 76.9990842,53.3418485 C72.1446779,47.6642899 67.6710357,45.888618 63.5781576,48.014833 C59.4852796,50.141048 57.6543206,53.8312647 58.0852806,59.085483 Z" id="Path-44" fill="#372400"></path>
                    <path d="M52.2962426,65.3203935 C52.4217205,64.1888181 52.7532365,63.5392637 53.2907907,63.3717303 C54.0971219,63.1204301 55.1865962,64.2634861 55.687476,64.2634861 C56.0213958,64.2634861 56.202932,63.9662342 56.2320845,63.3717303 C55.0431138,62.4877717 54.0626825,62.1789249 53.2907907,62.4451898 C52.1329528,62.8445872 51.8007796,64.0791324 51.673188,64.9443265 C51.5881268,65.5211226 51.7958117,65.6464783 52.2962426,65.3203935 Z" id="Path-45" fill="#372400"></path>
                    <path d="M51.7720127,71.8885026 L54.9747134,70.5585718 L58.5602627,70.9597969 C58.3103985,76.3593324 57.5925394,79.140219 56.4066853,79.3024566 C55.2208313,79.4646942 53.6759404,76.9933762 51.7720127,71.8885026 Z" id="Path-48" fill="#FFC1A8"></path>
                    <path d="M48.1219449,72.0182919 C48.2994971,71.5488955 51.0955004,71.4242859 52.2203283,70.8946191 C53.3451563,70.3649523 53.6031197,69.5352824 55.0474396,69.3750427 C56.4917596,69.2148029 57.0489264,70.1492761 58.9384749,70.1492761 C60.8280233,70.1492761 62.2661349,68.5969019 62.5969276,68.8501982 C62.9277203,69.1034945 60.6107205,70.9455418 59.5206462,71.2847908 C58.430572,71.6240397 57.6822512,70.8145307 55.3553002,71.1039112 C53.0283492,71.3932916 52.5132618,72.1936675 51.1619981,72.364483 C49.8107345,72.5352985 47.9443926,72.4876884 48.1219449,72.0182919 Z" id="Path-46" fill="#372400"></path>
                    <path d="M52.1794786,71.8328653 C53.9919229,76.772907 55.3790305,79.1575669 56.3408012,78.986845 C57.3025718,78.8161231 57.8610646,76.0861038 58.0162796,70.796787 L59.4909729,70.796787 C58.8646994,76.5120475 57.8649426,79.4717358 56.4917026,79.6758517 C55.1184626,79.8799676 53.3753611,77.3279729 51.262398,72.0198675 L52.1794786,71.8328653 Z" id="Path-47" fill="#372400"></path>
                    <path d="M50.6974123,107.171317 C51.1169127,101.532742 58.0209283,94.5401978 65.4530084,97.3996506 C72.8850884,100.259103 75.1371181,119.742803 64.6686179,121.277175 C54.2001176,122.811546 50.277912,112.809891 50.6974123,107.171317 Z" id="Path-49" fill="#FFFFFF"></path>
                    <path d="M50.8113304,107.14384 C50.5862,110.169856 51.7964767,113.600467 53.8145903,116.31944 C56.2628793,119.617981 60.0748692,121.225303 64.7224668,120.544103 C69.2824441,119.875746 71.664937,114.668499 71.4630513,108.703809 C71.2732667,103.096647 68.6917209,99.0429299 65.3196866,97.7455579 C61.999314,96.4680624 58.6852338,96.5742817 55.8022147,98.8056947 C53.1916933,100.826199 51.0142776,104.415994 50.8113304,107.14384 Z M50.4908433,107.14384 C50.7101615,104.195947 52.4225877,100.784482 55.1921959,98.6408478 C58.2699657,96.2587007 62.0085566,95.6772141 65.5863302,97.0537432 C69.2917614,98.479388 71.9455541,103.95041 72.1443155,109.82279 C72.3574775,116.120636 69.7302451,120.909926 64.7224668,121.643918 C59.7977097,122.365741 55.90942,120.647806 53.302017,117.134893 C51.1758689,114.270367 50.2527438,110.344174 50.4908433,107.14384 Z" id="Path-49" fill="#372400" fill-rule="nonzero"></path>
                    <path d="M67.1753292,91.5427541 C65.0105682,86.6341314 65.0105682,83.0647146 67.1753292,80.8345039 C69.3400901,78.6042931 71.7273444,78.293431 74.3370919,79.9019175 C76.1683005,77.2231057 78.5417486,75.8836998 81.4574362,75.8836998 C84.3731238,75.8836998 86.6963497,77.5339678 88.4271141,80.8345039 C91.959474,80.8261076 94.2504857,82.457384 95.3001492,85.7283332 C96.3498127,88.9992823 95.5444571,91.8580143 92.8840823,94.3045291 C94.0606018,98.209597 93.6548226,100.870417 91.6667447,102.286988 C89.6786667,103.70356 87.3746493,104.032414 84.7546923,103.273551 C78.9149134,106.85916 74.0489646,106.85916 70.1568458,103.273551 C66.2647271,99.6879413 65.2708882,95.7776757 67.1753292,91.5427541 Z" id="Path-39" stroke="#372400" stroke-width="1.85466603" fill="#ECB350"></path>
                    <path d="M43.0323714,119.438726 C41.1049743,121.288551 39.0165717,121.548305 36.7671635,120.21799 C34.5177552,118.887674 33.4416776,116.983079 33.5389307,114.504205" id="Path-50" stroke="#372400" stroke-width="1.85466603" stroke-linecap="round" stroke-linejoin="round"></path>
                    <path d="M69.1341231,83.4249792 C69.4219141,82.8221759 71.0419453,82.2528337 71.5943967,83.0539522 C72.1468482,83.8550707 71.9048529,85.735555 70.4258715,85.735555 C68.9468901,85.735555 68.8463321,84.0277825 69.1341231,83.4249792 Z" id="Path-51" fill="#372400"></path>
                    <path d="M80.2640251,80.0889628 C80.5518161,79.4861595 82.1718472,78.9168173 82.7242987,79.7179358 C83.2767501,80.5190544 83.0347548,82.3995386 81.5557734,82.3995386 C80.0767921,82.3995386 79.9762341,80.6917662 80.2640251,80.0889628 Z" id="Path-51-Copy" fill="#372400"></path>
                    <path d="M88.7302382,86.7606371 C89.3453019,85.8011736 90.8902704,85.9595185 91.4427219,86.7606371 C91.9951733,87.5617556 91.753178,89.4422399 90.2741966,89.4422399 C88.7952153,89.4422399 88.1151745,87.7201005 88.7302382,86.7606371 Z" id="Path-51-Copy-2" fill="#372400"></path>
                    <path d="M86.3854712,97.1397132 C86.6732621,96.5369098 88.2932933,95.9675676 88.8457448,96.7686862 C89.3981962,97.5698047 89.1562009,99.450289 87.6772195,99.450289 C86.1982381,99.450289 86.0976802,97.7425165 86.3854712,97.1397132 Z" id="Path-51-Copy-3" fill="#372400"></path>
                    <path d="M70.7287037,93.2328717 C71.5999115,88.0698671 75.429577,86.1525519 80.9710699,89.2807294 C86.5125628,92.4089068 86.2338703,99.9281786 80.9710699,101.161963 C75.7082695,102.395748 69.857496,98.3958762 70.7287037,93.2328717 Z" id="Path-51-Copy-4" fill="#372400"></path>
                    <path d="M83.7359552,114.536562 C86.016012,117.154904 88.4332792,118.607187 90.9877567,118.893411 C93.5422341,119.179635 96.2322298,118.247184 99.0577437,116.096057 C96.8847496,119.220793 94.0783779,120.702534 90.6386286,120.541281 C87.1988793,120.380028 84.6252597,119.545248 82.9177696,118.036941 L83.7359552,114.536562 Z" id="Path-52" fill="#372400"></path>
                    <path d="M97.2011438,117.701167 C98.7211791,110.198431 100.062203,105.739063 101.224215,104.323063 C102.967232,102.199063 106.39571,103.4102 108.126448,103.4102 C109.280273,103.4102 110.501062,102.979856 111.788815,102.119168 C110.190375,103.371515 108.969586,104.479432 108.126448,105.442919 C106.861741,106.88815 107.129078,111.597634 104.680103,114.337576 C103.047454,116.164204 100.554467,117.285401 97.2011438,117.701167 Z" id="Path-53" stroke="#372400" stroke-width="1.85466603" fill="#D89348" stroke-linecap="round" stroke-linejoin="round"></path>
                    <path d="M19.8146307,33.1630546 C17.8875085,29.1883731 15.4584449,27.396087 12.5274399,27.7861965 C8.1309324,28.3713606 3.36577303,34.3768773 5.7962999,39.1188634 C7.41665114,42.2801874 10.1925148,43.8883837 14.1238908,43.9434523 C15.207582,41.5378107 16.3761534,39.2004099 17.629605,36.9312497 C18.8830566,34.6620895 19.6113985,33.4060245 19.8146307,33.1630546 Z" id="Path-54" stroke="#372400" stroke-width="1.11279962" fill="#FFE88F"></path>
                    <path d="M9.61914845,37.1842763 C9.61914845,39.255343 11.6442217,40.4027667 15.6943682,40.6265474 L17.6010367,36.8829223 C16.7286712,34.3871722 15.4479255,33.1392971 13.7587996,33.1392971 C11.827356,33.1392971 9.61914845,35.8534106 9.61914845,37.1842763 Z" id="Path-55" fill="#372400"></path>
                    <path d="M24.418526,27.2546054 C24.8957094,27.2546054 18.4364418,36.2268931 16.9713065,39.0962767 C16.2027473,40.6014559 11.5560066,50.9657063 11.3284176,50.7735978 C11.1203138,50.5979369 15.2628187,39.9952605 15.9798788,38.5909394 C17.4873211,35.6387 23.9413427,27.2546054 24.418526,27.2546054 Z" id="Path-56" fill="#372400" fill-rule="nonzero"></path>
                    <path d="M20.2452447,65.1750593 C17.9765233,63.7651366 16.4639426,63.3271005 15.7075027,63.860951 C14.5728428,64.6617268 13.3043472,71.7817358 15.7075027,72.9144521 C17.3096064,73.6695962 19.028465,73.1480762 20.8640785,71.3498918 C20.5229462,70.0882011 20.3166683,69.1118357 20.2452447,68.4207958 C20.1738211,67.7297558 20.1738211,66.6478436 20.2452447,65.1750593 Z" id="Path-81" stroke="#372400" stroke-width="1.11279962" fill="#FFE1D6"></path>
                    <path d="M19.8483252,72.5865304 C19.8483252,68.4018399 31.6321709,68.5677674 35.2433674,68.9275487 C38.854564,69.2873301 43.3239801,70.9279109 35.2433674,74.296602 C27.1627548,77.6652931 19.8483252,76.7712209 19.8483252,72.5865304 Z" id="Path-61" fill="#EB6262"></path>
                    <path d="M69.932884,62.2078128 C69.932884,59.4626992 82.4278341,57.1610704 86.0390306,57.5208518 C89.6502271,57.8806331 93.4085389,60.5491933 85.3279263,63.9178844 C77.2473136,67.2865755 69.932884,64.9529264 69.932884,62.2078128 Z" id="Path-61-Copy" fill="#EB6262"></path>
                    <path d="M81.2933893,47.4000742 C82.1935334,43.7595178 83.3315605,42.3660998 84.7074708,43.2198203 C86.7713362,44.5004011 89.2676437,50.5005845 88.7646222,52.4074431 C88.4292746,53.6786821 86.8568882,53.7257131 84.047463,52.548536 C83.334021,51.3291751 82.8321514,50.454057 82.5418542,49.9231818 C82.2515571,49.3923065 81.8354021,48.5512707 81.2933893,47.4000742 Z" id="Path-80" stroke="#372400" stroke-width="1.11279962" fill="#FFE1D6" stroke-linecap="round" stroke-linejoin="round"></path>
                    <path d="M19.241781,67.2743553 C18.0188232,66.1117979 17.2074543,65.7814924 16.8076744,66.283439 C16.2080045,67.0363588 16.5936269,69.9474025 16.8076744,70.3305154 C17.0217218,70.7136283 17.4387967,68.7408921 17.8748102,68.1934522 C18.1654859,67.8284923 18.6211428,67.5221266 19.241781,67.2743553 Z" id="Path-82" fill="#E5AA94"></path>
                    <path d="M83.4391184,48.3610299 C83.4020314,46.7240104 83.6882543,46.0431103 84.2977872,46.3183296 C84.9073201,46.5935489 85.5719423,47.7037793 86.2916537,49.6490207 C85.6414116,48.9260899 85.1659891,48.4967597 84.8653861,48.3610299 C84.564783,48.2253001 84.0893605,48.2253001 83.4391184,48.3610299 Z" id="Path-83" fill="#E5AA94"></path>
                </g>
            </g>
            <text id="狮子座" font-family="PingFangSC-Medium, PingFang SC" font-size="12" font-weight="400" line-spacing="14" fill="#FF8007">
                <tspan x="10.136" y="22.576">狮</tspan>
                <tspan x="10.136" y="36.576">子</tspan>
                <tspan x="10.136" y="50.576">座</tspan>
            </text>
            <path d="M126.21968,182.822457 C126.666801,182.822457 127.030215,183.176375 127.032257,183.611813 C127.032257,184.04924 126.668843,184.403158 126.221722,184.403158 L123.818701,184.405146 L123.820743,187.208655 C123.820743,187.646082 123.457329,188 123.010208,188 C122.561045,188 122.197632,187.646082 122.197632,187.210643 L122.19559,184.407135 L119.729278,184.409123 C119.280115,184.409123 118.916702,184.055205 118.916702,183.619766 C118.916702,183.18234 119.280115,182.828421 119.727236,182.828421 L122.193548,182.826433 L122.191507,180.889825 L122.191507,180.669123 C119.817069,180.293334 118.002043,178.2931 118.000001,175.873334 C117.99796,173.183159 120.233565,171.00199 122.995917,171.000001 C125.756226,170.998013 127.997957,173.175206 127.999998,175.865381 C128.00204,178.283159 126.189056,180.287369 123.814618,180.667135 L123.814618,180.887837 L123.816659,182.824445 L126.21968,182.822457 Z M123.026541,179.024796 C124.772151,179.024796 126.189056,177.644913 126.189056,175.944913 C126.189056,174.242925 124.772151,172.86503 123.026541,172.86503 C121.27889,172.86503 119.864027,174.244913 119.864027,175.944913 C119.864027,177.646901 121.280931,179.024796 123.026541,179.024796 Z" id="女-copy" fill="#FF8007" fill-rule="nonzero"></path>
        </g>
    </g>
</svg>