<?xml version="1.0" encoding="UTF-8"?>
<svg width="152px" height="212px" viewBox="0 0 152 212" version="1.1" xmlns="http://www.w3.org/2000/svg" xmlns:xlink="http://www.w3.org/1999/xlink">
    <!-- Generator: Sketch 51 (57462) - http://www.bohemiancoding.com/sketch -->
    <title>女/天秤座</title>
    <desc>Created with Sketch.</desc>
    <defs>
        <filter x="-7.5%" y="-3.8%" width="115.0%" height="110.5%" filterUnits="objectBoundingBox" id="filter-1">
            <feOffset dx="0" dy="3" in="SourceAlpha" result="shadowOffsetOuter1"></feOffset>
            <feGaussianBlur stdDeviation="3" in="shadowOffsetOuter1" result="shadowBlurOuter1"></feGaussianBlur>
            <feColorMatrix values="0 0 0 0 0.57254902   0 0 0 0 0.384313725   0 0 0 0 0.984313725  0 0 0 0.2 0" type="matrix" in="shadowBlurOuter1" result="shadowMatrixOuter1"></feColorMatrix>
            <feMerge>
                <feMergeNode in="shadowMatrixOuter1"></feMergeNode>
                <feMergeNode in="SourceGraphic"></feMergeNode>
            </feMerge>
        </filter>
    </defs>
    <g id="星座配对" stroke="none" stroke-width="1" fill="none" fill-rule="evenodd">
        <g id="女/天秤座" filter="url(#filter-1)" transform="translate(6.000000, 3.000000)">
            <rect id="Rectangle-2-Copy-3" fill="#FFFFFF" fill-rule="nonzero" x="0" y="0" width="140" height="200" rx="4"></rect>
            <rect id="Rectangle-2-Copy-5" stroke="#008AFF" fill-opacity="0.1" fill="#00A0FF" fill-rule="nonzero" x="4.5" y="4.5" width="131" height="191" rx="4"></rect>
            <text id="天秤座" font-family="PingFangSC-Medium, PingFang SC" font-size="12" font-weight="400" line-spacing="14" fill="#008AFF">
                <tspan x="10.136" y="22.576">天</tspan>
                <tspan x="10.136" y="36.576">秤</tspan>
                <tspan x="10.136" y="50.576">座</tspan>
            </text>
            <path d="M126.21968,182.822457 C126.666801,182.822457 127.030215,183.176375 127.032257,183.611813 C127.032257,184.04924 126.668843,184.403158 126.221722,184.403158 L123.818701,184.405146 L123.820743,187.208655 C123.820743,187.646082 123.457329,188 123.010208,188 C122.561045,188 122.197632,187.646082 122.197632,187.210643 L122.19559,184.407135 L119.729278,184.409123 C119.280115,184.409123 118.916702,184.055205 118.916702,183.619766 C118.916702,183.18234 119.280115,182.828421 119.727236,182.828421 L122.193548,182.826433 L122.191507,180.889825 L122.191507,180.669123 C119.817069,180.293334 118.002043,178.2931 118.000001,175.873334 C117.99796,173.183159 120.233565,171.00199 122.995917,171.000001 C125.756226,170.998013 127.997957,173.175206 127.999998,175.865381 C128.00204,178.283159 126.189056,180.287369 123.814618,180.667135 L123.814618,180.887837 L123.816659,182.824445 L126.21968,182.822457 Z M123.026541,179.024796 C124.772151,179.024796 126.189056,177.644913 126.189056,175.944913 C126.189056,174.242925 124.772151,172.86503 123.026541,172.86503 C121.27889,172.86503 119.864027,174.244913 119.864027,175.944913 C119.864027,177.646901 121.280931,179.024796 123.026541,179.024796 Z" id="女-copy" fill="#008AFF" fill-rule="nonzero"></path>
            <g id="天秤座" transform="translate(19.000000, 36.000000)">
                <g id="天秤座-copy">
                    <path d="M74.1447643,83.719619 C86.2241368,76.0617376 92.1276103,70.9434377 91.8551851,68.3647193 C91.5827598,65.7860009 85.0641088,65.0811653 72.2992321,66.2502127 C72.0670824,70.7845431 72.0670824,74.1504477 72.2992321,76.3479264 C72.5313819,78.5454052 73.1465593,81.0026361 74.1447643,83.719619 Z" id="Path-303" stroke="#372400" stroke-width="1.62941639" fill="#FFE1D6" stroke-linecap="round" stroke-linejoin="round"></path>
                    <polygon id="Path-301" stroke="#372400" stroke-width="1.62941639" fill="#FFE1D6" stroke-linejoin="round" points="38.7874481 72.5884795 42.3430201 83.6619666 54.4655548 86.3328141 60.928784 81.9651647 63.7122708 63.1543567"></polygon>
                    <path d="M42.8625425,75.2168127 L32.0692189,75.2168127 L26.0100465,80.8277615 C29.3755452,83.2531418 31.6860544,85.1029618 32.9415744,86.3772218 C34.1970943,87.6514817 35.3998021,88.7145849 36.5496977,89.5665312 L70.4105147,89.5665312 L74.6944197,82.8545711 C73.4859537,80.9134377 72.814421,79.3804607 72.6798218,78.25564 C72.5452226,77.1308193 72.5452226,73.0519227 72.6798218,66.0189503 L61.9529338,69.3284299 C59.3410307,76.994651 55.8954018,80.8277615 51.6160473,80.8277615 C47.3366928,80.8277615 44.4188578,78.9574453 42.8625425,75.2168127 Z" id="Path-302" stroke="#372400" stroke-width="1.62941639" fill="#FFFFFF" stroke-linecap="round" stroke-linejoin="round"></path>
                    <path d="M34.6049993,88.1592614 L71.2854517,88.1592614 C69.928744,93.8758174 69.0486379,98.1154383 68.6451334,100.878124 C68.1658161,104.159879 68.4383418,107.001632 67.3768618,110.364382 C64.9750004,117.973437 62.1058374,123.026125 58.769373,125.522445 L51.8478896,122.905518 C55.2012815,118.145486 54.4265488,114.775835 49.5236914,112.796564 C45.5469513,111.191165 39.5644188,115.772251 27.582709,117.613132 C25.7224804,117.898939 22.1469006,116.783062 16.8559697,114.2655 L20.1341778,106.840853 C23.66632,106.657414 25.8509702,106.289279 26.6881285,105.736447 C27.9438659,104.907199 27.7702285,100.172982 28.9166029,97.5113939 C29.6808525,95.737002 31.5769846,92.6196245 34.6049993,88.1592614 Z" id="Path-305" stroke="#372400" stroke-width="1.62941639" fill="#134F95" stroke-linecap="round" stroke-linejoin="round"></path>
                    <polygon id="Path-306" stroke="#372400" stroke-width="1.62941639" fill="#134F95" stroke-linecap="round" stroke-linejoin="round" points="35.5836633 75.2249918 38.0513268 91.8478643 42.8853015 91.8478643 39.9762217 75.2249918"></polygon>
                    <path d="M35.3826867,88.5535749 C43.6513529,97.1684506 46.6478974,102.225303 44.3723203,103.724133 C40.9589545,105.972378 28.1618658,101.219256 25.5255317,94.958542 C23.7679757,90.7847327 24.1014108,86.0759712 26.5258371,80.8322577 L35.3826867,88.5535749 Z" id="Path-304" stroke="#372400" stroke-width="1.62941639" fill="#FFE1D6" stroke-linecap="round" stroke-linejoin="round"></path>
                    <polygon id="Path-307" stroke="#372400" stroke-width="1.62941639" fill="#134F95" stroke-linecap="round" stroke-linejoin="round" points="64.7806142 68.5557943 68.6213357 67.3408557 66.2006143 92.2090045 60.9222895 92.2090045"></polygon>
                    <ellipse id="Oval-10" fill="#372400" cx="39.4813412" cy="88.1696791" rx="1" ry="1"></ellipse>
                    <ellipse id="Oval-10-Copy" fill="#372400" cx="63.7271442" cy="88.8264365" rx="1" ry="1"></ellipse>
                    <path d="M46.2882071,95.2536749 L59.7435036,95.2536749 C58.2287251,102.334868 55.6520952,105.747069 52.013614,105.490278 C48.3751328,105.233488 46.4666638,101.821287 46.2882071,95.2536749 Z" id="Path-308" stroke="#372400" stroke-width="1.62941639"></path>
                    <path d="M88.1102904,56.4031234 C92.8598371,50.6235609 91.6119609,45.2227161 84.3666617,40.200589 C84.9678946,37.150698 84.9678946,34.9247955 84.3666617,33.5228815 C75.8379521,13.6362146 65.7403067,2.88503764 59.5637219,1.13970502 C52.7340081,-0.790183882 45.9968955,-0.0576344294 39.3523841,3.33735338 C22.9313488,0.193471922 11.7294009,6.2510852 5.74654018,21.5101932 C-3.22775086,44.3988552 -1.17278775,71.0176253 8.79005872,75.6408263 C15.4319564,78.7229603 22.4302567,75.9725786 29.7849598,67.3896812 C63.9189667,65.8448719 83.3607436,62.182686 88.1102904,56.4031234 Z" id="Path-309" stroke="#372400" stroke-width="1.62941639" fill="#7A472B" stroke-linecap="round" stroke-linejoin="round"></path>
                    <path d="M33.1315093,17.104105 C12.7807537,24.2115996 12.0665537,50.5525695 16.9858565,61.8453793 C21.9051592,73.1381891 36.2678066,77.1560432 51.8706122,71.5204997 C67.4734179,65.8849563 80.0011113,56.0995413 77.3852097,41.2928182 C74.7693081,26.4860952 53.4822649,9.99661034 33.1315093,17.104105 Z" id="Path-311" stroke="#372400" stroke-width="1.62941639" fill="#FFE1D6" stroke-linecap="round" stroke-linejoin="round"></path>
                    <path d="M7.66076111,44.0311313 L12.8660851,24.0638869 L32.7815222,14.9643597 L53.0921907,9.22261451 L69.3582273,21.9055344 C73.5747715,31.4337006 75.9517701,37.6094699 76.4892231,40.4328425 C77.0266762,43.2562151 76.375009,46.1440342 74.5342215,49.0962999 C75.1800717,46.0462332 75.0135488,42.9529674 74.0346527,39.8165024 C73.0557566,36.6800375 71.4969482,34.245197 69.3582273,32.511981 C65.7703966,32.8278593 62.2218074,31.4727785 58.7124598,28.4467387 C55.2031121,25.4206988 52.6446852,21.5098227 51.0371792,16.7141101 C49.3346461,23.9839205 46.7097062,29.0759143 43.1623596,31.9900918 C39.6150129,34.9042692 34.8486748,35.8842772 28.8633451,34.9301159 C26.7259724,39.3845072 24.4973859,42.9739613 22.1775857,45.6984782 C19.8577855,48.4229951 17.1823598,50.5931162 14.1513088,52.2088414 C15.5385091,56.3512979 16.7080161,59.3380655 17.6598299,61.1691443 C18.6116436,63.000223 20.6030271,65.2418248 23.6339802,67.8939495 C20.7654109,67.5689217 18.7740275,67.1835686 17.6598299,66.7378902 C16.5456323,66.2922117 14.9477174,65.2418474 12.8660851,63.5867973 L7.66076111,44.0311313 Z" id="Path-310" fill="#7A472B"></path>
                    <path d="M7.6932784,18.8438526 C7.65254895,21.4474171 9.28512286,22.9482812 12.5910001,23.3464449 C17.5498161,23.9436904 19.2518764,21.65417 26.3853606,21.0951487 C33.5188448,20.5361275 32.9913183,23.6787163 41.3190398,21.0951487 C49.6467612,18.5115812 47.4741667,16.6836699 52.8160301,12.8953765 C56.3772724,10.3698475 60.1012901,7.59050937 63.9880832,4.55736199 L66.512135,6.8330816 C64.2340756,7.47460732 61.9582887,8.6944613 59.6847745,10.4926435 C56.2745031,13.1899169 56.9173628,14.6254324 54.6667511,16.2019074 C52.4161393,17.7783824 51.613276,15.4328898 47.7623974,18.8438526 C43.9115189,22.2548154 46.2904348,25.3990276 43.2881376,26.2806535 C40.2858404,27.1622794 37.1249141,23.0962181 32.4292273,23.3464449 C27.7335405,23.5966716 26.9121606,27.2838017 24.4633317,27.2838017 C22.0145028,27.2838017 26.0407323,23.3464449 21.6569343,23.3464449 C17.2731362,23.3464449 12.9317021,27.2838017 9.61906759,27.2838017 C7.4106446,27.2838017 6.11555699,25.9713494 5.73380474,23.3464449 C6.14343449,22.319727 6.4514207,21.569295 6.6577634,21.0951487 C6.8641061,20.6210025 7.20927776,19.8705705 7.6932784,18.8438526 Z" id="Path-17" fill="#BB8C6E"></path>
                    <path d="M37.8428165,45.4703986 C35.1084964,43.8975394 32.6673792,43.6149075 30.5194649,44.6225029 C28.3715506,45.6300982 25.5144325,48.4947283 21.9481106,53.2163931" id="Path-312" stroke="#372400" stroke-width="1.30353311" stroke-linecap="round" stroke-linejoin="round"></path>
                    <path d="M49.5495096,37.6098918 C52.2205404,38.2475678 54.7982476,38.2475678 57.2826312,37.6098918 C59.7670147,36.9722159 62.3447219,35.6624823 65.0157528,33.680691" id="Path-313" stroke="#372400" stroke-width="1.30353311" stroke-linecap="round" stroke-linejoin="round"></path>
                    <path d="M38.0418816,49.9135613 C35.5444628,51.8977058 33.7066987,53.2814933 32.5285893,54.0649238 C31.3504799,54.8483544 29.0264124,56.2321419 25.5563869,58.2162863" id="Path-314" stroke="#372400" stroke-width="1.30353311" stroke-linecap="round" stroke-linejoin="round"></path>
                    <path d="M65.8741297,41.385524 C62.3964723,41.385524 59.977204,41.6480938 58.6163248,42.1732335 C57.2554455,42.6983731 55.0819078,43.5582153 52.0957117,44.7527599" id="Path-314-Copy" stroke="#372400" stroke-width="1.30353311" stroke-linecap="round" stroke-linejoin="round"></path>
                    <ellipse id="Oval-11" fill="#000000" cx="34.4028285" cy="55.6601885" rx="2.78499088" ry="2.4628402"></ellipse>
                    <ellipse id="Oval-11-Copy" fill="#000000" cx="58.1571624" cy="45.480449" rx="2.78499088" ry="2.4628402"></ellipse>
                    <ellipse id="Oval-12" fill="#FFFFFF" cx="58.7305429" cy="44.4132182" rx="1" ry="1"></ellipse>
                    <ellipse id="Oval-12-Copy" fill="#FFFFFF" cx="34.48474" cy="54.7571471" rx="1" ry="1"></ellipse>
                    <path d="M46.0957077,55.5768738 C46.7353676,54.3948461 47.3100426,53.685718 47.8197329,53.4494897 C48.3294232,53.2132613 49.3039915,53.2132613 50.7434379,53.4494897" id="Path-315" stroke="#372400" stroke-width="0.651766554" stroke-linecap="round" stroke-linejoin="round"></path>
                    <path d="M40.1797273,69.8629606 C38.2601083,66.9701659 39.4521132,64.7370487 42.9254855,63.8657321 C46.3988578,62.9944155 47.8446919,66.248825 54.4411412,65.1000518 C61.0375904,63.9512787 61.2284813,56.8374259 64.897433,60.3542318 C68.5663847,63.8710378 58.8371188,69.8629606 53.3494258,71.4729509 C47.8617329,73.0829412 42.0993464,72.7557554 40.1797273,69.8629606 Z" id="Path-316" stroke="#372400" stroke-width="1.62941639" fill="#FFC1A8"></path>
                    <path d="M77.6444353,36.1635278 C77.6192169,39.9531269 77.4588739,42.2980317 77.1634062,43.1982424 C76.8679385,44.098453 76.1464091,45.8742113 74.998818,48.5255173 C75.3207873,44.9119001 75.0903185,41.9231482 74.3074116,39.5592615 C73.1330513,36.0134315 71.8815159,33.9750664 69.8397694,32.9484336 C67.7980229,31.9218009 65.0926737,32.9484336 60.0839349,29.6021141 C56.7447756,27.3712345 53.5773022,23.0077706 50.5815145,16.5117226 C49.2746264,23.987722 46.8850612,29.2466311 43.4128188,32.2884498 C39.9405764,35.3302685 35.0755532,36.082239 28.8177492,34.5443612 C27.3313461,39.3214877 25.5749101,42.9238232 23.5484411,45.3513675 C21.5219722,47.7789119 18.4267868,49.988423 14.2628847,51.9799008 C15.0818338,56.9613112 16.2595596,60.5628326 17.7960624,62.7844649 C19.3325652,65.0060973 21.2500248,66.6988958 23.5484411,67.8628604 C20.7885402,68.0985794 18.8710806,68.0985794 17.7960624,67.8628604 C16.7210442,67.6271414 15.105123,66.8523778 12.948299,65.5385695" id="Path-317" stroke="#372400" stroke-width="1.62941639" stroke-linecap="round" stroke-linejoin="round"></path>
                    <path d="M100.18922,56.7506862 C100.18922,55.3803958 72.3315459,62.9073692 63.6979591,68.6757167 C55.0643723,74.4440642 30.0457384,91.5367214 31.4586236,92.7204237 C32.8715089,93.904126 54.5802266,77.5707854 67.4392989,70.7472284 C80.2983712,63.9236714 100.18922,58.1209765 100.18922,56.7506862 Z" id="Path-318" stroke="#372400" stroke-width="1.62941639" fill="#C68D5B"></path>
                    <path d="M96.8451837,75.8049068 C94.4538039,72.7358805 92.7087848,71.9686239 91.6101264,73.5031371 C90.5114679,75.0376503 91.9224825,77.5183872 95.84317,80.9453478 C100.740099,77.9465347 102.819123,75.6530328 102.080241,74.0648422 C101.341359,72.4766516 99.5963399,73.0566731 96.8451837,75.8049068 Z" id="Path-321" fill="#E85A5A"></path>
                    <path d="M102.215976,69.0761913 C100.609826,66.9892534 99.4377978,66.4675189 98.6998929,67.5109879 C97.9619879,68.5544568 98.9096843,70.2413579 101.542982,72.5716912 C104.831964,70.5324982 106.228323,68.9729169 105.732059,67.8929473 C105.235795,66.8129777 104.063768,67.2073924 102.215976,69.0761913 Z" id="Path-321-Copy" fill="#E85A5A"></path>
                    <path d="M90.4291942,79.2931263 C85.6130123,91.3279159 88.9696655,94.5488092 100.499154,88.9558064 C112.199582,84.0870393 115.139041,77.9689102 109.317533,70.601419 C106.276941,75.3139423 103.293834,78.211178 100.368214,79.2931263 C97.4425942,80.3750745 94.1295875,80.3750745 90.4291942,79.2931263 Z" id="Path-320" stroke="#372400" stroke-width="1.46647471" fill="#FFF798" stroke-linecap="round" stroke-linejoin="round"></path>
                    <path d="M97.404962,57.79465 C90.032547,78.0773782 87.3930765,89.1675413 89.4865504,91.0651391 C92.6267612,93.9115358 110.688448,85.1428331 112.104389,78.8621345 C113.048351,74.6750021 108.148541,67.6525073 97.404962,57.79465 Z" id="Path-319" stroke="#372400" stroke-width="1.46647471" stroke-linecap="round" stroke-linejoin="round"></path>
                    <path d="M35.333122,107.697545 C32.6952218,104.260235 30.7703137,103.400908 29.5583977,105.119562 C28.3464817,106.838217 29.9029536,109.616643 34.2278136,113.454838 C39.6295533,110.096168 41.9228975,107.527446 41.1078463,105.748672 C40.2927951,103.969899 38.367887,104.619523 35.333122,107.697545 Z" id="Path-321" fill="#E85A5A"></path>
                    <path d="M24.6428951,115.556552 C19.2964336,128.924345 23.0226667,132.501993 35.8215944,126.289495 C48.8102828,120.881451 52.0733878,114.085662 45.6109094,105.902129 C42.2355369,111.136623 38.9239798,114.354764 35.676238,115.556552 C32.4284963,116.758339 28.7507153,116.758339 24.6428951,115.556552 Z" id="Path-320" stroke="#372400" stroke-width="1.62941639" fill="#FFF798" stroke-linecap="round" stroke-linejoin="round"></path>
                    <path d="M32.536717,91.7818447 C24.3180882,114.268387 21.3756563,126.563549 23.7094214,128.66733 C27.2100691,131.823001 47.344896,122.101537 48.9233609,115.138411 C49.9756709,110.496327 44.5134563,102.710805 32.536717,91.7818447 Z" id="Path-319" stroke="#372400" stroke-width="1.62941639" stroke-linecap="round" stroke-linejoin="round"></path>
                    <path d="M32.9630725,62.6057767 C32.6318229,60.5546476 22.6692999,63.3666546 19.6184186,65.9841891 C16.5675373,68.6017236 14.9925307,74.649393 19.6184186,74.0549579 C24.2443064,73.4605227 33.294322,64.6569057 32.9630725,62.6057767 Z" id="Path-322" fill="#EB6262"></path>
                    <path d="M79.6615242,46.5168459 C78.3166824,43.2985537 71.6523747,45.9625838 68.6014934,48.5801184 C65.5506121,51.1976529 63.9756056,57.2453222 68.6014934,56.6508871 C73.2273812,56.056452 81.0063661,49.7351381 79.6615242,46.5168459 Z" id="Path-322-Copy" fill="#EB6262"></path>
                </g>
            </g>
        </g>
    </g>
</svg>