<?xml version="1.0" encoding="UTF-8"?>
<svg width="152px" height="212px" viewBox="0 0 152 212" version="1.1" xmlns="http://www.w3.org/2000/svg" xmlns:xlink="http://www.w3.org/1999/xlink">
    <!-- Generator: Sketch 51 (57462) - http://www.bohemiancoding.com/sketch -->
    <title>女/巨蟹座</title>
    <desc>Created with Sketch.</desc>
    <defs>
        <filter x="-7.5%" y="-3.8%" width="115.0%" height="110.5%" filterUnits="objectBoundingBox" id="filter-1">
            <feOffset dx="0" dy="3" in="SourceAlpha" result="shadowOffsetOuter1"></feOffset>
            <feGaussianBlur stdDeviation="3" in="shadowOffsetOuter1" result="shadowBlurOuter1"></feGaussianBlur>
            <feColorMatrix values="0 0 0 0 0.57254902   0 0 0 0 0.384313725   0 0 0 0 0.984313725  0 0 0 0.2 0" type="matrix" in="shadowBlurOuter1" result="shadowMatrixOuter1"></feColorMatrix>
            <feMerge>
                <feMergeNode in="shadowMatrixOuter1"></feMergeNode>
                <feMergeNode in="SourceGraphic"></feMergeNode>
            </feMerge>
        </filter>
        <rect id="path-2" x="5" y="5" width="130" height="190" rx="4"></rect>
        <path d="M53.279919,105.84769 C52.3241005,101.593736 52.0461521,94.4777516 61.5050828,92.8205685 C70.9640136,91.1633853 73.7637882,98.0506751 74.0563777,103.19024 C74.3489673,108.329804 70.321752,115.714935 63.6031576,115.714935 C56.8845632,115.714935 54.2357375,110.101643 53.279919,105.84769 Z" id="path-4"></path>
        <filter x="-2.4%" y="-2.2%" width="109.4%" height="104.3%" filterUnits="objectBoundingBox" id="filter-5">
            <feOffset dx="1" dy="0" in="SourceAlpha" result="shadowOffsetOuter1"></feOffset>
            <feColorMatrix values="0 0 0 0 0.215686275   0 0 0 0 0.141176471   0 0 0 0 0  0 0 0 1 0" type="matrix" in="shadowOffsetOuter1"></feColorMatrix>
        </filter>
        <path d="M91.579047,28.4965785 C89.4663817,21.7661808 95.5142979,9.59362356 107.166638,14.2764121 C118.818978,18.9592005 115.191093,35.5296475 107.166638,37.4770843 C99.1421832,39.4245212 93.6917122,35.2269762 91.579047,28.4965785 Z" id="path-6"></path>
        <filter x="0.0%" y="0.0%" width="100.0%" height="100.0%" filterUnits="objectBoundingBox" id="filter-7">
            <feOffset dx="0" dy="0" in="SourceAlpha" result="shadowOffsetInner1"></feOffset>
            <feComposite in="shadowOffsetInner1" in2="SourceAlpha" operator="arithmetic" k2="-1" k3="1" result="shadowInnerInner1"></feComposite>
            <feColorMatrix values="0 0 0 0 0.215686275   0 0 0 0 0.141176471   0 0 0 0 0  0 0 0 1 0" type="matrix" in="shadowInnerInner1"></feColorMatrix>
        </filter>
        <path d="M25.6144343,25.3868248 C15.5675517,28.9313502 9.37732336,22.5707369 9.37732336,14.8287735 C9.37732336,7.08681013 18.535982,-1.76301981 27.9963932,3.29237159 C37.4568045,8.34776299 35.661317,21.8422995 25.6144343,25.3868248 Z" id="path-8"></path>
        <filter x="-2.0%" y="-2.0%" width="104.0%" height="104.1%" filterUnits="objectBoundingBox" id="filter-9">
            <feOffset dx="1" dy="0" in="SourceAlpha" result="shadowOffsetInner1"></feOffset>
            <feComposite in="shadowOffsetInner1" in2="SourceAlpha" operator="arithmetic" k2="-1" k3="1" result="shadowInnerInner1"></feComposite>
            <feColorMatrix values="0 0 0 0 0.215686275   0 0 0 0 0.141176471   0 0 0 0 0  0 0 0 1 0" type="matrix" in="shadowInnerInner1"></feColorMatrix>
        </filter>
    </defs>
    <g id="星座配对" stroke="none" stroke-width="1" fill="none" fill-rule="evenodd">
        <g id="女/巨蟹座" filter="url(#filter-1)" transform="translate(6.000000, 3.000000)">
            <rect id="Rectangle-2-Copy-3" fill="#FFFFFF" fill-rule="nonzero" x="0" y="0" width="140" height="200" rx="4"></rect>
            <mask id="mask-3" fill="white">
                <use xlink:href="#path-2"></use>
            </mask>
            <rect stroke="#E85151" x="4.5" y="4.5" width="131" height="191" rx="4"></rect>
            <text id="巨蟹座" mask="url(#mask-3)" font-family="PingFangSC-Medium, PingFang SC" font-size="12" font-weight="400" line-spacing="14" fill="#E85151">
                <tspan x="10.136" y="22.576">巨</tspan>
                <tspan x="10.136" y="36.576">蟹</tspan>
                <tspan x="10.136" y="50.576">座</tspan>
            </text>
            <path d="M126.21968,182.822457 C126.666801,182.822457 127.030215,183.176375 127.032257,183.611813 C127.032257,184.04924 126.668843,184.403158 126.221722,184.403158 L123.818701,184.405146 L123.820743,187.208655 C123.820743,187.646082 123.457329,188 123.010208,188 C122.561045,188 122.197632,187.646082 122.197632,187.210643 L122.19559,184.407135 L119.729278,184.409123 C119.280115,184.409123 118.916702,184.055205 118.916702,183.619766 C118.916702,183.18234 119.280115,182.828421 119.727236,182.828421 L122.193548,182.826433 L122.191507,180.889825 L122.191507,180.669123 C119.817069,180.293334 118.002043,178.2931 118.000001,175.873334 C117.99796,173.183159 120.233565,171.00199 122.995917,171.000001 C125.756226,170.998013 127.997957,173.175206 127.999998,175.865381 C128.00204,178.283159 126.189056,180.287369 123.814618,180.667135 L123.814618,180.887837 L123.816659,182.824445 L126.21968,182.822457 Z M123.026541,179.024796 C124.772151,179.024796 126.189056,177.644913 126.189056,175.944913 C126.189056,174.242925 124.772151,172.86503 123.026541,172.86503 C121.27889,172.86503 119.864027,174.244913 119.864027,175.944913 C119.864027,177.646901 121.280931,179.024796 123.026541,179.024796 Z" id="女-copy" fill="#E85151" fill-rule="nonzero" mask="url(#mask-3)"></path>
            <g id="巨蟹座" mask="url(#mask-3)">
                <g transform="translate(67.500000, 99.500000) rotate(9.000000) translate(-67.500000, -99.500000) translate(9.000000, 34.000000)" id="巨蟹座-copy">
                    <g>
                        <path d="M79.5825322,79.4760377 C83.8607075,92.4954039 86.245464,102.281026 86.7368016,108.832905 C87.2281391,115.384784 85.4999875,121.883197 81.5523467,128.328144 L76.7635449,128.328144 C75.745685,121.396868 72.388698,117.93123 66.6925839,117.93123 C60.9964699,117.93123 56.6673137,121.945726 53.7051154,129.974719 L47.2041938,131.123278 C44.2625439,127.001301 42.187707,122.277567 40.9796829,116.952076 C39.7716589,111.626584 40.0368527,102.026816 41.7752643,88.1527707 L79.5825322,79.4760377 Z" id="Path-197" stroke="#372400" stroke-width="1.6081685" fill="#B44545" stroke-linecap="round" stroke-linejoin="round"></path>
                        <g id="Path-196">
                            <use fill="black" fill-opacity="1" filter="url(#filter-5)" xlink:href="#path-4"></use>
                            <use fill="#F1B85B" fill-rule="evenodd" xlink:href="#path-4"></use>
                        </g>
                        <path d="M17.286706,46.7325605 C13.5561965,46.2935809 10.5222432,46.6048508 8.18484608,47.6663702 C5.84744897,48.7278895 3.19822849,51.4788114 0.237184638,55.9191357 C-0.19969704,57.389727 -0.0330438448,58.4554715 0.737144224,59.1163693 C1.50733229,59.7772671 2.43939459,59.7772671 3.53333112,59.1163693 C6.9708005,55.0010243 9.28373716,52.6743486 10.4721411,52.1363424 C11.6605451,51.5983362 13.6598676,51.5983362 16.4701085,52.1363424 L17.286706,46.7325605 Z" id="Path-203" stroke="#372400" stroke-width="1.6081685" fill="#B44545"></path>
                        <path d="M18.3472263,54.770838 C15.0248964,53.9722628 12.1950329,54.1037349 9.85763583,55.1652543 C7.52023872,56.2267737 5.44018732,58.6713282 3.61748162,62.4989177 C3.26836449,63.3784339 3.47889996,64.1486409 4.24908803,64.8095387 C5.0192761,65.4704364 5.83873334,65.4704364 6.70745975,64.8095387 C9.00834669,61.5467911 10.7529921,59.6464143 11.9413961,59.1084081 C13.1298001,58.5704019 15.0851487,58.4396407 17.8074418,58.7161244 L18.3472263,54.770838 Z" id="Path-203-Copy" stroke="#372400" stroke-width="1.6081685" fill="#B44545"></path>
                        <path d="M18.9403613,59.8921245 C18.2925445,59.4531449 16.7999376,59.7644148 14.4625405,60.8259342 C12.1251434,61.8874535 9.47592288,64.6383754 6.51487903,69.0786997 C5.74469096,70.9575456 5.74469096,72.2274174 6.51487903,72.8883152 C7.67016113,73.8796619 9.81072088,73.9791858 10.4410742,72.2759333 C11.0714275,70.5726808 9.98145388,71.2927274 9.98145388,70.0802809 C9.98145388,68.0467179 12.0187767,65.859685 13.2646672,65.2959064 C14.3689207,64.7962201 15.9886195,64.7962201 18.1237638,65.2959064 L18.9403613,59.8921245 Z" id="Path-203-Copy-2" stroke="#372400" stroke-width="1.6081685" fill="#B44545"></path>
                        <path d="M96.1445192,47.5642531 C99.5989024,46.3048431 102.321344,46.7369759 104.311844,48.8606515 C107.297594,52.046165 109.439898,59.1744832 107.026671,59.1744832 C104.613444,59.1744832 103.373171,52.4289862 101.585595,51.0245487 C100.393878,50.0882571 98.7498101,50.0882571 96.6533907,51.0245487 L96.1445192,47.5642531 Z" id="Path-204" stroke="#372400" stroke-width="1.6081685" fill="#B44545"></path>
                        <path d="M96.7477202,55.0503844 C98.6675858,54.4239746 100.19843,54.4239746 101.340254,55.0503844 C103.05299,55.9899991 105.700137,63.1965233 103.65746,63.1965233 C101.614782,63.1965233 101.601286,60.0457724 100.20259,59.1234539 C99.2701257,58.5085749 98.1185025,58.3474739 96.7477202,58.6401512 L96.7477202,55.0503844 Z" id="Path-205" stroke="#372400" stroke-width="1.6081685" fill="#B44545"></path>
                        <path d="M95.9880084,62.9662587 C97.0480517,62.2015214 98.2067955,62.2015214 99.4642397,62.9662587 C101.350406,64.1133646 103.464994,70.7480228 100.479445,70.7480228 C97.4938959,70.7480228 99.0709853,67.5975794 98.0487534,66.5703643 C97.3672655,65.8855541 96.4653245,65.5575887 95.3429302,65.5864679 L95.9880084,62.9662587 Z" id="Path-206" stroke="#372400" stroke-width="1.6081685" fill="#B44545"></path>
                        <path d="M88.7043101,33.333432 C100.240359,45.4026614 101.129288,63.7776479 92.7019175,74.0249569 C79.2703758,90.3571159 43.0006444,98.2670218 23.0964171,81.1271863 C9.86566798,69.7339853 11.6747573,47.5103868 25.9140641,33.6507675 L23.3192426,28.0387471 C17.2327732,28.8688062 12.4853066,26.5754298 9.07684306,21.1586181 C3.9641477,13.0334005 11.460904,0.920730991 20.8891322,0.143104345 C30.3173604,-0.6345223 35.1346725,7.44036802 35.9039928,12.2843683 C36.8012416,17.9338664 34.1457328,22.6761689 27.9374665,26.5112759 C28.3709924,28.6112884 28.7097089,29.8522845 28.9536159,30.2342643 C29.0334396,30.3592752 29.1758776,30.494334 29.38093,30.6394406 C36.2831653,25.2968341 45.428815,21.7562791 56.6128955,21.5254776 C69.6135111,21.257189 79.4326663,25.1269572 86.2656017,31.0172951 C86.5382273,30.923219 86.8384417,30.8079245 87.1679471,30.6669774 C87.4738216,30.5361386 88.0784846,30.0581094 88.9819362,29.2328899 C87.8868718,20.7238583 90.6191239,15.1189521 97.1786925,12.4181716 C107.018045,8.36700069 113.312827,14.4182777 115.769545,21.3149068 C118.226264,28.2115358 114.593123,38.5960827 106.163111,39.924678 C100.543102,40.8104083 95.2130305,38.4250932 90.1728948,32.768733 C89.5756469,32.9721494 89.0861187,33.1603824 88.7043101,33.333432 Z" id="Combined-Shape" stroke="#372400" stroke-width="1.6081685" fill="#B44545" stroke-linecap="round" stroke-linejoin="round"></path>
                        <path d="M60.6058791,87.8628809 C91.1581595,83.4337473 91.9288931,67.0486872 89.2136945,60.069328 C86.498496,53.0899687 76.4672059,36.7328105 52.1966556,39.4699782 C27.9261053,42.207146 22.9956875,58.5910558 23.7019034,68.3249161 C24.4081194,78.0587764 30.0535986,92.2920146 60.6058791,87.8628809 Z" id="Path-202" stroke="#372400" stroke-width="1.6081685" fill="#FFE1D6"></path>
                        <path d="M71.1320671,55.4860706 C66.7448714,56.4580369 65.9513499,63.9981298 68.1331459,67.1236564 C70.3149418,70.249183 76.5621769,70.4219632 77.9442399,65.0236642 C79.3263028,59.6253652 75.5192629,54.5141043 71.1320671,55.4860706 Z" id="Path-207" fill="#372400"></path>
                        <path d="M42.9629257,56.930413 C38.5757299,57.9023793 37.7822084,65.4424722 39.9640044,68.5679988 C42.1458004,71.6935254 48.3930354,71.8663056 49.7750984,66.4680066 C51.1571613,61.0697076 47.3501214,55.9584467 42.9629257,56.930413 Z" id="Path-207-Copy" fill="#372400"></path>
                        <path d="M67.8562991,60.267405 C68.3221084,61.4554066 70.8730617,62.2847542 73.0359476,61.3428226 C75.1988336,60.4008909 75.7187698,58.402754 75.3012024,57.3377887 C74.883635,56.2728234 73.286514,55.2666658 71.037544,56.2460869 C68.788574,57.225508 67.3904898,59.0794034 67.8562991,60.267405 Z" id="Path-208" fill="#FFFFFF"></path>
                        <path d="M39.6871576,61.7117474 C40.1529669,62.899749 42.7039202,63.7290966 44.8668062,62.787165 C47.0296921,61.8452333 47.5496283,59.8470964 47.1320609,58.7821311 C46.7144935,57.7171658 45.1173725,56.7110082 42.8684025,57.6904293 C40.6194325,58.6698504 39.2213484,60.5237457 39.6871576,61.7117474 Z" id="Path-208-Copy-2" fill="#FFFFFF"></path>
                        <path d="M71.6738511,67.3187672 C71.9018154,67.9001683 73.1502371,68.3060462 74.2087409,67.8450703 C75.2672446,67.3840944 75.5216984,66.4062179 75.3173433,65.8850301 C75.1129883,65.3638423 74.3313666,64.8714346 73.2307338,65.3507576 C72.130101,65.8300805 71.4458867,66.7373661 71.6738511,67.3187672 Z" id="Path-208-Copy" fill="#FFFFFF"></path>
                        <path d="M43.5047096,68.7631096 C43.7326739,69.3445107 44.9810956,69.7503886 46.0395994,69.2894127 C47.0981032,68.8284368 47.3525569,67.8505603 47.1482018,67.3293725 C46.9438468,66.8081847 46.1622251,66.315777 45.0615923,66.7951 C43.9609595,67.2744229 43.2767452,68.1817085 43.5047096,68.7631096 Z" id="Path-208-Copy-3" fill="#FFFFFF"></path>
                        <path d="M66.6942085,52.0867353 C67.0989366,52.3623273 69.1691145,50.2178261 70.9400335,50.0453234 C72.7109524,49.8728207 74.9457172,51.6978516 75.1755483,51.2605798 C75.4053795,50.8233081 72.8082123,48.5786191 70.5118765,48.802302 C68.2155407,49.0259848 66.2894803,51.8111432 66.6942085,52.0867353 Z" id="Path-209" fill="#372400"></path>
                        <path d="M36.8414424,55.296385 C37.2461706,55.5719771 39.3163485,53.4274759 41.0872674,53.2549731 C42.8581864,53.0824704 45.0929511,54.9075013 45.3227823,54.4702296 C45.5526134,54.0329578 42.9554462,51.7882689 40.6591104,52.0119517 C38.3627746,52.2356346 36.4367143,55.020793 36.8414424,55.296385 Z" id="Path-209-Copy" fill="#372400"></path>
                        <path d="M56.4053252,70.6406173 C57.5731792,68.8582358 58.5493697,67.9156223 59.3338969,67.8127769 C60.1184241,67.7099314 60.9427692,68.4165085 61.8069322,69.9325081 C61.198656,68.8780177 60.3743108,68.4189676 59.3338969,68.5553579 C58.2934829,68.6917481 57.3172924,69.3868346 56.4053252,70.6406173 Z" id="Path-210" fill="#372400"></path>
                        <path d="M52.8677065,80.1797757 C52.8677065,79.5780316 55.2471165,81.1273488 57.6237435,80.6143949 C60.0003706,80.101441 59.3958814,79.1417595 60.7941938,78.811628 C62.1925062,78.4814966 62.5933742,79.6077613 65.2595852,78.811628 C67.9257962,78.0154947 68.7945026,75.8276702 69.2053073,76.300061 C69.616112,76.7724517 64.3115511,81.5753851 61.3612256,82.2760034 C58.4109,82.9766216 52.8677065,80.7815197 52.8677065,80.1797757 Z" id="Path-211" fill="#372400"></path>
                        <path d="M69.4435019,40.3088371 C64.9789034,45.3596618 60.3197629,48.7440196 55.4660805,50.4619102 C48.185557,53.0387462 36.3380929,52.4649428 34.0564373,51.5051087 C31.7747817,50.5452747 41.4726653,49.316229 45.2233633,46.1530616 C48.9740614,42.9898942 49.1610094,39.3515447 54.7329226,38.1108753 C58.4475314,37.2837624 63.3510579,38.0164163 69.4435019,40.3088371 Z" id="Path-212" fill="#7A472B"></path>
                        <path d="M69.4435019,40.3088371 C64.9789034,45.3596618 60.3197629,48.7440196 55.4660805,50.4619102 C48.185557,53.0387462 36.3380929,52.4649428 34.0564373,51.5051087 C31.7747817,50.5452747 41.4726653,49.316229 45.2233633,46.1530616 C48.9740614,42.9898942 49.1610094,39.3515447 54.7329226,38.1108753 C58.4475314,37.2837624 63.3510579,38.0164163 69.4435019,40.3088371 Z" id="Path-212" stroke="#372400" stroke-width="1.6081685" stroke-linecap="round" stroke-linejoin="round"></path>
                        <path d="M27.5778316,85.341946 C37.2973526,83.3724873 45.2941741,88.0379898 46.2124155,96.9149961 C47.1306568,105.792002 41.9412819,111.629354 34.45006,112.983975 C29.455912,113.887056 24.0454263,112.165007 18.2186027,107.817828 L29.7900995,99.9172808 L16.0966523,102.962784 C17.2710912,92.5285311 21.098151,86.6549184 27.5778316,85.341946 Z" id="Path-213" stroke="#372400" stroke-width="1.6081685" fill="#B44545" stroke-linecap="round" stroke-linejoin="round"></path>
                        <path d="M83.6287787,77.5211378 C90.788496,76.0703701 96.6792165,79.5071319 97.3556232,86.0462254 C98.0320298,92.5853188 94.2093663,96.8853029 88.6910871,97.8831615 C85.0122342,98.5484005 81.0266933,97.2798828 76.7344643,94.0776084 L85.2584076,88.2578065 L75.1713661,90.5012239 C76.0364963,82.8150116 78.8556339,78.4883163 83.6287787,77.5211378 Z" id="Path-213-Copy" stroke="#372400" stroke-width="1.6081685" fill="#B44545" stroke-linecap="round" stroke-linejoin="round" transform="translate(86.302247, 87.623438) rotate(-180.000000) translate(-86.302247, -87.623438) "></path>
                        <path d="M44.7437204,93.9518722 C43.2608323,100.584795 41.5074598,104.860288 39.483603,106.77835 C37.4597463,108.696413 33.6389769,110.429513 28.021295,111.97765 C33.8298187,113.137655 38.4778151,111.940505 41.9652841,108.386203 C45.4527532,104.831901 46.3788986,100.020457 44.7437204,93.9518722 Z" id="Path-201" fill="#732929"></path>
                        <path d="M96.4488618,85.5758273 C95.7338392,90.9766857 93.8470104,94.5410479 90.7883752,96.2689141 C87.7297399,97.9967803 83.5513559,97.5507475 78.2532231,94.9308159 C83.3798176,96.0382844 87.0912671,96.0382844 89.3875716,94.9308159 C91.6838762,93.8233475 94.0376396,90.7050179 96.4488618,85.5758273 Z" id="Path-214" fill="#732929"></path>
                        <g id="Path-215">
                            <use fill="#FFFFFF" fill-rule="evenodd" xlink:href="#path-6"></use>
                            <use fill="black" fill-opacity="1" filter="url(#filter-7)" xlink:href="#path-6"></use>
                        </g>
                        <path d="M108.363494,31.646713 C108.753631,31.859077 108.897225,32.346549 108.68422,32.7355124 C108.471216,33.1244757 107.982273,33.2676378 107.592137,33.0552738 L95.9340266,26.7093863 C95.2596704,26.3423123 95.4354145,25.3317857 96.1943579,25.2124849 L110.45495,22.970815 C110.894023,22.9017956 111.306082,23.200713 111.37531,23.6384655 C111.444537,24.076218 111.144718,24.4870377 110.705645,24.556057 L98.7808304,26.4305583 L108.363494,31.646713 Z" id="Path-216" fill="#372400" fill-rule="nonzero"></path>
                        <g id="Path-217">
                            <use fill="#FFFFFF" fill-rule="evenodd" xlink:href="#path-8"></use>
                            <use fill="black" fill-opacity="1" filter="url(#filter-9)" xlink:href="#path-8"></use>
                        </g>
                        <polyline id="Path-218" stroke="#372400" stroke-width="1.6081685" stroke-linecap="round" stroke-linejoin="round" points="19.0494309 8.97502453 28.928903 16.3220897 14.5059168 18.3593067"></polyline>
                        <path d="M28.1253444,37.6817414 C26.9165503,36.319252 35.3532582,28.144225 39.9647099,27.2861678 C44.5761616,26.4281105 48.5014163,29.0373785 44.5761616,32.4839546 C40.650907,35.9305306 29.3341385,39.0442308 28.1253444,37.6817414 Z" id="Path-195" fill-opacity="0.454512002" fill="#FFFFFF"></path>
                        <path d="M21.7667962,42.430768 C21.3921412,42.0084764 24.0070242,39.4746991 25.4363029,39.2087518 C26.8655816,38.9428045 28.0821796,39.7515241 26.8655816,40.8197599 C25.6489836,41.8879957 22.1414512,42.8530595 21.7667962,42.430768 Z" id="Path-195-Copy" fill-opacity="0.454512002" fill="#FFFFFF"></path>
                        <path d="M30.4309165,87.7839208 C34.2846299,87.7839208 35.4146435,89.5976039 32.9998809,91.3175268 C30.5851184,93.0374497 22.6962797,94.5303795 22.6962797,92.3563847 C22.6962797,90.1823898 26.5772032,87.7839208 30.4309165,87.7839208 Z" id="Path-198" fill-opacity="0.397843071" fill="#FFFFFF"></path>
                        <path d="M83.5819778,80.349644 C86.3357451,80.349644 87.1432246,81.6456566 85.4176956,82.8746706 C83.6921666,84.1036845 78.0549995,85.1704948 78.0549995,83.6170124 C78.0549995,82.06353 80.8282105,80.349644 83.5819778,80.349644 Z" id="Path-198-Copy" fill-opacity="0.397843071" fill="#FFFFFF" transform="translate(82.189483, 82.370212) rotate(-25.000000) translate(-82.189483, -82.370212) "></path>
                        <path d="M40.6952921,74.6347687 C39.4512119,70.3582021 25.1988382,72.6644844 21.0436754,74.6347687 C16.8885126,76.605053 18.9137564,82.3480296 24.4286776,82.3480296 C29.9435988,82.3480296 41.9393722,78.9113353 40.6952921,74.6347687 Z" id="Path-199" fill="#EB6262"></path>
                        <path d="M95.0561196,68.6211971 C94.0161663,65.0463236 82.1023022,66.9741943 78.6289127,68.6211971 C75.1555232,70.2681999 76.8484679,75.068877 81.4585085,75.068877 C86.0685491,75.068877 96.0960728,72.1960706 95.0561196,68.6211971 Z" id="Path-199-Copy" fill="#EB6262"></path>
                    </g>
                </g>
            </g>
        </g>
    </g>
</svg>