<?xml version="1.0" encoding="UTF-8"?>
<svg width="152px" height="212px" viewBox="0 0 152 212" version="1.1" xmlns="http://www.w3.org/2000/svg" xmlns:xlink="http://www.w3.org/1999/xlink">
    <!-- Generator: Sketch 51 (57462) - http://www.bohemiancoding.com/sketch -->
    <title>女/摩羯座</title>
    <desc>Created with Sketch.</desc>
    <defs>
        <filter x="-7.5%" y="-3.8%" width="115.0%" height="110.5%" filterUnits="objectBoundingBox" id="filter-1">
            <feOffset dx="0" dy="3" in="SourceAlpha" result="shadowOffsetOuter1"></feOffset>
            <feGaussianBlur stdDeviation="3" in="shadowOffsetOuter1" result="shadowBlurOuter1"></feGaussianBlur>
            <feColorMatrix values="0 0 0 0 0.57254902   0 0 0 0 0.384313725   0 0 0 0 0.984313725  0 0 0 0.2 0" type="matrix" in="shadowBlurOuter1" result="shadowMatrixOuter1"></feColorMatrix>
            <feMerge>
                <feMergeNode in="shadowMatrixOuter1"></feMergeNode>
                <feMergeNode in="SourceGraphic"></feMergeNode>
            </feMerge>
        </filter>
    </defs>
    <g id="星座配对" stroke="none" stroke-width="1" fill="none" fill-rule="evenodd">
        <g id="女/摩羯座" filter="url(#filter-1)" transform="translate(6.000000, 3.000000)">
            <rect id="Rectangle-2-Copy-3" fill="#FFFFFF" fill-rule="nonzero" x="0" y="0" width="140" height="200" rx="4"></rect>
            <rect id="Rectangle-2-Copy-5" stroke="#FFB094" fill-opacity="0.1" fill="#FFC3AD" fill-rule="nonzero" x="4.5" y="4.5" width="131" height="191" rx="4"></rect>
            <text id="摩羯座" font-family="PingFangSC-Medium, PingFang SC" font-size="12" font-weight="400" line-spacing="14" fill="#FF7F52">
                <tspan x="10.136" y="22.576">摩</tspan>
                <tspan x="10.136" y="36.576">羯</tspan>
                <tspan x="10.136" y="50.576">座</tspan>
            </text>
            <path d="M126.21968,182.822457 C126.666801,182.822457 127.030215,183.176375 127.032257,183.611813 C127.032257,184.04924 126.668843,184.403158 126.221722,184.403158 L123.818701,184.405146 L123.820743,187.208655 C123.820743,187.646082 123.457329,188 123.010208,188 C122.561045,188 122.197632,187.646082 122.197632,187.210643 L122.19559,184.407135 L119.729278,184.409123 C119.280115,184.409123 118.916702,184.055205 118.916702,183.619766 C118.916702,183.18234 119.280115,182.828421 119.727236,182.828421 L122.193548,182.826433 L122.191507,180.889825 L122.191507,180.669123 C119.817069,180.293334 118.002043,178.2931 118.000001,175.873334 C117.99796,173.183159 120.233565,171.00199 122.995917,171.000001 C125.756226,170.998013 127.997957,173.175206 127.999998,175.865381 C128.00204,178.283159 126.189056,180.287369 123.814618,180.667135 L123.814618,180.887837 L123.816659,182.824445 L126.21968,182.822457 Z M123.026541,179.024796 C124.772151,179.024796 126.189056,177.644913 126.189056,175.944913 C126.189056,174.242925 124.772151,172.86503 123.026541,172.86503 C121.27889,172.86503 119.864027,174.244913 119.864027,175.944913 C119.864027,177.646901 121.280931,179.024796 123.026541,179.024796 Z" id="女-copy" fill="#FF7F52" fill-rule="nonzero"></path>
            <g id="摩羯座" transform="translate(18.000000, 33.000000)">
                <g id="摩羯座-copy-2">
                    <path d="M87.5200094,98.4894327 C89.0935732,98.3727876 90.237933,98.2007488 90.9530887,97.9733164 C92.0258223,97.6321679 96.8752048,94.5793292 97.7075331,95.2496169 C98.5398613,95.9199046 95.8516024,99.1419168 94.3969312,100.7467 C93.4271504,101.816555 91.7454982,103.056791 89.3519747,104.467408 L87.5200094,98.4894327 Z" id="Path-65" stroke="#372400" stroke-width="1.44445138" fill="#FFFFFF" stroke-linecap="round" stroke-linejoin="round"></path>
                    <path d="M75.5872371,12.7089948 C76.2202342,11.1538809 76.5086173,9.95801616 76.4523862,9.12140068 C76.3961552,8.28478519 75.8260381,5.28896144 74.7420349,0.133929408 C77.7689069,3.95805234 79.674309,6.82742995 80.4582413,8.74206225 C81.2421736,10.6566945 81.5080092,13.0902267 81.2557483,16.0426587 L75.5872371,12.7089948 Z" id="Path-71" stroke="#372400" stroke-width="0.866670829" fill="#FDD887" stroke-linecap="round" stroke-linejoin="round"></path>
                    <path d="M36.5025279,3.54688646 C35.4852758,6.53207246 35.4852758,9.00558824 36.5025279,10.9674338 C37.51978,12.9292793 39.3749532,14.0336018 42.0680476,14.2804012 L32.0371994,19.8450127 C31.193875,15.7351572 31.0199616,12.7759643 31.5154592,10.9674338 C32.0109568,9.15890332 33.673313,6.68538754 36.5025279,3.54688646 Z" id="Path-72" stroke="#372400" stroke-width="0.866670829" fill="#FDD887" stroke-linecap="round" stroke-linejoin="round"></path>
                    <path d="M39.1633243,99.1972386 C36.2805273,98.4606359 33.7176563,97.3278004 31.4747112,95.7987319 C29.231766,94.2696635 27.3063961,91.6171524 25.6986016,87.8411986 L39.1633243,90.8018222 L39.1633243,99.1972386 Z" id="Path-66" stroke="#372400" stroke-width="1.44445138" fill="#FFFFFF" stroke-linecap="round" stroke-linejoin="round"></path>
                    <path d="M80.8917539,86.4697088 L85.3566127,92.2786117 C89.0009501,90.6614502 91.3309903,89.1923234 92.3467333,87.8712313 C93.3624763,86.5501391 94.2601493,83.8212487 95.0397521,79.6845601 L80.8917539,86.4697088 Z" id="Path-67" stroke="#372400" stroke-width="1.44445138" fill="#FFFFFF" stroke-linecap="round" stroke-linejoin="round"></path>
                    <path d="M38.2531098,91.7768053 C38.4846116,99.3065518 39.3349867,104.933336 40.8042349,108.657157 C42.2734832,112.380978 46.5598261,119.773245 53.6632636,130.833959 L63.7288493,125.667415 C62.5263128,116.830258 64.7590478,112.042913 70.4270543,111.305382 C76.0950608,110.567851 79.7794391,115.087903 81.4801892,124.865539 L91.534808,120.461742 C91.6017244,112.146006 91.1689645,105.791691 90.2365281,101.398796 C89.3040918,97.0059014 86.3853122,92.0330874 81.4801892,86.4803541 C73.124362,88.9288769 66.3695814,90.4500241 61.2158474,91.0437957 C56.0621134,91.6375672 48.4078675,91.8819038 38.2531098,91.7768053 Z" id="Path-64" stroke="#372400" stroke-width="1.44445138" fill="#FFFFFF" stroke-linecap="round" stroke-linejoin="round"></path>
                    <path d="M68.1241305,90.0566701 C66.7627003,90.0566701 57.2229124,89.3513142 56.286567,101.43388 C55.3502217,113.516447 73.9518485,110.931589 75.6181522,100.766505 C77.2844559,90.6014219 69.4855607,90.0566701 68.1241305,90.0566701 Z" id="Path-92" fill="#FFE0AD"></path>
                    <path d="M56.9563614,99.5473812 C56.6164025,101.518448 57.4449071,105.242649 58.6798318,107.074009 C60.1894227,109.312691 62.8470365,109.399815 66.1976331,108.49746 C69.9271068,107.493069 73.5975137,105.190029 74.7791524,101.893991 C76.026952,98.413405 75.2596245,93.8907622 71.7428046,91.3433498 C68.4027405,88.9239707 63.516571,89.3871329 60.7888385,91.9141841 C58.6704427,93.876728 57.3287484,97.3882984 56.9563614,99.5473812 Z M56.1130323,99.5473812 C56.538617,97.0798605 58.4353007,93.5237362 60.7888385,91.3433498 C63.9963598,88.3718082 67.8111776,87.8982367 71.7428046,90.746115 C75.7807968,93.6710391 77.04877,97.8111001 75.5850424,101.893991 C74.2411837,105.642522 70.7524298,108.765114 66.5735545,109.890534 C62.6266823,110.953473 59.5997928,109.824316 57.7452028,107.074009 C56.2956713,104.924393 55.7117269,101.874132 56.1130323,99.5473812 Z" id="Path-86" fill="#372400" fill-rule="nonzero"></path>
                    <path d="M61.9342226,9.55121548 C31.5812907,9.55121548 -8.9657198,48.7881376 1.83689637,72.9459428 C12.6395125,97.1037479 74.910969,99.6869945 96.9821454,78.5220632 C119.053322,57.357132 92.2871545,9.55121548 61.9342226,9.55121548 Z" id="Path-62" stroke="#372400" stroke-width="1.44445138" fill="#FFFFFF"></path>
                    <ellipse id="Oval" fill="#372400" cx="45.6382349" cy="24.0227191" rx="1.01097356" ry="1"></ellipse>
                    <ellipse id="Oval-Copy" fill="#372400" cx="57.9143424" cy="23.8784385" rx="1.01097356" ry="1"></ellipse>
                    <path d="M51.5784343,30.6380979 C79.3356839,31.3628806 104.897871,69.5073477 85.5510521,82.0063787 C66.2042328,94.5054096 16.1754683,90.9444364 7.74308204,74.8715293 C0.994169142,62.007478 23.8211848,29.9133152 51.5784343,30.6380979 Z" id="Path-63" stroke="#372400" stroke-width="1.44445138" fill="#FFE1D6"></path>
                    <path d="M50.4089871,94.4935992 C48.7792551,96.4219388 47.5259956,98.9552315 46.6492084,102.093477 C52.24857,99.5642036 55.4779565,97.9302652 56.337368,97.1916619 C58.7253812,95.1393338 56.6800536,92.3092716 55.5314153,92.4004923 C54.3827771,92.491713 52.8535851,91.6010898 50.4089871,94.4935992 Z" id="Path-68" stroke="#372400" stroke-width="0.866670829" fill="#FFFFFF" stroke-linecap="round" stroke-linejoin="round"></path>
                    <path d="M75.6102539,17.6264853 C80.0797714,17.1737164 83.5251873,16.6486778 85.9465018,16.0513696 C88.3678163,15.4540613 91.8126772,14.2586394 96.2810845,12.4651038 C96.2810845,17.2675303 95.1820378,21.0169417 92.9839445,23.713338 C90.7858512,26.4097342 87.7663919,28.3411261 83.9255667,29.5075137 C81.5400705,28.3990626 79.7211851,26.9583717 78.4689105,25.1854409 C77.216636,23.4125102 76.2637504,20.8928583 75.6102539,17.6264853 Z" id="Path-69" fill="#FFFFFF"></path>
                    <path d="M86.119619,16.7517356 C85.1931973,16.9802723 84.1241034,17.1975699 82.9115399,17.4040461 C81.5659507,17.6331739 79.1627457,17.9456549 75.6925214,18.3431915 C75.2962999,18.3885812 74.9382664,18.1044966 74.8928313,17.7086707 C74.8473962,17.3128447 75.1317648,16.9551688 75.5279863,16.909779 C78.973276,16.5150989 81.3567038,16.2051895 82.6688665,15.9817535 C83.8485751,15.7808719 84.8836803,15.5704826 85.7733847,15.3510036 C88.1555094,14.7633629 91.5720641,13.5777637 96.011865,11.7957102 C96.4863502,11.6052606 97.0032084,11.9542634 97.0032084,12.4651038 C97.0032084,17.421762 95.857313,21.3309987 93.5438787,24.1688835 C93.1133246,24.6970432 92.6525385,25.197178 92.1616273,25.6691685 C90.7247619,27.0506544 88.0808407,28.5402577 84.2061067,30.1722517 C83.8386151,30.327035 83.4151023,30.1548983 83.2601643,29.7877736 C83.1052263,29.420649 83.277535,28.997559 83.6450266,28.8427757 C87.3690966,27.2742396 89.8820501,25.8584245 91.1601304,24.6296038 C91.6090161,24.198019 92.0302737,23.7407883 92.4240103,23.2577925 C94.3437824,20.9028123 95.387976,17.66875 95.5396417,13.5368648 C91.529612,15.119805 88.3925432,16.1910333 86.119619,16.7517356 Z" id="Path-69" fill="#372400" fill-rule="nonzero"></path>
                    <path d="M36.5954731,18.5578061 L22.6567228,13.8229801 C22.8360192,16.3350597 23.1702484,18.2120986 23.6594105,19.4540965 C24.1485725,20.6960944 25.3847789,22.5166709 27.3680297,24.915826 C29.9263734,24.8084364 31.7942329,24.3672851 32.9716081,23.5923722 C34.1489834,22.8174592 35.3569383,21.1392705 36.5954731,18.5578061 Z" id="Path-70" fill="#FFFFFF"></path>
                    <path d="M34.7338532,17.9163478 C32.157515,17.0411966 27.99337,15.6379662 22.2414183,13.7066566 C22.4207146,16.2187363 22.7549438,18.0957751 23.2441059,19.337773 C23.7332679,20.5797709 23.8061639,21.4289999 25.7894146,23.8281549" id="Path-70" stroke="#372400" stroke-width="1.44445138" stroke-linecap="round" stroke-linejoin="round"></path>
                    <path d="M58.2208198,31.4614035 C55.6710225,36.1253708 52.8107578,38.9885223 49.6400257,40.0508581 C46.4692937,41.1131938 40.3977643,41.1131938 31.4254376,40.0508581 C35.3491922,38.6691615 38.2852465,37.463302 40.2336005,36.4332797 C43.1561313,34.8882463 44.9779558,31.3787791 48.2595407,30.8514845 C50.4472639,30.4999547 53.7676902,30.7032611 58.2208198,31.4614035 Z" id="Path-73" stroke="#372400" stroke-width="0.866670829" fill="#7A472B"></path>
                    <path d="M40.0905837,55.9373327 C39.7337427,55.2794881 38.8564218,56.3563241 36.6941369,55.9373327 C34.531852,55.5183413 32.7607663,52.4084865 29.693495,52.0586515 C27.6486475,51.8254281 24.8423637,52.6634909 21.2746435,54.5728399 C24.670082,53.2111864 27.3678276,52.5986679 29.3678802,52.7352845 C32.3679592,52.9402094 34.9635263,56.3654676 36.378893,56.7458702 C37.7942597,57.1262729 40.4474248,56.5951774 40.0905837,55.9373327 Z" id="Path-74" fill="#372400"></path>
                    <path d="M27.0183912,59.9035301 C29.5132509,59.6753433 31.4455626,59.8045415 32.8153262,60.2911247 C34.8699717,61.0209996 37.5738395,63.4147941 38.0172422,63.8106688 C38.4606448,64.2065435 38.657528,64.846171 37.1387451,64.5097072 C35.6199623,64.1732434 34.0294383,63.3975604 32.6385976,63.3086112 C31.7113705,63.2493117 29.6474168,63.4755645 26.4467365,63.9873697 C27.6643049,63.4151628 29.0333517,63.0266082 30.5538769,62.821706 C32.074402,62.6168038 33.5887159,62.6168038 35.0968184,62.821706 C33.9150467,61.7438286 32.9601037,61.0733813 32.2319893,60.810364 C31.5038749,60.5473467 29.7660089,60.2450688 27.0183912,59.9035301 Z" id="Path-75" fill="#372400"></path>
                    <path d="M54.4343033,57.5708663 C53.7803692,57.0051857 58.1175019,53.811981 63.2554079,53.0474515 C66.6806785,52.5377652 69.936133,53.1778865 73.0217715,54.9678157 C69.270055,53.7656123 66.1612288,53.4884867 63.695293,54.1364389 C63.3021607,54.2397388 62.8953685,54.3662665 62.4814758,54.5092384 C59.0011348,55.7114611 55.018735,58.0764244 54.4343033,57.5708663 Z" id="Path-76" fill="#372400"></path>
                    <path d="M66.4609253,60.3405749 C64.0820733,60.5695953 62.5436978,60.7973076 61.8457988,61.0237118 C61.1478998,61.2501159 59.6912414,62.0563881 57.4758237,63.4425282 C59.7664326,63.0902408 61.4221729,62.9140971 62.4430446,62.9140971 C63.4639163,62.9140971 65.2673206,62.9920919 67.8532576,63.1480816 C68.0807848,63.5640037 67.6166741,63.8563213 66.4609253,64.0250344 C64.7273022,64.2781041 63.2352638,64.0568013 61.8457988,64.0250344 C61.2901356,64.0123305 59.5364615,64.0905099 56.5847763,64.2595727 L55.95973,64.0250344 C57.7402211,62.3167747 59.2346419,61.1435497 60.4429923,60.5053597 C62.2555181,59.5480745 64.6558347,59.2910068 65.5771522,59.2657791 C66.1913639,59.2489605 66.4859549,59.6072258 66.4609253,60.3405749 Z" id="Path-77" fill="#372400"></path>
                    <path d="M42.1506403,71.2902034 C41.5091435,70.9213216 46.0169546,68.2917715 48.2986367,68.2917715 C50.5803188,68.2917715 52.6746742,71.2902034 51.9184262,71.2902034 C51.1621782,71.2902034 50.7264149,69.5232426 47.8760885,69.5232426 C45.0257621,69.5232426 42.7921372,71.6590853 42.1506403,71.2902034 Z" id="Path-78" fill="#372400"></path>
                    <path d="M31.9678861,75.3489685 C35.9166715,74.497419 39.2128324,79.9795094 48.6312625,80.8251056 C58.0496926,81.6707018 66.5867541,72.4120124 73.9330896,73.8627451 C81.2794252,75.3134778 75.2877564,85.9738968 65.3884439,88.5371576 C55.4891315,91.1004184 36.4860981,89.3231373 30.4095242,85.1324419 C24.3329502,80.9417465 28.0191008,76.2005181 31.9678861,75.3489685 Z" id="Path-79" fill="#FFFFFF"></path>
                    <path d="M32.0897829,75.9130971 C30.2172598,76.3169039 28.2172543,77.2414728 27.6571446,78.7926994 C27.017366,80.564569 28.1538587,83.3680046 30.7394755,85.1511694 C36.6225855,89.2084429 55.4276857,90.5201358 65.2434985,87.9784958 C69.72008,86.8193602 73.7266029,83.8073372 75.6266833,80.4957539 C77.4184976,77.3728638 76.8195462,75.021044 73.8210611,74.4289119 C72.180782,74.1049945 70.3800436,74.331057 68.2170589,75.0618293 C66.5919446,75.6108802 65.7788249,75.9784251 61.9390402,77.8145417 C59.0938243,79.1750732 57.3896383,79.9072429 55.5036209,80.5028229 C53.0448688,81.2792652 50.7533532,81.560113 48.5444905,81.3617991 C45.0118748,81.0446373 42.2156522,80.1637988 39.1941743,78.6096014 C38.5003322,78.2527007 36.2127275,76.982848 35.7333997,76.7396308 C34.624396,76.176908 33.8154636,75.897226 33.0573083,75.8451547 C32.7278511,75.8225271 32.4084652,75.8443738 32.0897829,75.9130971 Z M31.8459894,74.7848399 C32.2721331,74.6929427 32.7002247,74.6636603 33.1365551,74.6936281 C34.0804947,74.7584593 35.0214988,75.0838041 36.2566263,75.7105238 C36.7606335,75.9662636 39.152661,77.4693314 39.823776,77.8145417 C42.7216123,79.30514 45.7621296,80.4438993 49.1322119,80.7464687 C52.5022943,81.0490381 58.8196197,78.4989174 61.6188027,77.160398 C65.5110215,75.2992084 66.1152042,74.7381449 67.8038715,74.1676224 C70.1420962,73.3776446 72.1792239,72.928107 74.0451182,73.2965783 C77.9376312,74.0652603 78.7708504,77.3369474 76.6290863,81.0697527 C74.5729257,84.6533628 70.8015954,87.9794752 66.0267137,89.2158507 C55.9117206,91.8349584 36.2723361,89.8770014 30.0813257,85.607385 C27.0952228,83.548026 26.051269,81.1038522 26.8857695,78.7926994 C27.5899042,76.8425949 29.6049583,75.2681149 31.8459894,74.7848399 Z" id="Path-79" fill="#372400" fill-rule="nonzero"></path>
                    <path d="M36.990213,17.0623879 C33.5394538,19.0140987 31.0102998,20.5454915 29.4027508,21.6565662 C27.7952019,22.767641 25.9443721,24.1440057 23.8502616,25.7856606" id="Path-87" stroke="#372400" stroke-width="0.866670829" stroke-linecap="round"></path>
                    <path d="M31.4989229,11.419901 C32.3179564,10.5816478 33.001171,10.0197717 33.5485669,9.73427262 C34.0959627,9.44877353 34.7798559,9.33497802 35.6002464,9.39288608" id="Path-88" stroke="#372400" stroke-width="0.866670829" stroke-linecap="round"></path>
                    <path d="M31.4846051,14.4286675 C32.6458737,13.1683507 33.6123284,12.3810404 34.3839692,12.0667366 C35.15561,11.7524329 36.1220647,11.7524329 37.2833334,12.0667366" id="Path-88-Copy" stroke="#372400" stroke-width="0.866670829" stroke-linecap="round"></path>
                    <path d="M32.7844282,17.0257182 C33.8772924,15.9104126 34.8095449,15.1956079 35.5811857,14.8813042 C36.3528265,14.5670004 37.9682781,14.4222429 40.4275405,14.4470316" id="Path-88-Copy-2" stroke="#372400" stroke-width="0.866670829" stroke-linecap="round"></path>
                    <path d="M75.9674416,5.50034039 C76.3779896,5.1921846 76.7195509,5.00864749 76.9921256,4.94972906 C77.2647004,4.89081064 77.732227,4.97521439 78.3947057,5.20294031" id="Path-89" stroke="#372400" stroke-width="0.866670829" stroke-linecap="round"></path>
                    <path d="M76.2562912,8.00923355 C76.589653,7.57528476 77.2230661,7.35831036 78.1565304,7.35831036 C79.0899948,7.35831036 79.8494676,7.81453994 80.4349489,8.72699908" id="Path-89-Copy" stroke="#372400" stroke-width="0.866670829" stroke-linecap="round"></path>
                    <path d="M76.1523569,10.9122499 C76.7997902,10.0962491 77.6717596,9.87015541 78.7682652,10.2339688 C79.8647707,10.5977821 80.7367401,11.4950979 81.3841734,12.9259161" id="Path-89-Copy-2" stroke="#372400" stroke-width="0.866670829" stroke-linecap="round"></path>
                    <path d="M29.3517697,79.1458905 C33.7199163,81.7387483 36.1129037,83.0351772 36.530732,83.0351772 C36.9485603,83.0351772 37.4025409,82.3563464 37.8926739,80.9986846 C37.4811936,82.1509814 37.3651301,82.9009899 37.5444833,83.24871 C37.813513,83.7702901 43.2038926,85.2211874 43.7039232,85.2211874 C44.0372769,85.2211874 44.4298307,84.4925173 44.8815845,83.0351772 C44.562167,84.1837141 44.4944506,84.9123842 44.6784354,85.2211874 C44.9544126,85.6843922 52.5485463,86.211968 53.2040854,85.913164 C53.6411115,85.7139613 53.8596245,84.7546324 53.8596245,83.0351772 C53.8635539,84.9538351 54.1172641,85.913164 54.6207551,85.913164 C55.3759914,85.913164 61.1241641,84.7104095 61.5253852,84.0514611 C61.792866,83.6121621 61.792866,82.686565 61.5253852,81.2746696 C61.7677644,82.9384166 62.0855167,83.7702901 62.478642,83.7702901 C62.8717673,83.7702901 64.9457886,82.6837393 68.7007057,80.5106376 C64.7598932,83.0056848 62.7894869,84.3868758 62.7894869,84.6542108 C62.7894869,84.9215457 62.8824346,85.7641325 63.06833,87.181971 C62.7922878,85.7641325 62.4117132,85.0552132 61.9266064,85.0552132 C61.1989461,85.0552132 55.1878211,86.277853 54.6207551,86.6649311 C54.242711,86.9229832 53.9890008,87.4995694 53.8596245,88.3946897 C53.8596245,87.5862106 53.6411115,87.0096244 53.2040854,86.6649311 C52.5485463,86.1478912 45.3213537,85.6898853 44.6784354,85.913164 C44.2498232,86.0620164 43.9249858,86.4849521 43.7039232,87.181971 C43.876334,86.4342968 43.8125007,85.9369348 43.5124234,85.6898853 C43.0623074,85.3193109 37.671258,83.5717155 37.1431668,83.8968298 C36.791106,84.1135727 36.3957316,84.7112578 35.9570433,85.6898853 C36.3395025,84.7212553 36.4650262,84.0813903 36.3336147,83.7702901 C36.2022031,83.45919 33.8749215,81.9177234 29.3517697,79.1458905 Z" id="Path-90" fill="#959595"></path>
                    <path d="M36.361225,87.4718855 C36.6464274,86.4518004 41.230969,88.0364069 47.9219616,88.1503372 C54.6129541,88.2642675 55.6002388,88.9180939 61.3462877,88.1503372 C67.0923366,87.3825805 69.4508974,85.0975725 70.7694797,85.0975725 C72.088062,85.0975725 68.662381,87.5958498 67.4630073,88.1503372 C64.4097935,89.5618808 61.8848247,89.3911956 61.8848247,90.0842988 C61.8848247,91.5323541 64.2743649,93.374361 63.3054804,95.108479 C62.742593,96.1159399 61.0592108,96.8014629 59.7810549,95.3942644 C58.5028989,93.9870659 60.720985,91.5179826 59.7810549,90.3804525 C59.3584538,89.8690087 53.8422044,90.352893 46.7940064,89.7244733 C43.3913507,89.4210914 36.0760227,88.4919707 36.361225,87.4718855 Z" id="Path-91" fill="#B7E5FF"></path>
                    <path d="M45.7777695,89.6669976 C49.2570615,89.9850562 51.7259443,90.065933 55.9049527,90.104907 C59.0623229,90.134353 59.8022191,89.7261348 60.1151948,90.104907 C60.407161,90.4582527 59.1160683,93.6468937 59.8418159,95.1761679 C60.5675635,96.7054422 63.1763549,95.6242045 63.3217623,94.7298803 C63.6838112,92.5031095 61.3850915,90.5810843 61.6894892,89.9782152 C62.0890381,89.1868961 65.7058994,89.055345 67.360096,88.2053956 C69.0142925,87.3554461 71.1407372,85.8321322 70.710419,85.5626123 C70.2801007,85.2930924 66.8996842,86.8739942 66.4297302,87.062891 C64.7620204,87.7332228 63.364367,88.0804249 61.2888495,88.3577446 C58.8583679,88.6824927 51.5633072,88.6870007 48.8982274,88.5793587 C46.2331475,88.4717166 36.7406289,86.5676073 36.3420282,87.523563 C35.9434276,88.4795186 42.2984774,89.3489391 45.7777695,89.6669976 Z M59.3416131,90.6623564 C59.1835755,90.6316855 58.9546799,90.6073337 58.650435,90.5889469 C58.1279948,90.5573736 57.5292072,90.5455485 56.1454627,90.5326435 C51.9444487,90.4934643 49.7839343,90.4256185 46.75549,90.1556014 C44.6517301,89.9680295 42.0850799,89.6455934 40.1181405,89.2929796 C38.9093801,89.0762848 37.9381217,88.8519885 37.254156,88.6217123 C36.8596565,88.4888929 36.556339,88.3530927 36.3420282,88.2053956 C36.022996,87.9855272 35.8474572,87.7004739 35.9439225,87.3554461 C36.0417902,87.0054018 36.3326229,86.8142041 36.7406289,86.7399492 C37.030888,86.6871235 37.4071001,86.6861685 37.9154114,86.7275102 C38.3266446,86.7609564 38.8053273,86.8192702 39.5529657,86.9228235 C39.7661583,86.9523523 40.6092694,87.071169 40.5502854,87.062891 C40.9787692,87.1230253 41.3177087,87.1695391 41.6609792,87.214838 C43.9205028,87.5130109 45.8578278,87.6822856 47.9293454,87.7175582 C49.5305718,87.744823 54.8025988,88.1909183 55.2359903,88.2053956 C57.0283056,88.2652671 58.9048808,88.039849 61.2888495,87.7213157 C63.2902699,87.4538964 70.269629,84.9645701 70.710419,84.9645701 C71.3888061,84.9645701 71.6802837,85.1991635 71.343483,85.7287169 C71.166238,86.0074001 70.8188501,86.3519368 70.3362812,86.7498422 C69.4875239,87.4496907 68.2973859,88.2415363 67.6449756,88.5431547 C66.7401247,88.96148 62.880385,89.3761362 62.3372005,90.3366576 C61.794016,91.297179 64.5118542,92.6336807 63.6838112,95.3194377 C63.2428097,96.7498256 60.8172707,96.8934368 59.4601865,95.3993415 C58.8604029,94.7390038 58.8184095,93.9724426 59.1197239,92.9104097 C59.1633712,92.7565677 59.2072603,92.616308 59.2846107,92.3782572 C59.6187594,91.3498943 59.6740671,90.972441 59.4778663,90.696292 C59.4463756,90.6855235 59.4004652,90.673778 59.3416131,90.6623564 Z" id="Path-91" fill="#372400" fill-rule="nonzero"></path>
                    <path d="M88.9582194,56.2145714 C89.9877649,52.1792588 91.3235419,50.4371613 92.9655504,50.9882787 C95.4285632,51.8149548 97.7158099,61.3983983 95.7105376,62.4050949 C94.3736895,63.0762261 92.6575118,62.7406605 90.5620045,61.3983983 L88.9582194,56.2145714 Z" id="Path-95" stroke="#372400" stroke-width="0.866670829" fill="#FFE1D6"></path>
                    <path d="M90.8359467,56.4835972 C91.2889557,54.4362994 91.8174594,53.51557 92.4214578,53.7214091 C93.0254561,53.9272482 93.5691685,55.2133826 94.052595,57.5798121 C93.381922,56.9910288 92.8382096,56.6256238 92.4214578,56.4835972 C92.0047059,56.3415706 91.4762022,56.3415706 90.8359467,56.4835972 Z" id="Path-96" fill="#E5AA94"></path>
                    <path d="M71.5499622,68.3019775 C72.7594547,63.9055277 92.2961669,63.6981914 97.4258716,64.3175923 C102.555576,64.9369931 100.350814,71.2256367 94.0964805,72.1886821 C87.842147,73.1517274 70.3404697,72.6984273 71.5499622,68.3019775 Z" id="Path-94" fill="#EB6262"></path>
                    <path d="M8.21264262,58.7804561 C6.96696004,55.2500332 5.76360467,53.9230645 4.60257652,54.79955 C2.86103429,56.1142783 1.7148578,63.7300216 2.6388164,65.0386297 C3.2547888,65.9110351 4.89177209,65.5682603 7.54976627,64.0103052 L8.21264262,58.7804561 Z" id="Path-97" stroke="#372400" stroke-width="0.866670829" fill="#FFE1D6" transform="translate(5.261720, 60.023217) rotate(9.000000) translate(-5.261720, -60.023217) "></path>
                    <path d="M3.89946944,60.5195317 C4.32495677,58.282733 4.7890589,57.1093749 5.29177583,56.9994572 C5.79449277,56.8895395 6.39288325,57.8305865 7.08694729,59.8225982 C6.39191799,59.4011632 5.86067168,59.2306181 5.49320837,59.3109629 C5.12574505,59.3913078 4.59449874,59.794164 3.89946944,60.5195317 Z" id="Path-98" fill="#E5AA94" transform="translate(5.493208, 58.755183) rotate(9.000000) translate(-5.493208, -58.755183) "></path>
                    <path d="M4.74279096,66.2882089 C10.408245,64.8740881 28.5226301,64.4133973 28.5226301,67.7214056 C28.5226301,71.0294139 12.120588,73.4439029 6.73450963,73.1192872 C1.34843127,72.7946715 -0.922663096,67.7023298 4.74279096,66.2882089 Z" id="Path-93" fill="#EB6262"></path>
                </g>
            </g>
        </g>
    </g>
</svg>