<?xml version="1.0" encoding="UTF-8"?>
<svg width="182px" height="55px" viewBox="0 0 182 55" version="1.1" xmlns="http://www.w3.org/2000/svg" xmlns:xlink="http://www.w3.org/1999/xlink">
    <!-- Generator: Sketch 50.2 (55047) - http://www.bohemiancoding.com/sketch -->
    <title>更多好玩-字@2x</title>
    <desc>Created with Sketch.</desc>
    <defs>
        <path d="M31.0763256,85.366 L67.0703256,85.366 L67.0703256,88.18 L50.5643256,88.18 L50.5643256,91.834 L63.5843256,91.834 L63.5843256,108.466 L50.0603256,108.466 C49.5563256,111.238 48.7583256,113.464 47.5823256,115.144 C53.4623256,117.622 60.4343256,119.008 68.4983256,119.26 L67.7423256,122.158 C59.3003256,121.822 51.9503256,120.184 45.6923256,117.328 C42.7523256,119.848 37.9223256,121.444 31.2443256,122.2 L29.9423256,119.428 C35.7803256,118.966 40.0643256,117.79 42.7523256,115.858 C40.3163256,114.514 38.0483256,112.96 35.9903256,111.196 L38.3003256,109.6 C40.2743256,111.238 42.4583256,112.666 44.8103256,113.884 C45.8183256,112.456 46.5743256,110.65 46.9943256,108.466 L34.6883256,108.466 L34.6883256,91.834 L47.5403256,91.834 L47.5403256,88.18 L31.0763256,88.18 L31.0763256,85.366 Z M60.6023256,105.82 L60.6023256,101.368 L50.5643256,101.368 L50.5643256,102.838 L50.4383256,105.82 L60.6023256,105.82 Z M47.4143256,105.82 C47.4983256,104.854 47.5403256,103.846 47.5403256,102.838 L47.5403256,101.368 L37.6703256,101.368 L37.6703256,105.82 L47.4143256,105.82 Z M37.6703256,98.848 L47.5403256,98.848 L47.5403256,94.438 L37.6703256,94.438 L37.6703256,98.848 Z M50.5643256,94.438 L50.5643256,98.848 L60.6023256,98.848 L60.6023256,94.438 L50.5643256,94.438 Z M92.4115986,83.56 L95.0995986,84.988 C94.3435986,85.828 93.5455986,86.626 92.7055986,87.382 L104.759599,87.382 L104.759599,89.776 C100.223599,97.84 91.7815986,102.376 79.5175986,103.342 L78.2155986,100.612 C81.9955986,100.36 85.3555986,99.814 88.3795986,98.932 C87.0775986,97.336 85.6915986,95.866 84.2635986,94.564 L86.9095986,93.304 C88.4215986,94.732 89.8495986,96.244 91.1935986,97.924 C95.5615986,96.16 98.9635986,93.514 101.315599,90.07 L89.0515986,90.07 C85.7755986,92.002 81.9115986,93.472 77.4175986,94.48 L75.6535986,91.708 C83.1295986,90.28 88.7155986,87.592 92.4115986,83.56 Z M90.8155986,109.81 C92.4115986,111.448 93.9655986,113.212 95.3935986,115.102 C100.055599,113.086 103.709599,110.188 106.397599,106.492 L93.9655986,106.492 C90.2695986,108.256 85.9015986,109.6 80.8195986,110.482 L79.0135986,107.794 C88.1695986,106.87 94.9315986,104.056 99.2995986,99.436 L101.903599,100.864 C100.895599,101.872 99.8455986,102.838 98.6695986,103.72 L110.177599,103.72 L110.177599,106.114 C104.213599,116.026 93.1255986,121.15 76.8295986,121.528 L75.6115986,118.63 C82.1635986,118.588 87.8335986,117.79 92.5795986,116.194 C91.1515986,114.304 89.6815986,112.582 88.1275986,111.07 L90.8155986,109.81 Z M124.052872,83.224 L127.034872,83.476 C126.530872,86.416 126.026872,89.188 125.522872,91.708 L132.788872,91.708 L132.788872,93.43 C132.410872,100.066 131.024872,105.862 128.672872,110.776 C131.108872,112.666 133.082872,114.388 134.636872,115.9 L132.578872,118.294 C131.150872,116.782 129.344872,115.186 127.244872,113.422 C125.144872,116.908 122.456872,119.89 119.222872,122.368 L117.164872,119.848 C120.356872,117.538 122.918872,114.766 124.892872,111.49 C122.960872,109.936 120.776872,108.298 118.424872,106.576 C119.726872,102.88 120.860872,98.89 121.868872,94.606 L117.416872,94.606 L117.416872,91.708 L122.498872,91.708 C123.086872,88.936 123.590872,86.122 124.052872,83.224 Z M126.236872,108.928 C128.252872,104.77 129.428872,99.982 129.806872,94.606 L124.892872,94.606 C123.884872,99.058 122.834872,102.754 121.742872,105.694 C123.338872,106.828 124.850872,107.92 126.236872,108.928 Z M134.216872,101.326 L143.708872,101.326 L143.708872,96.034 C145.976872,94.06 148.118872,91.666 150.176872,88.81 L135.434872,88.81 L135.434872,85.87 L153.620872,85.87 L153.620872,88.81 C151.604872,91.708 149.294872,94.438 146.774872,96.958 L146.774872,101.326 L155.342872,101.326 L155.342872,104.266 L146.774872,104.266 L146.774872,117.706 C146.774872,120.394 145.640872,121.738 143.456872,121.738 L137.408872,121.738 L136.610872,118.882 C138.332872,118.882 140.222872,118.924 142.238872,118.924 C143.204872,118.924 143.708872,118.21 143.708872,116.782 L143.708872,104.266 L134.216872,104.266 L134.216872,101.326 Z M166.152145,89.65 L160.860145,89.65 L160.860145,86.836 L174.510145,86.836 L174.510145,89.65 L169.218145,89.65 L169.218145,99.1 L173.628145,99.1 L173.628145,101.83 L169.218145,101.83 L169.218145,111.364 C171.108145,110.65 172.914145,109.894 174.594145,109.138 L174.594145,112.204 C170.814145,113.968 166.446145,115.648 161.406145,117.16 L160.566145,114.094 C162.498145,113.548 164.346145,113.002 166.152145,112.414 L166.152145,101.83 L161.448145,101.83 L161.448145,99.1 L166.152145,99.1 L166.152145,89.65 Z M180.600145,100.948 L175.098145,100.948 L175.098145,97.966 L197.568145,97.966 L197.568145,100.948 L191.562145,100.948 L191.562145,116.992 C191.562145,118.168 192.024145,118.798 193.032145,118.798 L194.208145,118.798 C194.712145,118.798 195.090145,118.63 195.342145,118.294 C195.762145,117.874 196.056145,115.858 196.182145,112.246 L198.996145,113.212 C198.702145,117.286 198.282145,119.722 197.736145,120.478 C197.148145,121.192 196.182145,121.57 194.838145,121.57 L192.066145,121.57 C190.890145,121.57 190.008145,121.192 189.420145,120.478 C188.790145,119.722 188.496145,118.756 188.496145,117.664 L188.496145,100.948 L183.498145,100.948 L183.498145,103.888 C183.372145,112.12 179.718145,118.168 172.578145,121.99 L170.310145,120.016 C177.030145,116.656 180.474145,111.28 180.600145,103.888 L180.600145,100.948 Z M176.568145,86.164 L196.224145,86.164 L196.224145,89.062 L176.568145,89.062 L176.568145,86.164 Z" id="path-1"></path>
        <filter x="-10.1%" y="-35.8%" width="120.1%" height="186.9%" filterUnits="objectBoundingBox" id="filter-2">
            <feMorphology radius="0.5" operator="dilate" in="SourceAlpha" result="shadowSpreadOuter1"></feMorphology>
            <feOffset dx="0" dy="0" in="shadowSpreadOuter1" result="shadowOffsetOuter1"></feOffset>
            <feGaussianBlur stdDeviation="3" in="shadowOffsetOuter1" result="shadowBlurOuter1"></feGaussianBlur>
            <feComposite in="shadowBlurOuter1" in2="SourceAlpha" operator="out" result="shadowBlurOuter1"></feComposite>
            <feColorMatrix values="0 0 0 0 1   0 0 0 0 1   0 0 0 0 1  0 0 0 0.5 0" type="matrix" in="shadowBlurOuter1" result="shadowMatrixOuter1"></feColorMatrix>
            <feMorphology radius="0.5" operator="dilate" in="SourceAlpha" result="shadowSpreadOuter2"></feMorphology>
            <feOffset dx="0" dy="3" in="shadowSpreadOuter2" result="shadowOffsetOuter2"></feOffset>
            <feGaussianBlur stdDeviation="3" in="shadowOffsetOuter2" result="shadowBlurOuter2"></feGaussianBlur>
            <feComposite in="shadowBlurOuter2" in2="SourceAlpha" operator="out" result="shadowBlurOuter2"></feComposite>
            <feColorMatrix values="0 0 0 0 0.749813988   0 0 0 0 0.484377812   0 0 0 0 0.168814655  0 0 0 0.5 0" type="matrix" in="shadowBlurOuter2" result="shadowMatrixOuter2"></feColorMatrix>
            <feMerge>
                <feMergeNode in="shadowMatrixOuter1"></feMergeNode>
                <feMergeNode in="shadowMatrixOuter2"></feMergeNode>
            </feMerge>
        </filter>
    </defs>
    <g id="首页" stroke="none" stroke-width="1" fill="none" fill-rule="evenodd">
        <g id="终稿1" transform="translate(-409.000000, -1175.000000)">
            <g id="更多好玩" transform="translate(385.000000, 1098.000000)">
                <g id="更多好玩-字">
                    <use fill="black" fill-opacity="1" filter="url(#filter-2)" xlink:href="#path-1"></use>
                    <use fill="#FFFFFF" fill-rule="evenodd" xlink:href="#path-1"></use>
                </g>
            </g>
        </g>
    </g>
</svg>