<?xml version="1.0" encoding="UTF-8"?>
<svg width="181px" height="52px" viewBox="0 0 181 52" version="1.1" xmlns="http://www.w3.org/2000/svg" xmlns:xlink="http://www.w3.org/1999/xlink">
    <!-- Generator: Sketch 50.2 (55047) - http://www.bohemiancoding.com/sketch -->
    <title>每日一言-字@2x</title>
    <desc>Created with Sketch.</desc>
    <defs>
        <path d="M38.92,93.196 C36.946,96.388 34.678,99.202 32.074,101.554 L30.142,99.202 C33.754,95.926 36.694,91.684 39.004,86.392 L42.07,87.106 C41.566,88.198 41.062,89.29 40.558,90.298 L66.43,90.298 L66.43,93.196 L38.92,93.196 Z M45.682,110.038 C48.79,111.13 51.604,112.432 54.166,113.986 L52.738,116.17 C49.966,114.406 47.152,113.02 44.296,112.012 L45.682,110.038 Z M34.972,119.194 C35.602,115.918 36.106,112.558 36.484,109.198 L29.68,109.198 L29.68,106.342 L36.778,106.342 C37.072,103.15 37.24,99.916 37.324,96.682 L63.406,96.682 L63.112,106.342 L68.404,106.342 L68.404,109.198 L62.986,109.198 C62.86,112.138 62.734,114.532 62.65,116.38 L67.27,116.38 L67.27,119.194 L62.44,119.194 C62.356,120.286 62.23,121 62.146,121.336 C61.768,122.638 61.054,123.604 59.962,124.276 C58.954,124.864 57.4,125.158 55.384,125.158 C53.956,125.158 52.276,125.2 50.428,125.2 L49.504,122.386 C51.52,122.47 53.326,122.554 54.922,122.554 C55.93,122.554 56.812,122.428 57.568,122.218 C58.324,121.924 58.912,121.294 59.29,120.37 C59.374,120.202 59.416,119.782 59.5,119.194 L34.972,119.194 Z M59.752,116.38 C59.836,114.532 59.962,112.138 60.088,109.198 L39.508,109.198 C39.214,111.802 38.878,114.196 38.458,116.38 L59.752,116.38 Z M39.802,106.342 L52.864,106.342 C50.176,104.662 47.404,103.318 44.632,102.31 L46.018,100.294 C49.084,101.386 51.898,102.688 54.418,104.242 L53.032,106.342 L60.172,106.342 C60.256,104.242 60.298,101.974 60.382,99.496 L40.18,99.496 C40.096,101.932 39.97,104.2 39.802,106.342 Z M105.925273,88.366 L105.925273,124.99 L102.859273,124.99 L102.859273,121.798 L82.993273,121.798 L82.993273,125.032 L79.969273,125.032 L79.969273,88.366 L105.925273,88.366 Z M82.993273,118.858 L102.859273,118.858 L102.859273,106.216 L82.993273,106.216 L82.993273,118.858 Z M82.993273,103.276 L102.859273,103.276 L102.859273,91.306 L82.993273,91.306 L82.993273,103.276 Z M117.154546,104.074 L154.912546,104.074 L154.912546,107.098 L117.154546,107.098 L117.154546,104.074 Z M160.765819,92.02 L178.783819,92.02 C178.111819,90.34 177.355819,88.744 176.473819,87.232 L179.623819,86.35 C180.547819,88.198 181.261819,89.878 181.765819,91.39 L180.085819,92.02 L198.439819,92.02 L198.439819,94.876 L160.765819,94.876 L160.765819,92.02 Z M166.183819,98.53 L193.021819,98.53 L193.021819,101.26 L166.183819,101.26 L166.183819,98.53 Z M166.183819,104.956 L193.021819,104.956 L193.021819,107.686 L166.183819,107.686 L166.183819,104.956 Z M193.693819,111.718 L193.693819,125.284 L190.753819,125.284 L190.753819,123.268 L168.409819,123.268 L168.409819,125.284 L165.469819,125.284 L165.469819,111.718 L193.693819,111.718 Z M168.409819,120.412 L190.753819,120.412 L190.753819,114.574 L168.409819,114.574 L168.409819,120.412 Z" id="path-1"></path>
        <filter x="-8.0%" y="-29.5%" width="116.0%" height="169.3%" filterUnits="objectBoundingBox" id="filter-2">
            <feMorphology radius="0.5" operator="dilate" in="SourceAlpha" result="shadowSpreadOuter1"></feMorphology>
            <feOffset dx="0" dy="0" in="shadowSpreadOuter1" result="shadowOffsetOuter1"></feOffset>
            <feGaussianBlur stdDeviation="3" in="shadowOffsetOuter1" result="shadowBlurOuter1"></feGaussianBlur>
            <feComposite in="shadowBlurOuter1" in2="SourceAlpha" operator="out" result="shadowBlurOuter1"></feComposite>
            <feColorMatrix values="0 0 0 0 1   0 0 0 0 1   0 0 0 0 1  0 0 0 0.5 0" type="matrix" in="shadowBlurOuter1" result="shadowMatrixOuter1"></feColorMatrix>
            <feMorphology radius="0.5" operator="dilate" in="SourceAlpha" result="shadowSpreadOuter2"></feMorphology>
            <feOffset dx="0" dy="2" in="shadowSpreadOuter2" result="shadowOffsetOuter2"></feOffset>
            <feGaussianBlur stdDeviation="2" in="shadowOffsetOuter2" result="shadowBlurOuter2"></feGaussianBlur>
            <feComposite in="shadowBlurOuter2" in2="SourceAlpha" operator="out" result="shadowBlurOuter2"></feComposite>
            <feColorMatrix values="0 0 0 0 0.129094079   0 0 0 0 0.361234946   0 0 0 0 0.685400723  0 0 0 0.5 0" type="matrix" in="shadowBlurOuter2" result="shadowMatrixOuter2"></feColorMatrix>
            <feMerge>
                <feMergeNode in="shadowMatrixOuter1"></feMergeNode>
                <feMergeNode in="shadowMatrixOuter2"></feMergeNode>
            </feMerge>
        </filter>
    </defs>
    <g id="首页" stroke="none" stroke-width="1" fill="none" fill-rule="evenodd">
        <g id="终稿1" transform="translate(-409.000000, -948.000000)">
            <g id="每日一言" transform="translate(385.000000, 868.000000)">
                <g id="每日一言-字">
                    <use fill="black" fill-opacity="1" filter="url(#filter-2)" xlink:href="#path-1"></use>
                    <use fill="#FFFFFF" fill-rule="evenodd" xlink:href="#path-1"></use>
                </g>
            </g>
        </g>
    </g>
</svg>