<?xml version="1.0" encoding="UTF-8"?>
<svg width="65px" height="212px" viewBox="0 0 65 212" version="1.1" xmlns="http://www.w3.org/2000/svg" xmlns:xlink="http://www.w3.org/1999/xlink">
    <!-- Generator: Sketch 50.2 (55047) - http://www.bohemiancoding.com/sketch -->
    <title>每日一言-词@2x</title>
    <desc>Created with Sketch.</desc>
    <defs>
        <path d="M578.57333,998.423527 C578.57333,998.818206 578.496365,999.136138 578.342432,999.377331 C578.188499,999.618524 577.880639,999.761045 577.418841,999.804898 C576.957043,999.848751 576.319331,999.793935 575.505687,999.640449 C574.692043,999.486962 573.625526,999.190957 572.306103,998.752424 C571.602411,998.533158 570.920719,998.335821 570.261008,998.160408 L568.281884,997.634171 C567.446249,999.607569 566.533662,1001.25204 565.544095,1002.56764 C564.554528,1003.88324 563.685921,1004.848 562.938248,1005.46194 C561.88271,1006.33901 561.003108,1006.82139 560.299416,1006.90909 C559.595724,1006.9968 559.023983,1006.82139 558.584175,1006.38286 C558.100387,1005.90047 557.880486,1005.46194 557.924467,1005.06726 C557.968448,1004.67259 558.430239,1004.16828 559.309854,1003.55433 C560.981123,1002.41415 562.278536,1001.36169 563.202132,1000.39691 C564.125727,999.432142 564.873389,998.335827 565.445139,997.107935 C564.389601,996.932522 563.268108,996.811927 562.080628,996.746147 C560.893147,996.680367 559.573744,996.625551 558.122379,996.581698 C555.26363,996.493992 552.503879,996.614586 549.843043,996.943486 C547.182207,997.272385 544.906237,997.63417 543.015064,998.028849 C540.728065,998.511235 539.309707,998.368714 538.759947,997.601282 C538.210188,996.833849 538.177203,995.529234 538.660991,993.687396 C538.880895,992.898037 539.166766,991.823648 539.518612,990.464196 C539.870458,989.104745 540.244288,987.657608 540.640115,986.122744 C538.441077,986.34201 536.791824,986.583199 535.692305,986.846319 C534.021036,987.284852 532.844568,987.427373 532.162867,987.273886 C531.481165,987.1204 531.096339,986.780542 531.008377,986.254303 C530.920416,985.508797 531.525142,984.840045 532.822575,984.248025 C534.120007,983.656006 536.022146,983.338075 538.529049,983.294221 L539.848466,983.294221 C540.332254,983.294221 540.860015,983.272295 541.431765,983.228442 C541.827592,981.649724 542.212418,980.092956 542.586254,978.558091 C542.960091,977.023226 543.278946,975.641869 543.542831,974.413977 C543.762735,973.361498 544.048605,972.67082 544.400451,972.34192 C544.752297,972.01302 545.455979,971.892426 546.511517,971.980132 C546.995306,972.023985 547.676997,972.056875 548.556612,972.078802 C549.436227,972.100728 550.392795,972.111691 551.426342,972.111691 L557.858496,972.111691 C561.069091,972.067838 563.696902,972.122654 565.742008,972.27614 C567.787113,972.429627 569.370396,972.670816 570.491906,972.999716 C571.613415,973.328615 572.339087,973.734252 572.668942,974.216638 C572.998798,974.699024 573.075763,975.225256 572.89984,975.795348 C572.723917,976.409294 572.591977,977.023231 572.504015,977.637177 C572.416054,978.251123 572.372074,978.930838 572.372074,979.676344 C572.372074,980.202583 572.350084,980.750741 572.306103,981.320834 C572.262122,981.890926 572.196152,982.482937 572.108191,983.096883 C574.219267,983.140736 576.110411,983.195552 577.78168,983.261332 C579.452949,983.327111 580.838322,983.403854 581.937841,983.49156 C583.213283,983.579267 583.94995,983.820456 584.147863,984.215136 C584.345776,984.609815 584.070901,985.223752 583.323228,986.056964 C582.575555,986.93403 581.794908,987.416408 580.981264,987.504115 C580.16762,987.591822 578.947172,987.328706 577.319884,986.71476 C576.748135,986.495494 576.000473,986.320083 575.076877,986.188523 C574.153281,986.056963 573.031789,985.925405 571.712366,985.793846 C571.4045,987.241004 571.041665,988.731993 570.623847,990.266858 C570.20603,991.801722 569.755234,993.35849 569.271446,994.937208 C569.799215,995.024915 570.326976,995.079731 570.854745,995.101657 C571.382514,995.123584 571.888285,995.1784 572.372074,995.266106 C573.823439,995.441519 574.955926,995.61693 575.76957,995.792343 C576.583214,995.967756 577.198936,996.176056 577.616753,996.417249 C578.03457,996.658442 578.298451,996.943484 578.408403,997.272384 C578.518355,997.601283 578.57333,997.984994 578.57333,998.423527 Z M556.934905,985.399168 C554.428002,985.443021 552.053076,985.497837 549.810058,985.563617 C547.567039,985.629397 545.477984,985.728065 543.542831,985.859625 C543.234966,987.13137 542.971085,988.315391 542.751181,989.411723 C542.531277,990.508055 542.377347,991.42896 542.289386,992.174466 C542.157443,993.226944 542.223413,993.917623 542.487298,994.246523 C542.751182,994.575422 543.498844,994.696017 544.730305,994.60831 C548.556631,994.389044 552.31693,994.301339 556.011314,994.345192 C559.705697,994.389045 563.158135,994.520603 566.36873,994.73987 C566.852519,993.161152 567.303315,991.59342 567.721132,990.036629 C568.138949,988.479838 568.479795,986.999812 568.743679,985.596507 C565.577065,985.464947 561.640846,985.399168 556.934905,985.399168 Z M556.671022,983.031103 C558.87006,982.98725 561.014089,982.976287 563.103175,982.998213 C565.192261,983.02014 567.182361,983.031103 569.073533,983.031103 C569.205476,981.978624 569.271446,981.013867 569.271446,980.136801 C569.271446,979.172029 569.205476,978.349792 569.073533,977.670067 C568.941591,976.990341 568.710696,976.43122 568.38084,975.992687 C568.050984,975.554154 567.578198,975.236223 566.962468,975.038883 C566.346737,974.841543 565.533105,974.699022 564.521548,974.611316 C562.278529,974.479756 559.892609,974.403014 557.363715,974.381087 C554.834821,974.359161 552.470891,974.39205 550.271853,974.479757 C549.436219,974.52361 548.765522,974.578426 548.259744,974.644205 C547.753965,974.709985 547.347149,974.841543 547.039284,975.038883 C546.731418,975.236223 546.489528,975.532228 546.313605,975.926907 C546.137682,976.321587 545.961761,976.847818 545.785838,977.505618 C545.521954,978.426536 545.258073,979.369368 544.994189,980.33414 L544.202539,983.228442 C546.181673,983.184588 548.259733,983.151699 550.43678,983.129772 C552.613828,983.107846 554.691887,983.074956 556.671022,983.031103 Z M546.049722,961.1265 C546.313606,961.301913 546.456541,961.586955 546.478532,961.981635 C546.500522,962.376314 546.291617,963.034104 545.851809,963.955022 C545.763848,964.042729 545.708872,964.141397 545.686882,964.251031 C545.664892,964.360664 545.609917,964.481258 545.521955,964.612818 C548.11682,964.525112 550.56871,964.459333 552.8777,964.41548 C555.18669,964.371626 557.407685,964.327774 559.540752,964.28392 C561.673819,964.240067 563.762873,964.218141 565.807978,964.218141 L572.04222,964.218141 C573.933392,964.218141 575.076875,964.437404 575.472702,964.875937 C575.868529,965.314469 575.758578,965.928406 575.142848,966.717765 C574.747021,967.244004 574.186275,967.529047 573.460592,967.5729 C572.73491,967.616753 571.448492,967.550974 569.6013,967.375561 C568.325858,967.287854 566.786554,967.200149 564.983343,967.112443 C563.180132,967.024736 561.168043,966.947994 558.947014,966.882214 C556.725986,966.816434 554.340066,966.783545 551.789182,966.783545 C549.238298,966.783545 546.621482,966.827397 543.938656,966.915104 C543.278944,967.748316 542.542278,968.603442 541.728634,969.480508 C540.91499,970.357573 540.046383,971.190773 539.122787,971.980132 C538.375114,972.681785 537.748397,973.021642 537.242619,972.999716 C536.73684,972.977789 536.286044,972.725637 535.890217,972.243251 C534.966621,971.103065 535.362442,970.094455 537.077692,969.217389 C538.485076,968.471884 539.749504,967.529052 540.871013,966.388867 C541.992522,965.248682 542.9271,964.042735 543.674772,962.77099 C544.026619,962.157044 544.411444,961.674665 544.829262,961.323839 C545.247079,960.973013 545.653895,960.907234 546.049722,961.1265 Z M558.122379,977.571397 C558.430245,978.00993 558.72711,978.481346 559.012985,978.985658 C559.29886,979.489971 559.595726,980.027166 559.903591,980.597258 C560.167476,981.255057 560.156481,981.726473 559.870606,982.011519 C559.584731,982.296566 559.089955,982.219824 558.386263,981.781291 C557.506647,981.255051 556.736996,980.739783 556.077284,980.23547 C555.417573,979.731158 554.801852,979.237816 554.230102,978.75543 C553.746313,978.316897 553.504423,977.900297 553.504423,977.505618 C553.504423,977.110938 553.746313,976.80397 554.230102,976.584703 C555.85739,975.795344 557.154803,976.124239 558.122379,977.571397 Z M556.011314,989.148605 C556.319179,990.02567 556.561069,990.716349 556.736992,991.220662 C556.912915,991.724974 557.110826,992.240243 557.33073,992.766482 C557.418691,993.380428 557.308741,993.753175 557.000876,993.884735 C556.69301,994.016295 556.209229,993.797032 555.549518,993.226939 C554.845826,992.656846 554.219109,992.119652 553.66935,991.615339 C553.11959,991.111027 552.536854,990.551906 551.921123,989.93796 C551.569277,989.54328 551.404352,989.12668 551.426342,988.688148 C551.448333,988.249615 551.701218,987.92072 552.185007,987.701454 C552.97666,987.350627 553.735317,987.295812 554.461,987.537005 C555.186682,987.778198 555.703448,988.315392 556.011314,989.148605 Z M573.361636,1033.4169 C573.229694,1033.94314 573.097753,1035.0285 572.965811,1036.67299 C572.833869,1038.31749 572.712924,1040.32375 572.602972,1042.69183 C572.49302,1045.0599 572.40506,1047.70202 572.339088,1050.61827 C572.273117,1053.53451 572.240132,1056.52745 572.240132,1059.59718 C572.240132,1062.22838 571.833316,1064.10308 571.019672,1065.22133 C570.206028,1066.33959 568.91961,1066.65752 567.16038,1066.17514 C566.808534,1066.08743 566.192813,1066.01069 565.313197,1065.94491 C564.433582,1065.87913 563.389055,1065.83528 562.179584,1065.81335 C560.970113,1065.79142 559.683695,1065.78046 558.320292,1065.78046 C556.956888,1065.78046 555.637485,1065.80239 554.362043,1065.84624 C553.086601,1065.89009 551.921129,1065.96684 550.865591,1066.07647 C549.810052,1066.1861 548.99642,1066.3067 548.424671,1066.43826 C547.281171,1066.74523 546.335599,1066.89871 545.587926,1066.89871 C544.840253,1066.89871 544.235527,1066.69041 543.773729,1066.27381 C543.311931,1065.8572 542.993075,1065.19941 542.817152,1064.30042 C542.641229,1063.40143 542.575259,1062.22837 542.61924,1060.78121 C542.66322,1059.2902 542.652225,1057.33876 542.586254,1054.92683 C542.520283,1052.5149 542.443318,1049.98241 542.355356,1047.32929 C542.267395,1044.67616 542.14645,1042.09982 541.992517,1039.60018 C541.838584,1037.10055 541.673659,1034.99562 541.497736,1033.28534 C541.277832,1031.09268 541.486737,1029.61265 542.124458,1028.84522 C542.762179,1028.07779 543.850687,1027.82564 545.390013,1028.08876 C545.873802,1028.17646 546.698429,1028.24224 547.863919,1028.2861 C549.029409,1028.32995 550.359807,1028.3738 551.855153,1028.41765 C553.350498,1028.46151 554.933782,1028.47247 556.605051,1028.45054 C558.27632,1028.42862 559.870598,1028.41765 561.387934,1028.41765 C562.905271,1028.41765 564.257659,1028.39573 565.445139,1028.35188 C566.632619,1028.30802 567.512221,1028.26417 568.083971,1028.22032 C569.491356,1028.13261 570.491903,1028.12165 571.085643,1028.18743 C571.679383,1028.25321 572.174159,1028.43958 572.569986,1028.74655 C572.833871,1028.96582 573.064766,1029.16316 573.26268,1029.33857 C573.460593,1029.51398 573.592533,1029.75517 573.658505,1030.06214 C573.724476,1030.36912 573.735471,1030.78572 573.69149,1031.31196 C573.647509,1031.8382 573.537559,1032.53984 573.361636,1033.4169 Z M569.073533,1047.55951 L563.367059,1047.55951 C561.629819,1047.55951 559.88161,1047.57048 558.122379,1047.5924 C556.363149,1047.61433 554.493995,1047.64722 552.514861,1047.69107 C550.535727,1047.73493 548.292742,1047.77878 545.785838,1047.82263 C545.8738,1049.83988 545.928775,1051.74747 545.950765,1053.54546 C545.972756,1055.34344 546.005741,1057.29488 546.049722,1059.39984 C546.049722,1060.27691 546.082707,1060.95662 546.148678,1061.43901 C546.214649,1061.92139 546.368579,1062.27222 546.610473,1062.49148 C546.852368,1062.71075 547.204208,1062.84231 547.666006,1062.88616 C548.127804,1062.93001 548.798501,1062.95194 549.678116,1062.95194 C552.316961,1062.95194 554.922782,1062.9629 557.495657,1062.98483 C560.068531,1063.00675 562.256541,1063.03964 564.059752,1063.0835 C565.11529,1063.0835 565.950912,1063.02868 566.566643,1062.91905 C567.182373,1062.80942 567.655159,1062.56823 567.985015,1062.19547 C568.314871,1061.82272 568.545766,1061.29649 568.677709,1060.61676 C568.809651,1059.93704 568.875621,1059.04902 568.875621,1057.95269 C568.919602,1055.84773 568.952587,1053.95111 568.974577,1052.26276 C568.996568,1050.5744 569.029553,1049.00667 569.073533,1047.55951 Z M569.6013,1034.46938 C569.645281,1033.76772 569.590306,1033.2086 569.436373,1032.792 C569.28244,1032.37539 569.01856,1032.0465 568.644723,1031.8053 C568.270887,1031.56411 567.765116,1031.39966 567.127395,1031.31196 C566.489674,1031.22425 565.687037,1031.15847 564.71946,1031.11462 C563.971787,1031.07076 562.960245,1031.04884 561.684803,1031.04884 L557.594613,1031.04884 C556.143248,1031.04884 554.691905,1031.07076 553.24054,1031.11462 C551.789175,1031.15847 550.513752,1031.22425 549.414233,1031.31196 C548.402675,1031.39966 547.622029,1031.48737 547.072269,1031.57508 C546.52251,1031.66278 546.104699,1031.86012 545.818824,1032.16709 C545.532949,1032.47406 545.368023,1032.91259 545.324043,1033.48268 C545.280062,1034.05278 545.280062,1034.84212 545.324043,1035.85075 C545.412004,1037.64873 545.477974,1039.29321 545.521955,1040.78422 C545.565936,1042.27523 545.609916,1043.65659 545.653897,1044.92833 C548.1608,1044.92833 550.403785,1044.91737 552.382919,1044.89544 C554.362053,1044.87351 556.231207,1044.86255 557.990438,1044.86255 L569.139504,1044.86255 C569.227466,1043.06457 569.304431,1041.34335 569.370402,1039.69885 C569.436373,1038.05436 569.513338,1036.31121 569.6013,1034.46938 Z M534.834684,1094.59311 C535.494396,1094.24228 535.989172,1094.03398 536.319027,1093.9682 C536.648883,1093.90242 537.033709,1093.91338 537.473517,1094.00109 C537.913324,1094.0888 538.419095,1094.15457 538.990845,1094.19843 C539.562595,1094.24228 540.376227,1094.24228 541.431765,1094.19843 C545.917802,1094.11072 549.755066,1094.03398 552.943671,1093.9682 C556.132276,1093.90242 558.903022,1093.86953 561.255993,1093.86953 C563.608963,1093.86953 565.632048,1093.89146 567.325307,1093.93531 C569.018566,1093.97916 570.590855,1094.04494 572.04222,1094.13265 C573.537566,1094.22035 574.790998,1094.28613 575.802556,1094.32999 C576.814113,1094.37384 577.649735,1094.39577 578.309447,1094.39577 L579.892746,1094.39577 C580.288573,1094.39577 580.618423,1094.37384 580.882308,1094.32999 C581.761923,1094.24228 582.38864,1094.32999 582.762476,1094.59311 C583.136312,1094.85623 583.103327,1095.22897 582.66352,1095.71136 C582.179731,1096.2376 581.67396,1096.7419 581.146191,1097.22429 C580.618422,1097.70668 580.112651,1098.0575 579.628863,1098.27676 C579.101094,1098.49603 578.639303,1098.61662 578.243476,1098.63855 C577.847649,1098.66048 577.099987,1098.53988 576.000468,1098.27676 C574.37318,1097.88208 572.778902,1097.54223 571.217585,1097.25718 C569.656268,1096.97213 568.018009,1096.74191 566.30276,1096.56649 C564.58751,1096.39108 562.751341,1096.27049 560.794197,1096.20471 C558.837053,1096.13893 556.671033,1096.12796 554.296073,1096.17182 C552.316938,1096.21567 550.337834,1096.31434 548.3587,1096.46782 C546.379566,1096.62131 544.543397,1096.80768 542.850137,1097.02695 C541.156878,1097.24622 539.67255,1097.47644 538.397108,1097.71764 C537.121666,1097.95883 536.198084,1098.18906 535.626334,1098.40832 C534.878661,1098.67144 534.26294,1098.77011 533.779151,1098.70433 C533.295363,1098.63855 532.932527,1098.4741 532.690633,1098.21098 C532.448739,1097.94786 532.338789,1097.62993 532.360779,1097.25718 C532.382769,1096.88443 532.547695,1096.52264 532.85556,1096.17182 C533.207406,1095.77714 533.504272,1095.47017 533.746166,1095.2509 C533.98806,1095.03164 534.350896,1094.81237 534.834684,1094.59311 Z M582.333666,1129.39483 C582.949396,1129.43869 583.246262,1129.67988 583.224272,1130.11841 C583.202281,1130.55694 582.707505,1131.21473 581.739929,1132.0918 C580.992256,1132.79345 580.244594,1133.17716 579.496921,1133.24294 C578.749248,1133.30872 577.935616,1133.12235 577.056001,1132.68381 C576.044444,1132.15757 574.46116,1131.64231 572.306103,1131.13799 C570.151046,1130.63368 567.68816,1130.2719 564.917373,1130.05263 C563.070181,1129.92107 561.036101,1129.86625 558.815073,1129.88818 C556.594045,1129.91011 554.37305,1130.00878 552.152021,1130.18419 C549.930993,1130.3596 547.819948,1130.60079 545.818824,1130.90776 C543.817699,1131.21474 542.09148,1131.58749 540.640115,1132.02602 C539.716519,1132.28914 538.935873,1132.49744 538.298152,1132.65092 C537.660431,1132.80441 537.099684,1132.89212 536.615896,1132.91404 C536.132108,1132.93597 535.681312,1132.92501 535.263494,1132.88115 C534.845677,1132.8373 534.372891,1132.74959 533.845122,1132.61803 C532.437738,1132.22335 531.745051,1131.69712 531.767042,1131.03932 C531.789032,1130.38152 532.723609,1129.92107 534.570801,1129.65795 C536.945762,1129.30713 539.155762,1129.01112 541.200867,1128.76993 C543.245972,1128.52874 545.225077,1128.3314 547.13824,1128.17791 C549.051403,1128.02443 550.920557,1127.89287 552.745759,1127.78323 C554.57096,1127.6736 556.451109,1127.59686 558.386263,1127.55301 C559.265878,1127.55301 560.508316,1127.5859 562.113613,1127.65168 C563.718911,1127.71746 565.40115,1127.7942 567.16038,1127.8819 C568.91961,1127.96961 570.634834,1128.07924 572.306103,1128.2108 C573.977372,1128.34236 575.340755,1128.47392 576.396293,1128.60548 C578.287466,1128.8686 579.639854,1129.05497 580.453498,1129.16461 C581.267142,1129.27424 581.893858,1129.35098 582.333666,1129.39483 Z M570.854745,1136.17013 C570.722803,1136.34554 570.579868,1136.48807 570.425935,1136.5977 C570.272002,1136.70733 570.030112,1136.79504 569.700256,1136.86082 C569.3704,1136.9266 568.941594,1136.95949 568.413825,1136.95949 C567.886056,1136.95949 567.182375,1136.93756 566.30276,1136.89371 C562.212549,1136.76215 558.727126,1136.69637 555.846386,1136.69637 C552.965647,1136.69637 550.601717,1136.82793 548.754525,1137.09105 C548.006852,1137.17875 547.39113,1137.23357 546.907342,1137.2555 C546.423554,1137.27742 546.016738,1137.26646 545.686882,1137.22261 C545.357026,1137.17875 545.104141,1137.10201 544.928218,1136.99238 C544.752295,1136.88274 544.576374,1136.74022 544.400451,1136.56481 C543.916663,1136.03857 543.905668,1135.55619 544.367466,1135.11766 C544.829264,1134.67913 545.983742,1134.41601 547.830933,1134.3283 C548.79851,1134.28445 549.941993,1134.25156 551.261415,1134.22963 C552.580838,1134.20771 553.977206,1134.19674 555.450562,1134.19674 L559.903591,1134.19674 C561.398937,1134.19674 562.773315,1134.20771 564.026767,1134.22963 C565.280218,1134.25156 566.357731,1134.28445 567.259336,1134.3283 C568.160942,1134.37216 568.787658,1134.41601 569.139504,1134.45986 C570.0631,1134.59142 570.634841,1134.82165 570.854745,1135.15055 C571.074649,1135.47945 571.074649,1135.81931 570.854745,1136.17013 Z M569.931154,1141.36672 C570.678827,1141.80525 570.865742,1142.29859 570.491906,1142.84676 C570.118069,1143.39493 569.227472,1143.669 567.820088,1143.669 C564.389589,1143.669 560.915161,1143.69093 557.3967,1143.73478 C553.87824,1143.77864 550.733663,1143.86634 547.962875,1143.9979 C546.247625,1144.08561 545.104143,1143.92116 544.532393,1143.50456 C543.960643,1143.08795 544.180544,1142.57268 545.192101,1141.95874 C546.159678,1141.34479 547.23719,1140.98301 548.424671,1140.87337 C549.612151,1140.76374 550.931554,1140.75278 552.382919,1140.84048 C552.99865,1140.88434 553.757306,1140.92819 554.658912,1140.97204 C555.560518,1141.0159 556.495095,1141.04878 557.462671,1141.07071 C558.430248,1141.09264 559.364825,1141.09264 560.266431,1141.07071 C561.168036,1141.04878 561.926693,1141.0159 562.542423,1140.97204 C564.917384,1140.88434 566.632608,1140.86241 567.688146,1140.90626 C568.743685,1140.95012 569.491346,1141.1036 569.931154,1141.36672 Z M571.514453,1149.72073 C571.734357,1150.07155 571.910278,1150.40045 572.04222,1150.70742 C572.174162,1151.01439 572.240132,1151.35425 572.240132,1151.727 C572.240132,1152.09976 572.174162,1152.53828 572.04222,1153.0426 C571.910278,1153.54691 571.712367,1154.17181 571.448483,1154.91731 C570.964694,1156.32062 570.502903,1157.41693 570.063096,1158.20629 C569.623288,1158.99565 569.161497,1159.56574 568.677709,1159.91656 C568.19392,1160.26739 567.633174,1160.43184 566.995453,1160.40991 C566.357732,1160.38798 565.599075,1160.26739 564.71946,1160.04812 C563.883826,1159.82886 562.784323,1159.67537 561.42092,1159.58767 C560.057516,1159.49996 558.661148,1159.45611 557.231773,1159.45611 C555.802399,1159.45611 554.439016,1159.51092 553.141583,1159.62056 C551.844151,1159.73019 550.865594,1159.89464 550.205882,1160.1139 C548.138787,1160.72785 546.764409,1160.88133 546.082707,1160.57436 C545.401005,1160.26739 545.016179,1159.52189 544.928218,1158.33785 C544.840256,1157.19767 544.741301,1156.10135 544.631349,1155.04887 C544.521397,1153.99639 544.356472,1152.90008 544.136568,1151.75989 C543.828703,1150.22503 543.894673,1149.20546 544.334481,1148.70114 C544.774288,1148.19683 545.74185,1147.98853 547.237196,1148.07624 C548.204773,1148.12009 549.491191,1148.14202 551.096488,1148.14202 C552.701786,1148.14202 554.252085,1148.09816 555.74743,1148.01046 C560.409391,1147.79119 564.070734,1147.80215 566.73157,1148.04335 C569.392406,1148.28454 570.986684,1148.84366 571.514453,1149.72073 Z M567.886059,1153.9964 C568.061982,1152.85622 567.985017,1152.08879 567.655161,1151.69411 C567.325305,1151.29944 566.676599,1150.99247 565.709022,1150.7732 C565.181253,1150.64164 564.356626,1150.55394 563.235117,1150.51008 C562.113608,1150.46623 560.882165,1150.4443 559.540752,1150.4443 C558.199339,1150.4443 556.791975,1150.46623 555.31862,1150.51008 C553.845265,1150.55394 552.470887,1150.61971 551.195445,1150.70742 C549.700099,1150.79513 548.710547,1151.03632 548.226758,1151.431 C547.74297,1151.82568 547.567049,1152.65888 547.698992,1153.93062 C547.786953,1154.67613 547.885908,1155.26814 547.99586,1155.70667 C548.105812,1156.1452 548.281733,1156.4741 548.523627,1156.69336 C548.765521,1156.91263 549.095372,1157.04419 549.513189,1157.08804 C549.931006,1157.13189 550.491752,1157.13189 551.195445,1157.08804 C551.591271,1157.04419 552.327938,1157.0113 553.405467,1156.98937 C554.482995,1156.96744 555.670458,1156.95648 556.96789,1156.95648 C558.265323,1156.95648 559.595721,1156.96744 560.959124,1156.98937 C562.322528,1157.0113 563.50999,1157.06611 564.521548,1157.15382 C565.181259,1157.19767 565.698025,1157.19767 566.071862,1157.15382 C566.445698,1157.10997 566.753559,1156.97841 566.995453,1156.75914 C567.237347,1156.53988 567.413268,1156.21098 567.523219,1155.77245 C567.633171,1155.33392 567.754117,1154.74191 567.886059,1153.9964 Z M566.632614,1123.01421 C567.556209,1123.27733 567.88606,1123.62815 567.622176,1124.06669 C567.358291,1124.50522 566.74257,1124.70256 565.774993,1124.6587 C564.147705,1124.571 561.92671,1124.41751 559.111941,1124.19825 C556.297173,1123.97898 553.152596,1123.78164 549.678116,1123.60623 C548.226751,1123.47467 547.292174,1123.14578 546.874357,1122.61954 C546.456539,1122.0933 546.577485,1121.56707 547.237196,1121.04083 C548.116811,1120.38303 549.172334,1119.95546 550.403795,1119.75812 C551.635256,1119.56078 552.800729,1119.59367 553.900248,1119.85679 C554.867824,1120.07606 555.934342,1120.31725 557.099832,1120.58037 L560.596285,1121.36972 C561.761775,1121.63284 562.872272,1121.90692 563.92781,1122.19197 C564.983349,1122.47702 565.884941,1122.75109 566.632614,1123.01421 Z" id="path-1"></path>
        <filter x="-17.9%" y="-4.8%" width="135.7%" height="109.5%" filterUnits="objectBoundingBox" id="filter-2">
            <feMorphology radius="0.5" operator="dilate" in="SourceAlpha" result="shadowSpreadOuter1"></feMorphology>
            <feOffset dx="0" dy="0" in="shadowSpreadOuter1" result="shadowOffsetOuter1"></feOffset>
            <feGaussianBlur stdDeviation="3" in="shadowOffsetOuter1" result="shadowBlurOuter1"></feGaussianBlur>
            <feComposite in="shadowBlurOuter1" in2="SourceAlpha" operator="out" result="shadowBlurOuter1"></feComposite>
            <feColorMatrix values="0 0 0 0 1   0 0 0 0 1   0 0 0 0 1  0 0 0 1 0" type="matrix" in="shadowBlurOuter1"></feColorMatrix>
        </filter>
    </defs>
    <g id="Page-1" stroke="none" stroke-width="1" fill="none" fill-rule="evenodd">
        <g id="终稿2" transform="translate(-525.000000, -955.000000)">
            <g id="每日一言-词">
                <use fill="black" fill-opacity="1" filter="url(#filter-2)" xlink:href="#path-1"></use>
                <use fill="#FFFFFF" fill-rule="evenodd" xlink:href="#path-1"></use>
            </g>
        </g>
    </g>
</svg>