<?xml version="1.0" encoding="UTF-8"?>
<svg width="406px" height="315px" viewBox="0 0 406 315" version="1.1" xmlns="http://www.w3.org/2000/svg" xmlns:xlink="http://www.w3.org/1999/xlink">
    <!-- Generator: Sketch 50.2 (55047) - http://www.bohemiancoding.com/sketch -->
    <title>Group 3@1x</title>
    <desc>Created with Sketch.</desc>
    <defs>
        <linearGradient x1="50%" y1="59.8627622%" x2="50%" y2="-10.6544787%" id="linearGradient-1">
            <stop stop-color="#9262FB" stop-opacity="0" offset="0%"></stop>
            <stop stop-color="#6F41D5" offset="100%"></stop>
        </linearGradient>
        <filter x="-15.2%" y="-54.7%" width="130.4%" height="209.5%" filterUnits="objectBoundingBox" id="filter-2">
            <feGaussianBlur stdDeviation="5.47433036" in="SourceGraphic"></feGaussianBlur>
        </filter>
        <linearGradient x1="64.8335033%" y1="2.60742565%" x2="6.39167897%" y2="83.1762985%" id="linearGradient-3">
            <stop stop-color="#F68787" offset="0%"></stop>
            <stop stop-color="#FFBCBC" offset="9.57544373%"></stop>
            <stop stop-color="#FFD9D9" offset="17.5285721%"></stop>
            <stop stop-color="#FCCDCD" offset="41.8665285%"></stop>
            <stop stop-color="#DF817A" offset="100%"></stop>
        </linearGradient>
        <linearGradient x1="30.8333674%" y1="3.79369849%" x2="135.256036%" y2="52.119737%" id="linearGradient-4">
            <stop stop-color="#CA625B" offset="0%"></stop>
            <stop stop-color="#F2A29D" offset="100%"></stop>
        </linearGradient>
        <path d="M40.8309019,51.6064699 L73.2396544,62.383688 C76.0820826,63.3289101 78,65.9878771 78,68.9833475 L78,68.9833475 C78,70.9885302 76.3744782,72.614052 74.3692955,72.614052 C73.9838166,72.614052 73.6007971,72.5526638 73.2346264,72.4321938 L40.8360044,61.773059 C37.9502381,60.823643 36,58.1289409 36,55.0910077 L36,55.0910077 C36,53.0629338 37.6440787,51.4188552 39.6721525,51.4188552 C40.0659637,51.4188552 40.457211,51.4822026 40.8309019,51.6064699 Z" id="path-5"></path>
        <filter x="-7.6%" y="-15.1%" width="115.2%" height="130.2%" filterUnits="objectBoundingBox" id="filter-6">
            <feOffset dx="4" dy="-2" in="SourceAlpha" result="shadowOffsetInner1"></feOffset>
            <feComposite in="shadowOffsetInner1" in2="SourceAlpha" operator="arithmetic" k2="-1" k3="1" result="shadowInnerInner1"></feComposite>
            <feColorMatrix values="0 0 0 0 0.831393495   0 0 0 0 0.434597204   0 0 0 0 0.410103605  0 0 0 1 0" type="matrix" in="shadowInnerInner1"></feColorMatrix>
        </filter>
        <path d="M40.8309019,51.6064699 L73.2396544,62.383688 C76.0820826,63.3289101 78,65.9878771 78,68.9833475 L78,68.9833475 C78,70.9885302 76.3744782,72.614052 74.3692955,72.614052 C73.9838166,72.614052 73.6007971,72.5526638 73.2346264,72.4321938 L40.8360044,61.773059 C37.9502381,60.823643 36,58.1289409 36,55.0910077 L36,55.0910077 C36,53.0629338 37.6440787,51.4188552 39.6721525,51.4188552 C40.0659637,51.4188552 40.457211,51.4822026 40.8309019,51.6064699 Z" id="path-7"></path>
        <filter x="-7.6%" y="-15.1%" width="115.2%" height="130.2%" filterUnits="objectBoundingBox" id="filter-8">
            <feOffset dx="4" dy="-2" in="SourceAlpha" result="shadowOffsetInner1"></feOffset>
            <feComposite in="shadowOffsetInner1" in2="SourceAlpha" operator="arithmetic" k2="-1" k3="1" result="shadowInnerInner1"></feComposite>
            <feColorMatrix values="0 0 0 0 0.831393495   0 0 0 0 0.434597204   0 0 0 0 0.410103605  0 0 0 1 0" type="matrix" in="shadowInnerInner1"></feColorMatrix>
        </filter>
        <radialGradient cx="32.0112896%" cy="79.5150821%" fx="32.0112896%" fy="79.5150821%" r="77.8863321%" gradientTransform="translate(0.320113,0.795151),scale(0.454545,1.000000),rotate(-59.461691),translate(-0.320113,-0.795151)" id="radialGradient-9">
            <stop stop-color="#FFFFFF" stop-opacity="0.758208786" offset="0%"></stop>
            <stop stop-color="#FFFFFF" stop-opacity="0" offset="100%"></stop>
        </radialGradient>
        <linearGradient x1="50%" y1="0%" x2="50%" y2="100%" id="linearGradient-10">
            <stop stop-color="#FFFFFF" stop-opacity="0.775560462" offset="0%"></stop>
            <stop stop-color="#FFFFFF" offset="100%"></stop>
        </linearGradient>
        <linearGradient x1="97.6388658%" y1="60.2326732%" x2="5.22179579%" y2="37.6736571%" id="linearGradient-11">
            <stop stop-color="#B73963" offset="0%"></stop>
            <stop stop-color="#F86A99" offset="6.53619432%"></stop>
            <stop stop-color="#FC7EA9" offset="17.3895302%"></stop>
            <stop stop-color="#FF93BA" offset="49.3750015%"></stop>
            <stop stop-color="#FD86AF" offset="73.4646684%"></stop>
            <stop stop-color="#FE6395" offset="100%"></stop>
        </linearGradient>
        <polygon id="path-12" points="11.3261702 1.10268387 53.134551 16.0867905 44.8969981 52.636453 1.22574054 37.5996188"></polygon>
        <rect id="path-14" x="0" y="0" width="1.38461538" height="41.2105263"></rect>
        <rect id="path-16" x="0" y="0" width="1.38461538" height="41.2105263"></rect>
        <filter x="-30.0%" y="-82.5%" width="160.0%" height="265.0%" filterUnits="objectBoundingBox" id="filter-18">
            <feGaussianBlur stdDeviation="6.6015625 0" in="SourceGraphic"></feGaussianBlur>
        </filter>
        <linearGradient x1="55.1631876%" y1="0%" x2="43.4959378%" y2="67.244598%" id="linearGradient-19">
            <stop stop-color="#F55E90" offset="0%"></stop>
            <stop stop-color="#FF93BA" offset="100%"></stop>
        </linearGradient>
        <linearGradient x1="100%" y1="50%" x2="0%" y2="50%" id="linearGradient-20">
            <stop stop-color="#F55E90" offset="0%"></stop>
            <stop stop-color="#FF93BA" offset="100%"></stop>
        </linearGradient>
        <linearGradient x1="75.7080643%" y1="10.4571464%" x2="36.3203315%" y2="90.2637199%" id="linearGradient-21">
            <stop stop-color="#FFFFFF" offset="0%"></stop>
            <stop stop-color="#FFFFFF" stop-opacity="0" offset="100%"></stop>
        </linearGradient>
        <filter x="-18.3%" y="-22.2%" width="136.5%" height="144.5%" filterUnits="objectBoundingBox" id="filter-22">
            <feGaussianBlur stdDeviation="3.40848214 0" in="SourceGraphic"></feGaussianBlur>
        </filter>
        <linearGradient x1="75.7080643%" y1="10.4571464%" x2="36.3203315%" y2="90.2637199%" id="linearGradient-23">
            <stop stop-color="#FFFFFF" stop-opacity="0.686622509" offset="0%"></stop>
            <stop stop-color="#FFFFFF" stop-opacity="0" offset="100%"></stop>
        </linearGradient>
        <filter x="-20.5%" y="-20.5%" width="140.9%" height="140.9%" filterUnits="objectBoundingBox" id="filter-24">
            <feGaussianBlur stdDeviation="3.40848214 0" in="SourceGraphic"></feGaussianBlur>
        </filter>
        <path d="M100,63.1220304 L128,50 C126.476853,55.9071862 122.648201,60.4782258 116.514045,63.7131187 C110.379889,66.9480116 104.875207,66.7509821 100,63.1220304 Z" id="path-25"></path>
        <filter x="-16.1%" y="-28.1%" width="132.1%" height="156.2%" filterUnits="objectBoundingBox" id="filter-26">
            <feGaussianBlur stdDeviation="3" in="SourceAlpha" result="shadowBlurInner1"></feGaussianBlur>
            <feOffset dx="0" dy="2" in="shadowBlurInner1" result="shadowOffsetInner1"></feOffset>
            <feComposite in="shadowOffsetInner1" in2="SourceAlpha" operator="arithmetic" k2="-1" k3="1" result="shadowInnerInner1"></feComposite>
            <feColorMatrix values="0 0 0 0 0   0 0 0 0 0   0 0 0 0 0  0 0 0 0.5 0" type="matrix" in="shadowInnerInner1"></feColorMatrix>
        </filter>
    </defs>
    <g id="Symbols" stroke="none" stroke-width="1" fill="none" fill-rule="evenodd">
        <g id="默认图" transform="translate(-47.000000, -94.000000)">
            <g id="Group-3">
                <rect id="Rectangle" x="0" y="0" width="500" height="500"></rect>
                <g id="Group-2" transform="translate(45.000000, 4.000000)">
                    <path d="M410,428 C410,345.157288 318.218374,278 205,278 C91.7816263,278 0,345.157288 0,428 C0,510.842712 410,510.842712 410,428 Z" id="Oval-4" fill="url(#linearGradient-1)"></path>
                    <g id="飞机" transform="translate(265.570773, 105.913919) rotate(15.000000) translate(-265.570773, -105.913919) translate(231.570773, 79.913919)">
                        <polygon id="Path-2-Copy-2" fill="#C0C0C0" points="40.9667194 35.8420954 19.5595338 51.7840419 27.96922 32.7702961"></polygon>
                        <polygon id="Path-2" fill="#FFFFFF" points="0.647200051 28.1732446 14.8438463 31.7907275 19.5595338 51.7840419 29.7920798 34.8971312 50.708646 39.9786432 67.1757118 1.18453267"></polygon>
                        <polygon id="Path-2-Copy" fill="#ECECEC" points="14.8438463 31.7907275 19.5595338 51.7840419 29.7451056 34.6881743 67.1757118 1.18453267"></polygon>
                    </g>
                    <g id="信箱" transform="translate(124.000000, 208.000000)">
                        <path d="M135.063383,104 L139.275308,105.395305 C141.681583,112.805895 138.095493,118.452285 128.517038,122.334475 C118.938583,126.216665 106.306463,130.105174 90.6206796,134 L32,112.75405 L135.063383,104 Z" id="Rectangle-7" fill="#4F21B3" filter="url(#filter-2)"></path>
                        <path d="M89.6529821,132 L89.6529821,48.388711 C92.8792633,39.4727071 96.9774601,32.5044917 101.947573,27.4840646 C106.917685,22.4636376 115.601827,19.7088799 128,19.2197915 L63.3163308,0 C53.0820955,1.66503947 45.4074213,4.72871209 40.2923082,9.19101787 C35.1771952,13.6533236 31.0797591,20.459006 28,29.6080648 L28,111.863679 L89.6529821,132 Z" id="Path-23" fill="url(#linearGradient-3)"></path>
                        <path d="M89.3746283,132.103749 L135.094071,105.340657 L135.999673,35.5243504 C136.054023,20.5069687 129.336029,15.141375 115.845691,19.4275693 C102.355352,23.7137636 93.5316645,33.4122088 89.3746283,48.5229049 L89.3746283,132.103749 Z" id="Path-24" fill="url(#linearGradient-4)"></path>
                        <path d="M40.8309019,51.6064699 L73.2396544,62.383688 C76.0820826,63.3289101 78,65.9878771 78,68.9833475 L78,68.9833475 C78,70.9885302 76.3744782,72.614052 74.3692955,72.614052 C73.9838166,72.614052 73.6007971,72.5526638 73.2346264,72.4321938 L40.8360044,61.773059 C37.9502381,60.823643 36,58.1289409 36,55.0910077 L36,55.0910077 C36,53.0629338 37.6440787,51.4188552 39.6721525,51.4188552 C40.0659637,51.4188552 40.457211,51.4822026 40.8309019,51.6064699 Z" id="Path-25" fill="#8C3535"></path>
                        <g id="Path-25">
                            <use fill="black" fill-opacity="1" filter="url(#filter-6)" xlink:href="#path-5"></use>
                            <use stroke="#FFDEDE" stroke-width="2.4" xlink:href="#path-5"></use>
                        </g>
                        <g id="Path-25">
                            <use fill="black" fill-opacity="1" filter="url(#filter-8)" xlink:href="#path-7"></use>
                            <use stroke="#FFDEDE" stroke-width="2.4" xlink:href="#path-7"></use>
                        </g>
                        <path d="M30,26.9342507 C38.9261086,33.1433485 48.1177807,37.5217288 57.5750164,40.0693918 C67.032252,42.6170548 77.9357365,43.9272575 90.2854698,44 L96,30.6860444 L39.2211989,14 L30,26.9342507 Z" id="Path-28" fill="url(#radialGradient-9)"></path>
                        <path d="M14,86.6310018 C17.5939623,82.3269184 19.6451743,78.9450493 20.1536359,76.4853944 C20.6620976,74.0257394 23.3467575,71.1972746 28.2076155,68 L58,81.0308201 C53.3050704,82.9618245 50.9576056,85.5792443 50.9576056,88.8830794 C50.9576056,92.1869144 50.3356538,95.8925547 49.0917504,100 L14,86.6310018 Z" id="Path-5" fill="url(#linearGradient-10)"></path>
                        <g id="Combined-Shape" transform="translate(0.000000, 82.000000)">
                            <mask id="mask-13" fill="white">
                                <use xlink:href="#path-12"></use>
                            </mask>
                            <use id="Mask" fill="url(#linearGradient-11)" xlink:href="#path-12"></use>
                            <g mask="url(#mask-13)">
                                <g transform="translate(7.444666, 20.547977) rotate(15.000000) translate(-7.444666, -20.547977) translate(6.444666, -0.452023)">
                                    <mask id="mask-15" fill="white">
                                        <use xlink:href="#path-14"></use>
                                    </mask>
                                    <use id="Mask" stroke="none" fill="#DA4072" fill-rule="evenodd" xlink:href="#path-14"></use>
                                    <path d="M0,0 L1.38461538,1.42105263 L1.38461538,2.84210526 L0,1.55000695 L0,0 Z M0,2.84210526 L1.38461538,4.26315789 L1.38461538,5.68421053 L0,4.39211221 L0,2.84210526 Z M0,5.68421053 L1.38461538,7.10526316 L1.38461538,8.52631579 L0,7.23421748 L0,5.68421053 Z M0,8.52631579 L1.38461538,9.94736842 L1.38461538,11.3684211 L0,10.0763227 L0,8.52631579 Z M0,11.3684211 L1.38461538,12.7894737 L1.38461538,14.2105263 L0,12.918428 L0,11.3684211 Z M0,14.2105263 L1.38461538,15.6315789 L1.38461538,17.0526316 L0,15.7605333 L0,14.2105263 Z M0,17.0526316 L1.38461538,18.4736842 L1.38461538,19.8947368 L0,18.6026385 L0,17.0526316 Z M0,19.8947368 L1.38461538,21.3157895 L1.38461538,22.7368421 L0,21.4447438 L0,19.8947368 Z M0,22.7368421 L1.38461538,24.1578947 L1.38461538,25.5789474 L0,24.2868491 L0,22.7368421 Z M0,25.5789474 L1.38461538,27 L1.38461538,28.4210526 L0,27.1289543 L0,25.5789474 Z M0,28.4210526 L1.38461538,29.8421053 L1.38461538,31.2631579 L0,29.9710596 L0,28.4210526 Z M0,31.2631579 L1.38461538,32.6842105 L1.38461538,34.1052632 L0,32.8131648 L0,31.2631579 Z M0,34.1052632 L1.38461538,35.5263158 L1.38461538,36.9473684 L0,35.6552701 L0,34.1052632 Z M0,36.9473684 L1.38461538,38.3684211 L1.38461538,39.7894737 L0,38.4973754 L0,36.9473684 Z M0,39.7894737 L1.38461538,41.2105263 L1.38461538,42.6315789 L0,41.3394806 L0,39.7894737 Z" id="Combined-Shape" stroke="none" fill="#FE92B9" fill-rule="evenodd" mask="url(#mask-15)"></path>
                                </g>
                            </g>
                            <g id="Combined-Shape-Copy-4" mask="url(#mask-13)">
                                <g transform="translate(48.324976, 33.480294) rotate(13.000000) translate(-48.324976, -33.480294) translate(47.324976, 12.480294)">
                                    <mask id="mask-17" fill="white">
                                        <use xlink:href="#path-16"></use>
                                    </mask>
                                    <use id="Mask" stroke="none" fill="#DA4072" fill-rule="evenodd" xlink:href="#path-16"></use>
                                    <path d="M0,0 L1.38461538,1.42105263 L1.38461538,2.84210526 L0,1.55000695 L0,0 Z M0,2.84210526 L1.38461538,4.26315789 L1.38461538,5.68421053 L0,4.39211221 L0,2.84210526 Z M0,5.68421053 L1.38461538,7.10526316 L1.38461538,8.52631579 L0,7.23421748 L0,5.68421053 Z M0,8.52631579 L1.38461538,9.94736842 L1.38461538,11.3684211 L0,10.0763227 L0,8.52631579 Z M0,11.3684211 L1.38461538,12.7894737 L1.38461538,14.2105263 L0,12.918428 L0,11.3684211 Z M0,14.2105263 L1.38461538,15.6315789 L1.38461538,17.0526316 L0,15.7605333 L0,14.2105263 Z M0,17.0526316 L1.38461538,18.4736842 L1.38461538,19.8947368 L0,18.6026385 L0,17.0526316 Z M0,19.8947368 L1.38461538,21.3157895 L1.38461538,22.7368421 L0,21.4447438 L0,19.8947368 Z M0,22.7368421 L1.38461538,24.1578947 L1.38461538,25.5789474 L0,24.2868491 L0,22.7368421 Z M0,25.5789474 L1.38461538,27 L1.38461538,28.4210526 L0,27.1289543 L0,25.5789474 Z M0,28.4210526 L1.38461538,29.8421053 L1.38461538,31.2631579 L0,29.9710596 L0,28.4210526 Z M0,31.2631579 L1.38461538,32.6842105 L1.38461538,34.1052632 L0,32.8131648 L0,31.2631579 Z M0,34.1052632 L1.38461538,35.5263158 L1.38461538,36.9473684 L0,35.6552701 L0,34.1052632 Z M0,36.9473684 L1.38461538,38.3684211 L1.38461538,39.7894737 L0,38.4973754 L0,36.9473684 Z M0,39.7894737 L1.38461538,41.2105263 L1.38461538,42.6315789 L0,41.3394806 L0,39.7894737 Z" id="Combined-Shape" stroke="none" fill="#FE92B9" fill-rule="evenodd" mask="url(#mask-17)"></path>
                                </g>
                            </g>
                        </g>
                        <path d="M2,118 C55.4073273,139.011422 76.4016704,146.226599 64.9830293,139.64553 C53.5643882,133.064461 32.5700451,125.849284 2,118 Z" id="Path-30" fill="#5E2FC3" filter="url(#filter-18)"></path>
                        <polygon id="Path-26" fill="#B65151" points="27.1801245 108 48 123.961656 47.555823 126 2 115.011087 3.0765118 111.533994"></polygon>
                        <polygon id="Path-26" fill="url(#linearGradient-19)" points="27.9332573 108 48 123.117475 45.9851035 132 2 117.782055 4.09207719 110.73863"></polygon>
                        <polygon id="Rectangle-6" fill="#B65151" points="12 82 54 96.7112004 23.6679422 116"></polygon>
                        <polygon id="Rectangle-6" fill="url(#linearGradient-20)" points="12 82 54 96.9691675 23.296824 116"></polygon>
                        <path d="M22.3496849,104.549817 C21.4986828,105.540005 22.2009462,107.356732 24.456475,110 C28.4241368,108.445419 30.2619705,107.101628 29.9699762,105.968627 C29.6779819,104.835626 28.3546565,104.709953 26,105.591606 C24.4174587,103.906893 23.200687,103.55963 22.3496849,104.549817 Z" id="Path-6" fill="#FFFBCB"></path>
                        <polygon id="Path-27" fill="url(#linearGradient-21)" filter="url(#filter-22)" points="72 61.4259998 53.1621603 98 16 83.320708 42.6199858 52"></polygon>
                        <polygon id="Path-27" fill="url(#linearGradient-23)" filter="url(#filter-24)" points="72 61.2750469 57.6026109 102 22 89.5505774 42.7842545 52"></polygon>
                        <polygon id="Path-7" stroke="#D5736D" stroke-width="2" fill="#FCD7D7" points="84 111.977958 84 124 66 117.674142 66 106"></polygon>
                        <path d="M96.013686,61.3055245 C95.9850947,63.5775464 96.0013008,65.3857943 96.0623044,66.7302683 C96.0623044,66.7302683 96.0623044,66.7302683 96.0623044,66.7302683 L96.0623044,66.7302683 C96.139138,68.423622 97.5741582,69.7340704 99.2675119,69.6572369 C99.6604988,69.6394056 100.046394,69.5461921 100.404189,69.3826706 L127.596095,56.9553126 C129.096209,56.2697224 130.021705,54.7336617 129.926779,53.0870397 L129.769466,50.3582186 C129.645685,48.2110792 127.804741,46.5708225 125.657602,46.6946028 C125.224715,46.7195582 124.799036,46.8166356 124.398131,46.9818288 L98.4894616,57.657523 C97.0080664,58.2679331 96.033847,59.7034241 96.013686,61.3055245 Z" id="Path-12" fill="#FDD4D4"></path>
                        <path d="M98,62.8436926 L98,66.0889172 C98,68.194862 99.7072056,69.9020676 101.81315,69.9020676 C102.355353,69.9020676 102.891321,69.7864365 103.385294,69.5628892 L129.649181,57.6771864 C131.080416,57.029482 132,55.6039578 132,54.0329851 L132,51.3066624 C132,49.3533955 130.416564,47.7699599 128.463297,47.7699599 C127.996028,47.7699599 127.533389,47.8625548 127.102114,48.0423947 L100.460505,59.1518156 C98.9704673,59.7731542 98,61.2292965 98,62.8436926 Z" id="Path-12" fill="#CF6963"></path>
                        <g id="Path-13">
                            <use fill="#A0322C" fill-rule="evenodd" xlink:href="#path-25"></use>
                            <use fill="black" fill-opacity="1" filter="url(#filter-26)" xlink:href="#path-25"></use>
                            <use stroke="#DC9898" stroke-width="1" xlink:href="#path-25"></use>
                        </g>
                    </g>
                    <path d="M241.015625,126 C199.005208,147.715455 178,169.755603 178,192.120446 C178,225.667711 299.207031,197.338984 311.175781,225.667711 C323.144531,253.996438 247.964844,312.347656 208.21875,312.347656" id="Path-9" stroke="#FFFFFF" stroke-width="2" stroke-linecap="round" stroke-dasharray="8"></path>
                </g>
            </g>
        </g>
    </g>
</svg>