<?xml version="1.0" encoding="UTF-8"?>
<svg width="200px" height="200px" viewBox="0 0 200 200" version="1.1" xmlns="http://www.w3.org/2000/svg" xmlns:xlink="http://www.w3.org/1999/xlink">
    <!-- Generator: Sketch 49 (51002) - http://www.bohemiancoding.com/sketch -->
    <title>小哥抽签logo-圆</title>
    <desc>Created with Sketch.</desc>
    <defs>
        <circle id="path-1" cx="100" cy="100" r="100"></circle>
        <linearGradient x1="50%" y1="1.01630627%" x2="50%" y2="100%" id="linearGradient-3">
            <stop stop-color="#3D3B5D" offset="0%"></stop>
            <stop stop-color="#4E4CB3" offset="17.8421813%"></stop>
            <stop stop-color="#43A6EE" offset="100%"></stop>
        </linearGradient>
        <linearGradient x1="50%" y1="1.01630627%" x2="50%" y2="100%" id="linearGradient-4">
            <stop stop-color="#7870F8" offset="0%"></stop>
            <stop stop-color="#1D0962" offset="63.7080022%"></stop>
            <stop stop-color="#2982C3" offset="100%"></stop>
        </linearGradient>
        <polygon id="path-5" points="6.94444444 13.1944444 6.12807604 13.6236347 6.28398853 12.7145951 5.62353262 12.0708097 6.53626024 11.9381826 6.94444444 11.1111111 7.35262865 11.9381826 8.26535627 12.0708097 7.60490036 12.7145951 7.76081285 13.6236347"></polygon>
        <filter x="-324.0%" y="-324.0%" width="748.0%" height="748.0%" filterUnits="objectBoundingBox" id="filter-6">
            <feOffset dx="0" dy="0" in="SourceAlpha" result="shadowOffsetOuter1"></feOffset>
            <feGaussianBlur stdDeviation="3" in="shadowOffsetOuter1" result="shadowBlurOuter1"></feGaussianBlur>
            <feColorMatrix values="0 0 0 0 1   0 0 0 0 0.980392157   0 0 0 0 0.741176471  0 0 0 1 0" type="matrix" in="shadowBlurOuter1"></feColorMatrix>
        </filter>
        <polygon id="path-7" points="15.2777778 35.4166667 14.4614094 35.8458569 14.6173219 34.9368174 13.9568659 34.293032 14.8695936 34.1604049 15.2777778 33.3333333 15.685962 34.1604049 16.5986896 34.293032 15.9382337 34.9368174 16.0941462 35.8458569"></polygon>
        <filter x="-324.0%" y="-324.0%" width="748.0%" height="748.0%" filterUnits="objectBoundingBox" id="filter-8">
            <feOffset dx="0" dy="0" in="SourceAlpha" result="shadowOffsetOuter1"></feOffset>
            <feGaussianBlur stdDeviation="3" in="shadowOffsetOuter1" result="shadowBlurOuter1"></feGaussianBlur>
            <feColorMatrix values="0 0 0 0 1   0 0 0 0 0.980392157   0 0 0 0 0.741176471  0 0 0 1 0" type="matrix" in="shadowBlurOuter1"></feColorMatrix>
        </filter>
        <polygon id="path-9" points="51.3888889 15.9722222 50.5725205 16.4014125 50.728433 15.4923729 50.0679771 14.8485875 50.9807047 14.7159604 51.3888889 13.8888889 51.7970731 14.7159604 52.7098007 14.8485875 52.0493448 15.4923729 52.2052573 16.4014125"></polygon>
        <filter x="-324.0%" y="-324.0%" width="748.0%" height="748.0%" filterUnits="objectBoundingBox" id="filter-10">
            <feOffset dx="0" dy="0" in="SourceAlpha" result="shadowOffsetOuter1"></feOffset>
            <feGaussianBlur stdDeviation="3" in="shadowOffsetOuter1" result="shadowBlurOuter1"></feGaussianBlur>
            <feColorMatrix values="0 0 0 0 1   0 0 0 0 0.980392157   0 0 0 0 0.741176471  0 0 0 1 0" type="matrix" in="shadowBlurOuter1"></feColorMatrix>
        </filter>
        <polygon id="path-11" points="86.1111111 75.6944444 85.2947427 76.1236347 85.4506552 75.2145951 84.7901993 74.5708097 85.7029269 74.4381826 86.1111111 73.6111111 86.5192953 74.4381826 87.4320229 74.5708097 86.771567 75.2145951 86.9274795 76.1236347"></polygon>
        <filter x="-324.0%" y="-324.0%" width="748.0%" height="748.0%" filterUnits="objectBoundingBox" id="filter-12">
            <feOffset dx="0" dy="0" in="SourceAlpha" result="shadowOffsetOuter1"></feOffset>
            <feGaussianBlur stdDeviation="3" in="shadowOffsetOuter1" result="shadowBlurOuter1"></feGaussianBlur>
            <feColorMatrix values="0 0 0 0 1   0 0 0 0 0.980392157   0 0 0 0 0.741176471  0 0 0 1 0" type="matrix" in="shadowBlurOuter1"></feColorMatrix>
        </filter>
        <polygon id="path-13" points="105.081619 40.1331745 95.2851982 43.5652356 95.5220217 33.1877205 89.2306771 24.9313358 99.173463 21.9497399 105.081619 13.4149524 110.989775 21.9497399 120.932561 24.9313358 114.641216 33.1877205 114.87804 43.5652356"></polygon>
        <filter x="-27.0%" y="-27.0%" width="154.0%" height="154.0%" filterUnits="objectBoundingBox" id="filter-14">
            <feOffset dx="0" dy="0" in="SourceAlpha" result="shadowOffsetOuter1"></feOffset>
            <feGaussianBlur stdDeviation="3" in="shadowOffsetOuter1" result="shadowBlurOuter1"></feGaussianBlur>
            <feColorMatrix values="0 0 0 0 1   0 0 0 0 0.980392157   0 0 0 0 0.741176471  0 0 0 1 0" type="matrix" in="shadowBlurOuter1"></feColorMatrix>
        </filter>
        <polygon id="path-15" points="172.222222 3.47222222 171.405854 3.90141249 171.561766 2.99237291 170.90131 2.34858751 171.814038 2.21596042 172.222222 1.38888889 172.630406 2.21596042 173.543134 2.34858751 172.882678 2.99237291 173.038591 3.90141249"></polygon>
        <filter x="-324.0%" y="-324.0%" width="748.0%" height="748.0%" filterUnits="objectBoundingBox" id="filter-16">
            <feOffset dx="0" dy="0" in="SourceAlpha" result="shadowOffsetOuter1"></feOffset>
            <feGaussianBlur stdDeviation="3" in="shadowOffsetOuter1" result="shadowBlurOuter1"></feGaussianBlur>
            <feColorMatrix values="0 0 0 0 1   0 0 0 0 0.980392157   0 0 0 0 0.741176471  0 0 0 1 0" type="matrix" in="shadowBlurOuter1"></feColorMatrix>
        </filter>
        <polygon id="path-17" points="109.722222 2.08333333 108.905854 2.5125236 109.061766 1.60348402 108.40131 0.959698619 109.314038 0.827071532 109.722222 0 110.130406 0.827071532 111.043134 0.959698619 110.382678 1.60348402 110.538591 2.5125236"></polygon>
        <filter x="-324.0%" y="-324.0%" width="748.0%" height="748.0%" filterUnits="objectBoundingBox" id="filter-18">
            <feOffset dx="0" dy="0" in="SourceAlpha" result="shadowOffsetOuter1"></feOffset>
            <feGaussianBlur stdDeviation="3" in="shadowOffsetOuter1" result="shadowBlurOuter1"></feGaussianBlur>
            <feColorMatrix values="0 0 0 0 1   0 0 0 0 0.980392157   0 0 0 0 0.741176471  0 0 0 1 0" type="matrix" in="shadowBlurOuter1"></feColorMatrix>
        </filter>
        <polygon id="path-19" points="1.38888889 72.9166667 0.572520483 73.3458569 0.728432975 72.4368174 0.0679770607 71.793032 0.980704686 71.6604049 1.38888889 70.8333333 1.79707309 71.6604049 2.70980072 71.793032 2.0493448 72.4368174 2.20525729 73.3458569"></polygon>
        <filter x="-324.0%" y="-324.0%" width="748.0%" height="748.0%" filterUnits="objectBoundingBox" id="filter-20">
            <feOffset dx="0" dy="0" in="SourceAlpha" result="shadowOffsetOuter1"></feOffset>
            <feGaussianBlur stdDeviation="3" in="shadowOffsetOuter1" result="shadowBlurOuter1"></feGaussianBlur>
            <feColorMatrix values="0 0 0 0 1   0 0 0 0 0.980392157   0 0 0 0 0.741176471  0 0 0 1 0" type="matrix" in="shadowBlurOuter1"></feColorMatrix>
        </filter>
        <polygon id="path-21" points="169.444444 54.8611111 168.628076 55.2903014 168.783989 54.3812618 168.123533 53.7374764 169.03626 53.6048493 169.444444 52.7777778 169.852629 53.6048493 170.765356 53.7374764 170.1049 54.3812618 170.260813 55.2903014"></polygon>
        <filter x="-324.0%" y="-324.0%" width="748.0%" height="748.0%" filterUnits="objectBoundingBox" id="filter-22">
            <feOffset dx="0" dy="0" in="SourceAlpha" result="shadowOffsetOuter1"></feOffset>
            <feGaussianBlur stdDeviation="3" in="shadowOffsetOuter1" result="shadowBlurOuter1"></feGaussianBlur>
            <feColorMatrix values="0 0 0 0 1   0 0 0 0 0.980392157   0 0 0 0 0.741176471  0 0 0 1 0" type="matrix" in="shadowBlurOuter1"></feColorMatrix>
        </filter>
        <path d="M73.8482385,28.4166667 C73.5364246,28.4166667 73.2836495,28.1617177 73.2836495,27.8472222 C73.2836495,27.5327267 73.5364246,27.2777778 73.8482385,27.2777778 C74.1600524,27.2777778 74.4128275,27.5327267 74.4128275,27.8472222 C74.4128275,28.1617177 74.1600524,28.4166667 73.8482385,28.4166667 Z M81.7524842,58.0277778 C81.4406703,58.0277778 81.1878952,57.7728288 81.1878952,57.4583333 C81.1878952,57.1438379 81.4406703,56.8888889 81.7524842,56.8888889 C82.0642981,56.8888889 82.3170732,57.1438379 82.3170732,57.4583333 C82.3170732,57.7728288 82.0642981,58.0277778 81.7524842,58.0277778 Z M117.886179,52.3333333 C117.574365,52.3333333 117.32159,52.0783844 117.32159,51.7638889 C117.32159,51.4493934 117.574365,51.1944444 117.886179,51.1944444 C118.197993,51.1944444 118.450768,51.4493934 118.450768,51.7638889 C118.450768,52.0783844 118.197993,52.3333333 117.886179,52.3333333 Z M68.2023487,81.9444444 C67.8905348,81.9444444 67.6377597,81.6894955 67.6377597,81.375 C67.6377597,81.0605045 67.8905348,80.8055556 68.2023487,80.8055556 C68.5141626,80.8055556 68.7669377,81.0605045 68.7669377,81.375 C68.7669377,81.6894955 68.5141626,81.9444444 68.2023487,81.9444444 Z M43.3604336,43.2222222 C43.0486197,43.2222222 42.7958446,42.9672733 42.7958446,42.6527778 C42.7958446,42.3382823 43.0486197,42.0833333 43.3604336,42.0833333 C43.6722475,42.0833333 43.9250226,42.3382823 43.9250226,42.6527778 C43.9250226,42.9672733 43.6722475,43.2222222 43.3604336,43.2222222 Z M74.9774164,44.3611111 C74.6656026,44.3611111 74.4128275,44.1061621 74.4128275,43.7916667 C74.4128275,43.4771712 74.6656026,43.2222222 74.9774164,43.2222222 C75.2892303,43.2222222 75.5420054,43.4771712 75.5420054,43.7916667 C75.5420054,44.1061621 75.2892303,44.3611111 74.9774164,44.3611111 Z M44.4896116,68.2777778 C44.1777977,68.2777778 43.9250226,68.0228288 43.9250226,67.7083333 C43.9250226,67.3938379 44.1777977,67.1388889 44.4896116,67.1388889 C44.8014254,67.1388889 45.0542005,67.3938379 45.0542005,67.7083333 C45.0542005,68.0228288 44.8014254,68.2777778 44.4896116,68.2777778 Z M169.828365,39.8055556 C169.516551,39.8055556 169.263776,39.5506066 169.263776,39.2361111 C169.263776,38.9216156 169.516551,38.6666667 169.828365,38.6666667 C170.140179,38.6666667 170.392954,38.9216156 170.392954,39.2361111 C170.392954,39.5506066 170.140179,39.8055556 169.828365,39.8055556 Z M148.373984,29.5555556 C148.06217,29.5555556 147.809395,29.3006066 147.809395,28.9861111 C147.809395,28.6716156 148.06217,28.4166667 148.373984,28.4166667 C148.685798,28.4166667 148.938573,28.6716156 148.938573,28.9861111 C148.938573,29.3006066 148.685798,29.5555556 148.373984,29.5555556 Z M176.603433,62.5833333 C176.291619,62.5833333 176.038844,62.3283844 176.038844,62.0138889 C176.038844,61.6993934 176.291619,61.4444444 176.603433,61.4444444 C176.915247,61.4444444 177.168022,61.6993934 177.168022,62.0138889 C177.168022,62.3283844 176.915247,62.5833333 176.603433,62.5833333 Z M119.015357,71.6944444 C118.703543,71.6944444 118.450768,71.4394955 118.450768,71.125 C118.450768,70.8105045 118.703543,70.5555556 119.015357,70.5555556 C119.327171,70.5555556 119.579946,70.8105045 119.579946,71.125 C119.579946,71.4394955 119.327171,71.6944444 119.015357,71.6944444 Z M97.5609756,59.1666667 C97.2491617,59.1666667 96.9963866,58.9117177 96.9963866,58.5972222 C96.9963866,58.2827267 97.2491617,58.0277778 97.5609756,58.0277778 C97.8727895,58.0277778 98.1255646,58.2827267 98.1255646,58.5972222 C98.1255646,58.9117177 97.8727895,59.1666667 97.5609756,59.1666667 Z M179.990967,29.5555556 C179.679153,29.5555556 179.426378,29.3006066 179.426378,28.9861111 C179.426378,28.6716156 179.679153,28.4166667 179.990967,28.4166667 C180.30278,28.4166667 180.555556,28.6716156 180.555556,28.9861111 C180.555556,29.3006066 180.30278,29.5555556 179.990967,29.5555556 Z M107.723577,26.1388889 C107.411763,26.1388889 107.158988,25.8839399 107.158988,25.5694444 C107.158988,25.254949 107.411763,25 107.723577,25 C108.035391,25 108.288166,25.254949 108.288166,25.5694444 C108.288166,25.8839399 108.035391,26.1388889 107.723577,26.1388889 Z M42.2312556,27.2777778 C41.9194418,27.2777778 41.6666667,27.0228288 41.6666667,26.7083333 C41.6666667,26.3938379 41.9194418,26.1388889 42.2312556,26.1388889 C42.5430695,26.1388889 42.7958446,26.3938379 42.7958446,26.7083333 C42.7958446,27.0228288 42.5430695,27.2777778 42.2312556,27.2777778 Z" id="path-23"></path>
        <filter x="-6.5%" y="-15.8%" width="113.0%" height="131.6%" filterUnits="objectBoundingBox" id="filter-24">
            <feOffset dx="0" dy="0" in="SourceAlpha" result="shadowOffsetOuter1"></feOffset>
            <feGaussianBlur stdDeviation="3" in="shadowOffsetOuter1" result="shadowBlurOuter1"></feGaussianBlur>
            <feComposite in="shadowBlurOuter1" in2="SourceAlpha" operator="out" result="shadowBlurOuter1"></feComposite>
            <feColorMatrix values="0 0 0 0 1   0 0 0 0 1   0 0 0 0 1  0 0 0 0.5 0" type="matrix" in="shadowBlurOuter1"></feColorMatrix>
        </filter>
        <linearGradient x1="50%" y1="0%" x2="50%" y2="100%" id="linearGradient-25">
            <stop stop-color="#456CC9" stop-opacity="0.271852355" offset="0%"></stop>
            <stop stop-color="#6FB5FF" offset="100%"></stop>
        </linearGradient>
        <filter x="-43.7%" y="-18.7%" width="188.6%" height="138.1%" filterUnits="objectBoundingBox" id="filter-26">
            <feOffset dx="0" dy="0" in="SourceAlpha" result="shadowOffsetOuter1"></feOffset>
            <feGaussianBlur stdDeviation="8.5" in="shadowOffsetOuter1" result="shadowBlurOuter1"></feGaussianBlur>
            <feColorMatrix values="0 0 0 0 1   0 0 0 0 1   0 0 0 0 1  0 0 0 0.861497962 0" type="matrix" in="shadowBlurOuter1" result="shadowMatrixOuter1"></feColorMatrix>
            <feMerge>
                <feMergeNode in="shadowMatrixOuter1"></feMergeNode>
                <feMergeNode in="SourceGraphic"></feMergeNode>
            </feMerge>
        </filter>
    </defs>
    <g id="小哥抽签logo-圆" stroke="none" stroke-width="1" fill="none" fill-rule="evenodd">
        <g id="Group-3">
            <mask id="mask-2" fill="white">
                <use xlink:href="#path-1"></use>
            </mask>
            <use id="Mask" fill="#D8D8D8" xlink:href="#path-1"></use>
            <g mask="url(#mask-2)">
                <g transform="translate(-1.388889, 0.000000)">
                    <g id="Group-2">
                        <rect id="Rectangle-11" fill="url(#linearGradient-3)" x="1.38888889" y="0" width="200" height="200"></rect>
                        <rect id="Rectangle-11" fill="url(#linearGradient-4)" x="1.38888889" y="0" width="200" height="200"></rect>
                        <g id="Group" transform="translate(19.444444, 9.722222)">
                            <g id="Star">
                                <use fill="black" fill-opacity="1" filter="url(#filter-6)" xlink:href="#path-5"></use>
                                <use fill="#FFFABD" fill-rule="evenodd" xlink:href="#path-5"></use>
                            </g>
                            <g id="Star-Copy">
                                <use fill="black" fill-opacity="1" filter="url(#filter-8)" xlink:href="#path-7"></use>
                                <use fill="#FFFABD" fill-rule="evenodd" xlink:href="#path-7"></use>
                            </g>
                            <g id="Star-Copy-2">
                                <use fill="black" fill-opacity="1" filter="url(#filter-10)" xlink:href="#path-9"></use>
                                <use fill="#FFFABD" fill-rule="evenodd" xlink:href="#path-9"></use>
                            </g>
                            <g id="Star-Copy-3">
                                <use fill="black" fill-opacity="1" filter="url(#filter-12)" xlink:href="#path-11"></use>
                                <use fill="#FFFABD" fill-rule="evenodd" xlink:href="#path-11"></use>
                            </g>
                            <g id="Star-Copy-8" transform="translate(105.081619, 30.081619) rotate(34.000000) translate(-105.081619, -30.081619) ">
                                <use fill="black" fill-opacity="1" filter="url(#filter-14)" xlink:href="#path-13"></use>
                                <use fill="#FFF686" fill-rule="evenodd" xlink:href="#path-13"></use>
                            </g>
                            <g id="Star-Copy-4">
                                <use fill="black" fill-opacity="1" filter="url(#filter-16)" xlink:href="#path-15"></use>
                                <use fill="#FFFABD" fill-rule="evenodd" xlink:href="#path-15"></use>
                            </g>
                            <g id="Star-Copy-5">
                                <use fill="black" fill-opacity="1" filter="url(#filter-18)" xlink:href="#path-17"></use>
                                <use fill="#FFFABD" fill-rule="evenodd" xlink:href="#path-17"></use>
                            </g>
                            <g id="Star-Copy-6">
                                <use fill="black" fill-opacity="1" filter="url(#filter-20)" xlink:href="#path-19"></use>
                                <use fill="#FFFABD" fill-rule="evenodd" xlink:href="#path-19"></use>
                            </g>
                            <g id="Star-Copy-7">
                                <use fill="black" fill-opacity="1" filter="url(#filter-22)" xlink:href="#path-21"></use>
                                <use fill="#FFFABD" fill-rule="evenodd" xlink:href="#path-21"></use>
                            </g>
                        </g>
                        <path d="M52.0833333,9.72222222 C51.6998023,9.72222222 51.3888889,9.41130885 51.3888889,9.02777778 C51.3888889,8.6442467 51.6998023,8.33333333 52.0833333,8.33333333 C52.4668644,8.33333333 52.7777778,8.6442467 52.7777778,9.02777778 C52.7777778,9.41130885 52.4668644,9.72222222 52.0833333,9.72222222 Z M61.8055556,45.8333333 C61.4220245,45.8333333 61.1111111,45.52242 61.1111111,45.1388889 C61.1111111,44.7553578 61.4220245,44.4444444 61.8055556,44.4444444 C62.1890866,44.4444444 62.5,44.7553578 62.5,45.1388889 C62.5,45.52242 62.1890866,45.8333333 61.8055556,45.8333333 Z M106.25,38.8888889 C105.866469,38.8888889 105.555556,38.5779755 105.555556,38.1944444 C105.555556,37.8109134 105.866469,37.5 106.25,37.5 C106.633531,37.5 106.944444,37.8109134 106.944444,38.1944444 C106.944444,38.5779755 106.633531,38.8888889 106.25,38.8888889 Z M45.1388889,75 C44.7553578,75 44.4444444,74.6890866 44.4444444,74.3055556 C44.4444444,73.9220245 44.7553578,73.6111111 45.1388889,73.6111111 C45.52242,73.6111111 45.8333333,73.9220245 45.8333333,74.3055556 C45.8333333,74.6890866 45.52242,75 45.1388889,75 Z M14.5833333,27.7777778 C14.1998023,27.7777778 13.8888889,27.4668644 13.8888889,27.0833333 C13.8888889,26.6998023 14.1998023,26.3888889 14.5833333,26.3888889 C14.9668644,26.3888889 15.2777778,26.6998023 15.2777778,27.0833333 C15.2777778,27.4668644 14.9668644,27.7777778 14.5833333,27.7777778 Z M53.4722222,29.1666667 C53.0886911,29.1666667 52.7777778,28.8557533 52.7777778,28.4722222 C52.7777778,28.0886911 53.0886911,27.7777778 53.4722222,27.7777778 C53.8557533,27.7777778 54.1666667,28.0886911 54.1666667,28.4722222 C54.1666667,28.8557533 53.8557533,29.1666667 53.4722222,29.1666667 Z M15.9722222,58.3333333 C15.5886911,58.3333333 15.2777778,58.02242 15.2777778,57.6388889 C15.2777778,57.2553578 15.5886911,56.9444444 15.9722222,56.9444444 C16.3557533,56.9444444 16.6666667,57.2553578 16.6666667,57.6388889 C16.6666667,58.02242 16.3557533,58.3333333 15.9722222,58.3333333 Z M170.138889,23.6111111 C169.755358,23.6111111 169.444444,23.3001977 169.444444,22.9166667 C169.444444,22.5331356 169.755358,22.2222222 170.138889,22.2222222 C170.52242,22.2222222 170.833333,22.5331356 170.833333,22.9166667 C170.833333,23.3001977 170.52242,23.6111111 170.138889,23.6111111 Z M143.75,11.1111111 C143.366469,11.1111111 143.055556,10.8001977 143.055556,10.4166667 C143.055556,10.0331356 143.366469,9.72222222 143.75,9.72222222 C144.133531,9.72222222 144.444444,10.0331356 144.444444,10.4166667 C144.444444,10.8001977 144.133531,11.1111111 143.75,11.1111111 Z M178.472222,51.3888889 C178.088691,51.3888889 177.777778,51.0779755 177.777778,50.6944444 C177.777778,50.3109134 178.088691,50 178.472222,50 C178.855753,50 179.166667,50.3109134 179.166667,50.6944444 C179.166667,51.0779755 178.855753,51.3888889 178.472222,51.3888889 Z M107.638889,62.5 C107.255358,62.5 106.944444,62.1890866 106.944444,61.8055556 C106.944444,61.4220245 107.255358,61.1111111 107.638889,61.1111111 C108.02242,61.1111111 108.333333,61.4220245 108.333333,61.8055556 C108.333333,62.1890866 108.02242,62.5 107.638889,62.5 Z M81.25,47.2222222 C80.8664689,47.2222222 80.5555556,46.9113089 80.5555556,46.5277778 C80.5555556,46.1442467 80.8664689,45.8333333 81.25,45.8333333 C81.6335311,45.8333333 81.9444444,46.1442467 81.9444444,46.5277778 C81.9444444,46.9113089 81.6335311,47.2222222 81.25,47.2222222 Z M182.638889,11.1111111 C182.255358,11.1111111 181.944444,10.8001977 181.944444,10.4166667 C181.944444,10.0331356 182.255358,9.72222222 182.638889,9.72222222 C183.02242,9.72222222 183.333333,10.0331356 183.333333,10.4166667 C183.333333,10.8001977 183.02242,11.1111111 182.638889,11.1111111 Z M93.75,6.94444444 C93.3664689,6.94444444 93.0555556,6.63353108 93.0555556,6.25 C93.0555556,5.86646892 93.3664689,5.55555556 93.75,5.55555556 C94.1335311,5.55555556 94.4444444,5.86646892 94.4444444,6.25 C94.4444444,6.63353108 94.1335311,6.94444444 93.75,6.94444444 Z M13.1944444,8.33333333 C12.8109134,8.33333333 12.5,8.02241997 12.5,7.63888889 C12.5,7.25535781 12.8109134,6.94444444 13.1944444,6.94444444 C13.5779755,6.94444444 13.8888889,7.25535781 13.8888889,7.63888889 C13.8888889,8.02241997 13.5779755,8.33333333 13.1944444,8.33333333 Z" id="Combined-Shape" fill-opacity="0.235082654" fill="#FFFFFF"></path>
                        <path d="M45.1388889,81.9444444 C44.7553578,81.9444444 44.4444444,81.6335311 44.4444444,81.25 C44.4444444,80.8664689 44.7553578,80.5555556 45.1388889,80.5555556 C45.52242,80.5555556 45.8333333,80.8664689 45.8333333,81.25 C45.8333333,81.6335311 45.52242,81.9444444 45.1388889,81.9444444 Z M54.8611111,118.055556 C54.47758,118.055556 54.1666667,117.744642 54.1666667,117.361111 C54.1666667,116.97758 54.47758,116.666667 54.8611111,116.666667 C55.2446422,116.666667 55.5555556,116.97758 55.5555556,117.361111 C55.5555556,117.744642 55.2446422,118.055556 54.8611111,118.055556 Z M99.3055556,111.111111 C98.9220245,111.111111 98.6111111,110.800198 98.6111111,110.416667 C98.6111111,110.033136 98.9220245,109.722222 99.3055556,109.722222 C99.6890866,109.722222 100,110.033136 100,110.416667 C100,110.800198 99.6890866,111.111111 99.3055556,111.111111 Z M38.1944444,147.222222 C37.8109134,147.222222 37.5,146.911309 37.5,146.527778 C37.5,146.144247 37.8109134,145.833333 38.1944444,145.833333 C38.5779755,145.833333 38.8888889,146.144247 38.8888889,146.527778 C38.8888889,146.911309 38.5779755,147.222222 38.1944444,147.222222 Z M7.63888889,100 C7.25535781,100 6.94444444,99.6890866 6.94444444,99.3055556 C6.94444444,98.9220245 7.25535781,98.6111111 7.63888889,98.6111111 C8.02241997,98.6111111 8.33333333,98.9220245 8.33333333,99.3055556 C8.33333333,99.6890866 8.02241997,100 7.63888889,100 Z M46.5277778,101.388889 C46.1442467,101.388889 45.8333333,101.077976 45.8333333,100.694444 C45.8333333,100.310913 46.1442467,100 46.5277778,100 C46.9113089,100 47.2222222,100.310913 47.2222222,100.694444 C47.2222222,101.077976 46.9113089,101.388889 46.5277778,101.388889 Z M9.02777778,130.555556 C8.6442467,130.555556 8.33333333,130.244642 8.33333333,129.861111 C8.33333333,129.47758 8.6442467,129.166667 9.02777778,129.166667 C9.41130885,129.166667 9.72222222,129.47758 9.72222222,129.861111 C9.72222222,130.244642 9.41130885,130.555556 9.02777778,130.555556 Z M163.194444,95.8333333 C162.810913,95.8333333 162.5,95.52242 162.5,95.1388889 C162.5,94.7553578 162.810913,94.4444444 163.194444,94.4444444 C163.577976,94.4444444 163.888889,94.7553578 163.888889,95.1388889 C163.888889,95.52242 163.577976,95.8333333 163.194444,95.8333333 Z M136.805556,83.3333333 C136.422024,83.3333333 136.111111,83.02242 136.111111,82.6388889 C136.111111,82.2553578 136.422024,81.9444444 136.805556,81.9444444 C137.189087,81.9444444 137.5,82.2553578 137.5,82.6388889 C137.5,83.02242 137.189087,83.3333333 136.805556,83.3333333 Z M171.527778,123.611111 C171.144247,123.611111 170.833333,123.300198 170.833333,122.916667 C170.833333,122.533136 171.144247,122.222222 171.527778,122.222222 C171.911309,122.222222 172.222222,122.533136 172.222222,122.916667 C172.222222,123.300198 171.911309,123.611111 171.527778,123.611111 Z M100.694444,134.722222 C100.310913,134.722222 100,134.411309 100,134.027778 C100,133.644247 100.310913,133.333333 100.694444,133.333333 C101.077976,133.333333 101.388889,133.644247 101.388889,134.027778 C101.388889,134.411309 101.077976,134.722222 100.694444,134.722222 Z M74.3055556,119.444444 C73.9220245,119.444444 73.6111111,119.133531 73.6111111,118.75 C73.6111111,118.366469 73.9220245,118.055556 74.3055556,118.055556 C74.6890866,118.055556 75,118.366469 75,118.75 C75,119.133531 74.6890866,119.444444 74.3055556,119.444444 Z M175.694444,83.3333333 C175.310913,83.3333333 175,83.02242 175,82.6388889 C175,82.2553578 175.310913,81.9444444 175.694444,81.9444444 C176.077976,81.9444444 176.388889,82.2553578 176.388889,82.6388889 C176.388889,83.02242 176.077976,83.3333333 175.694444,83.3333333 Z M86.8055556,79.1666667 C86.4220245,79.1666667 86.1111111,78.8557533 86.1111111,78.4722222 C86.1111111,78.0886911 86.4220245,77.7777778 86.8055556,77.7777778 C87.1890866,77.7777778 87.5,78.0886911 87.5,78.4722222 C87.5,78.8557533 87.1890866,79.1666667 86.8055556,79.1666667 Z M6.25,80.5555556 C5.86646892,80.5555556 5.55555556,80.2446422 5.55555556,79.8611111 C5.55555556,79.47758 5.86646892,79.1666667 6.25,79.1666667 C6.63353108,79.1666667 6.94444444,79.47758 6.94444444,79.8611111 C6.94444444,80.2446422 6.63353108,80.5555556 6.25,80.5555556 Z" id="Combined-Shape-Copy" fill-opacity="0.235082654" fill="#FFFFFF"></path>
                        <g id="Combined-Shape-Copy-2">
                            <use fill="black" fill-opacity="1" filter="url(#filter-24)" xlink:href="#path-23"></use>
                            <use fill-opacity="0.799999952" fill="#FFFFFF" fill-rule="evenodd" xlink:href="#path-23"></use>
                        </g>
                        <rect id="Rectangle" fill="url(#linearGradient-25)" x="1.38888889" y="168.055556" width="200" height="31.9444444"></rect>
                        <rect id="Rectangle" fill="url(#linearGradient-25)" x="1.38888889" y="176.388889" width="200" height="23.6111111"></rect>
                        <path d="M5.04333433,170.247944 C16.4696014,169.978364 85.4883985,169.978364 212.099726,170.247944 L212.116107,171.63664 L48.1968618,175.504525 C147.722723,176.723871 198.14482,177.798115 199.463153,178.727255 C200.781485,179.656395 153.076257,180.496958 56.3474698,181.248946 C147.837661,182.292711 194.328828,183.140456 195.820969,183.79218 C197.313111,184.443904 153.920918,184.949701 65.6443919,185.309571 C157.005952,185.655407 202.153666,186.317341 201.087535,187.295372 C200.021404,188.273403 152.800495,189.513346 59.4248074,191.0152 C149.716808,192.075168 195.182853,192.986428 195.822941,193.748978 C196.463029,194.511528 153.070179,195.179909 65.6443919,195.754119 L203.113988,197.87776 L203.09205,199.266476 C87.771686,197.182637 25.8971373,195.742273 17.4684041,194.945382 C9.03967088,194.148492 49.4790611,193.56228 138.786575,193.186746 C47.5392608,193.237471 3.48914039,192.803091 6.63621361,191.883606 C9.78328684,190.964121 59.7169147,189.679508 156.437097,188.029767 C65.143488,186.403605 17.2838416,185.238977 12.8581577,184.535886 C8.43247384,183.832794 46.1908273,183.392668 126.133218,183.215505 C38.064115,183.235398 -3.51732807,182.779549 1.38888889,181.84796 C6.29510585,180.91637 56.7493795,179.687452 152.75171,178.161203 C55.2605816,177.919651 6.55541617,177.248994 6.63621361,176.149231 C6.71701106,175.049468 55.5819541,173.545335 153.231043,171.636833 C43.01297,170.980487 -6.38293275,170.517524 5.04333433,170.247944 Z" id="Path-24" fill-opacity="0.1" fill="#FFFFFF" fill-rule="nonzero"></path>
                        <polygon id="Path-47" fill="#00397D" points="1.04336663 199.878133 75.4099842 179.295799 92.9856707 199.878133"></polygon>
                        <path d="M1.38888889,164.81095 C5.8459961,162.683043 17.0455329,160.555699 34.9874993,158.428917 C52.9294657,156.302136 85.991609,159.973978 134.173929,169.444444 L101.388889,173.158228 L75.6232419,180.855438 L1.38888889,200 L1.38888889,164.81095 Z" id="Rectangle-2" fill="#235FA7"></path>
                        <path d="M93.4289341,200 C95.1477558,192.897069 97.8010741,187.804476 101.388889,184.722222 C104.976704,181.639968 115.90505,176.547375 134.173929,169.444444 C121.480046,170.134552 110.551699,171.37248 101.388889,173.158228 C92.2260785,174.943976 83.6375295,177.509712 75.6232419,180.855438 C78.3856222,186.173234 80.8844844,190.033846 83.1198286,192.437273 C85.3551728,194.840701 88.7915413,197.36161 93.4289341,200 Z" id="Rectangle-2" fill="#1B095F"></path>
                    </g>
                    <g id="人物" filter="url(#filter-26)" transform="translate(55.555556, 36.111111)">
                        <g>
                            <polygon id="Path" fill="#FFBBBB" points="20.5477743 128.782766 20.5477743 131.81511 18.1598066 132.214553 18.3400161 128.616085"></polygon>
                            <path d="M17.8571429,130.437316 C19.8538737,129.858339 21.8943334,130.000107 23.978522,130.862621 C26.0627106,131.725135 27.5059949,132.78209 28.308375,134.033487 L17.8571429,134.033487 L17.8571429,130.437316 Z" id="Path-8-Copy-2" fill="#FFFFFF"></path>
                            <path d="M8.33333333,74.7063491 L29.5757904,73.4759095 L21.3215581,129.167737 L17.6616284,129.167737 C14.8164266,121.681588 13.0571375,116.037045 12.3837611,112.234107 C11.7103846,108.431169 10.360242,95.9219162 8.33333333,74.7063491 Z" id="Path-46-Copy" fill="#FFFFFF"></path>
                            <polygon id="Path-7-Copy" fill="#FFBBBB" points="15.3587752 128.883972 15.7015996 132.554977 19.006161 132.186929 19.006161 128.883972"></polygon>
                            <path d="M4.76190476,74.7063491 L26.0043618,73.4759095 L19.2664769,129.592001 L14.4803657,129.592001 C11.3750534,121.82301 9.48570896,116.037045 8.8123325,112.234107 C8.13895604,108.431169 6.78881346,95.9219162 4.76190476,74.7063491 Z" id="Path-46" fill="#FFFFFF"></path>
                            <polygon id="Path-40" fill="#FFBBBB" points="21.9615322 5.30801752 16.6666667 6.5150384 9.04761905 9.70775187 9.95853271 13.0630321 13.6303837 18.1296723 9.95853271 25.0540806 17.7280566 24.1796673 18.6988155 17.5117612 22.6871558 17.5117612 22.6871558 14.4735063 24.2857143 13.0630321 20.3520404 7.13927077"></polygon>
                            <path d="M22.3445467,4.29629474 C22.1190518,3.23902382 20.6391021,1.80692557 17.9046977,0 C17.7279938,1.3541133 17.2477916,2.41927725 16.4640909,3.19549185 C15.28854,4.35981376 10.1232218,4.74005089 8.43396282,8.88296924 C7.30779015,11.6449148 8.98979355,14.7868421 13.479973,18.3087512 L14.2973731,16.1570989 C12.6871924,14.9318978 12.0768386,14.0024995 12.4663115,13.3689042 C12.6116767,13.1324236 13.2220306,13.1324236 14.2973731,13.3689042 C14.2973731,12.6814031 14.2973731,11.8354636 14.2973731,10.8310855 C14.2973731,9.82670749 16.1577297,8.8047108 19.8784431,7.76509546 C21.7480072,6.50983257 22.5700417,5.35356567 22.3445467,4.29629474 Z" id="Path-40" fill="#000000"></path>
                            <path d="M48.1070379,43.6389585 C48.6647015,43.1587479 49.2061755,42.7749578 49.7314599,42.4875883 C50.185745,42.2390606 54.5442547,41.9175091 55.6412683,40.8389395 C57.3458417,39.163025 56.9985539,37.9011297 57.4552235,36.5619526 C57.9118931,35.2227756 58.4650247,32.7039535 57.4552235,32.7039535 C56.4454223,32.7039535 55.3473342,37.393305 53.7981603,37.393305 C52.2489865,37.393305 54.5042468,34.1265992 54.0921162,33.7700388 C53.6799857,33.4134783 50.8904465,35.3419181 50.0592333,36.3510617 C49.5050911,37.0238241 48.5692316,38.8397115 47.2516548,41.7987239 L48.1070379,43.6389585 Z" id="Path-41" fill="#FFBBBB"></path>
                            <path d="M47.3542811,41.5886762 C47.3842482,41.6846139 47.9458779,42.3892651 48.3333333,43.6257165 C47.6874201,46.5191614 45.4066263,51.6421548 42.9858567,53.0786084 C41.3720104,54.0362441 38.713181,55.093724 35.0093686,56.251048 C38.5031392,65.0997634 40.4081965,70.0571325 40.7245405,71.1231554 C41.8938882,75.063649 5.26816758,78.0463691 1.09341736,76.804181 C-0.379415635,76.3659426 -1.25922451,54.068243 4.53963939,36.6967887 C5.54392266,33.6882923 7.92330337,28.8437712 11.6777815,22.1632252 C12.8262021,23.013307 13.9454624,23.5239492 15.0355622,23.6951519 C16.125662,23.8663545 17.1324606,23.6834473 18.0559579,23.1464304 C18.7018328,24.4997768 21.9073837,27.4389543 24.0551133,31.2946636 C29.0586591,40.2772744 31.2401172,45.7841324 32.0065112,46.268414 C33.1018734,46.9605692 47.3093304,41.4447697 47.3542811,41.5886762 Z" id="Combined-Shape" fill="#FFFFFF"></path>
                            <path d="M15.4761905,131.641839 C17.4729213,131.062862 19.5133811,131.20463 21.5975697,132.067144 C23.6817582,132.929658 25.1250426,133.986613 25.9274226,135.23801 L15.4761905,135.23801 L15.4761905,131.641839 Z" id="Path-8-Copy" fill="#FFFFFF"></path>
                        </g>
                    </g>
                </g>
            </g>
        </g>
    </g>
</svg>