<svg width="269" height="18" xmlns="http://www.w3.org/2000/svg"><path d="M5.344 1.59l2.918-.281-.457 1.37c-.164.493-.492 1.102-.985 1.829-.492.726-1.324 1.582-2.496 2.566 2.063-.82 3.903-1.242 5.52-1.265 1.617 0 2.7.439 3.252 1.318.55.879.902 1.658 1.054 2.338s.135 1.43-.052 2.25c-.188.726-.592 1.506-1.213 2.338-.621.832-1.846 1.693-3.674 2.584l-1.266-2.285c.938-.399 1.77-.862 2.496-1.39.727-.526 1.102-1.2 1.125-2.02.024-.82-.07-1.407-.28-1.758-.212-.352-.481-.592-.81-.721s-.808-.17-1.44-.123c-.071.586-.212 1.465-.423 2.637-.21 1.171-.925 2.244-2.144 3.216a22.477 22.477 0 0 1-3.832 2.479L1.336 14.07c2.273-.82 3.639-1.658 4.096-2.513.457-.856.72-1.553.79-2.092l.071-.528c-.656.258-1.29.516-1.898.774l-.81-1.934a5.696 5.696 0 0 1-1.089.809L.773 6.37C2.11 5.785 3.135 5.053 3.85 4.174c.714-.88 1.142-1.53 1.283-1.951l.21-.633zm11.918 4.64L15.75 8.691c-1.664-1.007-2.871-1.91-3.621-2.707-.75-.797-1.348-1.564-1.793-2.302-.445-.739-.879-1.635-1.3-2.69l2.847-.246c.281.867.709 1.734 1.283 2.602.574.867 1.94 1.828 4.096 2.882zm4.746-1.828c-.164.047-.498.118-1.002.211-.504.094-.92.176-1.248.246l-.492-2.18a43.47 43.47 0 0 0 1.793-.245l2.53-.282 1.407-.175c.047.304.152.585.317.843.164.258.474.516.931.774.457.258.926.246 1.406-.035.48-.282.78-.54.897-.774.117-.234.2-.562.246-.984 3.21-.024 5.144-.035 5.8-.035l-.316 2.004a243.133 243.133 0 0 0-6.715.017 28.26 28.26 0 0 0-5.062.545l1.512.598c1.898-.493 3.527-.762 4.886-.809 2.555-.07 3.838.358 3.85 1.283.012.926-.135 1.565-.44 1.916-.304.352-.872.662-1.704.932-.833.27-1.905.38-3.217.334a10.911 10.911 0 0 1-3.446-.633l-1.757.879c-.235-.328-.487-.797-.756-1.406-.27-.61-.135-1.488.404-2.637l.176-.387zm2.004 3.13l.984-.95c.89.211 1.852.305 2.883.281.937 0 1.547-.07 1.828-.21.281-.141.428-.264.44-.37.011-.105-.124-.205-.405-.299a3.245 3.245 0 0 0-1.02-.14c-.773.047-2.214.27-4.324.668l-.527-.844c-.047.14-.082.264-.105.37-.024.105-.03.257-.018.456.012.2.1.545.264 1.037zm3.058-4.29a1.39 1.39 0 0 1-1.16-.404 1.473 1.473 0 0 1-.474-1.143c.011-.445.158-.814.439-1.107.281-.293.645-.44 1.09-.44.375.024.697.159.967.405.27.246.44.55.51.914.07.363-.012.738-.247 1.125s-.61.603-1.125.65zm-.175-.351c.703-.118 1.066-.428 1.09-.932.023-.504-.083-.861-.317-1.072C27.434.676 27.211.6 27 .658c-.21.059-.322.153-.334.281a.467.467 0 0 0 .088.334c.023.094.094.2.21.317.118.117.194.21.23.281.035.07.052.188.052.352-.023.21-.1.38-.228.51-.13.128-.17.181-.123.158zm3.058 9.07c2.203-.047 3.797-.07 4.781-.07L34.312 14c-2.789-.023-4.687-.023-5.695 0 .024.234.041.492.053.773.012.282-.117.633-.387 1.055-.27.422-.908.902-1.916 1.442l-1.406-2.04c.516-.21.844-.38.984-.51.14-.128.217-.222.229-.28.012-.06-.006-.17-.053-.335-1.523.118-3.656.446-6.398.985l-.633-2.04c1.476-.28 3.539-.573 6.187-.878l-.422-.457 2.004-.88c.258.212.528.481.809.81.164-.118.293-.223.387-.317l.562-.527c.54-.446.34-.569-.597-.37-.938.2-2.543.64-4.817 1.319l-.738-1.793c2.484-.82 4.547-1.242 6.187-1.266.891 0 1.588.13 2.092.387.504.258.768.54.791.844a1.34 1.34 0 0 1-.21.844c-.235.328-.692.726-1.372 1.195zm13.36-6.54c.773-.632 1.388-1.282 1.845-1.95.457-.668.78-1.283.967-1.846L46.477.57l2.46.528-.21.843c1.125 1.618 2.66 2.66 4.605 3.13l-.914 2.425a7.417 7.417 0 0 1-2.004-.914l-.105 1.582c-1.946.234-3.704.54-5.274.914l-.387-1.617-.668.492-1.23-1.441c-.14.187-.416.55-.826 1.09-.41.539-.692.92-.844 1.142-.152.223-.246.422-.281.598-.035.176-.018.31.053.404.07.094.386.018.949-.228a9.05 9.05 0 0 0 1.37-.721l.142 2.355c-.657.352-1.471.686-2.444 1.002-.973.317-1.67.434-2.092.352-.422-.082-.732-.276-.931-.58-.2-.305-.246-.727-.14-1.266.105-.539.58-1.488 1.423-2.848-.54.235-.961.334-1.266.3-.304-.036-.527-.141-.668-.317-.14-.176-.216-.475-.228-.897-.012-.421.152-1.101.492-2.039.34-.937 1.225-2.367 2.654-4.289l1.793 1.336c-.422.54-.855 1.125-1.3 1.758-.446.633-.704 1.025-.774 1.178a4.25 4.25 0 0 0-.21.597c-.071.247-.024.434.14.563.164.129.445-.03.843-.475.399-.468.75-.902 1.055-1.3l1.653 1.195zm2.109 1.372c1.055-.234 2.437-.469 4.148-.703-.562-.399-.867-.645-.914-.738l-1.054-1.266c-.657 1.031-1.102 1.652-1.336 1.863l-.844.844zm1.3 8.332l-1.687 1.195a7.414 7.414 0 0 1-.58-.861c-.152-.27-.305-.662-.457-1.178a5.633 5.633 0 0 1-.246-1.441c-.012-.445.041-.973.158-1.582.117-.61.34-1.278.668-2.004l1.758.703c1.102-.586 2.098-.89 2.988-.914.844 0 1.506.287 1.987.861.48.575.709 1.295.685 2.162-.047 1.149-.498 2.133-1.353 2.954-.856.82-2.198 1.253-4.026 1.3l.106-1.195zm.176-1.09c1.102-.047 1.84-.275 2.215-.685.375-.41.563-.803.563-1.178-.024-.469-.258-.727-.703-.774-.188 0-.504.082-.95.247-.445.164-.808.34-1.09.527l-.562-.879c-.07.281-.129.557-.176.826-.047.27-.058.598-.035.985.024.386.106.708.246.966l.352.844.14-.879zm-3.656-2.039l.563 2.215c-1.383.656-2.35 1.096-2.9 1.318-.551.223-1.624.498-3.218.826l-.527-2.46c.867 0 1.87-.17 3.006-.51a12.073 12.073 0 0 0 3.076-1.389zm16.77-5.062c.586-.844 1.02-1.547 1.3-2.11.282-.562.504-1.119.668-1.67.165-.55.352-1.353.563-2.408l2.602.527a30.805 30.805 0 0 0-.598 2.004c1.992-.562 3.164-.855 3.516-.879.421 0 .92.118 1.494.352.574.234.879.645.914 1.23.035.586.017 1.067-.053 1.442l-.352 1.16-.21.703-2.426-.597c.093-.235.199-.51.316-.827.117-.316.1-.55-.053-.703-.152-.152-1.025.041-2.619.58l-1.09.633-.386-.492c-.516 1.008-.832 1.605-.95 1.793l-.492.703-2.144-1.441zm4.394.175l2.32-.914.264 1.53c.059.34.135.96.229 1.863.094.902.158 1.564.193 1.986.035.422.047.967.035 1.635-.011.668-.252 1.342-.72 2.021-.47.68-1.57 1.16-3.305 1.442l-.598-2.426c.656-.094 1.108-.2 1.354-.316.246-.118.445-.346.597-.686.153-.34.217-.943.194-1.81l-.035-.704c-.07-.937-.246-2.144-.528-3.62zm5.309 1.055c.422-.023.826.135 1.213.475.386.34.568.814.545 1.424a1.92 1.92 0 0 1-.545 1.16 1.53 1.53 0 0 1-1.143.492 1.438 1.438 0 0 1-.984-.281c-.281-.211-.48-.416-.598-.616-.117-.199-.187-.468-.21-.808-.024-.34.093-.72.35-1.143.259-.422.716-.656 1.372-.703zm-.035 3.2c.445.046.785-.1 1.02-.44.234-.34.35-.674.35-1.002-.023-.399-.157-.71-.404-.932-.246-.222-.468-.34-.667-.351a.474.474 0 0 0-.458.228.5.5 0 0 0-.052.492c.023.094.105.24.246.44l.299.422a.565.565 0 0 1 .088.334c-.024.187-.106.369-.247.545-.14.175-.199.263-.175.263zM62.19 9.077c.422-.023.827.135 1.213.475.387.34.569.814.545 1.424a1.92 1.92 0 0 1-.545 1.16 1.53 1.53 0 0 1-1.142.492 1.438 1.438 0 0 1-.985-.281c-.28-.211-.48-.416-.597-.616-.118-.199-.188-.468-.211-.808-.024-.34.093-.72.351-1.143.258-.422.715-.656 1.371-.703zm-.035 3.2c.117.023.27.023.457 0 .188-.024.387-.188.598-.493.21-.305.31-.639.299-1.002-.012-.363-.194-.709-.545-1.037-.352-.328-.621-.363-.809-.105-.187.257-.258.468-.21.632 0 .094.105.282.316.563.21.281.328.492.351.633 0 .187-.082.369-.246.545-.164.175-.234.263-.21.263zm-7.875-5.204c1.149-1.078 2.033-2.092 2.655-3.04.62-.95.99-1.682 1.107-2.198l.352-1.3 2.566.07c-.117.398-.281.931-.492 1.6s-.75 1.704-1.617 3.11l1.125.493c-.211.586-.41 1.218-.598 1.898-.188.68-.299 1.705-.334 3.076-.035 1.371.088 2.455.37 3.252l.526 1.828-2.18.914a13.969 13.969 0 0 1-.702-1.705c-.164-.504-.293-1.224-.387-2.162-.094-.937-.135-1.676-.123-2.215.012-.539.064-1.054.158-1.547l.176-1.16-1.02.985-1.582-1.899zM74.426 3.63l1.898 1.09-.281.703c.375-.305.873-.668 1.494-1.09.621-.422 1.225-.469 1.81-.14.587.328.926.597 1.02.808l.457.984c.352-.375.65-.726.897-1.054.246-.328.463-.75.65-1.266a9.098 9.098 0 0 0 .422-1.617l.14-.985 2.602.106c-.328 1.336-.574 2.191-.738 2.566l-.352.774c.844-.422 1.489-.633 1.934-.633 1.312.07 2.039.814 2.18 2.232.14 1.418.199 2.455.175 3.112-.046.68-.123 1.33-.228 1.95-.106.622-.393 1.466-.861 2.532-.47 1.067-1.91 1.986-4.325 2.76L82.547 14c1.5-.328 2.473-.826 2.918-1.494.445-.668.709-1.248.79-1.74.083-.493.124-1.078.124-1.758l-.088-1.442c-.035-.562-.334-.855-.896-.879-.235 0-.645.223-1.23.668l-.528-1.23c-.563.867-1.16 1.582-1.793 2.145l-.774-1.512c.024.656.047 1.324.07 2.004.024.68-.029 1.435-.158 2.267a7.806 7.806 0 0 1-.755 2.356c-.375.738-.838 1.318-1.39 1.74-.55.422-1.353.691-2.407.809l.386-2.356c.61-.117 1.061-.428 1.354-.932.293-.503.475-1.001.545-1.494l.105-.703c-.773.094-1.324.2-1.652.317-.328.117-.809.386-1.441.808.023.328.046.61.07.844.023.234.07.469.14.703.07.234.258.668.563 1.3l-1.898 1.513c-.352-.727-.598-1.301-.739-1.723-.14-.422-.275-1.008-.404-1.758s-.2-1.693-.211-2.83c-.012-1.137.059-2.15.211-3.041.152-.89.475-1.875.967-2.953zm1.195 5.73c.984-.492 2.086-.855 3.305-1.09l-.07-.703c-.024-.234-.135-.503-.335-.808-.199-.305-.474-.34-.826-.106a7.27 7.27 0 0 0-1.09.914l-.632-.984c-.141.375-.24.703-.3.984a3.315 3.315 0 0 0-.052.914v.88zM76.887.57c.422-.023.826.135 1.213.475.386.34.562.78.527 1.318-.035.54-.205.973-.51 1.301-.305.328-.691.48-1.16.457-.352 0-.674-.1-.967-.299-.293-.199-.498-.398-.615-.597-.117-.2-.188-.47-.21-.809-.024-.34.093-.72.35-1.143.258-.421.715-.656 1.372-.703zm-.035 3.2c.117.023.27.023.457 0 .187-.024.386-.176.597-.458.211-.28.31-.615.3-1.001-.013-.387-.194-.745-.546-1.073-.351-.328-.627-.363-.826-.105-.2.258-.264.469-.193.633 0 .093.111.263.334.51.222.245.334.474.334.685-.024.187-.112.37-.264.545-.152.176-.217.264-.193.264zm6.714 4.78c.422-.023.832.136 1.23.475.4.34.575.827.528 1.46a1.844 1.844 0 0 1-.545 1.142 1.558 1.558 0 0 1-1.142.475 1.503 1.503 0 0 1-1.002-.282c-.293-.21-.492-.422-.598-.633-.105-.21-.17-.486-.193-.826-.024-.34.093-.715.351-1.125.258-.41.715-.638 1.371-.685zm-.035 3.165c.117.023.27.023.457 0 .188-.024.387-.17.598-.44.21-.27.31-.609.299-1.02-.012-.41-.194-.76-.545-1.054-.352-.293-.621-.322-.809-.088-.187.235-.258.434-.21.598a.613.613 0 0 0 .175.316l.352.422c.093.164.14.317.14.457-.023.188-.111.37-.263.545-.153.176-.217.264-.194.264zm23.485-4.676l-.246 2.531c-1.266.024-2.157.059-2.672.106.023.562.04 1.043.052 1.441.012.399 0 .762-.035 1.09a5.775 5.775 0 0 1-.263 1.143c-.141.433-.44.996-.897 1.687-.457.692-1.4 1.201-2.83 1.53l-.738-2.356c.68-.258 1.16-.498 1.441-.72.281-.223.504-.487.668-.792.164-.304.264-.633.299-.984.035-.352.04-.645.017-.88l-.07-.667c-.305.117-.685.258-1.142.422-.457.164-.955.363-1.495.598l-.738-2.461c.89-.329 1.828-.657 2.813-.985-.47-.844-.75-1.324-.844-1.441l-.281-.281 1.828-1.547c.164.257.351.504.562.738.868-.844 1.301-1.36 1.301-1.547a.692.692 0 0 0-.176-.246c-.093-.094-.234-.152-.422-.176-.68-.023-1.875.48-3.585 1.512l-1.02-1.899c1.36-1.101 2.848-1.675 4.465-1.722.867 0 1.576.187 2.127.562.55.375.861.832.931 1.371.07.54-.011 1.043-.246 1.512-.28.563-1.09 1.395-2.425 2.496l.14.211c1.242-.117 2.402-.2 3.48-.246zm-10.09-5.45c-.75 1.22-1.137 1.876-1.16 1.97l-.317.738c.75 0 1.371.164 1.864.492.492.328.75 1.014.773 2.057.023 1.043-.035 1.933-.176 2.672-.14.738-.363 1.482-.668 2.232.446.328.961.61 1.547.844l-1.02 2.215a112.85 112.85 0 0 1-1.722-.985c-1.336 1.383-2.156 2.156-2.461 2.32l-1.09.669-1.371-2.25c1.078-.563 1.723-.95 1.934-1.16l.879-.88c-.938-.867-1.495-1.459-1.67-1.775-.176-.316-.282-.715-.317-1.195-.035-.48.006-.908.123-1.283l.246-.985-.879.422-.668-2.285c.75-.328 1.454-.563 2.11-.703.281-.75.527-1.377.738-1.881.211-.504.574-1.225 1.09-2.162l2.215.914zm-1.617 8.86c.187-.539.316-.972.386-1.3.07-.329.118-.715.14-1.16.024-.446 0-.75-.07-.915-.21-.351-.574-.48-1.09-.387-.093.282-.175.545-.245.792-.07.246-.13.492-.176.738a2.431 2.431 0 0 0-.018.773c.035.27.123.51.264.72.14.212.41.458.809.74zm20.39-3.234c1.805-.703 3.363-1.067 4.676-1.09 1.477 0 2.314.31 2.514.932.199.62.205 1.236.017 1.845a7.292 7.292 0 0 1-.615 1.407c-.223.375-.803 1.195-1.74 2.46.726.633 2.039 1.184 3.937 1.653l-1.195 2.672a17.434 17.434 0 0 1-1.969-.615c-.726-.27-1.734-.944-3.023-2.022-.844.61-1.53 1.072-2.057 1.389-.527.316-1.412.709-2.654 1.177l-.95-2.496c1.196-.375 2.051-.685 2.567-.931a9.856 9.856 0 0 0 1.547-.932c-.14-.234-.293-.486-.457-.756-.164-.27-.258-.451-.281-.545l-.387-.843-.246-.458-.844.317a75.312 75.312 0 0 1-1.53 2.883c-.386.68-1.06 1.57-2.02 2.672l-2.11-1.97c.422-.374.92-.86 1.494-1.458s1.125-1.535 1.652-2.813a36.323 36.323 0 0 0 1.354-3.884 58.3 58.3 0 0 0-3.621.949l-.774-2.567c.352-.07 1.09-.234 2.215-.492 1.125-.258 2.04-.433 2.742-.527.094-.399.164-.715.211-.95l.176-1.335.106-.668 2.707.386c-.094.633-.211 1.372-.352 2.215a75.71 75.71 0 0 1 8.297-.457l-.387 2.496c-2.93 0-5.765.176-8.508.528l-.492 1.828zm3.094 3.656c.539-.516.896-.996 1.072-1.441.176-.446.24-.768.194-.967-.047-.2-.364-.193-.95.017l-1.125.317-.386.14c.468.891.867 1.536 1.195 1.934zm16.137.211c0 .281-.006.72-.018 1.318-.012.598-.1 1.26-.264 1.987-.164.726-.462 1.254-.896 1.582-.434.328-1.002.574-1.705.738l-.352-2.11c.703-.234 1.055-.55 1.055-.949l.14-1.335c-.234 0-.433.011-.597.035-.094.492-.176.996-.246 1.511l-1.442.106c.07-.445.165-.89.282-1.336a5.172 5.172 0 0 1-.563.21l-.316 1.425c-.117.527-.399 1.248-.844 2.162l-2.144-1.23c.21-.329.375-.61.492-.844.117-.235.252-.598.404-1.09.152-.492.27-.985.352-1.477s.128-1.096.14-1.81a13.065 13.065 0 0 0-.088-1.881l-.14-.914-.317.28-1.125-2.108c1.032-.868 1.723-1.664 2.074-2.391.352-.727.657-1.57.915-2.531l2.25.703c-.188.422-.364.844-.528 1.265 1.078-.562 1.817-.673 2.215-.334.399.34.592.733.58 1.178-.012.446-.181 1.078-.51 1.899.516.21.856.586 1.02 1.125.164.539.246 1.136.246 1.793l-.035 1.898v.457l-.035.457c.492-.797.738-1.465.738-2.004v-.844l1.969-.14c-.094.469-.176.89-.246 1.265l1.054-.28c.14-.516.364-1.161.668-1.934l1.899.878-.352.704 1.828-.141-.281 1.934c-.727.07-1.371.093-1.934.07-.023.281-.058.55-.105.808.539-.046 1.512-.152 2.918-.316l-.281 2.18c-.352.023-.791.047-1.319.07-.527.024-.908.035-1.142.035.21.961.386 1.582.527 1.864l.492 1.16-2.144.984c-.352-.844-.586-1.488-.703-1.934-.118-.445-.211-.89-.282-1.335-.68.304-1.312.62-1.898.949l-1.09-1.793c1.383-.656 2.32-1.055 2.813-1.196 0-.375.011-.632.035-.773l.035-.246-1.16.246a3.318 3.318 0 0 1-.492.95l-1.547-.95zm-6.223-4.465l1.477-.773.14.562c.422-.422.961-.82 1.617-1.195l.159-.475c.035-.105.058-.187.07-.246.012-.058-.006-.117-.053-.176-.047-.058-.146-.082-.299-.07-.152.012-.322.1-.51.264l-.386.387-.422.386-.281-.597a37.354 37.354 0 0 1-1.512 1.933zm1.758 4.781c.21-.07.433-.152.668-.246l.105-.738c-.258.117-.504.234-.738.352v.21l-.035.422zm.07-2.25c.281-.093.54-.199.774-.316v-.316l-.036-.387-.351.281-.527-.95c.046.54.082.868.105.985l.035.703zm1.899 1.688l.632-.07v-.07l.036-.071v-.633c-.211 0-.422.024-.633.07v.493l-.035.28zm.07-2.39l.492-.036c.024-.68-.164-.996-.562-.95 0 .376.023.704.07.985zm6.61-5.38c-.071.352-.188.885-.352 1.6-.164.715-.727 1.693-1.688 2.936l-1.617-1.407c.633-.703 1.031-1.324 1.195-1.863l.211-.668-1.16.457-.808-2.039c2.343-.867 4.16-1.3 5.449-1.3 1.078.023 1.77.286 2.074.79.305.504.48 1.008.527 1.512.047.504-.093 1.143-.422 1.916-.304.656-.832 1.465-1.582 2.426l-1.757-1.02a7.138 7.138 0 0 0 1.107-1.476c.27-.493.41-.89.422-1.196.012-.304-.065-.515-.229-.632-.164-.118-.62-.13-1.37-.036zm5.484 3.164c.632-.89 1.119-1.722 1.459-2.496.34-.773.568-1.488.685-2.144l.211-1.16 2.285.668c-.117.515-.199.82-.246.914l-.246.597a20.526 20.526 0 0 1 2.496-.703l-.105 2.25c-1.383.235-2.438.446-3.164.633-.188.399-.375.785-.563 1.16.75-.281 2.086-.633 4.008-1.054l-.176 2.109c-.586.117-1.16.223-1.722.316l.843.246-.316.809c.562-.07 1.148-.14 1.758-.21l-.176 2.25c-.797.022-1.512.058-2.145.105-.093.398-.17.773-.228 1.125a7.376 7.376 0 0 1-.176.826c-.059.199-.07.398-.035.597.035.2.105.317.21.352.106.035.23 0 .37-.106s.633-.45 1.477-1.037l.773 1.934c-1.781 1.383-3.012 2.027-3.691 1.934-.68-.07-1.108-.405-1.284-1.002-.175-.598-.252-1.096-.228-1.495 0-.375.047-.867.14-1.476l.176-1.16c-.539.234-1.09.445-1.652.633l-.457-2.145c.797-.234 1.652-.48 2.566-.738l.352-1.02c-.656.235-1.266.469-1.828.703l-.668-1.863-.703-.352zm6.68 8.508c1.359-.398 2.355-.914 2.988-1.547.632-.632.949-1.898.949-3.796v-.668l2.285-.457c-.023.468-.047.89-.07 1.265-.024.375-.112 1.108-.264 2.197a6.392 6.392 0 0 1-1.16 2.918c-.621.856-1.928 1.612-3.92 2.268l-.809-2.18zm3.234-8.93l.808-.456a13.901 13.901 0 0 1-.21-.967 6.363 6.363 0 0 1-.089-.826 14.194 14.194 0 0 1 0-1.002c.012-.387.077-.803.194-1.248l.246-1.16 2.144.386a6.47 6.47 0 0 0-.228.738c-.035.165-.082.393-.14.686-.06.293-.1.61-.124.95-.023.339.024.708.14 1.107l.142.597c.984-.281 1.734-.217 2.25.194.515.41.826.867.931 1.37.106.505.135 1.214.088 2.128a19.88 19.88 0 0 1-.281 2.53c-.14.774-.41 1.606-.809 2.497l-2.039-1.125c.399-1.008.633-1.77.703-2.285.07-.516.117-1.12.14-1.81.024-.692-.064-1.108-.263-1.249-.199-.14-.486-.158-.861-.052-.375.105-1.184.521-2.426 1.248l-.492-.88c-.07.493-.117.92-.14 1.284-.024.363-.007.78.052 1.248.059.469.217 1.184.475 2.144l-1.97 1.23a16.67 16.67 0 0 1-.35-1.106 9.925 9.925 0 0 1-.247-1.336c-.07-.551-.111-1.026-.123-1.424-.012-.399.047-1.031.176-1.899.129-.867.228-1.382.299-1.547l.281-.808 1.723.844zm4.43 7.524c.421-.023.826.129 1.212.457.387.328.563.762.528 1.3-.036.54-.205.973-.51 1.302-.305.328-.692.48-1.16.457-.352 0-.674-.1-.967-.3-.293-.198-.498-.398-.615-.597-.118-.199-.188-.469-.211-.808-.024-.34.093-.715.351-1.125.258-.41.715-.64 1.371-.686zm-.036 3.129c.117.023.27.023.457 0 .188-.023.387-.17.598-.44.21-.269.31-.609.299-1.019-.012-.41-.194-.756-.545-1.037-.352-.281-.627-.31-.826-.088-.2.223-.264.416-.194.58 0 .094.112.264.334.51.223.246.334.474.334.685-.023.188-.111.37-.263.545-.153.176-.217.264-.194.264zm.317-12.27a1.39 1.39 0 0 1-1.16-.404 1.493 1.493 0 0 1-.475-1.16c.012-.457.158-.826.44-1.107.28-.282.644-.422 1.09-.422.374.023.696.158.966.404.27.246.44.55.51.914.07.363-.012.738-.246 1.125-.235.387-.61.604-1.125.65zm-.176-.351c.703-.117 1.066-.422 1.09-.914.023-.492-.082-.85-.317-1.072-.234-.223-.457-.305-.668-.247-.21.059-.322.147-.334.264a.437.437 0 0 0 .088.316c.047.141.106.235.176.282l.246.281c.047.117.07.258.07.422-.023.21-.1.38-.228.51-.129.129-.17.181-.123.158zm-5.766.597a1.442 1.442 0 0 1-1.16-.369c-.328-.293-.486-.673-.475-1.142.012-.469.159-.844.44-1.125s.644-.422 1.09-.422c.375.023.697.158.967.404.27.246.439.551.51.914.07.364-.007.733-.23 1.108-.222.375-.603.586-1.142.632zm-.176-.351c.282 0 .54-.1.774-.299.234-.2.357-.469.369-.808a1.037 1.037 0 0 0-.352-.844c-.246-.223-.462-.305-.65-.246-.187.058-.293.146-.316.263a.48.48 0 0 0 .035.317c.023.117.094.24.21.369.118.129.2.228.247.299.047.07.07.175.07.316-.023.235-.105.404-.246.51-.14.105-.187.146-.14.123zm10.442 10.23c1.687-.351 2.824-.773 3.41-1.265.586-.492.89-.95.914-1.371l.07-.703c-1.5.351-2.52.632-3.058.843l-.914-2.18c3.562-.773 6.252-1.242 8.068-1.406a87.24 87.24 0 0 1 5.889-.316l-.317 2.11c-1.43.046-2.988.093-4.675.14l1.265.352c-.281.68-.474 1.183-.58 1.511-.105.328-.193.68-.264 1.055-.07.375-.046.644.07.809.141.257.505.398 1.09.421.563.047.985.006 1.266-.123a.903.903 0 0 0 .528-.65l.21-.809 2.32.739c-.304.89-.585 1.511-.843 1.863-.258.352-.633.615-1.125.791s-1.183.264-2.074.264c-.985.023-1.752-.082-2.303-.317-.55-.234-.937-.568-1.16-1.002-.223-.433-.322-.931-.299-1.494 0-.351.03-.668.088-.95.059-.28.299-1.054.72-2.32l-1.476.247c-.047.468-.094.89-.14 1.265-.047.375-.2.89-.457 1.547-.258.656-.885 1.266-1.881 1.828-.996.563-2.233 1.078-3.71 1.547l-.632-2.426zm11.46-7.171c-3.046.093-5.812.539-8.296 1.335l-.809-1.933c3.493-.89 6.621-1.336 9.387-1.336l-.281 1.934zm-8.472-1.266l-.914-2.11a2.62 2.62 0 0 0-.053.264c-.011.082-.029.27-.052.563-.024.293.035.556.175.79l.387.844-1.969 1.02a6.306 6.306 0 0 1-.58-1.002c-.129-.293-.228-.727-.299-1.3a3.486 3.486 0 0 1 .247-1.741l.28-.738 2.145.633c-.117.257-.21.48-.28.668a17.673 17.673 0 0 1 3.198-1.23c.211.585.586 1.036 1.125 1.353.54.316 1.149.28 1.828-.106.68-.387 1.02-.967 1.02-1.74V1.87c.398-.023.832-.035 1.3-.035 1.946.047 3.136.228 3.57.545.433.316.696.78.79 1.389.07.562-.023 1.148-.281 1.757l-.387.95-2.426-.668c.118-.305.211-.586.282-.844.07-.258.04-.48-.088-.668-.13-.188-.973-.223-2.532-.106a18.273 18.273 0 0 0-4.587.95l-1.442.562-.457.176zm4.36-2.356a1.465 1.465 0 0 1-1.178-.386c-.34-.305-.487-.715-.44-1.23a1.508 1.508 0 0 1 1.494-1.424c.41-.012.745.11 1.002.369.258.257.422.568.493.931.07.363-.006.733-.229 1.108-.223.375-.603.586-1.142.632zm-.176-.351c.726-.047 1.101-.328 1.125-.844.023-.516-.082-.885-.317-1.107-.234-.223-.45-.305-.65-.246-.2.058-.31.146-.334.263a.48.48 0 0 0 .035.317c.024.07.117.199.281.386a.895.895 0 0 1 .246.598c-.023.234-.105.404-.246.51-.14.105-.187.146-.14.123zm19.406 6.89l-.914-1.898c.937-.398 1.629-.785 2.074-1.16l-.633-.809-.246.317-1.195-.844c-.305.562-.633.926-.984 1.09-.352.164-.926.363-1.723.597a4.808 4.808 0 0 0-.246.334c-.07.106-.123.381-.158.827-.036.445.205.82.72 1.125l-1.863.527c-.047-.234-.1-.58-.158-1.037a14.857 14.857 0 0 1-.088-.756l-.035-.668-1.09.035.809 1.02c-.891.703-1.688 1.207-2.391 1.511l-.95-2.109c1.009-.375 1.723-.715 2.145-1.02l.246-.597-.843.387c-.141-.211-.276-.446-.405-.704s-.199-.609-.21-1.054c-.012-.446.087-.914.298-1.406l-.808.246-.387-1.864c1.57-.328 2.812-.574 3.726-.738l.141-1.125 2.004.246-.106.703c.868-.047 1.817-.093 2.848-.14l-.21 1.828c-.962 0-1.923.023-2.884.07v.246c1.032 0 1.711.117 2.04.352.328.234.539.539.632.914.282-.492.563-1.06.844-1.705s.457-1.108.527-1.389l.211-.984 2.18.28a20.823 20.823 0 0 1-.563 1.83c1.055-.142 2.497-.294 4.325-.458l-.282 2.18c-.375 0-.738.011-1.09.035-.351 1.078-.714 1.957-1.09 2.637.657.445 1.5.761 2.532.949l-.668 2.39a2.534 2.534 0 0 1-.738-.21l-.106 1.687c-2.226.023-3.832.082-4.816.176-.094.164-.129.258-.106.281l.036.211a21.971 21.971 0 0 1 1.828-.211l1.898-.07.317-.035-.07 1.37c-.423.024-.985.048-1.688.071-.703.023-1.453.094-2.25.21l.14.317c.68 0 1.196-.011 1.547-.035l3.094-.14 1.723-.036-.282 1.97c-6.68.093-11.765.468-15.257 1.124l-.422-2.074c1.218-.094 2.39-.211 3.515-.352-.023-.21-.04-.44-.052-.685s.005-.44.052-.58l.14-.492 1.97.07c-.118.515-.164.832-.14.95l.07.632 1.687-.14c-.117-.563-.164-.915-.14-1.055l.105-1.125c-2.39.328-4.207.644-5.45.949l-.351-2.004c.234-.024.41-.047.527-.07l2.637-.422c.633-.07 2.133-.235 4.5-.493zm.809-.07c1.945-.117 3.017-.17 3.216-.158.2.012.393-.006.58-.053-.515-.234-1.101-.62-1.757-1.16-.399.305-.692.516-.88.633l-.948.598-.211.14zM182.46 3.7l1.195.317.985-.387.035-.422c-.703.211-1.442.375-2.215.492zm2.144 1.442l-.386.175-.352-.703c-.023.328-.023.563 0 .703l.035.282.036.316h.632l.035-.773zm7.172-.457l.809.808a5.99 5.99 0 0 0 .457-1.02l-1.266.212zm-5.273.949c.539-.14.785-.352.738-.633a.349.349 0 0 0-.105-.123c-.047-.035-.258-.064-.633-.088-.047.281-.059.445-.035.492l.035.352zm1.195 1.512c.446.023.744.175.897.457.152.28.234.533.246.755.012.223-.03.416-.123.58-.211.376-.551.563-1.02.563-.492.023-.814-.105-.967-.387-.152-.281-.216-.55-.193-.808 0-.211.076-.457.229-.739.152-.28.462-.421.931-.421zm-.21 2.039c.609-.024.92-.217.93-.58.013-.364-.064-.627-.228-.791-.164-.165-.334-.24-.51-.229-.175.012-.28.076-.316.193-.035.118-.017.211.053.282l.176.175c0 .024.029.094.088.211.058.118.1.188.123.211 0 .117-.059.24-.176.37a1.77 1.77 0 0 0-.14.158zm17.683 2.53c.187-.937.27-2.003.246-3.198-.023-.844-.07-1.57-.14-2.18l-.141-1.23 1.652-.633c.117.984.2 1.84.246 2.566.047.727.065 1.53.053 2.408a25.99 25.99 0 0 1-.176 2.672 4.99 4.99 0 0 1-.95 2.426c-.526.715-1.423 1.389-2.689 2.021a98.302 98.302 0 0 0-.738-1.793c.656-.351 1.172-.68 1.547-.984.375-.305.627-.61.756-.914s.228-.645.299-1.02l-1.758.774a45.493 45.493 0 0 1-.334-1.195c-.106-.399-.205-1.055-.299-1.97a20.379 20.379 0 0 1-.123-2.39c.012-.68.053-1.377.123-2.092.07-.714.152-1.312.246-1.793.094-.48.27-1.236.528-2.267l1.757.808-.175.528c.468-.399.896-.697 1.283-.897.386-.199.826-.287 1.318-.263.774.07 1.283.416 1.53 1.037.246.62.374 1.388.386 2.303.012.914.006 1.933-.017 3.058-.047 1.219-.094 2.04-.141 2.461l-.246 2.356-2.04-.563c.188-1.594.294-2.59.317-2.988.024-.399.047-.88.07-1.442.024-.562.053-1.195.088-1.898.036-.703-.017-1.178-.158-1.424a1.114 1.114 0 0 0-.58-.51c-.246-.093-.78.246-1.6 1.02l-.492-.88a54.58 54.58 0 0 0-.193 1.6c-.059.551-.064 1.178-.018 1.881l.106 1.301c.047.938.076 1.453.088 1.547.011.094.134.68.369 1.758zm6.398-8.296c.235 1.687.37 2.807.405 3.357.035.551.052 1.143.052 1.776-.047 1.219-.129 2.203-.246 2.953l-.176 1.02-1.617-.844c.07-.47.123-.85.158-1.143.036-.293.06-.633.07-1.02s.013-.884 0-1.494c-.01-.609-.028-1.171-.052-1.687a10.78 10.78 0 0 0-.14-1.371l-.176-.914 1.722-.633zm.317-2.18l2.039-.668c.14.563.252 1.06.334 1.494.082.434.176 1.57.281 3.41.105 1.84.152 3.2.14 4.079a25.132 25.132 0 0 1-.193 2.742c-.117.95-.293 1.764-.527 2.443-.234.68-.48 1.114-.738 1.301l-.95.844-1.406-2.04a5.357 5.357 0 0 0 1.055-1.072c.281-.386.463-1.095.545-2.126.082-1.032.117-2.14.105-3.323a55.688 55.688 0 0 0-.158-3.638c-.094-1.243-.187-2.063-.281-2.461l-.246-.985zm-3.375 14.38a1.465 1.465 0 0 1-1.178-.388c-.34-.304-.486-.714-.44-1.23.024-.375.176-.697.458-.967.28-.27.627-.41 1.037-.422.41-.011.744.112 1.002.37.257.257.422.562.492.914.07.351-.006.714-.229 1.09-.222.374-.603.585-1.142.632zm-.176-.352c.281 0 .539-.1.773-.3.235-.198.358-.462.37-.79a1.017 1.017 0 0 0-.352-.826c-.246-.223-.463-.305-.65-.246-.188.058-.293.146-.317.263a.48.48 0 0 0 .035.317c.024.07.117.193.282.369.164.176.246.369.246.58-.024.234-.106.404-.246.51-.141.105-.188.146-.141.123zm-6.68-5.801c-.023.492-.029.967-.017 1.424.011.457.052 1.002.123 1.634.07.633.152 1.043.246 1.23l.457 1.09-2.004 1.231a16.333 16.333 0 0 1-.545-1.476 9.025 9.025 0 0 1-.299-1.389 18.32 18.32 0 0 1-.14-1.916c-.024-.773-.024-1.254 0-1.441l.07-.739 2.11.352zm-.492-5.38a1.442 1.442 0 0 1-1.16-.368c-.328-.293-.486-.674-.475-1.143.012-.469.158-.844.44-1.125.281-.281.644-.422 1.09-.422.375.024.697.159.966.405.27.246.44.55.51.914.07.363-.006.732-.228 1.107-.223.375-.604.586-1.143.633zm-.176-.35c.282 0 .54-.1.774-.3.234-.199.357-.468.369-.808a1.037 1.037 0 0 0-.352-.844c-.246-.222-.463-.304-.65-.246-.188.059-.293.147-.317.264a.48.48 0 0 0 .036.316c.023.117.093.24.21.37.118.128.194.222.23.28.034.06.052.17.052.335-.024.257-.106.433-.246.527-.14.094-.176.129-.106.105zm-.457 4.288a1.343 1.343 0 0 1-1.142-.404 1.578 1.578 0 0 1-.475-1.16c0-.457.14-.826.422-1.107.281-.282.644-.422 1.09-.422.375.023.697.158.967.404.27.246.439.55.51.914.07.363-.012.738-.247 1.125s-.61.604-1.125.65zm-.176-.351c.727-.14 1.096-.457 1.108-.95.012-.492-.1-.843-.334-1.054-.234-.211-.457-.287-.668-.229-.211.059-.322.147-.334.264a.437.437 0 0 0 .088.317c.047.14.105.234.176.28l.246.282c.047.117.07.258.07.422-.023.21-.1.38-.228.51-.13.129-.17.181-.124.158zm28.618-4.395h.316c.867.68 1.734.645 2.602-.105l.738-.035-.316 2.285a70.5 70.5 0 0 0-3.2.07c.024.68.047 1.137.07 1.371.024.235.135.914.335 2.04.199 1.124.369 1.98.51 2.566.14.586.292 1.025.456 1.318.164.293.287.31.37.053.082-.258.158-.574.228-.95l.106-.702 2.144.597c-.305 1.36-.545 2.309-.72 2.848-.176.539-.405.978-.686 1.318-.281.34-.545.54-.791.598-.246.058-.68-.094-1.301-.457-.621-.363-1.13-1.166-1.53-2.408-.398-1.243-.667-2.344-.808-3.305l-.351-2.356-.07-.386-.141 1.37-.809.141c-.07.235-.129.493-.176.774a7.289 7.289 0 0 0-.088.95c-.011.35.018.632.088.843l.106.492a6.166 6.166 0 0 0 1.3-.809l.247 2.25c-1.524.844-3.036 1.43-4.536 1.758l-.21-1.37c-.094.116-.2.269-.317.456-.117.188-.393.492-.826.914-.434.422-.885.645-1.354.668-.562.047-.972-.129-1.23-.527-.258-.399-.393-.756-.404-1.072-.012-.317.064-1.143.228-2.479l.07-1.125c.047-.75.106-1.371.176-1.863.07-.492-.058-.762-.386-.809-.07 0-.13.012-.176.035s-.387.328-1.02.914l-1.054-2.074c1.007-.937 1.857-1.412 2.548-1.424.692-.011 1.225.147 1.6.475.234.234.41.54.527.914.117.375.182.744.194 1.107.011.364-.018.92-.088 1.67l-.106 1.16c-.047.258-.088.54-.123.844-.035.305-.064.598-.088.88-.023.28 0 .421.07.421.118.024.364-.316.739-1.02l.984 1.794-.105-.774c.398-.023.82-.094 1.265-.21a7.268 7.268 0 0 1-.175-.88c-.047-.328-.035-.726.035-1.195l.105-1.125-1.23.562-.598-1.968c1.781-.774 3.399-1.254 4.852-1.442l-.106-1.054c-2.086.492-3.152.738-3.199.738l-1.266.422-.703-2.285c1.688-.422 3.328-.809 4.922-1.16l-.21-2.602-.071-.563 2.531.282c-.023 1.007-.012 1.675.035 2.004l.07.632zm-9.141-2.46c.445-.024.855.134 1.23.474.376.34.54.78.493 1.318-.047.54-.223.973-.528 1.301-.304.328-.691.48-1.16.457-.351 0-.674-.1-.967-.299-.293-.199-.498-.398-.615-.597-.117-.2-.187-.469-.21-.809-.024-.34.093-.72.35-1.142.259-.422.727-.657 1.407-.704zm-.07 3.199c.117.023.27.023.457 0 .187-.024.386-.182.597-.475.211-.293.311-.639.3-1.037-.012-.399-.194-.744-.546-1.037-.351-.293-.62-.322-.808-.088-.188.234-.258.433-.211.598.023.117.105.257.246.421.14.165.246.305.316.422.07.118.106.246.106.387a.925.925 0 0 1-.282.563c-.164.164-.222.246-.175.246zm10.863-.704a1.25 1.25 0 0 1-1.037-.333c-.293-.27-.416-.64-.37-1.108 0-.375.124-.674.37-.896.246-.223.568-.34.967-.352.398-.012.715.111.949.37.234.257.351.585.351.984-.023.257-.128.533-.316.826-.187.293-.492.463-.914.51zm-.246-.316c.469-.047.762-.21.879-.492.117-.281.176-.504.176-.668-.024-.352-.147-.574-.37-.668-.222-.094-.398-.123-.527-.088a.42.42 0 0 0-.281.246c-.059.13-.041.252.053.37 0 .023.058.105.175.245.118.141.188.282.211.422a.7.7 0 0 1-.175.457c-.118.14-.165.2-.141.176zm16.945 3.024c.727-.047 1.735-.012 3.024.105l-.598 2.25c-1.523-.117-2.684-.1-3.48.053-.797.152-1.84.392-3.13.72l-.773-2.18a20.556 20.556 0 0 1 2.531-.667.437.437 0 0 1 0-.246l.036-.282-.036-.457a11.98 11.98 0 0 0-2.777.774l-.773-2.25c.398-.117.814-.246 1.248-.387.433-.14.732-.234.896-.281l.95-.176.351-.07c-.117-.656-.2-1.078-.246-1.266l-.211-.668L246.69.22a18.6 18.6 0 0 1 .422 1.758l.106.703c1.36 0 2.648.082 3.867.246l-.492 2.285c-1.383-.188-2.485-.234-3.305-.14.024.374.035.609.035.702v.247zm-9.21-5.555l1.792 1.37a31.27 31.27 0 0 0-1.406 1.9c-.328.492-.562.849-.703 1.072-.14.222-.217.433-.229.632-.011.2.053.352.194.457.14.106.422-.04.843-.439.446-.492.797-.95 1.055-1.371l1.899 1.371c-.164.14-.3.27-.405.387-.105.117-.345.445-.72.984l-1.336 1.793c-.164.234-.264.445-.3.633-.034.187-.017.328.054.422.07.094.351.023.843-.211l1.055-.457.738-.457.14 2.32c-.983.54-1.927.95-2.83 1.23-.902.282-1.57.381-2.003.3-.434-.083-.75-.276-.95-.58-.199-.305-.245-.739-.14-1.301.106-.563.58-1.489 1.424-2.778-.516.188-.932.27-1.248.246-.317-.023-.545-.117-.686-.281-.14-.164-.21-.463-.21-.896 0-.434.152-1.09.456-1.97s1.196-2.337 2.672-4.376zm3.374 11.144l.528 2.25c-.961.54-1.887.979-2.778 1.319-.89.34-2.074.662-3.55.967l-.528-2.461c1.36-.024 2.608-.282 3.744-.774 1.137-.492 1.998-.926 2.584-1.3zm1.407-2.144l1.582.773c1.03-.68 1.945-1.066 2.742-1.16.492-.047 1.02.018 1.582.193.562.176.978.551 1.248 1.125.27.575.38 1.19.334 1.846-.047.586-.334 1.43-.862 2.531-.527 1.102-2.033 1.747-4.517 1.934l.176-1.441-1.653 1.476a8.834 8.834 0 0 1-.79-1.055c-.223-.351-.393-.802-.51-1.353-.118-.55-.17-1.225-.159-2.022.012-.796.147-1.44.405-1.933l.422-.914zm2.355 4.957c1.102-.305 1.799-.633 2.092-.985.293-.351.469-.75.527-1.195.059-.445-.158-.715-.65-.808-.563-.07-1.242.328-2.04 1.195l-.562-.387c-.047.399-.058.75-.035 1.055.023.305.246.68.668 1.125zm16.875-5.906l.035.28c1.57.048 3.774.118 6.61.212l-.317 2.18c-.539-.024-1.336-.07-2.39-.141s-1.946-.07-2.672 0c1.78 1.289 3.55 1.98 5.308 2.074l-.457 2.461c-1.172-.14-2.232-.44-3.181-.896-.95-.457-1.928-1.108-2.936-1.952.14 1.008.281 1.63.422 1.864l.351.703-2.25 1.125c-.515-1.149-.785-1.934-.808-2.356l-.14-1.09c-1.548.61-3.165 1.735-4.852 3.375l-1.582-1.863c1.195-.914 2.73-1.933 4.605-3.058-.281.117-.48.187-.598.21l-1.125.247c-.351.093-1.113.328-2.285.703l-.633-2.25c.422-.07 1.108-.217 2.057-.44.95-.222 1.787-.386 2.514-.492a19.725 19.725 0 0 0 1.933-.369l.036-.633c-1.125-.117-1.758-.21-1.899-.281l-.844-.352.317-.457-1.793.88c-.258-.61-.457-1.16-.598-1.653-.14-.492-.217-1.067-.228-1.723-.012-.656.029-1.295.123-1.916.093-.62.351-1.459.773-2.513l2.145.914c1.289-.329 2.29-.551 3.005-.668.715-.118 1.588-.153 2.62-.106.82.07 1.47.235 1.95.492.481.258.897.698 1.249 1.319.351.62.515 1.33.492 2.127-.047.797-.37 1.634-.967 2.513-.597.88-1.927 1.389-3.99 1.53zm-4.922-4.36a64.49 64.49 0 0 1 2.461-.527l-.105-.668-1.371.351-.668-1.335c-.235.75-.34 1.324-.317 1.722v.457zm.106 1.723l.21 1.055.598-1.02c.516.14 1.055.246 1.617.316l.036-.878c-.961.164-1.782.34-2.461.527zm4.675-2.496a38.41 38.41 0 0 1 2.391-.07 7.26 7.26 0 0 0-.44-.475c-.175-.176-.85-.252-2.02-.229.022.235.046.493.07.774zm2.496 1.758c-.843 0-1.652.011-2.425.035V6.37c1.078-.117 1.746-.351 2.004-.703l.421-.527z" fill-rule="evenodd"/></svg>