<?xml version="1.0" encoding="UTF-8"?>
<svg width="28px" height="28px" viewBox="0 0 28 28" version="1.1" xmlns="http://www.w3.org/2000/svg" xmlns:xlink="http://www.w3.org/1999/xlink">
    <!-- Generator: Sketch 51 (57462) - http://www.bohemiancoding.com/sketch -->
    <title>星座配对/返回</title>
    <desc>Created with Sketch.</desc>
    <defs>
        <circle id="path-1" cx="14" cy="14" r="14"></circle>
    </defs>
    <g id="星座配对" stroke="none" stroke-width="1" fill="none" fill-rule="evenodd">
        <g id="星座配对弹窗" transform="translate(-15.000000, -227.000000)">
            <rect fill="#FFFFFF" x="0" y="0" width="375" height="667"></rect>
            <g id="星座配对/返回" transform="translate(15.000000, 227.000000)">
                <mask id="mask-2" fill="white">
                    <use xlink:href="#path-1"></use>
                </mask>
                <use id="Oval-4" fill="#FF6D6D" fill-rule="nonzero" opacity="0.100000001" xlink:href="#path-1"></use>
                <path d="M15.6206292,15.6198739 C15.5861107,16.7991331 15.5099659,17.9774754 15.3921953,19.1526947 L14.9919075,23.1471193 C14.9352989,23.7120098 14.4599151,24.1421356 13.8921953,24.1421356 C13.3245463,24.1421356 12.8492914,23.7119186 12.7929614,23.1470715 L12.3894832,19.1012081 C12.2734471,17.9376595 12.1982375,16.7710677 12.163854,15.6035761 C11.1506617,15.5638263 10.1383772,15.4933134 9.12840271,15.3920378 L5.13714564,14.9918128 C4.57224942,14.9351676 4.14213562,14.4597669 4.14213562,13.8920378 C4.14213562,13.3243796 4.57234078,12.8491079 5.13719355,12.7927417 L9.17360421,12.3899512 C10.1739361,12.2901288 11.1765177,12.2204636 12.1799889,12.1809553 C12.2196143,11.1620524 12.2903499,10.1440596 12.3921953,9.12840271 L12.7924202,5.13714564 C12.8490654,4.57224942 13.3244661,4.14213562 13.8921953,4.14213562 C14.4598534,4.14213562 14.9351251,4.57234078 14.9914914,5.13719355 L15.3942818,9.17360421 C15.4935442,10.1683245 15.5629868,11.1652694 15.6026099,12.1631015 C16.7876327,12.1973802 17.9717404,12.2736924 19.1526947,12.3920378 L23.1471193,12.7923255 C23.7120098,12.8489341 24.1421356,13.3243179 24.1421356,13.8920378 C24.1421356,14.4596867 23.7119186,14.9349416 23.1470715,14.9912716 L19.1012081,15.3947498 C17.9433247,15.510221 16.7824277,15.5852621 15.6206292,15.6198739 Z" id="Combined-Shape" fill="#FF6D6D" fill-rule="nonzero" mask="url(#mask-2)" transform="translate(14.142136, 14.142136) rotate(-315.000000) translate(-14.142136, -14.142136) "></path>
            </g>
        </g>
    </g>
</svg>