<?xml version="1.0" encoding="UTF-8"?>
<svg width="28px" height="28px" viewBox="0 0 28 28" version="1.1" xmlns="http://www.w3.org/2000/svg" xmlns:xlink="http://www.w3.org/1999/xlink">
    <!-- Generator: Sketch 51 (57462) - http://www.bohemiancoding.com/sketch -->
    <title>星座配对/确定</title>
    <desc>Created with Sketch.</desc>
    <defs>
        <circle id="path-1" cx="14" cy="14" r="14"></circle>
    </defs>
    <g id="星座配对" stroke="none" stroke-width="1" fill="none" fill-rule="evenodd">
        <g id="星座配对弹窗" transform="translate(-332.000000, -227.000000)">
            <rect fill="#FFFFFF" x="0" y="0" width="375" height="667"></rect>
            <g id="星座配对/确定" transform="translate(332.000000, 227.000000)">
                <mask id="mask-2" fill="white">
                    <use xlink:href="#path-1"></use>
                </mask>
                <use id="Oval-4" fill="#9262FB" fill-rule="nonzero" opacity="0.100000001" xlink:href="#path-1"></use>
                <path d="M12.6082234,16.0288348 L21.8869522,7.81204568 C22.2850409,7.50242114 22.8513892,7.53768071 23.2079996,7.89429112 L23.2908851,7.9771766 C23.6814094,8.3677009 23.6814094,9.00086588 23.2908851,9.39139017 L13.3913902,20.2908851 C13.0008659,20.6814094 12.3677009,20.6814094 11.9771766,20.2908851 C10.7332663,19.0469748 9.74429406,18.0580026 9.01026001,17.3239685 C8.27622596,16.5899345 7.17517488,15.4888834 5.70710678,14.0208153 C5.31658249,13.630291 5.31658249,12.997126 5.70710678,12.6066017 L5.83452466,12.4791838 C6.17158905,12.1421195 6.69970906,12.0898253 7.09633164,12.3542403 L12.6082234,16.0288348 Z" id="Combined-Shape" fill="#9262FB" fill-rule="nonzero" mask="url(#mask-2)"></path>
            </g>
        </g>
    </g>
</svg>